<?xml version="1.0" encoding="UTF-8"?>
<svg width="221px" height="48px" viewBox="0 0 221 48" version="1.1" xmlns="http://www.w3.org/2000/svg" xmlns:xlink="http://www.w3.org/1999/xlink">
    <!-- Generator: Sketch 48.2 (47327) - http://www.bohemiancoding.com/sketch -->
    <title>gitlab logo | webcast</title>
    <desc>Created with Sketch.</desc>
    <defs></defs>
    <g id="Desktop-HD" stroke="none" stroke-width="1" fill="none" fill-rule="evenodd" transform="translate(-69.000000, -45.000000)">
        <g id="hero-section">
            <g id="gitlab-logo-|-webcast" transform="translate(68.189154, 41.197908)">
                <g id="gitlab-with-name" transform="translate(0.899775, 0.955873)" fill-rule="nonzero">
                    <g id="g10" transform="translate(64.000000, 25.869504) scale(-1, 1) rotate(-180.000000) translate(-64.000000, -25.869504) translate(0.000000, 0.869504)">
                        <g id="g12" transform="translate(92.517203, 15.515250)" fill="#FFFFFF">
                            <polygon id="path14" points="2.38840764 17.1403372 0.0880900937 17.1403372 0.0953958112 0.018826272 9.40119397 0.018826272 9.40119397 2.1360794 2.39571336 2.1360794"></polygon>
                        </g>
                        <g id="g16" transform="translate(0.000000, -0.000000)">
                            <g id="g18-Clipped">
                                <g id="g18">
                                    <g>
                                        <g id="Group" transform="translate(0.070246, 0.070246)">
                                            <g id="g24" transform="translate(102.981899, 15.098010)" fill="#FFFFFF">
                                                <path d="M7.7272012,3.37186961 C7.15215694,2.77069336 6.18499234,2.16937661 4.87797138,2.16937661 C3.1265661,2.16937661 2.42086189,3.03201325 2.42086189,4.15611029 C2.42086189,5.85511109 3.59708241,6.66548376 6.10659637,6.66548376 C6.57711267,6.66548376 7.33508087,6.61321978 7.7272012,6.53482381 L7.7272012,3.37186961 Z M5.34848768,13.7493603 C3.49086851,13.7493603 1.7870909,13.0908623 0.457590806,11.9947236 L1.27063287,10.5864061 C2.21166548,11.1353184 3.3618945,11.6843712 5.00863132,11.6843712 C6.89069654,11.6843712 7.7272012,10.717066 7.7272012,9.09646125 L7.7272012,8.2599566 C7.36121286,8.33835257 6.60324466,8.39075704 6.13272836,8.39075704 C2.10713752,8.39075704 0.0682803597,6.97920812 0.0682803597,4.02530985 C0.0682803597,1.38527643 1.68888519,0.0521234844 4.14599468,0.0521234844 C5.80116118,0.0521234844 7.38734484,0.810232169 7.93625712,2.03871666 L8.35450944,0.365847853 L9.97525477,0.365847853 L9.97525477,9.12259324 C9.97525477,11.8934271 8.77276177,13.7493603 5.34848768,13.7493603 Z" id="path26"></path>
                                            </g>
                                            <g id="g28" transform="translate(115.883459, 15.081628)" fill="#FFFFFF">
                                                <path d="M4.49582615,2.10741851 C3.63318951,2.10741851 2.87508083,2.21194647 2.30003657,2.47340685 L2.30003657,9.57034943 L2.30003657,10.3936476 C3.08427723,11.0472283 4.05144184,11.5177446 5.28006683,11.5177446 C7.50184792,11.5177446 8.36448455,9.94940377 8.36448455,7.41375782 C8.36448455,3.8065598 6.97906763,2.10741851 4.49582615,2.10741851 M5.46256927,13.7657982 C3.40671227,13.7657982 2.30003657,12.3671748 2.30003657,12.3671748 L2.30003657,14.5760303 L2.29273084,17.5036562 L1.25559995,17.5036562 L0.044817767,17.5036562 L0.0521234844,0.80039755 C1.17608003,0.329881244 2.71828889,0.0685613488 4.39129819,0.0685613488 C8.67820892,0.0685613488 10.743198,2.81312272 10.743198,7.54441777 C10.743198,11.2824163 8.83457938,13.7657982 5.46256927,13.7657982" id="path30"></path>
                                            </g>
                                            <g id="g32" transform="translate(61.541060, 15.134510)" fill="#FFFFFF">
                                                <path d="M8.28917947,15.5948969 C10.3280366,15.5948969 11.6350576,14.9153247 12.4976943,14.2356121 L13.486214,15.9479598 C12.1388711,17.1295191 10.3266317,17.7645545 8.39370743,17.7645545 C3.50562044,17.7645545 0.0813463545,14.7845243 0.0813463545,8.77248079 C0.0813463545,2.47270439 3.77551051,0.0155948969 8.00158709,0.0155948969 C10.1189807,0.0155948969 11.92265,0.512243192 13.0988705,1.00889149 L13.0506809,7.73984571 L13.0506809,8.533921 L13.0506809,9.85723934 L6.77717693,9.85723934 L6.77717693,7.73984571 L10.7764952,7.73984571 L10.8246849,2.62963682 C10.3019046,2.36817643 9.38700402,2.15912051 8.15851952,2.15912051 C4.76037742,2.15912051 2.48619186,4.29674535 2.48619186,8.79861276 C2.48619186,13.3729754 4.83877339,15.5948969 8.28917947,15.5948969" id="path34"></path>
                                            </g>
                                            <g id="g36" transform="translate(83.724478, 15.128891)" fill="#FFFFFF">
                                                <path d="M2.28303672,17.4564499 L0.034983145,17.4564499 L0.0422888623,14.5810881 L0.0422888623,13.4047271 L0.0422888623,12.7191137 L0.0422888623,11.522662 L0.0422888623,4.67411375 L0.0422888623,4.64798176 C0.0422888623,1.87714791 1.24478186,0.0212146767 4.66905595,0.0212146767 C5.14210116,0.0212146767 5.60503076,0.0642060143 6.05447288,0.145833358 L6.05447288,2.16459979 C5.72908746,2.11472422 5.38178489,2.08634432 5.00891231,2.08634432 C3.12684709,2.08634432 2.29034243,3.05350892 2.29034243,4.67411375 L2.29034243,11.522662 L6.05447288,11.522662 L6.05447288,13.4047271 L2.29034243,13.4047271 L2.28303672,17.4564499 Z" id="path38"></path>
                                            </g>
                                            <polygon id="path40" fill="#FFFFFF" points="78.055269 15.4638155 80.3033225 15.4638155 80.3033225 28.5337442 78.055269 28.5337442"></polygon>
                                            <polygon id="path42" fill="#FFFFFF" points="78.055269 30.3372729 80.3033225 30.3372729 80.3033225 32.5853264 78.055269 32.5853264"></polygon>
                                            <g id="g44" transform="translate(0.056057, 0.081655)" fill="#FC6D26">
                                                <path d="M51.8424954,20.5122068 L48.9386131,29.4492067 L43.1835342,47.1617783 C42.887512,48.0730261 41.5981935,48.0730261 41.3020309,47.1617783 L35.5468115,29.4492067 L16.436038,29.4492067 L10.680678,47.1617783 C10.3846559,48.0730261 9.0953373,48.0730261 8.79917475,47.1617783 L3.04409579,29.4492067 L0.140354073,20.5122068 C-0.124618681,19.6970573 0.165643095,18.8040739 0.858983785,18.3002603 L25.9913544,0.04060293 L51.1238656,18.3002603 C51.8172063,18.8040739 52.1073276,19.6970573 51.8424954,20.5122068" id="path46"></path>
                                            </g>
                                            <g id="g48" transform="translate(16.458714, 0.122258)" fill="#E24329">
                                                <polygon id="path50" points="9.58875421 0 9.58875421 0 19.1442112 29.4086038 0.0332972101 29.4086038"></polygon>
                                            </g>
                                            <g id="g56" transform="translate(3.006359, 0.122315)" fill="#FC6D26">
                                                <polygon id="path58" points="23.041109 0 13.485652 29.4084633 0.0938503709 29.4084633"></polygon>
                                            </g>
                                            <g id="g64" transform="translate(0.009329, 0.026961)" fill="#FCA326">
                                                <path d="M3.09088048,29.5038591 L0.186998269,20.5668592 C-0.0778339902,19.7517098 0.212287292,18.8587262 0.905768476,18.3550532 L26.0381391,0.0953958112 L3.09088048,29.5038591 Z" id="path66"></path>
                                            </g>
                                            <g id="g72" transform="translate(3.100209, 29.530792)" fill="#E24329">
                                                <path d="M0,0 L13.3918017,0 L7.6365822,17.7125716 C7.34041965,18.6239598 6.05110101,18.6239598 5.75507896,17.7125716 L0,0 Z" id="path74"></path>
                                            </g>
                                            <g id="g76" transform="translate(26.047468, 0.122315)" fill="#FC6D26">
                                                <polygon id="path78" points="0 0 9.555457 29.4084633 22.9472587 29.4084633"></polygon>
                                            </g>
                                            <g id="g80" transform="translate(25.953604, 0.026961)" fill="#FCA326">
                                                <path d="M23.041109,29.5038591 L25.9449912,20.5668592 C26.2098235,19.7517098 25.9197022,18.8587262 25.226221,18.3550532 L0.0938503709,0.0953958112 L23.041109,29.5038591 Z" id="path82"></path>
                                            </g>
                                            <g id="g84" transform="translate(35.507234, 29.530792)" fill="#E24329">
                                                <path d="M13.4874785,0 L0.0956768003,0 L5.85089626,17.7125716 C6.1470588,18.6239598 7.43637745,18.6239598 7.7323995,17.7125716 L13.4874785,0 Z" id="path86"></path>
                                            </g>
                                        </g>
                                    </g>
                                </g>
                            </g>
                        </g>
                    </g>
                </g>
                <polygon id="Line" fill="#FFFFFF" fill-rule="nonzero" points="136.963255 9.44189248 137.963255 9.44189248 137.963255 43.4558735 136.963255 43.4558735"></polygon>
                <path d="M145.616,21.4047156 L146.672,21.4047156 L148.498,29.9407156 C148.659334,30.7327195 148.824332,31.521045 148.993,32.3057156 C149.161668,33.0903862 149.326666,33.8787116 149.488,34.6707156 L149.576,34.6707156 C149.752001,33.8787116 149.931666,33.0903862 150.115,32.3057156 C150.298334,31.521045 150.492666,30.7327195 150.698,29.9407156 L152.964,21.4047156 L153.998,21.4047156 L156.264,29.9407156 C156.469334,30.7327195 156.663666,31.521045 156.847,32.3057156 C157.030334,33.0903862 157.224666,33.8787116 157.43,34.6707156 L157.518,34.6707156 C157.679334,33.8787116 157.836999,33.0903862 157.991,32.3057156 C158.145001,31.521045 158.302666,30.7327195 158.464,29.9407156 L160.29,21.4047156 L161.28,21.4047156 L158.046,35.9027156 L156.924,35.9027156 L154.284,25.9587156 C154.151999,25.3867127 154.020001,24.8403848 153.888,24.3197156 C153.755999,23.7990463 153.631334,23.2527184 153.514,22.6807156 L153.426,22.6807156 C153.308666,23.2527184 153.176667,23.7990463 153.03,24.3197156 C152.883333,24.8403848 152.744001,25.3867127 152.612,25.9587156 L150.016,35.9027156 L148.916,35.9027156 L145.616,21.4047156 Z M163.084,30.6447156 C163.084,29.7793779 163.212332,29.0020524 163.469,28.3127156 C163.725668,27.6233788 164.070331,27.0403846 164.503,26.5637156 C164.935669,26.0870465 165.426997,25.7203835 165.977,25.4637156 C166.527003,25.2070476 167.09533,25.0787156 167.682,25.0787156 C168.94334,25.0787156 169.93333,25.5040447 170.652,26.3547156 C171.37067,27.2053865 171.73,28.4080411 171.73,29.9627156 L171.73,30.3587156 C171.73,30.4907162 171.715333,30.6227149 171.686,30.7547156 L164.074,30.7547156 C164.088667,31.4147189 164.191332,32.0270461 164.382,32.5917156 C164.572668,33.1563851 164.840332,33.6403802 165.185,34.0437156 C165.529668,34.4470509 165.943998,34.7623811 166.428,34.9897156 C166.912002,35.21705 167.454664,35.3307156 168.056,35.3307156 C168.628003,35.3307156 169.144998,35.2463831 169.607,35.0777156 C170.069002,34.9090481 170.497998,34.6780504 170.894,34.3847156 L171.29,35.1327156 C170.864665,35.3820502 170.399003,35.6167145 169.893,35.8367156 C169.386997,36.0567167 168.745337,36.1667156 167.968,36.1667156 C167.29333,36.1667156 166.659003,36.0420502 166.065,35.7927156 C165.470997,35.543381 164.954002,35.1803846 164.514,34.7037156 C164.073998,34.2270465 163.725668,33.647719 163.469,32.9657156 C163.212332,32.2837122 163.084,31.5100532 163.084,30.6447156 Z M170.806,30.0067156 C170.806,28.6427088 170.527336,27.619719 169.97,26.9377156 C169.412664,26.2557122 168.657338,25.9147156 167.704,25.9147156 C167.249331,25.9147156 166.816669,26.010048 166.406,26.2007156 C165.995331,26.3913832 165.625002,26.6627138 165.295,27.0147156 C164.964998,27.3667173 164.693668,27.795713 164.481,28.3017156 C164.268332,28.8077181 164.132667,29.3760458 164.074,30.0067156 L170.806,30.0067156 Z M174.59,20.0847156 L175.558,20.0847156 L175.558,24.6607156 L175.514,26.7287156 C176.056669,26.2740466 176.635997,25.8853839 177.252,25.5627156 C177.868003,25.2400473 178.505997,25.0787156 179.166,25.0787156 C180.574007,25.0787156 181.629996,25.5663774 182.334,26.5417156 C183.038004,27.5170538 183.39,28.8260407 183.39,30.4687156 C183.39,31.3633867 183.265335,32.1627121 183.016,32.8667156 C182.766665,33.5707191 182.425669,34.1683798 181.993,34.6597156 C181.560331,35.1510514 181.061669,35.5250476 180.497,35.7817156 C179.932331,36.0383835 179.342003,36.1667156 178.726,36.1667156 C178.212664,36.1667156 177.681003,36.05305 177.131,35.8257156 C176.580997,35.5983811 176.056669,35.2940508 175.558,34.9127156 L175.514,34.9127156 L175.404,35.9027156 L174.59,35.9027156 L174.59,20.0847156 Z M175.558,33.9447156 C176.14467,34.4433847 176.709331,34.7953812 177.252,35.0007156 C177.794669,35.2060499 178.271331,35.3087156 178.682,35.3087156 C179.210003,35.3087156 179.701331,35.1913834 180.156,34.9567156 C180.610669,34.7220477 180.999332,34.392051 181.322,33.9667156 C181.644668,33.5413801 181.897666,33.0317185 182.081,32.4377156 C182.264334,31.8437126 182.356,31.1873858 182.356,30.4687156 C182.356,29.823379 182.293667,29.2220517 182.169,28.6647156 C182.044333,28.1073795 181.850001,27.6270509 181.586,27.2237156 C181.321999,26.8203802 180.977335,26.50505 180.552,26.2777156 C180.126665,26.0503811 179.613336,25.9367156 179.012,25.9367156 C178.483997,25.9367156 177.934003,26.0870474 177.362,26.3877156 C176.789997,26.6883837 176.18867,27.1173795 175.558,27.6747156 L175.558,33.9447156 Z M185.678,30.6447156 C185.678,29.7647112 185.809999,28.9763857 186.074,28.2797156 C186.338001,27.5830454 186.689998,27.0000513 187.13,26.5307156 C187.570002,26.0613799 188.079664,25.7020502 188.659,25.4527156 C189.238336,25.203381 189.850663,25.0787156 190.496,25.0787156 C191.229337,25.0787156 191.841664,25.2107143 192.333,25.4747156 C192.824336,25.7387169 193.245998,26.0393806 193.598,26.3767156 L193.026,27.0587156 C192.688665,26.7360473 192.314669,26.4683833 191.904,26.2557156 C191.493331,26.0430478 191.031336,25.9367156 190.518,25.9367156 C189.975331,25.9367156 189.473002,26.0503811 189.011,26.2777156 C188.548998,26.50505 188.145668,26.8277135 187.801,27.2457156 C187.456332,27.6637177 187.185001,28.1587127 186.987,28.7307156 C186.788999,29.3027184 186.69,29.9407121 186.69,30.6447156 C186.69,31.3340524 186.781666,31.9647127 186.965,32.5367156 C187.148334,33.1087184 187.404998,33.6000469 187.735,34.0107156 C188.065002,34.4213843 188.468331,34.7403811 188.945,34.9677156 C189.421669,35.19505 189.945997,35.3087156 190.518,35.3087156 C191.075336,35.3087156 191.592331,35.1913834 192.069,34.9567156 C192.545669,34.7220477 192.967332,34.4360506 193.334,34.0987156 L193.84,34.7587156 C193.385331,35.1693843 192.879336,35.5067143 192.322,35.7707156 C191.764664,36.0347169 191.14867,36.1667156 190.474,36.1667156 C189.784663,36.1667156 189.150336,36.0420502 188.571,35.7927156 C187.991664,35.543381 187.485669,35.1840513 187.053,34.7147156 C186.620331,34.2453799 186.283001,33.669719 186.041,32.9877156 C185.798999,32.3057122 185.678,31.52472 185.678,30.6447156 Z M195.842,33.2627156 C195.842,32.1040431 196.391995,31.2167187 197.492,30.6007156 C198.592005,29.9847125 200.315322,29.5447169 202.662,29.2807156 C202.676667,28.8847136 202.651,28.4850509 202.585,28.0817156 C202.519,27.6783802 202.394334,27.3190505 202.211,27.0037156 C202.027666,26.6883807 201.771002,26.4317166 201.441,26.2337156 C201.110998,26.0357146 200.689336,25.9367156 200.176,25.9367156 C199.45733,25.9367156 198.80467,26.0760475 198.218,26.3547156 C197.63133,26.6333836 197.162002,26.9047143 196.81,27.1687156 L196.37,26.4427156 C196.560668,26.3107149 196.791665,26.1640497 197.063,26.0027156 C197.334335,25.8413814 197.634998,25.6947162 197.965,25.5627156 C198.295002,25.4307149 198.657998,25.3170494 199.054,25.2217156 C199.450002,25.1263818 199.860665,25.0787156 200.286,25.0787156 C200.91667,25.0787156 201.444665,25.1850478 201.87,25.3977156 C202.295335,25.6103833 202.639999,25.9000471 202.904,26.2667156 C203.168001,26.6333841 203.354999,27.0623798 203.465,27.5537156 C203.575001,28.0450514 203.63,28.5767127 203.63,29.1487156 L203.63,35.9027156 L202.816,35.9027156 L202.706,34.5387156 L202.662,34.5387156 C202.119331,34.964051 201.536336,35.3417139 200.913,35.6717156 C200.289664,36.0017172 199.626004,36.1667156 198.922,36.1667156 C198.496665,36.1667156 198.100668,36.1080495 197.734,35.9907156 C197.367331,35.8733817 197.041001,35.6973834 196.755,35.4627156 C196.468999,35.2280477 196.245334,34.9273841 196.084,34.5607156 C195.922666,34.1940471 195.842,33.7613847 195.842,33.2627156 Z M196.854,33.2187156 C196.854,33.9813861 197.073998,34.5240473 197.514,34.8467156 C197.954002,35.1693839 198.474664,35.3307156 199.076,35.3307156 C199.692003,35.3307156 200.278664,35.1840504 200.836,34.8907156 C201.393336,34.5973808 202.001997,34.1720517 202.662,33.6147156 L202.662,30.0287156 C201.576661,30.1607162 200.66367,30.322048 199.923,30.5127156 C199.18233,30.7033832 198.584669,30.9307143 198.13,31.1947156 C197.675331,31.4587169 197.349001,31.7593806 197.151,32.0967156 C196.952999,32.4340506 196.854,32.8080469 196.854,33.2187156 Z M206.666,33.9887156 C207.120669,34.3700508 207.604664,34.6890476 208.118,34.9457156 C208.631336,35.2023835 209.26933,35.3307156 210.032,35.3307156 C210.868004,35.3307156 211.494998,35.1217177 211.913,34.7037156 C212.331002,34.2857135 212.54,33.7980517 212.54,33.2407156 C212.54,32.9180473 212.463001,32.6320502 212.309,32.3827156 C212.154999,32.133381 211.953335,31.9207165 211.704,31.7447156 C211.454665,31.5687147 211.179668,31.4147162 210.879,31.2827156 C210.578332,31.1507149 210.274002,31.0260495 209.966,30.9087156 C209.569998,30.7620482 209.170335,30.6080497 208.767,30.4467156 C208.363665,30.2853814 208.000668,30.09105 207.678,29.8637156 C207.355332,29.6363811 207.095001,29.3650505 206.897,29.0497156 C206.698999,28.7343807 206.6,28.3493845 206.6,27.8947156 C206.6,27.5133803 206.673333,27.150384 206.82,26.8057156 C206.966667,26.4610472 207.186665,26.1603835 207.48,25.9037156 C207.773335,25.6470476 208.128998,25.445383 208.547,25.2987156 C208.965002,25.1520482 209.452664,25.0787156 210.01,25.0787156 C210.567336,25.0787156 211.113664,25.1813812 211.649,25.3867156 C212.184336,25.5920499 212.642665,25.8560473 213.024,26.1787156 L212.496,26.8607156 C212.143998,26.5967143 211.770002,26.3730498 211.374,26.1897156 C210.977998,26.0063813 210.508669,25.9147156 209.966,25.9147156 C209.555331,25.9147156 209.203335,25.969715 208.91,26.0797156 C208.616665,26.1897161 208.371001,26.3327147 208.173,26.5087156 C207.974999,26.6847165 207.828334,26.8900477 207.733,27.1247156 C207.637666,27.3593834 207.59,27.5940477 207.59,27.8287156 C207.59,28.1367171 207.659666,28.3970478 207.799,28.6097156 C207.938334,28.8223833 208.125332,29.0093814 208.36,29.1707156 C208.594668,29.3320497 208.862332,29.4750483 209.163,29.5997156 C209.463668,29.7243829 209.767998,29.8453817 210.076,29.9627156 L211.308,30.4467156 C211.718669,30.6080497 212.088998,30.8060477 212.419,31.0407156 C212.749002,31.2753834 213.016666,31.5650472 213.222,31.9097156 C213.427334,32.254384 213.53,32.6833797 213.53,33.1967156 C213.53,33.5927176 213.453001,33.9703804 213.299,34.3297156 C213.144999,34.6890507 212.914002,35.0043809 212.606,35.2757156 C212.297998,35.5470503 211.924002,35.7633814 211.484,35.9247156 C211.043998,36.0860497 210.538003,36.1667156 209.966,36.1667156 C209.173996,36.1667156 208.448003,36.023717 207.788,35.7377156 C207.127997,35.4517141 206.563336,35.1107176 206.094,34.7147156 L206.666,33.9887156 Z M216.566,26.1787156 L214.916,26.1787156 L214.916,25.4307156 L216.588,25.3427156 L216.72,22.2847156 L217.556,22.2847156 L217.556,25.3427156 L220.614,25.3427156 L220.614,26.1787156 L217.556,26.1787156 L217.556,33.0647156 C217.556,33.4020506 217.581666,33.7063809 217.633,33.9777156 C217.684334,34.2490503 217.775999,34.4837146 217.908,34.6817156 C218.040001,34.8797166 218.219666,35.033715 218.447,35.1437156 C218.674334,35.2537161 218.971331,35.3087156 219.338,35.3087156 C219.543334,35.3087156 219.766999,35.2757159 220.009,35.2097156 C220.251001,35.1437152 220.467332,35.066716 220.658,34.9787156 L220.922,35.7707156 C220.613998,35.8880495 220.306002,35.9833819 219.998,36.0567156 C219.689998,36.1300493 219.426001,36.1667156 219.206,36.1667156 C218.692664,36.1667156 218.267335,36.0897163 217.93,35.9357156 C217.592665,35.7817148 217.321334,35.5653836 217.116,35.2867156 C216.910666,35.0080475 216.767667,34.6707176 216.687,34.2747156 C216.606333,33.8787136 216.566,33.4460513 216.566,32.9767156 L216.566,26.1787156 Z" id="Webcast" fill="#FFFFFF"></path>
            </g>
        </g>
    </g>
</svg>