<?xml version="1.0" encoding="UTF-8"?>
<svg width="892px" height="352px" viewBox="0 0 892 352" version="1.1" xmlns="http://www.w3.org/2000/svg" xmlns:xlink="http://www.w3.org/1999/xlink">
    <!-- Generator: Sketch 50.2 (55047) - http://www.bohemiancoding.com/sketch -->
    <title>chapter-ii</title>
    <desc>Created with Sketch.</desc>
    <defs>
        <path d="M117.757496,145.628237 L117.757496,213 L72.2602198,213 L72.2602198,143.8001 C56.5413107,135.313048 45.6998539,118.951249 45.0211021,99.9999625 C45.0098372,99.999984 44.9985689,100 44.9872968,100 C38.5314738,100 33.2979953,94.7665214 33.2979953,88.3106985 L33.2979953,73.6893015 C33.2979953,67.2334786 38.5314738,62 44.9872968,62 L44.9872968,51.8907471 C44.9872968,23.2322788 68.2195756,5.26447522e-15 96.8780439,0 C125.536512,-5.26447522e-15 148.768791,23.2322788 148.768791,51.8907471 L148.768791,62.0140301 C154.95622,62.3151996 159.880312,67.4272089 159.880312,73.6893015 L159.880312,88.3106985 C159.880312,94.5840419 154.93851,99.7031656 148.735429,99.9875466 C148.008733,120.412266 135.477699,137.830886 117.757496,145.628237 Z" id="path-1"></path>
        <path d="M72.3225045,0.0708856067 L72.3225045,20.3473629 C72.3225045,32.8580689 82.4644356,43 94.9751416,43 C107.485848,43 117.627779,32.8580689 117.627779,20.3473629 L117.627779,0.0708856067 C134.712244,2.09629638 147.831295,7.66339117 147.831295,22.0769231 C147.831295,22.2993778 147.82817,22.520897 147.821954,22.7414746 C172.360586,34.2151531 189.361129,59.1219741 189.361129,87.9994847 L189.361129,157.418704 L0.589153781,157.418704 L0.589153781,87.9994847 C0.589153781,59.1219741 17.5896967,34.2151531 42.1283297,22.7414746 C42.1221134,22.520897 42.1189884,22.2993778 42.1189884,22.0769231 C42.1189884,7.66339117 55.2380392,2.09629638 72.3225045,0.0708856067 Z" id="path-3"></path>
        <path d="M74.3718242,66.2483975 C72.448283,68.4209529 66.6543541,69.2570875 65.055813,68.4209529 C62.1020489,66.8759538 59.305947,65.219575 56.0581141,65.3331033 C52.8099588,65.219575 49.9949104,65.6027676 47.0061237,67.1675477 C44.6120744,68.4209529 41.0605925,68.4209529 38.5578776,66.2483975 C34.5178239,62.74131 35.1962915,57.1652432 37.7447052,53.1940487 C41.3707854,47.5425695 46.2899366,50.2761084 51.7901634,49.6313594 C53.2857402,49.4561452 54.7880886,49.0141722 56.0582647,48.2913314 C57.3284408,49.0141722 58.8304667,49.4561452 60.3260434,49.6313594 C65.8265928,50.2761084 70.2554628,47.5425695 73.8818655,53.1940487 C76.4299568,57.1652432 76.2953653,64.0758422 74.3718242,66.2483975 Z M108.572909,0.291331447 C105.354966,14.3661527 103.876408,28.7251068 101.54315,42.9624785 C101.05696,45.9303459 100.524666,48.8876409 99.9594872,51.8409713 C99.8408415,52.4611079 99.7238078,54.763906 99.1496012,55.0556379 C97.4102162,55.9397538 93.8653529,51.2380148 92.9174768,50.176481 C90.5368246,47.5105875 88.1764841,44.8205756 85.2770793,42.7285644 C79.4186244,38.5015918 72.5597412,36.0022133 65.4226208,35.4091684 C62.4364885,35.1607173 58.3986651,35.5938548 55.5843758,37.4017331 C52.7700864,35.5938548 48.732263,35.1607173 45.7458084,35.4091684 C38.608688,36.0022133 31.7498047,38.5015918 25.8913498,42.7285644 C22.991945,44.8205756 20.6319269,47.5105875 18.2509523,50.176481 C17.3030762,51.2380148 13.7582129,55.9397538 12.018828,55.0556379 C11.4446214,54.763906 11.3275877,52.4611079 11.208942,51.8409713 C10.6437628,48.8876409 10.111469,45.9303459 9.62527952,42.9624785 C7.29234356,28.7251068 5.81378576,14.3661527 2.595843,0.291331447 C1.65957351,0.291331447 0.838080863,19.0391479 0.733621044,20.7859046 C0.308366411,27.880307 -0.188140135,34.8167843 0.446356542,41.9174641 C1.54028298,54.1662358 2.680636,69.5252717 11.4507471,78.8788611 C19.375185,87.3308242 30.8808038,89.0977481 40.804601,94.4326586 C42.0822994,95.1195334 43.7771922,95.9676371 45.6049166,96.6624412 C47.5303303,98.2255026 51.348917,99.2913314 55.747836,99.2913314 C60.3621229,99.2913314 64.3377217,98.1187876 66.1593204,96.4291879 C67.7574911,95.7839419 69.2263767,95.0442052 70.3638281,94.4326586 C80.2868661,89.0965764 91.7932441,87.3308242 99.717682,78.8788611 C108.487793,69.5252717 109.628146,54.1662358 110.722395,41.9174641 C111.356569,34.8167843 110.860063,27.880307 110.43513,20.7859046 C110.330348,19.0391479 109.508856,0.291331447 108.572909,0.291331447 Z" id="path-5"></path>
        <filter x="-0.9%" y="-2.8%" width="101.8%" height="111.1%" filterUnits="objectBoundingBox" id="filter-7">
            <feOffset dx="0" dy="2" in="SourceAlpha" result="shadowOffsetOuter1"></feOffset>
            <feColorMatrix values="0 0 0 0 0   0 0 0 0 0   0 0 0 0 0  0 0 0 0.2 0" type="matrix" in="shadowOffsetOuter1" result="shadowMatrixOuter1"></feColorMatrix>
            <feMerge>
                <feMergeNode in="shadowMatrixOuter1"></feMergeNode>
                <feMergeNode in="SourceGraphic"></feMergeNode>
            </feMerge>
        </filter>
        <path d="M6.61802749,0.401490107 L213.580095,0.401490107 C216.893804,0.401490107 219.580095,3.08778161 219.580095,6.40149011 L219.580095,71.7463853 C219.580095,72.8509548 218.684665,73.7463853 217.580095,73.7463853 L2.61802749,73.7463853 C1.51345799,73.7463853 0.618027486,72.8509548 0.618027486,71.7463853 L0.618027486,6.40149011 C0.618027486,3.08778161 3.30431899,0.401490107 6.61802749,0.401490107 Z" id="path-8"></path>
    </defs>
    <g id="me" stroke="none" stroke-width="1" fill="none" fill-rule="evenodd">
        <g id="chapter-ii" transform="translate(1.547606, 2.000000)">
            <g id="Group-33" transform="translate(28.000000, 39.000000)">
                <g id="Group-32-Copy" transform="translate(0.240248, 0.000000)">
                    <g id="Group-9-Copy-5" transform="translate(0.759752, 0.000000)">
                        <g id="Group-20" transform="translate(13.703773, 0.404426)" stroke-width="4">
                            <g id="Group-9" transform="translate(0.796227, 0.595574)" stroke="#D6DDE3" stroke-linecap="round">
                                <path d="M111.933167,150.118947 L257.145448,150.118947" id="Line-Copy"></path>
                                <path d="M317.903183,116.5 L536.146156,116.5" id="Line-Copy-2"></path>
                                <path d="M445.796227,1.5 L516.796227,1.5" id="Line-Copy-5"></path>
                                <path d="M236.660767,1.5 L432.647946,1.5" id="Line-Copy-12"></path>
                                <path d="M269.796227,150.118947 L274.356989,150.118947" id="Line-Copy-6"></path>
                                <path d="M220.608068,187.714521 L365.820349,187.714521" id="Line-Copy-8"></path>
                                <path d="M182.723341,187.714521 L210.200194,187.714521" id="Line-Copy-7"></path>
                                <path d="M293.125805,36.2145213 L498.904295,36.2145213" id="Line-Copy-4"></path>
                                <path d="M55.0177364,36.2145213 L260.796227,36.2145213" id="Line-Copy-17"></path>
                                <path d="M182.157167,77.8442586 L326.000084,77.8442586" id="Line-Copy-18"></path>
                                <path d="M0.999533583,116.5 L269.000084,116.5" id="Line-Copy-19"></path>
                                <path d="M628.994563,76.8442586 L735.003362,76.8442586" id="Line-Copy-9"></path>
                                <path d="M608.840847,166.325817 L670.387101,166.325817" id="Line-Copy-15"></path>
                                <path d="M744.999135,76.8442586 L747.006052,76.8442586" id="Line-Copy-14"></path>
                                <path d="M482.162317,163.325817 L509.817011,163.325817" id="Line-Copy-16"></path>
                                <path d="M680.985006,33.2145213 L787.296227,33.2145213" id="Line-Copy-13"></path>
                                <path d="M570.651663,202.214521 L715.863944,202.214521" id="Line-Copy-11"></path>
                                <path d="M724.152433,202.214521 L728.713196,202.214521" id="Line-Copy-10"></path>
                            </g>
                            <g id="Group-3" transform="translate(189.925723, 231.354133)" stroke="#0F0F0F">
                                <g id="Group" transform="translate(0.282532, 33.895014)">
                                    <path d="M10.3946214,0.879711406 L35.087129,0.879711406 C41.714546,0.879711406 47.087129,6.25229441 47.087129,12.8797114 L47.087129,37.2127933 C47.087129,39.9742171 44.8485528,42.2127933 42.087129,42.2127933 L-1.60537863,42.2127933 L-1.60537863,12.8797114 C-1.60537863,6.25229441 3.76720437,0.879711406 10.3946214,0.879711406 Z" id="Rectangle-2" transform="translate(22.740875, 21.546252) rotate(-180.000000) translate(-22.740875, -21.546252) "></path>
                                    <path d="M40.990638,0.881395328 C52.7751185,0.881395328 61.4967092,-0.554570126 61.4967092,15.2375045 C61.4967092,31.0295791 55.7221225,31.9069617 45.1337358,31.9069617" id="Path-2"></path>
                                    <path d="M0.394621368,32.2511078 L47.1332297,32.2511078" id="Path-4"></path>
                                </g>
                                <g id="Group-3-Copy-2" transform="translate(23.426797, 11.382325) rotate(46.000000) translate(-23.426797, -11.382325) translate(15.926797, 3.882325)" stroke-linecap="round" stroke-linejoin="round">
                                    <path d="M14.7325499,14.6474489 C14.7325499,10.7020452 11.4427204,7.50333086 7.38431414,7.50333086" id="Stroke-156"></path>
                                    <path d="M0.0362997303,0.359454856 C0.0362997303,4.30485862 3.32612922,7.50357294 7.38453548,7.50357294" id="Stroke-158"></path>
                                </g>
                                <g id="Group-3-Copy-3" transform="translate(12.072560, 15.909219) rotate(46.000000) translate(-12.072560, -15.909219) translate(4.572560, 8.409219)" stroke-linecap="round" stroke-linejoin="round">
                                    <path d="M14.7325499,14.6474489 C14.7325499,10.7020452 11.4427204,7.50333086 7.38431414,7.50333086" id="Stroke-156"></path>
                                    <path d="M0.0362997303,0.359454856 C0.0362997303,4.30485862 3.32612922,7.50357294 7.38453548,7.50357294" id="Stroke-158"></path>
                                </g>
                                <g id="Group-3-Copy" transform="translate(34.781035, 15.459388) rotate(46.000000) translate(-34.781035, -15.459388) translate(27.281035, 7.959388)" stroke-linecap="round" stroke-linejoin="round">
                                    <path d="M14.7325499,14.6474489 C14.7325499,10.7020452 11.4427204,7.50333086 7.38431414,7.50333086" id="Stroke-156"></path>
                                    <path d="M0.0362997303,0.359454856 C0.0362997303,4.30485862 3.32612922,7.50357294 7.38453548,7.50357294" id="Stroke-158"></path>
                                </g>
                            </g>
                        </g>
                        <g id="Group-8" transform="translate(702.211710, 99.904426)">
                            <g id="Group-4">
                                <path d="M30.0681745,81.4421498 C24.9328016,78.4803534 21.4758662,72.9331178 21.4758662,66.5789412 C21.4758662,57.1099722 38.621104,36.3360818 38.621104,36.3360818 C38.621104,36.3360818 55.7669874,57.1099722 55.7669874,66.5789412 C55.7669874,76.0485558 48.0907186,83.7248246 38.621104,83.7248246" id="Fill-59"></path>
                                <path d="M81.4658004,45.1943069 C86.6011732,42.2325105 90.0581087,36.6852749 90.0581087,30.3310983 C90.0581087,20.8621293 72.9128708,0.0882389268 72.9128708,0.0882389268 C72.9128708,0.0882389268 55.7669874,20.8621293 55.7669874,30.3310983 C55.7669874,39.8007129 63.4432562,47.4769817 72.9128708,47.4769817" id="Fill-60"></path>
                                <path d="M121.329076,127.008446 L24.4961497,127.008446 C24.4961497,136.952542 32.557168,145.014206 42.5012639,145.014206 L103.323961,145.014206 C113.268057,145.014206 121.329076,136.952542 121.329076,127.008446 L121.329076,127.008446 Z" id="Stroke-143" stroke="#0F0F0F" stroke-width="4" stroke-linecap="round" stroke-linejoin="round"></path>
                                <polygon id="Path-5" stroke="#0F0F0F" stroke-width="4" points="42.8762554 145.014206 49.5659076 208.95639 102.005781 208.95639 108.514926 145.014206"></polygon>
                                <path d="M72.9126126,127.008446 L72.9126126,92.7173247" id="Stroke-154" stroke="#0F0F0F" stroke-width="4" stroke-linecap="round" stroke-linejoin="round"></path>
                                <path d="M72.9126126,91.5314441 L72.9126126,57.2403229" id="Stroke-155" stroke="#0F0F0F" stroke-width="4" stroke-linecap="round" stroke-linejoin="round"></path>
                                <path d="M72.9126126,118.435633 C72.9126126,108.966664 65.2363438,101.28975 55.7667292,101.28975" id="Stroke-156" stroke="#0F0F0F" stroke-width="4" stroke-linecap="round" stroke-linejoin="round"></path>
                                <path d="M90.0582378,80.4479474 C80.5886232,80.4479474 72.9123544,88.1242162 72.9123544,97.5938308" id="Stroke-157" stroke="#0F0F0F" stroke-width="4" stroke-linecap="round" stroke-linejoin="round"></path>
                                <path d="M38.6213622,84.1444475 C38.6213622,93.6134166 46.2976311,101.290331 55.7672457,101.290331" id="Stroke-158" stroke="#0F0F0F" stroke-width="4" stroke-linecap="round" stroke-linejoin="round"></path>
                                <path d="M90.0582378,80.3237431 C99.5272068,80.3237431 107.203476,72.6474743 107.203476,63.1778597" id="Stroke-160" stroke="#0F0F0F" stroke-width="4" stroke-linecap="round" stroke-linejoin="round"></path>
                                <path d="M38.6213622,76.8187004 L38.6213622,60.0304532" id="Stroke-163" stroke="#0F0F0F" stroke-width="4" stroke-linecap="round" stroke-linejoin="round"></path>
                                <path d="M38.6213622,73.9610962 L44.1873188,68.3951396" id="Stroke-164" stroke="#0F0F0F" stroke-width="4" stroke-linecap="round" stroke-linejoin="round"></path>
                                <path d="M115.776353,57.3591046 L115.776353,40.5708575" id="Stroke-163-Copy" stroke="#0F0F0F" stroke-width="4" stroke-linecap="round" stroke-linejoin="round"></path>
                                <path d="M115.776353,54.5015004 L121.342309,48.9355438" id="Stroke-164-Copy" stroke="#0F0F0F" stroke-width="4" stroke-linecap="round" stroke-linejoin="round"></path>
                                <path d="M81.4658004,45.1943069 C86.6011732,42.2325105 90.0581087,36.6852749 90.0581087,30.3310983 C90.0581087,20.8621293 72.9128708,0.0882389268 72.9128708,0.0882389268 C72.9128708,0.0882389268 55.7669874,20.8621293 55.7669874,30.3310983 C55.7669874,39.8007129 63.4432562,47.4769817 72.9128708,47.4769817" id="Stroke-165" stroke="#0F0F0F" stroke-width="4" stroke-linecap="round" stroke-linejoin="round"></path>
                                <path d="M72.9126126,47.4767235 L72.9126126,57.2400646" id="Stroke-166" stroke="#0F0F0F" stroke-width="4" stroke-linecap="round" stroke-linejoin="round"></path>
                                <path d="M72.9126126,40.5708575 L72.9126126,23.7826103" id="Stroke-167" stroke="#0F0F0F" stroke-width="4" stroke-linecap="round" stroke-linejoin="round"></path>
                                <path d="M72.9126126,37.7132533 L78.4785692,32.1472967" id="Stroke-168" stroke="#0F0F0F" stroke-width="4" stroke-linecap="round" stroke-linejoin="round"></path>
                                <path d="M72.9126126,32.9505581 L67.346656,27.3846015" id="Stroke-169" stroke="#0F0F0F" stroke-width="4" stroke-linecap="round" stroke-linejoin="round"></path>
                                <path d="M72.9126126,76.2264838 C72.9126126,66.7575147 65.2363438,59.0806003 55.7667292,59.0806003" id="Stroke-174" stroke="#0F0F0F" stroke-width="4" stroke-linecap="round" stroke-linejoin="round"></path>
                                <path d="M7.35026628,38.355617 C7.35026628,47.8252316 15.0265351,55.5015004 24.4961497,55.5015004" id="Stroke-159" stroke="#0F0F0F" stroke-width="4" stroke-linecap="round" stroke-linejoin="round"></path>
                                <path d="M13.7405293,31.414181 C13.7405293,27.8849436 10.8794391,25.0238534 7.35020173,25.0238534 C3.82096436,25.0238534 0.959874175,27.8849436 0.959874175,31.414181 C0.959874175,34.9434184 3.82096436,37.8045085 7.35020173,37.8045085 C10.8794391,37.8045085 13.7405293,34.9434184 13.7405293,31.414181 L13.7405293,31.414181 Z" id="Stroke-173" stroke="#0F0F0F" stroke-width="4" stroke-linecap="round" stroke-linejoin="round"></path>
                                <path d="M113.582441,90.3903276 C113.582441,86.8610902 110.721351,84 107.192114,84 C103.662877,84 100.801786,86.8610902 100.801786,90.3903276 C100.801786,93.9195649 103.662877,96.7806551 107.192114,96.7806551 C110.721351,96.7806551 113.582441,93.9195649 113.582441,90.3903276 L113.582441,90.3903276 Z" id="Stroke-173-Copy" stroke="#0F0F0F" stroke-width="4" stroke-linecap="round" stroke-linejoin="round"></path>
                                <path d="M72.9012509,97.869329 C72.9012509,107.338298 80.5775197,115.015212 90.0471343,115.015212" id="Stroke-88" stroke="#0F0F0F" stroke-width="4" stroke-linecap="round" stroke-linejoin="round"></path>
                                <path d="M90.0468761,115.01489 C99.5158451,115.01489 107.192114,107.338621 107.192114,97.8690062" id="Stroke-95" stroke="#0F0F0F" stroke-width="4" stroke-linecap="round" stroke-linejoin="round"></path>
                            </g>
                        </g>
                        <g id="Group-19" transform="translate(578.588612, 247.463829)" stroke="#0F0F0F">
                            <g id="Group-10-Copy" opacity="0.15" transform="translate(15.000000, 45.000000)" stroke-linecap="square" stroke-width="0.25">
                                <g id="Group-7" transform="translate(0.192964, 0.517145)">
                                    <g id="Group-5" transform="translate(0.541524, 0.112676)">
                                        <path d="M1.13017368,2.74709494 L114.5986,2.74709494" id="Line-2"></path>
                                        <path d="M1.13017368,4.49357382 L114.5986,4.49357382" id="Line-2-Copy"></path>
                                        <path d="M1.13017368,6.24005269 L114.5986,6.24005269" id="Line-2-Copy-2"></path>
                                        <path d="M1.13017368,7.98653156 L114.5986,7.98653156" id="Line-2-Copy-3"></path>
                                        <path d="M1.13017368,9.73301044 L114.5986,9.73301044" id="Line-2-Copy-4"></path>
                                        <path d="M1.13017368,11.4794893 L114.5986,11.4794893" id="Line-2-Copy-5"></path>
                                        <path d="M1.13017368,1.00061607 L114.5986,1.00061607" id="Line-2-Copy-6"></path>
                                    </g>
                                </g>
                            </g>
                            <g id="Group-10">
                                <g id="Group-7" transform="translate(0.192964, 39.517145)">
                                    <path d="M2.64085699,2.54225352 L2.64085699,21.6830986 L129.640857,21.6830986 L129.640857,6.54225352 C129.640857,4.33311452 127.849996,2.54225352 125.640857,2.54225352 L2.64085699,2.54225352 Z" id="Rectangle-3" stroke-width="4"></path>
                                    <g id="Group-5" transform="translate(13.541524, 6.112676)" stroke-linecap="round" stroke-width="0.25">
                                        <path d="M1.13017368,2.74709494 L114.5986,2.74709494" id="Line-2"></path>
                                        <path d="M1.13017368,4.49357382 L114.5986,4.49357382" id="Line-2-Copy"></path>
                                        <path d="M1.13017368,6.24005269 L114.5986,6.24005269" id="Line-2-Copy-2"></path>
                                        <path d="M1.13017368,7.98653156 L114.5986,7.98653156" id="Line-2-Copy-3"></path>
                                        <path d="M1.13017368,9.73301044 L114.5986,9.73301044" id="Line-2-Copy-4"></path>
                                        <path d="M1.13017368,11.4794893 L114.5986,11.4794893" id="Line-2-Copy-5"></path>
                                        <path d="M1.13017368,1.00061607 L114.5986,1.00061607" id="Line-2-Copy-6"></path>
                                    </g>
                                </g>
                                <g id="Group-6" transform="translate(0.192964, 20.179117)" stroke-width="4">
                                    <path d="M2.64085699,2.3220962 L2.64085699,21.4629413 L118.21382,21.4629413 L118.21382,6.3220962 C118.21382,4.1129572 116.422959,2.3220962 114.21382,2.3220962 L2.64085699,2.3220962 Z" id="Rectangle-3-Copy"></path>
                                </g>
                                <g id="Group-6-Copy" transform="translate(0.192964, 0.081654)">
                                    <path d="M2.64085699,22.1191022 L108.448914,22.1191022 L108.448914,6.97825717 C108.448914,4.76911817 106.658053,2.97825717 104.448914,2.97825717 L6.64085699,2.97825717 C4.43171799,2.97825717 2.64085699,4.76911817 2.64085699,6.97825717 L2.64085699,22.1191022 Z" id="Rectangle-3-Copy" stroke-width="4"></path>
                                    <g id="Group-5-Copy" transform="translate(13.190345, 6.548680)" stroke-linecap="round" stroke-width="0.25">
                                        <path d="M0.918755179,2.74709494 L93.1609533,2.74709494" id="Line-2"></path>
                                        <path d="M0.918755179,4.49357382 L93.1609533,4.49357382" id="Line-2-Copy"></path>
                                        <path d="M0.918755179,6.24005269 L93.1609533,6.24005269" id="Line-2-Copy-2"></path>
                                        <path d="M0.918755179,7.98653156 L93.1609533,7.98653156" id="Line-2-Copy-3"></path>
                                        <path d="M0.918755179,9.73301044 L93.1609533,9.73301044" id="Line-2-Copy-4"></path>
                                        <path d="M0.918755179,11.4794893 L93.1609533,11.4794893" id="Line-2-Copy-5"></path>
                                        <path d="M0.918755179,1.00061607 L93.1609533,1.00061607" id="Line-2-Copy-6"></path>
                                    </g>
                                </g>
                            </g>
                        </g>
                        <g id="Group-21" transform="translate(0.252768, 168.693295)">
                            <g id="Group-15" transform="translate(90.719424, 71.785751) scale(-1, 1) translate(-90.719424, -71.785751) translate(0.719424, 0.285751)">
                                <path d="M127.041667,21.5833333 L126.998464,21.5833333 L126.998464,8.7105625 C126.998464,5.0056523 123.995041,2.00222917 120.290131,2.00222917 L102.873464,2.00222917 C99.1685541,2.00222917 96.165131,5.0056523 96.165131,8.7105625 L96.165131,21.5833333 L52.625,21.5833333 L52.625,8.7105625 C52.625,5.0056523 49.6215769,2.00222917 45.9166667,2.00222917 L28.5,2.00222917 C24.7950898,2.00222917 21.7916667,5.0056523 21.7916667,8.7105625 L21.7916667,133.767322 C21.7916667,137.035007 24.4406486,139.683989 27.7083333,139.683989 L117.152151,139.683989 L117.152151,139.698247 L145.273286,139.698247 C151.164324,139.698247 155.939953,134.922617 155.939953,129.03158 L155.939953,82.5632655 C155.939953,79.2725689 158.60759,76.6049322 161.898286,76.6049322 L172.555399,76.6049322 C175.47438,76.6049322 177.840681,74.2386307 177.840681,71.3196499 C177.840681,68.4006691 175.47438,66.0343676 172.555399,66.0343676 L155.855031,66.0343676 C150.401219,66.0343676 145.980031,70.4555557 145.980031,75.9093676 L145.980031,122.046626 C145.980031,126.648999 142.249071,130.379959 137.646698,130.379959 L127.041667,130.379959 L127.041667,21.5833333 Z" id="Combined-Shape" stroke="#0F0F0F" stroke-width="4"></path>
                                <g id="Rectangle-7" transform="translate(34.791667, 97.583333)" stroke="#0F0F0F" stroke-width="4">
                                    <path d="M2.93012993,42.2848553 L76.3198701,42.2848553 L76.3198701,39.2204779 C76.3198701,18.9544608 59.8910171,2.52560787 39.625,2.52560787 C19.3589829,2.52560787 2.93012993,18.9544608 2.93012993,39.2204779 L2.93012993,42.2848553 Z"></path>
                                </g>
                                <g id="Group-17" transform="translate(41.416667, 28.458333)">
                                    <g id="Group-23" transform="translate(33.663309, 30.310169) rotate(209.000000) translate(-33.663309, -30.310169) translate(5.663309, 11.810169)">
                                        <path d="M1.97286521,22.7028905 C1.57962125,29.5027116 4.28518332,32.9026221 10.0895514,32.9026221 C15.8939195,32.9026221 18.5689001,29.5027116 18.114493,22.7028905" id="Path-6-Copy-5" stroke="#0F0F0F" stroke-width="4" stroke-linecap="round" stroke-linejoin="round" transform="translate(10.049709, 27.802756) rotate(-210.000000) translate(-10.049709, -27.802756) "></path>
                                        <g transform="translate(45.588583, 10.054738) rotate(349.000000) translate(-45.588583, -10.054738) translate(36.588583, 2.554738)">
                                            <ellipse id="Oval-7" stroke="#0F0F0F" stroke-width="4" cx="7.75596713" cy="7.42087434" rx="9.53351142" ry="9.13142529"></ellipse>
                                            <ellipse id="Oval-8" fill="#0F0F0F" cx="12.8415451" cy="7.78955787" rx="4.75800722" ry="4.72537409"></ellipse>
                                        </g>
                                    </g>
                                </g>
                                <g id="Group-18" transform="translate(61.354167, 21.958333)" stroke="#0F0F0F" stroke-linecap="round" stroke-width="4">
                                    <path d="M1.06745709,0.616504741 L1.06745709,18.319193" id="Path-6"></path>
                                    <path d="M12.9866089,0.616504741 L12.9866089,18.319193" id="Path-6-Copy-3"></path>
                                    <path d="M24.9057608,0.616504741 L24.9057608,18.319193" id="Path-6-Copy-4"></path>
                                </g>
                                <g id="Group-18-Copy" transform="translate(134.351680, 60.395833) rotate(-270.000000) translate(-134.351680, -60.395833) translate(120.851680, 44.395833)" stroke="#0F0F0F" stroke-linecap="round" stroke-width="4">
                                    <path d="M1.06745709,0.275416009 L1.06745709,30.9162704" id="Path-6"></path>
                                    <path d="M12.9866089,5.13225547 L12.9866089,30.9162704" id="Path-6-Copy-3"></path>
                                    <path d="M24.9057608,11.1279524 L24.9057608,30.9162704" id="Path-6-Copy-4"></path>
                                </g>
                                <g id="Group-18-Copy-2" transform="translate(16.166667, 60.395833) rotate(-270.000000) translate(-16.166667, -60.395833) translate(2.666667, 44.895833)" stroke="#0F0F0F" stroke-linecap="round" stroke-width="4">
                                    <path d="M1.06745709,0.275416009 L1.06745709,30.9162704" id="Path-6"></path>
                                    <path d="M12.9866089,0.275416009 L12.9866089,25.4472422" id="Path-6-Copy-3"></path>
                                    <path d="M24.9057608,0.275416009 L24.9057608,20.4514626" id="Path-6-Copy-4"></path>
                                </g>
                                <g id="Group-16" transform="translate(64.250000, 69.833333)">
                                    <ellipse id="Oval-4" fill="#0F0F0F" cx="9.77083333" cy="3.28166033" rx="9.01786787" ry="2.676673"></ellipse>
                                    <path d="M10.1979562,5.95833333 C10.1979562,9.9037371 13.4877857,13.1024514 17.546192,13.1024514" id="Stroke-158" stroke="#0F0F0F" stroke-width="4" stroke-linecap="round" stroke-linejoin="round"></path>
                                    <path d="M1.99547471,5.95833333 C1.99547471,9.9037371 5.2853042,13.1024514 9.34371046,13.1024514" id="Stroke-158-Copy" stroke="#0F0F0F" stroke-width="4" stroke-linecap="round" stroke-linejoin="round" transform="translate(5.669593, 9.530392) scale(-1, 1) translate(-5.669593, -9.530392) "></path>
                                </g>
                                <circle id="Oval-5" stroke="#0F0F0F" stroke-width="4" cx="109.152862" cy="94.3958333" r="5.9375"></circle>
                                <circle id="Oval-5-Copy" stroke="#0F0F0F" stroke-width="4" cx="37.6041667" cy="94.3958333" r="5.9375"></circle>
                            </g>
                        </g>
                    </g>
                </g>
            </g>
            <g id="Group-13" transform="translate(356.895458, 21.404426)">
                <g id="Group-Copy-3" transform="translate(0.327523, 17.904426)">
                    <g id="Body">
                        <mask id="mask-2" fill="white">
                            <use xlink:href="#path-1"></use>
                        </mask>
                        <use fill="#FFE3C3" xlink:href="#path-1"></use>
                        <g id="Group-2" transform="translate(0.000000, 150.000000)">
                            <mask id="mask-4" fill="white">
                                <use xlink:href="#path-3"></use>
                            </mask>
                            <use id="Hoodie" fill="#0D97FF" xlink:href="#path-3"></use>
                            <path d="M64.5891538,47.3319226 L64.5891538,108.345959 C64.5891538,109.450529 63.6937233,110.345959 62.5891538,110.345959 C61.4845843,110.345959 60.5891538,109.450529 60.5891538,108.345959 L60.5891538,45.1502625 C61.8768657,45.9156105 63.2121265,46.6437196 64.5891413,47.3319164 Z M131.589154,46.8212989 L131.589154,72.1729796 C131.589154,73.2775491 130.693723,74.1729796 129.589154,74.1729796 C128.484584,74.1729796 127.589154,73.2775491 127.589154,72.1729796 L127.589154,48.7390531 C128.958518,48.1371784 130.293541,47.4971468 131.589173,46.8212889 Z" id="Straps" fill="#FDFDFD" mask="url(#mask-4)"></path>
                            <path d="M94.9794289,55 C83.7552731,54.9999467 72.274849,51.4467369 63.9350088,46.9524256 C51.2660367,40.1251601 41.6355681,29.9419641 41.6355681,18.0769231 C41.6355681,8.70605458 47.2320129,3.07445977 55.8861936,-0.275646301 C41.5491788,2.57117818 31.6335469,8.24288473 31.6335469,19.3076923 C31.6335469,39.0199574 63.1041981,54.9999155 94.9794289,55 Z M134.073169,-0.275646301 C148.410184,2.57117818 158.325816,8.24288473 158.325816,19.3076923 C158.325816,39.0179985 126.861419,54.9967395 94.989437,54.9999995 C121.828475,54.9959946 148.323795,38.466505 148.323795,18.0769231 C148.323795,8.70605458 142.72735,3.07445977 134.073169,-0.275646301 Z" id="Shadow" fill-opacity="0.16" fill="#000000" mask="url(#mask-4)"></path>
                            <path d="M154,85.9649803 L154,154.195273" id="Path-8" stroke="#0A7ED6" stroke-width="4" stroke-linecap="round"></path>
                            <path d="M37,85.9649803 L37,154.195273" id="Path-8-Copy" stroke="#0A7ED6" stroke-width="4" stroke-linecap="round"></path>
                        </g>
                        <g id="Face" transform="translate(53.000000, 44.000000)">
                            <g id="ðŸ‘ƒðŸ½-Nose" transform="translate(34.000000, 41.000000)" stroke="#0F0F0F" stroke-linecap="round" stroke-width="4">
                                <path d="M0.964159294,0.771101828 C0.964159294,3.75398752 4.59131924,6.17209416 9.06564778,6.17209416 C13.5399763,6.17209416 17.1671363,3.75398752 17.1671363,0.771101828" id="Nose"></path>
                            </g>
                            <g id="ðŸ‘-Eyes" transform="translate(14.000000, 16.000000)" fill="#0F0F0F">
                                <path d="M3.70217218,13.6911485 C7.01588068,13.6911485 9.70217218,11.004857 9.70217218,7.69114848 C9.70217218,4.37743998 7.01588068,1.69114848 3.70217218,1.69114848 C0.388463679,1.69114848 3.70217218,4.37743998 3.70217218,7.69114848 C3.70217218,11.004857 0.388463679,13.6911485 3.70217218,13.6911485 Z" id="Eye" transform="translate(5.965793, 7.691148) rotate(-15.000000) translate(-5.965793, -7.691148) "></path>
                                <path d="M56.7021722,13.6911485 C60.0158807,13.6911485 62.7021722,11.004857 62.7021722,7.69114848 C62.7021722,4.37743998 60.0158807,1.69114848 56.7021722,1.69114848 C53.3884637,1.69114848 56.7021722,4.37743998 56.7021722,7.69114848 C56.7021722,11.004857 53.3884637,13.6911485 56.7021722,13.6911485 Z" id="Eye" transform="translate(58.965793, 7.691148) rotate(-14.000000) translate(-58.965793, -7.691148) "></path>
                            </g>
                            <g id="I-Browse" fill-rule="nonzero">
                                <path d="M3.63024536,11.1585767 C7.54515501,5.64986673 18.2779197,2.56083721 27.5230268,4.83118046 C28.5957248,5.0946055 29.6788665,4.43856013 29.9422916,3.36586212 C30.2057166,2.2931641 29.5496712,1.21002236 28.4769732,0.94659732 C17.7403633,-1.69001789 5.31209962,1.88699832 0.369754639,8.84142326 C-0.270109626,9.74178291 -0.0589363917,10.9903811 0.84142326,11.6302454 C1.74178291,12.2701096 2.9903811,12.0589364 3.63024536,11.1585767 Z" id="Eyebrow" fill="#BFA465"></path>
                                <path d="M34.2402823,77.1211878 C37.4346195,71.6124778 46.1919276,68.5234483 53.735394,70.7937915 C54.6106528,71.0572166 55.4944331,70.4011712 55.7093725,69.3284732 C55.924312,68.2557752 55.3890173,67.1726334 54.5137585,66.9092084 C45.753313,64.2725932 35.612577,67.8496094 31.5799127,74.8040343 C31.0578209,75.704394 31.2301259,76.9529922 31.9647667,77.5928564 C32.6994075,78.2327207 33.7181905,78.0215475 34.2402823,77.1211878 Z" id="Eyebrow-Copy" fill="#0F0F0F" transform="translate(43.517462, 72.001809) rotate(198.000000) translate(-43.517462, -72.001809) "></path>
                                <path d="M59.6302454,11.1585767 C63.545155,5.64986673 74.2779197,2.56083721 83.5230268,4.83118046 C84.5957248,5.0946055 85.6788665,4.43856013 85.9422916,3.36586212 C86.2057166,2.2931641 85.5496712,1.21002236 84.4769732,0.94659732 C73.7403633,-1.69001789 61.3120996,1.88699832 56.3697546,8.84142326 C55.7298904,9.74178291 55.9410636,10.9903811 56.8414233,11.6302454 C57.7417829,12.2701096 58.9903811,12.0589364 59.6302454,11.1585767 Z" id="Eyebrow" fill="#BFA465" transform="translate(71.000154, 6.039198) scale(-1, 1) translate(-71.000154, -6.039198) "></path>
                            </g>
                        </g>
                    </g>
                    <g id="Facial-Hair" transform="translate(41.500054, 59.608370)">
                        <mask id="mask-6" fill="white">
                            <use xlink:href="#path-5"></use>
                        </mask>
                        <use id="Beardness" fill="#BFA465" xlink:href="#path-5"></use>
                    </g>
                </g>
                <path d="M143.852905,23.4317618 C141.201162,20.6117523 138.122299,18.2181832 135.127638,15.8179038 C134.466872,15.2887955 133.7955,14.7724368 133.149517,14.2231976 C133.002645,14.0983858 131.498244,12.9770923 131.318269,12.5644079 C130.885043,11.5716169 131.136044,12.3446451 131.195821,11.1599392 C131.271347,9.66186151 134.206551,5.43067287 132.016316,4.46036144 C131.052805,4.03358545 129.334041,5.16930613 128.40974,5.5444127 C126.601952,6.27852108 124.771989,6.9045934 122.903139,7.44443818 C123.798516,5.58769423 125.50571,1.87085117 122.297008,2.86565526 C119.79728,3.64069655 117.467885,5.63332436 114.955944,6.57075526 C115.787045,5.15286586 119.110802,0.75928762 116.107465,0.513690119 C115.172879,0.437192537 112.453324,2.26172698 111.447069,2.6509252 C108.433126,3.8168423 105.354584,4.57041059 102.190233,5.16393788 C91.4306037,7.18206489 78.8484031,6.60665544 68.8935202,11.7048167 C61.2188598,15.6350477 53.6406149,21.7333813 49.2071166,29.4988925 C44.9339891,36.9839125 43.3357443,45.1755286 42.4413314,53.7526522 C41.7850644,60.0472625 41.7317146,66.5539187 42.0386367,72.871344 C42.1389087,74.9411404 40.8387063,98.6266935 43.7279524,95.7372322 C45.1674333,94.2975343 46.6807135,74.3395608 47.0432352,72.3717611 C47.7647432,68.4566283 48.459255,64.5240486 49.6621969,60.7340631 C51.7820487,54.0552874 53.5612551,46.4432913 59.56373,42.3410918 C65.1550713,38.5198685 81.4128018,31.6924942 86.9427915,31.6924942 C92.4727811,31.6924942 93.7344423,35.5422821 107.387802,34.4758201 C121.041162,33.4093582 123.772484,29.4519203 125.268528,30.3782791 C126.637626,31.2257918 128.059431,33.9931254 129.042546,35.1264975 C131.365191,37.8049194 134.134561,39.8505587 136.85058,42.0468446 C142.514017,46.6262985 145.373374,52.3780443 147.093424,59.5345945 C148.807046,66.6646389 148.094016,74.8007794 150.215153,81.8174195 C150.58828,83.0511108 149.422246,89.2544564 150.800271,91.4665898 C150.885254,91.6030117 152.176822,91.1579602 152.602405,88.904648 C153.28707,85.2795883 153.192015,79.0211793 153.192015,78.3306925 C153.192015,73.8109469 154.291792,70.4197307 154.277973,65.8704732 C154.22398,52.0385024 153.794289,34.0021843 143.852905,23.4317618 Z" id="Short-Hair" fill="#BFA465"></path>
                <g id="Wayfarers" filter="url(#filter-7)" transform="translate(40.278102, 68.894350)" fill="#5B462F" fill-rule="nonzero">
                    <path d="M29.4473796,35.5100754 L27.0588072,35.5100754 C14.9962621,35.5100754 7.7948946,28.8722278 7.7948946,17.7550377 C7.7948946,8.77098863 9.36860221,0 28.1741534,0 L30.7206058,0 C49.526157,0 51.0998646,8.77098863 51.0998646,17.7550377 C51.0998646,28.2076821 42.1974669,35.5100754 29.4473796,35.5100754 Z M28.0489414,5.1965964 C11.2592922,5.1965964 11.2592922,11.1215962 11.2592922,18.6224794 C11.2592922,24.7461425 13.958278,32.0456778 26.8239095,32.0456778 L29.4473796,32.0456778 C40.1566195,32.0456778 47.635467,26.5260586 47.635467,18.6224794 C47.635467,11.1215962 47.635467,5.1965964 30.8458178,5.1965964 L28.0489414,5.1965964 Z" id="Left"></path>
                    <path d="M83.1455424,35.5100754 L80.7569701,35.5100754 C68.6944249,35.5100754 61.4930574,28.8722278 61.4930574,17.7550377 C61.4930574,8.77098863 63.066765,0 81.8723162,0 L84.4187687,0 C103.22432,0 104.798027,8.77098863 104.798027,17.7550377 C104.798027,28.2076821 95.8956298,35.5100754 83.1455424,35.5100754 Z M81.7471042,5.1965964 C64.957455,5.1965964 64.957455,11.1215962 64.957455,18.6224794 C64.957455,24.7461425 67.6592377,32.0456778 80.5220724,32.0456778 L83.1455424,32.0456778 C93.8547823,32.0456778 101.33363,26.5260586 101.33363,18.6224794 C101.33363,11.1215962 101.33363,5.1965964 84.5439807,5.1965964 L81.7471042,5.1965964 Z" id="Right"></path>
                    <path d="M2.55893005,4.99874846 C3.15771968,4.41389489 9.7085806,0 28.1482305,0 C43.6092859,0 46.8821574,1.60459826 51.836246,4.02899126 L52.1988784,4.20795173 C52.5433071,4.32964732 54.3046444,4.92795819 56.3649354,4.99375176 C58.2419756,4.91319627 59.8474855,4.40446354 60.3166329,4.24145997 C65.9711304,1.491498 71.5061167,0 84.4446915,0 C102.884341,0 109.435202,4.41389489 110.033992,4.99874846 C111.44908,4.99874846 112.592922,6.11596874 112.592922,7.49812269 L112.592922,9.99749692 C112.592922,11.3796509 111.44908,12.4968712 110.033992,12.4968712 C110.033992,12.4968712 104.056644,12.4968712 104.056644,14.9962454 C104.056644,17.4956196 102.357202,11.3796509 102.357202,9.99749692 L102.357202,7.56312857 C99.2364351,6.36877664 93.6499521,4.1453036 84.4446915,4.1453036 C74.1887452,4.1453036 69.0810395,5.96398483 64.6996116,7.76988484 L64.748607,7.88802507 L64.7464444,9.60829959 L62.8261287,14.2418215 L60.4541633,13.3040101 C60.2423206,13.2202532 59.7852303,13.0697794 59.1514282,12.9134593 C57.3845174,12.4776706 55.5679923,12.3450076 53.9615295,12.6747657 C53.3721546,12.7957465 52.8253326,12.9772943 52.3235009,13.2225074 L50.0349802,14.3407613 L47.7451803,9.87024468 L47.846874,7.88302632 L47.9167937,7.71420753 C44.1382032,5.95344926 40.6540684,4.1453036 28.1482305,4.1453036 C18.9434524,4.1453036 13.3570984,6.36794361 10.2357202,7.56231842 L10.2357202,9.99749692 C10.2357202,11.3796509 7.67679014,17.4956196 7.67679014,14.9962454 C7.67679014,12.4968712 2.55893005,12.4968712 2.55893005,12.4968712 C1.14640066,12.4968712 0,11.3796509 0,9.99749692 L0,7.49812269 C0,6.11596874 1.14640066,4.99874846 2.55893005,4.99874846 Z" id="Stuff"></path>
                </g>
            </g>
            <path d="M547.895458,317.44054 L568.550123,317.44054 C579.043533,317.44054 587.550123,308.93395 587.550123,298.44054 C587.550123,298.424491 587.550103,298.408442 587.550062,298.392393 L587.325397,209.734714 C587.298806,199.241338 595.783812,190.713219 606.277189,190.686628 C606.293238,190.686587 606.309287,190.686567 606.325336,190.686567 L632.278471,190.686567 C642.771882,190.686567 651.278471,182.179977 651.278471,171.686567 L651.278471,129.154358" id="Path-7" stroke="#D6DDE3" stroke-width="4" stroke-linecap="round" stroke-dasharray="8,8,8"></path>
            <g id="Group-11" transform="translate(340.000000, 271.404426)">
                <g id="Group-12" transform="translate(0.208624, 0.677087)">
                    <g id="Path-12">
                        <mask id="mask-9" fill="white">
                            <use xlink:href="#path-8"></use>
                        </mask>
                        <path stroke="#0F0F0F" stroke-width="4" d="M6.61802749,-1.59850989 L213.580095,-1.59850989 C217.998373,-1.59850989 221.580095,1.98321211 221.580095,6.40149011 L221.580095,71.7463853 C221.580095,73.9555243 219.789234,75.7463853 217.580095,75.7463853 L2.61802749,75.7463853 C0.408888487,75.7463853 -1.38197251,73.9555243 -1.38197251,71.7463853 L-1.38197251,6.40149011 C-1.38197251,1.98321211 2.19974949,-1.59850989 6.61802749,-1.59850989 Z"></path>
                        <rect id="Rectangle" fill="#A5B2BD" mask="url(#mask-9)" x="-6.80225414" y="-7.3726593" width="240" height="97"></rect>
                        <path d="M24.8997046,74.3007189 C36.5578197,72.1380686 47.5832438,70.3752746 57.9759769,69.0123369 C93.8944289,64.3018713 155.047803,75.7158275 190.89825,62.7829927 C214.798548,54.1611029 227.492782,42.9560464 228.980953,29.1678235 L225.555277,74.3007189 L24.8997046,74.3007189 Z" fill="#B4C0CA" mask="url(#mask-9)"></path>
                    </g>
                    <path d="M117.148383,41.3974981 C117.137548,39.4092232 118.036876,37.9085362 119.857204,36.803337 C118.838688,35.3459911 117.300077,34.54418 115.268461,34.3870684 C113.345198,34.2353744 111.243152,35.5085204 110.473847,35.5085204 C109.661201,35.5085204 107.797532,34.4412448 106.334768,34.4412448 C103.311723,34.4900036 100.099061,36.8520958 100.099061,41.6575449 C100.099061,43.0769673 100.359108,44.5451485 100.879202,46.0566709 C101.57266,48.0449458 104.075611,52.9208242 106.686915,52.8395596 C108.052161,52.8070537 109.016501,51.8698015 110.793488,51.8698015 C112.516299,51.8698015 113.41021,52.8395596 114.932567,52.8395596 C117.565542,52.8016361 119.830116,48.3700043 120.491069,46.3763118 C116.958766,44.7130955 117.148383,41.5004333 117.148383,41.3974981 Z M114.081997,32.5017287 C115.561014,30.7464124 115.425573,29.1482078 115.382232,28.5739377 C114.07658,28.6497847 112.565057,29.4624311 111.703652,30.464695 C110.755565,31.5373883 110.197547,32.8647108 110.316736,34.3599802 C111.73074,34.468333 113.020139,33.7423689 114.081997,32.5017287 Z" id="Shape" fill="#FDFDFD" fill-rule="nonzero"></path>
                </g>
            </g>
            <g id="Group-8" transform="translate(752.211710, 154.904426)" stroke="#0F0F0F" stroke-linecap="round" stroke-linejoin="round" stroke-width="4">
                <g id="Group-4" transform="translate(0.000000, 0.000000)">
                    <path d="M51.9126126,111.008446 L51.9126126,76.7173247" id="Stroke-154"></path>
                    <path d="M51.9126126,75.5314441 L51.9126126,41.2403229" id="Stroke-155"></path>
                    <path d="M9.06791624,65.7173252 C3.93254341,62.7555287 0.475607955,57.2082932 0.475607955,50.8541166 C0.475607955,41.3851476 17.6208458,20.6112572 17.6208458,20.6112572 C17.6208458,20.6112572 34.7667292,41.3851476 34.7667292,50.8541166 C34.7667292,60.3237312 27.0904604,68 17.6208458,68" id="Stroke-161"></path>
                    <path d="M86.223165,45.982554 C81.0877922,43.0207576 77.6308567,37.4735221 77.6308567,31.1193455 C77.6308567,21.6503764 94.7760946,0.876486058 94.7760946,0.876486058 C94.7760946,0.876486058 111.921978,21.6503764 111.921978,31.1193455 C111.921978,40.5889601 104.245709,48.2652289 94.7760946,48.2652289" id="Stroke-161-Copy" transform="translate(94.776417, 24.570857) scale(-1, 1) translate(-94.776417, -24.570857) "></path>
                </g>
            </g>
            <g id="Group-19" transform="translate(620.605821, 312.000000)" stroke="#0F0F0F" stroke-linecap="round" stroke-width="0.25">
                <g id="Group-10">
                    <g id="Group-6" transform="translate(0.192964, 0.179117)">
                        <g id="Group-5-Copy" transform="translate(0.762086, 0.604975)">
                            <path d="M1.0182696,2.74709494 L103.251626,2.74709494" id="Line-2"></path>
                            <path d="M1.0182696,4.49357382 L103.251626,4.49357382" id="Line-2-Copy"></path>
                            <path d="M1.0182696,6.24005269 L103.251626,6.24005269" id="Line-2-Copy-2"></path>
                            <path d="M1.0182696,7.98653156 L103.251626,7.98653156" id="Line-2-Copy-3"></path>
                            <path d="M1.0182696,9.73301044 L103.251626,9.73301044" id="Line-2-Copy-4"></path>
                            <path d="M1.0182696,11.4794893 L103.251626,11.4794893" id="Line-2-Copy-5"></path>
                            <path d="M1.0182696,1.00061607 L103.251626,1.00061607" id="Line-2-Copy-6"></path>
                        </g>
                    </g>
                </g>
            </g>
            <path d="M1.32752319,347.904426 L888.077773,347.904426" id="Line" stroke="#0F0F0F" stroke-width="4" stroke-linecap="round"></path>
            <g id="Group-14" transform="translate(559.000000, 0.000000)">
                <g id="Rectangle-4">
                    <g id="Group-22">
                        <rect id="Rectangle-4" fill="#F1F6FC" x="1.36292722" y="0.810711471" width="186.362546" height="20.6892885"></rect>
                        <path d="M1.40911835,21.5 L187.771664,21.5 L187.771664,129.152416 C187.771664,131.91384 185.533088,134.152416 182.771664,134.152416 L6.40911835,134.152416 C3.6476946,134.152416 1.40911835,131.91384 1.40911835,129.152416 L1.40911835,21.5 Z" id="Rectangle-4-Copy" fill="#0D97FF"></path>
                        <rect id="Mask" stroke="#000000" stroke-width="4" stroke-linecap="round" x="0.180782456" y="0" width="188.819218" height="134.152416" rx="6"></rect>
                        <g transform="translate(0.000000, 8.000000)">
                            <path d="M1.49932984,13.5 L188.023076,13.5" id="Line-3" stroke="#000000" stroke-width="4" stroke-linecap="square"></path>
                            <circle id="Oval" fill="#E52F28" cx="9.08694809" cy="3.14002868" r="2.5"></circle>
                            <circle id="Oval-Copy" fill="#FFC646" cx="19.2493911" cy="3.14002868" r="2.5"></circle>
                            <circle id="Oval-Copy-2" fill="#4BC27D" cx="29.2493911" cy="3.14002868" r="2.5"></circle>
                        </g>
                    </g>
                </g>
            </g>
            <g id="simple-copy" transform="translate(589.500000, 60.424992)" fill="#FFFFFF" fill-rule="nonzero">
                <path d="M24.0385916,2.45059681 C24.2630084,2.40409966 24.4856188,2.3419754 24.7055892,2.26445668 C24.495485,2.32495222 24.2653708,2.39010127 24.0385916,2.45059681 Z" id="Shape"></path>
                <g id="SIMPLE_custom" transform="translate(46.022831, 10.004963)">
                    <path d="M5.98296801,5.99964295 C8.82437756,6.68998541 10.3184521,7.71049166 10.3184521,9.95493841 C10.3184521,12.4895291 8.34080434,13.9869386 5.51940471,13.9869386 C3.56205134,14.0036976 1.66249363,13.3240176 0.160079412,12.0693206 C0.0928539822,12.011831 0.0512214455,11.9299894 0.0443415932,11.8418022 C0.037461741,11.753615 0.0658982108,11.666307 0.123394546,11.5990874 L1.12389087,10.4185017 C1.18090934,10.3507893 1.26250904,10.3085238 1.35071179,10.3010172 C1.43891454,10.2935106 1.52648307,10.3213788 1.59412414,10.3784818 C2.79805471,11.3589682 4.02199522,11.9125762 5.59610943,11.9125762 C7.05349907,11.9125762 7.97729068,11.2455787 7.97729068,10.2050625 C7.97729068,9.22457609 7.44035765,8.70765299 4.94578682,8.13070011 C2.08436734,7.44035765 0.470233271,6.59327076 0.470233271,4.09869993 C0.470233271,1.76420851 2.39118621,0.180089338 5.0591764,0.180089338 C6.71118312,0.14765507 8.32694901,0.666295974 9.65145452,1.65415392 C9.79571863,1.76320153 9.82678591,1.96735798 9.72148926,2.11438223 L8.83438253,3.36500263 C8.78282132,3.437327 8.70453917,3.48609493 8.61689195,3.50049411 C8.52924474,3.5148933 8.43947453,3.49373397 8.36748424,3.44170735 C7.38941534,2.7047869 6.20656841,2.28991645 4.98247168,2.25445171 C3.59845177,2.25445171 2.79471973,2.9648041 2.79471973,3.86858578 C2.80805968,4.92577689 3.42169742,5.39934515 5.98296801,5.99964295 Z" id="Shape"></path>
                    <path d="M17.8988792,0.687007475 L17.8988792,13.4633455 C17.8988792,13.6475318 17.7495667,13.7968443 17.5653804,13.7968443 L15.8678717,13.7968443 C15.6836854,13.7968443 15.5343729,13.6475318 15.5343729,13.4633455 L15.5343729,0.687007475 C15.5343729,0.502821188 15.6836854,0.353508701 15.8678717,0.353508701 L17.5653804,0.353508701 C17.7495667,0.353508701 17.8988792,0.502821188 17.8988792,0.687007475 Z" id="Shape"></path>
                    <path d="M29.5446564,9.32796071 L26.7265918,5.10920122 C26.6446719,4.98729616 26.4926441,4.93333438 26.3521996,4.97631191 C26.2117551,5.01928945 26.11596,5.14908778 26.116289,5.29596053 L26.116289,13.4633455 C26.116289,13.6475318 25.9669765,13.7968443 25.7827902,13.7968443 L24.1152964,13.7968443 C23.9311101,13.7968443 23.7817976,13.6475318 23.7817976,13.4633455 L23.7817976,0.687007475 C23.7817976,0.502821188 23.9311101,0.353508701 24.1152964,0.353508701 L26.116289,0.353508701 C26.2296759,0.353697593 26.3351991,0.411484079 26.396428,0.506918137 L30.1082693,6.27644693 C30.1697009,6.37155171 30.2751883,6.4289938 30.3884083,6.4289938 C30.5016283,6.4289938 30.6071156,6.37155171 30.6685473,6.27644693 L34.3803886,0.506918137 C34.4416175,0.411484079 34.5471406,0.353697593 34.6605276,0.353508701 L36.6615202,0.353508701 C36.8457065,0.353508701 36.995019,0.502821188 36.995019,0.687007475 L36.995019,13.4633455 C36.995019,13.6475318 36.8457065,13.7968443 36.6615202,13.7968443 L34.9673465,13.7968443 C34.7831602,13.7968443 34.6338477,13.6475318 34.6338477,13.4633455 L34.6338477,5.25260569 C34.6301342,5.10962955 34.5356675,4.9849397 34.3990333,4.94266613 C34.262399,4.90039255 34.114022,4.94994843 34.0302149,5.06584638 L31.1788004,9.32462572 C31.1166794,9.41653092 31.0129268,9.47153231 30.9019964,9.47136518 L29.8214604,9.47136518 C29.711154,9.4722842 29.6075294,9.41859919 29.5446564,9.32796071 Z" id="Shape"></path>
                    <path d="M47.7937093,9.47470017 L45.4592179,9.47470017 C45.2750316,9.47470017 45.1257191,9.62401266 45.1257191,9.80819895 L45.1257191,13.4766855 C45.1257191,13.6608717 44.9764066,13.8101842 44.7922203,13.8101842 L43.0980466,13.8101842 C42.9138603,13.8101842 42.7645478,13.6608717 42.7645478,13.4766855 L42.7645478,0.687007475 C42.7645478,0.502821188 42.9138603,0.353508701 43.0980466,0.353508701 L48.0638433,0.353508701 C51.1920618,0.353508701 53.1697096,2.1210522 53.1697096,4.86574711 C53.1697096,7.90058596 50.7518434,9.47470017 47.7937093,9.47470017 Z M47.870414,2.50457579 L45.4592179,2.50457579 C45.2750316,2.50457579 45.1257191,2.65388828 45.1257191,2.83807457 L45.1257191,7.01347922 C45.1257191,7.19766551 45.2750316,7.34697799 45.4592179,7.34697799 L47.870414,7.34697799 C49.6579675,7.34697799 50.7718534,6.3664916 50.7718534,4.92577689 C50.7718534,3.33165275 49.6379575,2.50457579 47.870414,2.50457579 Z" id="Shape"></path>
                    <path d="M57.6519331,0.353508701 L59.3427719,0.353508701 C59.5269581,0.353508701 59.6762706,0.502821188 59.6762706,0.687007475 L59.6762706,11.3122784 C59.6762706,11.4964647 59.8255831,11.6457772 60.0097694,11.6457772 L66.4129459,11.6457772 C66.5971322,11.6457772 66.7464446,11.7950897 66.7464446,11.979276 L66.7464446,13.4633455 C66.7464446,13.6475318 66.5971322,13.7968443 66.4129459,13.7968443 L57.6519331,13.7968443 C57.4677468,13.7968443 57.3184343,13.6475318 57.3184343,13.4633455 L57.3184343,0.687007475 C57.3184343,0.502821188 57.4677468,0.353508701 57.6519331,0.353508701 Z" id="Shape"></path>
                    <path d="M80.2364701,2.46789093 L73.1996459,2.46789093 C73.0154596,2.46789093 72.8661471,2.61720342 72.8661471,2.8013897 L72.8661471,5.62945931 C72.8661471,5.81364559 73.0154596,5.96295808 73.1996459,5.96295808 L79.986346,5.96295808 C80.1705323,5.96295808 80.3198447,6.11227057 80.3198447,6.29645685 L80.3198447,7.73383657 C80.3198447,7.91802286 80.1705323,8.06733534 79.986346,8.06733534 L73.1996459,8.06733534 C73.0154596,8.06733534 72.8661471,8.21664783 72.8661471,8.40083412 L72.8661471,11.3422933 C72.8661471,11.5264796 73.0154596,11.6757921 73.1996459,11.6757921 L80.2364701,11.6757921 C80.4206563,11.6757921 80.5699688,11.8251046 80.5699688,12.0092909 L80.5699688,13.4566755 C80.5699688,13.6408618 80.4206563,13.7901743 80.2364701,13.7901743 L70.8384746,13.7901743 C70.6542883,13.7901743 70.5049758,13.6408618 70.5049758,13.4566755 L70.5049758,0.687007475 C70.5049758,0.502821188 70.6542883,0.353508701 70.8384746,0.353508701 L80.2364701,0.353508701 C80.4206563,0.353508701 80.5699688,0.502821188 80.5699688,0.687007475 L80.5699688,2.13439215 C80.5699688,2.31857844 80.4206563,2.46789093 80.2364701,2.46789093 Z" id="Shape"></path>
                </g>
                <path d="M33.3131925,12.516209 C32.6784445,10.3066668 31.3120703,8.37822136 29.4379368,7.0468291 C28.9545252,6.70236792 28.4410887,6.40211923 27.9038424,6.14971739 C27.8142286,6.10469492 27.7425172,6.03063234 27.7004082,5.93961317 C27.4336001,5.41095001 27.124672,4.90462027 26.7766166,4.42552873 C25.4132347,2.57399473 23.4631044,1.23864326 21.2438719,0.636982658 C20.430236,0.427676833 19.5927258,0.325650825 18.7526361,0.333498774 C17.3105371,0.346603265 15.8871316,0.661274724 14.5738964,1.25729038 C14.0268542,1.50991573 13.5024561,1.80893424 13.0064522,2.15106709 C12.9358217,2.19652314 12.8536612,2.22082414 12.7696681,2.22110184 C12.509539,2.20109191 12.24941,2.19442193 12.0059559,2.19442193 C11.6626625,2.19674 11.319755,2.21789339 10.9787796,2.2577867 C9.83515204,2.38256526 8.72100336,2.70057126 7.68381175,3.19825324 C6.66117841,3.68696162 5.7295455,4.34677428 4.92911188,5.14922107 C2.90255721,7.24427702 1.87793587,10.1115151 2.11771722,13.0164572 C2.12404157,13.1152989 2.09831073,13.2135439 2.04434749,13.2965961 C1.7171204,13.7917812 1.43048828,14.3126264 1.18725564,14.8540354 C-0.764685836,19.1848978 0.648391724,24.2918835 4.54892328,27.0033957 C5.03318006,27.3493198 5.54775615,27.6506984 6.08635263,27.9038424 C6.17439692,27.9494188 6.24564804,28.021838 6.28978688,28.1106117 C6.55242084,28.6408774 6.86038525,29.1474566 7.2102435,29.6246961 C7.8896827,30.5503742 8.72202318,31.353391 9.67146445,31.9992074 C10.6074373,32.641803 11.64618,33.1200081 12.7429882,33.4132422 C13.5587488,33.6236492 14.3984623,33.7267915 15.240894,33.720061 C16.6811489,33.706458 18.1025009,33.3906021 19.4129636,32.7929345 C19.960039,32.5416691 20.4844581,32.2437544 20.9804079,31.9024927 C21.0516137,31.8587096 21.1336025,31.8356141 21.217192,31.835793 C21.4539761,31.835793 21.7074352,31.8591379 21.9942442,31.8591379 C27.1319941,31.8611175 31.4177438,27.9331172 31.8624729,22.8146511 C31.9109168,22.2231252 31.9109168,21.6286286 31.8624729,21.0371027 C31.8535928,20.9369848 31.8795057,20.8368669 31.9358426,20.7536287 C32.263854,20.260663 32.5494633,19.7407649 32.7895995,19.1995244 C33.3710961,17.8799105 33.6687846,16.4528235 33.6633663,15.0107798 C33.6585122,14.1673535 33.5407411,13.3283748 33.3131925,12.516209 Z M16.2213804,2.22443682 C17.0425796,1.97056486 17.8964543,1.83798957 18.7559711,1.83090827 C19.4689677,1.82357705 20.1798397,1.90991324 20.8703533,2.08770233 C22.3986417,2.49845915 23.7836406,3.32368766 24.8723386,4.47221856 C24.9796933,4.58566759 25.0097927,4.75186891 24.9490433,4.895762 C24.8868702,5.03835085 24.7477051,5.13199466 24.5921996,5.13588112 C24.5723687,5.13966655 24.5520007,5.13966655 24.5321698,5.13588112 C24.1617859,5.08161346 23.7889086,5.04599533 23.4149489,5.02916151 C23.1848348,5.02916151 22.9347107,5.00915159 22.6445668,5.02916151 C21.8304219,5.03795228 21.018385,5.11380187 20.2166957,5.25594068 L20.1633359,5.25594068 C20.074026,5.25357479 19.9877092,5.22324729 19.9165468,5.169231 C19.0900266,4.47645092 18.1857262,3.88216444 17.2218767,3.39835251 C16.8883405,3.23224154 16.5466244,3.08308862 16.1980355,2.95146415 C16.0414846,2.89424556 15.9411175,2.74098221 15.9512464,2.57461054 C15.9571535,2.41213286 16.0657238,2.27139356 16.2213804,2.22443682 Z M11.0588193,6.27311194 C11.6413621,5.37069204 12.3615387,4.56499451 13.1932115,3.88526072 C13.2647787,3.82690223 13.3543258,3.79508945 13.4466706,3.79521605 L13.5067003,3.79521605 C14.5678377,3.95475675 15.5981494,4.27644798 16.5615491,4.74902254 C16.8383531,4.88242205 17.128497,5.04250146 17.4553258,5.23593075 C17.5862014,5.31690689 17.657863,5.46674463 17.6387502,5.61945434 C17.6255659,5.77657176 17.5167721,5.90924718 17.3652812,5.95295312 C16.9784226,6.07301268 16.6115739,6.19307223 16.2513953,6.31313179 L16.1046558,6.36315661 C15.3309386,6.61328069 14.7706607,6.79003504 14.2070478,6.95011445 C13.6434348,7.11019386 13.0931619,7.23358841 12.4995341,7.36698792 L12.2860948,7.4003378 C11.8592164,7.49371745 11.432338,7.5904321 10.9854496,7.70048669 C10.9556094,7.70506601 10.9252452,7.70506601 10.8954049,7.70048669 C10.7584238,7.70063435 10.6315776,7.62833204 10.5619062,7.51039239 C10.4953953,7.39120197 10.4953953,7.24605922 10.5619062,7.1268688 C10.7019757,6.85339981 10.875395,6.5565859 11.0588193,6.27311194 Z M5.23926574,20.4701548 C5.07038677,21.5161134 5.01893094,22.5776695 5.0858563,23.6350581 C5.10920122,23.9685569 5.15255606,24.3520805 5.21258584,24.742274 C5.23789909,24.8603527 5.20711277,24.9834979 5.12921115,25.0757728 C5.05324183,25.1601683 4.94591179,25.2096125 4.83239724,25.2125073 C4.73326698,25.2148252 4.63728313,25.1776315 4.56559822,25.1091227 C2.15453325,22.9468431 1.22324814,19.5785868 2.18108198,16.4848444 C2.22916722,16.3255966 2.37219029,16.2137846 2.53833568,16.2055522 C2.70448106,16.1973198 2.85785689,16.2944453 2.92144926,16.4481595 C3.05818376,16.7816583 3.21492818,17.138502 3.38167757,17.4686658 C3.86738487,18.4117757 4.45688343,19.2977015 5.13921611,20.1099761 C5.22399964,20.2094332 5.2606067,20.3412186 5.23926574,20.4701548 Z M6.31646678,16.3014201 C6.18640226,16.7149586 6.05633774,17.135167 5.92293823,17.5753854 C5.87674253,17.7419749 5.72562668,17.8576943 5.55275459,17.8588594 C5.41678248,17.8617695 5.28961232,17.7918259 5.21925581,17.675435 C5.03607388,17.3909886 4.86798062,17.0971037 4.71567267,16.7949983 C4.2094723,15.8059585 3.86600984,14.7417879 3.6985014,13.6434348 C3.5776323,12.8960146 3.5507436,12.136409 3.6184617,11.3823132 C3.6184617,11.2289037 3.64847659,11.0888342 3.6718215,10.9454298 C4.12850381,7.50597149 6.67543463,4.71299252 10.058323,3.94195551 C10.0893429,3.93831164 10.1206828,3.93831164 10.1517027,3.94195551 C10.2952981,3.94409293 10.4249519,4.02836788 10.4852015,4.15872971 C10.5546695,4.29399499 10.5376621,4.45752739 10.4418466,4.57560318 C10.2217374,4.85574215 10.0049632,5.15922603 9.77484907,5.47938486 C9.17609983,6.40819541 8.68915328,7.40447685 8.3241294,8.44752395 C8.30883032,8.49387449 8.27322021,8.53071253 8.22741476,8.54757358 C7.2860777,8.89679732 6.38401873,9.34391453 5.53607965,9.88156868 L5.41935508,9.96160838 L5.31597046,10.0216382 L5.2492707,10.068328 L5.21925581,10.0883379 L5.169231,10.1216878 L5.1425511,10.1416977 L5.07918633,10.1817176 C5.05282737,10.2009609 5.03490834,10.2296314 5.02916151,10.2617573 C5.02720755,10.2984161 5.02720755,10.335153 5.02916151,10.3718119 L5.02916151,10.4852015 C5.02916151,10.5607945 5.02137987,10.6363876 5.0058166,10.7119806 C4.99247665,10.8653901 4.98136002,11.0199112 4.97246672,11.1755439 C4.96357342,11.3311767 4.96357342,11.4901444 4.97246672,11.6524472 C4.97246672,11.695802 4.97246672,11.7391568 4.97246672,11.7791767 C4.97212918,11.8417547 5.00685732,11.8992536 5.0624014,11.9280803 C5.11794547,11.956907 5.18495358,11.9522079 5.23593075,11.9159112 C5.43603002,11.7758417 5.63946427,11.6391072 5.84623351,11.4990377 L5.93294319,11.4023231 C6.00297793,11.3489633 6.07301268,11.2989385 6.14638241,11.2522486 L6.26310698,11.1755439 C6.48655116,11.0254695 6.73667524,10.875395 7.01347922,10.7219856 C7.18253848,10.6380161 7.38700188,10.6791832 7.51039239,10.8220352 C7.58332328,10.9167191 7.61133328,11.0385017 7.58709711,11.155534 C7.49371745,11.5423926 7.41701274,11.9159112 7.34030802,12.2760899 L7.30028816,12.4595142 C7.17689362,13.0864919 7.03682413,13.7534894 6.87007475,14.3938071 C6.70332536,15.0341247 6.53657597,15.5743927 6.34648167,16.1813605 L6.31646678,16.3014201 Z M7.80053633,26.9933908 L7.4003378,26.8466513 L7.35031298,26.8166364 L7.3169631,26.7432667 C6.90309975,25.7137751 6.65436046,24.6254 6.57993081,23.5183335 C6.55452934,23.1854789 6.54673684,22.8515144 6.5565859,22.5178372 C6.56023951,22.3054858 6.73440477,22.1357863 6.94677946,22.1376486 C7.04411548,22.1363542 7.13830173,22.1721211 7.2102435,22.2376983 C7.54374227,22.5511871 7.87724104,22.848001 8.21073982,23.131475 L8.28744454,23.2015097 C8.74100287,23.6050432 9.21790612,24.0385916 9.66812946,24.475475 C10.1183528,24.9123584 10.5485662,25.3859267 11.0321394,25.9128547 C11.158869,26.0495892 11.2889335,26.1863237 11.415663,26.3263932 L11.4523479,26.3664131 C11.4651068,26.3719815 11.4796089,26.3719815 11.4923678,26.3664131 C12.0073641,26.3559743 12.5210416,26.3102893 13.0297971,26.2296786 C13.0923676,26.2205862 13.1444133,26.1768871 13.1641955,26.1168338 C13.1839778,26.0567806 13.1680933,25.9907045 13.1231768,25.9462046 C12.789678,25.6127058 12.4828591,25.2792071 12.1226804,24.8856785 L11.965936,24.742274 C11.5724075,24.3153956 11.145529,23.8585023 10.7086456,23.4282889 C10.2717622,22.9980755 9.85155379,22.6178869 9.42467536,22.2343633 L9.18789123,22.0209241 C8.6776381,21.5640307 8.1873949,21.1371523 7.70048669,20.6569141 C7.47704251,20.4501448 7.25693332,20.2300356 7.03348915,20.0099264 C6.9287685,19.898444 6.88627545,19.7422196 6.92009956,19.593053 C6.9901343,19.2929041 7.06350403,18.9960902 7.14354374,18.7092812 C7.3169631,18.0622936 7.5070574,17.4586608 7.6704718,16.9417377 L7.77719141,16.588229 C7.96728571,15.9712563 8.15071004,15.3876334 8.30078449,14.7873356 C8.45085893,14.1870378 8.60426837,13.5000304 8.75434282,12.786343 L8.8143726,12.4928641 C8.92442719,11.982611 9.04782174,11.4023231 9.19789619,10.8020253 C9.26126096,10.5385613 9.33796567,10.2417474 9.43134533,9.92492352 C9.47628435,9.77542265 9.59248749,9.65797002 9.74149919,9.61143467 C10.0016282,9.53139496 10.2450823,9.46469521 10.4685265,9.40133044 L10.611931,9.36131059 C11.3189484,9.17788626 11.982611,9.02781181 12.5929137,8.89107732 L12.8397028,8.83438253 C13.4466706,8.69431304 14.0169535,8.56091353 14.5872364,8.40416911 C15.1575193,8.24742468 15.787832,8.04065544 16.3647848,7.85723112 L16.5515442,7.79720134 C17.1551769,7.59710207 17.8021646,7.38366286 18.489172,7.18022861 C18.8927056,7.06683902 19.2195343,6.98012934 19.5230182,6.9100946 C20.2737474,6.72962712 21.0376474,6.60918741 21.8074848,6.54991592 C22.0876238,6.52657101 22.3677628,6.51323106 22.6412318,6.51323106 C22.864676,6.51323106 23.0881201,6.51323106 23.3082293,6.51323106 C24.4130042,6.57094538 25.501574,6.8039691 26.5331625,7.20357352 C26.5785679,7.21856353 26.61513,7.25268818 26.6332121,7.29695318 C27.0515794,8.32536896 27.3026555,9.41411564 27.3769144,10.5218863 C27.3969243,10.8353752 27.4035943,11.165539 27.3969243,11.5223826 C27.3990282,11.6813675 27.3044545,11.8257279 27.1578605,11.8872974 C27.0112665,11.9488668 26.8419757,11.9153295 26.7299267,11.8025216 C26.396428,11.4890328 26.0629292,11.1922189 25.7294304,10.9087449 L25.562681,10.7586705 C25.1091227,10.3518019 24.6789093,9.96160838 24.2720408,9.56807983 C23.8651723,9.17455127 23.4516338,8.71765795 23.0247554,8.26076463 L22.8980258,8.12403014 L22.6245568,7.82388124 L22.5111672,7.70048669 C22.4841508,7.67523133 22.4480563,7.66199666 22.4111176,7.66380183 C21.9083674,7.67564266 21.4069851,7.72132416 20.9103731,7.80053633 C20.8486493,7.81081989 20.7975569,7.8541651 20.7773515,7.91338782 C20.7571461,7.97261054 20.7710913,8.03814505 20.8136585,8.08401028 C21.1038024,8.38749417 21.3839414,8.69097805 21.6974302,9.02114184 L21.9542243,9.3046158 C22.3610928,9.74149919 22.7813013,10.1950575 23.2215196,10.6386109 C23.661738,11.0821643 24.1953361,11.5590675 24.6822443,11.9959509 L24.9123584,12.1960502 L25.0924478,12.3627996 C25.4626314,12.6962983 25.846155,13.0297971 26.2363486,13.4166557 C26.4597927,13.6300949 26.7132518,13.883554 26.9800508,14.1670279 C27.0171305,14.2088828 27.0330931,14.2653657 27.0234057,14.3204374 C26.9467009,14.677281 26.8599913,15.0241198 26.7666116,15.3576185 C26.5831873,16.041291 26.393093,16.6549288 26.2096687,17.2485566 L26.1663138,17.3886261 C25.9662145,18.0322787 25.7761202,18.6425815 25.6093709,19.2795641 C25.4426215,19.9165468 25.3158919,20.5301845 25.1591475,21.2805568 L25.0791078,21.6640804 C24.9690532,22.1776685 24.8523286,22.7112665 24.7155941,23.2715445 C24.6422244,23.5783633 24.5488448,23.9218671 24.4354552,24.3020557 C24.4170734,24.3545337 24.3750689,24.3953029 24.3220656,24.4121103 C23.951882,24.5288348 23.6050432,24.6288845 23.3215693,24.7089242 C22.6145519,24.8956835 21.9475543,25.0424229 21.3472565,25.1824924 L21.2505419,25.2025024 C20.6268992,25.3459068 19.9799116,25.4926463 19.3429289,25.6660657 C18.7059462,25.839485 18.0656286,26.0529242 17.4353159,26.2463535 L17.415306,26.2463535 L17.1018171,26.3497381 C16.5715541,26.5231575 16.0246161,26.7032468 15.4343233,26.8733312 L15.3943034,26.8733312 C15.1608543,26.943366 14.8040106,27.0434156 14.3938071,27.1367952 C13.6436932,27.314677 12.8811042,27.4350858 12.1126755,27.4969739 C11.8358715,27.5203188 11.5523975,27.5336588 11.2789285,27.5336588 C11.0554844,27.5336588 10.8253702,27.5336588 10.611931,27.5336588 L10.1883875,27.5036439 L9.81486892,27.4602891 L9.70147934,27.4602891 L9.44468528,27.4102642 C9.42361156,27.4122753 9.40239423,27.4122753 9.38132051,27.4102642 C9.28127088,27.4102642 9.18122125,27.3735794 9.08784159,27.3502345 C8.90108228,27.3168846 8.71432297,27.2735297 8.53423363,27.2268399 C8.35414429,27.1801501 8.06400036,27.0767655 7.79720134,26.9933908 L7.80053633,26.9933908 Z M17.7688147,31.825788 C16.9478269,32.080977 16.0939209,32.2146807 15.234224,32.2226516 C14.5201865,32.2289416 13.8083469,32.1426241 13.1165068,31.9658575 C11.5879148,31.5540012 10.2029183,30.7276199 9.1145215,29.5780063 C9.00693263,29.4660271 8.9767296,29.300567 9.03781678,29.1577978 C9.09964493,29.0153909 9.23941941,28.9226434 9.39466047,28.9210137 L9.45802523,28.9210137 C9.8215389,28.9743735 10.1983925,29.0143933 10.5685762,29.0344033 C10.8253702,29.0344033 11.0888342,29.0544132 11.3522983,29.0344033 C12.1598681,29.0238064 12.9652003,28.9468425 13.7601594,28.8042891 L13.8268592,28.8042891 C13.9134502,28.8042891 13.9977055,28.8323742 14.0669783,28.8843288 C14.8970972,29.5647402 15.8009815,30.1498039 16.7616484,30.6285274 C17.0951472,30.7819368 17.4286459,30.9320113 17.7854896,31.0687458 C17.9417745,31.1292484 18.0432097,31.2814012 18.0389487,31.4489344 C18.0409435,31.6211365 17.9298109,31.7742827 17.7654797,31.825788 L17.7688147,31.825788 Z M22.9280407,27.7804479 C22.3473738,28.6823087 21.6281986,29.4870197 20.7969836,30.1649641 C20.7288206,30.2250783 20.6410785,30.258278 20.5501945,30.2583438 L20.4868297,30.2583438 C19.4237663,30.1044407 18.3916663,29.7836681 17.4286459,29.3078723 C17.1151571,29.1544628 16.8150082,28.9743735 16.5348692,28.8209641 C16.4043543,28.7387948 16.3332633,28.5884532 16.3525688,28.4354395 C16.3718743,28.2824257 16.4780797,28.1544533 16.6249139,28.1072767 C16.9584127,28.0038921 17.2919114,27.9005074 17.6254102,27.7737779 L17.9022142,27.6870682 C18.5692117,27.470294 19.1728445,27.2701948 19.7931522,27.0934404 C20.3400902,26.943366 20.9003682,26.8133014 21.490661,26.6832369 L21.7274451,26.6265421 C22.1476536,26.5331625 22.574532,26.4364478 23.0180854,26.3297282 C23.0491265,26.3264673 23.0804239,26.3264673 23.111465,26.3297282 C23.2488077,26.3281992 23.3762967,26.400868 23.4449638,26.5198225 C23.5102411,26.6381461 23.5102411,26.7816875 23.4449638,26.9000111 C23.2815494,27.20683 23.1047951,27.5036439 22.9247057,27.7804479 L22.9280407,27.7804479 Z M30.3683984,22.6745816 C30.3683984,22.8246561 30.3383835,22.9713956 30.3117036,23.1148 C29.857322,26.5541654 27.3111442,29.3477774 23.928537,30.1182743 C23.8986227,30.1217491 23.8684067,30.1217491 23.8384924,30.1182743 C23.6881933,30.117373 23.5515336,30.0309393 23.486309,29.8955274 C23.4210845,29.7601156 23.4386875,29.5993773 23.5316735,29.4812916 C23.7584527,29.1978177 23.9752269,28.8943338 24.1819961,28.57751 C24.7545058,27.6828385 25.2264867,26.7276923 25.5893609,25.7294304 C25.6367989,25.6069232 25.7336528,25.5100694 25.85616,25.4626314 C26.7691156,25.117218 27.6432377,24.6768035 28.4641204,24.1486462 L28.5808449,24.0719415 L28.7042395,23.9919018 L28.7709392,23.945212 L28.8009541,23.9252021 L28.8776588,23.8718422 L28.9510286,23.8218174 C28.9604125,23.8158226 28.9683786,23.8078564 28.9743735,23.7984725 C28.9826271,23.7710851 28.989308,23.7432481 28.9943834,23.7150978 C29.0587166,23.2286777 29.0888055,22.7383397 29.0844281,22.2477032 C29.0847656,22.1851252 29.0500375,22.1276263 28.9944934,22.0987996 C28.9389493,22.069973 28.8719412,22.074672 28.8209641,22.1109687 C28.4874653,22.3344129 28.1806464,22.5478521 27.8204677,22.7779663 C27.5636737,22.9513856 27.2701948,23.131475 26.9500359,23.3082293 C26.8942922,23.3405885 26.8310655,23.3578322 26.7666116,23.3582541 C26.6449505,23.360901 26.5290201,23.3066357 26.4531228,23.2115147 C26.3801919,23.1168308 26.3521819,22.9950482 26.376418,22.8780159 C26.4597927,22.5445171 26.5264925,22.2110184 26.5931922,21.8775196 L26.663227,21.5707007 C26.7766166,20.9904128 26.920021,20.3034054 27.0934404,19.6297378 C27.2501848,19.032775 27.4269392,18.4291423 27.6203685,17.8455194 L27.6537183,17.7387998 C27.7837829,17.3252613 27.9105124,16.9017179 28.0405769,16.4581645 C28.0896615,16.2911899 28.2433945,16.1769105 28.4174305,16.1780255 C28.5513282,16.1800207 28.6758225,16.2472477 28.7509293,16.3581149 C28.9510286,16.6916136 29.114443,16.9684176 29.2511775,17.2418866 C29.7641139,18.2345236 30.1143001,19.3030982 30.2883587,20.40679 C30.4114625,21.1562317 30.4383599,21.9183259 30.3683984,22.6745816 Z M31.8091131,17.5787204 C31.7612407,17.7380935 31.6175615,17.8495683 31.4512915,17.8563395 C31.2850215,17.8631107 31.1327538,17.763688 31.0720808,17.6087353 C30.9353463,17.2752365 30.7786019,16.9217278 30.6118525,16.6082389 C30.1225572,15.6646548 29.5309281,14.7777704 28.847644,13.9635937 C28.7648587,13.863158 28.7295894,13.7318102 28.7509293,13.603415 C28.9204803,12.5575345 28.9730523,11.4960272 28.9076737,10.4385116 C28.8743239,10.0449831 28.834304,9.66812946 28.7776092,9.32796071 C28.7591463,9.21737908 28.7895637,9.10422634 28.8609839,9.01780685 C28.9371443,8.92944622 29.0478161,8.87836694 29.1644678,8.87773737 C29.2619234,8.87575882 29.3563547,8.91161882 29.4279318,8.977787 C31.8235068,11.1397404 32.7517453,14.4925794 31.8091131,17.5787204 Z" id="Shape" opacity="0.48"></path>
                <path d="M33.3298675,12.5362189 C32.6907818,10.3242753 31.3182993,8.39550817 29.4379368,7.06683902 C28.9545154,6.72239302 28.4410803,6.42214514 27.9038424,6.16972732 C27.8142286,6.12470485 27.7425172,6.05064227 27.7004082,5.95962309 C27.4336001,5.43095994 27.124672,4.92463019 26.7766166,4.44553866 C25.4132347,2.59400465 23.4631044,1.25865318 21.2438719,0.656992585 C20.430236,0.447686759 19.5927258,0.345660752 18.7526361,0.353508701 C17.3105371,0.366613192 15.8871316,0.68128465 14.5738964,1.2773003 C14.0268542,1.52992566 13.5024561,1.82894417 13.0064522,2.17107702 C12.9358217,2.21653306 12.8536612,2.24083407 12.7696681,2.24111176 C12.509539,2.22110184 12.24941,2.21443186 12.0059559,2.21443186 C11.6626628,2.21675662 11.3197556,2.23790998 10.9787796,2.27779663 C9.83629122,2.40294503 8.72330022,2.72094246 7.68714674,3.21826317 C6.66454661,3.7070281 5.73292281,4.3668343 4.93244687,5.169231 C2.90467813,7.26371063 1.8788155,10.131021 2.11771722,13.0364671 C2.12404157,13.1353089 2.09831073,13.2335539 2.04434749,13.316606 C1.7171204,13.8117912 1.43048828,14.3326363 1.18725564,14.8740453 C-0.764685836,19.2049078 0.648391724,24.3118934 4.54892328,27.0234057 C5.03319,27.3693144 5.54776466,27.6706921 6.08635263,27.9238524 C6.17439692,27.9694287 6.24564804,28.0418479 6.28978688,28.1306216 C6.55242084,28.6608873 6.86038525,29.1674665 7.2102435,29.644706 C7.8896827,30.5703841 8.72202318,31.3734009 9.67146445,32.0192173 C10.6074373,32.6618129 11.64618,33.140018 12.7429882,33.4332521 C13.5587488,33.6436591 14.3984623,33.7468015 15.240894,33.740071 C16.6811489,33.726468 18.1025009,33.410612 19.4129636,32.8129444 C19.9600314,32.5616643 20.4844493,32.2637503 20.9804079,31.9225027 C21.0516137,31.8787195 21.1336025,31.8556241 21.217192,31.8558029 C21.4539761,31.8558029 21.7074352,31.8791478 21.9942442,31.8791478 C27.1319941,31.8811275 31.4177438,27.9531271 31.8624729,22.8346611 C31.9109168,22.2431351 31.9109168,21.6486386 31.8624729,21.0571126 C31.8535928,20.9569947 31.8795057,20.8568768 31.9358426,20.7736386 C32.2638403,20.2806646 32.5494489,19.7607677 32.7895995,19.2195343 C33.3710961,17.8999204 33.6687846,16.4728334 33.6633663,15.0307897 C33.6639437,14.1881144 33.5517826,13.3491492 33.3298675,12.5362189 Z M16.2213804,2.24444675 C17.0425796,1.99057478 17.8964543,1.8579995 18.7559711,1.8509182 C19.4689677,1.84358698 20.1798397,1.92992317 20.8703533,2.10771225 C22.3986417,2.51846908 23.7836406,3.34369759 24.8723386,4.49222849 C24.9796933,4.60567751 25.0097927,4.77187884 24.9490433,4.91577193 C24.8868702,5.05836078 24.7477051,5.15200458 24.5921996,5.15589105 C24.5723613,5.15959787 24.5520081,5.15959787 24.5321698,5.15589105 C24.1617886,5.10160104 23.7889102,5.0659828 23.4149489,5.04917144 C23.1848348,5.04917144 22.9347107,5.02916151 22.6445668,5.04917144 C21.8304211,5.05794709 21.018383,5.1337968 20.2166957,5.27595061 L20.1633359,5.27595061 C20.074026,5.27358472 19.9877092,5.24325721 19.9165468,5.18924092 C19.08936,4.50832767 18.1862582,3.92528424 17.2252117,3.45171231 C16.891673,3.28560649 16.5499573,3.13645369 16.2013704,3.00482395 C16.0448196,2.94760537 15.9444525,2.79434202 15.9545814,2.62797034 C15.9452093,2.45412077 16.0551232,2.29611947 16.2213804,2.24444675 Z M11.0588193,6.29312187 C11.6414058,5.39073527 12.3615766,4.58504413 13.1932115,3.90527064 C13.2647787,3.84691216 13.3543258,3.81509938 13.4466706,3.81522598 L13.5067003,3.81522598 C14.5678377,3.97476668 15.5981494,4.29645791 16.5615491,4.76903247 C16.8383531,4.90243198 17.128497,5.06251139 17.4553258,5.25594068 C17.5862014,5.33691682 17.657863,5.48675456 17.6387502,5.63946427 C17.6255659,5.79658169 17.5167721,5.9292571 17.3652812,5.97296304 C16.9784226,6.0930226 16.6115739,6.21308216 16.2513953,6.33314172 L16.1046558,6.38316654 C15.3309386,6.63329062 14.7706607,6.81004497 14.2070478,6.97012438 C13.6434348,7.13020379 13.0931619,7.25359834 12.4995341,7.38699785 L12.2860948,7.43702266 C11.8592164,7.53040232 11.432338,7.62711696 10.9854496,7.73717156 C10.9556134,7.74180353 10.9252411,7.74180353 10.8954049,7.73717156 C10.7584238,7.73731921 10.6315776,7.6650169 10.5619062,7.54707726 C10.4953953,7.42788684 10.4953953,7.28274409 10.5619062,7.16355367 C10.7019757,6.87340973 10.875395,6.57659582 11.0588193,6.29312187 Z M5.23926574,20.4901647 C5.07038677,21.5361233 5.01893094,22.5976795 5.0858563,23.655068 C5.10920122,23.9885668 5.15255606,24.3720904 5.21258584,24.762284 C5.23789909,24.8803626 5.20711277,25.0035079 5.12921115,25.0957827 C5.05324183,25.1801782 4.94591179,25.2296224 4.83239724,25.2325172 C4.73326698,25.2348351 4.63728313,25.1976414 4.56559822,25.1291326 C2.15453325,22.966853 1.22324814,19.5985967 2.18108198,16.5048543 C2.22916722,16.3456065 2.37219029,16.2337946 2.53833568,16.2255621 C2.70448106,16.2173297 2.85785689,16.3144552 2.92144926,16.4681695 C3.05818376,16.8016682 3.21492818,17.1585119 3.38167757,17.4886757 C3.86738487,18.4317856 4.45688343,19.3177114 5.13921611,20.129986 C5.22399964,20.2294431 5.2606067,20.3612285 5.23926574,20.4901647 Z M6.31646678,16.32143 C6.18640226,16.7349685 6.05633774,17.1551769 5.92293823,17.5953953 C5.87674253,17.7619849 5.72562668,17.8777042 5.55275459,17.8788693 C5.41678248,17.8817795 5.28961232,17.8118359 5.21925581,17.695445 C5.03606862,17.4110017 4.86797519,17.1171165 4.71567267,16.8150082 C4.21525112,15.8249676 3.87743266,14.7608394 3.71517634,13.6634448 C3.58763001,12.9168626 3.55401896,12.1572528 3.61512671,11.4023231 C3.61512671,11.2489136 3.6451416,11.1088442 3.66848651,10.9654397 C4.12516882,7.52598142 6.67209965,4.73300245 10.054988,3.96196544 C10.0860079,3.95832156 10.1173478,3.95832156 10.1483677,3.96196544 C10.2919631,3.96410286 10.4216169,4.04837781 10.4818665,4.17873964 C10.5513345,4.31400491 10.5343271,4.47753732 10.4385116,4.59561311 C10.2184024,4.87575208 10.0016282,5.17923596 9.77151408,5.49939478 C9.17276484,6.42820533 8.68581829,7.42448677 8.32079441,8.46753387 C8.30549533,8.51388441 8.26988522,8.55072245 8.22407977,8.56758351 C7.28274271,8.91680724 6.38068374,9.36392445 5.53274466,9.9015786 C5.38267021,9.99829325 5.23926574,10.0983429 5.09252628,10.1983925 C5.01067325,10.2506506 4.96646693,10.3455642 4.9791367,10.4418466 C4.9791367,10.5452312 4.96246176,10.6486159 4.95245679,10.7520005 C4.94245183,10.8553851 4.92911188,11.0621543 4.92244191,11.2155638 C4.91577193,11.3689732 4.92244191,11.5490625 4.92244191,11.689132 L4.92244191,11.8191966 C4.92210436,11.8817746 4.95683251,11.9392735 5.01237658,11.9681001 C5.06792066,11.9969268 5.13492876,11.9922277 5.18590594,11.9559311 C5.3860052,11.8158616 5.58943945,11.6791271 5.79620869,11.5390576 L5.91626825,11.4556829 C5.98630299,11.4023231 6.05633774,11.3522983 6.12970747,11.3056084 L6.24643204,11.2289037 C6.46987622,11.0788293 6.7200003,10.9287548 6.99680428,10.7753454 C7.16586354,10.6913759 7.37032694,10.732543 7.49371745,10.875395 C7.56664834,10.9700789 7.59465834,11.0918615 7.57042217,11.2088938 C7.47704251,11.5957524 7.4003378,11.969271 7.32363308,12.3294497 L7.3169631,12.4895291 C7.19356856,13.1165068 7.05349907,13.7835043 6.88674968,14.423822 C6.7200003,15.0641396 6.55325091,15.6044076 6.36315661,16.2113754 L6.31646678,16.32143 Z M7.80053633,27.0134007 L7.4003378,26.8666612 L7.35031298,26.8366463 L7.3169631,26.7799516 C6.90309975,25.75046 6.65436046,24.6620848 6.57993081,23.5550184 C6.55454175,23.2221631 6.54674926,22.8881993 6.5565859,22.5545221 C6.56023951,22.3421707 6.73440477,22.1724712 6.94677946,22.1743335 C7.04411548,22.1730391 7.13830173,22.208806 7.2102435,22.2743831 C7.54374227,22.587872 7.87724104,22.8846859 8.21073982,23.1681598 L8.28744454,23.2381946 C8.74100287,23.6417281 9.21790612,24.0752765 9.66812946,24.5121599 C10.1183528,24.9490433 10.5485662,25.4226115 11.0321394,25.9495396 C11.158869,26.0862741 11.2889335,26.2230086 11.415663,26.3630781 L11.4523479,26.4030979 C11.4647301,26.4102468 11.4799856,26.4102468 11.4923678,26.4030979 C12.0073636,26.3926488 12.5210404,26.3469639 13.0297971,26.2663634 C13.0923676,26.257271 13.1444133,26.213572 13.1641955,26.1535187 C13.1839778,26.0934654 13.1680933,26.0273894 13.1231768,25.9828895 C12.789678,25.6493907 12.4828591,25.3158919 12.1226804,24.9223634 L11.965936,24.742274 C11.5724075,24.3153956 11.145529,23.8585023 10.7086456,23.4282889 C10.2717622,22.9980755 9.85155379,22.6178869 9.42467536,22.2343633 L9.18789123,22.0209241 C8.6776381,21.5640307 8.1873949,21.1371523 7.70048669,20.6569141 C7.47704251,20.4501448 7.25693332,20.2300356 7.03348915,20.0099264 C6.9287685,19.898444 6.88627545,19.7422196 6.92009956,19.593053 C6.9901343,19.2929041 7.06350403,18.9960902 7.14354374,18.7092812 C7.3169631,18.0622936 7.5070574,17.4586608 7.6704718,16.9417377 L7.77719141,16.588229 C7.98396065,15.9779263 8.16738498,15.4043084 8.31745943,14.7940056 C8.46753387,14.1837029 8.62094331,13.5067003 8.77101776,12.793013 L8.83104754,12.4995341 C8.94110213,11.9892809 9.06449668,11.4089931 9.21457113,10.8086953 C9.27793589,10.5452312 9.35464061,10.2484173 9.44802027,9.93159349 C9.49295929,9.78209262 9.60916243,9.66463999 9.75817413,9.61810464 C10.0183032,9.53472995 10.2617573,9.4680302 10.4852015,9.40133044 L10.6286059,9.36131059 C11.3356233,9.17788626 11.9992859,9.02781181 12.6095886,8.89107732 L12.8563777,8.83438253 C13.4633455,8.69431304 14.0336284,8.56091353 14.6039113,8.40416911 C15.1741942,8.24742468 15.8045069,8.04065544 16.3814598,7.85723112 L16.5682191,7.79720134 C17.1718519,7.59710207 17.8188395,7.38366286 18.505847,7.18022861 C18.9093805,7.06683902 19.2362093,6.98012934 19.5396932,6.9100946 C20.2904223,6.72962712 21.0543223,6.60918741 21.8241598,6.54991592 C22.1042987,6.52657101 22.3844377,6.51323106 22.6579067,6.51323106 C22.8813509,6.51323106 23.1047951,6.51323106 23.3249043,6.51323106 C24.4296792,6.57094538 25.5182489,6.8039691 26.5498374,7.20357352 C26.5952428,7.21856353 26.6318049,7.25268818 26.649887,7.29695318 C27.0683092,8.3253516 27.3193873,9.41410723 27.3935893,10.5218863 C27.4135992,10.8353752 27.4202692,11.165539 27.4135992,11.5223826 C27.4157032,11.6813675 27.3211294,11.8257279 27.1745354,11.8872974 C27.0279415,11.9488668 26.8586507,11.9153295 26.7466017,11.8025216 C26.4131029,11.4890328 26.0796041,11.1922189 25.7461054,10.9087449 L25.579356,10.7586705 C25.1257976,10.3518019 24.6955842,9.96160838 24.2887157,9.56807983 C23.8818472,9.17455127 23.4683087,8.71765795 23.0414303,8.26076463 L22.9147008,8.12403014 L22.6412318,7.82388124 L22.567862,7.73383657 C22.5408456,7.7085812 22.5047511,7.69534654 22.4678124,7.69715171 C21.9650628,7.70900261 21.4636811,7.75468405 20.9670679,7.8338862 C20.905344,7.84416976 20.8542517,7.88751498 20.8340463,7.9467377 C20.8138409,8.00596042 20.8277861,8.07149493 20.8703533,8.11736016 C21.1604972,8.42084405 21.4406362,8.72432793 21.754125,9.05449172 L22.0109191,9.33796567 C22.4177876,9.77484907 22.837996,10.2284074 23.2782144,10.6719608 C23.7184328,11.1155141 24.2520309,11.5924174 24.7389391,12.0293008 L24.9690532,12.2294 L25.1491426,12.3961494 C25.5193262,12.7296482 25.9028498,13.063147 26.2930433,13.4500056 C26.5164875,13.6634448 26.7699466,13.9169038 27.0367456,14.2003778 C27.0738253,14.2422327 27.0897879,14.2987156 27.0801005,14.3537872 C27.0033957,14.7106309 26.9166861,15.0574696 26.8233064,15.3909684 C26.6398821,16.057966 26.4497878,16.6882787 26.2663634,17.2819065 L26.2230086,17.421976 C26.0229093,18.0656286 25.832815,18.6759313 25.6660657,19.312914 C25.4993163,19.9498967 25.3725867,20.5635344 25.2158423,21.3139067 L25.1358026,21.6974302 C25.025748,22.2110184 24.9090234,22.7446164 24.7722889,23.3048943 C24.6989192,23.6117132 24.6055396,23.9552169 24.49215,24.3354055 C24.4737682,24.3878836 24.4317637,24.4286527 24.3787604,24.4454601 C24.0085767,24.5621847 23.661738,24.6622343 23.3782641,24.742274 C22.6712467,24.9290334 22.0042491,25.0757728 21.4039513,25.2158423 L21.3072367,25.2358522 C20.683594,25.3792567 20.0366063,25.5259962 19.3996237,25.6994155 C18.762641,25.8728349 18.1223234,26.0862741 17.4920107,26.2797034 L17.4720008,26.2963783 L17.1585119,26.399763 C16.6282489,26.5731823 16.0813109,26.7532717 15.4910181,26.923356 L15.4509982,26.923356 C15.2175491,26.9933908 14.8607054,27.0934404 14.4505019,27.1868201 C13.7003905,27.3647145 12.9378005,27.4851235 12.1693703,27.5469987 C11.8925663,27.5703437 11.6090923,27.5836836 11.3356233,27.5836836 C11.0621543,27.5836836 10.882065,27.5836836 10.6686258,27.5836836 L10.2450823,27.5536687 L9.87156371,27.5103139 L9.75817413,27.4936389 L9.44468528,27.4102642 C9.42361156,27.4122753 9.40239423,27.4122753 9.38132051,27.4102642 C9.28127088,27.4102642 9.18122125,27.3735794 9.08784159,27.3502345 C8.90108228,27.3168846 8.71432297,27.2735297 8.53423363,27.2268399 C8.31745943,27.1768151 8.06400036,27.1034454 7.79720134,27.0134007 L7.80053633,27.0134007 Z M17.7688147,31.8457979 C16.9478269,32.100987 16.0939209,32.2346907 15.234224,32.2426615 C14.5201865,32.2489516 13.8083469,32.162634 13.1165068,31.9858674 C11.5879148,31.5740111 10.2029183,30.7476298 9.1145215,29.5980162 C9.00693263,29.4860371 8.9767296,29.320577 9.03781678,29.1778077 C9.09964493,29.0354009 9.23941941,28.9426533 9.39466047,28.9410236 L9.45802523,28.9410236 C9.8215389,28.9943834 10.1983925,29.0344033 10.5685762,29.0544132 C10.8253702,29.0544132 11.0888342,29.0744231 11.3522983,29.0710881 C12.1598681,29.0604912 12.9652003,28.9835274 13.7601594,28.840974 L13.8268592,28.840974 C13.9134502,28.840974 13.9977055,28.8690591 14.0669783,28.9210137 C14.8970972,29.6014251 15.8009815,30.1864888 16.7616484,30.6652123 C17.0951472,30.8186217 17.4286459,30.9686962 17.7854896,31.1054307 C17.9417745,31.1659333 18.0432097,31.318086 18.0389487,31.4856193 C18.0337521,31.6516495 17.92401,31.7961878 17.7654797,31.8457979 L17.7688147,31.8457979 Z M22.9280407,27.8004578 C22.3473738,28.7023187 21.6281986,29.5070296 20.7969836,30.184974 C20.7288206,30.2450882 20.6410785,30.2782879 20.5501945,30.2783537 L20.4868297,30.2783537 C19.4237663,30.1244507 18.3916663,29.803678 17.4286459,29.3278822 C17.1151571,29.1744728 16.8150082,28.9943834 16.5348692,28.840974 C16.4043543,28.7588047 16.3332633,28.6084632 16.3525688,28.4554494 C16.3718743,28.3024356 16.4780797,28.1744632 16.6249139,28.1272866 C16.9584127,28.023902 17.2919114,27.9205174 17.6254102,27.8104628 L17.9022142,27.7237531 C18.5692117,27.5069789 19.1728445,27.3068796 19.7931522,27.1301253 C20.3400902,26.9800508 20.9003682,26.8499863 21.490661,26.7199218 L21.7274451,26.663227 C22.1476536,26.5698473 22.574532,26.4731327 23.0180854,26.3664131 C23.0491252,26.3631275 23.0804252,26.3631275 23.111465,26.3664131 C23.2488077,26.3648841 23.3762967,26.4375528 23.4449638,26.5565074 C23.5102411,26.674831 23.5102411,26.8183724 23.4449638,26.936696 C23.2815494,27.2268399 23.1047951,27.5236538 22.9247057,27.8004578 L22.9280407,27.8004578 Z M28.9943834,23.8218174 C28.9971037,23.7952069 28.9971037,23.7683883 28.9943834,23.7417777 C29.0587056,23.2553566 29.0887945,22.7650193 29.0844281,22.2743831 C29.0847656,22.2118051 29.0500375,22.1543062 28.9944934,22.1254795 C28.9389493,22.0966529 28.8719412,22.1013519 28.8209641,22.1376486 C28.4874653,22.3610928 28.1806464,22.574532 27.8204677,22.8046462 C27.5636737,22.9780655 27.2701948,23.1581549 26.9500359,23.3349092 C26.8942922,23.3672684 26.8310655,23.3845121 26.7666116,23.384934 C26.6449505,23.3875809 26.5290201,23.3333156 26.4531228,23.2381946 C26.3801919,23.1435107 26.3521819,23.0217281 26.376418,22.9046958 C26.4597927,22.571197 26.5264925,22.2376983 26.5931922,21.9041995 L26.663227,21.5973806 C26.7766166,21.0170927 26.920021,20.3300853 27.0934404,19.6564177 C27.2501848,19.0594549 27.4269392,18.4558222 27.6203685,17.8721993 L27.6537183,17.7654797 C27.7837829,17.3519412 27.9105124,16.9283978 28.0405769,16.4848444 C28.0896615,16.3178698 28.2433945,16.2035904 28.4174305,16.2047054 C28.5513282,16.2067006 28.6758225,16.2739276 28.7509293,16.3847948 C28.9510286,16.7182935 29.114443,16.9950975 29.2511775,17.2685665 C29.7500522,18.2592381 30.0877899,19.323112 30.2516738,20.4201299 C30.3742093,21.1673856 30.4011054,21.927202 30.3317135,22.6812516 C30.3317135,22.8313261 30.3016986,22.9780655 30.2750187,23.12147 C29.8206372,26.5608354 27.2744593,29.3544474 23.8918522,30.1249443 C23.8619379,30.1284191 23.8317218,30.1284191 23.8018075,30.1249443 C23.657692,30.1214009 23.5282252,30.0359528 23.4683087,29.9048351 C23.3979458,29.769739 23.4150071,29.6056877 23.5116636,29.4879616 C23.7384427,29.2044876 23.9552169,28.9010038 24.1786611,28.5841799 C24.7511708,27.6895085 25.2231518,26.7343622 25.5860259,25.7361004 C25.6334639,25.6135932 25.7303178,25.5167394 25.852825,25.4693014 C26.7657906,25.1239105 27.6399149,24.6834949 28.4607854,24.1553162 L28.8576489,23.8918522 C28.8991712,23.8725516 28.9365485,23.8453681 28.9677035,23.8118125 L28.9943834,23.8218174 Z M31.822453,17.5987303 C31.7745806,17.7581034 31.6309015,17.8695782 31.4646315,17.8763494 C31.2983615,17.8831206 31.1460937,17.7836979 31.0854207,17.6287452 C30.9486862,17.2952464 30.7919418,16.9417377 30.6251924,16.6282489 C30.1358971,15.6846648 29.544268,14.7977803 28.8609839,13.9836036 C28.7781986,13.8831679 28.7429293,13.7518201 28.7642693,13.6234249 C28.9337927,12.5775415 28.9863646,11.5160373 28.9210137,10.4585216 C28.8876638,10.064993 28.847644,9.68813939 28.7909492,9.34797064 C28.7724862,9.237389 28.8029036,9.12423627 28.8743239,9.03781678 C28.9504843,8.94945615 29.0611561,8.89837687 29.1778077,8.89774729 C29.2752634,8.89576875 29.3696947,8.93162875 29.4412718,8.99779692 C31.8320531,11.1627846 32.7549653,14.5151657 31.8091131,17.5987303 L31.822453,17.5987303 Z" id="Shape"></path>
                <path d="M6.39364002,11.1888839 L6.28660944,11.2633399 L5.93294319,11.4867081 C6.03066676,11.412252 6.12839033,11.3424495 6.2307674,11.2773004 L6.39364002,11.1888839 Z" id="Shape"></path>
            </g>
        </g>
    </g>
</svg>