<?xml version="1.0" encoding="UTF-8"?>
<svg width="892px" height="326px" viewBox="0 0 892 326" version="1.1" xmlns="http://www.w3.org/2000/svg" xmlns:xlink="http://www.w3.org/1999/xlink">
    <!-- Generator: Sketch 50.2 (55047) - http://www.bohemiancoding.com/sketch -->
    <title>chapter-iv</title>
    <desc>Created with Sketch.</desc>
    <defs>
        <path d="M117.757496,145.628237 L117.757496,213 L72.2602198,213 L72.2602198,143.8001 C56.5413107,135.313048 45.6998539,118.951249 45.0211021,99.9999625 C45.0098372,99.999984 44.9985689,100 44.9872968,100 C38.5314738,100 33.2979953,94.7665214 33.2979953,88.3106985 L33.2979953,73.6893015 C33.2979953,67.2334786 38.5314738,62 44.9872968,62 L44.9872968,51.8907471 C44.9872968,23.2322788 68.2195756,5.26447522e-15 96.8780439,0 C125.536512,-5.26447522e-15 148.768791,23.2322788 148.768791,51.8907471 L148.768791,62.0140301 C154.95622,62.3151996 159.880312,67.4272089 159.880312,73.6893015 L159.880312,88.3106985 C159.880312,94.5840419 154.93851,99.7031656 148.735429,99.9875466 C148.008733,120.412266 135.477699,137.830886 117.757496,145.628237 Z" id="path-1"></path>
        <path d="M72.3225045,0.0708856067 L72.3225045,20.3473629 C72.3225045,32.8580689 82.4644356,43 94.9751416,43 C107.485848,43 117.627779,32.8580689 117.627779,20.3473629 L117.627779,0.0708856067 C134.712244,2.09629638 147.831295,7.66339117 147.831295,22.0769231 C147.831295,22.2993778 147.82817,22.520897 147.821954,22.7414746 C172.360586,34.2151531 189.361129,59.1219741 189.361129,87.9994847 L189.361129,157.418704 L0.589153781,157.418704 L0.589153781,87.9994847 C0.589153781,59.1219741 17.5896967,34.2151531 42.1283297,22.7414746 C42.1221134,22.520897 42.1189884,22.2993778 42.1189884,22.0769231 C42.1189884,7.66339117 55.2380392,2.09629638 72.3225045,0.0708856067 Z" id="path-3"></path>
        <path d="M74.3718242,66.2483975 C72.448283,68.4209529 66.6543541,69.2570875 65.055813,68.4209529 C62.1020489,66.8759538 59.305947,65.219575 56.0581141,65.3331033 C52.8099588,65.219575 49.9949104,65.6027676 47.0061237,67.1675477 C44.6120744,68.4209529 41.0605925,68.4209529 38.5578776,66.2483975 C34.5178239,62.74131 35.1962915,57.1652432 37.7447052,53.1940487 C41.3707854,47.5425695 46.2899366,50.2761084 51.7901634,49.6313594 C53.2857402,49.4561452 54.7880886,49.0141722 56.0582647,48.2913314 C57.3284408,49.0141722 58.8304667,49.4561452 60.3260434,49.6313594 C65.8265928,50.2761084 70.2554628,47.5425695 73.8818655,53.1940487 C76.4299568,57.1652432 76.2953653,64.0758422 74.3718242,66.2483975 Z M108.572909,0.291331447 C105.354966,14.3661527 103.876408,28.7251068 101.54315,42.9624785 C101.05696,45.9303459 100.524666,48.8876409 99.9594872,51.8409713 C99.8408415,52.4611079 99.7238078,54.763906 99.1496012,55.0556379 C97.4102162,55.9397538 93.8653529,51.2380148 92.9174768,50.176481 C90.5368246,47.5105875 88.1764841,44.8205756 85.2770793,42.7285644 C79.4186244,38.5015918 72.5597412,36.0022133 65.4226208,35.4091684 C62.4364885,35.1607173 58.3986651,35.5938548 55.5843758,37.4017331 C52.7700864,35.5938548 48.732263,35.1607173 45.7458084,35.4091684 C38.608688,36.0022133 31.7498047,38.5015918 25.8913498,42.7285644 C22.991945,44.8205756 20.6319269,47.5105875 18.2509523,50.176481 C17.3030762,51.2380148 13.7582129,55.9397538 12.018828,55.0556379 C11.4446214,54.763906 11.3275877,52.4611079 11.208942,51.8409713 C10.6437628,48.8876409 10.111469,45.9303459 9.62527952,42.9624785 C7.29234356,28.7251068 5.81378576,14.3661527 2.595843,0.291331447 C1.65957351,0.291331447 0.838080863,19.0391479 0.733621044,20.7859046 C0.308366411,27.880307 -0.188140135,34.8167843 0.446356542,41.9174641 C1.54028298,54.1662358 2.680636,69.5252717 11.4507471,78.8788611 C19.375185,87.3308242 30.8808038,89.0977481 40.804601,94.4326586 C42.0822994,95.1195334 43.7771922,95.9676371 45.6049166,96.6624412 C47.5303303,98.2255026 51.348917,99.2913314 55.747836,99.2913314 C60.3621229,99.2913314 64.3377217,98.1187876 66.1593204,96.4291879 C67.7574911,95.7839419 69.2263767,95.0442052 70.3638281,94.4326586 C80.2868661,89.0965764 91.7932441,87.3308242 99.717682,78.8788611 C108.487793,69.5252717 109.628146,54.1662358 110.722395,41.9174641 C111.356569,34.8167843 110.860063,27.880307 110.43513,20.7859046 C110.330348,19.0391479 109.508856,0.291331447 108.572909,0.291331447 Z" id="path-5"></path>
        <filter x="-0.9%" y="-2.8%" width="101.8%" height="111.1%" filterUnits="objectBoundingBox" id="filter-7">
            <feOffset dx="0" dy="2" in="SourceAlpha" result="shadowOffsetOuter1"></feOffset>
            <feColorMatrix values="0 0 0 0 0   0 0 0 0 0   0 0 0 0 0  0 0 0 0.2 0" type="matrix" in="shadowOffsetOuter1" result="shadowMatrixOuter1"></feColorMatrix>
            <feMerge>
                <feMergeNode in="shadowMatrixOuter1"></feMergeNode>
                <feMergeNode in="SourceGraphic"></feMergeNode>
            </feMerge>
        </filter>
    </defs>
    <g id="me" stroke="none" stroke-width="1" fill="none" fill-rule="evenodd">
        <g id="chapter-iv" transform="translate(1.547606, 0.000000)">
            <g id="Group-33" transform="translate(28.000000, 25.000000)">
                <g id="Group-32-Copy" transform="translate(0.240248, 0.000000)">
                    <g id="Group-9-Copy-5" transform="translate(0.759752, 0.000000)">
                        <g id="Group-20" transform="translate(59.703773, 0.404426)" stroke-width="4">
                            <g id="Group-9" transform="translate(0.796227, 0.595574)" stroke="#D6DDE3" stroke-linecap="round">
                                <path d="M98.9331672,150.118947 L244.145448,150.118947" id="Line-Copy"></path>
                                <path d="M0.796226522,112.214521 L386.796227,112.214521" id="Line-Copy-2"></path>
                                <path d="M257.426612,76.2145213 L662.722838,76.2145213" id="Line-Copy-3"></path>
                                <path d="M432.796227,1.5 L503.796227,1.5" id="Line-Copy-5"></path>
                                <path d="M184.226529,1.5 L380.213708,1.5" id="Line-Copy-12"></path>
                                <path d="M675.402048,76.2145213 L701.090982,76.2145213" id="Line-Copy-9"></path>
                                <path d="M256.796227,150.118947 L261.356989,150.118947" id="Line-Copy-6"></path>
                                <path d="M207.608068,187.714521 L352.820349,187.714521" id="Line-Copy-8"></path>
                                <path d="M169.723341,187.714521 L197.200194,187.714521" id="Line-Copy-7"></path>
                                <path d="M452.971565,165.907817 L598.183845,165.907817" id="Line-Copy-11"></path>
                                <path d="M606.472335,165.907817 L611.033097,165.907817" id="Line-Copy-10"></path>
                                <path d="M54.4266118,36.2145213 L459.722838,36.2145213" id="Line-Copy-4"></path>
                            </g>
                            <g id="Group-3" transform="translate(143.925723, 221.354133)" stroke="#0F0F0F">
                                <g id="Group" transform="translate(0.282532, 33.895014)">
                                    <path d="M10.3946214,0.879711406 L35.087129,0.879711406 C41.714546,0.879711406 47.087129,6.25229441 47.087129,12.8797114 L47.087129,37.2127933 C47.087129,39.9742171 44.8485528,42.2127933 42.087129,42.2127933 L-1.60537863,42.2127933 L-1.60537863,12.8797114 C-1.60537863,6.25229441 3.76720437,0.879711406 10.3946214,0.879711406 Z" id="Rectangle-2" fill="#FDFDFD" transform="translate(22.740875, 21.546252) rotate(-180.000000) translate(-22.740875, -21.546252) "></path>
                                    <path d="M40.990638,0.881395328 C52.7751185,0.881395328 61.4967092,-0.554570126 61.4967092,15.2375045 C61.4967092,31.0295791 55.7221225,31.9069617 45.1337358,31.9069617" id="Path-2"></path>
                                    <path d="M0.394621368,32.2511078 L47.1332297,32.2511078" id="Path-4"></path>
                                </g>
                                <g id="Group-3-Copy-2" transform="translate(23.426797, 11.382325) rotate(46.000000) translate(-23.426797, -11.382325) translate(15.926797, 3.882325)" stroke-linecap="round" stroke-linejoin="round">
                                    <path d="M14.7325499,14.6474489 C14.7325499,10.7020452 11.4427204,7.50333086 7.38431414,7.50333086" id="Stroke-156"></path>
                                    <path d="M0.0362997303,0.359454856 C0.0362997303,4.30485862 3.32612922,7.50357294 7.38453548,7.50357294" id="Stroke-158"></path>
                                </g>
                                <g id="Group-3-Copy-3" transform="translate(12.072560, 15.909219) rotate(46.000000) translate(-12.072560, -15.909219) translate(4.572560, 8.409219)" stroke-linecap="round" stroke-linejoin="round">
                                    <path d="M14.7325499,14.6474489 C14.7325499,10.7020452 11.4427204,7.50333086 7.38431414,7.50333086" id="Stroke-156"></path>
                                    <path d="M0.0362997303,0.359454856 C0.0362997303,4.30485862 3.32612922,7.50357294 7.38453548,7.50357294" id="Stroke-158"></path>
                                </g>
                                <g id="Group-3-Copy" transform="translate(34.781035, 15.459388) rotate(46.000000) translate(-34.781035, -15.459388) translate(27.281035, 7.959388)" stroke-linecap="round" stroke-linejoin="round">
                                    <path d="M14.7325499,14.6474489 C14.7325499,10.7020452 11.4427204,7.50333086 7.38431414,7.50333086" id="Stroke-156"></path>
                                    <path d="M0.0362997303,0.359454856 C0.0362997303,4.30485862 3.32612922,7.50357294 7.38453548,7.50357294" id="Stroke-158"></path>
                                </g>
                            </g>
                        </g>
                        <g id="Group-8" transform="translate(702.211710, 89.904426)">
                            <g id="Group-4">
                                <path d="M30.0681745,81.4421498 C24.9328016,78.4803534 21.4758662,72.9331178 21.4758662,66.5789412 C21.4758662,57.1099722 38.621104,36.3360818 38.621104,36.3360818 C38.621104,36.3360818 55.7669874,57.1099722 55.7669874,66.5789412 C55.7669874,76.0485558 48.0907186,83.7248246 38.621104,83.7248246" id="Fill-59" fill="#FDFDFD"></path>
                                <path d="M81.4658004,45.1943069 C86.6011732,42.2325105 90.0581087,36.6852749 90.0581087,30.3310983 C90.0581087,20.8621293 72.9128708,0.0882389268 72.9128708,0.0882389268 C72.9128708,0.0882389268 55.7669874,20.8621293 55.7669874,30.3310983 C55.7669874,39.8007129 63.4432562,47.4769817 72.9128708,47.4769817" id="Fill-60" fill="#FDFDFD"></path>
                                <path d="M121.329076,127.008446 L24.4961497,127.008446 C24.4961497,136.952542 32.557168,145.014206 42.5012639,145.014206 L103.323961,145.014206 C113.268057,145.014206 121.329076,136.952542 121.329076,127.008446 L121.329076,127.008446 Z" id="Stroke-143" stroke="#0F0F0F" stroke-width="4" fill="#FDFDFD" stroke-linecap="round" stroke-linejoin="round"></path>
                                <polygon id="Path-5" stroke="#0F0F0F" stroke-width="4" fill="#FDFDFD" points="42.8762554 145.014206 49.5659076 208.95639 102.005781 208.95639 108.514926 145.014206"></polygon>
                                <path d="M72.9126126,127.008446 L72.9126126,92.7173247" id="Stroke-154" stroke="#1D2B36" stroke-width="4" stroke-linecap="round" stroke-linejoin="round"></path>
                                <path d="M72.9126126,91.5314441 L72.9126126,57.2403229" id="Stroke-155" stroke="#1D2B36" stroke-width="4" stroke-linecap="round" stroke-linejoin="round"></path>
                                <path d="M72.9126126,118.435633 C72.9126126,108.966664 65.2363438,101.28975 55.7667292,101.28975" id="Stroke-156" stroke="#0F0F0F" stroke-width="4" stroke-linecap="round" stroke-linejoin="round"></path>
                                <path d="M90.0582378,80.4479474 C80.5886232,80.4479474 72.9123544,88.1242162 72.9123544,97.5938308" id="Stroke-157" stroke="#0F0F0F" stroke-width="4" stroke-linecap="round" stroke-linejoin="round"></path>
                                <path d="M38.6213622,84.1444475 C38.6213622,93.6134166 46.2976311,101.290331 55.7672457,101.290331" id="Stroke-158" stroke="#0F0F0F" stroke-width="4" stroke-linecap="round" stroke-linejoin="round"></path>
                                <path d="M90.0582378,80.3237431 C99.5272068,80.3237431 107.203476,72.6474743 107.203476,63.1778597" id="Stroke-160" stroke="#0F0F0F" stroke-width="4" stroke-linecap="round" stroke-linejoin="round"></path>
                                <path d="M38.6213622,76.8187004 L38.6213622,60.0304532" id="Stroke-163" stroke="#0F0F0F" stroke-width="4" stroke-linecap="round" stroke-linejoin="round"></path>
                                <path d="M38.6213622,73.9610962 L44.1873188,68.3951396" id="Stroke-164" stroke="#0F0F0F" stroke-width="4" stroke-linecap="round" stroke-linejoin="round"></path>
                                <path d="M115.776353,57.3591046 L115.776353,40.5708575" id="Stroke-163-Copy" stroke="#0F0F0F" stroke-width="4" stroke-linecap="round" stroke-linejoin="round"></path>
                                <path d="M115.776353,54.5015004 L121.342309,48.9355438" id="Stroke-164-Copy" stroke="#0F0F0F" stroke-width="4" stroke-linecap="round" stroke-linejoin="round"></path>
                                <path d="M81.4658004,45.1943069 C86.6011732,42.2325105 90.0581087,36.6852749 90.0581087,30.3310983 C90.0581087,20.8621293 72.9128708,0.0882389268 72.9128708,0.0882389268 C72.9128708,0.0882389268 55.7669874,20.8621293 55.7669874,30.3310983 C55.7669874,39.8007129 63.4432562,47.4769817 72.9128708,47.4769817" id="Stroke-165" stroke="#0F0F0F" stroke-width="4" stroke-linecap="round" stroke-linejoin="round"></path>
                                <path d="M72.9126126,47.4767235 L72.9126126,57.2400646" id="Stroke-166" stroke="#0F0F0F" stroke-width="4" stroke-linecap="round" stroke-linejoin="round"></path>
                                <path d="M72.9126126,40.5708575 L72.9126126,23.7826103" id="Stroke-167" stroke="#0F0F0F" stroke-width="4" stroke-linecap="round" stroke-linejoin="round"></path>
                                <path d="M72.9126126,37.7132533 L78.4785692,32.1472967" id="Stroke-168" stroke="#0F0F0F" stroke-width="4" stroke-linecap="round" stroke-linejoin="round"></path>
                                <path d="M72.9126126,32.9505581 L67.346656,27.3846015" id="Stroke-169" stroke="#0F0F0F" stroke-width="4" stroke-linecap="round" stroke-linejoin="round"></path>
                                <path d="M72.9126126,76.2264838 C72.9126126,66.7575147 65.2363438,59.0806003 55.7667292,59.0806003" id="Stroke-174" stroke="#0F0F0F" stroke-width="4" stroke-linecap="round" stroke-linejoin="round"></path>
                                <path d="M7.35026628,38.355617 C7.35026628,47.8252316 15.0265351,55.5015004 24.4961497,55.5015004" id="Stroke-159" stroke="#0F0F0F" stroke-width="4" stroke-linecap="round" stroke-linejoin="round"></path>
                                <path d="M13.7405293,31.414181 C13.7405293,27.8849436 10.8794391,25.0238534 7.35020173,25.0238534 C3.82096436,25.0238534 0.959874175,27.8849436 0.959874175,31.414181 C0.959874175,34.9434184 3.82096436,37.8045085 7.35020173,37.8045085 C10.8794391,37.8045085 13.7405293,34.9434184 13.7405293,31.414181 L13.7405293,31.414181 Z" id="Stroke-173" stroke="#0F0F0F" stroke-width="4" fill="#FDFDFD" stroke-linecap="round" stroke-linejoin="round"></path>
                                <path d="M113.582441,90.3903276 C113.582441,86.8610902 110.721351,84 107.192114,84 C103.662877,84 100.801786,86.8610902 100.801786,90.3903276 C100.801786,93.9195649 103.662877,96.7806551 107.192114,96.7806551 C110.721351,96.7806551 113.582441,93.9195649 113.582441,90.3903276 L113.582441,90.3903276 Z" id="Stroke-173-Copy" stroke="#0F0F0F" stroke-width="4" fill="#FDFDFD" stroke-linecap="round" stroke-linejoin="round"></path>
                                <path d="M72.9012509,97.869329 C72.9012509,107.338298 80.5775197,115.015212 90.0471343,115.015212" id="Stroke-88" stroke="#0F0F0F" stroke-width="4" stroke-linecap="round" stroke-linejoin="round"></path>
                                <path d="M90.0468761,115.01489 C99.5158451,115.01489 107.192114,107.338621 107.192114,97.8690062" id="Stroke-95" stroke="#0F0F0F" stroke-width="4" stroke-linecap="round" stroke-linejoin="round"></path>
                            </g>
                        </g>
                        <g id="Group-19" transform="translate(578.605821, 237.000000)" stroke="#0F0F0F">
                            <g id="Group-10-Copy" opacity="0.15" transform="translate(15.000000, 45.000000)" stroke-linecap="square" stroke-width="0.25">
                                <g id="Group-7" transform="translate(0.192964, 0.517145)">
                                    <g id="Group-5" transform="translate(0.541524, 0.112676)">
                                        <path d="M1.13017368,2.74709494 L114.5986,2.74709494" id="Line-2"></path>
                                        <path d="M1.13017368,4.49357382 L114.5986,4.49357382" id="Line-2-Copy"></path>
                                        <path d="M1.13017368,6.24005269 L114.5986,6.24005269" id="Line-2-Copy-2"></path>
                                        <path d="M1.13017368,7.98653156 L114.5986,7.98653156" id="Line-2-Copy-3"></path>
                                        <path d="M1.13017368,9.73301044 L114.5986,9.73301044" id="Line-2-Copy-4"></path>
                                        <path d="M1.13017368,11.4794893 L114.5986,11.4794893" id="Line-2-Copy-5"></path>
                                        <path d="M1.13017368,1.00061607 L114.5986,1.00061607" id="Line-2-Copy-6"></path>
                                    </g>
                                </g>
                            </g>
                            <g id="Group-10">
                                <g id="Group-7" transform="translate(0.192964, 39.517145)">
                                    <path d="M2.64085699,2.54225352 L2.64085699,21.6830986 L129.640857,21.6830986 L129.640857,6.54225352 C129.640857,4.33311452 127.849996,2.54225352 125.640857,2.54225352 L2.64085699,2.54225352 Z" id="Rectangle-3" stroke-width="4"></path>
                                    <g id="Group-5" transform="translate(13.541524, 6.112676)" stroke-linecap="round" stroke-width="0.25">
                                        <path d="M1.13017368,2.74709494 L114.5986,2.74709494" id="Line-2"></path>
                                        <path d="M1.13017368,4.49357382 L114.5986,4.49357382" id="Line-2-Copy"></path>
                                        <path d="M1.13017368,6.24005269 L114.5986,6.24005269" id="Line-2-Copy-2"></path>
                                        <path d="M1.13017368,7.98653156 L114.5986,7.98653156" id="Line-2-Copy-3"></path>
                                        <path d="M1.13017368,9.73301044 L114.5986,9.73301044" id="Line-2-Copy-4"></path>
                                        <path d="M1.13017368,11.4794893 L114.5986,11.4794893" id="Line-2-Copy-5"></path>
                                        <path d="M1.13017368,1.00061607 L114.5986,1.00061607" id="Line-2-Copy-6"></path>
                                    </g>
                                </g>
                                <g id="Group-6" transform="translate(0.192964, 20.179117)" stroke-width="4">
                                    <path d="M2.64085699,2.3220962 L2.64085699,21.4629413 L118.21382,21.4629413 L118.21382,6.3220962 C118.21382,4.1129572 116.422959,2.3220962 114.21382,2.3220962 L2.64085699,2.3220962 Z" id="Rectangle-3-Copy"></path>
                                </g>
                                <g id="Group-5-Copy" transform="translate(13.955050, 25.784092)" stroke-linecap="round" stroke-width="0.25">
                                    <path d="M1.0182696,2.74709494 L103.251626,2.74709494" id="Line-2"></path>
                                    <path d="M1.0182696,4.49357382 L103.251626,4.49357382" id="Line-2-Copy"></path>
                                    <path d="M1.0182696,6.24005269 L103.251626,6.24005269" id="Line-2-Copy-2"></path>
                                    <path d="M1.0182696,7.98653156 L103.251626,7.98653156" id="Line-2-Copy-3"></path>
                                    <path d="M1.0182696,9.73301044 L103.251626,9.73301044" id="Line-2-Copy-4"></path>
                                    <path d="M1.0182696,11.4794893 L103.251626,11.4794893" id="Line-2-Copy-5"></path>
                                    <path d="M1.0182696,1.00061607 L103.251626,1.00061607" id="Line-2-Copy-6"></path>
                                </g>
                                <g id="Group-6-Copy" transform="translate(0.192964, 0.081654)">
                                    <path d="M2.64085699,22.1191022 L108.448914,22.1191022 L108.448914,6.97825717 C108.448914,4.76911817 106.658053,2.97825717 104.448914,2.97825717 L6.64085699,2.97825717 C4.43171799,2.97825717 2.64085699,4.76911817 2.64085699,6.97825717 L2.64085699,22.1191022 Z" id="Rectangle-3-Copy" stroke-width="4"></path>
                                    <g id="Group-5-Copy" transform="translate(13.190345, 6.548680)" stroke-linecap="round" stroke-width="0.25">
                                        <path d="M0.918755179,2.74709494 L93.1609533,2.74709494" id="Line-2"></path>
                                        <path d="M0.918755179,4.49357382 L93.1609533,4.49357382" id="Line-2-Copy"></path>
                                        <path d="M0.918755179,6.24005269 L93.1609533,6.24005269" id="Line-2-Copy-2"></path>
                                        <path d="M0.918755179,7.98653156 L93.1609533,7.98653156" id="Line-2-Copy-3"></path>
                                        <path d="M0.918755179,9.73301044 L93.1609533,9.73301044" id="Line-2-Copy-4"></path>
                                        <path d="M0.918755179,11.4794893 L93.1609533,11.4794893" id="Line-2-Copy-5"></path>
                                        <path d="M0.918755179,1.00061607 L93.1609533,1.00061607" id="Line-2-Copy-6"></path>
                                    </g>
                                </g>
                            </g>
                        </g>
                        <g id="Group-21" transform="translate(0.252768, 158.693295)">
                            <g id="Group-15" transform="translate(90.719424, 71.785751) scale(-1, 1) translate(-90.719424, -71.785751) translate(0.719424, 0.285751)">
                                <path d="M127.041667,21.5833333 L126.998464,21.5833333 L126.998464,8.7105625 C126.998464,5.0056523 123.995041,2.00222917 120.290131,2.00222917 L102.873464,2.00222917 C99.1685541,2.00222917 96.165131,5.0056523 96.165131,8.7105625 L96.165131,21.5833333 L52.625,21.5833333 L52.625,8.7105625 C52.625,5.0056523 49.6215769,2.00222917 45.9166667,2.00222917 L28.5,2.00222917 C24.7950898,2.00222917 21.7916667,5.0056523 21.7916667,8.7105625 L21.7916667,133.767322 C21.7916667,137.035007 24.4406486,139.683989 27.7083333,139.683989 L117.152151,139.683989 L117.152151,139.698247 L145.273286,139.698247 C151.164324,139.698247 155.939953,134.922617 155.939953,129.03158 L155.939953,82.5632655 C155.939953,79.2725689 158.60759,76.6049322 161.898286,76.6049322 L172.555399,76.6049322 C175.47438,76.6049322 177.840681,74.2386307 177.840681,71.3196499 C177.840681,68.4006691 175.47438,66.0343676 172.555399,66.0343676 L155.855031,66.0343676 C150.401219,66.0343676 145.980031,70.4555557 145.980031,75.9093676 L145.980031,122.046626 C145.980031,126.648999 142.249071,130.379959 137.646698,130.379959 L127.041667,130.379959 L127.041667,21.5833333 Z" id="Combined-Shape" stroke="#0F0F0F" stroke-width="4" fill="#FDFDFD"></path>
                                <g id="Rectangle-7" transform="translate(34.791667, 97.583333)" stroke="#0F0F0F" stroke-width="4">
                                    <path d="M2.93012993,42.2848553 L76.3198701,42.2848553 L76.3198701,39.2204779 C76.3198701,18.9544608 59.8910171,2.52560787 39.625,2.52560787 C19.3589829,2.52560787 2.93012993,18.9544608 2.93012993,39.2204779 L2.93012993,42.2848553 Z"></path>
                                </g>
                                <g id="Group-17" transform="translate(42.416667, 28.458333)" stroke="#0F0F0F" stroke-linecap="round" stroke-linejoin="round" stroke-width="4">
                                    <g id="Group-23" transform="translate(33.585429, 29.677954) rotate(209.000000) translate(-33.585429, -29.677954) translate(6.085429, 11.177954)">
                                        <path d="M2.45767483,22.5775102 C2.06443087,29.3773313 4.76999294,32.7772418 10.5743611,32.7772418 C16.3787292,32.7772418 19.0537097,29.3773313 18.5993026,22.5775102" id="Path-6-Copy-5" transform="translate(10.534519, 27.677376) rotate(-210.000000) translate(-10.534519, -27.677376) "></path>
                                        <path d="M36.5678434,3.66993502 C36.1745994,10.4697561 38.8801615,13.8696666 44.6845296,13.8696666 C50.4888977,13.8696666 53.1638783,10.4697561 52.7094712,3.66993502" id="Path-6-Copy-6" transform="translate(44.644687, 8.769801) rotate(-210.000000) translate(-44.644687, -8.769801) "></path>
                                    </g>
                                </g>
                                <g id="Group-18" transform="translate(61.354167, 21.958333)" stroke="#0F0F0F" stroke-linecap="round" stroke-width="4">
                                    <path d="M1.06745709,0.616504741 L1.06745709,18.319193" id="Path-6"></path>
                                    <path d="M12.9866089,0.616504741 L12.9866089,18.319193" id="Path-6-Copy-3"></path>
                                    <path d="M24.9057608,0.616504741 L24.9057608,18.319193" id="Path-6-Copy-4"></path>
                                </g>
                                <g id="Group-18-Copy" transform="translate(134.351680, 60.395833) rotate(-270.000000) translate(-134.351680, -60.395833) translate(120.851680, 44.395833)" stroke="#0F0F0F" stroke-linecap="round" stroke-width="4">
                                    <path d="M1.06745709,0.275416009 L1.06745709,30.9162704" id="Path-6"></path>
                                    <path d="M12.9866089,5.13225547 L12.9866089,30.9162704" id="Path-6-Copy-3"></path>
                                    <path d="M24.9057608,11.1279524 L24.9057608,30.9162704" id="Path-6-Copy-4"></path>
                                </g>
                                <g id="Group-18-Copy-2" transform="translate(16.166667, 60.395833) rotate(-270.000000) translate(-16.166667, -60.395833) translate(2.666667, 44.895833)" stroke="#0F0F0F" stroke-linecap="round" stroke-width="4">
                                    <path d="M1.06745709,0.275416009 L1.06745709,30.9162704" id="Path-6"></path>
                                    <path d="M12.9866089,0.275416009 L12.9866089,25.4472422" id="Path-6-Copy-3"></path>
                                    <path d="M24.9057608,0.275416009 L24.9057608,20.4514626" id="Path-6-Copy-4"></path>
                                </g>
                                <g id="Group-16" transform="translate(57.250000, 69.833333)">
                                    <ellipse id="Oval-4" fill="#1D2B36" cx="16.7708333" cy="3.28166033" rx="9.01786787" ry="2.676673"></ellipse>
                                    <path d="M0.852796481,5.1876199 C0.852796481,9.13302367 4.68020602,12.331738 8.20103223,12.331738 C11.7218584,12.331738 14.5678682,10.4257014 16.4007295,7.24766475" id="Stroke-158" stroke="#0F0F0F" stroke-width="4" stroke-linecap="round" stroke-linejoin="round"></path>
                                    <path d="M16.9646173,5.1876199 C16.9646173,9.13302367 20.2544468,12.331738 24.3128531,12.331738 C28.3712593,12.331738 30.6817606,10.1997229 32.2221924,7.32822508" id="Stroke-158-Copy" stroke="#0F0F0F" stroke-width="4" stroke-linecap="round" stroke-linejoin="round" transform="translate(24.593405, 8.759679) scale(-1, 1) translate(-24.593405, -8.759679) "></path>
                                </g>
                                <circle id="Oval-5" stroke="#0F0F0F" stroke-width="4" cx="109.152862" cy="94.3958333" r="5.9375"></circle>
                                <circle id="Oval-5-Copy" stroke="#0F0F0F" stroke-width="4" cx="37.6041667" cy="94.3958333" r="5.9375"></circle>
                            </g>
                        </g>
                    </g>
                </g>
            </g>
            <g id="Group-13" transform="translate(356.500000, 0.000000)">
                <g id="Group-Copy-3" transform="translate(0.327523, 17.904426)">
                    <g id="Body">
                        <mask id="mask-2" fill="white">
                            <use xlink:href="#path-1"></use>
                        </mask>
                        <use fill="#FFE3C3" xlink:href="#path-1"></use>
                        <g id="Group-2" transform="translate(0.000000, 150.000000)">
                            <mask id="mask-4" fill="white">
                                <use xlink:href="#path-3"></use>
                            </mask>
                            <use id="Hoodie" fill="#0D97FF" xlink:href="#path-3"></use>
                            <path d="M64.5891538,47.3319226 L64.5891538,108.345959 C64.5891538,109.450529 63.6937233,110.345959 62.5891538,110.345959 C61.4845843,110.345959 60.5891538,109.450529 60.5891538,108.345959 L60.5891538,45.1502625 C61.8768657,45.9156105 63.2121265,46.6437196 64.5891413,47.3319164 Z M131.589154,46.8212989 L131.589154,72.1729796 C131.589154,73.2775491 130.693723,74.1729796 129.589154,74.1729796 C128.484584,74.1729796 127.589154,73.2775491 127.589154,72.1729796 L127.589154,48.7390531 C128.958518,48.1371784 130.293541,47.4971468 131.589173,46.8212889 Z" id="Straps" fill="#FDFDFD" mask="url(#mask-4)"></path>
                            <path d="M94.9794289,55 C83.7552731,54.9999467 72.274849,51.4467369 63.9350088,46.9524256 C51.2660367,40.1251601 41.6355681,29.9419641 41.6355681,18.0769231 C41.6355681,8.70605458 47.2320129,3.07445977 55.8861936,-0.275646301 C41.5491788,2.57117818 31.6335469,8.24288473 31.6335469,19.3076923 C31.6335469,39.0199574 63.1041981,54.9999155 94.9794289,55 Z M134.073169,-0.275646301 C148.410184,2.57117818 158.325816,8.24288473 158.325816,19.3076923 C158.325816,39.0179985 126.861419,54.9967395 94.989437,54.9999995 C121.828475,54.9959946 148.323795,38.466505 148.323795,18.0769231 C148.323795,8.70605458 142.72735,3.07445977 134.073169,-0.275646301 Z" id="Shadow" fill-opacity="0.16" fill="#000000" mask="url(#mask-4)"></path>
                            <path d="M154,85.9649803 L154,154.195273" id="Path-8" stroke="#0A7ED6" stroke-width="4" stroke-linecap="round"></path>
                            <path d="M37,85.9649803 L37,154.195273" id="Path-8-Copy" stroke="#0A7ED6" stroke-width="4" stroke-linecap="round"></path>
                        </g>
                        <g id="Group-39" transform="translate(76.089154, 236.964980)" fill="#FFFFFF" fill-rule="nonzero">
                            <path d="M42.3934726,16.0170795 C41.5811811,13.189513 39.8326226,10.721668 37.4342809,9.01787607 C36.8156557,8.57706672 36.1586076,8.19283638 35.4710897,7.869836 C35.3564103,7.81222043 35.2646407,7.71744204 35.2107535,7.60096417 C34.8693173,6.92443026 34.4739799,6.27647658 34.028571,5.66337981 C32.2838418,3.2939589 29.7882464,1.58510037 26.9482793,0.815151126 C25.9070637,0.54730101 24.8352961,0.41673762 23.7602275,0.426780694 C21.9147634,0.443550603 20.0932215,0.84623785 18.4126654,1.60896322 C17.7126116,1.93224964 17.0415357,2.3149057 16.4067961,2.75273548 C16.3164098,2.81090589 16.2112684,2.84200406 16.1037818,2.84235942 C15.7708929,2.81675258 15.4380039,2.80821697 15.126454,2.80821697 C14.6871392,2.81118341 14.248318,2.83825355 13.8119695,2.8893053 C12.3484613,3.04898529 10.9226775,3.45593978 9.59537622,4.09282686 C8.28670523,4.71823036 7.09448814,5.56259719 6.07016768,6.58949392 C3.47677161,9.27055155 2.16555658,12.939776 2.47240643,16.6572505 C2.48049974,16.783739 2.44757182,16.9094638 2.37851468,17.0157463 C1.95975991,17.6494381 1.59295479,18.3159672 1.28168829,19.0088121 C-1.21622475,24.5510468 0.592100405,31.0864918 5.58363769,34.5564328 C6.20334446,34.9991142 6.86185105,35.3847905 7.55109669,35.7087407 C7.66376758,35.7670651 7.75494813,35.8597404 7.81143291,35.9733447 C8.14752742,36.6519295 8.54163161,37.3002023 8.98934763,37.9109291 C9.8588307,39.0955257 10.9239826,40.1231519 12.1389892,40.9496076 C13.3367602,41.7719417 14.6660463,42.3839041 16.0696394,42.7591578 C17.1135739,43.028417 18.1881611,43.1604091 19.2662268,43.151796 C21.109331,43.1343882 22.9282449,42.730185 24.6052532,41.9653457 C25.3053494,41.6437997 25.9764521,41.2625562 26.6111225,40.8258412 C26.7022451,40.7698116 26.8071668,40.7402562 26.9141368,40.7404851 C27.2171511,40.7404851 27.5415044,40.7703597 27.9085358,40.7703597 C34.4833501,40.7728931 39.9678536,35.7462038 40.5369766,29.1960673 C40.5989706,28.4390874 40.5989706,27.6783061 40.5369766,26.9213262 C40.5256127,26.7932046 40.5587735,26.6650831 40.6308683,26.5585626 C41.0506268,25.927711 41.4161229,25.2623938 41.7234269,24.5697646 C42.4675721,22.8810455 42.8485262,21.0547923 42.8415923,19.2093991 C42.8353805,18.1300605 42.684668,17.0564136 42.3934726,16.0170795 Z M20.520962,2.84662723 C21.5718563,2.52174552 22.6645658,2.352088 23.7644953,2.34302601 C24.676922,2.3336442 25.5866299,2.44412923 26.4702849,2.67164715 C28.4260461,3.19729551 30.1984388,4.25334616 31.5916532,5.72312911 C31.7290358,5.86831062 31.7675543,6.08099961 31.6898128,6.26514059 C31.6102495,6.44761253 31.4321589,6.56744916 31.2331574,6.57242269 C31.2077797,6.57726693 31.1817146,6.57726693 31.1563369,6.57242269 C30.682354,6.502976 30.2051804,6.45739523 29.7266216,6.43585287 C29.4321429,6.43585287 29.1120574,6.41024603 28.7407582,6.43585287 C27.6988913,6.44710247 26.6597221,6.54416773 25.6337947,6.72606374 L25.5655098,6.72606374 C25.4512193,6.7230361 25.3407592,6.68422578 25.2496921,6.61510076 C24.1919884,5.72854529 23.034749,4.96803277 21.8013041,4.34889528 C21.3744754,4.13632192 20.9371791,3.94544989 20.4910873,3.77700915 C20.2907482,3.70378612 20.1623076,3.50765395 20.1752696,3.29474696 C20.1828291,3.08682315 20.3217673,2.9067181 20.520962,2.84662723 Z M13.9143968,8.02774486 C14.6598808,6.87291185 15.5814958,5.84185514 16.6457933,4.97199509 C16.7373783,4.89731333 16.8519724,4.85660229 16.9701466,4.8567643 L17.0469671,4.8567643 C18.4049119,5.06092964 19.7234091,5.47260014 20.9562783,6.07735709 C21.3105063,6.24806937 21.6818055,6.4529241 22.1000506,6.7004569 C22.267533,6.80408263 22.3592387,6.99583102 22.3347799,7.1912547 C22.317908,7.39231895 22.1786838,7.5621046 21.9848198,7.61803539 C21.4897542,7.77167644 21.0202954,7.92531749 20.5593723,8.07895854 L20.3715888,8.14297565 C19.3814575,8.46306117 18.664466,8.68925494 17.9432066,8.89410967 C17.2219472,9.0989644 16.5177591,9.25687326 15.7580894,9.42758554 L15.4849498,9.47026361 C14.9386705,9.5897622 14.3923912,9.7135286 13.8205051,9.85436623 C13.7823183,9.86022641 13.743461,9.86022641 13.7052743,9.85436623 C13.5299785,9.85455519 13.3676526,9.76202942 13.2784936,9.61110124 C13.1933791,9.45857243 13.1933791,9.27283225 13.2784936,9.12030344 C13.4577415,8.77034327 13.6796675,8.39050845 13.9143968,8.02774486 Z M6.46707373,26.195799 C6.25095813,27.5343196 6.18510975,28.8928003 6.27075461,30.2459478 C6.30062926,30.6727285 6.35611075,31.1635263 6.43293127,31.6628597 C6.46532482,31.8139657 6.42592735,31.9715556 6.3262361,32.0896404 C6.22901764,32.1976419 6.09166664,32.260916 5.94640128,32.2646205 C5.8195436,32.2675867 5.69671241,32.2199896 5.60497672,32.1323185 C2.51952016,29.3652343 1.32774815,25.0548533 2.55349476,21.0957697 C2.61502978,20.8919792 2.79805739,20.7488927 3.01067479,20.7383576 C3.22329219,20.7278225 3.4195683,20.8521146 3.5009479,21.0488238 C3.67592799,21.4756045 3.87651491,21.9322599 4.08990526,22.3547728 C4.71146826,23.5616771 5.46585366,24.6954024 6.33903952,25.7348759 C6.44753759,25.8621518 6.4943839,26.0307985 6.46707373,26.195799 Z M7.84557537,20.8610403 C7.6791309,21.3902484 7.51268643,21.9279921 7.34197415,22.4913426 C7.28285719,22.7045284 7.0894732,22.8526152 6.86824758,22.8541062 C6.69424313,22.8578304 6.53150259,22.7683231 6.44146689,22.6193768 C6.2070477,22.2553687 5.99193758,21.8792822 5.79702804,21.4926758 C5.14923992,20.2269947 4.70970863,18.8651682 4.49534692,17.4595982 C4.34066989,16.5031194 4.30626024,15.5310468 4.39291955,14.5660251 C4.39291955,14.369706 4.43132982,14.1904581 4.46120446,14.0069424 C5.04562398,9.60544378 8.30494902,6.03124922 12.6340548,5.04454781 C12.6737512,5.03988472 12.713857,5.03988472 12.7535534,5.04454781 C12.9373134,5.04728308 13.1032323,5.15513032 13.1803341,5.32195526 C13.2692328,5.49505517 13.2474683,5.70432872 13.1248526,5.85543113 C12.8431773,6.21392691 12.5657699,6.60229734 12.2712912,7.01200681 C11.5050676,8.20061211 10.8819187,9.47556038 10.4147952,10.810355 C10.3952168,10.8696701 10.3496463,10.916812 10.2910287,10.9383892 C9.08639319,11.3852932 7.93202207,11.9574722 6.84690855,12.645512 L6.6975353,12.7479393 L6.56523329,12.8247599 L6.47987715,12.8845092 L6.44146689,12.910116 L6.37744978,12.9527941 L6.34330733,12.9784009 L6.26221899,13.0296146 C6.22848725,13.0542404 6.20555614,13.0909302 6.19820189,13.132042 C6.19570139,13.1789545 6.19570139,13.225967 6.19820189,13.2728796 L6.19820189,13.417985 C6.19820189,13.514722 6.18824367,13.6114589 6.16832724,13.7081959 C6.15125601,13.904515 6.13702999,14.1022567 6.12564917,14.3014211 C6.11426835,14.5005854 6.11426835,14.7040175 6.12564917,14.9117175 C6.12564917,14.967199 6.12564917,15.0226804 6.12564917,15.0738941 C6.12521722,15.1539756 6.16965906,15.2275574 6.2407392,15.2644471 C6.31181934,15.3013368 6.39757008,15.2953233 6.46280592,15.2488742 C6.71887434,15.0696263 6.97921056,14.8946462 7.24381459,14.7153983 L7.35477757,14.5916319 C7.44440152,14.523347 7.53402546,14.4593299 7.62791722,14.3995806 L7.77729046,14.3014211 C8.06323352,14.1093698 8.38331905,13.9173184 8.73754702,13.7209993 C8.95389333,13.613543 9.21554656,13.6662249 9.37345026,13.8490335 C9.46678042,13.9702011 9.50262501,14.1260472 9.47160982,14.2758142 C9.35211122,14.7708798 9.25395166,15.2488742 9.1557921,15.7097974 L9.10457842,15.9445267 C8.94666956,16.7468744 8.76742167,17.6004358 8.55403132,18.4198548 C8.34064098,19.2392737 8.12725063,19.9306584 7.88398563,20.7073993 L7.84557537,20.8610403 Z M9.74474946,34.5436294 L9.23261263,34.3558459 L9.16859552,34.3174356 L9.12591745,34.2235439 C8.59629365,32.9060963 8.27798025,31.5132952 8.18273212,30.0965746 C8.15022568,29.6706182 8.14025356,29.2432415 8.15285747,28.8162325 C8.15753302,28.5444849 8.38041351,28.3273193 8.65219088,28.3297025 C8.77675245,28.328046 8.89728326,28.3738172 8.98934763,28.4577367 C9.41612833,28.8589106 9.84290902,29.2387454 10.2696897,29.601509 L10.3678493,29.6911329 C10.948271,30.2075375 11.5585674,30.7623525 12.1347213,31.3214352 C12.7108753,31.8805179 13.2614224,32.4865465 13.8802544,33.16086 C14.0424311,33.33584 14.2088755,33.5108201 14.3710522,33.690068 L14.4179981,33.7412817 C14.4343257,33.7484076 14.4528842,33.7484076 14.4692117,33.7412817 C15.1282562,33.7279232 15.7856128,33.6694598 16.4366707,33.5663016 C16.5167426,33.554666 16.5833458,33.498744 16.6086613,33.4218934 C16.6339768,33.3450428 16.6136493,33.2604848 16.5561693,33.203538 C16.1293886,32.7767573 15.7367504,32.3499766 15.2758273,31.8463754 L15.0752403,31.6628597 C14.5716391,31.1165804 14.0253598,30.5318909 13.4662771,29.9813438 C12.9071944,29.4307967 12.3694507,28.9442667 11.8231714,28.4534689 L11.5201571,28.1803293 C10.8671827,27.5956397 10.2398151,27.0493604 9.61671525,26.4347962 C9.33077219,26.1701922 9.04909693,25.8885169 8.76315386,25.6068417 C8.62914213,25.4641768 8.57476348,25.2642553 8.61804843,25.0733658 C8.70767237,24.6892632 8.80156413,24.3094284 8.90399149,23.942397 C9.12591745,23.1144424 9.36918245,22.3419694 9.57830499,21.6804593 L9.71487481,21.2280717 C9.95813981,20.4385275 10.1928692,19.6916612 10.3849205,18.923456 C10.5769718,18.1552507 10.7732909,17.2760825 10.9653422,16.3627718 L11.0421628,15.9872048 C11.1830004,15.3342303 11.3409093,14.5916319 11.5329606,13.8234267 C11.6140489,13.4862699 11.7122085,13.1064351 11.8317071,12.7009935 C11.8892158,12.5096762 12.0379218,12.3593712 12.2286131,12.2998196 C12.561502,12.1973922 12.873052,12.1120361 13.158995,12.0309478 L13.3425107,11.9797341 C14.2472858,11.7450047 15.0965794,11.5529534 15.877588,11.3779733 L16.1934058,11.3054206 C16.9701466,11.1261727 17.6999416,10.9554604 18.4297366,10.7548735 C19.1595316,10.5542866 19.9661471,10.2896825 20.7044777,10.0549532 L20.9434749,9.97813263 C21.7159479,9.72206422 22.5439025,9.44892457 23.4230707,9.18858835 C23.9394754,9.04348291 24.3577204,8.93251993 24.7460909,8.84289599 C25.7068042,8.6119505 26.6843723,8.45782297 27.6695386,8.38197284 C28.0280344,8.35209819 28.3865302,8.33502696 28.7364904,8.33502696 C29.0224334,8.33502696 29.3083765,8.33502696 29.5900517,8.33502696 C31.0038399,8.40888438 32.3968901,8.70708645 33.7170211,9.218463 C33.7751267,9.23764582 33.8219155,9.28131537 33.8450553,9.33796159 C34.3804429,10.6540324 34.7017466,12.0473091 34.7967762,13.4649309 C34.8223831,13.8661048 34.8309187,14.2886176 34.8223831,14.745273 C34.8250755,14.948727 34.7040488,15.133466 34.5164515,15.2122569 C34.3288541,15.2910478 34.1122116,15.2481298 33.9688217,15.1037688 C33.542041,14.7025949 33.1152603,14.3227601 32.6884796,13.9599965 L32.4750892,13.7679452 C31.8946675,13.2472728 31.3441204,12.7479393 30.823448,12.2443381 C30.3027755,11.7407369 29.7735674,11.1560474 29.2272882,10.5713578 L29.0651115,10.3963777 L28.7151513,10.0122751 L28.5700459,9.85436623 C28.5354728,9.82204677 28.4892823,9.80511027 28.4420117,9.80742036 C27.7986387,9.82257315 27.1570163,9.88103208 26.5214986,9.98240044 C26.4425101,9.99556039 26.3771268,10.0510296 26.3512698,10.1268173 C26.3254128,10.202605 26.3432586,10.28647 26.3977322,10.345164 C26.7690314,10.7335345 27.1275271,11.1219049 27.528701,11.5444178 L27.8573221,11.9071814 C28.3779946,12.4662641 28.9157383,13.0466858 29.4790888,13.6143042 C30.0424393,14.1819225 30.7252884,14.7922189 31.3483882,15.3513016 L31.6428669,15.60737 L31.8733285,15.8207603 C32.347055,16.247541 32.8378528,16.6743217 33.3371862,17.1693873 C33.6231293,17.442527 33.9474826,17.7668803 34.2889072,18.1296439 C34.3363584,18.1832059 34.3567857,18.2554874 34.3443887,18.325963 C34.2462291,18.7826184 34.1352661,19.2264703 34.0157676,19.653251 C33.7810382,20.5281514 33.5377732,21.3134279 33.3030438,22.0730975 L33.2475623,22.2523454 C32.9914939,23.0760321 32.7482289,23.8570408 32.5348385,24.6721919 C32.3214482,25.4873431 32.1592715,26.2726195 31.9586846,27.2328761 L31.8562572,27.7236739 C31.7154196,28.3809162 31.5660464,29.0637653 31.3910663,29.7807569 C31.2971745,30.1733951 31.1776759,30.6129792 31.0325705,31.0995092 C31.0090473,31.1666657 30.9552937,31.2188383 30.8874651,31.2403468 C30.4137385,31.3897201 29.9698866,31.5177543 29.607123,31.6201816 C28.7023479,31.8591788 27.8487865,32.0469623 27.0805813,32.2262102 L26.9568149,32.2518171 C26.158735,32.4353328 25.3307804,32.6231163 24.5156293,32.8450422 C23.7004782,33.0669682 22.8810592,33.3401078 22.0744437,33.5876406 L22.0488369,33.5876406 L21.647663,33.7199427 C20.9690817,33.9418686 20.2691614,34.1723302 19.5137596,34.3899884 L19.4625459,34.3899884 C19.1637994,34.4796123 18.707144,34.6076465 18.1822038,34.7271451 C17.2222778,34.9547816 16.2463874,35.1088696 15.2630238,35.1880683 C14.9087959,35.2179429 14.5460323,35.2350141 14.1960721,35.2350141 C13.910129,35.2350141 13.6156504,35.2350141 13.3425107,35.2350141 L12.8004992,35.1966039 L12.3225049,35.1411224 L12.1773994,35.1411224 L11.8487783,35.0771053 C11.8218101,35.0796789 11.7946581,35.0796789 11.76769,35.0771053 C11.6396557,35.0771053 11.5116215,35.0301594 11.3921229,35.0002847 C11.1531258,34.9576067 10.9141286,34.9021252 10.683667,34.8423759 C10.4532054,34.7826266 10.0819062,34.6503246 9.74048165,34.5436294 L9.74474946,34.5436294 Z M22.5012244,40.7276817 C21.4506007,41.0542488 20.3578513,41.2253504 19.2576911,41.2355507 C18.3439323,41.2436002 17.4329863,41.133139 16.5476337,40.9069296 C14.591484,40.3798742 12.8190943,39.3223483 11.4262654,37.8511798 C11.2885832,37.7078793 11.2499321,37.4961389 11.3281058,37.3134361 C11.4072278,37.131197 11.5860981,37.0125074 11.7847612,37.0104218 L11.8658495,37.0104218 C12.3310405,37.0787067 12.8133027,37.1299204 13.2870292,37.1555273 C13.6156504,37.1555273 13.9528071,37.1811341 14.2899639,37.1555273 C15.3234166,37.1419663 16.3540058,37.0434751 17.3713205,36.8610486 L17.4566766,36.8610486 C17.5674878,36.8610486 17.6753098,36.8969892 17.7639587,36.9634759 C18.8262676,37.8342031 19.9829746,38.5829132 21.2123467,39.195539 C21.6391274,39.3918581 22.0659081,39.5839094 22.5225635,39.7588895 C22.7225623,39.8363151 22.8523696,40.0310261 22.8469168,40.2454195 C22.8494696,40.4657877 22.7072524,40.6617699 22.4969566,40.7276817 L22.5012244,40.7276817 Z M29.1035218,35.5508318 C28.3604383,36.7049494 27.4401048,37.7347436 26.3763931,38.6023138 C26.2891645,38.6792423 26.1768803,38.7217282 26.0605754,38.7218124 L25.9794871,38.7218124 C24.6190775,38.5248616 23.2982919,38.1143667 22.0659081,37.5054874 C21.6647343,37.3091683 21.2806316,37.0787067 20.9221358,36.8823876 C20.755115,36.7772351 20.6641394,36.5848419 20.6888447,36.3890291 C20.7135501,36.1932163 20.8494619,36.0294491 21.0373666,35.9690769 C21.4641473,35.8367749 21.890928,35.7044729 22.3177087,35.5422962 L22.6719367,35.4313332 C23.5254981,35.1539258 24.2979711,34.8978574 25.0917832,34.6716636 C25.7917036,34.4796123 26.5086951,34.3131678 27.264097,34.1467234 L27.5671113,34.0741706 C28.1048549,33.954672 28.6511342,33.8309056 29.2187525,33.6943358 C29.2584761,33.6901628 29.2985276,33.6901628 29.3382511,33.6943358 C29.5140096,33.6923792 29.6771581,33.7853738 29.7650318,33.9376008 C29.8485677,34.0890203 29.8485677,34.2727113 29.7650318,34.4241308 C29.5559093,34.816769 29.3297155,35.1966039 29.099254,35.5508318 L29.1035218,35.5508318 Z M38.6249991,29.0168194 C38.6249991,29.2088707 38.5865888,29.3966542 38.5524463,29.5801699 C37.9709711,33.9815496 34.7126097,37.5565543 30.3838638,38.5425645 C30.3455823,38.5470113 30.3069146,38.5470113 30.2686331,38.5425645 C30.0762943,38.5414112 29.9014099,38.4308013 29.8179416,38.2575138 C29.7344733,38.0842264 29.757,37.8785284 29.8759948,37.7274134 C30.1662057,37.3646498 30.4436131,36.9762794 30.7082172,36.5708377 C31.4408618,35.4259204 32.0448591,34.2036132 32.5092317,32.9261306 C32.5699384,32.7693573 32.6938829,32.6454127 32.8506563,32.584706 C34.018972,32.1426781 35.137592,31.5790766 36.1880813,30.9031901 L36.3374545,30.8050305 L36.4953634,30.7026032 L36.5807195,30.6428539 L36.6191298,30.617247 L36.7172893,30.5489621 L36.8111811,30.484945 C36.8231897,30.4772733 36.8333841,30.467079 36.8410557,30.4550704 C36.851618,30.4200224 36.8601676,30.3843992 36.8666626,30.3483752 C36.9489902,29.7259 36.9874952,29.098411 36.9818934,28.4705401 C36.9823253,28.3904586 36.9378835,28.3168769 36.8668033,28.2799872 C36.7957232,28.2430975 36.7099725,28.2491109 36.6447366,28.29556 C36.2179559,28.5815031 35.8253177,28.8546427 35.3643945,29.1491214 C35.0357734,29.3710474 34.6602064,29.601509 34.2504969,29.8277027 C34.1791613,29.8691131 34.0982496,29.8911799 34.0157676,29.8917198 C33.860077,29.8951071 33.7117201,29.8256634 33.6145937,29.7039363 C33.5212635,29.5827687 33.4854189,29.4269227 33.5164341,29.2771556 C33.6231293,28.8503749 33.7084855,28.4235942 33.7938416,27.9968136 L33.8834655,27.6041753 C34.028571,26.8615769 34.2120867,25.9824087 34.4340126,25.1203117 C34.6345996,24.3563742 34.8607933,23.5839012 35.1083261,22.837035 L35.1510042,22.7004651 C35.3174487,22.1712571 35.4796253,21.6292456 35.6460698,21.0616273 C35.7088836,20.8479488 35.9056168,20.7017046 36.128332,20.7031315 C36.2996817,20.7056848 36.458998,20.7917156 36.5551127,20.9335931 C36.8111811,21.3603738 37.0203036,21.7146017 37.1952837,22.0645619 C37.851692,23.3348463 38.2998277,24.7023087 38.5225717,26.1147107 C38.6801085,27.0737764 38.7145293,28.0490337 38.6249991,29.0168194 Z M40.4686917,22.4956104 C40.407429,22.6995613 40.2235618,22.8422164 40.0107849,22.8508815 C39.7980081,22.8595466 39.6031499,22.7323147 39.5255063,22.5340207 C39.3505262,22.10724 39.1499393,21.6548524 38.936549,21.2536786 C38.3103944,20.0461674 37.5532825,18.9112153 36.6788791,17.8693077 C36.5729382,17.7407794 36.5278038,17.5726928 36.5551127,17.4083845 C36.7720882,16.069964 36.839365,14.7115457 36.7556996,13.3582357 C36.7130215,12.8546345 36.6618079,12.3723723 36.5892551,11.937056 C36.565628,11.7955439 36.6045533,11.6507416 36.6959503,11.54015 C36.7934133,11.4270743 36.9350408,11.3617078 37.0843207,11.3609021 C37.2090354,11.3583701 37.3298798,11.4042604 37.4214775,11.4889363 C40.4871114,14.255603 41.6749846,18.5462544 40.4686917,22.4956104 Z" id="Shape" opacity="0.48"></path>
                            <path d="M42.4148116,16.0426863 C41.5969692,13.2120467 39.8405939,10.74379 37.4342809,9.04348291 C36.8156432,8.60269297 36.1585968,8.21846368 35.4710897,7.89544285 C35.3564103,7.83782727 35.2646407,7.74304888 35.2107535,7.62657101 C34.8693173,6.9500371 34.4739799,6.30208342 34.028571,5.68898666 C32.2838418,3.31956575 29.7882464,1.61070721 26.9482793,0.840757968 C25.9070637,0.572907851 24.8352961,0.442344461 23.7602275,0.452387536 C21.9147634,0.469157444 20.0932215,0.871844692 18.4126654,1.63457006 C17.7126116,1.95785648 17.0415357,2.34051254 16.4067961,2.77834232 C16.3164098,2.83651273 16.2112684,2.8676109 16.1037818,2.86796627 C15.7708929,2.84235942 15.4380039,2.83382381 15.126454,2.83382381 C14.6871395,2.83679882 14.2483188,2.86386893 13.8119695,2.91491214 C12.3499191,3.07506542 10.9256168,3.48200894 9.59964402,4.1184337 C8.29101554,4.74390957 7.0988101,5.58826815 6.07443549,6.61510076 C3.47948577,9.29542087 2.16668225,12.9647378 2.47240643,16.6828573 C2.48049974,16.8093459 2.44757182,16.9350707 2.37851468,17.0413531 C1.95975991,17.6750449 1.59295479,18.3415741 1.28168829,19.034419 C-1.21622475,24.5766537 0.592100405,31.1120987 5.58363769,34.5820397 C6.20335717,35.0247014 6.86186194,35.4103767 7.55109669,35.7343475 C7.66376758,35.792672 7.75494813,35.8853473 7.81143291,35.9989516 C8.14752742,36.6775363 8.54163161,37.3258092 8.98934763,37.9365359 C9.8588307,39.1211326 10.9239826,40.1487588 12.1389892,40.9752145 C13.3367602,41.7975485 14.6660463,42.4095109 16.0696394,42.7847646 C17.1135739,43.0540239 18.1881611,43.1860159 19.2662268,43.1774029 C21.109331,43.159995 22.9282449,42.7557919 24.6052532,41.9909525 C25.3053397,41.6693877 25.9764409,41.2881451 26.6111225,40.8514481 C26.7022451,40.7954185 26.8071668,40.7658631 26.9141368,40.7660919 C27.2171511,40.7660919 27.5415044,40.7959666 27.9085358,40.7959666 C34.4833501,40.7985 39.9678536,35.7718107 40.5369766,29.2216741 C40.5989706,28.4646943 40.5989706,27.7039129 40.5369766,26.946933 C40.5256127,26.8188115 40.5587735,26.69069 40.6308683,26.5841695 C41.0506093,25.9533072 41.4161045,25.2879915 41.7234269,24.5953714 C42.4675721,22.9066523 42.8485262,21.0803992 42.8415923,19.2350059 C42.8423313,18.1566285 42.6987979,17.0829989 42.4148116,16.0426863 Z M20.520962,2.87223407 C21.5718563,2.54735236 22.6645658,2.37769485 23.7644953,2.36863285 C24.676922,2.35925105 25.5866299,2.46973607 26.4702849,2.69725399 C28.4260461,3.22290235 30.1984388,4.278953 31.5916532,5.74873595 C31.7290358,5.89391746 31.7675543,6.10660645 31.6898128,6.29074744 C31.6102495,6.47321937 31.4321589,6.593056 31.2331574,6.59802954 C31.2077703,6.60277318 31.1817241,6.60277318 31.1563369,6.59802954 C30.6823575,6.52855424 30.2051824,6.48297333 29.7266216,6.46145971 C29.4321429,6.46145971 29.1120574,6.43585287 28.7407582,6.46145971 C27.6988903,6.47268998 26.6597195,6.56975538 25.6337947,6.75167059 L25.5655098,6.75167059 C25.4512193,6.74864294 25.3407592,6.70983262 25.2496921,6.6407076 C24.1911355,5.76933819 23.0354298,5.02321347 21.8055719,4.41718019 C21.3787402,4.20461342 20.9414441,4.01374154 20.4953552,3.84529406 C20.295016,3.77207104 20.1665754,3.57593886 20.1795374,3.36303187 C20.1675439,3.14055537 20.3082016,2.93836002 20.520962,2.87223407 Z M13.9143968,8.0533517 C14.6599368,6.89856132 15.5815444,5.86751278 16.6457933,4.99760193 C16.7373783,4.92292017 16.8519724,4.88220913 16.9701466,4.88237114 L17.0469671,4.88237114 C18.4049119,5.08653648 19.7234091,5.49820698 20.9562783,6.10296393 C21.3105063,6.27367621 21.6818055,6.47853094 22.1000506,6.72606374 C22.267533,6.82968947 22.3592387,7.02143786 22.3347799,7.21686154 C22.317908,7.41792579 22.1786838,7.58771144 21.9848198,7.64364224 C21.4897542,7.79728329 21.0202954,7.95092434 20.5593723,8.10456539 L20.3715888,8.16858249 C19.3814575,8.48866801 18.664466,8.71486178 17.9432066,8.91971651 C17.2219472,9.12457125 16.5177591,9.2824801 15.7580894,9.45319238 L15.4849498,9.51720949 C14.9386705,9.63670808 14.3923912,9.76047448 13.8205051,9.90131211 C13.7823235,9.90723968 13.7434559,9.90723968 13.7052743,9.90131211 C13.5299785,9.90150106 13.3676526,9.80897529 13.2784936,9.65804711 C13.1933791,9.50551831 13.1933791,9.31977812 13.2784936,9.16724932 C13.4577415,8.79595011 13.6796675,8.41611529 13.9143968,8.0533517 Z M6.46707373,26.2214059 C6.25095813,27.5599264 6.18510975,28.9184071 6.27075461,30.2715547 C6.30062926,30.6983353 6.35611075,31.1891331 6.43293127,31.6884666 C6.46532482,31.8395726 6.42592735,31.9971624 6.3262361,32.1152473 C6.22901764,32.2232487 6.09166664,32.2865228 5.94640128,32.2902273 C5.8195436,32.2931936 5.69671241,32.2455965 5.60497672,32.1579253 C2.51952016,29.3908411 1.32774815,25.0804601 2.55349476,21.1213766 C2.61502978,20.917586 2.79805739,20.7744995 3.01067479,20.7639644 C3.22329219,20.7534293 3.4195683,20.8777215 3.5009479,21.0744307 C3.67592799,21.5012114 3.87651491,21.9578667 4.08990526,22.3803796 C4.71146826,23.5872839 5.46585366,24.7210092 6.33903952,25.7604827 C6.44753759,25.8877587 6.4943839,26.0564054 6.46707373,26.2214059 Z M7.84557537,20.8866472 C7.6791309,21.4158552 7.51268643,21.9535989 7.34197415,22.5169494 C7.28285719,22.7301352 7.0894732,22.8782221 6.86824758,22.879713 C6.69424313,22.8834372 6.53150259,22.7939299 6.44146689,22.6449836 C6.20704096,22.2809797 5.99193064,21.9048927 5.79702804,21.5182826 C5.15663512,20.2513208 4.72432649,18.8895486 4.51668595,17.485205 C4.35346403,16.5297986 4.31045173,15.5577207 4.38865175,14.5916319 C4.38865175,14.3953128 4.42706201,14.2160649 4.45693666,14.0325492 C5.04135618,9.63105062 8.30068122,6.05685606 12.629787,5.07015465 C12.6694833,5.06549156 12.7095892,5.06549156 12.7492855,5.07015465 C12.9330456,5.07288992 13.0989645,5.18073716 13.1760662,5.3475621 C13.264965,5.52066201 13.2432005,5.72993557 13.1205848,5.88103797 C12.8389095,6.23953375 12.561502,6.62790418 12.2670234,7.03761365 C11.5007998,8.22621895 10.8776509,9.50116722 10.4105273,10.8359618 C10.390949,10.8952769 10.3453785,10.9424188 10.2867609,10.963996 C9.08212538,11.4109001 7.92775426,11.9830791 6.84264074,12.6711188 C6.65058943,12.7948852 6.46707373,12.9229194 6.27929022,13.0509536 C6.17454233,13.1178287 6.1179712,13.2392902 6.13418479,13.3625035 C6.13418479,13.4948056 6.11284575,13.6271076 6.10004233,13.7594096 C6.08723891,13.8917116 6.07016768,14.1563156 6.06163207,14.3526348 C6.05309645,14.5489539 6.06163207,14.7794154 6.06163207,14.9586633 L6.06163207,15.1251078 C6.06120011,15.2051893 6.10564196,15.2787711 6.1767221,15.3156608 C6.24780224,15.3525505 6.33355298,15.346537 6.39878882,15.3000879 C6.65485723,15.12084 6.91519346,14.9458599 7.17979749,14.766612 L7.33343854,14.6599169 C7.42306248,14.5916319 7.51268643,14.5276148 7.60657818,14.4678655 L7.75595142,14.369706 C8.04189449,14.1776547 8.36198001,13.9856034 8.71620799,13.7892842 C8.9325543,13.6818279 9.19420752,13.7345098 9.35211122,13.9173184 C9.44544139,14.0384861 9.48128598,14.1943321 9.45027078,14.3440991 C9.33077219,14.8391647 9.23261263,15.3171591 9.13445307,15.7780823 L9.12591745,15.982937 C8.9680086,16.7852847 8.78876071,17.6388461 8.57537036,18.458265 C8.36198001,19.277684 8.14858966,19.9690687 7.90532467,20.7458096 L7.84557537,20.8866472 Z M9.74474946,34.5692362 L9.23261263,34.3814527 L9.16859552,34.3430425 L9.12591745,34.2704898 C8.59629365,32.9530422 8.27798025,31.560241 8.18273212,30.1435204 C8.15024156,29.7175633 8.14026946,29.2901874 8.15285747,28.8631784 C8.15753302,28.5914308 8.38041351,28.3742652 8.65219088,28.3766484 C8.77675245,28.3749919 8.89728326,28.4207631 8.98934763,28.5046826 C9.41612833,28.9058564 9.84290902,29.2856912 10.2696897,29.6484548 L10.3678493,29.7380788 C10.948271,30.2544834 11.5585674,30.8092983 12.1347213,31.368381 C12.7108753,31.9274637 13.2614224,32.5334923 13.8802544,33.2078058 C14.0424311,33.3827859 14.2088755,33.557766 14.3710522,33.7370139 L14.4179981,33.7882276 C14.4338436,33.797376 14.4533662,33.797376 14.4692117,33.7882276 C15.1282554,33.7748557 15.7856112,33.7163924 16.4366707,33.6132475 C16.5167426,33.6016119 16.5833458,33.5456899 16.6086613,33.4688393 C16.6339768,33.3919887 16.6136493,33.3074307 16.5561693,33.2504839 C16.1293886,32.8237032 15.7367504,32.3969225 15.2758273,31.8933213 L15.0752403,31.6628597 C14.5716391,31.1165804 14.0253598,30.5318909 13.4662771,29.9813438 C12.9071944,29.4307967 12.3694507,28.9442667 11.8231714,28.4534689 L11.5201571,28.1803293 C10.8671827,27.5956397 10.2398151,27.0493604 9.61671525,26.4347962 C9.33077219,26.1701922 9.04909693,25.8885169 8.76315386,25.6068417 C8.62914213,25.4641768 8.57476348,25.2642553 8.61804843,25.0733658 C8.70767237,24.6892632 8.80156413,24.3094284 8.90399149,23.942397 C9.12591745,23.1144424 9.36918245,22.3419694 9.57830499,21.6804593 L9.71487481,21.2280717 C9.97947884,20.4470631 10.2142082,19.7130003 10.4062595,18.9319916 C10.5983108,18.1509829 10.79463,17.2846181 10.9866813,16.3713074 L11.0635018,15.9957404 C11.2043394,15.342766 11.3622483,14.6001676 11.5542996,13.8319623 C11.6353879,13.4948056 11.7335475,13.1149707 11.8530461,12.7095291 C11.9105549,12.5182118 12.0592608,12.3679068 12.2499521,12.3083552 C12.5828411,12.2016601 12.894391,12.1163039 13.1803341,12.0309478 L13.3638497,11.9797341 C14.2686248,11.7450047 15.1179184,11.5529534 15.8989271,11.3779733 L16.2147448,11.3054206 C16.9914857,11.1261727 17.7212806,10.9554604 18.4510756,10.7548735 C19.1808706,10.5542866 19.9874861,10.2896825 20.7258167,10.0549532 L20.9648139,9.97813263 C21.737287,9.72206422 22.5652415,9.44892457 23.4444098,9.18858835 C23.9608144,9.04348291 24.3790595,8.93251993 24.7674299,8.84289599 C25.7281432,8.6119505 26.7057114,8.45782297 27.6908777,8.38197284 C28.0493734,8.35209819 28.4078692,8.33502696 28.7578294,8.33502696 C29.0437725,8.33502696 29.3297155,8.33502696 29.6113908,8.33502696 C31.0251789,8.40888438 32.4182291,8.70708645 33.7383601,9.218463 C33.7964657,9.23764582 33.8432545,9.28131537 33.8663943,9.33796159 C34.4018521,10.6540102 34.7231585,12.0472983 34.8181153,13.4649309 C34.8437221,13.8661048 34.8522577,14.2886176 34.8437221,14.745273 C34.8464145,14.948727 34.7253879,15.133466 34.5377905,15.2122569 C34.3501932,15.2910478 34.1335506,15.2481298 33.9901607,15.1037688 C33.56338,14.7025949 33.1365993,14.3227601 32.7098186,13.9599965 L32.4964283,13.7679452 C31.9160065,13.2472728 31.3654594,12.7479393 30.844787,12.2443381 C30.3241145,11.7407369 29.7949065,11.1560474 29.2486272,10.5713578 L29.0864505,10.3963777 L28.7364904,10.0122751 L28.6425986,9.8970443 C28.6080255,9.86472483 28.561835,9.84778834 28.5145644,9.85009843 C27.8711922,9.86526411 27.2295706,9.92372297 26.5940513,10.0250785 C26.5150628,10.0382385 26.4496795,10.0937076 26.4238225,10.1694954 C26.3979655,10.2452831 26.4158113,10.329148 26.4702849,10.3878421 C26.8415841,10.7762125 27.2000799,11.164583 27.6012537,11.5870959 L27.9298748,11.9498594 C28.4505473,12.5089422 28.988291,13.0893639 29.5516415,13.6569822 C30.114992,14.2246005 30.7978411,14.8348969 31.4209409,15.3939796 L31.7154196,15.6500481 L31.9458812,15.8634384 C32.4196078,16.2902191 32.9104056,16.7169998 33.409739,17.2120654 C33.695682,17.485205 34.0200354,17.8095584 34.3614599,18.172322 C34.4089111,18.225884 34.4293385,18.2981655 34.4169414,18.3686411 C34.3187818,18.8252964 34.2078189,19.2691484 34.0883203,19.695929 C33.8535909,20.5494904 33.6103259,21.3561059 33.3755965,22.1157756 L33.320115,22.2950235 C33.0640466,23.1187102 32.8207816,23.8997189 32.6073913,24.71487 C32.3940009,25.5300211 32.2318242,26.3152976 32.0312373,27.2755542 L31.92881,27.766352 C31.7879723,28.4235942 31.6385991,29.1064434 31.463619,29.8234349 C31.3697272,30.2160732 31.2502287,30.6556573 31.1051232,31.1421873 C31.0816,31.2093438 31.0278464,31.2615164 30.9600178,31.2830249 C30.4862912,31.4323981 30.0424393,31.5604324 29.6796757,31.6628597 C28.7749006,31.9018569 27.9213392,32.0896404 27.153134,32.2688883 L27.0293676,32.2944951 C26.2312877,32.4780108 25.4033331,32.6657943 24.588182,32.8877203 C23.7730309,33.1096463 22.953612,33.3827859 22.1469964,33.6303187 L22.1213896,33.6516578 L21.7202157,33.7839598 C21.0416344,34.0058857 20.3417141,34.2363473 19.5863123,34.4540055 L19.5350986,34.4540055 C19.2363521,34.5436294 18.7796968,34.6716636 18.2547565,34.7911622 C17.2948338,35.018815 16.318942,35.1729032 15.3355766,35.2520854 C14.9813486,35.28196 14.618585,35.2990312 14.2686248,35.2990312 C13.9186647,35.2990312 13.6882031,35.2990312 13.4150634,35.2990312 L12.873052,35.260621 L12.3950576,35.2051395 L12.2499521,35.1838004 L11.8487783,35.0771053 C11.8218101,35.0796789 11.7946581,35.0796789 11.76769,35.0771053 C11.6396557,35.0771053 11.5116215,35.0301594 11.3921229,35.0002847 C11.1531258,34.9576067 10.9141286,34.9021252 10.683667,34.8423759 C10.4062595,34.7783588 10.0819062,34.684467 9.74048165,34.5692362 L9.74474946,34.5692362 Z M22.5012244,40.7532885 C21.4506007,41.0798557 20.3578513,41.2509572 19.2576911,41.2611575 C18.3439323,41.269207 17.4329863,41.1587458 16.5476337,40.9325364 C14.591484,40.405481 12.8190943,39.3479551 11.4262654,37.8767866 C11.2885832,37.7334861 11.2499321,37.5217457 11.3281058,37.339043 C11.4072278,37.1568039 11.5860981,37.0381142 11.7847612,37.0360287 L11.8658495,37.0360287 C12.3310405,37.1043136 12.8133027,37.1555273 13.2870292,37.1811341 C13.6156504,37.1811341 13.9528071,37.2067409 14.2899639,37.2024731 C15.3234166,37.1889122 16.3540058,37.090421 17.3713205,36.9079945 L17.4566766,36.9079945 C17.5674878,36.9079945 17.6753098,36.9439351 17.7639587,37.0104218 C18.8262676,37.881149 19.9829746,38.6298591 21.2123467,39.2424848 C21.6391274,39.438804 22.0659081,39.6308553 22.5225635,39.8058354 C22.7225623,39.883261 22.8523696,40.0779719 22.8469168,40.2923654 C22.8402666,40.5048354 22.699829,40.689802 22.4969566,40.7532885 L22.5012244,40.7532885 Z M29.1035218,35.5764387 C28.3604383,36.7305563 27.4401048,37.7603504 26.3763931,38.6279206 C26.2891645,38.7048491 26.1768803,38.7473351 26.0605754,38.7474192 L25.9794871,38.7474192 C24.6190775,38.5504685 23.2982919,38.1399735 22.0659081,37.5310943 C21.6647343,37.3347751 21.2806316,37.1043136 20.9221358,36.9079945 C20.755115,36.8028419 20.6641394,36.6104488 20.6888447,36.4146359 C20.7135501,36.2188231 20.8494619,36.055056 21.0373666,35.9946838 C21.4641473,35.8623818 21.890928,35.7300797 22.3177087,35.5892421 L22.6719367,35.4782791 C23.5254981,35.2008717 24.2979711,34.9448033 25.0917832,34.7186095 C25.7917036,34.5265582 26.5086951,34.3601137 27.264097,34.1936692 L27.5671113,34.1211165 C28.1048549,34.0016179 28.6511342,33.8778515 29.2187525,33.7412817 C29.2584745,33.7370771 29.2985292,33.7370771 29.3382511,33.7412817 C29.5140096,33.7393251 29.6771581,33.8323197 29.7650318,33.9845467 C29.8485677,34.1359662 29.8485677,34.3196572 29.7650318,34.4710767 C29.5559093,34.8423759 29.3297155,35.2222107 29.099254,35.5764387 L29.1035218,35.5764387 Z M36.8666626,30.484945 C36.8701437,30.4508913 36.8701437,30.4165714 36.8666626,30.3825176 C36.9489762,29.7600411 36.9874811,29.1325531 36.9818934,28.5046826 C36.9823253,28.4246011 36.9378835,28.3510193 36.8668033,28.3141296 C36.7957232,28.2772399 36.7099725,28.2832534 36.6447366,28.3297025 C36.2179559,28.6156456 35.8253177,28.8887852 35.3643945,29.1832639 C35.0357734,29.4051898 34.6602064,29.6356514 34.2504969,29.8618452 C34.1791613,29.9032555 34.0982496,29.9253223 34.0157676,29.9258623 C33.860077,29.9292495 33.7117201,29.8598059 33.6145937,29.7380788 C33.5212635,29.6169112 33.4854189,29.4610651 33.5164341,29.3112981 C33.6231293,28.8845174 33.7084855,28.4577367 33.7938416,28.030956 L33.8834655,27.6383178 C34.028571,26.8957194 34.2120867,26.0165511 34.4340126,25.1544541 C34.6345996,24.3905167 34.8607933,23.6180436 35.1083261,22.8711774 L35.1510042,22.7346076 C35.3174487,22.2053995 35.4796253,21.663388 35.6460698,21.0957697 C35.7088836,20.8820912 35.9056168,20.7358471 36.128332,20.7372739 C36.2996817,20.7398272 36.458998,20.825858 36.5551127,20.9677355 C36.8111811,21.3945162 37.0203036,21.7487442 37.1952837,22.0987044 C37.8336971,23.3664737 38.2659024,24.7279205 38.4756258,26.1317819 C38.6324353,27.0880502 38.6668545,28.0603925 38.5780532,29.025355 C38.5780532,29.2174063 38.5396429,29.4051898 38.5055005,29.5887055 C37.9240252,33.9900852 34.6656638,37.5650899 30.336918,38.5511001 C30.2986364,38.5555469 30.2599687,38.5555469 30.2216872,38.5511001 C30.0372615,38.5465657 29.8715819,38.4372172 29.7949065,38.2694249 C29.7048625,38.0965415 29.726696,37.8866039 29.850388,37.735949 C30.1405988,37.3731854 30.4180063,36.984815 30.7039494,36.5793733 C31.436594,35.4344561 32.0405913,34.2121488 32.5049639,32.9346662 C32.5656706,32.7778929 32.6896151,32.6539483 32.8463884,32.5932416 C34.0147169,32.1512426 35.1333399,31.5876397 36.1838135,30.9117257 L36.6916825,30.5745689 C36.7448189,30.5498698 36.7926508,30.5150829 36.8325201,30.4721416 L36.8666626,30.484945 Z M40.4857629,22.5212172 C40.4245003,22.7251681 40.240633,22.8678232 40.0278562,22.8764883 C39.8150793,22.8851535 39.6202212,22.7579216 39.5425775,22.5596275 C39.3675975,22.1328468 39.1670105,21.6804593 38.9536202,21.2792854 C38.3274656,20.0717743 37.5703537,18.9368221 36.6959503,17.8949145 C36.5900094,17.7663863 36.544875,17.5982996 36.5721839,17.4339914 C36.7891242,16.0955671 36.8564008,14.7371528 36.7727708,13.3838426 C36.7300928,12.8802414 36.6788791,12.3979792 36.6063264,11.9626629 C36.5826992,11.8211508 36.6216246,11.6763484 36.7130215,11.5657568 C36.8104846,11.4526811 36.952112,11.3873146 37.101392,11.3865089 C37.2261066,11.383977 37.346951,11.4298673 37.4385487,11.5145431 C40.4980482,14.2850929 41.6791053,18.5751582 40.4686917,22.5212172 L40.4857629,22.5212172 Z" id="Shape"></path>
                        </g>
                        <g id="Face" transform="translate(51.000000, 44.000000)">
                            <g id="-Nose" transform="translate(36.000000, 41.000000)" stroke="#0F0F0F" stroke-linecap="round" stroke-width="4">
                                <path d="M0.964159294,0.771101828 C0.964159294,3.75398752 4.59131924,6.17209416 9.06564778,6.17209416 C13.5399763,6.17209416 17.1671363,3.75398752 17.1671363,0.771101828" id="Nose"></path>
                            </g>
                            <g id="-Eyes" transform="translate(12.000000, 18.000000)" fill="#0F0F0F">
                                <circle id="Eye" cx="6" cy="6" r="6"></circle>
                                <circle id="Eye" cx="58" cy="6" r="6"></circle>
                            </g>
                            <g id="I-Browse" fill-rule="nonzero">
                                <path d="M3.63024536,11.1585767 C7.54515501,5.64986673 18.2779197,2.56083721 27.5230268,4.83118046 C28.5957248,5.0946055 29.6788665,4.43856013 29.9422916,3.36586212 C30.2057166,2.2931641 29.5496712,1.21002236 28.4769732,0.94659732 C17.7403633,-1.69001789 5.31209962,1.88699832 0.369754639,8.84142326 C-0.270109626,9.74178291 -0.0589363917,10.9903811 0.84142326,11.6302454 C1.74178291,12.2701096 2.9903811,12.0589364 3.63024536,11.1585767 Z" id="Eyebrow" fill="#BFA465"></path>
                                <path d="M36.2402823,77.1211878 C39.4346195,71.6124778 48.1919276,68.5234483 55.735394,70.7937915 C56.6106528,71.0572166 57.4944331,70.4011712 57.7093725,69.3284732 C57.924312,68.2557752 57.3890173,67.1726334 56.5137585,66.9092084 C47.753313,64.2725932 37.612577,67.8496094 33.5799127,74.8040343 C33.0578209,75.704394 33.2301259,76.9529922 33.9647667,77.5928564 C34.6994075,78.2327207 35.7181905,78.0215475 36.2402823,77.1211878 Z" id="Eyebrow-Copy" fill="#0F0F0F" transform="translate(45.517462, 72.001809) rotate(198.000000) translate(-45.517462, -72.001809) "></path>
                                <path d="M61.6302454,11.1585767 C65.545155,5.64986673 76.2779197,2.56083721 85.5230268,4.83118046 C86.5957248,5.0946055 87.6788665,4.43856013 87.9422916,3.36586212 C88.2057166,2.2931641 87.5496712,1.21002236 86.4769732,0.94659732 C75.7403633,-1.69001789 63.3120996,1.88699832 58.3697546,8.84142326 C57.7298904,9.74178291 57.9410636,10.9903811 58.8414233,11.6302454 C59.7417829,12.2701096 60.9903811,12.0589364 61.6302454,11.1585767 Z" id="Eyebrow" fill="#BFA465" transform="translate(73.000154, 6.039198) scale(-1, 1) translate(-73.000154, -6.039198) "></path>
                            </g>
                        </g>
                    </g>
                    <g id="Facial-Hair" transform="translate(41.500054, 59.608370)">
                        <mask id="mask-6" fill="white">
                            <use xlink:href="#path-5"></use>
                        </mask>
                        <use id="Beardness" fill="#BFA465" xlink:href="#path-5"></use>
                    </g>
                </g>
                <path d="M143.852905,23.4317618 C141.201162,20.6117523 138.122299,18.2181832 135.127638,15.8179038 C134.466872,15.2887955 133.7955,14.7724368 133.149517,14.2231976 C133.002645,14.0983858 131.498244,12.9770923 131.318269,12.5644079 C130.885043,11.5716169 131.136044,12.3446451 131.195821,11.1599392 C131.271347,9.66186151 134.206551,5.43067287 132.016316,4.46036144 C131.052805,4.03358545 129.334041,5.16930613 128.40974,5.5444127 C126.601952,6.27852108 124.771989,6.9045934 122.903139,7.44443818 C123.798516,5.58769423 125.50571,1.87085117 122.297008,2.86565526 C119.79728,3.64069655 117.467885,5.63332436 114.955944,6.57075526 C115.787045,5.15286586 119.110802,0.75928762 116.107465,0.513690119 C115.172879,0.437192537 112.453324,2.26172698 111.447069,2.6509252 C108.433126,3.8168423 105.354584,4.57041059 102.190233,5.16393788 C91.4306037,7.18206489 78.8484031,6.60665544 68.8935202,11.7048167 C61.2188598,15.6350477 53.6406149,21.7333813 49.2071166,29.4988925 C44.9339891,36.9839125 43.3357443,45.1755286 42.4413314,53.7526522 C41.7850644,60.0472625 41.7317146,66.5539187 42.0386367,72.871344 C42.1389087,74.9411404 40.8387063,98.6266935 43.7279524,95.7372322 C45.1674333,94.2975343 46.6807135,74.3395608 47.0432352,72.3717611 C47.7647432,68.4566283 48.459255,64.5240486 49.6621969,60.7340631 C51.7820487,54.0552874 53.5612551,46.4432913 59.56373,42.3410918 C65.1550713,38.5198685 81.4128018,31.6924942 86.9427915,31.6924942 C92.4727811,31.6924942 93.7344423,35.5422821 107.387802,34.4758201 C121.041162,33.4093582 123.772484,29.4519203 125.268528,30.3782791 C126.637626,31.2257918 128.059431,33.9931254 129.042546,35.1264975 C131.365191,37.8049194 134.134561,39.8505587 136.85058,42.0468446 C142.514017,46.6262985 145.373374,52.3780443 147.093424,59.5345945 C148.807046,66.6646389 148.094016,74.8007794 150.215153,81.8174195 C150.58828,83.0511108 149.422246,89.2544564 150.800271,91.4665898 C150.885254,91.6030117 152.176822,91.1579602 152.602405,88.904648 C153.28707,85.2795883 153.192015,79.0211793 153.192015,78.3306925 C153.192015,73.8109469 154.291792,70.4197307 154.277973,65.8704732 C154.22398,52.0385024 153.794289,34.0021843 143.852905,23.4317618 Z" id="Short-Hair" fill="#BFA465"></path>
                <g id="Wayfarers" filter="url(#filter-7)" transform="translate(40.278102, 68.894350)" fill="#5B462F" fill-rule="nonzero">
                    <path d="M29.4473796,35.5100754 L27.0588072,35.5100754 C14.9962621,35.5100754 7.7948946,28.8722278 7.7948946,17.7550377 C7.7948946,8.77098863 9.36860221,0 28.1741534,0 L30.7206058,0 C49.526157,0 51.0998646,8.77098863 51.0998646,17.7550377 C51.0998646,28.2076821 42.1974669,35.5100754 29.4473796,35.5100754 Z M28.0489414,5.1965964 C11.2592922,5.1965964 11.2592922,11.1215962 11.2592922,18.6224794 C11.2592922,24.7461425 13.958278,32.0456778 26.8239095,32.0456778 L29.4473796,32.0456778 C40.1566195,32.0456778 47.635467,26.5260586 47.635467,18.6224794 C47.635467,11.1215962 47.635467,5.1965964 30.8458178,5.1965964 L28.0489414,5.1965964 Z" id="Left"></path>
                    <path d="M83.1455424,35.5100754 L80.7569701,35.5100754 C68.6944249,35.5100754 61.4930574,28.8722278 61.4930574,17.7550377 C61.4930574,8.77098863 63.066765,0 81.8723162,0 L84.4187687,0 C103.22432,0 104.798027,8.77098863 104.798027,17.7550377 C104.798027,28.2076821 95.8956298,35.5100754 83.1455424,35.5100754 Z M81.7471042,5.1965964 C64.957455,5.1965964 64.957455,11.1215962 64.957455,18.6224794 C64.957455,24.7461425 67.6592377,32.0456778 80.5220724,32.0456778 L83.1455424,32.0456778 C93.8547823,32.0456778 101.33363,26.5260586 101.33363,18.6224794 C101.33363,11.1215962 101.33363,5.1965964 84.5439807,5.1965964 L81.7471042,5.1965964 Z" id="Right"></path>
                    <path d="M2.55893005,4.99874846 C3.15771968,4.41389489 9.7085806,0 28.1482305,0 C43.6092859,0 46.8821574,1.60459826 51.836246,4.02899126 L52.1988784,4.20795173 C52.5433071,4.32964732 54.3046444,4.92795819 56.3649354,4.99375176 C58.2419756,4.91319627 59.8474855,4.40446354 60.3166329,4.24145997 C65.9711304,1.491498 71.5061167,0 84.4446915,0 C102.884341,0 109.435202,4.41389489 110.033992,4.99874846 C111.44908,4.99874846 112.592922,6.11596874 112.592922,7.49812269 L112.592922,9.99749692 C112.592922,11.3796509 111.44908,12.4968712 110.033992,12.4968712 C110.033992,12.4968712 104.056644,12.4968712 104.056644,14.9962454 C104.056644,17.4956196 102.357202,11.3796509 102.357202,9.99749692 L102.357202,7.56312857 C99.2364351,6.36877664 93.6499521,4.1453036 84.4446915,4.1453036 C74.1887452,4.1453036 69.0810395,5.96398483 64.6996116,7.76988484 L64.748607,7.88802507 L64.7464444,9.60829959 L62.8261287,14.2418215 L60.4541633,13.3040101 C60.2423206,13.2202532 59.7852303,13.0697794 59.1514282,12.9134593 C57.3845174,12.4776706 55.5679923,12.3450076 53.9615295,12.6747657 C53.3721546,12.7957465 52.8253326,12.9772943 52.3235009,13.2225074 L50.0349802,14.3407613 L47.7451803,9.87024468 L47.846874,7.88302632 L47.9167937,7.71420753 C44.1382032,5.95344926 40.6540684,4.1453036 28.1482305,4.1453036 C18.9434524,4.1453036 13.3570984,6.36794361 10.2357202,7.56231842 L10.2357202,9.99749692 C10.2357202,11.3796509 7.67679014,17.4956196 7.67679014,14.9962454 C7.67679014,12.4968712 2.55893005,12.4968712 2.55893005,12.4968712 C1.14640066,12.4968712 0,11.3796509 0,9.99749692 L0,7.49812269 C0,6.11596874 1.14640066,4.99874846 2.55893005,4.99874846 Z" id="Stuff"></path>
                </g>
            </g>
            <g id="Group-8" transform="translate(752.211710, 130.904426)" stroke="#0F0F0F" stroke-linecap="round" stroke-linejoin="round" stroke-width="4">
                <g id="Group-4" transform="translate(0.000000, 0.000000)">
                    <path d="M51.9126126,111.008446 L51.9126126,76.7173247" id="Stroke-154"></path>
                    <path d="M51.9126126,75.5314441 L51.9126126,41.2403229" id="Stroke-155"></path>
                    <path d="M9.06791624,65.7173252 C3.93254341,62.7555287 0.475607955,57.2082932 0.475607955,50.8541166 C0.475607955,41.3851476 17.6208458,20.6112572 17.6208458,20.6112572 C17.6208458,20.6112572 34.7667292,41.3851476 34.7667292,50.8541166 C34.7667292,60.3237312 27.0904604,68 17.6208458,68" id="Stroke-161"></path>
                    <path d="M86.223165,45.982554 C81.0877922,43.0207576 77.6308567,37.4735221 77.6308567,31.1193455 C77.6308567,21.6503764 94.7760946,0.876486058 94.7760946,0.876486058 C94.7760946,0.876486058 111.921978,21.6503764 111.921978,31.1193455 C111.921978,40.5889601 104.245709,48.2652289 94.7760946,48.2652289" id="Stroke-161-Copy" transform="translate(94.776417, 24.570857) scale(-1, 1) translate(-94.776417, -24.570857) "></path>
                </g>
            </g>
            <g id="Group-19" transform="translate(0.605821, 322.000000)" stroke="#0F0F0F" stroke-linecap="round" stroke-width="4">
                <path d="M0.721701716,1.90442576 L887.471951,1.90442576" id="Line"></path>
            </g>
        </g>
    </g>
</svg>