<svg width="892" height="352" viewBox="0 0 892 352" xmlns="http://www.w3.org/2000/svg" xmlns:xlink="http://www.w3.org/1999/xlink">
  <title>
    chapter-ii
  </title>
  <defs>
    <path
      d="M117.757 145.628V213H72.26v-69.2c-15.719-8.487-26.56-24.849-27.239-43.8h-.034c-6.456 0-11.689-5.233-11.689-11.69V73.69c0-6.457 5.233-11.69 11.69-11.69V51.89C44.987 23.233 68.22 0 96.877 0c28.659 0 51.89 23.232 51.89 51.89v10.124c6.188.301 11.112 5.413 11.112 11.675v14.622c0 6.273-4.941 11.392-11.145 11.677-.726 20.424-13.257 37.843-30.978 45.64z"
      id="a"/>
    <path
      d="M72.323.07v20.277C72.323 32.858 82.464 43 94.975 43c12.51 0 22.653-10.142 22.653-22.653V.071c17.084 2.025 30.203 7.592 30.203 22.006 0 .222-.003.444-.009.664 24.539 11.474 41.54 36.381 41.54 65.258v69.42H.588v-69.42c0-28.877 17-53.784 41.54-65.258a23.59 23.59 0 0 1-.01-.664c0-14.414 13.119-19.98 30.204-22.006z"
      id="b"/>
    <path
      d="M74.372 66.248c-1.924 2.173-7.718 3.01-9.316 2.173-2.954-1.545-5.75-3.201-8.998-3.088-3.248-.113-6.063.27-9.052 1.835-2.394 1.253-5.945 1.253-8.448-.92-4.04-3.507-3.362-9.083-.813-13.054 3.626-5.651 8.545-2.918 14.045-3.563 1.496-.175 2.998-.617 4.268-1.34 1.27.723 2.772 1.165 4.268 1.34 5.5.645 9.93-2.088 13.556 3.563 2.548 3.971 2.413 10.882.49 13.054zm34.2-65.957c-3.217 14.075-4.696 28.434-7.029 42.671a337.588 337.588 0 0 1-1.584 8.879c-.118.62-.235 2.923-.81 3.215-1.739.884-5.284-3.818-6.232-4.88-2.38-2.665-4.74-5.355-7.64-7.447a39.471 39.471 0 0 0-19.854-7.32c-2.987-.248-7.024.185-9.839 1.993-2.814-1.808-6.852-2.241-9.838-1.993a39.471 39.471 0 0 0-19.855 7.32c-2.9 2.092-5.26 4.782-7.64 7.447-.948 1.062-4.493 5.764-6.232 4.88-.574-.292-.691-2.595-.81-3.215a337.584 337.584 0 0 1-1.584-8.879C7.292 28.725 5.814 14.366 2.595.292 1.66.291.839 19.038.735 20.785.308 27.88-.188 34.816.446 41.917 1.54 54.167 2.681 69.525 11.451 78.88c7.924 8.452 19.43 10.219 29.354 15.554 1.277.687 2.972 1.535 4.8 2.23 1.925 1.563 5.744 2.628 10.143 2.628 4.614 0 8.59-1.172 10.411-2.862a43.018 43.018 0 0 0 4.205-1.996c9.923-5.336 21.43-7.102 29.354-15.554 8.77-9.354 9.91-24.713 11.004-36.962.635-7.1.138-14.037-.287-21.131C110.33 19.039 109.51.29 108.573.29z"
      id="d"/>
    <filter x="-.9%" y="-2.8%" width="101.8%" height="111.1%" filterUnits="objectBoundingBox" id="e">
      <feOffset dy="2" in="SourceAlpha" result="shadowOffsetOuter1"/>
      <feColorMatrix values="0 0 0 0 0 0 0 0 0 0 0 0 0 0 0 0 0 0 0.2 0" in="shadowOffsetOuter1" result="shadowMatrixOuter1"/>
      <feMerge>
        <feMergeNode in="shadowMatrixOuter1"/>
        <feMergeNode in="SourceGraphic"/>
      </feMerge>
    </filter>
    <path d="M6.618.401H213.58a6 6 0 0 1 6 6v65.345a2 2 0 0 1-2 2H2.618a2 2 0 0 1-2-2V6.401a6 6 0 0 1 6-6z" id="f"/>
  </defs>
  <g fill="none" fill-rule="evenodd">
    <g stroke-width="4">
      <g stroke="#D6DDE3" stroke-linecap="round">
        <path
          d="M156.98 192.119h145.213M362.95 158.5h218.244M490.844 43.5h71M281.708 43.5h195.988M314.844 192.119h4.56M265.656 229.715h145.212M227.77 229.715h27.478M338.173 78.215h205.779M100.065 78.215h205.779M227.205 119.844h143.843M46.047 158.5h268M674.042 118.844h106.009M653.888 208.326h61.547M790.047 118.844h2.007M527.21 205.326h27.655M726.033 75.215h106.31M615.7 244.215h145.212M769.2 244.215h4.56"/>
      </g>
      <g stroke="#212121">
        <path d="M269.547 348.866h-24.693c-6.627 0-12-5.372-12-12v-24.333a5 5 0 0 1 5-5h43.693v29.333c0 6.628-5.373 12-12 12z"/>
        <path d="M275.45 307.535c11.785 0 20.506-1.436 20.506 14.356s-5.774 16.67-16.363 16.67M234.854 338.905h46.739"/>
        <g stroke-linecap="round" stroke-linejoin="round">
          <path d="M257.487 294.309c2.838-2.741 2.853-7.33.034-10.249M257.556 273.812c-2.838 2.74-2.854 7.329-.035 10.248"/>
        </g>
        <g stroke-linecap="round" stroke-linejoin="round">
          <path d="M246.132 298.835c2.838-2.74 2.854-7.329.035-10.248M246.201 278.339c-2.838 2.74-2.853 7.329-.034 10.248"/>
        </g>
        <g stroke-linecap="round" stroke-linejoin="round">
          <path d="M268.84 298.386c2.839-2.741 2.855-7.33.035-10.249M268.91 277.889c-2.838 2.74-2.854 7.329-.035 10.248"/>
        </g>
      </g>
    </g>
    <path
      d="M762.827 222.347c-5.135-2.962-8.592-8.51-8.592-14.864 0-9.469 17.145-30.242 17.145-30.242s17.146 20.773 17.146 30.242c0 9.47-7.676 17.146-17.146 17.146M814.225 186.099c5.135-2.962 8.592-8.51 8.592-14.863 0-9.47-17.145-30.243-17.145-30.243s-17.146 20.774-17.146 30.243c0 9.47 7.677 17.145 17.146 17.145"/>
    <path d="M854.088 267.913h-96.833c0 9.944 8.061 18.006 18.006 18.006h60.822c9.944 0 18.005-8.062 18.005-18.006z" stroke="#212121" stroke-width="4" stroke-linecap="round" stroke-linejoin="round"/>
    <path stroke="#212121" stroke-width="4" d="M775.636 285.919l6.69 63.942h52.44l6.508-63.942z"/>
    <path d="M805.672 267.913v-34.291M805.672 232.436v-34.291" stroke="#0F0F0F" stroke-width="4" stroke-linecap="round" stroke-linejoin="round"/>
    <path
      d="M805.672 259.34c0-9.469-7.676-17.146-17.146-17.146M822.818 221.352c-9.47 0-17.146 7.677-17.146 17.146M771.38 225.049c0 9.469 7.677 17.146 17.147 17.146M822.818 221.228c9.469 0 17.145-7.676 17.145-17.146M771.38 217.723v-16.788M771.38 214.866l5.567-5.566M848.536 198.264v-16.789M848.536 195.406l5.566-5.566M814.225 186.099c5.135-2.962 8.592-8.51 8.592-14.863 0-9.47-17.145-30.243-17.145-30.243s-17.146 20.774-17.146 30.243c0 9.47 7.677 17.145 17.146 17.145M805.672 188.381v9.763M805.672 181.475v-16.788M805.672 178.618l5.566-5.566M805.672 173.855l-5.566-5.566M805.672 217.13c0-9.468-7.676-17.145-17.146-17.145M740.11 179.26c0 9.47 7.676 17.146 17.145 17.146M746.5 172.319a6.39 6.39 0 1 0-12.78 0 6.39 6.39 0 0 0 12.78 0zM846.342 231.295a6.39 6.39 0 1 0-12.781 0 6.39 6.39 0 0 0 12.78 0zM805.66 238.774c0 9.469 7.677 17.146 17.146 17.146M822.806 255.92c9.47 0 17.145-7.677 17.145-17.147"
      stroke="#212121"
      stroke-width="4"
      stroke-linecap="round"
      stroke-linejoin="round"/>
    <g>
      <g opacity=".15" stroke="#0F0F0F" stroke-linecap="square" stroke-width=".25">
        <path d="M626 336.84h113.47M626 338.587h113.47M626 340.334h113.47M626 342.08h113.47M626 343.827h113.47M626 345.573h113.47M626 335.094h113.47"/>
      </g>
      <g stroke="#212121">
        <path d="M611.97 330.523v19.141h127v-15.14a4 4 0 0 0-4-4h-123z" stroke-width="4"/>
        <g stroke-linecap="round" stroke-width=".25">
          <path d="M624 336.84h113.47M624 338.587h113.47M624 340.334h113.47M624 342.08h113.47M624 343.827h113.47M624 345.573h113.47M624 335.094h113.47"/>
        </g>
        <path d="M611.97 310.965v19.14h115.573v-15.14a4 4 0 0 0-4-4H611.97z" stroke-width="4"/>
        <g>
          <path d="M611.97 310.665h105.808v-15.141a4 4 0 0 0-4-4H615.97a4 4 0 0 0-4 4v15.14z" stroke-width="4"/>
          <g stroke-linecap="round" stroke-width=".25">
            <path d="M623.438 297.841h92.242M623.438 299.588h92.242M623.438 301.334h92.242M623.438 303.08h92.242M623.438 304.827h92.242M623.438 306.574h92.242M623.438 296.095h92.242"/>
          </g>
        </g>
      </g>
    </g>
    <g>
      <g transform="matrix(-1 0 0 1 211.52 209.979)">
        <path
          d="M127.042 21.583h-.044V8.711a6.708 6.708 0 0 0-6.708-6.709h-17.417a6.708 6.708 0 0 0-6.708 6.709v12.872h-43.54V8.711a6.708 6.708 0 0 0-6.708-6.709H28.5a6.708 6.708 0 0 0-6.708 6.709v125.056a5.917 5.917 0 0 0 5.916 5.917h89.444v.014h28.121c5.891 0 10.667-4.775 10.667-10.666V82.563a5.958 5.958 0 0 1 5.958-5.958h10.657a5.285 5.285 0 1 0 0-10.57h-16.7c-5.454 0-9.875 4.42-9.875 9.874v46.138a8.333 8.333 0 0 1-8.333 8.333h-10.605V21.583z"
          stroke="#212121"
          stroke-width="4"/>
        <path d="M37.722 139.868h73.39v-3.064c0-20.266-16.43-36.695-36.695-36.695-20.266 0-36.695 16.429-36.695 36.695v3.064z" stroke="#212121" stroke-width="4"/>
        <path d="M87.125 54.376c-.274 6.806 2.49 10.158 8.294 10.057 5.803-.101 8.418-3.547 7.845-10.338" stroke="#212121" stroke-width="4" stroke-linecap="round" stroke-linejoin="round"/>
        <g transform="rotate(-162 36.27 28.873)">
          <ellipse stroke="#212121" stroke-width="4" cx="7.756" cy="7.421" rx="9.534" ry="9.131"/>
          <ellipse fill="#212121" cx="12.842" cy="7.79" rx="4.758" ry="4.725"/>
        </g>
        <g stroke="#212121" stroke-linecap="round" stroke-width="4">
          <path d="M62.422 22.575v17.703M74.34 22.575v17.703M86.26 22.575v17.703"/>
        </g>
        <g stroke="#212121" stroke-linecap="round" stroke-width="4">
          <path d="M150.076 47.963h-30.64M145.22 59.882h-25.785M139.224 71.802h-19.789"/>
        </g>
        <g stroke="#212121" stroke-linecap="round" stroke-width="4">
          <path d="M31.391 47.963H.751M31.391 59.882H6.22M31.391 71.802H11.215"/>
        </g>
        <g transform="translate(64.25 69.833)">
          <ellipse fill="#212121" cx="9.771" cy="3.282" rx="9.018" ry="2.677"/>
          <path d="M10.198 5.958c0 3.946 3.29 7.144 7.348 7.144M9.344 5.958c0 3.946-3.29 7.144-7.349 7.144" stroke="#212121" stroke-width="4" stroke-linecap="round" stroke-linejoin="round"/>
        </g>
        <circle stroke="#212121" stroke-width="4" cx="109.153" cy="94.396" r="5.938"/>
        <circle stroke="#212121" stroke-width="4" cx="37.604" cy="94.396" r="5.938"/>
      </g>
    </g>
    <g>
      <g transform="translate(358.77 41.309)">
        <use fill="#FFE3C3" xlink:href="#a"/>
        <g transform="translate(0 150)">
          <mask id="c" fill="#fff">
            <use xlink:href="#b"/>
          </mask>
          <use fill="#0D97FF" xlink:href="#b"/>
          <path d="M64.59 47.332v61.014a2 2 0 1 1-4 0V45.15a62.645 62.645 0 0 0 4 2.182zm67-.51v25.351a2 2 0 0 1-4 0V48.739a66.549 66.549 0 0 0 4-1.918z" fill="#FDFDFD" mask="url(#c)"/>
          <path
            d="M94.98 55c-11.225 0-22.705-3.553-31.045-8.048-12.669-6.827-22.3-17.01-22.3-28.875 0-9.37 5.597-15.003 14.251-18.353C41.55 2.571 31.634 8.243 31.634 19.308 31.634 39.02 63.104 55 94.979 55zM134.072-.276c14.337 2.847 24.253 8.519 24.253 19.584 0 19.71-31.465 35.689-63.337 35.692 26.84-.004 53.335-16.533 53.335-36.923 0-9.37-5.597-15.003-14.25-18.353z"
            fill-opacity=".16"
            fill="#000"
            mask="url(#c)"/>
          <path d="M154 85.965v68.23M37 85.965v68.23" stroke="#0A7ED6" stroke-width="4" stroke-linecap="round"/>
        </g>
        <path d="M87.964 85.771c0 2.983 3.627 5.401 8.102 5.401 4.474 0 8.101-2.418 8.101-5.4" stroke="#212121" stroke-linecap="round" stroke-width="4"/>
        <g fill="#212121">
          <path d="M72.332 74.073a6 6 0 0 0-3.106-11.592c-3.2.858.696 2.595 1.553 5.796.858 3.2-1.648 6.653 1.553 5.796zM125.22 74.06a6 6 0 0 0-2.902-11.643c-3.215.802.65 2.606 1.451 5.822.802 3.215-1.763 6.623 1.452 5.822z"/>
        </g>
        <g fill-rule="nonzero">
          <path d="M56.63 55.159c3.915-5.51 14.648-8.598 23.893-6.328a2 2 0 0 0 .954-3.884c-10.737-2.637-23.165.94-28.107 7.894a2 2 0 0 0 3.26 2.318z" fill="#BFA465"/>
          <path d="M106.923 114c-4.74 4.252-14.024 4.483-20.497-.007-.75-.52-1.794-.17-2.33.784-.536.954-.361 2.15.39 2.67 7.517 5.215 18.266 4.947 24.25-.421.775-.695.997-1.936.496-2.772-.5-.835-1.535-.95-2.31-.254z" fill="#212121"/>
          <path d="M135.37 55.159c-3.915-5.51-14.648-8.598-23.893-6.328a2 2 0 0 1-.954-3.884c10.737-2.637 23.165.94 28.108 7.894a2 2 0 0 1-3.26 2.318z" fill="#BFA465"/>
        </g>
      </g>
      <use fill="#BFA465" xlink:href="#d" transform="translate(400.27 100.917)"/>
      <path
        d="M502.296 46.836c-2.652-2.82-5.73-5.213-8.725-7.614-.661-.529-1.332-1.045-1.978-1.594-.147-.125-1.652-1.246-1.832-1.66-.433-.992-.182-.219-.122-1.404.075-1.498 3.01-5.729.82-6.7-.963-.426-2.682.71-3.606 1.085a55.605 55.605 0 0 1-5.507 1.9c.896-1.857 2.603-5.574-.606-4.579-2.5.775-4.83 2.768-7.341 3.705.831-1.418 4.155-5.811 1.152-6.057-.935-.076-3.655 1.748-4.66 2.137-3.015 1.166-6.093 1.92-9.258 2.513-10.76 2.018-23.342 1.443-33.296 6.541-7.675 3.93-15.253 10.029-19.687 17.794-4.273 7.485-5.871 15.677-6.766 24.254-.656 6.295-.71 12.801-.402 19.119.1 2.07-1.2 25.755 1.689 22.866 1.44-1.44 2.953-21.398 3.315-23.366.722-3.915 1.416-7.848 2.62-11.638 2.12-6.678 3.898-14.29 9.9-18.392 5.592-3.822 21.85-10.65 27.38-10.65 5.53 0 6.792 3.85 20.445 2.784 13.653-1.066 16.385-5.024 17.88-4.097 1.37.847 2.791 3.615 3.775 4.748 2.322 2.678 5.092 4.724 7.808 6.92 5.663 4.58 8.522 10.331 10.242 17.488 1.714 7.13 1.001 15.266 3.122 22.283.373 1.234-.793 7.437.585 9.649.085.136 1.377-.309 1.802-2.562.685-3.625.59-9.883.59-10.574 0-4.52 1.1-7.91 1.086-12.46-.054-13.832-.484-31.868-10.425-42.439z"
        fill="#BFA465"/>
      <g filter="url(#e)" transform="translate(398.721 92.299)" fill="#5B462F" fill-rule="nonzero">
        <path
          d="M29.447 35.51H27.06c-12.063 0-19.264-6.638-19.264-17.755C7.795 8.771 9.369 0 28.175 0h2.546C49.526 0 51.1 8.771 51.1 17.755c0 10.453-8.903 17.755-21.653 17.755zM28.05 5.197c-16.79 0-16.79 5.925-16.79 13.425 0 6.124 2.7 13.424 15.565 13.424h2.623c10.71 0 18.188-5.52 18.188-13.424 0-7.5 0-13.425-16.79-13.425H28.05zM83.146 35.51h-2.389c-12.063 0-19.264-6.638-19.264-17.755C61.493 8.771 63.067 0 81.873 0h2.546c18.805 0 20.379 8.771 20.379 17.755 0 10.453-8.902 17.755-21.652 17.755zM81.747 5.197c-16.79 0-16.79 5.925-16.79 13.425 0 6.124 2.702 13.424 15.565 13.424h2.624c10.709 0 18.188-5.52 18.188-13.424 0-7.5 0-13.425-16.79-13.425h-2.797z"/>
        <path
          d="M2.559 4.999C3.158 4.414 9.709 0 28.149 0c15.46 0 18.733 1.605 23.687 4.029l.363.179c.344.122 2.106.72 4.166.786 1.877-.08 3.482-.59 3.952-.753C65.97 1.491 71.507 0 84.445 0c18.44 0 24.99 4.414 25.589 4.999 1.415 0 2.559 1.117 2.559 2.5v2.498c0 1.383-1.144 2.5-2.559 2.5 0 0-5.977 0-5.977 2.5 0 2.499-1.7-3.617-1.7-5V7.563c-3.12-1.194-8.707-3.418-17.912-3.418-10.256 0-15.364 1.819-19.745 3.625l.049.118-.003 1.72-1.92 4.634-2.372-.938a11.289 11.289 0 0 0-1.303-.39c-1.766-.436-3.583-.569-5.19-.24a6.855 6.855 0 0 0-1.637.549l-2.289 1.118-2.29-4.47.102-1.988.07-.169c-3.779-1.76-7.263-3.569-19.769-3.569-9.205 0-14.79 2.223-17.912 3.417v2.435c0 1.383-2.56 7.499-2.56 5 0-2.5-5.117-2.5-5.117-2.5C1.146 12.497 0 11.38 0 9.997V7.498c0-1.382 1.146-2.5 2.559-2.5z"/>
      </g>
    </g>
    <path d="M549.443 319.44h20.655c10.493 0 19-8.506 19-19v-.048l-.225-88.657c-.027-10.494 8.458-19.022 18.952-19.048H633.826c10.493 0 19-8.507 19-19v-42.533" stroke="#D6DDE3" stroke-width="4" stroke-linecap="round" stroke-dasharray="8,8,8"/>
    <g>
      <g transform="translate(341.756 274.082)">
        <mask id="g" fill="#fff">
          <use xlink:href="#f"/>
        </mask>
        <path stroke="#212121" stroke-width="4" d="M6.618-1.599H213.58a8 8 0 0 1 8 8v65.345a4 4 0 0 1-4 4H2.618a4 4 0 0 1-4-4V6.401a8 8 0 0 1 8-8z"/>
        <path fill="#A5B2BD" mask="url(#g)" d="M-6.802-7.373h240v97h-240z"/>
        <path d="M24.9 74.3c11.658-2.162 22.683-3.925 33.076-5.288 35.918-4.71 97.072 6.704 132.922-6.229 23.9-8.622 36.595-19.827 38.083-33.615L225.555 74.3H24.9z" fill="#B4C0CA" mask="url(#g)"/>
      </g>
      <path
        d="M458.905 315.479c-.011-1.988.888-3.489 2.708-4.594-1.018-1.457-2.557-2.26-4.588-2.416-1.924-.152-4.026 1.121-4.795 1.121-.813 0-2.676-1.067-4.139-1.067-3.023.049-6.236 2.41-6.236 7.216 0 1.42.26 2.888.78 4.4.694 1.987 3.197 6.863 5.808 6.782 1.365-.032 2.33-.97 4.107-.97 1.723 0 2.616.97 4.139.97 2.633-.038 4.897-4.47 5.558-6.463-3.532-1.663-3.342-4.876-3.342-4.979zm-3.067-8.896c1.48-1.755 1.344-3.353 1.3-3.928-1.305.076-2.817.889-3.678 1.891-.948 1.073-1.506 2.4-1.387 3.895 1.414.109 2.703-.617 3.765-1.858z"
        fill="#FDFDFD"
        fill-rule="nonzero"/>
    </g>
    <g stroke="#212121" stroke-linecap="round" stroke-linejoin="round" stroke-width="4">
      <path
        d="M805.672 267.913v-34.291M805.672 232.436v-34.291M762.827 222.622c-5.135-2.962-8.592-8.51-8.592-14.863 0-9.47 17.145-30.243 17.145-30.243s17.146 20.774 17.146 30.243c0 9.47-7.676 17.145-17.146 17.145M857.089 202.887c5.135-2.962 8.592-8.51 8.592-14.863 0-9.47-17.145-30.243-17.145-30.243s-17.146 20.774-17.146 30.243c0 9.47 7.676 17.146 17.146 17.146"/>
    </g>
    <g stroke="#212121" stroke-linecap="round" stroke-width=".25">
      <path d="M624.127 317.531H726.36M624.127 319.278H726.36M624.127 321.024H726.36M624.127 322.77H726.36M624.127 324.517H726.36M624.127 326.264H726.36M624.127 315.785H726.36"/>
    </g>
    <path d="M2.875 349.904h886.75" stroke="#212121" stroke-width="4" stroke-linecap="round"/>
    <g>
      <g transform="translate(560.548 2)">
        <path fill="#F1F6FC" d="M1.363.811h186.363V21.5H1.363z"/>
        <path d="M1.41 21.5h186.362v107.652a5 5 0 0 1-5 5H6.409a5 5 0 0 1-5-5V21.5z" fill="#0D97FF"/>
        <rect stroke="#212121" stroke-width="4" stroke-linecap="round" x=".181" width="188.819" height="134.152" rx="6"/>
        <g transform="translate(0 8)">
          <path d="M1.5 13.5h186.523" stroke="#212121" stroke-width="4" stroke-linecap="square"/>
          <circle fill="#E52F28" cx="9.087" cy="3.14" r="2.5"/>
          <circle fill="#FFC646" cx="19.249" cy="3.14" r="2.5"/>
          <circle fill="#4BC27D" cx="29.249" cy="3.14" r="2.5"/>
        </g>
      </g>
    </g>
    <g fill="#FFF" fill-rule="nonzero">
      <path
        d="M615.086 64.876a5.15 5.15 0 0 0 .667-.187c-.21.06-.44.126-.667.187zM643.053 78.43c2.842.69 4.336 1.71 4.336 3.955 0 2.534-1.978 4.032-4.8 4.032a8.25 8.25 0 0 1-5.358-1.918.333.333 0 0 1-.037-.47l1-1.18a.333.333 0 0 1 .47-.04c1.204.98 2.428 1.534 4.003 1.534 1.457 0 2.38-.667 2.38-1.708 0-.98-.536-1.497-3.03-2.074-2.862-.69-4.476-1.538-4.476-4.032 0-2.335 1.92-3.919 4.589-3.919a7.437 7.437 0 0 1 4.592 1.474.333.333 0 0 1 .07.46l-.887 1.251a.333.333 0 0 1-.467.077 5.91 5.91 0 0 0-3.385-1.188c-1.384 0-2.188.71-2.188 1.615.013 1.057.627 1.53 3.188 2.13zM654.97 73.117v12.776c0 .184-.15.334-.334.334h-1.698a.333.333 0 0 1-.333-.334V73.117c0-.184.15-.334.333-.334h1.698c.184 0 .333.15.333.334zM666.615 81.758l-2.818-4.219a.333.333 0 0 0-.61.187v8.167c0 .184-.15.334-.334.334h-1.667a.333.333 0 0 1-.334-.334V73.117c0-.184.15-.334.334-.334h2c.114 0 .22.058.28.154l3.713 5.77a.333.333 0 0 0 .56 0l3.712-5.77a.333.333 0 0 1 .28-.154h2.001c.184 0 .333.15.333.334v12.776c0 .184-.149.334-.333.334h-1.694a.333.333 0 0 1-.334-.334v-8.21a.333.333 0 0 0-.603-.187l-2.852 4.259a.333.333 0 0 1-.277.146h-1.08a.333.333 0 0 1-.277-.143zM684.864 81.905h-2.334a.333.333 0 0 0-.334.333v3.669c0 .184-.15.333-.333.333h-1.695a.333.333 0 0 1-.333-.333v-12.79c0-.184.15-.334.333-.334h4.966c3.128 0 5.106 1.768 5.106 4.513 0 3.035-2.418 4.609-5.376 4.609zm.077-6.97h-2.411a.333.333 0 0 0-.334.333v4.175c0 .185.15.334.334.334h2.41c1.788 0 2.902-.98 2.902-2.421 0-1.594-1.134-2.421-2.901-2.421zM694.722 72.783h1.691c.184 0 .334.15.334.334v10.625c0 .184.149.334.333.334h6.403c.185 0 .334.149.334.333v1.484c0 .184-.15.334-.334.334h-8.76a.333.333 0 0 1-.334-.334V73.117c0-.184.15-.334.333-.334zM717.307 74.898h-7.037a.333.333 0 0 0-.333.333v2.828c0 .185.149.334.333.334h6.787c.184 0 .333.15.333.333v1.438c0 .184-.149.333-.333.333h-6.787a.333.333 0 0 0-.333.334v2.941c0 .184.149.334.333.334h7.037c.184 0 .333.15.333.333v1.448c0 .184-.149.333-.333.333h-9.398a.333.333 0 0 1-.334-.333v-12.77c0-.184.15-.334.334-.334h9.398c.184 0 .333.15.333.334v1.447c0 .185-.149.334-.333.334z"/>
      <path
        d="M624.36 74.941a10.145 10.145 0 0 0-5.409-6.366.444.444 0 0 1-.203-.21 11.035 11.035 0 0 0-.924-1.514 10.178 10.178 0 0 0-5.533-3.789 9.638 9.638 0 0 0-2.49-.304 10.338 10.338 0 0 0-4.18.924c-.547.253-1.07.552-1.567.894a.44.44 0 0 1-.237.07 9.385 9.385 0 0 0-1.79.037 10.165 10.165 0 0 0-3.296.94 9.952 9.952 0 0 0-2.754 1.951 10.118 10.118 0 0 0-2.812 7.867.46.46 0 0 1-.073.28 11.005 11.005 0 0 0-.857 1.558 9.862 9.862 0 0 0 3.362 12.15c.484.345.998.647 1.537.9.088.045.16.118.203.207a10.098 10.098 0 0 0 3.382 3.889 9.982 9.982 0 0 0 3.072 1.413c.815.21 1.655.314 2.498.307a10.288 10.288 0 0 0 5.739-1.818.45.45 0 0 1 .237-.066c.237 0 .49.023.777.023a9.902 9.902 0 0 0 9.868-9.044c.049-.592.049-1.186 0-1.778-.009-.1.017-.2.073-.283a10.292 10.292 0 0 0 1.728-5.743 9.448 9.448 0 0 0-.35-2.495zM607.27 64.65a8.828 8.828 0 0 1 2.535-.393 8.144 8.144 0 0 1 2.114.257 8.584 8.584 0 0 1 4.002 2.384.394.394 0 0 1-.28.664.16.16 0 0 1-.06 0c-.37-.054-.743-.09-1.117-.107-.23 0-.48-.02-.77 0-.815.009-1.627.085-2.429.227h-.053a.427.427 0 0 1-.247-.087 13.907 13.907 0 0 0-2.695-1.77 11.062 11.062 0 0 0-1.023-.448.377.377 0 0 1-.247-.376.38.38 0 0 1 .27-.35zm-5.163 4.05a10.295 10.295 0 0 1 2.135-2.389.4.4 0 0 1 .253-.09h.06c1.061.16 2.092.481 3.055.954.277.133.567.293.894.487.13.08.202.23.183.383a.38.38 0 0 1-.273.334c-.387.12-.754.24-1.114.36l-.147.05a54.54 54.54 0 0 1-1.897.587c-.564.16-1.114.284-1.708.417l-.213.033c-.427.094-.854.19-1.3.3a.297.297 0 0 1-.091 0 .387.387 0 0 1-.333-.19.394.394 0 0 1 0-.383c.14-.274.313-.57.496-.854zm-5.82 14.196a14.22 14.22 0 0 0-.153 3.165c.024.334.067.717.127 1.107a.39.39 0 0 1-.083.334.414.414 0 0 1-.297.136.374.374 0 0 1-.267-.103 8.29 8.29 0 0 1-2.384-8.624.394.394 0 0 1 .74-.037c.137.334.294.69.46 1.02a14.25 14.25 0 0 0 1.758 2.642c.085.1.121.231.1.36zm1.078-4.169c-.13.414-.26.834-.393 1.274a.387.387 0 0 1-.37.284.38.38 0 0 1-.334-.184 9.648 9.648 0 0 1-.504-.88 10.338 10.338 0 0 1-1.017-3.152 9.078 9.078 0 0 1-.08-2.26c0-.154.03-.294.053-.438a8.304 8.304 0 0 1 6.387-7.003.4.4 0 0 1 .093 0 .374.374 0 0 1 .334.217.384.384 0 0 1-.044.417c-.22.28-.436.583-.667.903a14.034 14.034 0 0 0-1.45 2.969.16.16 0 0 1-.097.1 14.34 14.34 0 0 0-2.691 1.334l-.117.08-.103.06-.067.046-.03.02-.05.034-.027.02-.063.04a.127.127 0 0 0-.05.08 1.034 1.034 0 0 0 0 .11v.113c0 .076-.008.151-.024.227-.013.153-.024.308-.033.464a4.265 4.265 0 0 0 0 .476v.127a.167.167 0 0 0 .264.137c.2-.14.403-.277.61-.417l.087-.097c.07-.053.14-.103.213-.15l.117-.076c.223-.15.473-.3.75-.454a.414.414 0 0 1 .497.1.41.41 0 0 1 .077.334c-.094.386-.17.76-.247 1.12l-.04.184a33.204 33.204 0 0 1-.43 1.934c-.167.64-.334 1.18-.524 1.787l-.03.12zm1.484 10.692l-.4-.146-.05-.03-.033-.074a10.542 10.542 0 0 1-.737-3.225 9.475 9.475 0 0 1-.024-1 .387.387 0 0 1 .39-.38.384.384 0 0 1 .264.1c.333.313.667.61 1 .893l.077.07c.454.404.93.838 1.38 1.274.451.437.881.91 1.365 1.438.126.137.257.273.383.413l.037.04a.05.05 0 0 0 .04 0c.515-.01 1.029-.056 1.537-.136a.167.167 0 0 0 .094-.284c-.334-.333-.64-.667-1-1.06l-.157-.144c-.394-.427-.82-.884-1.258-1.314a37.42 37.42 0 0 0-1.284-1.194l-.237-.213c-.51-.457-1-.884-1.487-1.364-.223-.207-.443-.427-.667-.647a.46.46 0 0 1-.113-.417c.07-.3.143-.597.223-.884.174-.647.364-1.25.527-1.767l.107-.354c.19-.617.373-1.2.523-1.8.15-.601.304-1.288.454-2.002l.06-.293c.11-.51.233-1.09.384-1.691.063-.263.14-.56.233-.877a.47.47 0 0 1 .31-.314c.26-.08.504-.146.727-.21l.144-.04c.707-.183 1.37-.333 1.98-.47l.247-.057c.607-.14 1.178-.273 1.748-.43.57-.157 1.2-.363 1.777-.547l.187-.06c.604-.2 1.25-.413 1.938-.617.403-.113.73-.2 1.034-.27.75-.18 1.514-.3 2.284-.36.28-.023.56-.037.834-.037h.667c1.105.058 2.193.291 3.225.69.045.016.082.05.1.094a10.405 10.405 0 0 1 .764 4.225.39.39 0 0 1-.667.28c-.334-.313-.667-.61-1.001-.893l-.167-.15a47.02 47.02 0 0 1-1.29-1.19c-.407-.394-.82-.851-1.248-1.308l-.126-.137-.274-.3-.113-.124a.137.137 0 0 0-.1-.036c-.503.012-1.004.057-1.501.137a.17.17 0 0 0-.097.283c.29.303.57.607.884.937l.257.284c.407.436.827.89 1.267 1.334.44.443.974.92 1.46 1.357l.231.2.18.167c.37.333.754.667 1.144 1.054.223.213.477.467.744.75a.183.183 0 0 1 .043.153 17.46 17.46 0 0 1-.257 1.038c-.183.683-.373 1.297-.557 1.89l-.043.14c-.2.644-.39 1.255-.557 1.892-.167.637-.294 1.25-.45 2l-.08.384c-.11.514-.227 1.047-.364 1.608-.073.306-.167.65-.28 1.03a.177.177 0 0 1-.113.11c-.37.117-.717.217-1 .297-.708.187-1.375.333-1.975.473l-.097.02c-.623.144-1.27.29-1.907.464-.637.173-1.278.387-1.908.58h-.02l-.314.104c-.53.173-1.077.353-1.667.523h-.04c-.234.07-.59.17-1 .264a15.16 15.16 0 0 1-2.282.36c-.277.023-.56.037-.833.037h-.667l-.424-.03-.374-.044h-.113l-.257-.05a.333.333 0 0 1-.063 0c-.1 0-.2-.036-.294-.06a7.413 7.413 0 0 1-.553-.123c-.18-.047-.47-.15-.737-.234h.003zm9.968 4.833a8.814 8.814 0 0 1-2.534.397 8.26 8.26 0 0 1-2.118-.257 8.588 8.588 0 0 1-4.002-2.388.387.387 0 0 1-.077-.42.394.394 0 0 1 .357-.237h.064c.363.053.74.093 1.11.113.257 0 .52.02.784 0 .807-.01 1.613-.087 2.408-.23h.066a.4.4 0 0 1 .24.08 14.34 14.34 0 0 0 2.695 1.745c.334.153.667.303 1.024.44.156.06.258.212.254.38a.39.39 0 0 1-.274.377h.003zm5.16-4.046c-.581.902-1.3 1.707-2.131 2.385a.374.374 0 0 1-.247.093h-.064a10.205 10.205 0 0 1-3.058-.95c-.313-.154-.613-.334-.894-.487a.397.397 0 0 1 .09-.714c.334-.103.668-.207 1.001-.333l.277-.087c.667-.217 1.27-.417 1.89-.594.548-.15 1.108-.28 1.698-.41l.237-.056c.42-.094.847-.19 1.29-.297a.447.447 0 0 1 .094 0 .38.38 0 0 1 .334.19.394.394 0 0 1 0 .38c-.164.307-.34.604-.52.88h.003zm7.44-5.105c0 .15-.03.296-.057.44a8.297 8.297 0 0 1-6.383 7.003.39.39 0 0 1-.09 0 .394.394 0 0 1-.307-.637c.227-.283.444-.587.65-.903a14.43 14.43 0 0 0 1.408-2.849.467.467 0 0 1 .267-.266 13.93 13.93 0 0 0 2.608-1.314l.116-.077.124-.08.067-.047.03-.02.076-.053.074-.05a.077.077 0 0 0 .023-.024.75.75 0 0 0 .02-.083c.064-.486.094-.977.09-1.467a.167.167 0 0 0-.263-.137c-.334.223-.64.437-1 .667-.258.173-.551.353-.871.53a.39.39 0 0 1-.497-.097.41.41 0 0 1-.077-.333c.083-.333.15-.667.217-1l.07-.307c.113-.58.257-1.268.43-1.941.157-.597.334-1.2.527-1.784l.033-.107c.13-.414.257-.837.387-1.28a.39.39 0 0 1 .377-.281.41.41 0 0 1 .334.18c.2.334.363.61.5.884.513.993.863 2.061 1.037 3.165.123.75.15 1.511.08 2.268zm1.44-5.096a.39.39 0 0 1-.736.03 11.353 11.353 0 0 0-.46-1 14.49 14.49 0 0 0-1.765-2.645.45.45 0 0 1-.096-.36c.17-1.046.222-2.108.156-3.165-.033-.394-.073-.77-.13-1.111a.387.387 0 0 1 .387-.45.377.377 0 0 1 .264.1 8.314 8.314 0 0 1 2.38 8.6z"
        opacity=".48"/>
      <path
        d="M624.377 74.961a10.145 10.145 0 0 0-3.891-5.47 9.895 9.895 0 0 0-1.535-.896.444.444 0 0 1-.203-.21 11.035 11.035 0 0 0-.924-1.514 10.178 10.178 0 0 0-5.533-3.789 9.638 9.638 0 0 0-2.49-.303 10.338 10.338 0 0 0-4.18.923c-.547.253-1.07.552-1.567.894a.44.44 0 0 1-.237.07 9.388 9.388 0 0 0-1.79.037 10.165 10.165 0 0 0-3.292.94 9.955 9.955 0 0 0-2.755 1.951 10.118 10.118 0 0 0-2.815 7.867.46.46 0 0 1-.073.28 11.005 11.005 0 0 0-.857 1.558 9.862 9.862 0 0 0 3.362 12.15c.484.345.998.647 1.537.9.088.045.16.118.203.207a10.098 10.098 0 0 0 3.382 3.889 9.982 9.982 0 0 0 3.072 1.413c.815.21 1.655.314 2.498.307a10.288 10.288 0 0 0 5.739-1.818.45.45 0 0 1 .237-.066c.237 0 .49.023.777.023a9.902 9.902 0 0 0 9.868-9.044c.049-.592.049-1.186 0-1.778-.009-.1.017-.2.073-.283a10.292 10.292 0 0 0 1.728-5.743c0-.843-.112-1.682-.334-2.495zM607.27 64.67a8.828 8.828 0 0 1 2.535-.393 8.144 8.144 0 0 1 2.114.257 8.584 8.584 0 0 1 4.002 2.384.394.394 0 0 1-.28.664.163.163 0 0 1-.06 0c-.37-.054-.743-.09-1.117-.107-.23 0-.48-.02-.77 0a14.82 14.82 0 0 0-2.429.227h-.053a.427.427 0 0 1-.247-.087 13.907 13.907 0 0 0-2.691-1.737 11.065 11.065 0 0 0-1.024-.447.377.377 0 0 1-.247-.377.38.38 0 0 1 .267-.384zm-5.163 4.05a10.298 10.298 0 0 1 2.135-2.389.4.4 0 0 1 .253-.09h.06c1.061.16 2.092.481 3.055.954.277.133.567.294.894.487.13.08.202.23.183.383a.38.38 0 0 1-.273.334c-.387.12-.754.24-1.114.36l-.147.05a54.54 54.54 0 0 1-1.897.587c-.564.16-1.114.284-1.708.417l-.213.05c-.427.093-.854.19-1.3.3a.293.293 0 0 1-.091 0 .387.387 0 0 1-.333-.19.394.394 0 0 1 0-.383c.14-.29.313-.587.496-.87zm-5.82 14.196a14.22 14.22 0 0 0-.153 3.165c.024.334.067.717.127 1.107a.39.39 0 0 1-.083.334.414.414 0 0 1-.297.137.374.374 0 0 1-.267-.104 8.29 8.29 0 0 1-2.384-8.624.394.394 0 0 1 .74-.037c.137.334.294.69.46 1.02a14.25 14.25 0 0 0 1.758 2.642c.085.1.121.231.1.36zm1.078-4.169c-.13.414-.26.834-.393 1.274a.387.387 0 0 1-.37.284.38.38 0 0 1-.334-.184 9.645 9.645 0 0 1-.504-.88c-.5-.99-.838-2.054-1-3.152a9.078 9.078 0 0 1-.1-2.26c0-.154.03-.294.053-.438a8.304 8.304 0 0 1 6.387-7.003.4.4 0 0 1 .093 0 .374.374 0 0 1 .333.217.384.384 0 0 1-.043.417c-.22.28-.437.583-.667.903a14.034 14.034 0 0 0-1.45 2.969.16.16 0 0 1-.097.1 14.34 14.34 0 0 0-2.692 1.334c-.15.096-.293.196-.44.296a.25.25 0 0 0-.113.244c0 .103-.017.207-.027.31-.01.103-.023.31-.03.464-.007.153 0 .333 0 .473v.13a.167.167 0 0 0 .264.137c.2-.14.403-.277.61-.417l.12-.083c.07-.054.14-.104.213-.15l.117-.077c.223-.15.474-.3.75-.454a.414.414 0 0 1 .497.1.41.41 0 0 1 .077.334c-.093.387-.17.76-.247 1.12l-.006.16a33.204 33.204 0 0 1-.43 1.935c-.167.64-.334 1.18-.524 1.787l-.047.11zm1.484 10.692l-.4-.146-.05-.03-.033-.057a10.542 10.542 0 0 1-.737-3.225 9.481 9.481 0 0 1-.024-1 .387.387 0 0 1 .39-.38.384.384 0 0 1 .264.1c.333.313.667.61 1 .893l.077.07c.454.404.93.837 1.38 1.274.451.437.881.91 1.365 1.438.126.136.257.273.383.413l.037.04a.04.04 0 0 0 .04 0c.515-.01 1.029-.056 1.537-.137a.167.167 0 0 0 .094-.283c-.334-.334-.64-.667-1-1.06l-.157-.18c-.394-.428-.82-.885-1.258-1.315a37.42 37.42 0 0 0-1.284-1.194l-.237-.213c-.51-.457-1-.884-1.487-1.364-.223-.207-.443-.427-.667-.647a.46.46 0 0 1-.113-.417c.07-.3.143-.597.223-.884.174-.647.364-1.25.527-1.767l.107-.354c.207-.61.39-1.184.54-1.794.15-.61.304-1.287.454-2.001l.06-.293c.11-.51.233-1.091.383-1.691.064-.264.14-.56.234-.877a.47.47 0 0 1 .31-.314c.26-.083.503-.15.727-.217l.143-.04c.707-.183 1.37-.333 1.981-.47l.247-.057c.607-.14 1.177-.273 1.748-.43.57-.157 1.2-.363 1.777-.547l.187-.06c.603-.2 1.25-.413 1.937-.617.404-.113.73-.2 1.034-.27.751-.18 1.515-.3 2.285-.36.28-.023.56-.037.834-.037h.667c1.104.058 2.193.291 3.224.69.046.016.082.05.1.094a10.402 10.402 0 0 1 .764 4.225.39.39 0 0 1-.667.28c-.333-.313-.667-.61-1-.893l-.167-.15a47.02 47.02 0 0 1-1.29-1.19c-.408-.394-.821-.851-1.248-1.308l-.127-.137-.273-.3-.074-.09a.137.137 0 0 0-.1-.037c-.502.012-1.004.058-1.5.137a.17.17 0 0 0-.097.283c.29.304.57.607.884.937l.257.284c.406.437.827.89 1.267 1.334.44.444.974.92 1.46 1.357l.23.2.18.167c.37.334.754.667 1.145 1.054.223.213.477.467.743.75a.183.183 0 0 1 .044.154 17.46 17.46 0 0 1-.257 1.037 62.444 62.444 0 0 1-.557 1.89l-.043.141c-.2.644-.39 1.254-.557 1.89-.167.638-.294 1.252-.45 2.002l-.08.383c-.11.514-.227 1.048-.364 1.608-.073.307-.167.65-.28 1.03a.177.177 0 0 1-.114.11c-.37.117-.717.217-1 .297-.707.187-1.374.334-1.974.474l-.097.02c-.624.143-1.27.29-1.908.463-.637.174-1.277.387-1.907.58l-.02.017-.314.104c-.53.173-1.077.353-1.667.523h-.04c-.234.07-.59.17-1 .264-.751.178-1.514.298-2.282.36-.277.023-.56.037-.834.037h-.667l-.423-.03-.374-.044-.113-.016-.314-.084a.333.333 0 0 1-.063 0c-.1 0-.2-.036-.294-.06a7.413 7.413 0 0 1-.553-.123 7.98 7.98 0 0 1-.737-.214h.003zm9.968 4.833a8.814 8.814 0 0 1-2.534.397 8.26 8.26 0 0 1-2.118-.257 8.588 8.588 0 0 1-4.002-2.388.387.387 0 0 1-.077-.42.394.394 0 0 1 .357-.237h.064c.363.053.74.093 1.11.113.257 0 .52.02.784.017.807-.01 1.613-.087 2.408-.23h.066a.4.4 0 0 1 .24.08 14.34 14.34 0 0 0 2.695 1.744c.334.154.667.304 1.024.44a.39.39 0 1 1-.02.74h.003zm5.16-4.046c-.581.902-1.3 1.707-2.131 2.385a.374.374 0 0 1-.247.093h-.064a10.205 10.205 0 0 1-3.058-.95c-.313-.154-.613-.334-.894-.487a.397.397 0 0 1 .09-.714c.334-.103.668-.206 1.001-.317l.277-.086c.667-.217 1.27-.417 1.89-.594.548-.15 1.108-.28 1.698-.41l.237-.057c.42-.093.847-.19 1.29-.297a.444.444 0 0 1 .094 0 .38.38 0 0 1 .334.19.394.394 0 0 1 0 .38c-.164.29-.34.588-.52.864h.003zm6.066-3.978a.394.394 0 0 0 0-.08c.064-.487.094-.977.09-1.468a.167.167 0 0 0-.263-.136c-.334.223-.64.437-1 .667-.258.173-.551.353-.871.53a.39.39 0 0 1-.497-.097.41.41 0 0 1-.077-.333c.083-.334.15-.667.217-1l.07-.308c.113-.58.257-1.267.43-1.94.157-.598.334-1.201.527-1.785l.033-.107c.13-.413.257-.837.387-1.28a.39.39 0 0 1 .377-.28.41.41 0 0 1 .334.18c.2.333.363.61.5.884.499.99.836 2.054 1 3.151.123.747.15 1.507.08 2.261 0 .15-.03.297-.056.44a8.297 8.297 0 0 1-6.384 7.004.39.39 0 0 1-.09 0 .377.377 0 0 1-.333-.22.38.38 0 0 1 .043-.417c.227-.284.444-.587.667-.904a14.43 14.43 0 0 0 1.408-2.848.467.467 0 0 1 .266-.267 13.927 13.927 0 0 0 2.608-1.314l.397-.263a.354.354 0 0 0 .11-.08l.027.01zm2.828-6.223a.39.39 0 0 1-.737.03 11.353 11.353 0 0 0-.46-1 14.49 14.49 0 0 0-1.764-2.645.45.45 0 0 1-.097-.36c.17-1.046.222-2.108.157-3.165-.034-.394-.074-.77-.13-1.111a.387.387 0 0 1 .386-.45.377.377 0 0 1 .264.1 8.314 8.314 0 0 1 2.368 8.6h.013z"/>
      <path d="M597.441 73.614l-.107.074-.353.224c.097-.075.195-.145.297-.21l.163-.088z"/>
    </g>
  </g>
</svg>