<?xml version="1.0" encoding="UTF-8"?>
<svg width="892px" height="388px" viewBox="0 0 892 388" version="1.1" xmlns="http://www.w3.org/2000/svg" xmlns:xlink="http://www.w3.org/1999/xlink">
    <!-- Generator: Sketch 50.2 (55047) - http://www.bohemiancoding.com/sketch -->
    <title>chapter-iii</title>
    <desc>Created with Sketch.</desc>
    <defs>
        <rect id="path-1" x="0" y="0.760555623" width="109.676108" height="136.239444" rx="6"></rect>
        <rect id="path-3" x="0.284242685" y="0.306666998" width="69.2108261" height="45.613334"></rect>
        <rect id="path-5" x="0.757958661" y="0.922333894" width="68.9879043" height="49.316589"></rect>
        <rect id="path-7" x="0.43050336" y="0.560732123" width="31" height="28.1575171" rx="2"></rect>
        <rect id="path-9" x="0" y="0.416078273" width="70" height="53.1813835"></rect>
        <path d="M117.757496,145.628237 L117.757496,213 L72.2602198,213 L72.2602198,143.8001 C56.5413107,135.313048 45.6998539,118.951249 45.0211021,99.9999625 C45.0098372,99.999984 44.9985689,100 44.9872968,100 C38.5314738,100 33.2979953,94.7665214 33.2979953,88.3106985 L33.2979953,73.6893015 C33.2979953,67.2334786 38.5314738,62 44.9872968,62 L44.9872968,51.8907471 C44.9872968,23.2322788 68.2195756,5.26447522e-15 96.8780439,0 C125.536512,-5.26447522e-15 148.768791,23.2322788 148.768791,51.8907471 L148.768791,62.0140301 C154.95622,62.3151996 159.880312,67.4272089 159.880312,73.6893015 L159.880312,88.3106985 C159.880312,94.5840419 154.93851,99.7031656 148.735429,99.9875466 C148.008733,120.412266 135.477699,137.830886 117.757496,145.628237 Z" id="path-11"></path>
        <path d="M72.3225045,0.0708856067 L72.3225045,20.3473629 C72.3225045,32.8580689 82.4644356,43 94.9751416,43 C107.485848,43 117.627779,32.8580689 117.627779,20.3473629 L117.627779,0.0708856067 C134.712244,2.09629638 147.831295,7.66339117 147.831295,22.0769231 C147.831295,22.2993778 147.82817,22.520897 147.821954,22.7414746 C172.360586,34.2151531 189.361129,59.1219741 189.361129,87.9994847 L189.361129,157.418704 L0.589153781,157.418704 L0.589153781,87.9994847 C0.589153781,59.1219741 17.5896967,34.2151531 42.1283297,22.7414746 C42.1221134,22.520897 42.1189884,22.2993778 42.1189884,22.0769231 C42.1189884,7.66339117 55.2380392,2.09629638 72.3225045,0.0708856067 Z" id="path-13"></path>
        <path d="M74.3718242,66.2483975 C72.448283,68.4209529 66.6543541,69.2570875 65.055813,68.4209529 C62.1020489,66.8759538 59.305947,65.219575 56.0581141,65.3331033 C52.8099588,65.219575 49.9949104,65.6027676 47.0061237,67.1675477 C44.6120744,68.4209529 41.0605925,68.4209529 38.5578776,66.2483975 C34.5178239,62.74131 35.1962915,57.1652432 37.7447052,53.1940487 C41.3707854,47.5425695 46.2899366,50.2761084 51.7901634,49.6313594 C53.2857402,49.4561452 54.7880886,49.0141722 56.0582647,48.2913314 C57.3284408,49.0141722 58.8304667,49.4561452 60.3260434,49.6313594 C65.8265928,50.2761084 70.2554628,47.5425695 73.8818655,53.1940487 C76.4299568,57.1652432 76.2953653,64.0758422 74.3718242,66.2483975 Z M108.572909,0.291331447 C105.354966,14.3661527 103.876408,28.7251068 101.54315,42.9624785 C101.05696,45.9303459 100.524666,48.8876409 99.9594872,51.8409713 C99.8408415,52.4611079 99.7238078,54.763906 99.1496012,55.0556379 C97.4102162,55.9397538 93.8653529,51.2380148 92.9174768,50.176481 C90.5368246,47.5105875 88.1764841,44.8205756 85.2770793,42.7285644 C79.4186244,38.5015918 72.5597412,36.0022133 65.4226208,35.4091684 C62.4364885,35.1607173 58.3986651,35.5938548 55.5843758,37.4017331 C52.7700864,35.5938548 48.732263,35.1607173 45.7458084,35.4091684 C38.608688,36.0022133 31.7498047,38.5015918 25.8913498,42.7285644 C22.991945,44.8205756 20.6319269,47.5105875 18.2509523,50.176481 C17.3030762,51.2380148 13.7582129,55.9397538 12.018828,55.0556379 C11.4446214,54.763906 11.3275877,52.4611079 11.208942,51.8409713 C10.6437628,48.8876409 10.111469,45.9303459 9.62527952,42.9624785 C7.29234356,28.7251068 5.81378576,14.3661527 2.595843,0.291331447 C1.65957351,0.291331447 0.838080863,19.0391479 0.733621044,20.7859046 C0.308366411,27.880307 -0.188140135,34.8167843 0.446356542,41.9174641 C1.54028298,54.1662358 2.680636,69.5252717 11.4507471,78.8788611 C19.375185,87.3308242 30.8808038,89.0977481 40.804601,94.4326586 C42.0822994,95.1195334 43.7771922,95.9676371 45.6049166,96.6624412 C47.5303303,98.2255026 51.348917,99.2913314 55.747836,99.2913314 C60.3621229,99.2913314 64.3377217,98.1187876 66.1593204,96.4291879 C67.7574911,95.7839419 69.2263767,95.0442052 70.3638281,94.4326586 C80.2868661,89.0965764 91.7932441,87.3308242 99.717682,78.8788611 C108.487793,69.5252717 109.628146,54.1662358 110.722395,41.9174641 C111.356569,34.8167843 110.860063,27.880307 110.43513,20.7859046 C110.330348,19.0391479 109.508856,0.291331447 108.572909,0.291331447 Z" id="path-15"></path>
        <filter x="-0.9%" y="-2.8%" width="101.8%" height="111.1%" filterUnits="objectBoundingBox" id="filter-17">
            <feOffset dx="0" dy="2" in="SourceAlpha" result="shadowOffsetOuter1"></feOffset>
            <feColorMatrix values="0 0 0 0 0   0 0 0 0 0   0 0 0 0 0  0 0 0 0.2 0" type="matrix" in="shadowOffsetOuter1" result="shadowMatrixOuter1"></feColorMatrix>
            <feMerge>
                <feMergeNode in="shadowMatrixOuter1"></feMergeNode>
                <feMergeNode in="SourceGraphic"></feMergeNode>
            </feMerge>
        </filter>
        <path d="M6.61802749,0.401490107 L213.580095,0.401490107 C216.893804,0.401490107 219.580095,3.08778161 219.580095,6.40149011 L219.580095,71.7463853 C219.580095,72.8509548 218.684665,73.7463853 217.580095,73.7463853 L2.61802749,73.7463853 C1.51345799,73.7463853 0.618027486,72.8509548 0.618027486,71.7463853 L0.618027486,6.40149011 C0.618027486,3.08778161 3.30431899,0.401490107 6.61802749,0.401490107 Z" id="path-18"></path>
    </defs>
    <g id="me" stroke="none" stroke-width="1" fill="none" fill-rule="evenodd">
        <g id="chapter-iii" transform="translate(1.547606, 2.000000)">
            <g id="Group-33" transform="translate(22.000000, 0.000000)">
                <path d="M331.342074,357.810407 L21.8835967,357.810407 C10.2856169,357.810407 0.883596654,348.408386 0.883596654,336.810407 L0.883596654,251.444471 C0.883596654,239.846491 10.2856169,230.444471 21.8835967,230.444471 L90.2032225,230.444471 C101.801202,230.444471 111.203222,221.042451 111.203222,209.444471 L111.203222,173.70261" id="Path-9" stroke="#D6DDE3" stroke-width="4" stroke-linecap="round" stroke-dasharray="8"></path>
                <path d="M327.418259,360 L327.418259,317.231155 C327.418259,305.633175 318.016239,296.231155 306.418259,296.231155 L250.086617,296.231155 C238.488638,296.231155 229.086617,286.829135 229.086617,275.231155 L229.086617,78.6227137 C229.086617,67.0247339 238.488638,57.6227137 250.086617,57.6227137 L258.520253,57.6227137" id="Path-10" stroke="#D6DDE3" stroke-width="4" stroke-linecap="round" stroke-dasharray="9"></path>
                <path d="M535.574253,324.25985 L535.574253,292.422196 C535.574253,281.928786 544.080843,273.422196 554.574253,273.422196 L588.574253,273.422196 C599.067664,273.422196 607.574253,264.915606 607.574253,254.422196 L607.574253,216.788802" id="Path-7" stroke="#D6DDE3" stroke-width="4" stroke-linecap="round" stroke-dasharray="8,8,8"></path>
                <path d="M538.240459,356.159906 L829.160584,356.159906 C840.758564,356.159906 850.160584,346.757886 850.160584,335.159906 L850.160584,109.764044 C850.160584,98.1660642 840.758564,88.764044 829.160584,88.764044 L779.54052,88.764044" id="Path-11" stroke="#D6DDE3" stroke-width="4" stroke-linecap="round" stroke-linejoin="round" stroke-dasharray="8"></path>
                <g id="Group-32-Copy" transform="translate(6.240248, 0.000000)">
                    <g id="Group-9-Copy-5" transform="translate(0.759752, 76.000000)">
                        <g id="Rectangle-9" transform="translate(543.175338, 0.904426)">
                            <g id="Group-25" transform="translate(0.251927, 0.505311)">
                                <path d="M6,0.314022289 L103.676108,0.314022289 C106.989817,0.314022289 109.676108,3.00031379 109.676108,6.31402229 L109.676108,45.1123781 L0,45.1123781 L0,6.31402229 C-4.05812251e-16,3.00031379 2.6862915,0.314022289 6,0.314022289 Z" id="Rectangle-9" fill="#0D97FF"></path>
                                <path d="M0.5,45.1123781 L107.072734,45.1123781" id="Line-4" stroke="#0F0F0F" stroke-width="4" stroke-linecap="square"></path>
                                <mask id="mask-2" fill="white">
                                    <use xlink:href="#path-1"></use>
                                </mask>
                                <use id="Mask" stroke="#0F0F0F" stroke-width="4" stroke-linecap="round" xlink:href="#path-1"></use>
                                <rect id="Rectangle-8" stroke="#0F0F0F" stroke-width="4" fill="#F9FAFA" mask="url(#mask-2)" x="55.2835293" y="12.8749155" width="42" height="41.8083212" rx="2"></rect>
                                <path d="M72.9218815,28.5316393 L80.1982333,33.362495 C80.4282898,33.5152322 80.4909694,33.8255477 80.3382322,34.0556042 C80.3013642,34.1111357 80.2537648,34.158735 80.1982333,34.1956031 L72.9218815,39.0264588 C72.6918251,39.179196 72.3815096,39.1165163 72.2287724,38.8864599 C72.1743534,38.8044927 72.1453264,38.708292 72.1453264,38.6099047 L72.1453264,28.9481934 C72.1453264,28.672051 72.369184,28.4481934 72.6453264,28.4481934 C72.7437137,28.4481934 72.8399143,28.4772203 72.9218815,28.5316393 Z" id="Rectangle-12" fill="#0F0F0F" mask="url(#mask-2)"></path>
                                <path d="M9.47397252,31.6575173 L31.3203479,31.6575173" id="Line-3" stroke="#FFFFFF" stroke-width="4" stroke-linecap="round" stroke-linejoin="round"></path>
                                <path d="M9.47397252,24.2132002 L41.0749841,24.2132002" id="Line-3-Copy" stroke="#0F0F0F" stroke-width="4" stroke-linecap="round" stroke-linejoin="round"></path>
                                <path d="M9.47397252,16.822989 L46.0807763,16.822989" id="Line-3-Copy-2" stroke="#0F0F0F" stroke-width="4" stroke-linecap="round" stroke-linejoin="round"></path>
                                <g id="Group-27" transform="translate(22.838054, 67.000000)" stroke-linecap="round" stroke-linejoin="round" stroke-width="4">
                                    <path d="M1.28352931,10.5 L63.755718,10.5" id="Line-3-Copy-4" stroke="#959595"></path>
                                    <path d="M1.28352931,17.5 L63.755718,17.5" id="Line-3-Copy-5" stroke="#959595"></path>
                                    <path d="M12.2835293,1.5 L52.2835293,1.5" id="Line-3-Copy-3" stroke="#0F0F0F"></path>
                                </g>
                                <g id="Group-37" transform="translate(9.338054, 96.000000)">
                                    <g id="Group-36">
                                        <path d="M0.622414044,19.5 L19.7663834,19.5" id="Line-3-Copy-6" stroke="#959595" stroke-width="4" stroke-linecap="round" stroke-linejoin="round"></path>
                                        <path d="M0.622414044,26.5 L19.7663834,26.5" id="Line-3-Copy-7" stroke="#959595" stroke-width="4" stroke-linecap="round" stroke-linejoin="round"></path>
                                        <circle id="Oval-10" fill="#0D97FF" cx="10.0150363" cy="6.89644602" r="6"></circle>
                                    </g>
                                    <g id="Group-35" transform="translate(35.000000, 0.000000)">
                                        <path d="M0.783529308,19.5 L19.9274987,19.5" id="Line-3-Copy-9" stroke="#959595" stroke-width="4" stroke-linecap="round" stroke-linejoin="round"></path>
                                        <path d="M0.783529308,26.5 L19.9274987,26.5" id="Line-3-Copy-8" stroke="#959595" stroke-width="4" stroke-linecap="round" stroke-linejoin="round"></path>
                                        <circle id="Oval-10-Copy" fill="#0D97FF" cx="10.2835293" cy="6.89644602" r="6"></circle>
                                    </g>
                                    <g id="Group-34" transform="translate(70.000000, 0.000000)">
                                        <path d="M0.740247659,19.5 L19.884217,19.5" id="Line-3-Copy-11" stroke="#959595" stroke-width="4" stroke-linecap="round" stroke-linejoin="round"></path>
                                        <path d="M0.740247659,26.5 L19.884217,26.5" id="Line-3-Copy-10" stroke="#959595" stroke-width="4" stroke-linecap="round" stroke-linejoin="round"></path>
                                        <circle id="Oval-10-Copy-2" fill="#0D97FF" cx="10.5520223" cy="6.89644602" r="6"></circle>
                                    </g>
                                </g>
                            </g>
                        </g>
                        <g id="Group-20" transform="translate(202.703773, 230.404426)" stroke="#0F0F0F" stroke-width="4">
                            <g id="Group-3" transform="translate(0.925723, 0.354133)">
                                <g id="Group" transform="translate(0.282532, 33.895014)">
                                    <path d="M10.3946214,0.879711406 L35.087129,0.879711406 C41.714546,0.879711406 47.087129,6.25229441 47.087129,12.8797114 L47.087129,37.2127933 C47.087129,39.9742171 44.8485528,42.2127933 42.087129,42.2127933 L-1.60537863,42.2127933 L-1.60537863,12.8797114 C-1.60537863,6.25229441 3.76720437,0.879711406 10.3946214,0.879711406 Z" id="Rectangle-2" fill="#FDFDFD" transform="translate(22.740875, 21.546252) rotate(-180.000000) translate(-22.740875, -21.546252) "></path>
                                    <path d="M40.990638,0.881395328 C52.7751185,0.881395328 61.4967092,-0.554570126 61.4967092,15.2375045 C61.4967092,31.0295791 55.7221225,31.9069617 45.1337358,31.9069617" id="Path-2"></path>
                                    <path d="M0.394621368,32.2511078 L47.1332297,32.2511078" id="Path-4"></path>
                                </g>
                                <g id="Group-3-Copy-2" transform="translate(23.426797, 11.382325) rotate(46.000000) translate(-23.426797, -11.382325) translate(15.926797, 3.882325)" stroke-linecap="round" stroke-linejoin="round">
                                    <path d="M14.7325499,14.6474489 C14.7325499,10.7020452 11.4427204,7.50333086 7.38431414,7.50333086" id="Stroke-156"></path>
                                    <path d="M0.0362997303,0.359454856 C0.0362997303,4.30485862 3.32612922,7.50357294 7.38453548,7.50357294" id="Stroke-158"></path>
                                </g>
                                <g id="Group-3-Copy-3" transform="translate(12.072560, 15.909219) rotate(46.000000) translate(-12.072560, -15.909219) translate(4.572560, 8.409219)" stroke-linecap="round" stroke-linejoin="round">
                                    <path d="M14.7325499,14.6474489 C14.7325499,10.7020452 11.4427204,7.50333086 7.38431414,7.50333086" id="Stroke-156"></path>
                                    <path d="M0.0362997303,0.359454856 C0.0362997303,4.30485862 3.32612922,7.50357294 7.38453548,7.50357294" id="Stroke-158"></path>
                                </g>
                                <g id="Group-3-Copy" transform="translate(34.781035, 15.459388) rotate(46.000000) translate(-34.781035, -15.459388) translate(27.281035, 7.959388)" stroke-linecap="round" stroke-linejoin="round">
                                    <path d="M14.7325499,14.6474489 C14.7325499,10.7020452 11.4427204,7.50333086 7.38431414,7.50333086" id="Stroke-156"></path>
                                    <path d="M0.0362997303,0.359454856 C0.0362997303,4.30485862 3.32612922,7.50357294 7.38453548,7.50357294" id="Stroke-158"></path>
                                </g>
                            </g>
                        </g>
                        <g id="Group-8" transform="translate(702.211710, 98.904426)">
                            <g id="Group-4">
                                <path d="M30.0681745,81.4421498 C24.9328016,78.4803534 21.4758662,72.9331178 21.4758662,66.5789412 C21.4758662,57.1099722 38.621104,36.3360818 38.621104,36.3360818 C38.621104,36.3360818 55.7669874,57.1099722 55.7669874,66.5789412 C55.7669874,76.0485558 48.0907186,83.7248246 38.621104,83.7248246" id="Fill-59" fill="#FDFDFD"></path>
                                <path d="M81.4658004,45.1943069 C86.6011732,42.2325105 90.0581087,36.6852749 90.0581087,30.3310983 C90.0581087,20.8621293 72.9128708,0.0882389268 72.9128708,0.0882389268 C72.9128708,0.0882389268 55.7669874,20.8621293 55.7669874,30.3310983 C55.7669874,39.8007129 63.4432562,47.4769817 72.9128708,47.4769817" id="Fill-60" fill="#FDFDFD"></path>
                                <path d="M121.329076,127.008446 L24.4961497,127.008446 C24.4961497,136.952542 32.557168,145.014206 42.5012639,145.014206 L103.323961,145.014206 C113.268057,145.014206 121.329076,136.952542 121.329076,127.008446 L121.329076,127.008446 Z" id="Stroke-143" stroke="#0F0F0F" stroke-width="4" stroke-linecap="round"></path>
                                <polygon id="Path-5" stroke="#0F0F0F" stroke-width="4" fill="#FFFFFF" stroke-linecap="round" points="42.8762554 145.014206 49.5659076 208.95639 102.005781 208.95639 108.514926 145.014206"></polygon>
                                <path d="M72.9126126,127.008446 L72.9126126,92.7173247" id="Stroke-154" stroke="#1D2B36" stroke-width="4" stroke-linecap="round" stroke-linejoin="round"></path>
                                <path d="M72.9126126,91.5314441 L72.9126126,57.2403229" id="Stroke-155" stroke="#1D2B36" stroke-width="4" stroke-linecap="round" stroke-linejoin="round"></path>
                                <path d="M72.9126126,118.435633 C72.9126126,108.966664 65.2363438,101.28975 55.7667292,101.28975" id="Stroke-156" stroke="#0F0F0F" stroke-width="4" stroke-linecap="round" stroke-linejoin="round"></path>
                                <path d="M90.0582378,80.4479474 C80.5886232,80.4479474 72.9123544,88.1242162 72.9123544,97.5938308" id="Stroke-157" stroke="#0F0F0F" stroke-width="4" stroke-linecap="round"></path>
                                <path d="M38.6213622,84.1444475 C38.6213622,93.6134166 46.2976311,101.290331 55.7672457,101.290331" id="Stroke-158" stroke="#0F0F0F" stroke-width="4" stroke-linecap="round" stroke-linejoin="round"></path>
                                <path d="M90.0582378,80.3237431 C99.5272068,80.3237431 107.203476,72.6474743 107.203476,63.1778597" id="Stroke-160" stroke="#0F0F0F" stroke-width="4" stroke-linecap="round"></path>
                                <path d="M38.6213622,76.8187004 L38.6213622,60.0304532" id="Stroke-163" stroke="#0F0F0F" stroke-width="4" stroke-linecap="round" stroke-linejoin="round"></path>
                                <path d="M38.6213622,73.9610962 L44.1873188,68.3951396" id="Stroke-164" stroke="#0F0F0F" stroke-width="4" stroke-linecap="round" stroke-linejoin="round"></path>
                                <path d="M115.776353,57.3591046 L115.776353,40.5708575" id="Stroke-163-Copy" stroke="#0F0F0F" stroke-width="4" stroke-linecap="round"></path>
                                <path d="M115.776353,54.5015004 L121.342309,48.9355438" id="Stroke-164-Copy" stroke="#0F0F0F" stroke-width="4" stroke-linecap="round"></path>
                                <path d="M81.4658004,45.1943069 C86.6011732,42.2325105 90.0581087,36.6852749 90.0581087,30.3310983 C90.0581087,20.8621293 72.9128708,0.0882389268 72.9128708,0.0882389268 C72.9128708,0.0882389268 55.7669874,20.8621293 55.7669874,30.3310983 C55.7669874,39.8007129 63.4432562,47.4769817 72.9128708,47.4769817" id="Stroke-165" stroke="#0F0F0F" stroke-width="4" stroke-linecap="round" stroke-linejoin="round"></path>
                                <path d="M72.9126126,47.4767235 L72.9126126,57.2400646" id="Stroke-166" stroke="#0F0F0F" stroke-width="4" stroke-linecap="round" stroke-linejoin="round"></path>
                                <path d="M72.9126126,40.5708575 L72.9126126,23.7826103" id="Stroke-167" stroke="#0F0F0F" stroke-width="4" stroke-linecap="round" stroke-linejoin="round"></path>
                                <path d="M72.9126126,37.7132533 L78.4785692,32.1472967" id="Stroke-168" stroke="#0F0F0F" stroke-width="4" stroke-linecap="round" stroke-linejoin="round"></path>
                                <path d="M72.9126126,32.9505581 L67.346656,27.3846015" id="Stroke-169" stroke="#0F0F0F" stroke-width="4" stroke-linecap="round" stroke-linejoin="round"></path>
                                <path d="M72.9126126,76.2264838 C72.9126126,66.7575147 65.2363438,59.0806003 55.7667292,59.0806003" id="Stroke-174" stroke="#0F0F0F" stroke-width="4" stroke-linecap="round" stroke-linejoin="round"></path>
                                <path d="M7.35026628,38.355617 C7.35026628,47.8252316 15.0265351,55.5015004 24.4961497,55.5015004" id="Stroke-159" stroke="#0F0F0F" stroke-width="4" stroke-linecap="round" stroke-linejoin="round"></path>
                                <path d="M13.7405293,31.414181 C13.7405293,27.8849436 10.8794391,25.0238534 7.35020173,25.0238534 C3.82096436,25.0238534 0.959874175,27.8849436 0.959874175,31.414181 C0.959874175,34.9434184 3.82096436,37.8045085 7.35020173,37.8045085 C10.8794391,37.8045085 13.7405293,34.9434184 13.7405293,31.414181 L13.7405293,31.414181 Z" id="Stroke-173" stroke="#0F0F0F" stroke-width="4" fill="#FDFDFD" stroke-linecap="round" stroke-linejoin="round"></path>
                                <path d="M113.582441,90.3903276 C113.582441,86.8610902 110.721351,84 107.192114,84 C103.662877,84 100.801786,86.8610902 100.801786,90.3903276 C100.801786,93.9195649 103.662877,96.7806551 107.192114,96.7806551 C110.721351,96.7806551 113.582441,93.9195649 113.582441,90.3903276 L113.582441,90.3903276 Z" id="Stroke-173-Copy" stroke="#1D2B36" stroke-width="4" fill="#FDFDFD" stroke-linecap="round" stroke-linejoin="round"></path>
                                <path d="M72.9012509,97.869329 C72.9012509,107.338298 80.5775197,115.015212 90.0471343,115.015212" id="Stroke-88" stroke="#0F0F0F" stroke-width="4" stroke-linecap="round"></path>
                                <path d="M90.0468761,115.01489 C99.5158451,115.01489 107.192114,107.338621 107.192114,97.8690062" id="Stroke-95" stroke="#0F0F0F" stroke-width="4" stroke-linecap="round"></path>
                            </g>
                        </g>
                        <g id="Group-19" transform="translate(578.605821, 246.000000)">
                            <g id="Group-10-Copy" opacity="0.15" transform="translate(15.000000, 26.000000)" stroke="#0F0F0F" stroke-linecap="square" stroke-width="0.25">
                                <g id="Group-7" transform="translate(0.192964, 19.517145)">
                                    <g id="Group-5" transform="translate(0.541524, 0.112676)">
                                        <path d="M1.13017368,2.74709494 L114.5986,2.74709494" id="Line-2"></path>
                                        <path d="M1.13017368,4.49357382 L114.5986,4.49357382" id="Line-2-Copy"></path>
                                        <path d="M1.13017368,6.24005269 L114.5986,6.24005269" id="Line-2-Copy-2"></path>
                                        <path d="M1.13017368,7.98653156 L114.5986,7.98653156" id="Line-2-Copy-3"></path>
                                        <path d="M1.13017368,9.73301044 L114.5986,9.73301044" id="Line-2-Copy-4"></path>
                                        <path d="M1.13017368,11.4794893 L114.5986,11.4794893" id="Line-2-Copy-5"></path>
                                        <path d="M1.13017368,1.00061607 L114.5986,1.00061607" id="Line-2-Copy-6"></path>
                                    </g>
                                </g>
                                <g id="Group-6" transform="translate(0.192964, 0.179117)">
                                    <g id="Group-5-Copy" transform="translate(0.459387, 0.548680)">
                                        <path d="M1.0182696,2.74709494 L103.251626,2.74709494" id="Line-2"></path>
                                        <path d="M1.0182696,4.49357382 L103.251626,4.49357382" id="Line-2-Copy"></path>
                                        <path d="M1.0182696,6.24005269 L103.251626,6.24005269" id="Line-2-Copy-2"></path>
                                        <path d="M1.0182696,7.98653156 L103.251626,7.98653156" id="Line-2-Copy-3"></path>
                                        <path d="M1.0182696,9.73301044 L103.251626,9.73301044" id="Line-2-Copy-4"></path>
                                        <path d="M1.0182696,11.4794893 L103.251626,11.4794893" id="Line-2-Copy-5"></path>
                                        <path d="M1.0182696,1.00061607 L103.251626,1.00061607" id="Line-2-Copy-6"></path>
                                    </g>
                                </g>
                            </g>
                            <g id="Group-10">
                                <g id="Group-7" transform="translate(0.192964, 39.517145)">
                                    <path d="M2.64085699,2.54225352 L2.64085699,21.6830986 L129.640857,21.6830986 L129.640857,6.54225352 C129.640857,4.33311452 127.849996,2.54225352 125.640857,2.54225352 L2.64085699,2.54225352 Z" id="Rectangle-3" stroke="#1D2B36" stroke-width="4" fill="#FDFDFD"></path>
                                    <g id="Group-5" transform="translate(13.541524, 6.112676)" stroke="#0F0F0F" stroke-linecap="round" stroke-width="0.25">
                                        <path d="M1.13017368,2.74709494 L114.5986,2.74709494" id="Line-2"></path>
                                        <path d="M1.13017368,4.49357382 L114.5986,4.49357382" id="Line-2-Copy"></path>
                                        <path d="M1.13017368,6.24005269 L114.5986,6.24005269" id="Line-2-Copy-2"></path>
                                        <path d="M1.13017368,7.98653156 L114.5986,7.98653156" id="Line-2-Copy-3"></path>
                                        <path d="M1.13017368,9.73301044 L114.5986,9.73301044" id="Line-2-Copy-4"></path>
                                        <path d="M1.13017368,11.4794893 L114.5986,11.4794893" id="Line-2-Copy-5"></path>
                                        <path d="M1.13017368,1.00061607 L114.5986,1.00061607" id="Line-2-Copy-6"></path>
                                    </g>
                                </g>
                                <g id="Group-6" transform="translate(0.192964, 20.179117)" fill="#FDFDFD" stroke="#1D2B36" stroke-width="4">
                                    <path d="M2.64085699,2.3220962 L2.64085699,21.4629413 L118.21382,21.4629413 L118.21382,6.3220962 C118.21382,4.1129572 116.422959,2.3220962 114.21382,2.3220962 L2.64085699,2.3220962 Z" id="Rectangle-3-Copy"></path>
                                </g>
                                <g id="Group-6-Copy" transform="translate(0.192964, 0.081654)">
                                    <path d="M2.64085699,22.1191022 L108.448914,22.1191022 L108.448914,6.97825717 C108.448914,4.76911817 106.658053,2.97825717 104.448914,2.97825717 L6.64085699,2.97825717 C4.43171799,2.97825717 2.64085699,4.76911817 2.64085699,6.97825717 L2.64085699,22.1191022 Z" id="Rectangle-3-Copy" stroke="#1D2B36" stroke-width="4" fill="#FDFDFD"></path>
                                    <g id="Group-5-Copy" transform="translate(13.190345, 6.548680)" stroke="#0F0F0F" stroke-linecap="round" stroke-width="0.25">
                                        <path d="M0.918755179,2.74709494 L93.1609533,2.74709494" id="Line-2"></path>
                                        <path d="M0.918755179,4.49357382 L93.1609533,4.49357382" id="Line-2-Copy"></path>
                                        <path d="M0.918755179,6.24005269 L93.1609533,6.24005269" id="Line-2-Copy-2"></path>
                                        <path d="M0.918755179,7.98653156 L93.1609533,7.98653156" id="Line-2-Copy-3"></path>
                                        <path d="M0.918755179,9.73301044 L93.1609533,9.73301044" id="Line-2-Copy-4"></path>
                                        <path d="M0.918755179,11.4794893 L93.1609533,11.4794893" id="Line-2-Copy-5"></path>
                                        <path d="M0.918755179,1.00061607 L93.1609533,1.00061607" id="Line-2-Copy-6"></path>
                                    </g>
                                </g>
                            </g>
                        </g>
                        <g id="Group-21" transform="translate(0.252768, 167.693295)">
                            <g id="Group-15" transform="translate(90.719424, 71.785751) scale(-1, 1) translate(-90.719424, -71.785751) translate(0.719424, 0.285751)">
                                <path d="M127.041667,21.5833333 L126.998464,21.5833333 L126.998464,8.7105625 C126.998464,5.0056523 123.995041,2.00222917 120.290131,2.00222917 L102.873464,2.00222917 C99.1685541,2.00222917 96.165131,5.0056523 96.165131,8.7105625 L96.165131,21.5833333 L52.625,21.5833333 L52.625,8.7105625 C52.625,5.0056523 49.6215769,2.00222917 45.9166667,2.00222917 L28.5,2.00222917 C24.7950898,2.00222917 21.7916667,5.0056523 21.7916667,8.7105625 L21.7916667,133.767322 C21.7916667,137.035007 24.4406486,139.683989 27.7083333,139.683989 L117.152151,139.683989 L117.152151,139.698247 L145.273286,139.698247 C151.164324,139.698247 155.939953,134.922617 155.939953,129.03158 L155.939953,82.5632655 C155.939953,79.2725689 158.60759,76.6049322 161.898286,76.6049322 L172.555399,76.6049322 C175.47438,76.6049322 177.840681,74.2386307 177.840681,71.3196499 C177.840681,68.4006691 175.47438,66.0343676 172.555399,66.0343676 L155.855031,66.0343676 C150.401219,66.0343676 145.980031,70.4555557 145.980031,75.9093676 L145.980031,122.046626 C145.980031,126.648999 142.249071,130.379959 137.646698,130.379959 L127.041667,130.379959 L127.041667,21.5833333 Z" id="Combined-Shape" stroke="#0F0F0F" stroke-width="4" fill="#FDFDFD"></path>
                                <g id="Rectangle-7" transform="translate(34.791667, 97.583333)" stroke="#0F0F0F" stroke-width="4">
                                    <path d="M2.93012993,42.2848553 L76.3198701,42.2848553 L76.3198701,39.2204779 C76.3198701,18.9544608 59.8910171,2.52560787 39.625,2.52560787 C19.3589829,2.52560787 2.93012993,18.9544608 2.93012993,39.2204779 L2.93012993,42.2848553 Z"></path>
                                </g>
                                <g id="Group-17" transform="translate(41.416667, 45.458333)">
                                    <g id="Group-23" transform="translate(11.807629, 11.485554) rotate(209.000000) translate(-11.807629, -11.485554) translate(2.807629, 3.985554)">
                                        <ellipse id="Oval-7" stroke="#0F0F0F" stroke-width="4" fill="#FDFDFD" cx="7.75596713" cy="7.42087434" rx="9.53351142" ry="9.13142529"></ellipse>
                                        <ellipse id="Oval-8" fill="#0F0F0F" cx="12.8415451" cy="7.78955787" rx="4.75800722" ry="4.72537409"></ellipse>
                                    </g>
                                    <g id="Group-23-Copy" transform="translate(52.244938, 11.727959) rotate(209.000000) translate(-52.244938, -11.727959) translate(43.744938, 4.227959)">
                                        <ellipse id="Oval-7" stroke="#0F0F0F" stroke-width="4" fill="#FDFDFD" cx="7.75596713" cy="7.42087434" rx="9.53351142" ry="9.13142529"></ellipse>
                                        <ellipse id="Oval-8" fill="#0F0F0F" cx="11.5771154" cy="9.63379682" rx="4.75800722" ry="4.72537409"></ellipse>
                                    </g>
                                </g>
                                <g id="Group-18" transform="translate(61.354167, 21.958333)" stroke="#0F0F0F" stroke-linecap="round" stroke-width="4">
                                    <path d="M1.06745709,0.616504741 L1.06745709,18.319193" id="Path-6"></path>
                                    <path d="M12.9866089,0.616504741 L12.9866089,18.319193" id="Path-6-Copy-3"></path>
                                    <path d="M24.9057608,0.616504741 L24.9057608,18.319193" id="Path-6-Copy-4"></path>
                                </g>
                                <g id="Group-18-Copy" transform="translate(134.351680, 60.395833) rotate(-270.000000) translate(-134.351680, -60.395833) translate(120.851680, 44.395833)" stroke="#0F0F0F" stroke-linecap="round" stroke-width="4">
                                    <path d="M1.06745709,0.275416009 L1.06745709,30.9162704" id="Path-6"></path>
                                    <path d="M12.9866089,5.13225547 L12.9866089,30.9162704" id="Path-6-Copy-3"></path>
                                    <path d="M24.9057608,11.1279524 L24.9057608,30.9162704" id="Path-6-Copy-4"></path>
                                </g>
                                <g id="Group-18-Copy-2" transform="translate(16.166667, 60.395833) rotate(-270.000000) translate(-16.166667, -60.395833) translate(2.666667, 44.895833)" stroke="#0F0F0F" stroke-linecap="round" stroke-width="4">
                                    <path d="M1.06745709,0.275416009 L1.06745709,30.9162704" id="Path-6"></path>
                                    <path d="M12.9866089,0.275416009 L12.9866089,25.4472422" id="Path-6-Copy-3"></path>
                                    <path d="M24.9057608,0.275416009 L24.9057608,20.4514626" id="Path-6-Copy-4"></path>
                                </g>
                                <g id="Group-16" transform="translate(64.250000, 69.833333)">
                                    <ellipse id="Oval-4" fill="#0F0F0F" cx="9.77083333" cy="3.28166033" rx="9.01786787" ry="2.676673"></ellipse>
                                    <path d="M10.1979562,5.95833333 C10.1979562,9.9037371 13.4877857,13.1024514 17.546192,13.1024514" id="Stroke-158" stroke="#0F0F0F" stroke-width="4" stroke-linecap="round" stroke-linejoin="round"></path>
                                    <path d="M1.99547471,5.95833333 C1.99547471,9.9037371 5.2853042,13.1024514 9.34371046,13.1024514" id="Stroke-158-Copy" stroke="#0F0F0F" stroke-width="4" stroke-linecap="round" stroke-linejoin="round" transform="translate(5.669593, 9.530392) scale(-1, 1) translate(-5.669593, -9.530392) "></path>
                                </g>
                                <circle id="Oval-5" stroke="#0F0F0F" stroke-width="4" cx="109.152862" cy="94.3958333" r="5.9375"></circle>
                                <circle id="Oval-5-Copy" stroke="#0F0F0F" stroke-width="4" cx="37.6041667" cy="94.3958333" r="5.9375"></circle>
                            </g>
                        </g>
                    </g>
                    <g id="Group-26" transform="translate(254.372567, 0.000000)">
                        <g id="Rectangle-11" transform="translate(-0.000000, 0.000000)">
                            <g id="Rectangle-14-Copy-3" transform="translate(1.000000, 124.000000)">
                                <mask id="mask-4" fill="white">
                                    <use xlink:href="#path-3"></use>
                                </mask>
                                <use id="Mask" fill="#FDFDFD" xlink:href="#path-3"></use>
                                <g id="Group-22" mask="url(#mask-4)">
                                    <g transform="translate(40.000000, 11.000000)">
                                        <circle id="Oval" stroke="none" fill="#0D97FF" fill-rule="evenodd" cx="11.8836426" cy="11.3419153" r="11.3352857"></circle>
                                        <polyline id="Path-8" stroke="#FDFDFD" stroke-width="4" fill="none" stroke-linecap="round" stroke-linejoin="round" points="7.00560389 11.8674274 10.677182 14.6296717 16.1250168 8.39053883"></polyline>
                                    </g>
                                </g>
                            </g>
                            <rect id="Rectangle-11-Copy-4" fill="#0D97FF" x="0.0271506397" y="169.033369" width="69.4993269" height="23.4538493"></rect>
                            <g id="Rectangle-14" transform="translate(0.000000, 75.000000)">
                                <mask id="mask-6" fill="white">
                                    <use xlink:href="#path-5"></use>
                                </mask>
                                <use id="Mask-Copy" fill="#FDFDFD" xlink:href="#path-5"></use>
                                <g mask="url(#mask-6)" id="Rectangle-+-Rectangle-Copy-+-Rectangle-Copy-2-Mask">
                                    <g transform="translate(-5.000000, 13.000000)">
                                        <g>
                                            <mask id="mask-8" fill="white">
                                                <use xlink:href="#path-7"></use>
                                            </mask>
                                            <use id="Mask" fill="#0D97FF" xlink:href="#path-7"></use>
                                            <rect id="Rectangle" fill="#0F0F0F" mask="url(#mask-8)" x="10.045191" y="17.7086205" width="4" height="14.6352574" rx="2"></rect>
                                            <rect id="Rectangle-Copy" fill="#0F0F0F" mask="url(#mask-8)" x="15.545191" y="11.1824051" width="4" height="23.1614728" rx="2"></rect>
                                            <rect id="Rectangle-Copy-2" fill="#0F0F0F" mask="url(#mask-8)" x="22.045191" y="5.07336319" width="4" height="29.2705147" rx="2"></rect>
                                        </g>
                                    </g>
                                </g>
                            </g>
                            <g id="Group-9" transform="translate(1.000000, 23.000000)">
                                <mask id="mask-10" fill="white">
                                    <use xlink:href="#path-9"></use>
                                </mask>
                                <use id="Mask" fill="#FDFDFD" xlink:href="#path-9"></use>
                                <g mask="url(#mask-10)">
                                    <g transform="translate(7.000000, 10.000000)">
                                        <rect id="Rectangle-10" stroke="none" fill="#000000" fill-rule="evenodd" x="20.2924331" y="0.157640906" width="34.5228469" height="21.6068344" rx="2"></rect>
                                        <path d="M0.639776545,14 L13.3254263,14" id="Line-6" stroke="#959595" stroke-width="4" fill="none" stroke-linecap="round"></path>
                                        <path d="M0.639776545,20 L13.3254263,20" id="Line-6-Copy-15" stroke="#959595" stroke-width="4" fill="none" stroke-linecap="round"></path>
                                        <path d="M0.639776545,2 L13.3254263,2" id="Line-6-Copy" stroke="#0F0F0F" stroke-width="4" fill="none" stroke-linecap="round"></path>
                                        <path d="M0.639776545,8 L13.3254263,8" id="Line-6-Copy-14" stroke="#959595" stroke-width="4" fill="none" stroke-linecap="round"></path>
                                        <path d="M0.661450933,28.7605059 L53.6905769,28.7605059" id="Line-6-Copy-2" stroke="#959595" stroke-width="4" fill="none" stroke-linecap="round"></path>
                                        <path d="M0.661450933,35.7605059 L53.6905769,35.7605059" id="Line-6-Copy-3" stroke="#959595" stroke-width="4" fill="none" stroke-linecap="round"></path>
                                        <path d="M36.1250817,8.28013561 L39.5356876,10.544477 C39.7657441,10.6972142 39.8284237,11.0075298 39.6756865,11.2375862 C39.6388185,11.2931177 39.5912192,11.3407171 39.5356876,11.3775851 L36.1250817,13.6419265 C35.8950253,13.7946637 35.5847098,13.7319841 35.4319726,13.5019276 C35.3775536,13.4199604 35.3485266,13.3237598 35.3485266,13.2253725 L35.3485266,8.69668964 C35.3485266,8.42054726 35.5723842,8.19668964 35.8485266,8.19668964 C35.9469139,8.19668964 36.0431145,8.2257166 36.1250817,8.28013561 Z" id="Rectangle-12" stroke="none" fill="#FDFDFD" fill-rule="evenodd"></path>
                                    </g>
                                </g>
                            </g>
                            <g id="Group-14" transform="translate(1.000000, 0.988346)">
                                <rect id="Rectangle-11-Copy" fill="#0D97FF" x="0.320890284" y="0.099295137" width="69.0493609" height="19.0912302"></rect>
                                <path d="M0.820890284,20.6905253 L68.8208903,20.6905253" id="Line-4" stroke="#0F0F0F" stroke-width="4" stroke-linecap="square"></path>
                                <path d="M0.870251153,168.921529 L68.8702512,168.921529" id="Line-4-Copy" stroke="#0F0F0F" stroke-width="4" stroke-linecap="square"></path>
                                <path d="M48.3203046,10.8449102 L57.9535803,10.8449102" id="Line-5" stroke="#FFFFFF" stroke-width="4" stroke-linecap="round"></path>
                                <path d="M30.0702512,10.8449102 L39.7035268,10.8449102" id="Line-5-Copy-2" stroke="#FFFFFF" stroke-width="4" stroke-linecap="round"></path>
                                <path d="M11.8201977,10.8449102 L21.4534733,10.8449102" id="Line-5-Copy" stroke="#FFFFFF" stroke-width="4" stroke-linecap="round"></path>
                            </g>
                            <rect id="Mask" stroke="#0F0F0F" stroke-width="4" x="0.0271506397" y="0.988345974" width="71.0424125" height="192.465503" rx="6"></rect>
                        </g>
                        <path d="M34.0483569,95.5 L49.5,95.5" id="Line-6-Copy-4" stroke="#0F0F0F" stroke-width="4" stroke-linecap="round"></path>
                        <path d="M34.0264875,103.5 L61.7580664,103.5" id="Line-6-Copy-5" stroke="#959595" stroke-width="4" stroke-linecap="round"></path>
                        <path d="M34.0264875,109.5 L61.7580664,109.5" id="Line-6-Copy-6" stroke="#959595" stroke-width="4" stroke-linecap="round"></path>
                        <path d="M17.5483569,137.5 L33,137.5" id="Line-6-Copy-13" stroke="#0F0F0F" stroke-width="4" stroke-linecap="round"></path>
                        <path d="M8.07310988,144.5 L33.2064432,144.5" id="Line-6-Copy-12" stroke="#959595" stroke-width="4" stroke-linecap="round"></path>
                        <path d="M8.07310988,150.5 L33.2064432,150.5" id="Line-6-Copy-11" stroke="#959595" stroke-width="4" stroke-linecap="round"></path>
                        <path d="M26.1881334,158.782692 L32.6881334,158.782692" id="Line-6-Copy-8" stroke="#0D97FF" stroke-width="4" stroke-linecap="round"></path>
                        <g id="Group-38" transform="translate(21.776814, 176.000000)" stroke="#FDFDFD" stroke-linecap="round" stroke-width="4">
                            <path d="M0.5,2.43981515 L25.5000441,2.43981515" id="Line-6-Copy-9"></path>
                            <path d="M3.97879376,9.27791354 L21.9787938,9.27791354" id="Line-6-Copy-10"></path>
                        </g>
                    </g>
                    <g id="Group-29" transform="translate(4.000000, 79.000000)" stroke-width="4">
                        <g id="Group-28">
                            <rect id="Rectangle-16" stroke="#0F0F0F" fill="#394956" x="2.40067152" y="2.09667717" width="176.004409" height="105.558153" rx="6"></rect>
                            <g id="Group-27-Copy-3" transform="translate(13.081083, 11.125753)" stroke-linecap="round">
                                <path d="M0.961304221,1.5 L18.0468484,1.5" id="Line-9" stroke="#0D97FF"></path>
                                <path d="M5.66562535,9.58333333 L36.2289649,9.58333333" id="Line-9-Copy" stroke="#FDFDFD"></path>
                                <path d="M5.66562535,17.4166667 L41.2294115,17.4166667" id="Line-9-Copy-2" stroke="#FDFDFD"></path>
                                <path d="M5.66562535,25.25 L40.8063686,25.25" id="Line-9-Copy-4" stroke="#FDFDFD"></path>
                            </g>
                            <g id="Group-27-Copy-4" transform="translate(13.081083, 45.625753)" stroke-linecap="round">
                                <path d="M0.961304221,1.5 L18.0468484,1.5" id="Line-9" stroke="#0D97FF"></path>
                                <path d="M5.66562535,9.58333333 L36.2289649,9.58333333" id="Line-9-Copy" stroke="#FDFDFD"></path>
                                <path d="M5.66562535,17.4166667 L41.2294115,17.4166667" id="Line-9-Copy-2" stroke="#FDFDFD"></path>
                                <path d="M5.66562535,25.25 L40.8063686,25.25" id="Line-9-Copy-4" stroke="#FDFDFD"></path>
                            </g>
                            <g id="Group-27-Copy-6" transform="translate(13.081083, 79.625753)" stroke-linecap="round">
                                <path d="M0.961304221,1.5 L18.0468484,1.5" id="Line-9" stroke="#0D97FF"></path>
                                <path d="M5.66562535,9.58333333 L36.2289649,9.58333333" id="Line-9-Copy" stroke="#FDFDFD"></path>
                                <path d="M5.66562535,17.4166667 L41.2294115,17.4166667" id="Line-9-Copy-2" stroke="#FDFDFD"></path>
                            </g>
                            <g id="Group-27-Copy" transform="translate(84.000000, 63.500000)" stroke-linecap="round">
                                <path d="M0.976242204,1.69843265 L27.4809588,1.69843265" id="Line-9" stroke="#0DFF6F"></path>
                                <path d="M0.976242204,33.038831 L27.4809588,33.038831" id="Line-9-Copy-5" stroke="#0DFF6F"></path>
                                <path d="M7.35382332,8.90679189 L71.5368176,8.90679189" id="Line-9-Copy" stroke="#FDFDFD"></path>
                                <path d="M7.35382332,16.8279102 L74.9306334,16.8279102" id="Line-9-Copy-3" stroke="#FDFDFD"></path>
                                <path d="M7.35382332,24.7818696 L81.1493625,24.7818696" id="Line-9-Copy-4" stroke="#FDFDFD"></path>
                            </g>
                            <g id="Group-27-Copy-5" transform="translate(84.000000, 11.500000)" stroke-linecap="round">
                                <path d="M0.976242204,1.69843265 L27.4809588,1.69843265" id="Line-9" stroke="#0DFF6F"></path>
                                <path d="M0.976242204,40.9069473 L27.4809588,40.9069473" id="Line-9-Copy-5" stroke="#0DFF6F"></path>
                                <path d="M7.35382332,8.90679189 L71.5368176,8.90679189" id="Line-9-Copy" stroke="#FDFDFD"></path>
                                <path d="M7.35382332,16.8279102 L74.9306334,16.8279102" id="Line-9-Copy-3" stroke="#FDFDFD"></path>
                                <path d="M7.35382332,24.7818696 L81.1493625,24.7818696" id="Line-9-Copy-4" stroke="#FDFDFD"></path>
                                <path d="M7.35382332,33.038831 L81.1493625,33.038831" id="Line-9-Copy-7" stroke="#FDFDFD"></path>
                            </g>
                            <path d="M73.5,3.5 L73.5,105.676318" id="Line-10" stroke="#0F0F0F" stroke-linecap="square"></path>
                        </g>
                    </g>
                    <g id="Group-31" transform="translate(712.000000, 26.000000)" stroke-linecap="round" stroke-linejoin="round" stroke-width="4">
                        <rect id="Rectangle-17" stroke="#0F0F0F" fill="#394956" x="0.259752341" y="0" width="79" height="123" rx="6"></rect>
                        <g id="Group-30" transform="translate(7.759752, 9.500000)">
                            <path d="M0.862352939,1.5 L44,1.5" id="Line-11" stroke="#0DFF6F"></path>
                            <path d="M0.98510588,10.7 L62.6376471,10.7" id="Line-11-Copy" stroke="#0DFF6F"></path>
                            <path d="M0.98510588,19.65 L57,19.65" id="Line-11-Copy-2" stroke="#FDFDFD"></path>
                            <path d="M0.98510588,28.6 L62.6376471,28.6" id="Line-11-Copy-3" stroke="#0DFF6F"></path>
                            <path d="M0.98510588,37.55 L59,37.55" id="Line-11-Copy-4" stroke="#FFFFFF"></path>
                            <path d="M0.98510588,46.5 L62.6376471,46.5" id="Line-11-Copy-5" stroke="#FFFFFF"></path>
                            <path d="M0.98510588,55.45 L54,55.45" id="Line-11-Copy-6" stroke="#FDFDFD"></path>
                            <path d="M0.98510588,64.4 L58,64.4" id="Line-11-Copy-7" stroke="#0DFF6F"></path>
                            <path d="M0.98510588,73.35 L62.6376471,73.35" id="Line-11-Copy-8" stroke="#0DFF6F"></path>
                            <path d="M0.98510588,82.3 L59,82.3" id="Line-11-Copy-9" stroke="#0DFF6F"></path>
                            <path d="M0.98510588,91.25 L63,91.25" id="Line-11-Copy-10" stroke="#FDFDFD"></path>
                            <path d="M1.08803912,99.9175878 L1.08803912,103" id="Line-11-Copy-11" stroke="#0DFF6F"></path>
                        </g>
                    </g>
                </g>
            </g>
            <g id="Group-13" transform="translate(355.000000, 56.404426)">
                <g id="Group-Copy-3" transform="translate(0.327523, 17.904426)">
                    <g id="Body">
                        <mask id="mask-12" fill="white">
                            <use xlink:href="#path-11"></use>
                        </mask>
                        <use fill="#FFE3C3" xlink:href="#path-11"></use>
                        <g id="Group-2" transform="translate(0.000000, 150.000000)">
                            <mask id="mask-14" fill="white">
                                <use xlink:href="#path-13"></use>
                            </mask>
                            <use id="Hoodie" fill="#0D97FF" xlink:href="#path-13"></use>
                            <path d="M64.5891538,47.3319226 L64.5891538,108.345959 C64.5891538,109.450529 63.6937233,110.345959 62.5891538,110.345959 C61.4845843,110.345959 60.5891538,109.450529 60.5891538,108.345959 L60.5891538,45.1502625 C61.8768657,45.9156105 63.2121265,46.6437196 64.5891413,47.3319164 Z M131.589154,46.8212989 L131.589154,72.1729796 C131.589154,73.2775491 130.693723,74.1729796 129.589154,74.1729796 C128.484584,74.1729796 127.589154,73.2775491 127.589154,72.1729796 L127.589154,48.7390531 C128.958518,48.1371784 130.293541,47.4971468 131.589173,46.8212889 Z" id="Straps" fill="#FDFDFD" mask="url(#mask-14)"></path>
                            <path d="M94.9794289,55 C83.7552731,54.9999467 72.274849,51.4467369 63.9350088,46.9524256 C51.2660367,40.1251601 41.6355681,29.9419641 41.6355681,18.0769231 C41.6355681,8.70605458 47.2320129,3.07445977 55.8861936,-0.275646301 C41.5491788,2.57117818 31.6335469,8.24288473 31.6335469,19.3076923 C31.6335469,39.0199574 63.1041981,54.9999155 94.9794289,55 Z M134.073169,-0.275646301 C148.410184,2.57117818 158.325816,8.24288473 158.325816,19.3076923 C158.325816,39.0179985 126.861419,54.9967395 94.989437,54.9999995 C121.828475,54.9959946 148.323795,38.466505 148.323795,18.0769231 C148.323795,8.70605458 142.72735,3.07445977 134.073169,-0.275646301 Z" id="Shadow" fill-opacity="0.16" fill="#000000" mask="url(#mask-14)"></path>
                            <path d="M154,85.9649803 L154,154.195273" id="Path-8" stroke="#0A7ED6" stroke-width="4" stroke-linecap="round"></path>
                            <path d="M37,85.9649803 L37,154.195273" id="Path-8-Copy" stroke="#0A7ED6" stroke-width="4" stroke-linecap="round"></path>
                        </g>
                        <g id="Face" transform="translate(54.000000, 44.000000)">
                            <g id="-Nose" transform="translate(33.000000, 41.000000)" stroke="#0F0F0F" stroke-linecap="round" stroke-width="4">
                                <path d="M0.964159294,0.771101828 C0.964159294,3.75398752 4.59131924,6.17209416 9.06564778,6.17209416 C13.5399763,6.17209416 17.1671363,3.75398752 17.1671363,0.771101828" id="Nose"></path>
                            </g>
                            <g id="-Eyes" transform="translate(9.000000, 18.000000)" fill="#0F0F0F">
                                <circle id="Eye" cx="6" cy="6" r="6"></circle>
                                <circle id="Eye" cx="58" cy="6" r="6"></circle>
                            </g>
                            <g id="I-Browse" fill-rule="nonzero">
                                <path d="M3.63024536,11.1585767 C7.54515501,5.64986673 18.2779197,2.56083721 27.5230268,4.83118046 C28.5957248,5.0946055 29.6788665,4.43856013 29.9422916,3.36586212 C30.2057166,2.2931641 29.5496712,1.21002236 28.4769732,0.94659732 C17.7403633,-1.69001789 5.31209962,1.88699832 0.369754639,8.84142326 C-0.270109626,9.74178291 -0.0589363917,10.9903811 0.84142326,11.6302454 C1.74178291,12.2701096 2.9903811,12.0589364 3.63024536,11.1585767 Z" id="Eyebrow" fill="#BFA465"></path>
                                <path d="M33.2402823,77.1211878 C36.4346195,71.6124778 45.1919276,68.5234483 52.735394,70.7937915 C53.6106528,71.0572166 54.4944331,70.4011712 54.7093725,69.3284732 C54.924312,68.2557752 54.3890173,67.1726334 53.5137585,66.9092084 C44.753313,64.2725932 34.612577,67.8496094 30.5799127,74.8040343 C30.0578209,75.704394 30.2301259,76.9529922 30.9647667,77.5928564 C31.6994075,78.2327207 32.7181905,78.0215475 33.2402823,77.1211878 Z" id="Eyebrow-Copy" fill="#0F0F0F" transform="translate(42.517462, 72.001809) rotate(198.000000) translate(-42.517462, -72.001809) "></path>
                                <path d="M58.6302454,11.1585767 C62.545155,5.64986673 73.2779197,2.56083721 82.5230268,4.83118046 C83.5957248,5.0946055 84.6788665,4.43856013 84.9422916,3.36586212 C85.2057166,2.2931641 84.5496712,1.21002236 83.4769732,0.94659732 C72.7403633,-1.69001789 60.3120996,1.88699832 55.3697546,8.84142326 C54.7298904,9.74178291 54.9410636,10.9903811 55.8414233,11.6302454 C56.7417829,12.2701096 57.9903811,12.0589364 58.6302454,11.1585767 Z" id="Eyebrow" fill="#BFA465" transform="translate(70.000154, 6.039198) scale(-1, 1) translate(-70.000154, -6.039198) "></path>
                            </g>
                        </g>
                    </g>
                    <g id="Facial-Hair" transform="translate(41.500054, 59.608370)">
                        <mask id="mask-16" fill="white">
                            <use xlink:href="#path-15"></use>
                        </mask>
                        <use id="Beardness" fill="#BFA465" xlink:href="#path-15"></use>
                    </g>
                </g>
                <path d="M143.852905,23.4317618 C141.201162,20.6117523 138.122299,18.2181832 135.127638,15.8179038 C134.466872,15.2887955 133.7955,14.7724368 133.149517,14.2231976 C133.002645,14.0983858 131.498244,12.9770923 131.318269,12.5644079 C130.885043,11.5716169 131.136044,12.3446451 131.195821,11.1599392 C131.271347,9.66186151 134.206551,5.43067287 132.016316,4.46036144 C131.052805,4.03358545 129.334041,5.16930613 128.40974,5.5444127 C126.601952,6.27852108 124.771989,6.9045934 122.903139,7.44443818 C123.798516,5.58769423 125.50571,1.87085117 122.297008,2.86565526 C119.79728,3.64069655 117.467885,5.63332436 114.955944,6.57075526 C115.787045,5.15286586 119.110802,0.75928762 116.107465,0.513690119 C115.172879,0.437192537 112.453324,2.26172698 111.447069,2.6509252 C108.433126,3.8168423 105.354584,4.57041059 102.190233,5.16393788 C91.4306037,7.18206489 78.8484031,6.60665544 68.8935202,11.7048167 C61.2188598,15.6350477 53.6406149,21.7333813 49.2071166,29.4988925 C44.9339891,36.9839125 43.3357443,45.1755286 42.4413314,53.7526522 C41.7850644,60.0472625 41.7317146,66.5539187 42.0386367,72.871344 C42.1389087,74.9411404 40.8387063,98.6266935 43.7279524,95.7372322 C45.1674333,94.2975343 46.6807135,74.3395608 47.0432352,72.3717611 C47.7647432,68.4566283 48.459255,64.5240486 49.6621969,60.7340631 C51.7820487,54.0552874 53.5612551,46.4432913 59.56373,42.3410918 C65.1550713,38.5198685 81.4128018,31.6924942 86.9427915,31.6924942 C92.4727811,31.6924942 93.7344423,35.5422821 107.387802,34.4758201 C121.041162,33.4093582 123.772484,29.4519203 125.268528,30.3782791 C126.637626,31.2257918 128.059431,33.9931254 129.042546,35.1264975 C131.365191,37.8049194 134.134561,39.8505587 136.85058,42.0468446 C142.514017,46.6262985 145.373374,52.3780443 147.093424,59.5345945 C148.807046,66.6646389 148.094016,74.8007794 150.215153,81.8174195 C150.58828,83.0511108 149.422246,89.2544564 150.800271,91.4665898 C150.885254,91.6030117 152.176822,91.1579602 152.602405,88.904648 C153.28707,85.2795883 153.192015,79.0211793 153.192015,78.3306925 C153.192015,73.8109469 154.291792,70.4197307 154.277973,65.8704732 C154.22398,52.0385024 153.794289,34.0021843 143.852905,23.4317618 Z" id="Short-Hair" fill="#BFA465"></path>
                <g id="Wayfarers" filter="url(#filter-17)" transform="translate(40.278102, 68.894350)" fill="#5B462F" fill-rule="nonzero">
                    <path d="M29.4473796,35.5100754 L27.0588072,35.5100754 C14.9962621,35.5100754 7.7948946,28.8722278 7.7948946,17.7550377 C7.7948946,8.77098863 9.36860221,0 28.1741534,0 L30.7206058,0 C49.526157,0 51.0998646,8.77098863 51.0998646,17.7550377 C51.0998646,28.2076821 42.1974669,35.5100754 29.4473796,35.5100754 Z M28.0489414,5.1965964 C11.2592922,5.1965964 11.2592922,11.1215962 11.2592922,18.6224794 C11.2592922,24.7461425 13.958278,32.0456778 26.8239095,32.0456778 L29.4473796,32.0456778 C40.1566195,32.0456778 47.635467,26.5260586 47.635467,18.6224794 C47.635467,11.1215962 47.635467,5.1965964 30.8458178,5.1965964 L28.0489414,5.1965964 Z" id="Left"></path>
                    <path d="M83.1455424,35.5100754 L80.7569701,35.5100754 C68.6944249,35.5100754 61.4930574,28.8722278 61.4930574,17.7550377 C61.4930574,8.77098863 63.066765,0 81.8723162,0 L84.4187687,0 C103.22432,0 104.798027,8.77098863 104.798027,17.7550377 C104.798027,28.2076821 95.8956298,35.5100754 83.1455424,35.5100754 Z M81.7471042,5.1965964 C64.957455,5.1965964 64.957455,11.1215962 64.957455,18.6224794 C64.957455,24.7461425 67.6592377,32.0456778 80.5220724,32.0456778 L83.1455424,32.0456778 C93.8547823,32.0456778 101.33363,26.5260586 101.33363,18.6224794 C101.33363,11.1215962 101.33363,5.1965964 84.5439807,5.1965964 L81.7471042,5.1965964 Z" id="Right"></path>
                    <path d="M2.55893005,4.99874846 C3.15771968,4.41389489 9.7085806,0 28.1482305,0 C43.6092859,0 46.8821574,1.60459826 51.836246,4.02899126 L52.1988784,4.20795173 C52.5433071,4.32964732 54.3046444,4.92795819 56.3649354,4.99375176 C58.2419756,4.91319627 59.8474855,4.40446354 60.3166329,4.24145997 C65.9711304,1.491498 71.5061167,0 84.4446915,0 C102.884341,0 109.435202,4.41389489 110.033992,4.99874846 C111.44908,4.99874846 112.592922,6.11596874 112.592922,7.49812269 L112.592922,9.99749692 C112.592922,11.3796509 111.44908,12.4968712 110.033992,12.4968712 C110.033992,12.4968712 104.056644,12.4968712 104.056644,14.9962454 C104.056644,17.4956196 102.357202,11.3796509 102.357202,9.99749692 L102.357202,7.56312857 C99.2364351,6.36877664 93.6499521,4.1453036 84.4446915,4.1453036 C74.1887452,4.1453036 69.0810395,5.96398483 64.6996116,7.76988484 L64.748607,7.88802507 L64.7464444,9.60829959 L62.8261287,14.2418215 L60.4541633,13.3040101 C60.2423206,13.2202532 59.7852303,13.0697794 59.1514282,12.9134593 C57.3845174,12.4776706 55.5679923,12.3450076 53.9615295,12.6747657 C53.3721546,12.7957465 52.8253326,12.9772943 52.3235009,13.2225074 L50.0349802,14.3407613 L47.7451803,9.87024468 L47.846874,7.88302632 L47.9167937,7.71420753 C44.1382032,5.95344926 40.6540684,4.1453036 28.1482305,4.1453036 C18.9434524,4.1453036 13.3570984,6.36794361 10.2357202,7.56231842 L10.2357202,9.99749692 C10.2357202,11.3796509 7.67679014,17.4956196 7.67679014,14.9962454 C7.67679014,12.4968712 2.55893005,12.4968712 2.55893005,12.4968712 C1.14640066,12.4968712 0,11.3796509 0,9.99749692 L0,7.49812269 C0,6.11596874 1.14640066,4.99874846 2.55893005,4.99874846 Z" id="Stuff"></path>
                </g>
            </g>
            <g id="Group-11" transform="translate(340.000000, 307.404426)">
                <g id="Group-12" transform="translate(0.208624, 0.677087)">
                    <g id="Path-12">
                        <mask id="mask-19" fill="white">
                            <use xlink:href="#path-18"></use>
                        </mask>
                        <path stroke="#0F0F0F" stroke-width="4" d="M6.61802749,-1.59850989 L213.580095,-1.59850989 C217.998373,-1.59850989 221.580095,1.98321211 221.580095,6.40149011 L221.580095,71.7463853 C221.580095,73.9555243 219.789234,75.7463853 217.580095,75.7463853 L2.61802749,75.7463853 C0.408888487,75.7463853 -1.38197251,73.9555243 -1.38197251,71.7463853 L-1.38197251,6.40149011 C-1.38197251,1.98321211 2.19974949,-1.59850989 6.61802749,-1.59850989 Z"></path>
                        <rect id="Rectangle" fill="#A5B2BD" mask="url(#mask-19)" x="-6.80225414" y="-22.3726593" width="240" height="97"></rect>
                        <path d="M24.8997046,74.3007189 C36.5578197,72.1380686 47.5832438,70.3752746 57.9759769,69.0123369 C93.8944289,64.3018713 155.047803,75.7158275 190.89825,62.7829927 C214.798548,54.1611029 227.492782,42.9560464 228.980953,29.1678235 L225.555277,74.3007189 L24.8997046,74.3007189 Z" fill="#B4C0CA" mask="url(#mask-19)"></path>
                    </g>
                    <g id="Group-40" transform="translate(96.000000, 27.108446)">
                        <circle id="Oval-6" fill="#FFFFFF" cx="13.6180509" cy="13.6349136" r="13.6180509"></circle>
                        <g id="simple" transform="translate(4.826199, 4.634914)" fill="#0D97FF" fill-rule="nonzero">
                            <path d="M12.4046837,1.23737064 C12.52049,1.22017505 12.6353641,1.19720023 12.7488758,1.16853222 C12.6404553,1.19090471 12.521709,1.21499816 12.4046837,1.23737064 Z" id="Shape"></path>
                            <path d="M17.190675,6.45876499 C16.8631247,5.3185704 16.1580318,4.32343075 15.1909189,3.63638967 C14.941463,3.45863666 14.6765133,3.30369871 14.399277,3.17345127 C14.3530334,3.15021823 14.316028,3.11199957 14.2942984,3.06503076 C14.1566169,2.79222363 13.9972001,2.53094125 13.8175923,2.28371466 C13.1140436,1.32826378 12.1077139,0.63917962 10.9625188,0.328703467 C10.5426566,0.220694953 10.1104745,0.168046263 9.67696124,0.172096056 C8.93279195,0.178858394 8.19826907,0.341238951 7.52059765,0.648802132 C7.23830634,0.779164912 6.9677001,0.933468045 6.71174619,1.11001956 C6.67529859,1.13347634 6.63290112,1.14601644 6.58955799,1.14615973 C6.45532306,1.13583397 6.32108814,1.13239205 6.19545802,1.13239205 C6.01830766,1.13358825 5.84135639,1.14450407 5.66540217,1.1650903 C5.07525367,1.22948004 4.50031724,1.39358132 3.96509313,1.65040118 C3.43738155,1.90259037 2.95662911,2.24307484 2.54357971,2.65716311 C1.49781255,3.73827912 0.969075099,5.21786588 1.09280996,6.71690907 C1.09607352,6.7679146 1.08279559,6.81861217 1.05494882,6.86146976 C0.886089161,7.11700114 0.738177799,7.38577393 0.61266196,7.66515834 C-0.3946024,9.90002216 0.334590911,12.5353904 2.34739021,13.9346177 C2.59728223,14.1131255 2.86281998,14.2686466 3.14075302,14.399277 C3.1861867,14.4227959 3.22295456,14.4601665 3.24573162,14.5059766 C3.38125916,14.7796107 3.54017867,15.0410218 3.72071673,15.2872927 C4.07132914,15.7649722 4.5008435,16.1793546 4.99078563,16.5126166 C5.47377764,16.8442165 6.00980214,17.0909857 6.5757903,17.2423039 C6.99674892,17.3508806 7.43006801,17.4041054 7.86478976,17.4006322 C8.60800746,17.3936126 9.34147063,17.2306208 10.0177114,16.9222052 C10.3000198,16.7925442 10.5706369,16.6388107 10.8265629,16.4627087 C10.8633074,16.4401152 10.9056162,16.4281972 10.9487511,16.4282895 C11.0709393,16.4282895 11.2017323,16.4403362 11.3497349,16.4403362 C14.0009786,16.4413578 16.2125627,14.4143837 16.4420572,11.7730912 C16.4670558,11.4678448 16.4670558,11.1610656 16.4420572,10.8558192 C16.4374748,10.8041552 16.4508467,10.7524912 16.4799183,10.7095376 C16.6491827,10.4551515 16.7965663,10.1868674 16.9204842,9.90756995 C17.2205551,9.22660687 17.374172,8.49018423 17.3713759,7.74604349 C17.368871,7.31080846 17.3080974,6.87786855 17.190675,6.45876499 Z M8.37075217,1.14788069 C8.79451729,1.01687462 9.23514402,0.948461527 9.6786822,0.944807348 C10.0466113,0.941024206 10.4134441,0.985576447 10.7697712,1.07732131 C11.558417,1.289285 12.2731208,1.71512936 12.8349239,2.30780811 C12.8903223,2.36635145 12.9058546,2.45211666 12.874506,2.5263701 C12.8424227,2.59995052 12.770609,2.64827372 12.6903632,2.65027926 C12.6801298,2.65223267 12.6696193,2.65223267 12.6593859,2.65027926 C12.4682559,2.62227541 12.2758393,2.60389532 12.0828641,2.59520853 C11.9641178,2.59520853 11.8350458,2.58488276 11.6853222,2.59520853 C11.2651973,2.59974484 10.8461603,2.63888567 10.4324629,2.71223384 L10.4049276,2.71223384 C10.3588408,2.71101297 10.3142986,2.69536301 10.2775765,2.66748887 C9.85106554,2.30999214 9.38441759,2.00332128 8.88704034,1.75365881 C8.71492495,1.66794023 8.53858853,1.59097254 8.35870545,1.5230501 C8.2779202,1.49352347 8.22612753,1.41443467 8.23135436,1.32858155 C8.23440265,1.24473787 8.29042841,1.17211188 8.37075217,1.14788069 Z M5.70670522,3.23712682 C6.00731595,2.77144922 6.37895014,2.35568348 6.80811998,2.00491905 C6.84505094,1.9748042 6.89126011,1.95838779 6.93891298,1.95845312 L6.96989027,1.95845312 C7.51747114,2.04078123 8.04914504,2.20678422 8.54629015,2.45064784 C8.68912987,2.51948626 8.83885344,2.60209237 9.00750758,2.70190808 C9.07504358,2.74369436 9.11202322,2.82101544 9.10216041,2.89981855 C9.09535692,2.98089617 9.03921581,3.04936093 8.96104164,3.0719146 C8.76141022,3.13386918 8.57210456,3.19582376 8.38624081,3.25777834 L8.31051855,3.28359275 C7.9112557,3.41266479 7.62213433,3.5038757 7.33129199,3.58648181 C7.04044966,3.66908792 6.75649116,3.73276346 6.45016018,3.80160188 L6.34001871,3.81881149 C6.11973576,3.86699838 5.8994528,3.91690624 5.66884409,3.97369794 C5.65344558,3.97606101 5.63777667,3.97606101 5.62237815,3.97369794 C5.55169147,3.97377413 5.48623479,3.93646382 5.4502821,3.87560318 C5.41596033,3.81409711 5.41596033,3.7391988 5.4502821,3.67769272 C5.52256244,3.53657395 5.61205239,3.38340846 5.70670522,3.23712682 Z M2.70362904,10.5632559 C2.61648208,11.1030041 2.58992922,11.6508011 2.62446486,12.1964475 C2.63651158,12.3685436 2.65888407,12.566454 2.68986136,12.7678064 C2.70292381,12.8287387 2.68703708,12.8922857 2.64683734,12.9399025 C2.60763474,12.9834532 2.552249,13.008968 2.49367185,13.0104618 C2.44251746,13.011658 2.39298672,12.9924648 2.35599501,12.9571121 C1.11180821,11.8413065 0.631235245,10.1031783 1.12550821,8.50670805 C1.15032173,8.42453107 1.22412622,8.36683253 1.30986256,8.36258433 C1.39559891,8.35833613 1.47474575,8.40845601 1.50756145,8.48777749 C1.57812083,8.65987354 1.65900598,8.84401632 1.74505401,9.01439142 C1.99569454,9.50106637 2.2998947,9.95823245 2.65200022,10.3773922 C2.69575124,10.4287152 2.71464166,10.4967207 2.70362904,10.5632559 Z M3.2594993,8.41205522 C3.19238184,8.62545433 3.12526438,8.84229536 3.05642596,9.06946216 C3.03258749,9.1554277 2.95460688,9.21514259 2.86539933,9.2157438 C2.79523337,9.21724555 2.72960949,9.18115242 2.69330328,9.12109097 C2.59877553,8.9743075 2.51203402,8.82265346 2.43343823,8.66675739 C2.17222262,8.15638116 1.99498498,7.60723503 1.90854526,7.04044966 C1.84617293,6.65475687 1.8322975,6.26277603 1.86724221,5.8736384 C1.86724221,5.79447421 1.88273085,5.72219387 1.89477758,5.64819256 C2.13044029,3.87332186 3.44473822,2.43205519 5.19041705,2.03417538 C5.20642432,2.03229503 5.22259668,2.03229503 5.23860395,2.03417538 C5.3127038,2.03527836 5.3796093,2.07876694 5.4107,2.14603782 C5.44654773,2.21583904 5.43777139,2.300227 5.38832752,2.36115789 C5.27474412,2.50571858 5.16288168,2.66232599 5.0441354,2.8275382 C4.73516161,3.30683421 4.48388158,3.82094737 4.29551756,4.3591931 C4.28762274,4.38311147 4.26924679,4.40212108 4.2456097,4.41082192 C3.75984961,4.59103256 3.29435827,4.82175937 2.85679453,5.09920614 L2.79656091,5.1405092 L2.74321113,5.17148649 L2.70879192,5.19557993 L2.69330328,5.2059057 L2.66748887,5.2231153 L2.65372119,5.23344107 L2.62102293,5.25409259 C2.60742087,5.26402277 2.59817407,5.27881764 2.59520853,5.29539565 C2.59420022,5.31431279 2.59420022,5.33327021 2.59520853,5.35218735 L2.59520853,5.4107 C2.59520853,5.44970844 2.59119295,5.48871688 2.5831618,5.52772532 C2.57627796,5.60688951 2.57054142,5.68662735 2.5659522,5.76693884 C2.56136297,5.84725033 2.56136297,5.92928279 2.5659522,6.0130362 C2.5659522,6.03540869 2.5659522,6.05778118 2.5659522,6.0784327 C2.56577801,6.11072496 2.58369885,6.14039624 2.61236137,6.15527172 C2.6410239,6.17014721 2.67560223,6.16772234 2.70190808,6.14899208 C2.80516571,6.07671174 2.91014431,6.00615236 3.01684386,5.93387201 L3.06158884,5.88396416 C3.09772901,5.85642879 3.13386918,5.83061438 3.17173031,5.80652093 L3.23196393,5.76693884 C3.34726829,5.68949562 3.47634033,5.61205239 3.61918006,5.5328882 C3.70642006,5.48955727 3.81192972,5.51080082 3.87560318,5.58451702 C3.91323786,5.63337693 3.92769192,5.69622066 3.91518528,5.75661308 C3.86699838,5.9562445 3.82741629,6.14899208 3.7878342,6.33485583 L3.76718267,6.42950866 C3.70350713,6.75304924 3.63122678,7.09724135 3.54517876,7.42766578 C3.45913073,7.75809021 3.3730827,8.03688582 3.27498795,8.35010064 L3.2594993,8.41205522 Z M4.02532675,13.9294548 L3.81881149,13.8537325 L3.79299708,13.8382439 L3.77578747,13.8003827 C3.56222072,13.2691321 3.43386327,12.7074956 3.39545519,12.1362139 C3.38234722,11.9644502 3.37832603,11.7921138 3.38340846,11.6199257 C3.38529384,11.5103456 3.4751687,11.4227752 3.58476085,11.4237362 C3.63498935,11.4230682 3.68359248,11.4415251 3.72071673,11.475365 C3.89281279,11.6371353 4.06490885,11.7903008 4.2370049,11.9365825 L4.27658699,11.9727226 C4.51063763,12.1809589 4.75673499,12.4046837 4.98906467,12.6301296 C5.22139434,12.8555754 5.44339825,13.0999518 5.69293754,13.3718636 C5.75833404,13.4424229 5.8254515,13.5129823 5.890848,13.5852627 L5.90977857,13.6059142 C5.91636254,13.6087877 5.92384612,13.6087877 5.93043009,13.6059142 C6.19618473,13.6005275 6.46125878,13.5769526 6.72379291,13.5353548 C6.75608128,13.5306628 6.78293852,13.5081127 6.7931468,13.4771233 C6.80335508,13.4461339 6.79515818,13.4120365 6.77197981,13.3890732 C6.59988375,13.2169771 6.44155538,13.0448811 6.25569164,12.8418077 L6.17480649,12.7678064 C5.97173315,12.5475235 5.7514502,12.3117519 5.52600436,12.0897479 C5.30055853,11.867744 5.0837175,11.6715545 4.86343455,11.4736441 L4.74124635,11.3635026 C4.47793938,11.127731 4.22495818,10.907448 3.97369794,10.6596297 C3.85839358,10.5529302 3.74481018,10.4393468 3.62950582,10.3257634 C3.57546661,10.2682349 3.55353884,10.187618 3.57099316,10.1106433 C3.60713334,9.95575685 3.64499447,9.80259136 3.68629752,9.65458875 C3.77578747,9.3207224 3.87388222,9.00922854 3.95820929,8.74247965 L4.01328003,8.56005783 C4.11137478,8.24168013 4.20602761,7.94051203 4.28347084,7.63073913 C4.36091406,7.32096623 4.44007825,6.96644835 4.51752147,6.59816279 L4.54849876,6.44671826 C4.60529046,6.1834113 4.668966,5.88396416 4.74640923,5.57419126 C4.77910748,5.43823537 4.81868957,5.28506988 4.86687647,5.12157863 C4.89006644,5.04443139 4.95003099,4.98382207 5.0269258,4.95980834 C5.16116072,4.91850528 5.28679084,4.88408607 5.4020952,4.85138782 L5.47609651,4.8307363 C5.84094014,4.73608346 6.1834113,4.65864024 6.49834708,4.58808086 L6.62569816,4.55882453 C6.93891298,4.48654418 7.23319724,4.41770576 7.52748149,4.33682061 C7.82176575,4.25593547 8.1470273,4.14923591 8.44475347,4.05458308 L8.54112726,4.02360579 C8.85262113,3.92034816 9.18648748,3.81020668 9.54100535,3.70522809 C9.74924158,3.64671543 9.91789571,3.60197045 10.0745031,3.56583028 C10.4619034,3.47270328 10.8561003,3.41055253 11.2533611,3.37996654 C11.3979218,3.36791982 11.5424825,3.36103598 11.6836012,3.36103598 C11.7989056,3.36103598 11.91421,3.36103598 12.0277934,3.36103598 C12.5978926,3.39081842 13.1596295,3.51106612 13.6919622,3.71727481 C13.7153929,3.72501014 13.7342601,3.74261955 13.743591,3.76546171 C13.959482,4.29615721 14.0890453,4.85798539 14.1273652,5.42963057 C14.137691,5.59140086 14.1411329,5.76177596 14.137691,5.94591874 C14.1387767,6.02796 14.0899736,6.1024546 14.0143264,6.13422643 C13.9386792,6.16599825 13.8513198,6.14869192 13.7934989,6.09047943 C13.6214028,5.92870913 13.4493068,5.77554364 13.2772107,5.629262 L13.1911627,5.55181877 C12.9571121,5.34186158 12.7351082,5.1405092 12.525151,4.93743585 C12.3151938,4.7343625 12.1017947,4.49859091 11.8815117,4.26281931 L11.8161152,4.19225993 L11.6749964,4.03737348 L11.6164838,3.97369794 C11.6025424,3.96066536 11.5839165,3.95383585 11.564855,3.95476737 C11.3054197,3.96087762 11.0466904,3.98445073 10.7904227,4.02532675 C10.7585712,4.0306334 10.7322059,4.05300092 10.7217793,4.08356174 C10.7113526,4.11412256 10.7185488,4.14794047 10.7405149,4.1716084 C10.8902384,4.32821581 11.0347991,4.48482322 11.1965694,4.65519832 L11.3290834,4.80147997 C11.5390406,5.0269258 11.7558816,5.26097644 11.9830484,5.48986419 C12.2102152,5.71875194 12.4855689,5.9648493 12.7368291,6.19029514 L12.8555754,6.29355277 L12.9485073,6.3796008 C13.1395339,6.55169686 13.3374443,6.72379291 13.5387967,6.92342434 C13.6541011,7.03356581 13.7848941,7.16435882 13.9225709,7.31064046 C13.9417053,7.33223892 13.9499424,7.3613859 13.9449434,7.38980465 C13.9053613,7.57394743 13.8606164,7.75292733 13.8124295,7.92502338 C13.7177766,8.2778203 13.6196819,8.59447704 13.525029,8.90080802 L13.5026566,8.97308837 C13.3993989,9.30523375 13.3013042,9.62016954 13.2152561,9.948873 C13.1292081,10.2775765 13.0638116,10.5942332 12.9829265,10.9814493 L12.9416234,11.1793598 C12.8848317,11.4443877 12.8245981,11.7197414 12.7540387,12.0088628 C12.7161776,12.1671912 12.6679907,12.3444501 12.609478,12.5406396 C12.5999925,12.56772 12.5783168,12.5887582 12.5509654,12.5974313 C12.3599388,12.6576649 12.1809589,12.7092937 12.0346772,12.7505968 C11.6698336,12.8469706 11.3256415,12.9226929 11.0158686,12.9949732 L10.9659607,13.005299 C10.6441411,13.0793003 10.3102747,13.1550225 9.98157125,13.2445125 C9.65286779,13.3340024 9.32244336,13.4441439 8.99718181,13.5439596 L8.98685605,13.5439596 L8.82508576,13.5973094 C8.55145303,13.6867993 8.2692155,13.7797312 7.96460548,13.8675002 L7.94395395,13.8675002 C7.82348671,13.9036404 7.63934393,13.9552692 7.42766578,14.0034561 C7.04058297,14.0952488 6.64706259,14.1573836 6.25052876,14.1893198 C6.10768903,14.2013666 5.96140738,14.2082504 5.82028862,14.2082504 C5.70498426,14.2082504 5.58623798,14.2082504 5.47609651,14.2082504 L5.25753451,14.1927617 L5.06478693,14.1703893 L5.00627427,14.1703893 L4.87376031,14.1445749 C4.8628856,14.1456126 4.85193677,14.1456126 4.84106206,14.1445749 C4.78943324,14.1445749 4.73780442,14.1256443 4.68961753,14.1135976 C4.59324374,14.096388 4.49686995,14.0740155 4.40393808,14.049922 C4.31100621,14.0258286 4.16128264,13.9724788 4.02360579,13.9294548 L4.02532675,13.9294548 Z M9.16927787,16.4231266 C8.74562187,16.5548124 8.30497902,16.6238077 7.86134784,16.6279209 C7.49288159,16.6311668 7.12554956,16.5866242 6.76853789,16.495407 C5.97973545,16.2828759 5.26503282,15.8564367 4.70338521,15.2631992 C4.64786591,15.2054144 4.63228018,15.1200317 4.66380312,15.0463582 C4.69570843,14.9728717 4.76783654,14.925011 4.8479459,14.92417 L4.88064415,14.92417 C5.06822885,14.9517054 5.2626974,14.9723569 5.45372402,14.9826826 C5.58623798,14.9826826 5.72219387,14.9930084 5.85814975,14.9826826 C6.27488169,14.9772143 6.69045892,14.9374985 7.10068328,14.8639364 L7.13510249,14.8639364 C7.17978624,14.8639364 7.22326464,14.8784292 7.25901165,14.9052394 C7.68737961,15.2563535 8.15381286,15.5582651 8.64954778,15.8053018 C8.82164384,15.884466 8.99373989,15.9619092 9.17788267,16.0324686 C9.25853069,16.0636899 9.31087449,16.1422056 9.30867568,16.2286581 C9.30970506,16.3175199 9.25235708,16.3965482 9.16755691,16.4231266 L9.16927787,16.4231266 Z M11.8316039,14.3356015 C11.5319611,14.8009906 11.1608437,15.2162472 10.7319101,15.5660883 C10.6967358,15.5971091 10.651458,15.6142412 10.604559,15.6142752 L10.5718607,15.6142752 C10.023286,15.5348563 9.49068926,15.3693273 8.99373989,15.1238014 C8.8319696,15.0446372 8.67708315,14.9517054 8.53252246,14.8725412 C8.46517259,14.8301392 8.42848735,14.7525581 8.4384496,14.6735981 C8.44841184,14.5946381 8.50321723,14.5286002 8.5789884,14.5042556 C8.75108445,14.4509058 8.92318051,14.3975561 9.09527657,14.3321596 L9.23811629,14.2874146 C9.5823084,14.1755521 9.89380227,14.0722945 10.2139009,13.9810836 C10.4961385,13.9036404 10.7852598,13.8365229 11.0898699,13.7694054 L11.2120581,13.7401491 C11.4288991,13.6919622 11.649182,13.6420544 11.8780698,13.5869836 C11.894088,13.5853009 11.9102385,13.5853009 11.9262567,13.5869836 C11.9971299,13.5861946 12.0629183,13.623694 12.0983527,13.6850784 C12.1320379,13.7461371 12.1320379,13.8202091 12.0983527,13.8812679 C12.0140257,14.0395963 11.9228148,14.1927617 11.8298829,14.3356015 L11.8316039,14.3356015 Z M15.6710669,11.7008109 C15.6710669,11.7782541 15.6555782,11.8539763 15.6418105,11.9279776 C15.4073351,13.7028004 14.0934257,15.1443938 12.347892,15.5419948 C12.3324553,15.543788 12.3168628,15.543788 12.3014261,15.5419948 C12.223867,15.5415298 12.1533462,15.4969272 12.1196882,15.4270503 C12.0860302,15.3571735 12.095114,15.2742273 12.1430977,15.2132914 C12.260123,15.0670097 12.3719855,14.9104023 12.478685,14.746911 C12.7741184,14.2852319 13.0176757,13.7923458 13.2049304,13.2772107 C13.2294099,13.2139931 13.2793896,13.1640134 13.3426072,13.1395339 C13.8137216,12.9612895 14.2647966,12.7340215 14.6883984,12.4614754 L14.748632,12.4218933 L14.8123075,12.3805903 L14.8467268,12.3564968 L14.8622154,12.3461711 L14.9017975,12.3186357 L14.9396586,12.2928213 C14.944501,12.2897277 14.9486118,12.285617 14.9517054,12.2807746 C14.9559645,12.2666418 14.959412,12.252277 14.9620311,12.2377506 C14.9952291,11.9867422 15.0107559,11.733712 15.0084971,11.4805279 C15.0086712,11.4482356 14.9907504,11.4185644 14.9620879,11.4036889 C14.9334254,11.3888134 14.898847,11.3912383 14.8725412,11.4099685 C14.7004451,11.5252729 14.5421167,11.6354144 14.356253,11.7541606 C14.223739,11.8436506 14.0722945,11.9365825 13.9070823,12.0277934 C13.8783168,12.0444918 13.8456897,12.05339 13.8124295,12.0536078 C13.7496484,12.0549736 13.6898246,12.026971 13.6506592,11.9778855 C13.6130245,11.9290256 13.5985704,11.8661819 13.6110771,11.8057894 C13.6541011,11.6336934 13.6885203,11.4615973 13.7229395,11.2895013 L13.7590797,11.1311729 C13.8175923,10.8317258 13.8915936,10.4772079 13.9810836,10.1295739 C14.0619687,9.82152192 14.1531797,9.51002806 14.2529954,9.20885996 L14.270205,9.15378922 C14.3373224,8.94039012 14.4027189,8.72182812 14.4698364,8.49294037 C14.4951656,8.40677614 14.5744967,8.3478043 14.6643049,8.34837968 C14.7334004,8.34940928 14.7976435,8.38410055 14.836401,8.44131155 C14.9396586,8.61340761 15.0239857,8.75624734 15.0945451,8.8973661 C15.3592367,9.4095986 15.539944,9.96101735 15.6297638,10.5305577 C15.6932893,10.9172936 15.7071693,11.3105586 15.6710669,11.7008109 Z M16.4145218,9.07118312 C16.3898182,9.15342476 16.3156751,9.21094933 16.2298744,9.21444348 C16.1440738,9.21793762 16.0654987,9.16663234 16.0341895,9.08667176 C15.9636302,8.91457571 15.882745,8.73215389 15.796697,8.57038359 C15.5442049,8.08346394 15.2389054,7.62580315 14.8863089,7.20566187 C14.843589,7.15383384 14.8253889,7.08605418 14.836401,7.01979813 C14.9238947,6.48009028 14.9510236,5.93231848 14.9172861,5.38660656 C14.9000765,5.18353321 14.879425,4.98906467 14.8501687,4.81352669 C14.8406412,4.75646302 14.8563376,4.69807258 14.8931927,4.65347736 C14.9324939,4.60788044 14.9896041,4.58152189 15.0498001,4.58119701 C15.1000903,4.58017602 15.1488199,4.59868093 15.185756,4.63282583 C16.4219494,5.74846306 16.9009502,7.47863545 16.4145218,9.07118312 Z" id="Shape" opacity="0.48"></path>
                            <path d="M17.1992798,6.46909075 C16.8694912,5.32765696 16.1612462,4.33235129 15.1909189,3.64671543 C14.9414579,3.46897025 14.676509,3.31403272 14.399277,3.18377704 C14.3530334,3.160544 14.316028,3.12232534 14.2942984,3.07535652 C14.1566169,2.80254939 13.9972001,2.54126702 13.8175923,2.29404043 C13.1140436,1.33858954 12.1077139,0.649505383 10.9625188,0.339029231 C10.5426566,0.231020716 10.1104745,0.178372026 9.67696124,0.182421819 C8.93279195,0.189184157 8.19826907,0.351564715 7.52059765,0.659127895 C7.23830634,0.789490675 6.9677001,0.943793809 6.71174619,1.12034533 C6.67529859,1.1438021 6.63290112,1.1563422 6.58955799,1.1564855 C6.45532306,1.14615973 6.32108814,1.14271781 6.19545802,1.14271781 C6.01830778,1.14391746 5.84135669,1.15483328 5.66540217,1.17541606 C5.07584153,1.23999665 4.5015025,1.40409352 3.96681409,1.66072694 C3.43911965,1.91294531 2.95837191,2.25342646 2.54530067,2.66748887 C1.49890701,3.74830749 0.969529014,5.22793154 1.09280996,6.72723483 C1.09607352,6.77824036 1.08279559,6.82893793 1.05494882,6.87179552 C0.886089161,7.12732691 0.738177799,7.39609969 0.61266196,7.6754841 C-0.3946024,9.91034793 0.334590911,12.5457162 2.34739021,13.9449434 C2.59728735,14.1234434 2.86282437,14.278964 3.14075302,14.4096028 C3.1861867,14.4331217 3.22295456,14.4704923 3.24573162,14.5163023 C3.38125916,14.7899365 3.54017867,15.0513475 3.72071673,15.2976184 C4.07132914,15.775298 4.5008435,16.1896804 4.99078563,16.5229423 C5.47377764,16.8545423 6.00980214,17.1013114 6.5757903,17.2526296 C6.99674892,17.3612064 7.43006801,17.4144311 7.86478976,17.410958 C8.60800746,17.4039384 9.34147063,17.2409466 10.0177114,16.932531 C10.3000159,16.8028624 10.5706324,16.6491292 10.8265629,16.4730345 C10.8633074,16.450441 10.9056162,16.438523 10.9487511,16.4386153 C11.0709393,16.4386153 11.2017323,16.450662 11.3497349,16.450662 C14.0009786,16.4516836 16.2125627,14.4247095 16.4420572,11.783417 C16.4670558,11.4781706 16.4670558,11.1713913 16.4420572,10.866145 C16.4374748,10.8144809 16.4508467,10.7628169 16.4799183,10.7198633 C16.6491757,10.4654729 16.7965588,10.1971895 16.9204842,9.91789571 C17.2205551,9.23693263 17.374172,8.50050999 17.3713759,7.75636925 C17.3716739,7.32152178 17.3137951,6.88858885 17.1992798,6.46909075 Z M8.37075217,1.15820646 C8.79451729,1.02720039 9.23514402,0.958787291 9.6786822,0.955133111 C10.0466113,0.951349969 10.4134441,0.99590221 10.7697712,1.08764707 C11.558417,1.29961076 12.2731208,1.72545512 12.8349239,2.31813388 C12.8903223,2.37667721 12.9058546,2.46244242 12.874506,2.53669587 C12.8424227,2.61027628 12.770609,2.65859949 12.6903632,2.66060503 C12.680126,2.66251787 12.6696231,2.66251787 12.6593859,2.66060503 C12.4682573,2.63258964 12.2758401,2.61420949 12.0828641,2.60553429 C11.9641178,2.60553429 11.8350458,2.59520853 11.6853222,2.60553429 C11.2651969,2.61006281 10.8461593,2.64920369 10.4324629,2.72255961 L10.4049276,2.72255961 C10.3588408,2.72133873 10.3142986,2.70568877 10.2775765,2.67781463 C9.85072159,2.32644157 9.38469211,2.02557247 8.8887613,1.78119418 C8.71664467,1.69547825 8.54030839,1.61851063 8.36042641,1.55058547 C8.27964116,1.52105884 8.22784849,1.44197004 8.23307532,1.35611692 C8.22823903,1.26640497 8.28495815,1.18487124 8.37075217,1.15820646 Z M5.70670522,3.24745258 C6.0073385,2.78179217 6.37896974,2.36602972 6.80811998,2.01524482 C6.84505094,1.98512997 6.89126011,1.96871355 6.93891298,1.96877888 L6.96989027,1.96877888 C7.51747114,2.051107 8.04914504,2.21710998 8.54629015,2.4609736 C8.68912987,2.52981202 8.83885344,2.61241813 9.00750758,2.71223384 C9.07504358,2.75402013 9.11202322,2.8313412 9.10216041,2.91014431 C9.09535692,2.99122193 9.03921581,3.0596867 8.96104164,3.08224036 C8.76141022,3.14419495 8.57210456,3.20614953 8.38624081,3.26810411 L8.31051855,3.29391851 C7.9112557,3.42299056 7.62213433,3.51420147 7.33129199,3.59680757 C7.04044966,3.67941368 6.75649116,3.74308922 6.45016018,3.81192764 L6.34001871,3.83774205 C6.11973576,3.88592895 5.8994528,3.9358368 5.66884409,3.9926285 C5.65344766,3.99501875 5.63777458,3.99501875 5.62237815,3.9926285 C5.55169147,3.9927047 5.48623479,3.95539439 5.4502821,3.89453375 C5.41596033,3.83302767 5.41596033,3.75812936 5.4502821,3.69662329 C5.52256244,3.54689972 5.61205239,3.39373423 5.70670522,3.24745258 Z M2.70362904,10.5735817 C2.61648208,11.1133299 2.58992922,11.6611269 2.62446486,12.2067733 C2.63651158,12.3788693 2.65888407,12.5767798 2.68986136,12.7781322 C2.70292381,12.8390645 2.68703708,12.9026114 2.64683734,12.9502282 C2.60763474,12.993779 2.552249,13.0192938 2.49367185,13.0207876 C2.44251746,13.0219837 2.39298672,13.0027906 2.35599501,12.9674378 C1.11180821,11.8516323 0.631235245,10.113504 1.12550821,8.51703382 C1.15032173,8.43485683 1.22412622,8.37715829 1.30986256,8.37291009 C1.39559891,8.3686619 1.47474575,8.41878177 1.50756145,8.49810325 C1.57812083,8.67019931 1.65900598,8.85434209 1.74505401,9.02471718 C1.99569454,9.51139214 2.2998947,9.96855821 2.65200022,10.3877179 C2.69575124,10.439041 2.71464166,10.5070465 2.70362904,10.5735817 Z M3.2594993,8.42238099 C3.19238184,8.6357801 3.12526438,8.85262113 3.05642596,9.07978792 C3.03258749,9.16575346 2.95460688,9.22546835 2.86539933,9.22606957 C2.79523337,9.22757131 2.72960949,9.19147818 2.69330328,9.13141674 C2.59877281,8.98463491 2.51203122,8.83298073 2.43343823,8.67708315 C2.17520468,8.16619046 2.00087952,7.61706623 1.91715007,7.05077542 C1.85133207,6.66551508 1.83398769,6.27353209 1.86552125,5.88396416 C1.86552125,5.80479997 1.88100989,5.73251963 1.89305662,5.65851833 C2.12871933,3.88364762 3.44301726,2.44238096 5.18869609,2.04450115 C5.20470336,2.04262079 5.22087572,2.04262079 5.23688299,2.04450115 C5.31098284,2.04560412 5.37788834,2.0890927 5.40897904,2.15636358 C5.44482677,2.2261648 5.43605043,2.31055276 5.38660656,2.37148365 C5.27302316,2.51604434 5.16116072,2.67265175 5.04241444,2.83786397 C4.73344065,3.31715998 4.48216062,3.83127313 4.2937966,4.36951886 C4.28590178,4.39343723 4.26752583,4.41244684 4.24388874,4.42114768 C3.75812865,4.60135832 3.29263731,4.83208513 2.85507357,5.10953191 C2.77763035,5.15943976 2.70362904,5.21106858 2.62790678,5.2626974 C2.58566799,5.28966426 2.56285611,5.33864269 2.56939412,5.38832752 C2.56939412,5.44167729 2.56078931,5.49502707 2.55562643,5.54837685 C2.55046355,5.60172663 2.54357971,5.70842618 2.54013779,5.78759037 C2.53669587,5.86675455 2.54013779,5.95968642 2.54013779,6.03196677 L2.54013779,6.09908423 C2.53996361,6.13137649 2.55788444,6.16104776 2.58654696,6.17592325 C2.61520949,6.19079874 2.64978782,6.18837386 2.67609367,6.16964361 C2.77935131,6.09736327 2.8843299,6.02680389 2.99102946,5.95452354 L3.05298404,5.91149953 C3.08912421,5.88396416 3.12526438,5.85814975 3.16312551,5.8340563 L3.22335913,5.79447421 C3.33866349,5.71703098 3.46773553,5.63958776 3.61057526,5.56042357 C3.69781525,5.51709264 3.80332492,5.53833619 3.86699838,5.61205239 C3.90463306,5.6609123 3.91908711,5.72375603 3.90658047,5.78414845 C3.85839358,5.98377987 3.81881149,6.17652745 3.77922939,6.36239119 L3.77578747,6.4449973 C3.71211193,6.76853789 3.63983159,7.11273 3.55378356,7.44315443 C3.46773553,7.77357885 3.3816875,8.05237447 3.28359275,8.36558929 L3.2594993,8.42238099 Z M4.02532675,13.9397805 L3.81881149,13.8640583 L3.79299708,13.8485696 L3.77578747,13.8193133 C3.56222072,13.2880626 3.43386327,12.7264262 3.39545519,12.1551444 C3.38235362,11.9833805 3.37833244,11.8110444 3.38340846,11.6388563 C3.38529384,11.5292761 3.4751687,11.4417058 3.58476085,11.4426668 C3.63498935,11.4419988 3.68359248,11.4604557 3.72071673,11.4942956 C3.89281279,11.6560659 4.06490885,11.8092314 4.2370049,11.955513 L4.27658699,11.9916532 C4.51063763,12.1998894 4.75673499,12.4236143 4.98906467,12.6490601 C5.22139434,12.874506 5.44339825,13.1188824 5.69293754,13.3907941 C5.75833404,13.4613535 5.8254515,13.5319129 5.890848,13.6041932 L5.90977857,13.6248448 C5.91616817,13.6285338 5.92404049,13.6285338 5.93043009,13.6248448 C6.19618443,13.6194527 6.46125812,13.5958778 6.72379291,13.5542854 C6.75608128,13.5495934 6.78293852,13.5270433 6.7931468,13.4960539 C6.80335508,13.4650645 6.79515818,13.4309671 6.77197981,13.4080037 C6.59988375,13.2359077 6.44155538,13.0638116 6.25569164,12.8607383 L6.17480649,12.7678064 C5.97173315,12.5475235 5.7514502,12.3117519 5.52600436,12.0897479 C5.30055853,11.867744 5.0837175,11.6715545 4.86343455,11.4736441 L4.74124635,11.3635026 C4.47793938,11.127731 4.22495818,10.907448 3.97369794,10.6596297 C3.85839358,10.5529302 3.74481018,10.4393468 3.62950582,10.3257634 C3.57546661,10.2682349 3.55353884,10.187618 3.57099316,10.1106433 C3.60713334,9.95575685 3.64499447,9.80259136 3.68629752,9.65458875 C3.77578747,9.3207224 3.87388222,9.00922854 3.95820929,8.74247965 L4.01328003,8.56005783 C4.11997958,8.24512205 4.21463241,7.94911683 4.29207564,7.63418105 C4.36951886,7.31924527 4.44868305,6.96989027 4.52612628,6.60160471 L4.55710357,6.45016018 C4.61389526,6.18685322 4.67757081,5.88740608 4.75501403,5.57763318 C4.78771228,5.44167729 4.82729437,5.2885118 4.87548127,5.12502055 C4.89867125,5.04787331 4.95863579,4.98726399 5.0355306,4.96325026 C5.16976553,4.92022624 5.29539565,4.88580703 5.4107,4.85138782 L5.48470131,4.8307363 C5.84954495,4.73608346 6.1920161,4.65864024 6.50695188,4.58808086 L6.63430296,4.55882453 C6.94751779,4.48654418 7.24180204,4.41770576 7.5360863,4.33682061 C7.83037055,4.25593547 8.1556321,4.14923591 8.45335828,4.05458308 L8.54973207,4.02360579 C8.86122593,3.92034816 9.19509228,3.81020668 9.54961015,3.70522809 C9.75784638,3.64671543 9.92650052,3.60197045 10.0831079,3.56583028 C10.4705082,3.47270328 10.8647051,3.41055253 11.2619659,3.37996654 C11.4065266,3.36791982 11.5510873,3.36103598 11.6922061,3.36103598 C11.8075104,3.36103598 11.9228148,3.36103598 12.0363982,3.36103598 C12.6064974,3.39081842 13.1682343,3.51106612 13.700567,3.71727481 C13.7239977,3.72501014 13.7428649,3.74261955 13.7521958,3.76546171 C13.9681151,4.29614826 14.0976794,4.85798105 14.13597,5.42963057 C14.1462958,5.59140086 14.1497377,5.76177596 14.1462958,5.94591874 C14.1473815,6.02796 14.0985784,6.1024546 14.0229312,6.13422643 C13.947284,6.16599825 13.8599246,6.14869192 13.8021037,6.09047943 C13.6300076,5.92870913 13.4579116,5.77554364 13.2858155,5.629262 L13.1997675,5.55181877 C12.9657169,5.34186158 12.743713,5.1405092 12.5337558,4.93743585 C12.3237986,4.7343625 12.1103995,4.49859091 11.8901165,4.26281931 L11.82472,4.19225993 L11.6836012,4.03737348 L11.6457401,3.99090754 C11.6317988,3.97787496 11.6131728,3.97104545 11.5941113,3.97197698 C11.3346764,3.97809242 11.0759474,4.00166551 10.819679,4.04253636 C10.7878275,4.047843 10.7614622,4.07021053 10.7510356,4.10077135 C10.740609,4.13133217 10.7478051,4.16515008 10.7697712,4.18881801 C10.9194948,4.34542542 11.0640554,4.50203283 11.2258257,4.67240792 L11.3583397,4.81868957 C11.5682969,5.0441354 11.7851379,5.27818604 12.0123047,5.5070738 C12.2394715,5.73596155 12.5148252,5.98205891 12.7660854,6.20750474 L12.8848317,6.31076238 L12.9777636,6.39681041 C13.1687902,6.56890646 13.3667007,6.74100252 13.5680531,6.94063394 C13.6833574,7.05077542 13.8141504,7.18156842 13.9518273,7.32785007 C13.9709616,7.34944853 13.9791988,7.3785955 13.9741998,7.40701426 C13.9346177,7.59115704 13.8898727,7.77013693 13.8416858,7.94223299 C13.747033,8.2864251 13.6489382,8.61168665 13.5542854,8.91801763 L13.5319129,8.99029797 C13.4286553,9.32244336 13.3305605,9.63737914 13.2445125,9.96608261 C13.1584645,10.2947861 13.0930679,10.6114428 13.0121828,10.9986589 L12.9708797,11.1965694 C12.9140881,11.4615973 12.8538544,11.736951 12.783295,12.0260724 C12.7454339,12.1844008 12.697247,12.3616597 12.6387344,12.5578492 C12.6292488,12.5849296 12.6075731,12.6059678 12.5802217,12.6146409 C12.3891951,12.6748745 12.2102152,12.7265033 12.0639335,12.7678064 C11.6990899,12.8641802 11.3548978,12.9399025 11.0451249,13.0121828 L10.995217,13.0225086 C10.6733974,13.0965099 10.3395311,13.1722321 10.0108276,13.2617221 C9.68212412,13.351212 9.35169969,13.4613535 9.02643814,13.5611692 L9.01611238,13.569774 L8.85434209,13.6231238 C8.58070936,13.7126138 8.29847183,13.8055456 7.99386181,13.8933146 L7.97321028,13.8933146 C7.85274304,13.9294548 7.66860026,13.9810836 7.45692211,14.0292705 C7.06984059,14.1210698 6.67631971,14.1832046 6.27978509,14.2151342 C6.13694536,14.227181 5.99066371,14.2340648 5.84954495,14.2340648 C5.70842618,14.2340648 5.61549431,14.2340648 5.50535284,14.2340648 L5.28679084,14.2185762 L5.09404326,14.1962037 L5.0355306,14.1875989 L4.87376031,14.1445749 C4.8628856,14.1456126 4.85193677,14.1456126 4.84106206,14.1445749 C4.78943324,14.1445749 4.73780442,14.1256443 4.68961753,14.1135976 C4.59324374,14.096388 4.49686995,14.0740155 4.40393808,14.049922 C4.29207564,14.0241076 4.16128264,13.9862465 4.02360579,13.9397805 L4.02532675,13.9397805 Z M9.16927787,16.4334524 C8.74562187,16.5651381 8.30497902,16.6341335 7.86134784,16.6382467 C7.49288159,16.6414926 7.12554956,16.59695 6.76853789,16.5057327 C5.97973545,16.2932017 5.26503282,15.8667625 4.70338521,15.273525 C4.64786591,15.2157402 4.63228018,15.1303574 4.66380312,15.0566839 C4.69570843,14.9831974 4.76783654,14.9353367 4.8479459,14.9344957 L4.88064415,14.9344957 C5.06822885,14.9620311 5.2626974,14.9826826 5.45372402,14.9930084 C5.58623798,14.9930084 5.72219387,15.0033342 5.85814975,15.0016132 C6.27488169,14.9961449 6.69045892,14.956429 7.10068328,14.8828669 L7.13510249,14.8828669 C7.17978624,14.8828669 7.22326464,14.8973597 7.25901165,14.92417 C7.68737961,15.2752841 8.15381286,15.5771957 8.64954778,15.8242324 C8.82164384,15.9033965 8.99373989,15.9808398 9.17788267,16.0513992 C9.25853069,16.0826204 9.31087449,16.1611361 9.30867568,16.2475887 C9.30599405,16.3332656 9.24936365,16.407852 9.16755691,16.4334524 L9.16927787,16.4334524 Z M11.8316039,14.3459272 C11.5319611,14.8113163 11.1608437,15.226573 10.7319101,15.576414 C10.6967358,15.6074349 10.651458,15.624567 10.604559,15.6246009 L10.5718607,15.6246009 C10.023286,15.545182 9.49068926,15.3796531 8.99373989,15.1341272 C8.8319696,15.054963 8.67708315,14.9620311 8.53252246,14.8828669 C8.46517259,14.840465 8.42848735,14.7628839 8.4384496,14.6839239 C8.44841184,14.6049639 8.50321723,14.538926 8.5789884,14.5145814 C8.75108445,14.4612316 8.92318051,14.4078818 9.09527657,14.3510901 L9.23811629,14.3063451 C9.5823084,14.1944827 9.89380227,14.0912251 10.2139009,14.0000142 C10.4961385,13.9225709 10.7852598,13.8554535 11.0898699,13.788336 L11.2120581,13.7590797 C11.4288991,13.7108928 11.649182,13.6609849 11.8780698,13.6059142 C11.8940873,13.6042187 11.9102391,13.6042187 11.9262567,13.6059142 C11.9971299,13.6051252 12.0629183,13.6426246 12.0983527,13.7040089 C12.1320379,13.7650677 12.1320379,13.8391397 12.0983527,13.9001985 C12.0140257,14.049922 11.9228148,14.2030875 11.8298829,14.3459272 L11.8316039,14.3459272 Z M14.9620311,12.2928213 C14.9634349,12.2790894 14.9634349,12.2652501 14.9620311,12.2515182 C14.9952234,12.0005093 15.0107503,11.7474796 15.0084971,11.4942956 C15.0086712,11.4620033 14.9907504,11.4323321 14.9620879,11.4174566 C14.9334254,11.4025811 14.898847,11.405006 14.8725412,11.4237362 C14.7004451,11.5390406 14.5421167,11.649182 14.356253,11.7679283 C14.223739,11.8574183 14.0722945,11.9503501 13.9070823,12.041561 C13.8783168,12.0582594 13.8456897,12.0671577 13.8124295,12.0673755 C13.7496484,12.0687413 13.6898246,12.0407387 13.6506592,11.9916532 C13.6130245,11.9427933 13.5985704,11.8799495 13.6110771,11.8195571 C13.6541011,11.6474611 13.6885203,11.475365 13.7229395,11.303269 L13.7590797,11.1449406 C13.8175923,10.8454935 13.8915936,10.4909756 13.9810836,10.1433415 C14.0619687,9.83528961 14.1531797,9.52379575 14.2529954,9.22262765 L14.270205,9.16755691 C14.3373224,8.9541578 14.4027189,8.73559581 14.4698364,8.50670805 C14.4951656,8.42054382 14.5744967,8.36157199 14.6643049,8.36214737 C14.7334004,8.36317696 14.7976435,8.39786823 14.836401,8.45507924 C14.9396586,8.62717529 15.0239857,8.77001502 15.0945451,8.91113379 C15.3519804,9.42235209 15.5262639,9.97134512 15.6108333,10.5374415 C15.6740655,10.9230494 15.6879448,11.315139 15.6521363,11.7042528 C15.6521363,11.781696 15.6366477,11.8574183 15.62288,11.9314196 C15.3884045,13.7062423 14.0744952,15.1478357 12.3289615,15.5454367 C12.3135247,15.5472299 12.2979323,15.5472299 12.2824955,15.5454367 C12.2081273,15.5436083 12.1413183,15.4995143 12.1103995,15.4318534 C12.0740899,15.3621394 12.0828941,15.2774837 12.132772,15.2167333 C12.2497973,15.0704516 12.3616597,14.9138442 12.4769641,14.750353 C12.7723974,14.2886738 13.0159547,13.7957878 13.2032094,13.2806527 C13.2276889,13.217435 13.2776686,13.1674553 13.3408863,13.1429758 C13.8120058,12.9647431 14.263082,12.7374745 14.6866774,12.4649173 L14.8914717,12.3289615 C14.9128986,12.3190017 14.9321864,12.3049742 14.9482634,12.2876584 L14.9620311,12.2928213 Z M16.4214057,9.08150888 C16.396702,9.16375052 16.3225589,9.2212751 16.2367583,9.22476924 C16.1509576,9.22826338 16.0723826,9.1769581 16.0410734,9.09699753 C15.970514,8.92490147 15.8896289,8.74247965 15.8035808,8.58070936 C15.5510888,8.09378971 15.2457892,7.63612891 14.8931927,7.21598763 C14.8504728,7.16415961 14.8322727,7.09637995 14.8432848,7.03012389 C14.9307644,6.49041454 14.9578931,5.94264433 14.92417,5.39693232 C14.9069604,5.19385897 14.8863089,4.99939043 14.8570525,4.82385245 C14.8475251,4.76678879 14.8632214,4.70839835 14.9000765,4.66380312 C14.9393778,4.6182062 14.9964879,4.59184766 15.0566839,4.59152278 C15.1069742,4.59050179 15.1557038,4.60900669 15.1926398,4.64315159 C16.4263596,5.76035464 16.9026119,7.49029072 16.4145218,9.08150888 L16.4214057,9.08150888 Z" id="Shape"></path>
                            <path d="M3.23196393,5.77382268 L3.19238184,5.80135805 L3.06158884,5.88396416 C3.09772901,5.85642879 3.13386918,5.83061438 3.17173031,5.80652093 L3.23196393,5.77382268 Z" id="Shape"></path>
                        </g>
                    </g>
                </g>
            </g>
            <g id="Group-8" transform="translate(752.211710, 190.904426)" stroke="#0F0F0F" stroke-linecap="round" stroke-width="4">
                <g id="Group-4" transform="translate(0.000000, 0.000000)">
                    <path d="M51.9126126,111.008446 L51.9126126,76.7173247" id="Stroke-154" stroke-linejoin="round"></path>
                    <path d="M51.9126126,75.5314441 L51.9126126,41.2403229" id="Stroke-155" stroke-linejoin="round"></path>
                    <path d="M9.06791624,65.7173252 C3.93254341,62.7555287 0.475607955,57.2082932 0.475607955,50.8541166 C0.475607955,41.3851476 17.6208458,20.6112572 17.6208458,20.6112572 C17.6208458,20.6112572 34.7667292,41.3851476 34.7667292,50.8541166 C34.7667292,60.3237312 27.0904604,68 17.6208458,68" id="Stroke-161" stroke-linejoin="round"></path>
                    <path d="M86.223165,45.982554 C81.0877922,43.0207576 77.6308567,37.4735221 77.6308567,31.1193455 C77.6308567,21.6503764 94.7760946,0.876486058 94.7760946,0.876486058 C94.7760946,0.876486058 111.921978,21.6503764 111.921978,31.1193455 C111.921978,40.5889601 104.245709,48.2652289 94.7760946,48.2652289" id="Stroke-161-Copy" transform="translate(94.776417, 24.570857) scale(-1, 1) translate(-94.776417, -24.570857) "></path>
                </g>
            </g>
            <g id="Group-19" transform="translate(620.605821, 347.000000)" stroke="#0F0F0F" stroke-linecap="round" stroke-width="0.25">
                <g id="Group-10">
                    <g id="Group-6" transform="translate(0.192964, 0.179117)">
                        <g id="Group-5-Copy" transform="translate(0.762086, 0.604975)">
                            <path d="M1.0182696,2.74709494 L103.251626,2.74709494" id="Line-2"></path>
                            <path d="M1.0182696,4.49357382 L103.251626,4.49357382" id="Line-2-Copy"></path>
                            <path d="M1.0182696,6.24005269 L103.251626,6.24005269" id="Line-2-Copy-2"></path>
                            <path d="M1.0182696,7.98653156 L103.251626,7.98653156" id="Line-2-Copy-3"></path>
                            <path d="M1.0182696,9.73301044 L103.251626,9.73301044" id="Line-2-Copy-4"></path>
                            <path d="M1.0182696,11.4794893 L103.251626,11.4794893" id="Line-2-Copy-5"></path>
                            <path d="M1.0182696,1.00061607 L103.251626,1.00061607" id="Line-2-Copy-6"></path>
                        </g>
                    </g>
                </g>
            </g>
            <path d="M1.32752319,383.904426 L888.077773,383.904426" id="Line" stroke="#1D2B36" stroke-width="4" stroke-linecap="round"></path>
        </g>
    </g>
</svg>