<svg width="892" height="326" viewBox="0 0 892 326" xmlns="http://www.w3.org/2000/svg" xmlns:xlink="http://www.w3.org/1999/xlink">
  <title>
    chapter-iv
  </title>
  <defs>
    <path
      d="M117.757 145.628V213H72.26v-69.2c-15.719-8.487-26.56-24.849-27.239-43.8h-.034c-6.456 0-11.689-5.233-11.689-11.69V73.69c0-6.457 5.233-11.69 11.69-11.69V51.89C44.987 23.233 68.22 0 96.877 0c28.659 0 51.89 23.232 51.89 51.89v10.124c6.188.301 11.112 5.413 11.112 11.675v14.622c0 6.273-4.941 11.392-11.145 11.677-.726 20.424-13.257 37.843-30.978 45.64z"
      id="a"/>
    <path
      d="M72.323.07v20.277C72.323 32.858 82.464 43 94.975 43c12.51 0 22.653-10.142 22.653-22.653V.071c17.084 2.025 30.203 7.592 30.203 22.006 0 .222-.003.444-.009.664 24.539 11.474 41.54 36.381 41.54 65.258v69.42H.588v-69.42c0-28.877 17-53.784 41.54-65.258a23.59 23.59 0 0 1-.01-.664c0-14.414 13.119-19.98 30.204-22.006z"
      id="b"/>
    <path
      d="M74.372 66.248c-1.924 2.173-7.718 3.01-9.316 2.173-2.954-1.545-5.75-3.201-8.998-3.088-3.248-.113-6.063.27-9.052 1.835-2.394 1.253-5.945 1.253-8.448-.92-4.04-3.507-3.362-9.083-.813-13.054 3.626-5.651 8.545-2.918 14.045-3.563 1.496-.175 2.998-.617 4.268-1.34 1.27.723 2.772 1.165 4.268 1.34 5.5.645 9.93-2.088 13.556 3.563 2.548 3.971 2.413 10.882.49 13.054zm34.2-65.957c-3.217 14.075-4.696 28.434-7.029 42.671a337.588 337.588 0 0 1-1.584 8.879c-.118.62-.235 2.923-.81 3.215-1.739.884-5.284-3.818-6.232-4.88-2.38-2.665-4.74-5.355-7.64-7.447a39.471 39.471 0 0 0-19.854-7.32c-2.987-.248-7.024.185-9.839 1.993-2.814-1.808-6.852-2.241-9.838-1.993a39.471 39.471 0 0 0-19.855 7.32c-2.9 2.092-5.26 4.782-7.64 7.447-.948 1.062-4.493 5.764-6.232 4.88-.574-.292-.691-2.595-.81-3.215a337.584 337.584 0 0 1-1.584-8.879C7.292 28.725 5.814 14.366 2.595.292 1.66.291.839 19.038.735 20.785.308 27.88-.188 34.816.446 41.917 1.54 54.167 2.681 69.525 11.451 78.88c7.924 8.452 19.43 10.219 29.354 15.554 1.277.687 2.972 1.535 4.8 2.23 1.925 1.563 5.744 2.628 10.143 2.628 4.614 0 8.59-1.172 10.411-2.862a43.018 43.018 0 0 0 4.205-1.996c9.923-5.336 21.43-7.102 29.354-15.554 8.77-9.354 9.91-24.713 11.004-36.962.635-7.1.138-14.037-.287-21.131C110.33 19.039 109.51.29 108.573.29z"
      id="d"/>
    <filter x="-.9%" y="-2.8%" width="101.8%" height="111.1%" filterUnits="objectBoundingBox" id="e">
      <feOffset dy="2" in="SourceAlpha" result="shadowOffsetOuter1"/>
      <feColorMatrix values="0 0 0 0 0 0 0 0 0 0 0 0 0 0 0 0 0 0 0.2 0" in="shadowOffsetOuter1" result="shadowMatrixOuter1"/>
      <feMerge>
        <feMergeNode in="shadowMatrixOuter1"/>
        <feMergeNode in="SourceGraphic"/>
      </feMerge>
    </filter>
  </defs>
  <g fill="none" fill-rule="evenodd">
    <g stroke-width="4">
      <g stroke="#D6DDE3" stroke-linecap="round">
        <path
          d="M189.98 176.119h145.213M91.844 138.215h386M348.474 102.215H753.77M523.844 27.5h71M275.274 27.5h195.987M766.45 102.215h25.689M347.844 176.119h4.56M298.656 213.715h145.212M260.77 213.715h27.478M544.02 191.908H689.23M697.52 191.908h4.56M145.474 62.215H550.77"/>
      </g>
      <g stroke="#0F0F0F">
        <path d="M283.547 322.866h-24.693c-6.627 0-12-5.372-12-12v-24.333a5 5 0 0 1 5-5h43.693v29.333c0 6.628-5.373 12-12 12z" fill="#FDFDFD"/>
        <path d="M289.45 281.535c11.785 0 20.506-1.436 20.506 14.356s-5.774 16.67-16.363 16.67M248.854 312.905h46.739"/>
        <g stroke-linecap="round" stroke-linejoin="round">
          <path d="M271.487 268.309c2.838-2.741 2.853-7.33.034-10.249M271.556 247.812c-2.838 2.74-2.854 7.329-.035 10.248"/>
        </g>
        <g stroke-linecap="round" stroke-linejoin="round">
          <path d="M260.132 272.835c2.838-2.74 2.854-7.329.035-10.248M260.201 252.339c-2.838 2.74-2.853 7.329-.034 10.248"/>
        </g>
        <g stroke-linecap="round" stroke-linejoin="round">
          <path d="M282.84 272.386c2.839-2.741 2.855-7.33.035-10.249M282.91 251.889c-2.838 2.74-2.854 7.329-.035 10.248"/>
        </g>
      </g>
    </g>
    <path
      d="M762.827 196.347c-5.135-2.962-8.592-8.51-8.592-14.864 0-9.469 17.145-30.242 17.145-30.242s17.146 20.773 17.146 30.242c0 9.47-7.676 17.146-17.146 17.146M814.225 160.099c5.135-2.962 8.592-8.51 8.592-14.863 0-9.47-17.145-30.243-17.145-30.243s-17.146 20.774-17.146 30.243c0 9.47 7.677 17.145 17.146 17.145"
      fill="#FDFDFD"/>
    <path d="M854.088 241.913h-96.833c0 9.944 8.061 18.006 18.006 18.006h60.822c9.944 0 18.005-8.062 18.005-18.006z" stroke="#0F0F0F" stroke-width="4" fill="#FDFDFD" stroke-linecap="round" stroke-linejoin="round"/>
    <path stroke="#0F0F0F" stroke-width="4" fill="#FDFDFD" d="M775.636 259.919l6.69 63.942h52.44l6.508-63.942z"/>
    <path d="M805.672 241.913v-34.291M805.672 206.436v-34.291" stroke="#1D2B36" stroke-width="4" stroke-linecap="round" stroke-linejoin="round"/>
    <path
      d="M805.672 233.34c0-9.469-7.676-17.146-17.146-17.146M822.818 195.352c-9.47 0-17.146 7.677-17.146 17.146M771.38 199.049c0 9.469 7.677 17.146 17.147 17.146M822.818 195.228c9.469 0 17.145-7.676 17.145-17.146M771.38 191.723v-16.788M771.38 188.866l5.567-5.566M848.536 172.264v-16.789M848.536 169.406l5.566-5.566M814.225 160.099c5.135-2.962 8.592-8.51 8.592-14.863 0-9.47-17.145-30.243-17.145-30.243s-17.146 20.774-17.146 30.243c0 9.47 7.677 17.145 17.146 17.145M805.672 162.381v9.763M805.672 155.475v-16.788M805.672 152.618l5.566-5.566M805.672 147.855l-5.566-5.566M805.672 191.13c0-9.468-7.676-17.145-17.146-17.145M740.11 153.26c0 9.47 7.676 17.146 17.145 17.146"
      stroke="#0F0F0F"
      stroke-width="4"
      stroke-linecap="round"
      stroke-linejoin="round"/>
    <path d="M746.5 146.319a6.39 6.39 0 1 0-12.78 0 6.39 6.39 0 0 0 12.78 0zM846.342 205.295a6.39 6.39 0 1 0-12.781 0 6.39 6.39 0 0 0 12.78 0z" stroke="#0F0F0F" stroke-width="4" fill="#FDFDFD" stroke-linecap="round" stroke-linejoin="round"/>
    <path d="M805.66 212.774c0 9.469 7.677 17.146 17.146 17.146M822.806 229.92c9.47 0 17.145-7.677 17.145-17.147" stroke="#0F0F0F" stroke-width="4" stroke-linecap="round" stroke-linejoin="round"/>
    <g stroke="#0F0F0F">
      <g opacity=".15" stroke-linecap="square" stroke-width=".25">
        <path d="M618.018 310.377h113.469M618.018 312.123h113.469M618.018 313.87h113.469M618.018 315.616h113.469M618.018 317.363h113.469M618.018 319.11h113.469M618.018 308.63h113.469"/>
      </g>
      <path d="M603.987 304.06v19.14h127v-15.14a4 4 0 0 0-4-4h-123z" stroke-width="4"/>
      <g stroke-linecap="round" stroke-width=".25">
        <path d="M616.018 310.377h113.469M616.018 312.123h113.469M616.018 313.87h113.469M616.018 315.616h113.469M616.018 317.363h113.469M616.018 319.11h113.469M616.018 308.63h113.469"/>
      </g>
      <path d="M603.987 284.501v19.141H719.56v-15.14a4 4 0 0 0-4-4H603.987z" stroke-width="4"/>
      <g stroke-linecap="round" stroke-width=".25">
        <path d="M616.127 290.531H718.36M616.127 292.278H718.36M616.127 294.024H718.36M616.127 295.77H718.36M616.127 297.517H718.36M616.127 299.264H718.36M616.127 288.785H718.36"/>
      </g>
      <g>
        <path d="M603.987 284.2h105.808v-15.14a4 4 0 0 0-4-4h-97.808a4 4 0 0 0-4 4v15.14z" stroke-width="4"/>
        <g stroke-linecap="round" stroke-width=".25">
          <path d="M615.455 271.377h92.243M615.455 273.124h92.243M615.455 274.87h92.243M615.455 276.617h92.243M615.455 278.363h92.243M615.455 280.11h92.243M615.455 269.631h92.243"/>
        </g>
      </g>
    </g>
    <g>
      <g transform="matrix(-1 0 0 1 211.52 183.979)">
        <path
          d="M127.042 21.583h-.044V8.711a6.708 6.708 0 0 0-6.708-6.709h-17.417a6.708 6.708 0 0 0-6.708 6.709v12.872h-43.54V8.711a6.708 6.708 0 0 0-6.708-6.709H28.5a6.708 6.708 0 0 0-6.708 6.709v125.056a5.917 5.917 0 0 0 5.916 5.917h89.444v.014h28.121c5.891 0 10.667-4.775 10.667-10.666V82.563a5.958 5.958 0 0 1 5.958-5.958h10.657a5.285 5.285 0 1 0 0-10.57h-16.7c-5.454 0-9.875 4.42-9.875 9.874v46.138a8.333 8.333 0 0 1-8.333 8.333h-10.605V21.583z"
          stroke="#0F0F0F"
          stroke-width="4"
          fill="#FDFDFD"/>
        <path d="M37.722 139.868h73.39v-3.064c0-20.266-16.43-36.695-36.695-36.695-20.266 0-36.695 16.429-36.695 36.695v3.064z" stroke="#0F0F0F" stroke-width="4"/>
        <g stroke="#0F0F0F" stroke-linecap="round" stroke-linejoin="round" stroke-width="4">
          <path d="M87.125 53.376c-.274 6.806 2.49 10.158 8.294 10.057 5.803-.101 8.418-3.547 7.845-10.338M48.125 53.376c-.274 6.806 2.49 10.158 8.294 10.057 5.803-.101 8.418-3.547 7.845-10.338"/>
        </g>
        <g stroke="#0F0F0F" stroke-linecap="round" stroke-width="4">
          <path d="M62.422 22.575v17.703M74.34 22.575v17.703M86.26 22.575v17.703"/>
        </g>
        <g stroke="#0F0F0F" stroke-linecap="round" stroke-width="4">
          <path d="M150.076 47.963h-30.64M145.22 59.882h-25.785M139.224 71.802h-19.789"/>
        </g>
        <g stroke="#0F0F0F" stroke-linecap="round" stroke-width="4">
          <path d="M31.391 47.963H.751M31.391 59.882H6.22M31.391 71.802H11.215"/>
        </g>
        <g transform="translate(57.25 69.833)">
          <ellipse fill="#0F0F0F" cx="16.771" cy="3.282" rx="9.018" ry="2.677"/>
          <path d="M.853 5.188c0 3.945 3.827 7.144 7.348 7.144 3.52 0 6.367-1.906 8.2-5.084M32.222 5.188c0 3.945-3.29 7.144-7.348 7.144s-6.369-2.132-7.91-5.004" stroke="#0F0F0F" stroke-width="4" stroke-linecap="round" stroke-linejoin="round"/>
        </g>
        <circle stroke="#0F0F0F" stroke-width="4" cx="109.153" cy="94.396" r="5.938"/>
        <circle stroke="#0F0F0F" stroke-width="4" cx="37.604" cy="94.396" r="5.938"/>
      </g>
    </g>
    <g>
      <g transform="translate(358.375 17.904)">
        <use fill="#FFE3C3" xlink:href="#a"/>
        <g transform="translate(0 150)">
          <mask id="c" fill="#fff">
            <use xlink:href="#b"/>
          </mask>
          <use fill="#0D97FF" xlink:href="#b"/>
          <path d="M64.59 47.332v61.014a2 2 0 1 1-4 0V45.15a62.645 62.645 0 0 0 4 2.182zm67-.51v25.351a2 2 0 0 1-4 0V48.739a66.549 66.549 0 0 0 4-1.918z" fill="#FDFDFD" mask="url(#c)"/>
          <path
            d="M94.98 55c-11.225 0-22.705-3.553-31.045-8.048-12.669-6.827-22.3-17.01-22.3-28.875 0-9.37 5.597-15.003 14.251-18.353C41.55 2.571 31.634 8.243 31.634 19.308 31.634 39.02 63.104 55 94.979 55zM134.072-.276c14.337 2.847 24.253 8.519 24.253 19.584 0 19.71-31.465 35.689-63.337 35.692 26.84-.004 53.335-16.533 53.335-36.923 0-9.37-5.597-15.003-14.25-18.353z"
            fill-opacity=".16"
            fill="#000"
            mask="url(#c)"/>
          <path d="M154 85.965v68.23M37 85.965v68.23" stroke="#0A7ED6" stroke-width="4" stroke-linecap="round"/>
        </g>
        <g fill="#FFF" fill-rule="nonzero">
          <path
            d="M118.483 252.982a12.983 12.983 0 0 0-6.923-8.147.568.568 0 0 1-.26-.27 14.122 14.122 0 0 0-1.182-1.937 13.025 13.025 0 0 0-7.08-4.848 12.334 12.334 0 0 0-3.189-.388 13.23 13.23 0 0 0-5.347 1.182c-.7.323-1.371.706-2.006 1.144a.563.563 0 0 1-.303.09 12.01 12.01 0 0 0-2.292.047c-1.463.159-2.89.566-4.216 1.203-1.31.625-2.501 1.47-3.526 2.496a12.949 12.949 0 0 0-3.597 10.068.589.589 0 0 1-.094.359c-.42.633-.786 1.3-1.097 1.993a12.62 12.62 0 0 0 4.302 15.547c.62.443 1.278.829 1.967 1.153a.597.597 0 0 1 .26.264c.337.679.73 1.327 1.179 1.938a12.923 12.923 0 0 0 3.15 3.039 12.774 12.774 0 0 0 3.93 1.81c1.044.268 2.118.4 3.196.392a13.166 13.166 0 0 0 7.345-2.326.576.576 0 0 1 .303-.086c.303 0 .628.03.995.03a12.671 12.671 0 0 0 12.628-11.574c.062-.757.062-1.518 0-2.275a.56.56 0 0 1 .094-.362 13.17 13.17 0 0 0 2.21-7.35 12.09 12.09 0 0 0-.447-3.192zm-21.873-13.17a11.297 11.297 0 0 1 3.244-.504c.912-.01 1.822.101 2.705.329a10.985 10.985 0 0 1 5.122 3.051.504.504 0 0 1-.359.85.205.205 0 0 1-.077 0c-.473-.07-.95-.116-1.43-.137-.294 0-.614-.026-.985 0a18.97 18.97 0 0 0-3.107.29h-.068a.546.546 0 0 1-.316-.11 17.797 17.797 0 0 0-3.449-2.267 14.156 14.156 0 0 0-1.31-.572.482.482 0 0 1-.316-.482.487.487 0 0 1 .346-.448zm-6.606 5.18a13.175 13.175 0 0 1 2.73-3.055.512.512 0 0 1 .325-.115h.077a13.4 13.4 0 0 1 3.91 1.22c.354.171.725.376 1.143.623.168.104.26.296.235.491a.487.487 0 0 1-.35.427c-.495.154-.965.307-1.425.46l-.188.065c-.99.32-1.707.546-2.429.751-.72.205-1.425.363-2.185.534l-.273.042c-.546.12-1.092.244-1.664.384a.38.38 0 0 1-.116 0 .495.495 0 0 1-.426-.243.504.504 0 0 1 0-.49c.179-.35.4-.73.636-1.093zm-7.448 18.169a18.198 18.198 0 0 0-.196 4.05c.03.427.085.918.162 1.417a.5.5 0 0 1-.107.427.53.53 0 0 1-.38.175.478.478 0 0 1-.34-.133 10.61 10.61 0 0 1-3.052-11.036.504.504 0 0 1 .947-.047c.175.427.376.883.59 1.306a18.236 18.236 0 0 0 2.248 3.38.568.568 0 0 1 .128.46zm1.379-5.335c-.167.53-.333 1.067-.504 1.63a.495.495 0 0 1-.474.363.487.487 0 0 1-.426-.235c-.235-.364-.45-.74-.645-1.126a13.23 13.23 0 0 1-1.301-4.033 11.617 11.617 0 0 1-.103-2.894c0-.196.038-.376.068-.56a10.627 10.627 0 0 1 8.173-8.961.512.512 0 0 1 .12 0c.183.002.35.11.426.277a.49.49 0 0 1-.055.533c-.282.359-.56.747-.854 1.157a17.959 17.959 0 0 0-1.856 3.798.205.205 0 0 1-.124.128 18.352 18.352 0 0 0-3.444 1.707l-.15.103-.132.077-.085.06-.038.025-.064.043-.035.025-.08.052a.162.162 0 0 0-.065.102 1.323 1.323 0 0 0 0 .14v.146c0 .097-.01.193-.03.29-.017.196-.03.394-.042.593-.012.2-.012.403 0 .61v.163a.213.213 0 0 0 .337.175c.256-.18.516-.354.781-.534l.11-.123c.09-.069.18-.133.274-.192l.15-.099c.285-.192.605-.384.96-.58a.53.53 0 0 1 .636.128c.093.121.129.277.098.427-.12.495-.218.973-.316 1.434l-.051.235a42.492 42.492 0 0 1-.55 2.475c-.214.82-.428 1.51-.67 2.287l-.04.154zm1.899 13.683l-.512-.188-.064-.039-.043-.093a13.49 13.49 0 0 1-.943-4.127 12.125 12.125 0 0 1-.03-1.28.495.495 0 0 1 .5-.487.49.49 0 0 1 .337.128 34.3 34.3 0 0 0 1.28 1.143l.098.09c.58.517 1.19 1.071 1.767 1.63.576.56 1.127 1.166 1.745 1.84.163.175.329.35.491.529l.047.051a.064.064 0 0 0 .051 0 14.442 14.442 0 0 0 1.968-.175.213.213 0 0 0 .12-.362c-.427-.427-.82-.854-1.281-1.358l-.2-.183a48.615 48.615 0 0 0-1.61-1.682 47.887 47.887 0 0 0-1.643-1.528l-.303-.273c-.653-.584-1.28-1.13-1.903-1.745-.286-.265-.568-.547-.854-.828a.589.589 0 0 1-.145-.534c.09-.384.184-.764.286-1.13a52.5 52.5 0 0 1 .674-2.263l.137-.452c.243-.79.478-1.536.67-2.305a71.53 71.53 0 0 0 .58-2.56l.077-.376c.141-.653.3-1.395.491-2.164.081-.337.18-.717.299-1.122a.602.602 0 0 1 .397-.401c.333-.103.644-.188.93-.27l.184-.05a76.472 76.472 0 0 1 2.535-.602l.316-.073c.776-.179 1.506-.35 2.236-.55.73-.2 1.536-.465 2.275-.7l.239-.077c.772-.256 1.6-.53 2.48-.79.516-.145.934-.256 1.322-.345.961-.231 1.939-.385 2.924-.461.358-.03.717-.047 1.067-.047h.853c1.414.074 2.807.372 4.127.883a.21.21 0 0 1 .128.12c.536 1.316.857 2.71.952 4.127.026.401.034.824.026 1.28a.5.5 0 0 1-.854.359 34.3 34.3 0 0 0-1.28-1.144l-.214-.192a60.17 60.17 0 0 1-1.651-1.524c-.521-.503-1.05-1.088-1.597-1.673l-.162-.175-.35-.384-.145-.158a.175.175 0 0 0-.128-.047c-.643.016-1.285.074-1.92.175a.218.218 0 0 0-.124.363c.371.389.73.777 1.13 1.2l.33.362c.52.56 1.058 1.14 1.621 1.707.564.568 1.246 1.178 1.87 1.737l.294.256.23.214c.474.427.965.853 1.464 1.348.286.274.61.598.952.96a.235.235 0 0 1 .056.197c-.099.457-.21.9-.33 1.327-.234.875-.477 1.66-.712 2.42l-.055.18c-.256.823-.5 1.604-.713 2.42-.213.814-.376 1.6-.576 2.56l-.103.49c-.14.658-.29 1.34-.465 2.058-.094.392-.213.832-.358 1.318a.226.226 0 0 1-.145.141c-.474.15-.918.278-1.28.38-.905.24-1.76.427-2.527.606l-.124.026c-.798.183-1.626.371-2.441.593-.815.222-1.635.495-2.441.743h-.026l-.401.132c-.679.222-1.379.452-2.134.67h-.051c-.299.09-.756.218-1.28.337-.96.228-1.936.382-2.92.461-.354.03-.717.047-1.067.047h-.853l-.542-.038-.478-.056h-.145l-.33-.064a.427.427 0 0 1-.08 0c-.128 0-.256-.047-.376-.077a9.486 9.486 0 0 1-.708-.158c-.23-.06-.602-.192-.943-.298h.004zm12.756 6.184a11.28 11.28 0 0 1-3.243.508 10.571 10.571 0 0 1-2.71-.33 10.99 10.99 0 0 1-5.122-3.055.495.495 0 0 1-.098-.538c.08-.182.258-.3.457-.303h.081c.465.069.947.12 1.421.146.329 0 .666.025 1.003 0a18.86 18.86 0 0 0 3.081-.295h.086c.11 0 .218.036.307.102 1.062.871 2.22 1.62 3.449 2.233.426.196.853.388 1.31.563.2.077.33.272.324.486a.5.5 0 0 1-.35.483h.004zm6.603-5.177a13.064 13.064 0 0 1-2.727 3.051.478.478 0 0 1-.316.12h-.081a13.06 13.06 0 0 1-3.914-1.217c-.401-.196-.785-.426-1.144-.623a.508.508 0 0 1 .116-.913c.426-.132.853-.265 1.28-.427l.354-.11c.854-.278 1.626-.534 2.42-.76.7-.192 1.417-.359 2.172-.525l.303-.073c.538-.12 1.084-.243 1.652-.38a.572.572 0 0 1 .12 0 .487.487 0 0 1 .426.244.504.504 0 0 1 0 .486c-.209.393-.435.773-.666 1.127h.005zm9.521-6.534c0 .192-.038.38-.072.563a10.618 10.618 0 0 1-8.169 8.963.5.5 0 0 1-.115 0 .504.504 0 0 1-.393-.816c.29-.362.568-.75.832-1.156a18.467 18.467 0 0 0 1.801-3.645.597.597 0 0 1 .342-.341 17.827 17.827 0 0 0 3.337-1.682l.15-.098.158-.102.085-.06.038-.026.098-.068.094-.064a.098.098 0 0 0 .03-.03.96.96 0 0 0 .026-.107c.082-.622.12-1.25.115-1.877a.213.213 0 0 0-.337-.175c-.427.285-.82.559-1.28.853-.33.222-.705.452-1.114.679a.5.5 0 0 1-.636-.124.525.525 0 0 1-.098-.427c.106-.427.192-.853.277-1.28l.09-.393c.145-.742.328-1.622.55-2.484.2-.764.427-1.536.674-2.283l.043-.137c.167-.529.329-1.07.495-1.638a.5.5 0 0 1 .482-.359c.172.003.331.089.427.23.256.427.465.782.64 1.132a13.354 13.354 0 0 1 1.328 4.05c.157.959.192 1.934.102 2.902zm1.844-6.521a.5.5 0 0 1-.943.038c-.175-.427-.376-.88-.59-1.28a18.544 18.544 0 0 0-2.257-3.385.576.576 0 0 1-.124-.46c.217-1.34.285-2.697.2-4.05a18.13 18.13 0 0 0-.166-1.422.495.495 0 0 1 .495-.576.482.482 0 0 1 .338.128 10.64 10.64 0 0 1 3.047 11.007z"
            opacity=".48"/>
          <path
            d="M118.504 253.008a12.983 12.983 0 0 0-4.98-7 12.663 12.663 0 0 0-1.964-1.148.568.568 0 0 1-.26-.268 14.122 14.122 0 0 0-1.182-1.938 13.025 13.025 0 0 0-7.08-4.848 12.334 12.334 0 0 0-3.189-.389 13.23 13.23 0 0 0-5.347 1.183c-.7.323-1.371.705-2.006 1.143a.563.563 0 0 1-.303.09 12.014 12.014 0 0 0-2.292.047c-1.462.16-2.886.567-4.212 1.203a12.74 12.74 0 0 0-3.525 2.497 12.949 12.949 0 0 0-3.602 10.068.589.589 0 0 1-.094.358c-.42.634-.786 1.3-1.097 1.993a12.62 12.62 0 0 0 4.302 15.548c.62.443 1.278.828 1.967 1.152a.597.597 0 0 1 .26.265c.337.679.73 1.327 1.179 1.938a12.923 12.923 0 0 0 3.15 3.038 12.774 12.774 0 0 0 3.93 1.81c1.044.269 2.118.401 3.196.392a13.166 13.166 0 0 0 7.345-2.326.576.576 0 0 1 .303-.085c.303 0 .628.03.995.03a12.671 12.671 0 0 0 12.628-11.574c.062-.757.062-1.518 0-2.275a.56.56 0 0 1 .094-.363c.42-.63.785-1.296 1.093-1.989a13.17 13.17 0 0 0 1.118-5.36 12.09 12.09 0 0 0-.427-3.192zm-21.894-13.17a11.297 11.297 0 0 1 3.244-.504c.912-.01 1.822.1 2.705.328a10.985 10.985 0 0 1 5.122 3.052.504.504 0 0 1-.359.849.21.21 0 0 1-.077 0 14.28 14.28 0 0 0-1.43-.137c-.294 0-.614-.025-.985 0a18.966 18.966 0 0 0-3.107.29h-.068a.546.546 0 0 1-.316-.11 17.797 17.797 0 0 0-3.444-2.224 14.16 14.16 0 0 0-1.31-.572.482.482 0 0 1-.316-.482.487.487 0 0 1 .341-.49zm-6.606 5.18a13.179 13.179 0 0 1 2.73-3.055.512.512 0 0 1 .325-.116h.077a13.4 13.4 0 0 1 3.91 1.22c.354.172.725.377 1.143.624.168.104.26.295.235.49a.487.487 0 0 1-.35.428c-.495.153-.965.307-1.425.46l-.188.065c-.99.32-1.707.546-2.429.75-.72.206-1.425.363-2.185.534l-.273.064c-.546.12-1.092.243-1.664.384a.376.376 0 0 1-.116 0 .495.495 0 0 1-.426-.243.504.504 0 0 1 0-.49c.179-.372.4-.752.636-1.115zm-7.448 18.168a18.198 18.198 0 0 0-.196 4.05c.03.427.085.918.162 1.417a.5.5 0 0 1-.107.427.53.53 0 0 1-.38.175.478.478 0 0 1-.34-.132 10.61 10.61 0 0 1-3.052-11.037.504.504 0 0 1 .947-.047c.175.427.376.884.59 1.306a18.236 18.236 0 0 0 2.248 3.38.568.568 0 0 1 .128.461zm1.379-5.334c-.167.529-.333 1.067-.504 1.63a.495.495 0 0 1-.474.363.487.487 0 0 1-.426-.235c-.235-.364-.45-.74-.645-1.127a13.23 13.23 0 0 1-1.28-4.033 11.617 11.617 0 0 1-.128-2.893c0-.197.038-.376.068-.56a10.627 10.627 0 0 1 8.173-8.962.512.512 0 0 1 .12 0c.183.003.35.11.426.278a.49.49 0 0 1-.055.533c-.282.359-.56.747-.854 1.157A17.959 17.959 0 0 0 86.5 247.8a.205.205 0 0 1-.124.128 18.352 18.352 0 0 0-3.444 1.707c-.192.124-.376.252-.564.38a.32.32 0 0 0-.145.311c0 .133-.021.265-.034.397-.013.133-.03.397-.038.594-.009.196 0 .426 0 .606v.166a.213.213 0 0 0 .337.175c.256-.18.516-.354.781-.533l.154-.107c.09-.068.179-.132.273-.192l.15-.098c.285-.192.605-.384.96-.58a.53.53 0 0 1 .635.127c.094.121.13.277.098.427-.12.495-.217.973-.315 1.434l-.009.205a42.491 42.491 0 0 1-.55 2.475c-.214.82-.427 1.511-.67 2.288l-.06.14zm1.899 13.682l-.512-.188-.064-.038-.043-.073a13.49 13.49 0 0 1-.943-4.126 12.133 12.133 0 0 1-.03-1.28.495.495 0 0 1 .5-.487.49.49 0 0 1 .337.128 34.3 34.3 0 0 0 1.28 1.143l.098.09c.58.516 1.19 1.071 1.767 1.63.576.56 1.127 1.165 1.745 1.84.163.175.329.35.491.529l.047.051c.016.01.036.01.051 0a14.447 14.447 0 0 0 1.968-.175.213.213 0 0 0 .12-.363c-.427-.426-.82-.853-1.281-1.357l-.2-.23a48.615 48.615 0 0 0-1.61-1.682 47.887 47.887 0 0 0-1.643-1.528l-.303-.273c-.653-.584-1.28-1.13-1.903-1.745-.286-.265-.568-.547-.854-.828a.589.589 0 0 1-.145-.534c.09-.384.184-.764.286-1.13a52.5 52.5 0 0 1 .674-2.263l.137-.452c.265-.781.5-1.515.691-2.296.192-.781.389-1.647.58-2.56l.078-.376c.14-.653.298-1.396.49-2.164.082-.337.18-.717.3-1.122a.602.602 0 0 1 .396-.402c.333-.106.645-.192.93-.277l.184-.051a76.472 76.472 0 0 1 2.535-.602l.316-.073c.777-.179 1.506-.35 2.236-.55.73-.2 1.537-.465 2.275-.7l.239-.077c.772-.256 1.6-.53 2.48-.79.516-.145.934-.256 1.323-.345.96-.231 1.938-.385 2.923-.461.359-.03.717-.047 1.067-.047h.854c1.413.074 2.806.372 4.127.883a.21.21 0 0 1 .128.12 13.311 13.311 0 0 1 .977 5.407.5.5 0 0 1-.854.359 34.3 34.3 0 0 0-1.28-1.144l-.213-.192a60.17 60.17 0 0 1-1.652-1.524c-.52-.503-1.05-1.088-1.596-1.673l-.162-.175-.35-.384-.094-.115a.175.175 0 0 0-.128-.047 14.34 14.34 0 0 0-1.92.175.218.218 0 0 0-.125.363c.372.388.73.777 1.131 1.2l.329.362c.52.559 1.058 1.14 1.622 1.707.563.568 1.246 1.178 1.87 1.737l.294.256.23.213c.474.427.965.854 1.464 1.349.286.273.61.598.952.96a.235.235 0 0 1 .055.197c-.098.456-.209.9-.329 1.327a79.91 79.91 0 0 1-.712 2.42l-.056.179c-.256.824-.5 1.605-.712 2.42-.214.815-.376 1.6-.577 2.56l-.102.491c-.14.658-.29 1.34-.465 2.057-.094.393-.214.833-.359 1.32a.226.226 0 0 1-.145.14c-.474.15-.917.277-1.28.38-.905.239-1.759.427-2.527.606l-.123.025c-.799.184-1.627.372-2.442.594-.815.222-1.634.495-2.44.742l-.026.022-.402.132c-.678.222-1.378.452-2.134.67h-.05c-.3.09-.756.218-1.281.337-.96.228-1.936.382-2.92.461-.353.03-.716.047-1.066.047h-.854l-.542-.038-.478-.056-.145-.021-.401-.107a.427.427 0 0 1-.081 0c-.128 0-.256-.047-.376-.077a9.486 9.486 0 0 1-.708-.158 10.212 10.212 0 0 1-.943-.273h.004zm12.756 6.184a11.28 11.28 0 0 1-3.243.508 10.571 10.571 0 0 1-2.71-.328 10.99 10.99 0 0 1-5.122-3.056.495.495 0 0 1-.098-.538c.08-.182.258-.3.457-.303h.081c.465.068.947.12 1.421.145.329 0 .666.026 1.003.021a18.86 18.86 0 0 0 3.081-.294h.086c.11 0 .218.036.307.102 1.062.871 2.22 1.62 3.449 2.232.426.197.853.389 1.31.564.2.077.33.272.324.486a.5.5 0 0 1-.35.461h.004zm6.603-5.177a13.064 13.064 0 0 1-2.727 3.052.478.478 0 0 1-.316.12h-.081a13.06 13.06 0 0 1-3.914-1.217c-.401-.196-.785-.427-1.144-.623a.508.508 0 0 1 .116-.913c.426-.133.853-.265 1.28-.406l.354-.11c.854-.278 1.626-.534 2.42-.76.7-.192 1.417-.359 2.172-.525l.303-.073c.538-.12 1.084-.243 1.652-.38a.568.568 0 0 1 .12 0 .487.487 0 0 1 .426.244.504.504 0 0 1 0 .486c-.209.371-.435.751-.666 1.105h.005zm7.763-5.091a.504.504 0 0 0 0-.103c.082-.622.12-1.25.115-1.877a.213.213 0 0 0-.337-.175c-.427.286-.82.559-1.28.853-.33.222-.705.453-1.114.679a.5.5 0 0 1-.636-.124.525.525 0 0 1-.098-.427c.106-.427.192-.853.277-1.28l.09-.393c.145-.742.328-1.621.55-2.484.2-.764.427-1.536.674-2.283l.043-.136c.167-.53.329-1.072.495-1.64a.5.5 0 0 1 .482-.358c.172.003.331.089.427.23.256.427.465.782.64 1.132a13.354 13.354 0 0 1 1.28 4.033c.158.956.192 1.928.103 2.893 0 .192-.038.38-.072.564a10.618 10.618 0 0 1-8.169 8.962.5.5 0 0 1-.115 0 .482.482 0 0 1-.427-.282.487.487 0 0 1 .056-.533c.29-.363.567-.751.853-1.157a18.467 18.467 0 0 0 1.801-3.644.597.597 0 0 1 .342-.342 17.822 17.822 0 0 0 3.337-1.681l.508-.337a.452.452 0 0 0 .14-.103l.035.013zm3.619-7.964a.5.5 0 0 1-.943.039c-.175-.427-.376-.88-.59-1.28a18.544 18.544 0 0 0-2.257-3.385.576.576 0 0 1-.124-.461 18.27 18.27 0 0 0 .2-4.05 18.13 18.13 0 0 0-.166-1.421.495.495 0 0 1 .496-.577.482.482 0 0 1 .337.129 10.64 10.64 0 0 1 3.03 11.006h.017z"/>
        </g>
        <path d="M87.964 85.771c0 2.983 3.627 5.401 8.102 5.401 4.474 0 8.101-2.418 8.101-5.4" stroke="#0F0F0F" stroke-linecap="round" stroke-width="4"/>
        <g transform="translate(63 62)" fill="#0F0F0F">
          <circle cx="6" cy="6" r="6"/>
          <circle cx="58" cy="6" r="6"/>
        </g>
        <g fill-rule="nonzero">
          <path d="M57.63 55.159c3.915-5.51 14.648-8.598 23.893-6.328a2 2 0 0 0 .954-3.884c-10.737-2.637-23.165.94-28.107 7.894a2 2 0 0 0 3.26 2.318z" fill="#BFA465"/>
          <path d="M106.923 114c-4.74 4.252-14.024 4.483-20.497-.007-.75-.52-1.794-.17-2.33.784-.536.954-.361 2.15.39 2.67 7.517 5.215 18.266 4.947 24.25-.421.775-.695.997-1.936.496-2.772-.5-.835-1.535-.95-2.31-.254z" fill="#0F0F0F"/>
          <path d="M135.37 55.159c-3.915-5.51-14.648-8.598-23.893-6.328a2 2 0 0 1-.954-3.884c10.737-2.637 23.165.94 28.108 7.894a2 2 0 0 1-3.26 2.318z" fill="#BFA465"/>
        </g>
      </g>
      <use fill="#BFA465" xlink:href="#d" transform="translate(399.875 77.513)"/>
      <path
        d="M501.9 23.432c-2.651-2.82-5.73-5.214-8.725-7.614-.66-.53-1.332-1.046-1.978-1.595-.147-.125-1.651-1.246-1.831-1.659-.433-.992-.182-.22-.123-1.404.076-1.498 3.011-5.73.82-6.7-.963-.426-2.681.71-3.606 1.084a55.605 55.605 0 0 1-5.506 1.9c.895-1.856 2.602-5.573-.606-4.578-2.5.775-4.83 2.767-7.341 3.705.83-1.418 4.154-5.812 1.151-6.057-.935-.077-3.654 1.748-4.66 2.137-3.014 1.166-6.093 1.92-9.257 2.513-10.76 2.018-23.342 1.443-33.297 6.54-7.675 3.931-15.253 10.03-19.686 17.795-4.273 7.485-5.872 15.677-6.766 24.254-.656 6.294-.71 12.8-.403 19.118.1 2.07-1.2 25.756 1.69 22.866 1.439-1.44 2.952-21.397 3.315-23.365.721-3.915 1.416-7.848 2.619-11.638 2.12-6.679 3.899-14.29 9.901-18.393 5.592-3.821 21.85-10.649 27.38-10.649 5.53 0 6.791 3.85 20.444 2.784 13.654-1.067 16.385-5.024 17.881-4.098 1.37.848 2.791 3.615 3.774 4.748 2.323 2.679 5.092 4.725 7.808 6.92 5.664 4.58 8.523 10.332 10.243 17.489 1.714 7.13 1 15.266 3.122 22.282.373 1.234-.793 7.437.585 9.65.085.136 1.376-.309 1.802-2.562.685-3.625.59-9.884.59-10.574 0-4.52 1.1-7.911 1.086-12.46-.054-13.832-.484-31.869-10.425-42.44z"
        fill="#BFA465"/>
      <g filter="url(#e)" transform="translate(398.326 68.894)" fill="#5B462F" fill-rule="nonzero">
        <path
          d="M29.447 35.51H27.06c-12.063 0-19.264-6.638-19.264-17.755C7.795 8.771 9.369 0 28.175 0h2.546C49.526 0 51.1 8.771 51.1 17.755c0 10.453-8.903 17.755-21.653 17.755zM28.05 5.197c-16.79 0-16.79 5.925-16.79 13.425 0 6.124 2.7 13.424 15.565 13.424h2.623c10.71 0 18.188-5.52 18.188-13.424 0-7.5 0-13.425-16.79-13.425H28.05zM83.146 35.51h-2.389c-12.063 0-19.264-6.638-19.264-17.755C61.493 8.771 63.067 0 81.873 0h2.546c18.805 0 20.379 8.771 20.379 17.755 0 10.453-8.902 17.755-21.652 17.755zM81.747 5.197c-16.79 0-16.79 5.925-16.79 13.425 0 6.124 2.702 13.424 15.565 13.424h2.624c10.709 0 18.188-5.52 18.188-13.424 0-7.5 0-13.425-16.79-13.425h-2.797z"/>
        <path
          d="M2.559 4.999C3.158 4.414 9.709 0 28.149 0c15.46 0 18.733 1.605 23.687 4.029l.363.179c.344.122 2.106.72 4.166.786 1.877-.08 3.482-.59 3.952-.753C65.97 1.491 71.507 0 84.445 0c18.44 0 24.99 4.414 25.589 4.999 1.415 0 2.559 1.117 2.559 2.5v2.498c0 1.383-1.144 2.5-2.559 2.5 0 0-5.977 0-5.977 2.5 0 2.499-1.7-3.617-1.7-5V7.563c-3.12-1.194-8.707-3.418-17.912-3.418-10.256 0-15.364 1.819-19.745 3.625l.049.118-.003 1.72-1.92 4.634-2.372-.938a11.289 11.289 0 0 0-1.303-.39c-1.766-.436-3.583-.569-5.19-.24a6.855 6.855 0 0 0-1.637.549l-2.289 1.118-2.29-4.47.102-1.988.07-.169c-3.779-1.76-7.263-3.569-19.769-3.569-9.205 0-14.79 2.223-17.912 3.417v2.435c0 1.383-2.56 7.499-2.56 5 0-2.5-5.117-2.5-5.117-2.5C1.146 12.497 0 11.38 0 9.997V7.498c0-1.382 1.146-2.5 2.559-2.5z"/>
      </g>
    </g>
    <g stroke="#0F0F0F" stroke-linecap="round" stroke-linejoin="round" stroke-width="4">
      <path
        d="M805.672 241.913v-34.291M805.672 206.436v-34.291M762.827 196.622c-5.135-2.962-8.592-8.51-8.592-14.863 0-9.47 17.145-30.243 17.145-30.243s17.146 20.774 17.146 30.243c0 9.47-7.676 17.145-17.146 17.145M857.089 176.887c5.135-2.962 8.592-8.51 8.592-14.863 0-9.47-17.145-30.243-17.145-30.243s-17.146 20.774-17.146 30.243c0 9.47 7.676 17.146 17.146 17.146"/>
    </g>
    <g stroke="#0F0F0F" stroke-linecap="round" stroke-width="4">
      <path d="M2.875 323.904h886.75"/>
    </g>
  </g>
</svg>