<svg width="892" height="388" viewBox="0 0 892 388" xmlns="http://www.w3.org/2000/svg" xmlns:xlink="http://www.w3.org/1999/xlink">
  <title>
    chapter-iii
  </title>
  <defs>
    <rect id="a" y=".761" width="109.676" height="136.239" rx="6"/>
    <path id="c" d="M.284.307h69.211V45.92H.284z"/>
    <path id="e" d="M.758.922h68.988v49.317H.758z"/>
    <rect id="g" x=".431" y=".561" width="31" height="28.158" rx="2"/>
    <path id="i" d="M0 .416h70v53.181H0z"/>
    <path
      d="M117.757 145.628V213H72.26v-69.2c-15.719-8.487-26.56-24.849-27.239-43.8h-.034c-6.456 0-11.689-5.233-11.689-11.69V73.69c0-6.457 5.233-11.69 11.69-11.69V51.89C44.987 23.233 68.22 0 96.877 0c28.659 0 51.89 23.232 51.89 51.89v10.124c6.188.301 11.112 5.413 11.112 11.675v14.622c0 6.273-4.941 11.392-11.145 11.677-.726 20.424-13.257 37.843-30.978 45.64z"
      id="k"/>
    <path
      d="M72.323.07v20.277C72.323 32.858 82.464 43 94.975 43c12.51 0 22.653-10.142 22.653-22.653V.071c17.084 2.025 30.203 7.592 30.203 22.006 0 .222-.003.444-.009.664 24.539 11.474 41.54 36.381 41.54 65.258v69.42H.588v-69.42c0-28.877 17-53.784 41.54-65.258a23.59 23.59 0 0 1-.01-.664c0-14.414 13.119-19.98 30.204-22.006z"
      id="l"/>
    <path
      d="M74.372 66.248c-1.924 2.173-7.718 3.01-9.316 2.173-2.954-1.545-5.75-3.201-8.998-3.088-3.248-.113-6.063.27-9.052 1.835-2.394 1.253-5.945 1.253-8.448-.92-4.04-3.507-3.362-9.083-.813-13.054 3.626-5.651 8.545-2.918 14.045-3.563 1.496-.175 2.998-.617 4.268-1.34 1.27.723 2.772 1.165 4.268 1.34 5.5.645 9.93-2.088 13.556 3.563 2.548 3.971 2.413 10.882.49 13.054zm34.2-65.957c-3.217 14.075-4.696 28.434-7.029 42.671a337.588 337.588 0 0 1-1.584 8.879c-.118.62-.235 2.923-.81 3.215-1.739.884-5.284-3.818-6.232-4.88-2.38-2.665-4.74-5.355-7.64-7.447a39.471 39.471 0 0 0-19.854-7.32c-2.987-.248-7.024.185-9.839 1.993-2.814-1.808-6.852-2.241-9.838-1.993a39.471 39.471 0 0 0-19.855 7.32c-2.9 2.092-5.26 4.782-7.64 7.447-.948 1.062-4.493 5.764-6.232 4.88-.574-.292-.691-2.595-.81-3.215a337.584 337.584 0 0 1-1.584-8.879C7.292 28.725 5.814 14.366 2.595.292 1.66.291.839 19.038.735 20.785.308 27.88-.188 34.816.446 41.917 1.54 54.167 2.681 69.525 11.451 78.88c7.924 8.452 19.43 10.219 29.354 15.554 1.277.687 2.972 1.535 4.8 2.23 1.925 1.563 5.744 2.628 10.143 2.628 4.614 0 8.59-1.172 10.411-2.862a43.018 43.018 0 0 0 4.205-1.996c9.923-5.336 21.43-7.102 29.354-15.554 8.77-9.354 9.91-24.713 11.004-36.962.635-7.1.138-14.037-.287-21.131C110.33 19.039 109.51.29 108.573.29z"
      id="n"/>
    <filter x="-.9%" y="-2.8%" width="101.8%" height="111.1%" filterUnits="objectBoundingBox" id="o">
      <feOffset dy="2" in="SourceAlpha" result="shadowOffsetOuter1"/>
      <feColorMatrix values="0 0 0 0 0 0 0 0 0 0 0 0 0 0 0 0 0 0 0.2 0" in="shadowOffsetOuter1" result="shadowMatrixOuter1"/>
      <feMerge>
        <feMergeNode in="shadowMatrixOuter1"/>
        <feMergeNode in="SourceGraphic"/>
      </feMerge>
    </filter>
    <path d="M6.618.401H213.58a6 6 0 0 1 6 6v65.345a2 2 0 0 1-2 2H2.618a2 2 0 0 1-2-2V6.401a6 6 0 0 1 6-6z" id="p"/>
  </defs>
  <g fill="none" fill-rule="evenodd">
    <path d="M354.89 359.81H45.43c-11.598 0-21-9.402-21-21v-85.366c0-11.598 9.402-21 21-21h68.32c11.598 0 21-9.402 21-21v-35.741" stroke="#D6DDE3" stroke-width="4" stroke-linecap="round" stroke-dasharray="8"/>
    <path d="M350.966 362v-42.769c0-11.598-9.402-21-21-21h-56.332c-11.598 0-21-9.402-21-21V80.623c0-11.598 9.402-21 21-21h8.434" stroke="#D6DDE3" stroke-width="4" stroke-linecap="round" stroke-dasharray="9"/>
    <path d="M559.122 326.26v-31.838c0-10.493 8.506-19 19-19h34c10.493 0 19-8.506 19-19V218.79" stroke="#D6DDE3" stroke-width="4" stroke-linecap="round" stroke-dasharray="8,8,8"/>
    <path d="M561.788 358.16h290.92c11.598 0 21-9.402 21-21V111.764c0-11.598-9.402-21-21-21h-49.62" stroke="#D6DDE3" stroke-width="4" stroke-linecap="round" stroke-linejoin="round" stroke-dasharray="8"/>
    <g transform="translate(573.975 79.41)">
      <path d="M6 .314h97.676a6 6 0 0 1 6 6v38.798H0V6.314a6 6 0 0 1 6-6z" fill="#0D97FF"/>
      <path d="M.5 45.112h106.573" stroke="#0F0F0F" stroke-width="4" stroke-linecap="square"/>
      <mask id="b" fill="#fff">
        <use xlink:href="#a"/>
      </mask>
      <use stroke="#0F0F0F" stroke-width="4" stroke-linecap="round" xlink:href="#a"/>
      <rect stroke="#0F0F0F" stroke-width="4" fill="#F9FAFA" mask="url(#b)" x="55.284" y="12.875" width="42" height="41.808" rx="2"/>
      <path d="M72.922 28.532l7.276 4.83a.5.5 0 0 1 0 .834l-7.276 4.83a.5.5 0 0 1-.777-.416v-9.662a.5.5 0 0 1 .777-.416z" fill="#0F0F0F" mask="url(#b)"/>
      <path d="M9.474 31.658H31.32" stroke="#FFF" stroke-width="4" stroke-linecap="round" stroke-linejoin="round"/>
      <path d="M9.474 24.213h31.601M9.474 16.823h36.607" stroke="#0F0F0F" stroke-width="4" stroke-linecap="round" stroke-linejoin="round"/>
      <g stroke-linecap="round" stroke-linejoin="round" stroke-width="4">
        <path d="M24.122 77.5h62.472M24.122 84.5h62.472" stroke="#959595"/>
        <path d="M35.122 68.5h40" stroke="#0F0F0F"/>
      </g>
      <g transform="translate(9.338 96)">
        <path d="M.622 19.5h19.144M.622 26.5h19.144" stroke="#959595" stroke-width="4" stroke-linecap="round" stroke-linejoin="round"/>
        <circle fill="#0D97FF" cx="10.015" cy="6.896" r="6"/>
      </g>
      <g transform="translate(44.338 96)">
        <path d="M.784 19.5h19.143M.784 26.5h19.143" stroke="#959595" stroke-width="4" stroke-linecap="round" stroke-linejoin="round"/>
        <circle fill="#0D97FF" cx="10.284" cy="6.896" r="6"/>
      </g>
      <g transform="translate(79.338 96)">
        <path d="M.74 19.5h19.144M.74 26.5h19.144" stroke="#959595" stroke-width="4" stroke-linecap="round" stroke-linejoin="round"/>
        <circle fill="#0D97FF" cx="10.552" cy="6.896" r="6"/>
      </g>
    </g>
    <g stroke="#0F0F0F" stroke-width="4">
      <path d="M269.547 384.866h-24.693c-6.627 0-12-5.372-12-12v-24.333a5 5 0 0 1 5-5h43.693v29.333c0 6.628-5.373 12-12 12z" fill="#FDFDFD"/>
      <path d="M275.45 343.535c11.785 0 20.506-1.436 20.506 14.356s-5.774 16.67-16.363 16.67M234.854 374.905h46.739"/>
      <g stroke-linecap="round" stroke-linejoin="round">
        <path d="M257.487 330.309c2.838-2.741 2.853-7.33.034-10.249M257.556 309.812c-2.838 2.74-2.854 7.329-.035 10.248"/>
      </g>
      <g stroke-linecap="round" stroke-linejoin="round">
        <path d="M246.132 334.835c2.838-2.74 2.854-7.329.035-10.248M246.201 314.339c-2.838 2.74-2.853 7.329-.034 10.248"/>
      </g>
      <g stroke-linecap="round" stroke-linejoin="round">
        <path d="M268.84 334.386c2.839-2.741 2.855-7.33.035-10.249M268.91 313.889c-2.838 2.74-2.854 7.329-.035 10.248"/>
      </g>
    </g>
    <path
      d="M762.827 258.347c-5.135-2.962-8.592-8.51-8.592-14.864 0-9.469 17.145-30.242 17.145-30.242s17.146 20.773 17.146 30.242c0 9.47-7.676 17.146-17.146 17.146M814.225 222.099c5.135-2.962 8.592-8.51 8.592-14.863 0-9.47-17.145-30.243-17.145-30.243s-17.146 20.774-17.146 30.243c0 9.47 7.677 17.145 17.146 17.145"
      fill="#FDFDFD"/>
    <path d="M854.088 303.913h-96.833c0 9.944 8.061 18.006 18.006 18.006h60.822c9.944 0 18.005-8.062 18.005-18.006z" stroke="#0F0F0F" stroke-width="4" stroke-linecap="round"/>
    <path stroke="#0F0F0F" stroke-width="4" fill="#FFF" stroke-linecap="round" d="M775.636 321.919l6.69 63.942h52.44l6.508-63.942z"/>
    <path d="M805.672 303.913v-34.291M805.672 268.436v-34.291" stroke="#1D2B36" stroke-width="4" stroke-linecap="round" stroke-linejoin="round"/>
    <path d="M805.672 295.34c0-9.469-7.676-17.146-17.146-17.146" stroke="#0F0F0F" stroke-width="4" stroke-linecap="round" stroke-linejoin="round"/>
    <path d="M822.818 257.352c-9.47 0-17.146 7.677-17.146 17.146" stroke="#0F0F0F" stroke-width="4" stroke-linecap="round"/>
    <path d="M771.38 261.049c0 9.469 7.677 17.146 17.147 17.146" stroke="#0F0F0F" stroke-width="4" stroke-linecap="round" stroke-linejoin="round"/>
    <path d="M822.818 257.228c9.469 0 17.145-7.676 17.145-17.146" stroke="#0F0F0F" stroke-width="4" stroke-linecap="round"/>
    <path d="M771.38 253.723v-16.788M771.38 250.866l5.567-5.566" stroke="#0F0F0F" stroke-width="4" stroke-linecap="round" stroke-linejoin="round"/>
    <path d="M848.536 234.264v-16.789M848.536 231.406l5.566-5.566" stroke="#0F0F0F" stroke-width="4" stroke-linecap="round"/>
    <path
      d="M814.225 222.099c5.135-2.962 8.592-8.51 8.592-14.863 0-9.47-17.145-30.243-17.145-30.243s-17.146 20.774-17.146 30.243c0 9.47 7.677 17.145 17.146 17.145M805.672 224.381v9.763M805.672 217.475v-16.788M805.672 214.618l5.566-5.566M805.672 209.855l-5.566-5.566M805.672 253.13c0-9.468-7.676-17.145-17.146-17.145M740.11 215.26c0 9.47 7.676 17.146 17.145 17.146"
      stroke="#0F0F0F"
      stroke-width="4"
      stroke-linecap="round"
      stroke-linejoin="round"/>
    <path d="M746.5 208.319a6.39 6.39 0 1 0-12.78 0 6.39 6.39 0 0 0 12.78 0z" stroke="#0F0F0F" stroke-width="4" fill="#FDFDFD" stroke-linecap="round" stroke-linejoin="round"/>
    <path d="M846.342 267.295a6.39 6.39 0 1 0-12.781 0 6.39 6.39 0 0 0 12.78 0z" stroke="#1D2B36" stroke-width="4" fill="#FDFDFD" stroke-linecap="round" stroke-linejoin="round"/>
    <path d="M805.66 274.774c0 9.469 7.677 17.146 17.146 17.146M822.806 291.92c9.47 0 17.145-7.677 17.145-17.147" stroke="#0F0F0F" stroke-width="4" stroke-linecap="round"/>
    <g>
      <g opacity=".15" stroke="#0F0F0F" stroke-linecap="square" stroke-width=".25">
        <path d="M626.018 372.377h113.469M626.018 374.123h113.469M626.018 375.87h113.469M626.018 377.616h113.469M626.018 379.363h113.469M626.018 381.11h113.469M626.018 370.63h113.469"/>
        <g>
          <path d="M625.824 353.475h102.233M625.824 355.221h102.233M625.824 356.968h102.233M625.824 358.714h102.233M625.824 360.46h102.233M625.824 362.207h102.233M625.824 351.728h102.233"/>
        </g>
      </g>
      <path d="M611.987 366.06v19.14h127v-15.14a4 4 0 0 0-4-4h-123z" stroke="#1D2B36" stroke-width="4" fill="#FDFDFD"/>
      <g stroke="#0F0F0F" stroke-linecap="round" stroke-width=".25">
        <path d="M624.018 372.377h113.469M624.018 374.123h113.469M624.018 375.87h113.469M624.018 377.616h113.469M624.018 379.363h113.469M624.018 381.11h113.469M624.018 370.63h113.469"/>
      </g>
      <path d="M611.987 346.501v19.141H727.56v-15.14a4 4 0 0 0-4-4H611.987z" fill="#FDFDFD" stroke="#1D2B36" stroke-width="4"/>
      <g>
        <path d="M611.987 346.2h105.808v-15.14a4 4 0 0 0-4-4h-97.808a4 4 0 0 0-4 4v15.14z" stroke="#1D2B36" stroke-width="4" fill="#FDFDFD"/>
        <g stroke="#0F0F0F" stroke-linecap="round" stroke-width=".25">
          <path d="M623.455 333.377h92.243M623.455 335.124h92.243M623.455 336.87h92.243M623.455 338.617h92.243M623.455 340.363h92.243M623.455 342.11h92.243M623.455 331.631h92.243"/>
        </g>
      </g>
    </g>
    <g>
      <g transform="matrix(-1 0 0 1 211.52 245.979)">
        <path
          d="M127.042 21.583h-.044V8.711a6.708 6.708 0 0 0-6.708-6.709h-17.417a6.708 6.708 0 0 0-6.708 6.709v12.872h-43.54V8.711a6.708 6.708 0 0 0-6.708-6.709H28.5a6.708 6.708 0 0 0-6.708 6.709v125.056a5.917 5.917 0 0 0 5.916 5.917h89.444v.014h28.121c5.891 0 10.667-4.775 10.667-10.666V82.563a5.958 5.958 0 0 1 5.958-5.958h10.657a5.285 5.285 0 1 0 0-10.57h-16.7c-5.454 0-9.875 4.42-9.875 9.874v46.138a8.333 8.333 0 0 1-8.333 8.333h-10.605V21.583z"
          stroke="#0F0F0F"
          stroke-width="4"
          fill="#FDFDFD"/>
        <path d="M37.722 139.868h73.39v-3.064c0-20.266-16.43-36.695-36.695-36.695-20.266 0-36.695 16.429-36.695 36.695v3.064z" stroke="#0F0F0F" stroke-width="4"/>
        <g transform="rotate(-151 37.506 26.503)">
          <ellipse stroke="#0F0F0F" stroke-width="4" fill="#FDFDFD" cx="7.756" cy="7.421" rx="9.534" ry="9.131"/>
          <ellipse fill="#0F0F0F" cx="12.842" cy="7.79" rx="4.758" ry="4.725"/>
        </g>
        <g transform="rotate(-151 57.506 21.331)">
          <ellipse stroke="#0F0F0F" stroke-width="4" fill="#FDFDFD" cx="7.756" cy="7.421" rx="9.534" ry="9.131"/>
          <ellipse fill="#0F0F0F" cx="11.577" cy="9.634" rx="4.758" ry="4.725"/>
        </g>
        <g stroke="#0F0F0F" stroke-linecap="round" stroke-width="4">
          <path d="M62.422 22.575v17.703M74.34 22.575v17.703M86.26 22.575v17.703"/>
        </g>
        <g stroke="#0F0F0F" stroke-linecap="round" stroke-width="4">
          <path d="M150.076 47.963h-30.64M145.22 59.882h-25.785M139.224 71.802h-19.789"/>
        </g>
        <g stroke="#0F0F0F" stroke-linecap="round" stroke-width="4">
          <path d="M31.391 47.963H.751M31.391 59.882H6.22M31.391 71.802H11.215"/>
        </g>
        <g transform="translate(64.25 69.833)">
          <ellipse fill="#0F0F0F" cx="9.771" cy="3.282" rx="9.018" ry="2.677"/>
          <path d="M10.198 5.958c0 3.946 3.29 7.144 7.348 7.144M9.344 5.958c0 3.946-3.29 7.144-7.349 7.144" stroke="#0F0F0F" stroke-width="4" stroke-linecap="round" stroke-linejoin="round"/>
        </g>
        <circle stroke="#0F0F0F" stroke-width="4" cx="109.153" cy="94.396" r="5.938"/>
        <circle stroke="#0F0F0F" stroke-width="4" cx="37.604" cy="94.396" r="5.938"/>
      </g>
    </g>
    <g>
      <g transform="translate(284.16 2)">
        <g transform="translate(1 124)">
          <mask id="d" fill="#fff">
            <use xlink:href="#c"/>
          </mask>
          <use fill="#FDFDFD" xlink:href="#c"/>
          <g mask="url(#d)">
            <g transform="translate(40 11)">
              <circle fill="#0D97FF" cx="11.884" cy="11.342" r="11.335"/>
              <path stroke="#FDFDFD" stroke-width="4" stroke-linecap="round" stroke-linejoin="round" d="M7.006 11.867l3.671 2.763 5.448-6.24"/>
            </g>
          </g>
        </g>
        <path fill="#0D97FF" d="M.027 169.033h69.499v23.454H.027z"/>
        <g transform="translate(0 75)">
          <mask id="f" fill="#fff">
            <use xlink:href="#e"/>
          </mask>
          <use fill="#FDFDFD" xlink:href="#e"/>
          <g mask="url(#f)">
            <g transform="translate(-5 13)">
              <mask id="h" fill="#fff">
                <use xlink:href="#g"/>
              </mask>
              <use fill="#0D97FF" xlink:href="#g"/>
              <rect fill="#0F0F0F" mask="url(#h)" x="10.045" y="17.709" width="4" height="14.635" rx="2"/>
              <rect fill="#0F0F0F" mask="url(#h)" x="15.545" y="11.182" width="4" height="23.161" rx="2"/>
              <rect fill="#0F0F0F" mask="url(#h)" x="22.045" y="5.073" width="4" height="29.271" rx="2"/>
            </g>
          </g>
        </g>
        <g transform="translate(1 23)">
          <mask id="j" fill="#fff">
            <use xlink:href="#i"/>
          </mask>
          <use fill="#FDFDFD" xlink:href="#i"/>
          <g mask="url(#j)">
            <g transform="translate(7 10)">
              <rect fill="#000" x="20.292" y=".158" width="34.523" height="21.607" rx="2"/>
              <path d="M.64 14h12.685M.64 20h12.685" stroke="#959595" stroke-width="4" stroke-linecap="round"/>
              <path d="M.64 2h12.685" stroke="#0F0F0F" stroke-width="4" stroke-linecap="round"/>
              <path d="M.64 8h12.685M.661 28.76h53.03M.661 35.76h53.03" stroke="#959595" stroke-width="4" stroke-linecap="round"/>
              <path d="M36.125 8.28l3.41 2.264a.5.5 0 0 1 0 .834l-3.41 2.264a.5.5 0 0 1-.776-.417V8.697a.5.5 0 0 1 .776-.417z" fill="#FDFDFD"/>
            </g>
          </g>
        </g>
        <path fill="#0D97FF" d="M1.321 1.087H70.37v19.091H1.321z"/>
        <path d="M1.82 21.679h68M1.87 169.91h68" stroke="#0F0F0F" stroke-width="4" stroke-linecap="square"/>
        <path d="M49.32 11.833h9.634M31.07 11.833h9.634M12.82 11.833h9.633" stroke="#FFF" stroke-width="4" stroke-linecap="round"/>
        <rect stroke="#0F0F0F" stroke-width="4" x=".027" y=".988" width="71.042" height="192.466" rx="6"/>
      </g>
      <path d="M318.209 97.5h15.451" stroke="#0F0F0F" stroke-width="4" stroke-linecap="round"/>
      <path d="M318.187 105.5h27.731M318.187 111.5h27.731" stroke="#959595" stroke-width="4" stroke-linecap="round"/>
      <path d="M301.709 139.5h15.451" stroke="#0F0F0F" stroke-width="4" stroke-linecap="round"/>
      <path d="M292.234 146.5h25.133M292.234 152.5h25.133" stroke="#959595" stroke-width="4" stroke-linecap="round"/>
      <path d="M310.349 160.783h6.5" stroke="#0D97FF" stroke-width="4" stroke-linecap="round"/>
      <g stroke="#FDFDFD" stroke-linecap="round" stroke-width="4">
        <path d="M306.437 180.44h25M309.916 187.278h18"/>
      </g>
    </g>
    <g stroke-width="4">
      <g transform="translate(33.788 81)">
        <rect stroke="#0F0F0F" fill="#394956" x="2.401" y="2.097" width="176.004" height="105.558" rx="6"/>
        <g stroke-linecap="round">
          <path d="M14.042 12.626h17.086" stroke="#0D97FF"/>
          <path d="M18.747 20.71H49.31M18.747 28.542H54.31M18.747 36.376h35.14" stroke="#FDFDFD"/>
        </g>
        <g stroke-linecap="round">
          <path d="M14.042 47.126h17.086" stroke="#0D97FF"/>
          <path d="M18.747 55.21H49.31M18.747 63.042H54.31M18.747 70.876h35.14" stroke="#FDFDFD"/>
        </g>
        <g stroke-linecap="round">
          <path d="M14.042 81.126h17.086" stroke="#0D97FF"/>
          <path d="M18.747 89.21H49.31M18.747 97.042H54.31" stroke="#FDFDFD"/>
        </g>
        <g stroke-linecap="round">
          <path d="M84.976 65.198h26.505M84.976 96.539h26.505" stroke="#0DFF6F"/>
          <path d="M91.354 72.407h64.183M91.354 80.328h67.577M91.354 88.282h73.795" stroke="#FDFDFD"/>
        </g>
        <g stroke-linecap="round">
          <path d="M84.976 13.198h26.505M84.976 52.407h26.505" stroke="#0DFF6F"/>
          <path d="M91.354 20.407h64.183M91.354 28.328h67.577M91.354 36.282h73.795M91.354 44.539h73.795" stroke="#FDFDFD"/>
        </g>
        <path d="M73.5 3.5v102.176" stroke="#0F0F0F" stroke-linecap="square"/>
      </g>
    </g>
    <g transform="translate(741.788 28)" stroke-linecap="round" stroke-linejoin="round" stroke-width="4">
      <rect stroke="#0F0F0F" fill="#394956" x=".26" width="79" height="123" rx="6"/>
      <path d="M8.622 11H51.76M8.745 20.2h61.652" stroke="#0DFF6F"/>
      <path d="M8.745 29.15H64.76" stroke="#FDFDFD"/>
      <path d="M8.745 38.1h61.652" stroke="#0DFF6F"/>
      <path d="M8.745 47.05H66.76M8.745 56h61.652" stroke="#FFF"/>
      <path d="M8.745 64.95H61.76" stroke="#FDFDFD"/>
      <path d="M8.745 73.9H65.76M8.745 82.85h61.652M8.745 91.8H66.76" stroke="#0DFF6F"/>
      <path d="M8.745 100.75H70.76" stroke="#FDFDFD"/>
      <path d="M8.848 109.418v3.082" stroke="#0DFF6F"/>
    </g>
    <g>
      <g transform="translate(356.875 76.309)">
        <use fill="#FFE3C3" xlink:href="#k"/>
        <g transform="translate(0 150)">
          <mask id="m" fill="#fff">
            <use xlink:href="#l"/>
          </mask>
          <use fill="#0D97FF" xlink:href="#l"/>
          <path d="M64.59 47.332v61.014a2 2 0 1 1-4 0V45.15a62.645 62.645 0 0 0 4 2.182zm67-.51v25.351a2 2 0 0 1-4 0V48.739a66.549 66.549 0 0 0 4-1.918z" fill="#FDFDFD" mask="url(#m)"/>
          <path
            d="M94.98 55c-11.225 0-22.705-3.553-31.045-8.048-12.669-6.827-22.3-17.01-22.3-28.875 0-9.37 5.597-15.003 14.251-18.353C41.55 2.571 31.634 8.243 31.634 19.308 31.634 39.02 63.104 55 94.979 55zM134.072-.276c14.337 2.847 24.253 8.519 24.253 19.584 0 19.71-31.465 35.689-63.337 35.692 26.84-.004 53.335-16.533 53.335-36.923 0-9.37-5.597-15.003-14.25-18.353z"
            fill-opacity=".16"
            fill="#000"
            mask="url(#m)"/>
          <path d="M154 85.965v68.23M37 85.965v68.23" stroke="#0A7ED6" stroke-width="4" stroke-linecap="round"/>
        </g>
        <path d="M87.964 85.771c0 2.983 3.627 5.401 8.102 5.401 4.474 0 8.101-2.418 8.101-5.4" stroke="#0F0F0F" stroke-linecap="round" stroke-width="4"/>
        <g transform="translate(63 62)" fill="#0F0F0F">
          <circle cx="6" cy="6" r="6"/>
          <circle cx="58" cy="6" r="6"/>
        </g>
        <g fill-rule="nonzero">
          <path d="M57.63 55.159c3.915-5.51 14.648-8.598 23.893-6.328a2 2 0 0 0 .954-3.884c-10.737-2.637-23.165.94-28.107 7.894a2 2 0 0 0 3.26 2.318z" fill="#BFA465"/>
          <path d="M106.923 114c-4.74 4.252-14.024 4.483-20.497-.007-.75-.52-1.794-.17-2.33.784-.536.954-.361 2.15.39 2.67 7.517 5.215 18.266 4.947 24.25-.421.775-.695.997-1.936.496-2.772-.5-.835-1.535-.95-2.31-.254z" fill="#0F0F0F"/>
          <path d="M135.37 55.159c-3.915-5.51-14.648-8.598-23.893-6.328a2 2 0 0 1-.954-3.884c10.737-2.637 23.165.94 28.108 7.894a2 2 0 0 1-3.26 2.318z" fill="#BFA465"/>
        </g>
      </g>
      <use fill="#BFA465" xlink:href="#n" transform="translate(398.375 135.917)"/>
      <path
        d="M500.4 81.836c-2.651-2.82-5.73-5.213-8.725-7.614-.66-.529-1.332-1.045-1.978-1.594-.147-.125-1.651-1.246-1.831-1.66-.433-.992-.182-.219-.123-1.404.076-1.498 3.011-5.729.82-6.7-.963-.426-2.681.71-3.606 1.085a55.605 55.605 0 0 1-5.506 1.9c.895-1.857 2.602-5.574-.606-4.579-2.5.775-4.83 2.768-7.341 3.705.83-1.418 4.154-5.811 1.151-6.057-.935-.076-3.654 1.748-4.66 2.137-3.014 1.166-6.093 1.92-9.257 2.513-10.76 2.018-23.342 1.443-33.297 6.541-7.675 3.93-15.253 10.029-19.686 17.794-4.273 7.485-5.872 15.677-6.766 24.254-.656 6.295-.71 12.801-.403 19.119.1 2.07-1.2 25.755 1.69 22.866 1.439-1.44 2.952-21.398 3.315-23.366.721-3.915 1.416-7.848 2.619-11.638 2.12-6.678 3.899-14.29 9.901-18.392 5.592-3.822 21.85-10.65 27.38-10.65 5.53 0 6.791 3.85 20.444 2.784 13.654-1.066 16.385-5.024 17.881-4.097 1.37.847 2.791 3.615 3.774 4.748 2.323 2.678 5.092 4.724 7.808 6.92 5.664 4.58 8.523 10.331 10.243 17.488 1.714 7.13 1 15.266 3.122 22.283.373 1.234-.793 7.437.585 9.649.085.136 1.376-.309 1.802-2.562.685-3.625.59-9.883.59-10.574 0-4.52 1.1-7.91 1.086-12.46-.054-13.832-.484-31.868-10.425-42.439z"
        fill="#BFA465"/>
      <g filter="url(#o)" transform="translate(396.826 127.299)" fill="#5B462F" fill-rule="nonzero">
        <path
          d="M29.447 35.51H27.06c-12.063 0-19.264-6.638-19.264-17.755C7.795 8.771 9.369 0 28.175 0h2.546C49.526 0 51.1 8.771 51.1 17.755c0 10.453-8.903 17.755-21.653 17.755zM28.05 5.197c-16.79 0-16.79 5.925-16.79 13.425 0 6.124 2.7 13.424 15.565 13.424h2.623c10.71 0 18.188-5.52 18.188-13.424 0-7.5 0-13.425-16.79-13.425H28.05zM83.146 35.51h-2.389c-12.063 0-19.264-6.638-19.264-17.755C61.493 8.771 63.067 0 81.873 0h2.546c18.805 0 20.379 8.771 20.379 17.755 0 10.453-8.902 17.755-21.652 17.755zM81.747 5.197c-16.79 0-16.79 5.925-16.79 13.425 0 6.124 2.702 13.424 15.565 13.424h2.624c10.709 0 18.188-5.52 18.188-13.424 0-7.5 0-13.425-16.79-13.425h-2.797z"/>
        <path
          d="M2.559 4.999C3.158 4.414 9.709 0 28.149 0c15.46 0 18.733 1.605 23.687 4.029l.363.179c.344.122 2.106.72 4.166.786 1.877-.08 3.482-.59 3.952-.753C65.97 1.491 71.507 0 84.445 0c18.44 0 24.99 4.414 25.589 4.999 1.415 0 2.559 1.117 2.559 2.5v2.498c0 1.383-1.144 2.5-2.559 2.5 0 0-5.977 0-5.977 2.5 0 2.499-1.7-3.617-1.7-5V7.563c-3.12-1.194-8.707-3.418-17.912-3.418-10.256 0-15.364 1.819-19.745 3.625l.049.118-.003 1.72-1.92 4.634-2.372-.938a11.289 11.289 0 0 0-1.303-.39c-1.766-.436-3.583-.569-5.19-.24a6.855 6.855 0 0 0-1.637.549l-2.289 1.118-2.29-4.47.102-1.988.07-.169c-3.779-1.76-7.263-3.569-19.769-3.569-9.205 0-14.79 2.223-17.912 3.417v2.435c0 1.383-2.56 7.499-2.56 5 0-2.5-5.117-2.5-5.117-2.5C1.146 12.497 0 11.38 0 9.997V7.498c0-1.382 1.146-2.5 2.559-2.5z"/>
      </g>
    </g>
    <g>
      <g transform="translate(341.756 310.082)">
        <mask id="q" fill="#fff">
          <use xlink:href="#p"/>
        </mask>
        <path stroke="#0F0F0F" stroke-width="4" d="M6.618-1.599H213.58a8 8 0 0 1 8 8v65.345a4 4 0 0 1-4 4H2.618a4 4 0 0 1-4-4V6.401a8 8 0 0 1 8-8z"/>
        <path fill="#A5B2BD" mask="url(#q)" d="M-6.802-22.373h240v97h-240z"/>
        <path d="M24.9 74.3c11.658-2.162 22.683-3.925 33.076-5.288 35.918-4.71 97.072 6.704 132.922-6.229 23.9-8.622 36.595-19.827 38.083-33.615L225.555 74.3H24.9z" fill="#B4C0CA" mask="url(#q)"/>
      </g>
      <g transform="translate(437.756 337.19)">
        <circle fill="#FFF" cx="13.618" cy="13.635" r="13.618"/>
        <g fill="#0D97FF" fill-rule="nonzero">
          <path d="M17.23 5.872c.117-.017.232-.04.345-.069-.108.023-.227.047-.344.07z"/>
          <path
            d="M22.017 11.094a5.235 5.235 0 0 0-2.792-3.286.229.229 0 0 1-.105-.108 5.252 5.252 0 0 0-3.332-2.736 4.974 4.974 0 0 0-1.285-.157 5.335 5.335 0 0 0-2.156.477c-.282.13-.553.284-.81.46a.227.227 0 0 1-.121.037 4.843 4.843 0 0 0-.924.019 5.245 5.245 0 0 0-1.7.485A5.135 5.135 0 0 0 7.37 7.292a5.221 5.221 0 0 0-1.451 4.06.237.237 0 0 1-.038.144 5.68 5.68 0 0 0-.442.804 5.089 5.089 0 0 0 1.735 6.27c.25.178.515.334.793.464a.24.24 0 0 1 .105.107 5.211 5.211 0 0 0 1.745 2.007 5.15 5.15 0 0 0 1.585.73c.42.108.854.161 1.289.158a5.31 5.31 0 0 0 2.962-.938.232.232 0 0 1 .122-.035c.122 0 .253.012.4.012a5.11 5.11 0 0 0 5.093-4.667 5.619 5.619 0 0 0 0-.917.225.225 0 0 1 .038-.147 5.31 5.31 0 0 0 .891-2.963 4.875 4.875 0 0 0-.18-1.287zm-8.82-5.311c.424-.131.864-.2 1.308-.203.368-.004.735.04 1.091.132a4.43 4.43 0 0 1 2.065 1.23.203.203 0 0 1-.144.343.083.083 0 0 1-.031 0 5.765 5.765 0 0 0-.577-.055c-.119 0-.248-.01-.397 0a7.65 7.65 0 0 0-1.253.117h-.028a.22.22 0 0 1-.127-.045 7.176 7.176 0 0 0-1.39-.913 5.708 5.708 0 0 0-.53-.231.194.194 0 0 1-.126-.195.196.196 0 0 1 .139-.18zm-2.664 2.089c.3-.466.672-.881 1.101-1.232a.207.207 0 0 1 .131-.047h.031c.548.083 1.08.249 1.576.493.143.068.293.151.462.25.067.043.104.12.094.199a.196.196 0 0 1-.14.172c-.2.062-.39.124-.576.186l-.075.026c-.4.129-.689.22-.98.302-.29.083-.574.147-.88.216l-.11.017c-.221.048-.441.098-.672.155a.153.153 0 0 1-.046 0 .2.2 0 0 1-.173-.098.203.203 0 0 1 0-.198c.073-.142.162-.295.257-.441zM7.53 15.198a7.338 7.338 0 0 0-.08 1.633c.013.172.035.37.066.572a.201.201 0 0 1-.043.172.213.213 0 0 1-.153.07.193.193 0 0 1-.138-.053 4.278 4.278 0 0 1-1.23-4.45.203.203 0 0 1 .382-.02c.07.173.151.357.237.527.25.487.555.944.907 1.363.044.052.063.12.052.186zm.556-2.151c-.067.213-.135.43-.203.657a.2.2 0 0 1-.191.147.196.196 0 0 1-.172-.095 5.335 5.335 0 0 1-.785-2.08 4.684 4.684 0 0 1-.042-1.167c0-.08.016-.152.028-.226a4.285 4.285 0 0 1 3.296-3.614.207.207 0 0 1 .048 0 .193.193 0 0 1 .172.112.198.198 0 0 1-.022.215c-.114.145-.226.301-.345.466-.309.48-.56.994-.748 1.532a.083.083 0 0 1-.05.052 7.4 7.4 0 0 0-1.389.688l-.06.041-.054.031-.034.024-.015.01-.026.018-.014.01-.033.021a.065.065 0 0 0-.026.041.533.533 0 0 0 0 .057v.059a.579.579 0 0 1-.012.117c-.007.079-.012.159-.017.239-.004.08-.004.162 0 .246v.065a.086.086 0 0 0 .136.07l.315-.214.045-.05c.036-.028.072-.053.11-.078l.06-.04c.115-.077.245-.154.387-.233a.213.213 0 0 1 .257.051.212.212 0 0 1 .04.173c-.049.2-.088.392-.128.578l-.02.094c-.064.324-.137.668-.223.999-.086.33-.172.609-.27.922l-.015.062zm.766 5.517l-.207-.075-.026-.016-.017-.038a5.44 5.44 0 0 1-.392-2.18.2.2 0 0 1 .201-.196c.05-.001.099.017.136.051.172.162.344.315.516.461l.04.037c.234.208.48.432.712.657.233.225.455.47.704.742.066.07.133.14.198.213l.019.02a5.824 5.824 0 0 0 .814-.07.086.086 0 0 0 .048-.146c-.172-.172-.33-.344-.516-.547L11 17.403c-.203-.22-.423-.456-.649-.678a19.31 19.31 0 0 0-.662-.616l-.123-.11c-.263-.236-.516-.457-.767-.704-.115-.107-.229-.22-.344-.334a.237.237 0 0 1-.059-.215c.036-.155.074-.308.115-.456.09-.334.188-.646.272-.913l.055-.182c.099-.318.193-.62.27-.93.078-.31.157-.664.235-1.032l.03-.151c.057-.264.121-.563.199-.873.032-.136.072-.289.12-.453a.243.243 0 0 1 .16-.161c.134-.042.26-.076.375-.109l.074-.02c.365-.095.708-.172 1.023-.243l.127-.03c.313-.072.607-.14.902-.221.294-.081.62-.188.917-.283l.096-.03c.312-.104.646-.214 1-.319.208-.058.377-.103.534-.14a7.51 7.51 0 0 1 1.609-.204h.344c.57.03 1.132.15 1.664.356a.084.084 0 0 1 .052.048 5.37 5.37 0 0 1 .384 1.665c.01.161.013.332.01.516a.201.201 0 0 1-.344.144 13.831 13.831 0 0 0-.517-.46l-.086-.078c-.234-.21-.456-.412-.666-.615-.21-.203-.423-.438-.643-.674l-.066-.07-.14-.156-.06-.063a.07.07 0 0 0-.05-.02 5.78 5.78 0 0 0-.775.071.088.088 0 0 0-.05.147c.15.156.294.313.456.483l.132.146c.21.226.427.46.654.689.227.229.503.475.754.7l.119.103.093.087c.19.172.389.344.59.543.115.11.246.241.384.388.019.021.027.05.022.079a9.01 9.01 0 0 1-.132.535c-.095.353-.193.67-.288.976l-.022.072c-.103.332-.201.647-.288.976-.086.328-.151.645-.232 1.032l-.041.198c-.057.265-.117.54-.188.83-.038.158-.086.335-.144.532a.091.091 0 0 1-.059.056c-.19.06-.37.112-.516.154-.365.096-.71.172-1.019.244l-.05.01c-.322.074-.656.15-.984.24-.329.089-.66.2-.985.299h-.01l-.162.053c-.273.09-.556.183-.86.27h-.02c-.121.037-.305.088-.517.136-.387.092-.78.154-1.177.186-.143.012-.29.02-.43.02h-.345l-.218-.016-.193-.023h-.059L9.7 18.78a.172.172 0 0 1-.033 0c-.051 0-.103-.018-.151-.03a3.825 3.825 0 0 1-.286-.064c-.093-.024-.243-.078-.38-.12h.002zm5.143 2.494c-.423.132-.864.2-1.307.205a4.263 4.263 0 0 1-1.093-.133 4.431 4.431 0 0 1-2.065-1.232.2.2 0 0 1-.04-.217.203.203 0 0 1 .184-.122h.033c.187.028.382.048.573.059.132 0 .268.01.404 0a7.605 7.605 0 0 0 1.243-.12h.034c.045 0 .088.015.124.042a7.4 7.4 0 0 0 1.39.9c.173.08.345.157.53.227.08.032.132.11.13.197a.201.201 0 0 1-.141.194h.001zm2.663-2.087c-.3.465-.671.88-1.1 1.23a.193.193 0 0 1-.127.048h-.033a5.266 5.266 0 0 1-1.578-.49c-.162-.08-.317-.172-.461-.252a.205.205 0 0 1 .046-.368c.172-.053.344-.107.516-.172l.143-.045c.345-.112.656-.215.976-.306.282-.077.571-.145.876-.212l.122-.029c.217-.048.437-.098.666-.153a.23.23 0 0 1 .048 0c.071 0 .137.037.173.098a.203.203 0 0 1 0 .196 6.074 6.074 0 0 1-.269.455h.002zm3.84-2.635c0 .077-.016.153-.03.227a4.282 4.282 0 0 1-3.294 3.614.201.201 0 0 1-.046 0 .203.203 0 0 1-.159-.329c.117-.146.23-.303.336-.466.295-.462.539-.955.726-1.47a.24.24 0 0 1 .138-.138 7.188 7.188 0 0 0 1.346-.678l.06-.04.064-.04.034-.025.015-.01.04-.027.038-.026a.04.04 0 0 0 .012-.012.387.387 0 0 0 .01-.043c.033-.251.049-.504.047-.758a.086.086 0 0 0-.136-.07c-.172.115-.33.225-.517.344-.132.09-.284.182-.449.274a.201.201 0 0 1-.256-.05.212.212 0 0 1-.04-.172c.043-.172.078-.344.112-.517l.036-.158c.059-.3.133-.654.222-1.002.081-.308.172-.62.272-.92l.017-.055c.068-.214.133-.432.2-.661a.201.201 0 0 1 .195-.145c.069.001.133.036.172.093.103.172.187.315.258.456.264.513.445 1.064.535 1.633.063.387.077.78.041 1.17zm.743-2.63a.201.201 0 0 1-.38.016 5.858 5.858 0 0 0-.238-.517 7.478 7.478 0 0 0-.91-1.364.232.232 0 0 1-.05-.186c.087-.54.114-1.088.08-1.633a7.311 7.311 0 0 0-.067-.574.2.2 0 0 1 .2-.232.194.194 0 0 1 .136.052 4.29 4.29 0 0 1 1.229 4.438z"
            opacity=".48"/>
          <path
            d="M22.025 11.104a5.235 5.235 0 0 0-2.8-3.285.229.229 0 0 1-.105-.109 5.252 5.252 0 0 0-3.332-2.736 4.974 4.974 0 0 0-1.285-.157 5.335 5.335 0 0 0-2.156.477c-.282.13-.553.285-.81.461a.227.227 0 0 1-.121.036 4.845 4.845 0 0 0-.924.019 5.245 5.245 0 0 0-1.699.486 5.137 5.137 0 0 0-1.422 1.006 5.221 5.221 0 0 0-1.452 4.06.237.237 0 0 1-.038.145 5.68 5.68 0 0 0-.442.803 5.089 5.089 0 0 0 1.735 6.27c.25.178.515.334.793.465a.24.24 0 0 1 .105.106 5.211 5.211 0 0 0 1.745 2.007 5.15 5.15 0 0 0 1.585.73c.42.108.854.161 1.289.158a5.31 5.31 0 0 0 2.962-.938.232.232 0 0 1 .122-.034c.122 0 .253.012.4.012a5.11 5.11 0 0 0 5.093-4.668 5.619 5.619 0 0 0 0-.917.225.225 0 0 1 .038-.146 5.31 5.31 0 0 0 .891-2.963c0-.436-.057-.868-.172-1.288zm-8.828-5.31c.424-.132.864-.2 1.308-.204.368-.004.735.04 1.091.133a4.43 4.43 0 0 1 2.065 1.23.203.203 0 0 1-.144.343.084.084 0 0 1-.031 0 5.758 5.758 0 0 0-.577-.056c-.119 0-.248-.01-.397 0-.42.005-.84.044-1.253.117h-.028a.22.22 0 0 1-.127-.044 7.176 7.176 0 0 0-1.389-.897 5.71 5.71 0 0 0-.528-.23.194.194 0 0 1-.128-.195.196.196 0 0 1 .138-.198zm-2.664 2.088c.3-.465.672-.881 1.101-1.232a.207.207 0 0 1 .131-.046h.031c.548.082 1.08.248 1.576.492.143.069.293.151.462.251.067.042.104.12.094.198a.196.196 0 0 1-.14.172c-.2.062-.39.124-.576.186l-.075.026c-.4.129-.689.22-.98.303-.29.082-.574.146-.88.215l-.11.026c-.221.048-.441.098-.672.155a.151.151 0 0 1-.046 0 .2.2 0 0 1-.173-.099.203.203 0 0 1 0-.197c.073-.15.162-.303.257-.45zM7.53 15.208a7.338 7.338 0 0 0-.08 1.634c.013.172.035.37.066.571a.201.201 0 0 1-.043.172.213.213 0 0 1-.153.07.193.193 0 0 1-.138-.053 4.278 4.278 0 0 1-1.23-4.45.203.203 0 0 1 .382-.019c.07.172.151.356.237.527.25.486.555.943.907 1.363.044.051.063.119.052.185zm.556-2.15c-.067.213-.135.43-.203.657a.2.2 0 0 1-.191.146.196.196 0 0 1-.172-.095 5.335 5.335 0 0 1-.776-2.08 4.684 4.684 0 0 1-.052-1.167c0-.08.015-.152.027-.226a4.285 4.285 0 0 1 3.296-3.614.207.207 0 0 1 .048 0 .193.193 0 0 1 .172.112.198.198 0 0 1-.022.215c-.114.145-.226.302-.344.467-.31.48-.56.993-.749 1.531a.083.083 0 0 1-.05.052 7.4 7.4 0 0 0-1.389.688c-.077.05-.151.102-.227.154a.13.13 0 0 0-.058.125c0 .054-.009.107-.014.16-.005.054-.012.16-.016.24-.003.079 0 .172 0 .244v.067a.086.086 0 0 0 .136.07l.315-.215.062-.043c.036-.027.072-.053.11-.077l.06-.04c.116-.077.245-.154.388-.234a.213.213 0 0 1 .256.052.212.212 0 0 1 .04.172c-.048.2-.088.392-.128.578l-.003.083c-.064.323-.136.668-.222.998-.086.33-.172.61-.27.923l-.024.056zm.766 5.517l-.207-.076-.026-.016-.017-.029a5.44 5.44 0 0 1-.392-2.18.2.2 0 0 1 .201-.196c.05-.001.099.017.136.051.172.162.344.315.516.461l.04.037c.234.208.48.432.712.657.233.225.455.47.704.742.066.07.133.14.198.213l.019.02a.02.02 0 0 0 .02 0c.266-.005.531-.028.794-.07a.086.086 0 0 0 .048-.146c-.172-.172-.33-.344-.516-.547L11 17.403c-.203-.22-.423-.456-.649-.678a19.31 19.31 0 0 0-.662-.616l-.123-.11c-.263-.236-.516-.457-.767-.704-.115-.107-.229-.22-.344-.334a.237.237 0 0 1-.059-.215c.036-.155.074-.308.115-.456.09-.334.188-.646.272-.913l.055-.182c.107-.315.202-.611.28-.926.077-.315.156-.664.233-1.032l.031-.152c.057-.263.12-.563.198-.872.033-.136.072-.29.12-.453a.243.243 0 0 1 .16-.162c.135-.043.26-.077.376-.112l.074-.02c.365-.095.707-.172 1.022-.243l.128-.03c.313-.072.607-.14.901-.221.295-.081.62-.188.918-.283l.096-.03c.311-.104.645-.214 1-.319.208-.058.377-.103.533-.14a7.51 7.51 0 0 1 1.61-.204h.344c.57.03 1.131.15 1.664.356a.084.084 0 0 1 .051.048 5.368 5.368 0 0 1 .394 2.18.201.201 0 0 1-.344.145 13.831 13.831 0 0 0-.516-.46l-.086-.078c-.234-.21-.456-.412-.666-.615-.21-.203-.423-.438-.644-.674l-.065-.07-.141-.156-.038-.046a.07.07 0 0 0-.052-.02c-.26.007-.518.03-.774.071a.088.088 0 0 0-.05.147c.15.156.294.313.456.483l.133.147c.21.225.426.46.654.688.227.229.502.475.753.7l.119.104.093.086c.191.172.389.344.59.544.116.11.246.24.384.387.02.021.027.05.022.079a9.01 9.01 0 0 1-.132.535c-.095.344-.193.67-.288.976l-.022.072c-.103.332-.201.647-.287.976-.086.329-.152.645-.233 1.033l-.04.197c-.058.266-.118.54-.189.83-.037.158-.086.336-.144.532a.091.091 0 0 1-.059.057c-.19.06-.37.111-.516.153-.365.096-.709.172-1.019.244l-.05.01c-.321.074-.655.15-.984.24-.329.09-.66.2-.984.3l-.01.008-.162.053c-.274.09-.556.182-.86.27h-.022c-.12.036-.304.088-.516.136-.387.092-.78.154-1.177.186-.143.012-.29.019-.43.019h-.344l-.219-.016-.193-.022-.058-.008-.162-.044a.172.172 0 0 1-.033 0c-.051 0-.103-.018-.151-.03a3.825 3.825 0 0 1-.286-.064 4.118 4.118 0 0 1-.38-.11h.002zm5.143 2.493c-.423.132-.864.201-1.307.205a4.263 4.263 0 0 1-1.093-.132 4.431 4.431 0 0 1-2.065-1.233.2.2 0 0 1-.04-.216.203.203 0 0 1 .184-.123h.033c.187.028.382.049.573.059.132 0 .268.01.404.009a7.605 7.605 0 0 0 1.243-.12h.034c.045 0 .088.015.124.042a7.4 7.4 0 0 0 1.39.9c.173.08.345.157.53.227.08.032.132.11.13.197a.201.201 0 0 1-.141.185h.001zm2.663-2.087c-.3.465-.671.88-1.1 1.23a.193.193 0 0 1-.127.049h-.033a5.266 5.266 0 0 1-1.578-.491c-.162-.08-.317-.172-.461-.251a.205.205 0 0 1 .046-.369c.172-.053.344-.106.516-.163l.143-.045c.345-.112.656-.215.976-.306.282-.078.571-.145.876-.212l.122-.029c.217-.048.437-.098.666-.153a.229.229 0 0 1 .048 0c.071-.001.137.037.173.098a.203.203 0 0 1 0 .196c-.085.15-.176.303-.269.446h.002zm3.13-2.053a.203.203 0 0 0 0-.042c.033-.25.049-.504.047-.757a.086.086 0 0 0-.136-.07c-.172.115-.33.225-.517.344-.132.09-.284.182-.449.273a.201.201 0 0 1-.256-.05.212.212 0 0 1-.04-.172c.043-.172.078-.344.112-.516l.036-.158c.059-.3.133-.654.222-1.002.081-.308.172-.62.272-.92l.017-.056c.068-.213.133-.431.2-.66a.201.201 0 0 1 .195-.145c.069.001.133.036.172.093a5.385 5.385 0 0 1 .774 2.082c.063.386.077.778.041 1.167 0 .078-.015.153-.029.227a4.282 4.282 0 0 1-3.294 3.614.201.201 0 0 1-.046 0 .194.194 0 0 1-.172-.113.196.196 0 0 1 .022-.215c.117-.147.229-.303.344-.467.296-.461.54-.954.726-1.47a.24.24 0 0 1 .138-.137 7.187 7.187 0 0 0 1.346-.678l.205-.136a.182.182 0 0 0 .056-.041l.014.005zm1.46-3.212a.201.201 0 0 1-.38.016 5.858 5.858 0 0 0-.238-.516 7.478 7.478 0 0 0-.91-1.365.232.232 0 0 1-.05-.186c.087-.54.114-1.087.08-1.633a7.31 7.31 0 0 0-.067-.573.2.2 0 0 1 .2-.233.194.194 0 0 1 .136.052 4.29 4.29 0 0 1 1.222 4.438h.007z"/>
          <path d="M8.058 10.409l-.04.027-.13.083c.036-.028.072-.053.11-.078l.06-.032z"/>
        </g>
      </g>
    </g>
    <g stroke="#0F0F0F" stroke-linecap="round" stroke-width="4">
      <path d="M805.672 303.913v-34.291M805.672 268.436v-34.291M762.827 258.622c-5.135-2.962-8.592-8.51-8.592-14.863 0-9.47 17.145-30.243 17.145-30.243s17.146 20.774 17.146 30.243c0 9.47-7.676 17.145-17.146 17.145" stroke-linejoin="round"/>
      <path d="M857.089 238.887c5.135-2.962 8.592-8.51 8.592-14.863 0-9.47-17.145-30.243-17.145-30.243s-17.146 20.774-17.146 30.243c0 9.47 7.676 17.146 17.146 17.146"/>
    </g>
    <g stroke="#0F0F0F" stroke-linecap="round" stroke-width=".25">
      <path d="M624.127 352.531H726.36M624.127 354.278H726.36M624.127 356.024H726.36M624.127 357.77H726.36M624.127 359.517H726.36M624.127 361.264H726.36M624.127 350.785H726.36"/>
    </g>
    <path d="M2.875 385.904h886.75" stroke="#1D2B36" stroke-width="4" stroke-linecap="round"/>
  </g>
</svg>