<svg width="892" height="388" viewBox="0 0 892 388" xmlns="http://www.w3.org/2000/svg" xmlns:xlink="http://www.w3.org/1999/xlink">
  <title>
    Chapter IV
  </title>
  <defs>
    <rect id="a" y=".761" width="109.676" height="136.239" rx="6"/>
    <rect id="c" x="57.284" y="14.875" width="38" height="37.808" rx="2"/>
    <path d="M10.395 2.88h24.692c5.523 0 10 4.477 10 10v24.333a3 3 0 0 1-3 3H.395V12.88c0-5.523 4.477-10 10-10z" id="d"/>
    <path d="M.64.542h125a6 6 0 0 1 6 6v17.141H.64V.543z" id="e"/>
    <path d="M.64.322h113.574a6 6 0 0 1 6 6v17.14H.64V.323z" id="f"/>
    <path d="M6.64.978h97.809a6 6 0 0 1 6 6V24.12H.64V6.98a6 6 0 0 1 6-6z" id="g"/>
    <path
      d="M128.998 19.583h.044V128.38h8.605a6.333 6.333 0 0 0 6.333-6.333V75.909c0-6.558 5.317-11.875 11.875-11.875h16.7a7.285 7.285 0 0 1 0 14.57h-10.657a3.958 3.958 0 0 0-3.958 3.96v46.468c0 6.995-5.671 12.666-12.667 12.666h-30.12v-.014H27.707a7.917 7.917 0 0 1-7.916-7.917V8.711A8.708 8.708 0 0 1 28.5.002h17.417a8.708 8.708 0 0 1 8.708 8.709v10.872h39.54V8.711a8.708 8.708 0 0 1 8.708-8.709h17.417a8.708 8.708 0 0 1 8.708 8.709v10.872z"
      id="h"/>
    <ellipse id="i" cx="7.756" cy="7.421" rx="7.534" ry="7.131"/>
    <ellipse id="j" cx="7.756" cy="7.421" rx="7.534" ry="7.131"/>
    <path id="k" d="M.284.307h69.211V45.92H.284z"/>
    <path id="m" d="M.758.922h68.988v49.317H.758z"/>
    <rect id="o" x=".431" y=".561" width="31" height="28.158" rx="2"/>
    <path id="q" d="M0 .416h70v53.181H0z"/>
    <rect id="s" x=".401" y=".097" width="180.004" height="109.558" rx="6"/>
    <path
      d="M122.124 143.455V213h-49.23v-68.863C56.834 135.75 45.709 119.205 45.02 100h-.034c-6.456 0-11.689-5.233-11.689-11.69V73.69c0-6.457 5.233-11.69 11.69-11.69V51.89C44.987 23.233 68.22 0 96.877 0c28.659 0 51.89 23.232 51.89 51.89v10.124c6.188.301 11.112 5.413 11.112 11.675v14.622c0 6.273-4.941 11.392-11.145 11.677-.665 18.703-11.229 34.885-26.611 43.467z"
      id="t"/>
    <path
      d="M72.323.07v20.277C72.323 32.858 82.464 43 94.975 43c12.51 0 22.653-10.142 22.653-22.653V.071c17.084 2.025 30.203 7.592 30.203 22.006 0 .222-.003.444-.009.664 24.539 11.474 41.54 36.381 41.54 65.258v69.42H.588v-69.42c0-28.877 17-53.784 41.54-65.258a23.59 23.59 0 0 1-.01-.664c0-14.414 13.119-19.98 30.204-22.006z"
      id="u"/>
    <path
      d="M77.819 133.607c2.11-1.44 14.723-1.991 16.996-3.216.71-.383 1.26-.77 1.685-1.154.424.384.975.771 1.685 1.154 2.273 1.225 14.885 1.776 16.996 3.216 2.137 1.457 3.698 4.801 3.527 7.416-.205 3.138-3.97 10.624-13.339 11.486-2.045-2.074-5.256-3.412-8.87-3.412-3.612 0-6.823 1.338-8.868 3.412-9.369-.862-13.134-8.348-13.338-11.486-.171-2.615 1.389-5.959 3.526-7.416m.643 15.13l.016.005-.016-.005M41.266 95.448c-1.284-4.186-.423-20.432-.506-22.13-.306-6.317-.253-12.824.403-19.118.895-8.578 2.493-16.77 6.766-24.254 4.433-7.766 12.012-13.864 19.686-17.794 9.955-5.098 22.537-4.523 33.297-6.541 3.164-.594 6.243-1.347 9.257-2.513 1.006-.39 3.726-2.214 4.66-2.137 3.004.245-.32 4.639-1.151 6.057 2.512-.938 4.841-2.93 7.34-3.705 3.21-.995 1.502 2.722.607 4.578a55.605 55.605 0 0 0 5.507-1.9c.924-.375 2.643-1.51 3.606-1.084 2.19.97-.745 5.202-.82 6.7-.06 1.185-.311.412.122 1.404.18.413 1.684 1.534 1.831 1.66.646.548 1.318 1.065 1.978 1.594 2.995 2.4 6.074 4.794 8.726 7.614 9.941 10.57 10.37 28.606 10.425 42.438.014 4.55-1.086 7.94-1.086 12.46 0 .691.095 6.95-.59 10.575a4.973 4.973 0 0 1-.487 1.442c.637 2.901 1.313 7.14 1.488 8.036 1.01 5.17 2.167 10.353 2.542 15.602.386 5.394-.075 10.739-1.288 16.024a135.504 135.504 0 0 1-1.981 7.529c-.807 2.77.309 8.164-.052 11.008-.683 5.38-3.464 15.874-6.586 20.503-1.51 2.237-3.278 3.634-5.253 5.437-1.902 1.736-2.696 4.426-4.748 6.274-3.825 3.445-9.399 5.496-15.122 6-5.137 3.973-13.673 6.573-23.337 6.573s-18.2-2.6-23.336-6.573c-5.725-.504-11.298-2.555-15.123-6-2.052-1.848-2.846-4.538-4.747-6.274-1.976-1.803-3.745-3.2-5.254-5.437-3.122-4.63-5.903-15.123-6.586-20.503-.36-2.844.755-8.238-.051-11.008a135.225 135.225 0 0 1-1.982-7.529c-1.213-5.285-1.674-10.63-1.288-16.024.376-5.25 1.532-10.431 2.542-15.602.09-.46.31-1.797.591-3.382zm2.054-2.096c.352 6.206.993 12.365 1.768 18.571.298 2.388.611 4.776.817 7.171.165 1.935-.13 4.274.384 6.146.656 2.386 3.945 4.612 6.503 5.434 6.381 2.051 11.705-6.437 17.155-8.92 7.076-3.223 19.24-3.991 26.632.21 7.235-4.201 19.398-3.433 26.474-.21 5.45 2.483 10.774 10.971 17.156 8.92 2.557-.822 5.846-3.048 6.502-5.434.514-1.872.219-4.21.385-6.146.205-2.395.518-4.783.816-7.17.836-6.692 1.515-13.328 1.846-20.028-.128.05-.216.05-.236.017-1.378-2.212-.212-8.415-.585-9.649-2.121-7.016-1.408-15.152-3.122-22.283-1.72-7.156-4.58-12.908-10.243-17.487-2.716-2.197-5.485-4.242-7.808-6.92-.983-1.134-2.405-3.901-3.774-4.749-1.496-.926-4.227 3.031-17.88 4.098-13.654 1.066-14.915-2.784-20.445-2.784-5.53 0-21.788 6.828-27.38 10.649-6.002 4.102-7.781 11.714-9.901 18.393-1.203 3.79-1.897 7.723-2.619 11.638-.29 1.57-1.312 14.606-2.445 20.533z"
      id="w"/>
    <path d="M6.618.401H213.58a6 6 0 0 1 6 6v65.345a2 2 0 0 1-2 2H2.618a2 2 0 0 1-2-2V6.401a6 6 0 0 1 6-6z" id="x"/>
  </defs>
  <g fill="none" fill-rule="evenodd">
    <path d="M354.842 359.81H45.384c-11.598 0-21-9.402-21-21v-85.366c0-11.598 9.402-21 21-21h68.32c11.597 0 21-9.402 21-21v-35.741" stroke="#D6DDE3" stroke-width="4" stroke-linecap="round" stroke-dasharray="8"/>
    <path d="M350.918 362v-42.769c0-11.598-9.402-21-21-21h-56.331c-11.598 0-21-9.402-21-21V80.623c0-11.598 9.402-21 21-21h8.433" stroke="#D6DDE3" stroke-width="4" stroke-linecap="round" stroke-dasharray="9"/>
    <path d="M559.074 326.26v-31.838c0-10.493 8.507-19 19-19h34c10.494 0 19-8.506 19-19V218.79" stroke="#D6DDE3" stroke-width="4" stroke-linecap="round" stroke-dasharray="8,8,8"/>
    <path d="M561.74 358.16h290.92c11.599 0 21-9.402 21-21V111.764c0-11.598-9.401-21-21-21h-49.62" stroke="#D6DDE3" stroke-width="4" stroke-linecap="round" stroke-linejoin="round" stroke-dasharray="8"/>
    <g transform="translate(573.927 79.41)">
      <path d="M6 .314h97.676a6 6 0 0 1 6 6v38.798H0V6.314a6 6 0 0 1 6-6z" fill="#3197D6"/>
      <path d="M.5 45.112h106.573" stroke="#1D2B36" stroke-width="4" stroke-linecap="square"/>
      <mask id="b" fill="#fff">
        <use xlink:href="#a"/>
      </mask>
      <use stroke="#1D2B36" stroke-width="4" stroke-linecap="round" xlink:href="#a"/>
      <g mask="url(#b)">
        <use fill="#F9FAFA" xlink:href="#c"/>
        <rect stroke="#1D2B36" stroke-width="4" x="55.284" y="12.875" width="42" height="41.808" rx="2"/>
      </g>
      <path d="M72.922 28.532l7.276 4.83a.5.5 0 0 1 0 .834l-7.276 4.83a.5.5 0 0 1-.777-.416v-9.662a.5.5 0 0 1 .777-.416z" fill="#1D2B36" mask="url(#b)"/>
      <path d="M9.474 31.658H31.32" stroke="#FFF" stroke-width="4" stroke-linecap="round" stroke-linejoin="round"/>
      <path d="M9.474 24.213h31.601m-31.601-7.39h36.607" stroke="#1D2B36" stroke-width="4" stroke-linecap="round" stroke-linejoin="round"/>
      <g stroke-linecap="round" stroke-linejoin="round">
        <path d="M24.122 77.5h62.472m-62.472 7h62.472" stroke="#72808E" stroke-width="4"/>
        <path d="M35.122 68.5h40" stroke="#1D2B36" stroke-width="5"/>
      </g>
      <g transform="translate(9.338 96)">
        <path d="M.622 19.5h19.144m-19.144 7h19.144" stroke="#72808E" stroke-width="4" stroke-linecap="round" stroke-linejoin="round"/>
        <circle fill="#3197D6" cx="10.015" cy="6.896" r="6"/>
      </g>
      <g transform="translate(44.338 96)">
        <path d="M.784 19.5h19.143m-19.143 7h19.143" stroke="#72808E" stroke-width="4" stroke-linecap="round" stroke-linejoin="round"/>
        <circle fill="#3197D6" cx="10.284" cy="6.896" r="6"/>
      </g>
      <g transform="translate(79.338 96)">
        <path d="M.74 19.5h19.144M.74 26.5h19.144" stroke="#72808E" stroke-width="4" stroke-linecap="round" stroke-linejoin="round"/>
        <circle fill="#3197D6" cx="10.552" cy="6.896" r="6"/>
      </g>
    </g>
    <g transform="rotate(-180 139.947 192.873)">
      <use fill="#FDFDFD" xlink:href="#d"/>
      <path stroke="#1D2B36" stroke-width="4" d="M10.395.88h24.692c6.628 0 12 5.372 12 12v24.333a5 5 0 0 1-5 5H-1.605V12.88c0-6.628 5.372-12 12-12z"/>
    </g>
    <path d="M275.403 343.535c11.784 0 20.506-1.436 20.506 14.356s-5.775 16.67-16.363 16.67m-44.739.344h46.738" stroke="#1D2B36" stroke-width="4"/>
    <path
      d="M257.439 330.309c2.838-2.741 2.854-7.33.035-10.249m.034-10.248c-2.838 2.74-2.854 7.329-.034 10.248m-11.389 14.775c2.838-2.74 2.854-7.329.034-10.248m.035-10.248c-2.838 2.74-2.854 7.329-.035 10.248m22.674 9.799c2.838-2.741 2.854-7.33.035-10.249m.034-10.248c-2.838 2.74-2.853 7.329-.034 10.248"
      stroke="#1D2B36"
      stroke-linecap="round"
      stroke-linejoin="round"
      stroke-width="4"/>
    <path
      d="M762.78 258.347c-5.135-2.962-8.592-8.51-8.592-14.864 0-9.469 17.145-30.242 17.145-30.242s17.146 20.773 17.146 30.242c0 9.47-7.677 17.146-17.146 17.146m42.845-38.53c5.135-2.962 8.592-8.51 8.592-14.863 0-9.47-17.145-30.243-17.145-30.243s-17.146 20.774-17.146 30.243c0 9.47 7.676 17.145 17.146 17.145"
      fill="#FDFDFD"/>
    <path d="M854.04 303.913h-96.832c0 9.944 8.06 18.006 18.005 18.006h60.823c9.944 0 18.005-8.062 18.005-18.006z" stroke="#1D2B36" stroke-width="4" fill="#FDFDFD" stroke-linecap="round" stroke-linejoin="round"/>
    <path stroke="#1D2B36" stroke-width="4" fill="#FDFDFD" d="M775.588 321.919l6.69 63.942h52.44l6.509-63.942z"/>
    <path
      d="M805.624 303.913v-34.291m0-1.186v-34.291m0 61.195c0-9.469-7.676-17.146-17.146-17.146m34.292-20.842c-9.47 0-17.146 7.677-17.146 17.146m-34.291-13.449c0 9.469 7.676 17.146 17.146 17.146m34.291-20.967c9.469 0 17.145-7.676 17.145-17.146m-68.582 13.641v-16.788m0 13.931l5.566-5.566m71.589-11.036v-16.789m0 13.931l5.566-5.566m-39.876-3.741c5.135-2.962 8.592-8.51 8.592-14.863 0-9.47-17.145-30.243-17.145-30.243s-17.146 20.774-17.146 30.243c0 9.47 7.676 17.145 17.146 17.145m-.001 0v9.763m0-16.669v-16.788m0 13.931l5.566-5.566m-5.566.803l-5.566-5.566m5.566 48.841c0-9.468-7.676-17.145-17.146-17.145m-48.416-20.725c0 9.47 7.676 17.146 17.146 17.146"
      stroke="#1D2B36"
      stroke-width="4"
      stroke-linecap="round"
      stroke-linejoin="round"/>
    <path d="M746.452 208.319a6.39 6.39 0 1 0-12.78 0 6.39 6.39 0 0 0 12.78 0zm99.842 58.976a6.39 6.39 0 1 0-12.78 0 6.39 6.39 0 0 0 12.78 0z" stroke="#1D2B36" stroke-width="4" fill="#FDFDFD" stroke-linecap="round" stroke-linejoin="round"/>
    <path d="M805.613 274.774c0 9.469 7.676 17.146 17.146 17.146m0 0c9.469 0 17.145-7.677 17.145-17.147" stroke="#1D2B36" stroke-width="4" stroke-linecap="round" stroke-linejoin="round"/>
    <path
      d="M625.97 372.377h113.47m-113.47 1.746h113.47m-113.47 1.747h113.47m-113.47 1.746h113.47m-113.47 1.747h113.47m-113.47 1.747h113.47m-113.47-10.48h113.47m-113.664-17.155H728.01m-102.234 1.746H728.01m-102.234 1.747H728.01m-102.234 1.746H728.01m-102.234 1.746H728.01m-102.234 1.747H728.01m-102.234-10.479H728.01"
      opacity=".15"
      stroke="#0F0F0F"
      stroke-linecap="square"
      stroke-width=".25"/>
    <g transform="translate(609.299 363.517)">
      <use fill="#FDFDFD" xlink:href="#e"/>
      <path stroke="#1D2B36" stroke-width="4" d="M2.64 2.542v19.141h127V6.543a4 4 0 0 0-4-4h-123z"/>
    </g>
    <path d="M623.97 372.377h113.47m-113.47 1.746h113.47m-113.47 1.747h113.47m-113.47 1.746h113.47m-113.47 1.747h113.47m-113.47 1.747h113.47m-113.47-10.48h113.47" stroke="#1D2B36" stroke-linecap="round" stroke-width=".25"/>
    <g transform="translate(609.299 344.18)">
      <use fill="#FDFDFD" xlink:href="#f"/>
      <path stroke="#1D2B36" stroke-width="4" d="M2.64 2.322v19.14h115.574V6.323a4 4 0 0 0-4-4H2.64z"/>
    </g>
    <g transform="translate(609.299 324.082)">
      <use fill="#FDFDFD" xlink:href="#g"/>
      <path stroke="#1D2B36" stroke-width="4" d="M2.64 22.12h105.81V6.977a4 4 0 0 0-4-4H6.64a4 4 0 0 0-4 4V22.12z"/>
    </g>
    <path d="M623.408 333.377h92.242m-92.242 1.747h92.242m-92.242 1.746h92.242m-92.242 1.747h92.242m-92.242 1.746h92.242m-92.242 1.747h92.242m-92.242-10.479h92.242" stroke="#1D2B36" stroke-linecap="round" stroke-width=".25"/>
    <g transform="matrix(-1 0 0 1 211.472 245.979)">
      <use fill="#FDFDFD" xlink:href="#h"/>
      <path
        stroke="#1D2B36"
        stroke-width="4"
        d="M127.042 21.583h-.044V8.711a6.708 6.708 0 0 0-6.708-6.709h-17.417a6.708 6.708 0 0 0-6.708 6.709v12.872h-43.54V8.711a6.708 6.708 0 0 0-6.708-6.709H28.5a6.708 6.708 0 0 0-6.708 6.709v125.056a5.917 5.917 0 0 0 5.916 5.917h89.444v.014h28.121c5.891 0 10.667-4.775 10.667-10.666V82.563a5.958 5.958 0 0 1 5.958-5.958h10.657a5.285 5.285 0 1 0 0-10.57h-16.7c-5.454 0-9.875 4.42-9.875 9.874v46.138a8.333 8.333 0 0 1-8.333 8.333h-10.605V21.583z"/>
      <path d="M37.722 139.868h73.39v-3.064c0-20.266-16.43-36.695-36.695-36.695-20.266 0-36.695 16.429-36.695 36.695v3.064z" stroke="#1D2B36" stroke-width="4"/>
      <g transform="rotate(-151 37.506 26.503)">
        <use fill="#FDFDFD" xlink:href="#i"/>
        <ellipse stroke="#1D2B36" stroke-width="4" cx="7.756" cy="7.421" rx="9.534" ry="9.131"/>
        <ellipse fill="#1D2B36" cx="12.842" cy="7.79" rx="4.758" ry="4.725"/>
      </g>
      <g transform="rotate(-151 57.506 21.331)">
        <use fill="#FDFDFD" xlink:href="#j"/>
        <ellipse stroke="#1D2B36" stroke-width="4" cx="7.756" cy="7.421" rx="9.534" ry="9.131"/>
        <ellipse fill="#1D2B36" cx="11.577" cy="9.634" rx="4.758" ry="4.725"/>
      </g>
      <path d="M62.422 22.575v17.703M74.34 22.575v17.703m11.92-17.703v17.703m63.816 7.685h-30.64m25.784 11.919h-25.785m19.789 11.92h-19.789M31.391 47.963H.751m30.64 11.919H6.22m25.171 11.92H11.215" stroke="#1D2B36" stroke-linecap="round" stroke-width="4"/>
      <g transform="translate(64.25 69.833)">
        <ellipse fill="#1D2B36" cx="9.771" cy="3.282" rx="9.018" ry="2.677"/>
        <path d="M10.198 5.958c0 3.946 3.29 7.144 7.348 7.144M9.344 5.958c0 3.946-3.29 7.144-7.349 7.144" stroke="#1D2B36" stroke-width="4" stroke-linecap="round" stroke-linejoin="round"/>
      </g>
      <circle stroke="#1D2B36" stroke-width="4" cx="109.153" cy="94.396" r="5.938"/>
      <circle stroke="#1D2B36" stroke-width="4" cx="37.604" cy="94.396" r="5.938"/>
    </g>
    <g transform="translate(284.113 2)">
      <g transform="translate(1 124)">
        <mask id="l" fill="#fff">
          <use xlink:href="#k"/>
        </mask>
        <use fill="#FDFDFD" xlink:href="#k"/>
        <g mask="url(#l)">
          <g transform="translate(40 11)">
            <circle fill="#3197D6" cx="11.884" cy="11.342" r="11.335"/>
            <path stroke="#FDFDFD" stroke-width="4" stroke-linecap="round" stroke-linejoin="round" d="M7.006 11.867l3.671 2.763 5.448-6.24"/>
          </g>
        </g>
      </g>
      <path fill="#3197D6" d="M.027 169.033h69.499v23.454H.027z"/>
      <g transform="translate(0 75)">
        <mask id="n" fill="#fff">
          <use xlink:href="#m"/>
        </mask>
        <use fill="#FDFDFD" xlink:href="#m"/>
        <g mask="url(#n)">
          <g transform="translate(-5 13)">
            <mask id="p" fill="#fff">
              <use xlink:href="#o"/>
            </mask>
            <use fill="#3197D6" xlink:href="#o"/>
            <rect fill="#1D2B36" mask="url(#p)" x="10.045" y="17.709" width="4" height="14.635" rx="2"/>
            <rect fill="#1D2B36" mask="url(#p)" x="15.545" y="11.182" width="4" height="23.161" rx="2"/>
            <rect fill="#1D2B36" mask="url(#p)" x="22.045" y="5.073" width="4" height="29.271" rx="2"/>
          </g>
        </g>
      </g>
      <g transform="translate(1 23)">
        <mask id="r" fill="#fff">
          <use xlink:href="#q"/>
        </mask>
        <use fill="#FDFDFD" xlink:href="#q"/>
        <g mask="url(#r)">
          <g transform="translate(7 10)">
            <rect fill="#3197D6" x="20.292" y=".158" width="34.523" height="21.607" rx="2"/>
            <path d="M.64 14h12.685M.64 20h12.685" stroke="#72808E" stroke-width="4" stroke-linecap="round"/>
            <path d="M.64 2h12.685" stroke="#1D2B36" stroke-width="4" stroke-linecap="round"/>
            <path d="M.64 8h12.685M.661 28.76h53.03m-53.03 7h53.03" stroke="#72808E" stroke-width="4" stroke-linecap="round"/>
            <path d="M36.125 8.28l3.41 2.264a.5.5 0 0 1 0 .834l-3.41 2.264a.5.5 0 0 1-.776-.417V8.697a.5.5 0 0 1 .776-.417z" fill="#FDFDFD"/>
          </g>
        </g>
      </g>
      <path fill="#3197D6" d="M1.321 1.087H70.37v19.091H1.321z"/>
      <path d="M1.82 21.679h68M1.87 169.91h68" stroke="#1D2B36" stroke-width="4" stroke-linecap="square"/>
      <path d="M49.32 11.833h9.634m-27.884 0h9.634m-27.884 0h9.633" stroke="#FFF" stroke-width="4" stroke-linecap="round"/>
      <rect stroke="#1D2B36" stroke-width="4" x=".027" y=".988" width="71.042" height="192.466" rx="6"/>
    </g>
    <path d="M318.161 97.5h15.452" stroke="#1D2B36" stroke-width="4" stroke-linecap="round"/>
    <path d="M318.14 105.5h27.73m-27.73 6h27.73" stroke="#72808E" stroke-width="4" stroke-linecap="round"/>
    <path d="M301.661 139.5h15.452" stroke="#1D2B36" stroke-width="4" stroke-linecap="round"/>
    <path d="M292.186 146.5h25.133m-25.133 6h25.133" stroke="#72808E" stroke-width="4" stroke-linecap="round"/>
    <path d="M310.3 160.783h6.5" stroke="#3197D6" stroke-width="4" stroke-linecap="round"/>
    <path d="M306.39 180.44h25m-21.522 6.838h18" stroke="#FDFDFD" stroke-linecap="round" stroke-width="4"/>
    <g transform="translate(33.74 81)">
      <use fill="#394956" xlink:href="#s"/>
      <rect stroke="#1D2B36" stroke-width="4" x="2.401" y="2.097" width="176.004" height="105.558" rx="6"/>
    </g>
    <g stroke-linecap="round" stroke-width="4">
      <path d="M47.783 93.626h17.085" stroke="#71BFF1"/>
      <path d="M52.487 101.71H83.05m-30.563 7.832h35.564m-35.564 7.834h35.14" stroke="#FDFDFD"/>
    </g>
    <g stroke-linecap="round" stroke-width="4">
      <path d="M47.783 128.126h17.085" stroke="#71BFF1"/>
      <path d="M52.487 136.21H83.05m-30.563 7.832h35.564m-35.564 7.834h35.14" stroke="#FDFDFD"/>
    </g>
    <g stroke-linecap="round" stroke-width="4">
      <path d="M47.783 162.126h17.085" stroke="#71BFF1"/>
      <path d="M52.487 170.21H83.05m-30.563 7.832h35.564" stroke="#FDFDFD"/>
    </g>
    <g stroke-linecap="round" stroke-width="4">
      <path d="M118.716 146.198h26.505m-26.505 31.341h26.505" stroke="#FF9139"/>
      <path d="M125.094 153.407h64.183m-64.183 7.921h67.577m-67.577 7.954h73.796" stroke="#FDFDFD"/>
    </g>
    <g stroke-linecap="round" stroke-width="4">
      <path d="M118.716 94.198h26.505m-26.505 39.209h26.505" stroke="#FF9139"/>
      <path d="M125.094 101.407h64.183m-64.183 7.921h67.577m-67.577 7.954h73.796m-73.796 8.257h73.796" stroke="#FDFDFD"/>
    </g>
    <path d="M107.24 84.5v102.176" stroke="#1D2B36" stroke-width="4" stroke-linecap="square"/>
    <g transform="translate(741.74 28)" stroke-linecap="round" stroke-linejoin="round" stroke-width="4">
      <rect stroke="#1D2B36" fill="#394956" x=".26" width="79" height="123" rx="6"/>
      <path d="M8.622 11H51.76M8.745 20.2h61.652" stroke="#4BC27D"/>
      <path d="M8.745 29.15H64.76" stroke="#FDFDFD"/>
      <path d="M8.745 38.1h61.652" stroke="#4BC27D"/>
      <path d="M8.745 47.05H66.76M8.745 56h61.652" stroke="#FFF"/>
      <path d="M8.745 64.95H61.76" stroke="#FDFDFD"/>
      <path d="M8.745 73.9H65.76M8.745 82.85h61.652M8.745 91.8H66.76" stroke="#4BC27D"/>
      <path d="M8.745 100.75H70.76" stroke="#FDFDFD"/>
      <path d="M8.848 109.418v3.082" stroke="#4BC27D"/>
    </g>
    <g transform="translate(358.328 46.904)">
      <g transform="translate(0 13)">
        <use fill="#FFE6C8" xlink:href="#t"/>
        <g transform="translate(0 169)">
          <mask id="v" fill="#fff">
            <use xlink:href="#u"/>
          </mask>
          <use fill="#3197D6" xlink:href="#u"/>
          <path
            d="M78.803 109.398l15.845-15.844a11.2 11.2 0 0 0 .086-15.845L78.889 93.554a11.131 11.131 0 0 0-3.327 7.96 11.2 11.2 0 0 0 3.241 7.884zm38.344-9.295l-15.845 15.845a11.2 11.2 0 0 0-.086 15.845l15.845-15.845a11.2 11.2 0 0 0 .086-15.845zm-.095-6.55a11.162 11.162 0 0 0 3.318-7.96c0-3.07-1.24-5.854-3.242-7.875l-38.24 38.24a11.187 11.187 0 0 0-.085 15.835l38.249-38.24z"
            fill="#FFF"
            fill-rule="nonzero"
            mask="url(#v)"/>
          <path d="M64.59 47.332v61.014a2 2 0 1 1-4 0V45.15a62.645 62.645 0 0 0 4 2.182zm67-.51v22.351a2 2 0 0 1-4 0V48.739a66.549 66.549 0 0 0 4-1.918z" fill="#FDFDFD" mask="url(#v)"/>
          <path
            d="M94.98 55c-11.225 0-22.705-3.553-31.045-8.048-12.669-6.827-22.3-17.01-22.3-28.875 0-9.37 5.597-15.003 14.251-18.353C41.55 2.571 31.634 8.243 31.634 19.308 31.634 39.02 63.104 55 94.979 55zM134.072-.276c14.337 2.847 24.253 8.519 24.253 19.584 0 19.71-31.465 35.689-63.337 35.692 26.84-.004 53.335-16.533 53.335-36.923 0-9.37-5.597-15.003-14.25-18.353z"
            fill-opacity=".16"
            fill="#000"
            mask="url(#v)"/>
          <path d="M154 85.965v68.23M37 85.965v68.23" stroke="#237AB3" stroke-width="4" stroke-linecap="round"/>
        </g>
        <path d="M87.964 93.771c0 2.983 3.627 5.401 8.102 5.401 4.474 0 8.101-2.418 8.101-5.4" stroke="#1D2B36" stroke-linecap="round" stroke-width="4"/>
        <g transform="translate(63 70)" fill="#1D2B36">
          <circle cx="6" cy="6" r="6"/>
          <circle cx="58" cy="6" r="6"/>
        </g>
        <path
          d="M54.63 63.159c3.915-5.51 14.648-8.598 23.893-6.328a2 2 0 0 0 .954-3.884c-10.737-2.637-23.165.94-28.107 7.894a2 2 0 0 0 3.26 2.318zM106.923 125c-4.74 4.252-14.024 4.483-20.497-.007-.75-.52-1.794-.17-2.33.784-.536.954-.361 2.15.39 2.67 7.517 5.215 18.266 4.947 24.25-.421.775-.695.997-1.936.496-2.772-.5-.835-1.535-.95-2.31-.254zm28.447-61.841c-3.915-5.51-14.648-8.598-23.893-6.328a2 2 0 0 1-.954-3.884c10.737-2.637 23.165.94 28.108 7.894a2 2 0 0 1-3.26 2.318z"
          fill="#1D2B36"
          fill-rule="nonzero"/>
      </g>
      <use fill="#B59750" xlink:href="#w"/>
    </g>
    <g transform="translate(341.709 310.082)">
      <mask id="y" fill="#fff">
        <use xlink:href="#x"/>
      </mask>
      <use fill="#A5B2BD" xlink:href="#x"/>
      <path stroke="#1D2B36" stroke-width="4" d="M6.618-1.599H213.58a8 8 0 0 1 8 8v65.345a4 4 0 0 1-4 4H2.618a4 4 0 0 1-4-4V6.401a8 8 0 0 1 8-8z"/>
      <path d="M24.9 74.3c11.658-2.162 22.683-3.925 33.076-5.288 35.918-4.71 97.072 6.704 132.922-6.229 23.9-8.622 36.595-19.827 38.083-33.615L225.555 74.3H24.9z" fill="#B4C0CA" mask="url(#y)"/>
    </g>
    <g transform="translate(437.209 336.582)">
      <circle fill="#FDFDFD" cx="14.485" cy="14.927" r="14.188"/>
      <path
        d="M8.009 15.94l5.007-5.006a3.535 3.535 0 0 0 .027-5.007l-5.007 5.007a3.539 3.539 0 0 0-.027 5.006zm12.116-2.937l-5.007 5.006a3.535 3.535 0 0 0-.027 5.007l5.006-5.007a3.535 3.535 0 0 0 .028-5.006zm-.03-2.07a3.527 3.527 0 0 0 1.048-2.515c0-.97-.392-1.85-1.024-2.488L8.036 18.012a3.535 3.535 0 0 0-.027 5.004l12.085-12.082z"
        fill="#3197D6"
        fill-rule="nonzero"/>
    </g>
    <path
      d="M805.624 303.913v-34.291m0-1.186v-34.291m-42.844 24.477c-5.136-2.962-8.593-8.51-8.593-14.863 0-9.47 17.146-30.243 17.146-30.243s17.145 20.774 17.145 30.243c0 9.47-7.676 17.145-17.145 17.145m85.708-22.017c5.136-2.962 8.593-8.51 8.593-14.863 0-9.47-17.146-30.243-17.146-30.243s-17.145 20.774-17.145 30.243c0 9.47 7.676 17.146 17.145 17.146"
      stroke="#1D2B36"
      stroke-linecap="round"
      stroke-linejoin="round"
      stroke-width="4"/>
    <path d="M624.08 353.531h102.232m-102.232 1.747h102.232m-102.232 1.746h102.232M624.08 358.77h102.232m-102.232 1.747h102.232m-102.232 1.747h102.232M624.08 351.785h102.232" stroke="#1D2B36" stroke-linecap="round" stroke-width=".25"/>
    <path d="M2.828 385.904h886.75" stroke="#1D2B36" stroke-width="4" stroke-linecap="round"/>
  </g>
</svg>