<svg width="892" height="353" viewBox="0 0 892 353" xmlns="http://www.w3.org/2000/svg" xmlns:xlink="http://www.w3.org/1999/xlink">
  <title>
    Chapter III
  </title>
  <defs>
    <path d="M10.395 2.88h24.692c5.523 0 10 4.477 10 10v24.333a3 3 0 0 1-3 3H.395V12.88c0-5.523 4.477-10 10-10z" id="a"/>
    <path
      d="M128.998 19.583h.044V128.38h8.605a6.333 6.333 0 0 0 6.333-6.333V75.909c0-6.558 5.317-11.875 11.875-11.875h16.7a7.285 7.285 0 0 1 0 14.57h-10.657a3.958 3.958 0 0 0-3.958 3.96v46.468c0 6.995-5.671 12.666-12.667 12.666h-30.12v-.014H27.707a7.917 7.917 0 0 1-7.916-7.917V8.711A8.708 8.708 0 0 1 28.5.002h17.417a8.708 8.708 0 0 1 8.708 8.709v10.872h39.54V8.711a8.708 8.708 0 0 1 8.708-8.709h17.417a8.708 8.708 0 0 1 8.708 8.709v10.872z"
      id="b"/>
    <ellipse id="c" cx="7.756" cy="7.421" rx="7.534" ry="7.131"/>
    <path
      d="M122.124 143.455V213h-49.23v-68.863C56.834 135.75 45.709 119.205 45.02 100h-.034c-6.456 0-11.689-5.233-11.689-11.69V73.69c0-6.457 5.233-11.69 11.69-11.69V51.89C44.987 23.233 68.22 0 96.877 0c28.659 0 51.89 23.232 51.89 51.89v10.124c6.188.301 11.112 5.413 11.112 11.675v14.622c0 6.273-4.941 11.392-11.145 11.677-.665 18.703-11.229 34.885-26.611 43.467z"
      id="d"/>
    <path
      d="M72.323.07v20.277C72.323 32.858 82.464 43 94.975 43c12.51 0 22.653-10.142 22.653-22.653V.071c17.084 2.025 30.203 7.592 30.203 22.006 0 .222-.003.444-.009.664 24.539 11.474 41.54 36.381 41.54 65.258v69.42H.588v-69.42c0-28.877 17-53.784 41.54-65.258a23.59 23.59 0 0 1-.01-.664c0-14.414 13.119-19.98 30.204-22.006z"
      id="e"/>
    <path
      d="M77.819 133.607c2.11-1.44 14.723-1.991 16.996-3.216.71-.383 1.26-.77 1.685-1.154.424.384.975.771 1.685 1.154 2.273 1.225 14.885 1.776 16.996 3.216 2.137 1.457 3.698 4.801 3.527 7.416-.205 3.138-3.97 10.624-13.339 11.486-2.045-2.074-5.256-3.412-8.87-3.412-3.612 0-6.823 1.338-8.868 3.412-9.369-.862-13.134-8.348-13.338-11.486-.171-2.615 1.389-5.959 3.526-7.416m.643 15.13l.016.005-.016-.005M41.266 95.448c-1.284-4.186-.423-20.432-.506-22.13-.306-6.317-.253-12.824.403-19.118.895-8.578 2.493-16.77 6.766-24.254 4.433-7.766 12.012-13.864 19.686-17.794 9.955-5.098 22.537-4.523 33.297-6.541 3.164-.594 6.243-1.347 9.257-2.513 1.006-.39 3.726-2.214 4.66-2.137 3.004.245-.32 4.639-1.151 6.057 2.512-.938 4.841-2.93 7.34-3.705 3.21-.995 1.502 2.722.607 4.578a55.605 55.605 0 0 0 5.507-1.9c.924-.375 2.643-1.51 3.606-1.084 2.19.97-.745 5.202-.82 6.7-.06 1.185-.311.412.122 1.404.18.413 1.684 1.534 1.831 1.66.646.548 1.318 1.065 1.978 1.594 2.995 2.4 6.074 4.794 8.726 7.614 9.941 10.57 10.37 28.606 10.425 42.438.014 4.55-1.086 7.94-1.086 12.46 0 .691.095 6.95-.59 10.575a4.973 4.973 0 0 1-.487 1.442c.637 2.901 1.313 7.14 1.488 8.036 1.01 5.17 2.167 10.353 2.542 15.602.386 5.394-.075 10.739-1.288 16.024a135.504 135.504 0 0 1-1.981 7.529c-.807 2.77.309 8.164-.052 11.008-.683 5.38-3.464 15.874-6.586 20.503-1.51 2.237-3.278 3.634-5.253 5.437-1.902 1.736-2.696 4.426-4.748 6.274-3.825 3.445-9.399 5.496-15.122 6-5.137 3.973-13.673 6.573-23.337 6.573s-18.2-2.6-23.336-6.573c-5.725-.504-11.298-2.555-15.123-6-2.052-1.848-2.846-4.538-4.747-6.274-1.976-1.803-3.745-3.2-5.254-5.437-3.122-4.63-5.903-15.123-6.586-20.503-.36-2.844.755-8.238-.051-11.008a135.225 135.225 0 0 1-1.982-7.529c-1.213-5.285-1.674-10.63-1.288-16.024.376-5.25 1.532-10.431 2.542-15.602.09-.46.31-1.797.591-3.382zm2.054-2.096c.352 6.206.993 12.365 1.768 18.571.298 2.388.611 4.776.817 7.171.165 1.935-.13 4.274.384 6.146.656 2.386 3.945 4.612 6.503 5.434 6.381 2.051 11.705-6.437 17.155-8.92 7.076-3.223 19.24-3.991 26.632.21 7.235-4.201 19.398-3.433 26.474-.21 5.45 2.483 10.774 10.971 17.156 8.92 2.557-.822 5.846-3.048 6.502-5.434.514-1.872.219-4.21.385-6.146.205-2.395.518-4.783.816-7.17.836-6.692 1.515-13.328 1.846-20.028-.128.05-.216.05-.236.017-1.378-2.212-.212-8.415-.585-9.649-2.121-7.016-1.408-15.152-3.122-22.283-1.72-7.156-4.58-12.908-10.243-17.487-2.716-2.197-5.485-4.242-7.808-6.92-.983-1.134-2.405-3.901-3.774-4.749-1.496-.926-4.227 3.031-17.88 4.098-13.654 1.066-14.915-2.784-20.445-2.784-5.53 0-21.788 6.828-27.38 10.649-6.002 4.102-7.781 11.714-9.901 18.393-1.203 3.79-1.897 7.723-2.619 11.638-.29 1.57-1.312 14.606-2.445 20.533z"
      id="g"/>
    <path d="M6.618.401H213.58a6 6 0 0 1 6 6v65.345a2 2 0 0 1-2 2H2.618a2 2 0 0 1-2-2V6.401a6 6 0 0 1 6-6z" id="h"/>
  </defs>
  <g fill="none" fill-rule="evenodd">
    <path
      d="M156.933 192.119h145.212m60.758-33.619h218.243m-90.35-115h71m-280.136 0h195.988M314.796 192.119h4.561m-53.749 37.596H410.82m-183.097 0H255.2m82.926-151.5h205.778m-443.886 0h205.778m-78.639 41.629H371M46 158.5h268m359.995-39.656h106.008M653.84 208.326h61.547M790 118.844h2.006m-264.844 86.482h27.655M725.985 75.215h106.311m-216.644 169h145.212m8.288 0h4.561"
      stroke="#D6DDE3"
      stroke-linecap="round"
      stroke-width="4"/>
    <g transform="rotate(-180 139.947 174.873)">
      <use fill="#FDFDFD" xlink:href="#a"/>
      <path stroke="#1D2B36" stroke-width="4" d="M10.395.88h24.692c6.628 0 12 5.372 12 12v24.333a5 5 0 0 1-5 5H-1.605V12.88c0-6.628 5.372-12 12-12z"/>
    </g>
    <path d="M275.403 307.535c11.784 0 20.506-1.436 20.506 14.356s-5.775 16.67-16.363 16.67m-44.739.344h46.738" stroke="#1D2B36" stroke-width="4"/>
    <path
      d="M257.439 294.309c2.838-2.741 2.854-7.33.035-10.249m.034-10.248c-2.838 2.74-2.854 7.329-.034 10.248m-11.389 14.775c2.838-2.74 2.854-7.329.034-10.248m.035-10.248c-2.838 2.74-2.854 7.329-.035 10.248m22.674 9.799c2.838-2.741 2.854-7.33.035-10.249m.034-10.248c-2.838 2.74-2.853 7.329-.034 10.248"
      stroke="#1D2B36"
      stroke-linecap="round"
      stroke-linejoin="round"
      stroke-width="4"/>
    <path
      d="M762.78 222.347c-5.135-2.962-8.592-8.51-8.592-14.864 0-9.469 17.145-30.242 17.145-30.242s17.146 20.773 17.146 30.242c0 9.47-7.677 17.146-17.146 17.146m42.845-38.53c5.135-2.962 8.592-8.51 8.592-14.863 0-9.47-17.145-30.243-17.145-30.243s-17.146 20.774-17.146 30.243c0 9.47 7.676 17.145 17.146 17.145"
      fill="#FDFDFD"/>
    <path d="M854.04 267.913h-96.832c0 9.944 8.06 18.006 18.005 18.006h60.823c9.944 0 18.005-8.062 18.005-18.006z" stroke="#1D2B36" stroke-width="4" fill="#FDFDFD" stroke-linecap="round" stroke-linejoin="round"/>
    <path stroke="#1D2B36" stroke-width="4" fill="#FDFDFD" d="M775.588 285.919l6.69 63.942h52.44l6.509-63.942z"/>
    <path
      d="M805.624 267.913v-34.291m0-1.186v-34.291m0 61.195c0-9.469-7.676-17.146-17.146-17.146m34.292-20.842c-9.47 0-17.146 7.677-17.146 17.146m-34.291-13.449c0 9.469 7.676 17.146 17.146 17.146m34.291-20.967c9.469 0 17.145-7.676 17.145-17.146m-68.582 13.641v-16.788m0 13.931l5.566-5.566m71.589-11.036v-16.789m0 13.931l5.566-5.566m-39.876-3.741c5.135-2.962 8.592-8.51 8.592-14.863 0-9.47-17.145-30.243-17.145-30.243s-17.146 20.774-17.146 30.243c0 9.47 7.676 17.145 17.146 17.145m-.001 0v9.763m0-16.669v-16.788m0 13.931l5.566-5.566m-5.566.803l-5.566-5.566m5.566 48.841c0-9.468-7.676-17.145-17.146-17.145m-48.416-20.725c0 9.47 7.676 17.146 17.146 17.146"
      stroke="#1D2B36"
      stroke-width="4"
      stroke-linecap="round"
      stroke-linejoin="round"/>
    <path d="M746.452 172.319a6.39 6.39 0 1 0-12.78 0 6.39 6.39 0 0 0 12.78 0zm99.842 58.976a6.39 6.39 0 1 0-12.78 0 6.39 6.39 0 0 0 12.78 0z" stroke="#1D2B36" stroke-width="4" fill="#FDFDFD" stroke-linecap="round" stroke-linejoin="round"/>
    <path d="M805.613 238.774c0 9.469 7.676 17.146 17.146 17.146m0 0c9.469 0 17.145-7.677 17.145-17.147" stroke="#1D2B36" stroke-width="4" stroke-linecap="round" stroke-linejoin="round"/>
    <path d="M625.97 337.377h113.47m-113.47 1.746h113.47m-113.47 1.747h113.47m-113.47 1.746h113.47m-113.47 1.747h113.47m-113.47 1.747h113.47m-113.47-10.48h113.47" opacity=".15" stroke="#0F0F0F" stroke-linecap="square" stroke-width=".25"/>
    <g stroke="#1D2B36">
      <path d="M611.94 331.06v19.14h127v-15.14a4 4 0 0 0-4-4h-123z" stroke-width="4"/>
      <path d="M623.97 337.377h113.47m-113.47 1.746h113.47m-113.47 1.747h113.47m-113.47 1.746h113.47m-113.47 1.747h113.47m-113.47 1.747h113.47m-113.47-10.48h113.47" stroke-linecap="round" stroke-width=".25"/>
      <path d="M611.94 311.501v19.141h115.573v-15.14a4 4 0 0 0-4-4H611.94zm0-.301h105.808v-15.14a4 4 0 0 0-4-4H615.94a4 4 0 0 0-4 4v15.14z" stroke-width="4"/>
      <path d="M623.408 298.377h92.242m-92.242 1.747h92.242m-92.242 1.746h92.242m-92.242 1.747h92.242m-92.242 1.746h92.242m-92.242 1.747h92.242m-92.242-10.479h92.242" stroke-linecap="round" stroke-width=".25"/>
    </g>
    <g transform="matrix(-1 0 0 1 211.472 209.979)">
      <use fill="#FDFDFD" xlink:href="#b"/>
      <path
        stroke="#1D2B36"
        stroke-width="4"
        d="M127.042 21.583h-.044V8.711a6.708 6.708 0 0 0-6.708-6.709h-17.417a6.708 6.708 0 0 0-6.708 6.709v12.872h-43.54V8.711a6.708 6.708 0 0 0-6.708-6.709H28.5a6.708 6.708 0 0 0-6.708 6.709v125.056a5.917 5.917 0 0 0 5.916 5.917h89.444v.014h28.121c5.891 0 10.667-4.775 10.667-10.666V82.563a5.958 5.958 0 0 1 5.958-5.958h10.657a5.285 5.285 0 1 0 0-10.57h-16.7c-5.454 0-9.875 4.42-9.875 9.874v46.138a8.333 8.333 0 0 1-8.333 8.333h-10.605V21.583z"/>
      <path d="M37.722 139.868h73.39v-3.064c0-20.266-16.43-36.695-36.695-36.695-20.266 0-36.695 16.429-36.695 36.695v3.064z" stroke="#1D2B36" stroke-width="4"/>
      <path d="M87.125 54.376c-.274 6.806 2.49 10.158 8.294 10.057 5.803-.101 8.418-3.547 7.845-10.338" stroke="#1D2B36" stroke-width="4" stroke-linecap="round" stroke-linejoin="round"/>
      <g transform="rotate(-162 36.27 28.873)">
        <use fill="#FDFDFD" xlink:href="#c"/>
        <ellipse stroke="#1D2B36" stroke-width="4" cx="7.756" cy="7.421" rx="9.534" ry="9.131"/>
        <ellipse fill="#1D2B36" cx="12.842" cy="7.79" rx="4.758" ry="4.725"/>
      </g>
      <path d="M62.422 22.575v17.703M74.34 22.575v17.703m11.92-17.703v17.703m63.816 7.685h-30.64m25.784 11.919h-25.785m19.789 11.92h-19.789M31.391 47.963H.751m30.64 11.919H6.22m25.171 11.92H11.215" stroke="#1D2B36" stroke-linecap="round" stroke-width="4"/>
      <g transform="translate(64.25 69.833)">
        <ellipse fill="#1D2B36" cx="9.771" cy="3.282" rx="9.018" ry="2.677"/>
        <path d="M10.198 5.958c0 3.946 3.29 7.144 7.348 7.144M9.344 5.958c0 3.946-3.29 7.144-7.349 7.144" stroke="#1D2B36" stroke-width="4" stroke-linecap="round" stroke-linejoin="round"/>
      </g>
      <circle stroke="#1D2B36" stroke-width="4" cx="109.153" cy="94.396" r="5.938"/>
      <circle stroke="#1D2B36" stroke-width="4" cx="37.604" cy="94.396" r="5.938"/>
    </g>
    <g transform="translate(358.328 10.904)">
      <g transform="translate(0 13)">
        <use fill="#FFE6C8" xlink:href="#d"/>
        <g transform="translate(0 169)">
          <mask id="f" fill="#fff">
            <use xlink:href="#e"/>
          </mask>
          <use fill="#3197D6" xlink:href="#e"/>
          <path
            d="M78.803 109.398l15.845-15.844a11.2 11.2 0 0 0 .086-15.845L78.889 93.554a11.131 11.131 0 0 0-3.327 7.96 11.2 11.2 0 0 0 3.241 7.884zm38.344-9.295l-15.845 15.845a11.2 11.2 0 0 0-.086 15.845l15.845-15.845a11.2 11.2 0 0 0 .086-15.845zm-.095-6.55a11.162 11.162 0 0 0 3.318-7.96c0-3.07-1.24-5.854-3.242-7.875l-38.24 38.24a11.187 11.187 0 0 0-.085 15.835l38.249-38.24z"
            fill="#FFF"
            fill-rule="nonzero"
            mask="url(#f)"/>
          <path d="M64.59 47.332v61.014a2 2 0 1 1-4 0V45.15a62.645 62.645 0 0 0 4 2.182zm67-.51v22.351a2 2 0 0 1-4 0V48.739a66.549 66.549 0 0 0 4-1.918z" fill="#FDFDFD" mask="url(#f)"/>
          <path
            d="M94.98 55c-11.225 0-22.705-3.553-31.045-8.048-12.669-6.827-22.3-17.01-22.3-28.875 0-9.37 5.597-15.003 14.251-18.353C41.55 2.571 31.634 8.243 31.634 19.308 31.634 39.02 63.104 55 94.979 55zM134.072-.276c14.337 2.847 24.253 8.519 24.253 19.584 0 19.71-31.465 35.689-63.337 35.692 26.84-.004 53.335-16.533 53.335-36.923 0-9.37-5.597-15.003-14.25-18.353z"
            fill-opacity=".16"
            fill="#000"
            mask="url(#f)"/>
          <path d="M154 85.965v68.23M37 85.965v68.23" stroke="#237AB3" stroke-width="4" stroke-linecap="round"/>
        </g>
        <path d="M87.964 93.771c0 2.983 3.627 5.401 8.102 5.401 4.474 0 8.101-2.418 8.101-5.4" stroke="#1D2B36" stroke-linecap="round" stroke-width="4"/>
        <g transform="translate(63 70)" fill="#1D2B36">
          <circle cx="6" cy="6" r="6"/>
          <circle cx="58" cy="6" r="6"/>
        </g>
        <path
          d="M54.63 63.159c3.915-5.51 14.648-8.598 23.893-6.328a2 2 0 0 0 .954-3.884c-10.737-2.637-23.165.94-28.107 7.894a2 2 0 0 0 3.26 2.318zM106.923 125c-4.74 4.252-14.024 4.483-20.497-.007-.75-.52-1.794-.17-2.33.784-.536.954-.361 2.15.39 2.67 7.517 5.215 18.266 4.947 24.25-.421.775-.695.997-1.936.496-2.772-.5-.835-1.535-.95-2.31-.254zm28.447-61.841c-3.915-5.51-14.648-8.598-23.893-6.328a2 2 0 0 1-.954-3.884c10.737-2.637 23.165.94 28.108 7.894a2 2 0 0 1-3.26 2.318z"
          fill="#1D2B36"
          fill-rule="nonzero"/>
      </g>
      <use fill="#B59750" xlink:href="#g"/>
    </g>
    <path d="M549.395 319.44h20.655c10.494 0 19-8.506 19-19v-.048l-.225-88.657c-.026-10.494 8.459-19.022 18.952-19.048h26.001c10.494 0 19-8.507 19-19v-42.533" stroke="#D6DDE3" stroke-width="4" stroke-linecap="round" stroke-dasharray="8,8,8"/>
    <g transform="translate(341.709 274.082)">
      <mask id="i" fill="#fff">
        <use xlink:href="#h"/>
      </mask>
      <use fill="#A5B2BD" xlink:href="#h"/>
      <path stroke="#1D2B36" stroke-width="4" d="M6.618-1.599H213.58a8 8 0 0 1 8 8v65.345a4 4 0 0 1-4 4H2.618a4 4 0 0 1-4-4V6.401a8 8 0 0 1 8-8z"/>
      <path d="M24.9 74.3c11.658-2.162 22.683-3.925 33.076-5.288 35.918-4.71 97.072 6.704 132.922-6.229 23.9-8.622 36.595-19.827 38.083-33.615L225.555 74.3H24.9z" fill="#B4C0CA" mask="url(#i)"/>
    </g>
    <path
      d="M458.857 315.479c-.01-1.988.888-3.489 2.709-4.594-1.019-1.457-2.557-2.26-4.589-2.416-1.923-.152-4.025 1.121-4.795 1.121-.812 0-2.676-1.067-4.139-1.067-3.023.049-6.235 2.41-6.235 7.216 0 1.42.26 2.888.78 4.4.693 1.987 3.196 6.863 5.808 6.782 1.365-.032 2.33-.97 4.106-.97 1.723 0 2.617.97 4.14.97 2.632-.038 4.897-4.47 5.558-6.463-3.533-1.663-3.343-4.876-3.343-4.979zm-3.066-8.896c1.479-1.755 1.343-3.353 1.3-3.928-1.306.076-2.817.889-3.679 1.891-.948 1.073-1.506 2.4-1.387 3.895 1.414.109 2.704-.617 3.766-1.858z"
      fill="#FDFDFD"
      fill-rule="nonzero"/>
    <path
      d="M805.624 267.913v-34.291m0-1.186v-34.291m-42.844 24.477c-5.136-2.962-8.593-8.51-8.593-14.863 0-9.47 17.146-30.243 17.146-30.243s17.145 20.774 17.145 30.243c0 9.47-7.676 17.145-17.145 17.145m85.708-22.017c5.136-2.962 8.593-8.51 8.593-14.863 0-9.47-17.146-30.243-17.146-30.243s-17.145 20.774-17.145 30.243c0 9.47 7.676 17.146 17.145 17.146"
      stroke="#1D2B36"
      stroke-linecap="round"
      stroke-linejoin="round"
      stroke-width="4"/>
    <path d="M624.08 317.531h102.232m-102.232 1.747h102.232m-102.232 1.746h102.232M624.08 322.77h102.232m-102.232 1.747h102.232m-102.232 1.747h102.232M624.08 315.785h102.232" stroke="#1D2B36" stroke-linecap="round" stroke-width=".25"/>
    <path d="M2.828 349.904h886.75" stroke="#1D2B36" stroke-width="4" stroke-linecap="round"/>
    <g transform="translate(560.5 2)">
      <path fill="#FDFDFD" d="M1.363.811h186.363V21.5H1.363z"/>
      <path d="M1.41 21.5h186.362v107.652a5 5 0 0 1-5 5H6.409a5 5 0 0 1-5-5V21.5z" fill="#3197D6"/>
      <rect stroke="#1D2B36" stroke-width="4" stroke-linecap="round" x=".181" width="188.819" height="134.152" rx="6"/>
      <g transform="translate(0 8)">
        <path d="M1.5 13.5h186.523" stroke="#1D2B36" stroke-width="4" stroke-linecap="square"/>
        <circle fill="#E52F28" cx="9.087" cy="3.14" r="2.5"/>
        <circle fill="#FFC646" cx="19.249" cy="3.14" r="2.5"/>
        <circle fill="#4BC27D" cx="29.249" cy="3.14" r="2.5"/>
      </g>
    </g>
    <path
      d="M624.49 70.926l-.05.016v7.237h-6.864v-7.237l-.049-.016a7.337 7.337 0 0 0-3.027 0l-.049.016v16.643l.049.017a7.932 7.932 0 0 0 1.506.162c.502 0 1.003-.049 1.521-.162l.049-.017v-6.75h6.865v6.75l.048.017c1.004.21 2.024.21 3.028 0l.048-.017V70.942l-.048-.016a7.936 7.936 0 0 0-3.028 0zm10.636 4.679c-3.594 0-5.731 2.267-5.731 6.071 0 1.975.453 3.546 1.36 4.63.987 1.182 2.46 1.781 4.42 1.781 3.318 0 5.018-1.975 5.229-3.934v-.048l-.049-.017c-.842-.275-1.619-.34-2.542-.21h-.032v.032c-.194 1.166-1.166 1.862-2.574 1.862-1.975 0-2.947-1.085-2.98-3.319h8.355v-.048c.243-2.202-.194-3.983-1.263-5.197-.987-1.036-2.428-1.603-4.193-1.603zm-.032 2.153c.825 0 1.521.26 1.99.761.487.518.73 1.295.68 2.218h-5.536c.049-1.894 1.1-2.979 2.866-2.979zm7.512-6.832l-.049.016v16.643l.049.017a7 7 0 0 0 1.424.162c.47 0 .956-.049 1.425-.162l.049-.017V70.942l-.049-.016c-.939-.21-1.894-.194-2.85 0zm11.09 4.679c-1.247 0-2.558.486-3.805 1.408l-.178-.874-.032-.016c-.713-.21-1.295-.21-1.992 0l-.032.016v16.563l.049.016c.469.097.939.162 1.424.162a6.01 6.01 0 0 0 1.425-.162l.049-.016v-5.537c.987.631 2.04.922 3.221.922 3.27 0 5.23-2.315 5.23-6.217-.017-3.966-1.96-6.265-5.36-6.265zm-3.141 3.286c.874-.599 1.684-.874 2.558-.874 1.991 0 3.076 1.376 3.076 3.902 0 2.477-1.068 3.788-3.108 3.788-.875 0-1.7-.275-2.526-.858v-5.958zm20.982-.259a30.725 30.725 0 0 0-1.392-.501c-2.267-.81-3.627-1.296-3.66-2.526-.015-.567.163-1.052.551-1.457.567-.583 1.522-.89 2.688-.89 1.15 0 2.04.307 2.574.874.453.485.648 1.15.6 1.975v.048l.048.017c.987.194 1.975.178 3.043-.065l.049-.016v-.049c.065-1.392-.356-2.607-1.214-3.513-1.069-1.133-2.785-1.732-4.954-1.749h-.065c-4.031 0-6.46 1.797-6.492 4.809-.017 2.995 2.736 3.999 4.387 4.581l.243.098c.55.194 1.068.372 1.522.534 2.234.777 3.578 1.247 3.626 2.428.017.616-.162 1.118-.534 1.506-.534.55-1.473.826-2.72.81-1.376 0-2.428-.357-3.027-1.004-.437-.486-.616-1.101-.55-1.846v-.048l-.05-.017a7.34 7.34 0 0 0-3.027.049l-.032.016v.049c-.081 1.343.324 2.542 1.198 3.464 1.165 1.247 3.076 1.895 5.537 1.878 2.412 0 6.379-.647 6.411-4.857-.049-2.8-2.445-3.707-4.76-4.598zm11.997-.615c1.991 0 2.46 1.295 2.558 2.056v.049h.048c.923.146 1.798.08 2.64-.162l.048-.016v-.049a4.435 4.435 0 0 0-1.409-2.979c-.939-.858-2.282-1.327-3.869-1.327-3.788 0-5.877 2.218-5.877 6.25 0 4.014 2.072 6.232 5.828 6.232 1.62 0 2.98-.47 3.935-1.36a4.414 4.414 0 0 0 1.376-2.833v-.049l-.049-.016c-.793-.275-1.667-.324-2.623-.162h-.032v.033c-.259 1.813-2.024 1.943-2.558 1.943-2.04 0-2.995-1.215-2.995-3.821-.016-2.575.939-3.789 2.979-3.789zM696 75.605c-3.724 0-5.78 2.218-5.78 6.25 0 4.014 2.056 6.232 5.78 6.232s5.78-2.218 5.78-6.233c0-4.031-2.056-6.25-5.78-6.25zm2.963 6.265c0 2.575-.972 3.821-2.963 3.821s-2.963-1.246-2.963-3.82c0-2.623.94-3.854 2.963-3.854 1.991 0 2.963 1.263 2.963 3.853zm12.142-5.73l-.048.015v8.29c-.94.81-1.797 1.165-2.785 1.165-1.392 0-1.991-.793-1.991-2.671v-6.8l-.049-.016a6.055 6.055 0 0 0-2.85 0l-.048.016v7.464c0 2.833 1.522 4.468 4.193 4.468 1.425 0 2.672-.55 4.015-1.78l.276 1.294.032.017c.68.178 1.392.178 2.072 0l.049-.017V76.14l-.049-.016a5.725 5.725 0 0 0-2.817.016zm11.835 9.227l-.016-.048-.049.016c-1.133.26-1.797.243-2.185-.065-.324-.259-.47-.712-.47-1.424v-5.31h2.3l.015-.05a5.812 5.812 0 0 0 0-2.363l-.016-.049h-2.299v-3.14l-.048-.017a6.436 6.436 0 0 0-2.834 0l-.048.017.016 3.14h-1.457l-.016.049a5.296 5.296 0 0 0 0 2.364l.016.048h1.457l.016 5.1c0 1.425.081 2.866 1.069 3.691.534.438 1.311.664 2.315.664.615 0 1.328-.08 2.153-.243h.033l.016-.032c.226-.76.243-1.554.032-2.348zm-134.247-3.804l7.869-7.868a5.54 5.54 0 0 0 1.65-3.95 5.587 5.587 0 0 0-1.602-3.919l-7.868 7.869a5.54 5.54 0 0 0-1.652 3.95 5.56 5.56 0 0 0 1.603 3.918zm19.056-4.598l-7.869 7.868a5.54 5.54 0 0 0-1.65 3.95c0 1.522.614 2.915 1.602 3.919l7.868-7.869a5.54 5.54 0 0 0 1.652-3.95 5.558 5.558 0 0 0-1.603-3.918zm-.049-3.254a5.54 5.54 0 0 0 1.652-3.95 5.587 5.587 0 0 0-1.603-3.919l-19.007 18.991a5.587 5.587 0 0 0-.049 7.885L607.7 73.71z"
      fill="#FFF"
      fill-rule="nonzero"/>
  </g>
</svg>