<?xml version="1.0" encoding="UTF-8"?>
<svg width="892px" height="327px" viewBox="0 0 892 327" version="1.1" xmlns="http://www.w3.org/2000/svg" xmlns:xlink="http://www.w3.org/1999/xlink">
    <!-- Generator: Sketch 52.5 (67469) - http://www.bohemiancoding.com/sketch -->
    <title>chapter-iv</title>
    <desc>Created with Sketch.</desc>
    <defs>
        <path d="M117.757496,145.628237 L117.757496,213 L72.2602198,213 L72.2602198,143.8001 C56.5413107,135.313048 45.6998539,118.951249 45.0211021,99.9999625 C45.0098372,99.999984 44.9985689,100 44.9872968,100 C38.5314738,100 33.2979953,94.7665214 33.2979953,88.3106985 L33.2979953,73.6893015 C33.2979953,67.2334786 38.5314738,62 44.9872968,62 L44.9872968,51.8907471 C44.9872968,23.2322788 68.2195756,5.26447522e-15 96.8780439,0 C125.536512,-5.26447522e-15 148.768791,23.2322788 148.768791,51.8907471 L148.768791,62.0140301 C154.95622,62.3151996 159.880312,67.4272089 159.880312,73.6893015 L159.880312,88.3106985 C159.880312,94.5840419 154.93851,99.7031656 148.735429,99.9875466 C148.008733,120.412266 135.477699,137.830886 117.757496,145.628237 Z" id="path-1"></path>
        <path d="M72.3225045,0.0708856067 L72.3225045,20.3473629 C72.3225045,32.8580689 82.4644356,43 94.9751416,43 C107.485848,43 117.627779,32.8580689 117.627779,20.3473629 L117.627779,0.0708856067 C134.712244,2.09629638 147.831295,7.66339117 147.831295,22.0769231 C147.831295,22.2993778 147.82817,22.520897 147.821954,22.7414746 C172.360586,34.2151531 189.361129,59.1219741 189.361129,87.9994847 L189.361129,157.418704 L0.589153781,157.418704 L0.589153781,87.9994847 C0.589153781,59.1219741 17.5896967,34.2151531 42.1283297,22.7414746 C42.1221134,22.520897 42.1189884,22.2993778 42.1189884,22.0769231 C42.1189884,7.66339117 55.2380392,2.09629638 72.3225045,0.0708856067 Z" id="path-3"></path>
        <path d="M47.69464,23.83904 C47.69464,36.8644 37.09854,47.46188 24.0718,47.46188 C11.04782,47.46188 0.45172,36.86394 0.45172,23.83904 C0.45172,10.81506 11.04828,0.2185 24.0718,0.2185 C37.09808,0.2185 47.69464,10.81506 47.69464,23.83904 Z" id="path-5"></path>
        <linearGradient x1="0.00126665777%" y1="49.9926211%" x2="100.00817%" y2="49.9926211%" id="linearGradient-7">
            <stop stop-color="#6176B9" offset="0.56%"></stop>
            <stop stop-color="#394A9F" offset="69.1%"></stop>
        </linearGradient>
        <linearGradient x1="0.00512491992%" y1="49.9965807%" x2="100.001281%" y2="49.9965807%" id="linearGradient-8">
            <stop stop-color="#6176B9" offset="0.56%"></stop>
            <stop stop-color="#394A9F" offset="69.1%"></stop>
        </linearGradient>
        <path d="M74.3718242,66.2483975 C72.448283,68.4209529 66.6543541,69.2570875 65.055813,68.4209529 C62.1020489,66.8759538 59.305947,65.219575 56.0581141,65.3331033 C52.8099588,65.219575 49.9949104,65.6027676 47.0061237,67.1675477 C44.6120744,68.4209529 41.0605925,68.4209529 38.5578776,66.2483975 C34.5178239,62.74131 35.1962915,57.1652432 37.7447052,53.1940487 C41.3707854,47.5425695 46.2899366,50.2761084 51.7901634,49.6313594 C53.2857402,49.4561452 54.7880886,49.0141722 56.0582647,48.2913314 C57.3284408,49.0141722 58.8304667,49.4561452 60.3260434,49.6313594 C65.8265928,50.2761084 70.2554628,47.5425695 73.8818655,53.1940487 C76.4299568,57.1652432 76.2953653,64.0758422 74.3718242,66.2483975 Z M108.572909,0.291331447 C105.354966,14.3661527 103.876408,28.7251068 101.54315,42.9624785 C101.05696,45.9303459 100.524666,48.8876409 99.9594872,51.8409713 C99.8408415,52.4611079 99.7238078,54.763906 99.1496012,55.0556379 C97.4102162,55.9397538 93.8653529,51.2380148 92.9174768,50.176481 C90.5368246,47.5105875 88.1764841,44.8205756 85.2770793,42.7285644 C79.4186244,38.5015918 72.5597412,36.0022133 65.4226208,35.4091684 C62.4364885,35.1607173 58.3986651,35.5938548 55.5843758,37.4017331 C52.7700864,35.5938548 48.732263,35.1607173 45.7458084,35.4091684 C38.608688,36.0022133 31.7498047,38.5015918 25.8913498,42.7285644 C22.991945,44.8205756 20.6319269,47.5105875 18.2509523,50.176481 C17.3030762,51.2380148 13.7582129,55.9397538 12.018828,55.0556379 C11.4446214,54.763906 11.3275877,52.4611079 11.208942,51.8409713 C10.6437628,48.8876409 10.111469,45.9303459 9.62527952,42.9624785 C7.29234356,28.7251068 5.81378576,14.3661527 2.595843,0.291331447 C1.65957351,0.291331447 0.838080863,19.0391479 0.733621044,20.7859046 C0.308366411,27.880307 -0.188140135,34.8167843 0.446356542,41.9174641 C1.54028298,54.1662358 2.680636,69.5252717 11.4507471,78.8788611 C19.375185,87.3308242 30.8808038,89.0977481 40.804601,94.4326586 C42.0822994,95.1195334 43.7771922,95.9676371 45.6049166,96.6624412 C47.5303303,98.2255026 51.348917,99.2913314 55.747836,99.2913314 C60.3621229,99.2913314 64.3377217,98.1187876 66.1593204,96.4291879 C67.7574911,95.7839419 69.2263767,95.0442052 70.3638281,94.4326586 C80.2868661,89.0965764 91.7932441,87.3308242 99.717682,78.8788611 C108.487793,69.5252717 109.628146,54.1662358 110.722395,41.9174641 C111.356569,34.8167843 110.860063,27.880307 110.43513,20.7859046 C110.330348,19.0391479 109.508856,0.291331447 108.572909,0.291331447 Z" id="path-9"></path>
        <filter x="-3.5%" y="-11.1%" width="107.1%" height="122.2%" filterUnits="objectBoundingBox" id="filter-11">
            <feOffset dx="0" dy="2" in="SourceAlpha" result="shadowOffsetOuter1"></feOffset>
            <feColorMatrix values="0 0 0 0 0   0 0 0 0 0   0 0 0 0 0  0 0 0 0.2 0" type="matrix" in="shadowOffsetOuter1" result="shadowMatrixOuter1"></feColorMatrix>
            <feMerge>
                <feMergeNode in="shadowMatrixOuter1"></feMergeNode>
                <feMergeNode in="SourceGraphic"></feMergeNode>
            </feMerge>
        </filter>
    </defs>
    <g id="me" stroke="none" stroke-width="1" fill="none" fill-rule="evenodd">
        <g id="Artboard-Copy-4" transform="translate(-96.000000, -2417.000000)">
            <g id="chapter-iv" transform="translate(97.399325, 2417.309539)">
                <g id="Group-33" transform="translate(28.000000, 25.000000)">
                    <g id="Group-32-Copy-22" transform="translate(0.240248, 0.000000)">
                        <g id="Group-9-Copy-27" transform="translate(0.759752, 0.000000)">
                            <g id="Group-20" transform="translate(59.703773, 0.404426)" stroke-width="4">
                                <g id="Group-9" transform="translate(0.796227, 0.595574)" stroke="#D6DDE3" stroke-linecap="round">
                                    <path d="M98.9331672,150.118947 L244.145448,150.118947" id="Line-Copy"></path>
                                    <path d="M0.796226522,112.214521 L386.796227,112.214521" id="Line-Copy-2"></path>
                                    <path d="M257.426612,76.2145213 L662.722838,76.2145213" id="Line-Copy-3"></path>
                                    <path d="M432.796227,1.5 L503.796227,1.5" id="Line-Copy-5"></path>
                                    <path d="M184.226529,1.5 L380.213708,1.5" id="Line-Copy-12"></path>
                                    <path d="M675.402048,76.2145213 L701.090982,76.2145213" id="Line-Copy-9"></path>
                                    <path d="M256.796227,150.118947 L261.356989,150.118947" id="Line-Copy-6"></path>
                                    <path d="M207.608068,187.714521 L352.820349,187.714521" id="Line-Copy-8"></path>
                                    <path d="M169.723341,187.714521 L197.200194,187.714521" id="Line-Copy-7"></path>
                                    <path d="M452.971565,165.907817 L598.183845,165.907817" id="Line-Copy-11"></path>
                                    <path d="M606.472335,165.907817 L611.033097,165.907817" id="Line-Copy-10"></path>
                                    <path d="M54.4266118,36.2145213 L459.722838,36.2145213" id="Line-Copy-4"></path>
                                </g>
                                <g id="Group-3" transform="translate(160.994767, 228.256381)" stroke="#212121">
                                    <g id="Group" transform="translate(0.282532, 27.895014)">
                                        <path d="M10.3946214,0.879711406 L35.087129,0.879711406 C41.714546,0.879711406 47.087129,6.25229441 47.087129,12.8797114 L47.087129,37.2127933 C47.087129,39.9742171 44.8485528,42.2127933 42.087129,42.2127933 L-1.60537863,42.2127933 L-1.60537863,12.8797114 C-1.60537863,6.25229441 3.76720437,0.879711406 10.3946214,0.879711406 Z" id="Rectangle-2" transform="translate(22.740875, 21.546252) rotate(-180.000000) translate(-22.740875, -21.546252) "></path>
                                        <path d="M40.990638,0.881395328 C52.7751185,0.881395328 61.4967092,-0.554570126 61.4967092,15.2375045 C61.4967092,31.0295791 55.7221225,31.9069617 45.1337358,31.9069617" id="Path-2"></path>
                                        <path d="M0.394621368,32.2511078 L47.1332297,32.2511078" id="Path-4"></path>
                                    </g>
                                    <g id="Group-42" transform="translate(8.606161, 0.241441)" stroke-linecap="round">
                                    <path 
                                        class="coffee-steam coffee-steam--left" 
                                        d="M2.51450184,22.8344705 C0.92336039,20.7831422 0.127789664,18.6690862 0.127789664,16.4923026 C0.127789664,13.227127 4.90121402,10.3755178 4.90121402,7.25406708 C4.90121402,5.17309992 3.84539148,3.11398637 1.73374641,1.07672641" 
                                        id="Path-13" 
                                        transform="translate(2.514502, 11.955598) scale(-1, 1) translate(-2.514502, -11.955598) ">
                                    </path>
                                    <path 
                                        class="coffee-steam coffee-steam--middle" 
                                        d="M27.3228282,22.8344705 C25.7316867,20.7831422 24.936116,18.6690862 24.936116,16.4923026 C24.936116,13.227127 29.7095404,10.3755178 29.7095404,7.25406708 C29.7095404,5.17309992 28.6537178,3.11398637 26.5420728,1.07672641" 
                                        id="Path-13-Copy-2" 
                                        transform="translate(27.322828, 11.955598) scale(-1, 1) translate(-27.322828, -11.955598) ">
                                    </path>
                                    <path 
                                        class="coffee-steam coffee-steam--right" 
                                        d="M14.918665,22.1220622 C13.3275236,20.0707338 12.5319528,17.9566779 12.5319528,15.7798942 C12.5319528,12.5147187 17.3053772,9.66310943 17.3053772,6.5416587 C17.3053772,4.46069155 16.2495547,2.40157799 14.1379096,0.364318037" 
                                        id="Path-13-Copy" 
                                        transform="translate(14.918665, 11.243190) scale(-1, 1) translate(-14.918665, -11.243190) ">
                                    </path>
                                </g>
                                </g>
                            </g>
                            <g id="Group-8" transform="translate(702.211710, 89.904426)">
                                <g id="Group-4">
                                    <path d="M30.0681745,81.4421498 C24.9328016,78.4803534 21.4758662,72.9331178 21.4758662,66.5789412 C21.4758662,57.1099722 38.621104,36.3360818 38.621104,36.3360818 C38.621104,36.3360818 55.7669874,57.1099722 55.7669874,66.5789412 C55.7669874,76.0485558 48.0907186,83.7248246 38.621104,83.7248246" id="Fill-59"></path>
                                    <path d="M81.4658004,45.1943069 C86.6011732,42.2325105 90.0581087,36.6852749 90.0581087,30.3310983 C90.0581087,20.8621293 72.9128708,0.0882389268 72.9128708,0.0882389268 C72.9128708,0.0882389268 55.7669874,20.8621293 55.7669874,30.3310983 C55.7669874,39.8007129 63.4432562,47.4769817 72.9128708,47.4769817" id="Fill-60"></path>
                                    <path d="M121.329076,127.008446 L24.4961497,127.008446 C24.4961497,136.952542 32.557168,145.014206 42.5012639,145.014206 L103.323961,145.014206 C113.268057,145.014206 121.329076,136.952542 121.329076,127.008446 L121.329076,127.008446 Z" id="Stroke-143" stroke="#212121" stroke-width="4" stroke-linecap="round" stroke-linejoin="round"></path>
                                    <polygon id="Path-5" stroke="#212121" stroke-width="4" points="42.8762554 145.014206 49.5659076 208.95639 102.005781 208.95639 108.514926 145.014206"></polygon>
                                    <path d="M72.9126126,127.008446 L72.9126126,92.7173247" id="Stroke-154" stroke="#1D2B36" stroke-width="4" stroke-linecap="round" stroke-linejoin="round"></path>
                                    <path d="M72.9126126,91.5314441 L72.9126126,57.2403229" id="Stroke-155" stroke="#1D2B36" stroke-width="4" stroke-linecap="round" stroke-linejoin="round"></path>
                                    <path d="M72.9126126,118.435633 C72.9126126,108.966664 65.2363438,101.28975 55.7667292,101.28975" id="Stroke-156" stroke="#212121" stroke-width="4" stroke-linecap="round" stroke-linejoin="round"></path>
                                    <path d="M90.0582378,80.4479474 C80.5886232,80.4479474 72.9123544,88.1242162 72.9123544,97.5938308" id="Stroke-157" stroke="#212121" stroke-width="4" stroke-linecap="round" stroke-linejoin="round"></path>
                                    <path d="M38.6213622,84.1444475 C38.6213622,93.6134166 46.2976311,101.290331 55.7672457,101.290331" id="Stroke-158" stroke="#212121" stroke-width="4" stroke-linecap="round" stroke-linejoin="round"></path>
                                    <path d="M90.0582378,80.3237431 C99.5272068,80.3237431 107.203476,72.6474743 107.203476,63.1778597" id="Stroke-160" stroke="#212121" stroke-width="4" stroke-linecap="round" stroke-linejoin="round"></path>
                                    <path d="M38.6213622,76.8187004 L38.6213622,60.0304532" id="Stroke-163" stroke="#212121" stroke-width="4" stroke-linecap="round" stroke-linejoin="round"></path>
                                    <path d="M38.6213622,73.9610962 L44.1873188,68.3951396" id="Stroke-164" stroke="#212121" stroke-width="4" stroke-linecap="round" stroke-linejoin="round"></path>
                                    <path d="M115.776353,57.3591046 L115.776353,40.5708575" id="Stroke-163-Copy" stroke="#212121" stroke-width="4" stroke-linecap="round" stroke-linejoin="round"></path>
                                    <path d="M115.776353,54.5015004 L121.342309,48.9355438" id="Stroke-164-Copy" stroke="#212121" stroke-width="4" stroke-linecap="round" stroke-linejoin="round"></path>
                                    <path d="M81.4658004,45.1943069 C86.6011732,42.2325105 90.0581087,36.6852749 90.0581087,30.3310983 C90.0581087,20.8621293 72.9128708,0.0882389268 72.9128708,0.0882389268 C72.9128708,0.0882389268 55.7669874,20.8621293 55.7669874,30.3310983 C55.7669874,39.8007129 63.4432562,47.4769817 72.9128708,47.4769817" id="Stroke-165" stroke="#212121" stroke-width="4" stroke-linecap="round" stroke-linejoin="round"></path>
                                    <path d="M72.9126126,47.4767235 L72.9126126,57.2400646" id="Stroke-166" stroke="#212121" stroke-width="4" stroke-linecap="round" stroke-linejoin="round"></path>
                                    <path d="M72.9126126,40.5708575 L72.9126126,23.7826103" id="Stroke-167" stroke="#212121" stroke-width="4" stroke-linecap="round" stroke-linejoin="round"></path>
                                    <path d="M72.9126126,37.7132533 L78.4785692,32.1472967" id="Stroke-168" stroke="#212121" stroke-width="4" stroke-linecap="round" stroke-linejoin="round"></path>
                                    <path d="M72.9126126,32.9505581 L67.346656,27.3846015" id="Stroke-169" stroke="#212121" stroke-width="4" stroke-linecap="round" stroke-linejoin="round"></path>
                                    <path d="M72.9126126,76.2264838 C72.9126126,66.7575147 65.2363438,59.0806003 55.7667292,59.0806003" id="Stroke-174" stroke="#212121" stroke-width="4" stroke-linecap="round" stroke-linejoin="round"></path>
                                    <path d="M7.35026628,38.355617 C7.35026628,47.8252316 15.0265351,55.5015004 24.4961497,55.5015004" id="Stroke-159" stroke="#212121" stroke-width="4" stroke-linecap="round" stroke-linejoin="round"></path>
                                    <path d="M13.7405293,31.414181 C13.7405293,27.8849436 10.8794391,25.0238534 7.35020173,25.0238534 C3.82096436,25.0238534 0.959874175,27.8849436 0.959874175,31.414181 C0.959874175,34.9434184 3.82096436,37.8045085 7.35020173,37.8045085 C10.8794391,37.8045085 13.7405293,34.9434184 13.7405293,31.414181 L13.7405293,31.414181 Z" id="Stroke-173" stroke="#212121" stroke-width="4" stroke-linecap="round" stroke-linejoin="round"></path>
                                    <path d="M113.582441,90.3903276 C113.582441,86.8610902 110.721351,84 107.192114,84 C103.662877,84 100.801786,86.8610902 100.801786,90.3903276 C100.801786,93.9195649 103.662877,96.7806551 107.192114,96.7806551 C110.721351,96.7806551 113.582441,93.9195649 113.582441,90.3903276 L113.582441,90.3903276 Z" id="Stroke-173-Copy" stroke="#212121" stroke-width="4" stroke-linecap="round" stroke-linejoin="round"></path>
                                    <path d="M72.9012509,97.869329 C72.9012509,107.338298 80.5775197,115.015212 90.0471343,115.015212" id="Stroke-88" stroke="#212121" stroke-width="4" stroke-linecap="round" stroke-linejoin="round"></path>
                                    <path d="M90.0468761,115.01489 C99.5158451,115.01489 107.192114,107.338621 107.192114,97.8690062" id="Stroke-95" stroke="#212121" stroke-width="4" stroke-linecap="round" stroke-linejoin="round"></path>
                                </g>
                            </g>
                            <g id="Group-19" transform="translate(570.605821, 237.000000)">
                                <g id="Group-10-Copy" opacity="0.15" transform="translate(15.000000, 45.000000)" stroke="#0F0F0F" stroke-linecap="square" stroke-width="0.25">
                                    <g id="Group-7" transform="translate(0.192964, 0.517145)">
                                        <g id="Group-5" transform="translate(0.541524, 0.112676)">
                                            <path d="M1.13017368,2.74709494 L114.5986,2.74709494" id="Line-2"></path>
                                            <path d="M1.13017368,4.49357382 L114.5986,4.49357382" id="Line-2-Copy"></path>
                                            <path d="M1.13017368,6.24005269 L114.5986,6.24005269" id="Line-2-Copy-2"></path>
                                            <path d="M1.13017368,7.98653156 L114.5986,7.98653156" id="Line-2-Copy-3"></path>
                                            <path d="M1.13017368,9.73301044 L114.5986,9.73301044" id="Line-2-Copy-4"></path>
                                            <path d="M1.13017368,11.4794893 L114.5986,11.4794893" id="Line-2-Copy-5"></path>
                                            <path d="M1.13017368,1.00061607 L114.5986,1.00061607" id="Line-2-Copy-6"></path>
                                        </g>
                                    </g>
                                </g>
                                <g id="Group-10" stroke="#212121">
                                    <g id="Group-7" transform="translate(0.192964, 39.517145)">
                                        <path d="M2.64085699,2.54225352 L2.64085699,21.6830986 L129.640857,21.6830986 L129.640857,6.54225352 C129.640857,4.33311452 127.849996,2.54225352 125.640857,2.54225352 L2.64085699,2.54225352 Z" id="Rectangle-3" stroke-width="4"></path>
                                        <g id="Group-5" transform="translate(13.541524, 6.112676)" stroke-linecap="round" stroke-width="0.25">
                                            <path d="M1.13017368,2.74709494 L114.5986,2.74709494" id="Line-2"></path>
                                            <path d="M1.13017368,4.49357382 L114.5986,4.49357382" id="Line-2-Copy"></path>
                                            <path d="M1.13017368,6.24005269 L114.5986,6.24005269" id="Line-2-Copy-2"></path>
                                            <path d="M1.13017368,7.98653156 L114.5986,7.98653156" id="Line-2-Copy-3"></path>
                                            <path d="M1.13017368,9.73301044 L114.5986,9.73301044" id="Line-2-Copy-4"></path>
                                            <path d="M1.13017368,11.4794893 L114.5986,11.4794893" id="Line-2-Copy-5"></path>
                                            <path d="M1.13017368,1.00061607 L114.5986,1.00061607" id="Line-2-Copy-6"></path>
                                        </g>
                                    </g>
                                    <g id="Group-6" transform="translate(0.192964, 20.179117)" stroke-width="4">
                                        <path d="M2.64085699,2.3220962 L2.64085699,21.4629413 L118.21382,21.4629413 L118.21382,6.3220962 C118.21382,4.1129572 116.422959,2.3220962 114.21382,2.3220962 L2.64085699,2.3220962 Z" id="Rectangle-3-Copy"></path>
                                    </g>
                                    <g id="Group-5-Copy" transform="translate(13.955050, 25.784092)" stroke-linecap="round" stroke-width="0.25">
                                        <path d="M1.0182696,2.74709494 L103.251626,2.74709494" id="Line-2"></path>
                                        <path d="M1.0182696,4.49357382 L103.251626,4.49357382" id="Line-2-Copy"></path>
                                        <path d="M1.0182696,6.24005269 L103.251626,6.24005269" id="Line-2-Copy-2"></path>
                                        <path d="M1.0182696,7.98653156 L103.251626,7.98653156" id="Line-2-Copy-3"></path>
                                        <path d="M1.0182696,9.73301044 L103.251626,9.73301044" id="Line-2-Copy-4"></path>
                                        <path d="M1.0182696,11.4794893 L103.251626,11.4794893" id="Line-2-Copy-5"></path>
                                        <path d="M1.0182696,1.00061607 L103.251626,1.00061607" id="Line-2-Copy-6"></path>
                                    </g>
                                    <g id="Group-6-Copy" transform="translate(0.192964, 0.081654)">
                                        <path d="M2.64085699,22.1191022 L108.448914,22.1191022 L108.448914,6.97825717 C108.448914,4.76911817 106.658053,2.97825717 104.448914,2.97825717 L6.64085699,2.97825717 C4.43171799,2.97825717 2.64085699,4.76911817 2.64085699,6.97825717 L2.64085699,22.1191022 Z" id="Rectangle-3-Copy" stroke-width="4"></path>
                                        <g id="Group-5-Copy" transform="translate(13.190345, 6.548680)" stroke-linecap="round" stroke-width="0.25">
                                            <path d="M0.918755179,2.74709494 L93.1609533,2.74709494" id="Line-2"></path>
                                            <path d="M0.918755179,4.49357382 L93.1609533,4.49357382" id="Line-2-Copy"></path>
                                            <path d="M0.918755179,6.24005269 L93.1609533,6.24005269" id="Line-2-Copy-2"></path>
                                            <path d="M0.918755179,7.98653156 L93.1609533,7.98653156" id="Line-2-Copy-3"></path>
                                            <path d="M0.918755179,9.73301044 L93.1609533,9.73301044" id="Line-2-Copy-4"></path>
                                            <path d="M0.918755179,11.4794893 L93.1609533,11.4794893" id="Line-2-Copy-5"></path>
                                            <path d="M0.918755179,1.00061607 L93.1609533,1.00061607" id="Line-2-Copy-6"></path>
                                        </g>
                                    </g>
                                </g>
                            </g>
                            <g id="Group-21" transform="translate(0.252768, 158.693295)">
                                <g id="Group-15" transform="translate(90.719424, 71.785751) scale(-1, 1) translate(-90.719424, -71.785751) translate(0.719424, 0.285751)">
                                    <path d="M127.041667,21.5833333 L126.998464,21.5833333 L126.998464,8.7105625 C126.998464,5.0056523 123.995041,2.00222917 120.290131,2.00222917 L102.873464,2.00222917 C99.1685541,2.00222917 96.165131,5.0056523 96.165131,8.7105625 L96.165131,21.5833333 L52.625,21.5833333 L52.625,8.7105625 C52.625,5.0056523 49.6215769,2.00222917 45.9166667,2.00222917 L28.5,2.00222917 C24.7950898,2.00222917 21.7916667,5.0056523 21.7916667,8.7105625 L21.7916667,133.767322 C21.7916667,137.035007 24.4406486,139.683989 27.7083333,139.683989 L117.152151,139.683989 L117.152151,139.698247 L145.273286,139.698247 C151.164324,139.698247 155.939953,134.922617 155.939953,129.03158 L155.939953,82.5632655 C155.939953,79.2725689 158.60759,76.6049322 161.898286,76.6049322 L172.555399,76.6049322 C175.47438,76.6049322 177.840681,74.2386307 177.840681,71.3196499 C177.840681,68.4006691 175.47438,66.0343676 172.555399,66.0343676 L155.855031,66.0343676 C150.401219,66.0343676 145.980031,70.4555557 145.980031,75.9093676 L145.980031,122.046626 C145.980031,126.648999 142.249071,130.379959 137.646698,130.379959 L127.041667,130.379959 L127.041667,21.5833333 Z" id="Combined-Shape" stroke="#212121" stroke-width="4"></path>
                                    <g id="Rectangle-7" transform="translate(34.791667, 97.583333)" stroke="#212121" stroke-width="4">
                                        <path d="M2.93012993,42.2848553 L76.3198701,42.2848553 L76.3198701,39.2204779 C76.3198701,18.9544608 59.8910171,2.52560787 39.625,2.52560787 C19.3589829,2.52560787 2.93012993,18.9544608 2.93012993,39.2204779 L2.93012993,42.2848553 Z"></path>
                                    </g>
                                    <g id="Group-17" transform="translate(42.416667, 28.458333)" stroke="#212121" stroke-linecap="round" stroke-linejoin="round" stroke-width="4">
                                        <g id="Group-23" transform="translate(33.585429, 29.677954) rotate(209.000000) translate(-33.585429, -29.677954) translate(6.085429, 11.177954)">
                                            <path d="M2.45767483,22.5775102 C2.06443087,29.3773313 4.76999294,32.7772418 10.5743611,32.7772418 C16.3787292,32.7772418 19.0537097,29.3773313 18.5993026,22.5775102" id="Path-6-Copy-5" transform="translate(10.534519, 27.677376) rotate(-210.000000) translate(-10.534519, -27.677376) "></path>
                                            <path d="M36.5678434,3.66993502 C36.1745994,10.4697561 38.8801615,13.8696666 44.6845296,13.8696666 C50.4888977,13.8696666 53.1638783,10.4697561 52.7094712,3.66993502" id="Path-6-Copy-6" transform="translate(44.644687, 8.769801) rotate(-210.000000) translate(-44.644687, -8.769801) "></path>
                                        </g>
                                    </g>
                                    <g id="Group-18" transform="translate(61.354167, 21.958333)" stroke="#212121" stroke-linecap="round" stroke-width="4">
                                        <path d="M1.06745709,0.616504741 L1.06745709,18.319193" id="Path-6"></path>
                                        <path d="M12.9866089,0.616504741 L12.9866089,18.319193" id="Path-6-Copy-3"></path>
                                        <path d="M24.9057608,0.616504741 L24.9057608,18.319193" id="Path-6-Copy-4"></path>
                                    </g>
                                    <g id="Group-18-Copy" transform="translate(134.351680, 60.395833) rotate(-270.000000) translate(-134.351680, -60.395833) translate(120.851680, 44.395833)" stroke="#212121" stroke-linecap="round" stroke-width="4">
                                        <path d="M1.06745709,0.275416009 L1.06745709,30.9162704" id="Path-6"></path>
                                        <path d="M12.9866089,5.13225547 L12.9866089,30.9162704" id="Path-6-Copy-3"></path>
                                        <path d="M24.9057608,11.1279524 L24.9057608,30.9162704" id="Path-6-Copy-4"></path>
                                    </g>
                                    <g id="Group-18-Copy-2" transform="translate(16.166667, 60.395833) rotate(-270.000000) translate(-16.166667, -60.395833) translate(2.666667, 44.895833)" stroke="#212121" stroke-linecap="round" stroke-width="4">
                                        <path d="M1.06745709,0.275416009 L1.06745709,30.9162704" id="Path-6"></path>
                                        <path d="M12.9866089,0.275416009 L12.9866089,25.4472422" id="Path-6-Copy-3"></path>
                                        <path d="M24.9057608,0.275416009 L24.9057608,20.4514626" id="Path-6-Copy-4"></path>
                                    </g>
                                    <g id="Group-16" transform="translate(57.250000, 69.833333)">
                                        <ellipse id="Oval-4" fill="#212121" cx="16.7708333" cy="3.28166033" rx="9.01786787" ry="2.676673"></ellipse>
                                        <path d="M0.852796481,5.1876199 C0.852796481,9.13302367 4.68020602,12.331738 8.20103223,12.331738 C11.7218584,12.331738 14.5678682,10.4257014 16.4007295,7.24766475" id="Stroke-158" stroke="#212121" stroke-width="4" stroke-linecap="round" stroke-linejoin="round"></path>
                                        <path d="M16.9646173,5.1876199 C16.9646173,9.13302367 20.2544468,12.331738 24.3128531,12.331738 C28.3712593,12.331738 30.6817606,10.1997229 32.2221924,7.32822508" id="Stroke-158-Copy" stroke="#212121" stroke-width="4" stroke-linecap="round" stroke-linejoin="round" transform="translate(24.593405, 8.759679) scale(-1, 1) translate(-24.593405, -8.759679) "></path>
                                    </g>
                                    <circle id="Oval-5" stroke="#212121" stroke-width="4" cx="109.152862" cy="94.3958333" r="5.9375"></circle>
                                    <circle id="Oval-5-Copy" stroke="#212121" stroke-width="4" cx="37.6041667" cy="94.3958333" r="5.9375"></circle>
                                </g>
                            </g>
                        </g>
                    </g>
                </g>
                <g id="Group-13" transform="translate(356.500000, 0.000000)">
                    <g id="Group-Copy-3" transform="translate(0.327523, 17.904426)">
                        <g id="Body">
                            <mask id="mask-2" fill="white">
                                <use xlink:href="#path-1"></use>
                            </mask>
                            <use fill="#FFE3C3" xlink:href="#path-1"></use>
                            <g id="Group-2" transform="translate(0.000000, 150.000000)">
                                <mask id="mask-4" fill="white">
                                    <use xlink:href="#path-3"></use>
                                </mask>
                                <use id="Hoodie" fill="#4C4C4C" xlink:href="#path-3"></use>
                                <g id="duckduckgo" mask="url(#mask-4)">
                                    <g transform="translate(70.574164, 73.751729)">
                                        <circle id="Oval" stroke="none" fill="#FFFFFF" fill-rule="evenodd" cx="27.75272" cy="27.8139" r="26.8119222"></circle>
                                        <circle id="Oval" stroke="none" fill="#DE5833" fill-rule="evenodd" cx="27.75272" cy="27.81436" r="23.529"></circle>
                                        <g id="Group" stroke="none" stroke-width="1" fill="none" fill-rule="evenodd" transform="translate(3.680000, 3.910000)">
                                            <g>
                                                <g id="Clipped">
                                                    <mask id="mask-6" fill="white">
                                                        <use xlink:href="#path-5"></use>
                                                    </mask>
                                                    <g id="SVGID_1_"></g>
                                                    <g id="Group" mask="url(#mask-6)">
                                                        <g transform="translate(10.580000, 5.060000)" id="Path">
                                                            <path d="M23.13478,53.89268 C22.30632,50.08158 17.49426,41.45474 15.66898,37.80694 C13.84508,34.15822 12.0175,29.01634 12.84964,25.69882 C13.00052,25.0953 11.26908,20.49714 11.7668,20.17192 C15.63816,17.64698 16.65752,20.44746 18.20772,19.3154 C19.00536,18.72982 20.08912,19.79702 20.36466,18.8278 C21.35734,15.34698 18.9819,9.2782 16.33,6.62584 C15.4629,5.7615 14.13534,5.21824 12.6362,4.92982 C12.05936,4.14184 11.1297,3.38422 9.81272,2.68548 C8.34624,1.90486 5.15706,0.874 3.5029,0.59938 C2.35658,0.41078 2.0976,0.7314 1.60816,0.81144 C2.06448,0.85192 4.2297,1.92188 4.65106,1.98398 C4.2297,2.26872 2.99184,1.9711 2.20202,2.3253 C1.80412,2.50562 1.5065,3.18872 1.50926,3.5121 C3.76786,3.28394 7.2933,3.50474 9.37526,4.4321 C7.71834,4.6207 5.19846,4.83092 4.1147,5.4004 C0.96462,7.06008 -0.42688,10.9365 0.4025,15.58158 C1.23234,20.21608 4.88198,37.13258 6.04302,42.78092 C7.20452,48.42236 3.55534,52.06786 1.23372,53.06376 L3.7214,53.23074 L2.89294,55.05556 C5.87558,55.3863 9.19264,54.39362 9.19264,54.39362 C8.53116,56.21752 4.05168,56.88314 4.05168,56.88314 C4.05168,56.88314 6.20954,57.54462 9.69036,56.21752 C13.17624,54.89134 15.33134,54.06104 15.33134,54.06104 L16.98918,58.37262 L20.14202,55.223 L21.46912,58.54006 C21.47556,58.5396 23.96416,57.70838 23.13478,53.89268 Z" fill="#D5D7D8"></path>
                                                            <path d="M24.13666,53.11942 C23.31096,49.30648 18.4989,40.67964 16.67178,37.02908 C14.84558,33.37852 13.02168,28.23756 13.85198,24.92142 C14.00608,24.31928 14.00884,21.85414 14.50932,21.52708 C18.37838,18.99984 18.10284,21.44244 19.65534,20.31038 C20.45574,19.72572 21.09652,19.01962 21.37482,18.05086 C22.37026,14.56774 19.99206,8.50126 17.33924,5.84752 C16.4749,4.98318 15.14596,4.439 13.64866,4.15196 C13.07274,3.36168 12.144,2.6059 10.82886,1.90624 C8.349,0.58972 5.27482,0.06348 2.4265,0.58006 C2.8819,0.62146 3.92426,1.56354 4.34378,1.62564 C3.70852,2.0562 2.0194,2.00054 2.03044,2.9578 C4.2918,2.73148 6.76982,3.0889 8.85408,4.01442 C7.19716,4.20302 5.65478,4.61242 4.57102,5.1842 C1.41818,6.84158 0.58926,10.15772 1.41818,14.80464 C2.2494,19.44926 5.8995,36.36622 7.05594,42.0026 C8.21836,47.6422 4.57102,51.28908 2.2494,52.28544 L4.73708,52.45058 L3.90862,54.27816 C6.89126,54.60982 10.20832,53.61622 10.20832,53.61622 C9.54684,55.44426 5.06736,56.10298 5.06736,56.10298 C5.06736,56.10298 7.22292,56.76492 10.70604,55.43828 C14.1933,54.1121 16.34978,53.2818 16.34978,53.2818 L18.00762,57.59338 L21.16,54.441 L22.48986,57.7599 C22.4825,57.76312 24.96834,56.93328 24.13666,53.11942 Z" fill="#FFFFFF"></path>
                                                            <path d="M5.06966,15.03786 C5.06966,14.07508 5.84844,13.29584 6.8126,13.29584 C7.774,13.29584 8.5537,14.07508 8.5537,15.03786 C8.5537,16.0011 7.774,16.77942 6.8126,16.77942 C5.84844,16.77988 5.06966,16.0011 5.06966,15.03786 Z" fill="#2D4F8E"></path>
                                                            <path d="M7.13322,14.45734 C7.13322,14.20664 7.33608,14.00516 7.58402,14.00516 C7.8338,14.00516 8.03666,14.20664 8.03666,14.45734 C8.03666,14.70712 7.8338,14.90998 7.58402,14.90998 C7.33654,14.91044 7.13322,14.70712 7.13322,14.45734 Z" fill="#FFFFFF"></path>
                                                            <path d="M16.95882,14.0047 C16.95882,13.17992 17.63088,12.5097 18.45474,12.5097 C19.2832,12.5097 19.9525,13.17992 19.9525,14.0047 C19.9525,14.83316 19.2832,15.50338 18.45474,15.50338 C17.63088,15.50338 16.95882,14.83316 16.95882,14.0047 Z" fill="#2D4F8E"></path>
                                                            <path d="M18.7335,13.50698 C18.7335,13.294 18.90784,13.1192 19.11898,13.1192 C19.33932,13.1192 19.50814,13.294 19.50814,13.50698 C19.50814,13.72272 19.33932,13.8943 19.11898,13.8943 C18.90784,13.8943 18.7335,13.72272 18.7335,13.50698 Z" fill="#FFFFFF"></path>
                                                            <path d="M7.30756,9.99028 C7.30756,9.99028 5.99472,9.39642 4.71822,10.19866 C3.44402,10.99998 3.49094,11.81924 3.49094,11.81924 C3.49094,11.81924 2.81336,10.30906 4.61932,9.56892 C6.42712,8.82878 7.30756,9.99028 7.30756,9.99028 Z" fill="url(#linearGradient-7)"></path>
                                                            <path d="M19.35588,9.87068 C19.35588,9.87068 18.41242,9.33156 17.6801,9.34076 C16.17544,9.36054 15.76558,10.02524 15.76558,10.02524 C15.76558,10.02524 16.01812,8.44054 17.9423,8.7584 C18.98558,8.93182 19.35588,9.87068 19.35588,9.87068 Z" fill="url(#linearGradient-8)"></path>
                                                        </g>
                                                    </g>
                                                </g>
                                                <path d="M22.724,26.8157 C22.89834,25.76184 25.62154,23.7682 27.54986,23.64768 C29.48232,23.52578 30.08446,23.55338 31.69446,23.1679 C33.30906,22.78242 37.46056,21.74742 38.60964,21.21658 C39.76148,20.68482 44.63748,21.4797 41.1999,23.39606 C39.71318,24.2282 35.70612,25.75632 32.84078,26.61008 C29.98004,27.46614 28.24538,25.79312 27.29318,27.19934 C26.53602,28.31806 27.13954,29.84986 30.55872,30.16772 C35.17574,30.59552 39.60232,28.08806 40.08946,29.42022 C40.5789,30.75192 36.12196,32.4139 33.40796,32.4668 C30.69718,32.51786 25.2333,30.67464 24.41266,30.10378 C23.5911,29.5343 22.49676,28.20398 22.724,26.8157 Z" id="Path" fill="#FDD20A"></path>
                                            </g>
                                            <g transform="translate(17.940000, 37.260000)" id="Path">
                                                <path d="M6.87378,3.49232 C6.87378,3.49232 0.38686,0.03266 0.28106,1.43612 C0.17158,2.84188 0.28106,8.57026 1.03684,9.00358 C1.794,9.43506 7.199,6.1939 7.199,6.1939 L6.87378,3.49232 Z" fill="#65BC46"></path>
                                                <path d="M9.35916,3.27428 C9.35916,3.27428 13.79126,-0.07682 14.766,0.13938 C15.73706,0.35972 15.95372,7.27398 15.08846,7.60472 C14.2232,7.92212 9.15078,5.85074 9.15078,5.85074 L9.35916,3.27428 Z" fill="#65BC46"></path>
                                                <path d="M5.30334,3.85894 C5.30334,6.12766 4.9772,7.10148 5.95194,7.31768 C6.92208,7.53526 8.75978,7.31768 9.41022,6.8862 C10.05882,6.45472 9.51694,3.53786 9.3035,2.9923 C9.08408,2.45226 5.30334,2.88558 5.30334,3.85894 Z" fill="#43A244"></path>
                                                <path d="M5.71596,3.35432 C5.71596,5.6235 5.39074,6.59732 6.3641,6.81306 C7.33286,7.0334 9.17194,6.81306 9.82284,6.38158 C10.47144,5.94872 9.9291,3.03324 9.71428,2.48722 C9.4967,1.94764 5.71596,2.3828 5.71596,3.35432 Z" fill="#65BC46"></path>
                                            </g>
                                        </g>
                                        <circle id="Oval" stroke="#DE5833" stroke-width="2.3" fill="none" cx="27.75226" cy="27.8139" r="26.45"></circle>
                                    </g>
                                </g>
                                <path d="M64.5891538,47.3319226 L64.5891538,108.345959 C64.5891538,109.450529 63.6937233,110.345959 62.5891538,110.345959 C61.4845843,110.345959 60.5891538,109.450529 60.5891538,108.345959 L60.5891538,45.1502625 C61.8768657,45.9156105 63.2121265,46.6437196 64.5891413,47.3319164 Z M131.589154,46.8212989 L131.589154,72.1729796 C131.589154,73.2775491 130.693723,74.1729796 129.589154,74.1729796 C128.484584,74.1729796 127.589154,73.2775491 127.589154,72.1729796 L127.589154,48.7390531 C128.958518,48.1371784 130.293541,47.4971468 131.589173,46.8212889 Z" id="Straps" fill="#FDFDFD" mask="url(#mask-4)"></path>
                                <path d="M94.9794289,55 C83.7552731,54.9999467 72.274849,51.4467369 63.9350088,46.9524256 C51.2660367,40.1251601 41.6355681,29.9419641 41.6355681,18.0769231 C41.6355681,8.70605458 47.2320129,3.07445977 55.8861936,-0.275646301 C41.5491788,2.57117818 31.6335469,8.24288473 31.6335469,19.3076923 C31.6335469,39.0199574 63.1041981,54.9999155 94.9794289,55 Z M134.073169,-0.275646301 C148.410184,2.57117818 158.325816,8.24288473 158.325816,19.3076923 C158.325816,39.0179985 126.861419,54.9967395 94.989437,54.9999995 C121.828475,54.9959946 148.323795,38.466505 148.323795,18.0769231 C148.323795,8.70605458 142.72735,3.07445977 134.073169,-0.275646301 Z" id="Shadow" fill-opacity="0.16" fill="#000000" mask="url(#mask-4)"></path>
                                <path d="M154,85.9649803 L154,154.195273" id="Path-8" stroke="#3F3F3F" stroke-width="4" stroke-linecap="round"></path>
                                <path d="M37,85.9649803 L37,154.195273" id="Path-8-Copy" stroke="#3F3F3F" stroke-width="4" stroke-linecap="round"></path>
                            </g>
                            <g id="Face" transform="translate(54.000000, 44.000000)">
                                <g id="ðŸ‘ƒðŸ½-Nose" transform="translate(33.000000, 41.000000)" stroke="#AF8556" stroke-linecap="round" stroke-width="4">
                                    <path d="M0.964159294,0.771101828 C0.964159294,3.75398752 4.59131924,6.17209416 9.06564778,6.17209416 C13.5399763,6.17209416 17.1671363,3.75398752 17.1671363,0.771101828" id="Nose"></path>
                                </g>
                                <g id="ðŸ‘-Eyes" transform="translate(9.000000, 18.000000)" fill="#212121">
                                    <circle id="Eye" cx="6" cy="6" r="6"></circle>
                                    <circle id="Eye" cx="58" cy="6" r="6"></circle>
                                </g>
                                <g id="I-Browse" fill-rule="nonzero">
                                    <path d="M3.63024536,11.1585767 C7.54515501,5.64986673 18.2779197,2.56083721 27.5230268,4.83118046 C28.5957248,5.0946055 29.6788665,4.43856013 29.9422916,3.36586212 C30.2057166,2.2931641 29.5496712,1.21002236 28.4769732,0.94659732 C17.7403633,-1.69001789 5.31209962,1.88699832 0.369754639,8.84142326 C-0.270109626,9.74178291 -0.0589363917,10.9903811 0.84142326,11.6302454 C1.74178291,12.2701096 2.9903811,12.0589364 3.63024536,11.1585767 Z" id="Eyebrow" fill="#BFA465"></path>
                                    <path d="M33.2402823,77.1211878 C36.4346195,71.6124778 45.1919276,68.5234483 52.735394,70.7937915 C53.6106528,71.0572166 54.4944331,70.4011712 54.7093725,69.3284732 C54.924312,68.2557752 54.3890173,67.1726334 53.5137585,66.9092084 C44.753313,64.2725932 34.612577,67.8496094 30.5799127,74.8040343 C30.0578209,75.704394 30.2301259,76.9529922 30.9647667,77.5928564 C31.6994075,78.2327207 32.7181905,78.0215475 33.2402823,77.1211878 Z" id="Eyebrow-Copy" fill="#AF8556" transform="translate(42.517462, 72.001809) rotate(198.000000) translate(-42.517462, -72.001809) "></path>
                                    <path d="M58.6302454,11.1585767 C62.545155,5.64986673 73.2779197,2.56083721 82.5230268,4.83118046 C83.5957248,5.0946055 84.6788665,4.43856013 84.9422916,3.36586212 C85.2057166,2.2931641 84.5496712,1.21002236 83.4769732,0.94659732 C72.7403633,-1.69001789 60.3120996,1.88699832 55.3697546,8.84142326 C54.7298904,9.74178291 54.9410636,10.9903811 55.8414233,11.6302454 C56.7417829,12.2701096 57.9903811,12.0589364 58.6302454,11.1585767 Z" id="Eyebrow" fill="#BFA465" transform="translate(70.000154, 6.039198) scale(-1, 1) translate(-70.000154, -6.039198) "></path>
                                </g>
                            </g>
                        </g>
                        <g id="Facial-Hair" transform="translate(41.500054, 59.608370)">
                            <mask id="mask-10" fill="white">
                                <use xlink:href="#path-9"></use>
                            </mask>
                            <use id="Beardness" fill="#BFA465" xlink:href="#path-9"></use>
                        </g>
                    </g>
                    <path d="M143.852905,23.4317618 C141.201162,20.6117523 138.122299,18.2181832 135.127638,15.8179038 C134.466872,15.2887955 133.7955,14.7724368 133.149517,14.2231976 C133.002645,14.0983858 131.498244,12.9770923 131.318269,12.5644079 C130.885043,11.5716169 131.136044,12.3446451 131.195821,11.1599392 C131.271347,9.66186151 134.206551,5.43067287 132.016316,4.46036144 C131.052805,4.03358545 129.334041,5.16930613 128.40974,5.5444127 C126.601952,6.27852108 124.771989,6.9045934 122.903139,7.44443818 C123.798516,5.58769423 125.50571,1.87085117 122.297008,2.86565526 C119.79728,3.64069655 117.467885,5.63332436 114.955944,6.57075526 C115.787045,5.15286586 119.110802,0.75928762 116.107465,0.513690119 C115.172879,0.437192537 112.453324,2.26172698 111.447069,2.6509252 C108.433126,3.8168423 105.354584,4.57041059 102.190233,5.16393788 C91.4306037,7.18206489 78.8484031,6.60665544 68.8935202,11.7048167 C61.2188598,15.6350477 53.6406149,21.7333813 49.2071166,29.4988925 C44.9339891,36.9839125 43.3357443,45.1755286 42.4413314,53.7526522 C41.7850644,60.0472625 41.7317146,66.5539187 42.0386367,72.871344 C42.1389087,74.9411404 40.8387063,98.6266935 43.7279524,95.7372322 C45.1674333,94.2975343 46.6807135,74.3395608 47.0432352,72.3717611 C47.7647432,68.4566283 48.459255,64.5240486 49.6621969,60.7340631 C51.7820487,54.0552874 53.5612551,46.4432913 59.56373,42.3410918 C65.1550713,38.5198685 81.4128018,31.6924942 86.9427915,31.6924942 C92.4727811,31.6924942 93.7344423,35.5422821 107.387802,34.4758201 C121.041162,33.4093582 123.772484,29.4519203 125.268528,30.3782791 C126.637626,31.2257918 128.059431,33.9931254 129.042546,35.1264975 C131.365191,37.8049194 134.134561,39.8505587 136.85058,42.0468446 C142.514017,46.6262985 145.373374,52.3780443 147.093424,59.5345945 C148.807046,66.6646389 148.094016,74.8007794 150.215153,81.8174195 C150.58828,83.0511108 149.422246,89.2544564 150.800271,91.4665898 C150.885254,91.6030117 152.176822,91.1579602 152.602405,88.904648 C153.28707,85.2795883 153.192015,79.0211793 153.192015,78.3306925 C153.192015,73.8109469 154.291792,70.4197307 154.277973,65.8704732 C154.22398,52.0385024 153.794289,34.0021843 143.852905,23.4317618 Z" id="Short-Hair" fill="#BFA465"></path>
                    <g id="Wayfarers" filter="url(#filter-11)" transform="translate(40.278102, 68.894350)" fill="#5B462F" fill-rule="nonzero">
                        <path d="M29.4473796,35.5100754 L27.0588072,35.5100754 C14.9962621,35.5100754 7.7948946,28.8722278 7.7948946,17.7550377 C7.7948946,8.77098863 9.36860221,0 28.1741534,0 L30.7206058,0 C49.526157,0 51.0998646,8.77098863 51.0998646,17.7550377 C51.0998646,28.2076821 42.1974669,35.5100754 29.4473796,35.5100754 Z M28.0489414,5.1965964 C11.2592922,5.1965964 11.2592922,11.1215962 11.2592922,18.6224794 C11.2592922,24.7461425 13.958278,32.0456778 26.8239095,32.0456778 L29.4473796,32.0456778 C40.1566195,32.0456778 47.635467,26.5260586 47.635467,18.6224794 C47.635467,11.1215962 47.635467,5.1965964 30.8458178,5.1965964 L28.0489414,5.1965964 Z" id="Left"></path>
                        <path d="M83.1455424,35.5100754 L80.7569701,35.5100754 C68.6944249,35.5100754 61.4930574,28.8722278 61.4930574,17.7550377 C61.4930574,8.77098863 63.066765,0 81.8723162,0 L84.4187687,0 C103.22432,0 104.798027,8.77098863 104.798027,17.7550377 C104.798027,28.2076821 95.8956298,35.5100754 83.1455424,35.5100754 Z M81.7471042,5.1965964 C64.957455,5.1965964 64.957455,11.1215962 64.957455,18.6224794 C64.957455,24.7461425 67.6592377,32.0456778 80.5220724,32.0456778 L83.1455424,32.0456778 C93.8547823,32.0456778 101.33363,26.5260586 101.33363,18.6224794 C101.33363,11.1215962 101.33363,5.1965964 84.5439807,5.1965964 L81.7471042,5.1965964 Z" id="Right"></path>
                        <path d="M2.55893005,4.99874846 C3.15771968,4.41389489 9.7085806,0 28.1482305,0 C43.6092859,0 46.8821574,1.60459826 51.836246,4.02899126 L52.1988784,4.20795173 C52.5433071,4.32964732 54.3046444,4.92795819 56.3649354,4.99375176 C58.2419756,4.91319627 59.8474855,4.40446354 60.3166329,4.24145997 C65.9711304,1.491498 71.5061167,0 84.4446915,0 C102.884341,0 109.435202,4.41389489 110.033992,4.99874846 C111.44908,4.99874846 112.592922,6.11596874 112.592922,7.49812269 L112.592922,9.99749692 C112.592922,11.3796509 111.44908,12.4968712 110.033992,12.4968712 C110.033992,12.4968712 104.056644,12.4968712 104.056644,14.9962454 C104.056644,17.4956196 102.357202,11.3796509 102.357202,9.99749692 L102.357202,7.56312857 C99.2364351,6.36877664 93.6499521,4.1453036 84.4446915,4.1453036 C74.1887452,4.1453036 69.0810395,5.96398483 64.6996116,7.76988484 L64.748607,7.88802507 L64.7464444,9.60829959 L62.8261287,14.2418215 L60.4541633,13.3040101 C60.2423206,13.2202532 59.7852303,13.0697794 59.1514282,12.9134593 C57.3845174,12.4776706 55.5679923,12.3450076 53.9615295,12.6747657 C53.3721546,12.7957465 52.8253326,12.9772943 52.3235009,13.2225074 L50.0349802,14.3407613 L47.7451803,9.87024468 L47.846874,7.88302632 L47.9167937,7.71420753 C44.1382032,5.95344926 40.6540684,4.1453036 28.1482305,4.1453036 C18.9434524,4.1453036 13.3570984,6.36794361 10.2357202,7.56231842 L10.2357202,9.99749692 C10.2357202,11.3796509 7.67679014,17.4956196 7.67679014,14.9962454 C7.67679014,12.4968712 2.55893005,12.4968712 2.55893005,12.4968712 C1.14640066,12.4968712 0,11.3796509 0,9.99749692 L0,7.49812269 C0,6.11596874 1.14640066,4.99874846 2.55893005,4.99874846 Z" id="Stuff"></path>
                    </g>
                </g>
                <g id="Group-8" transform="translate(752.211710, 130.904426)" stroke="#212121" stroke-linecap="round" stroke-linejoin="round" stroke-width="4">
                    <g id="Group-4" transform="translate(0.000000, 0.000000)">
                        <path d="M51.9126126,111.008446 L51.9126126,76.7173247" id="Stroke-154"></path>
                        <path d="M51.9126126,75.5314441 L51.9126126,41.2403229" id="Stroke-155"></path>
                        <path d="M9.06791624,65.7173252 C3.93254341,62.7555287 0.475607955,57.2082932 0.475607955,50.8541166 C0.475607955,41.3851476 17.6208458,20.6112572 17.6208458,20.6112572 C17.6208458,20.6112572 34.7667292,41.3851476 34.7667292,50.8541166 C34.7667292,60.3237312 27.0904604,68 17.6208458,68" id="Stroke-161"></path>
                        <path d="M86.223165,45.982554 C81.0877922,43.0207576 77.6308567,37.4735221 77.6308567,31.1193455 C77.6308567,21.6503764 94.7760946,0.876486058 94.7760946,0.876486058 C94.7760946,0.876486058 111.921978,21.6503764 111.921978,31.1193455 C111.921978,40.5889601 104.245709,48.2652289 94.7760946,48.2652289" id="Stroke-161-Copy" transform="translate(94.776417, 24.570857) scale(-1, 1) translate(-94.776417, -24.570857) "></path>
                    </g>
                </g>
                <g id="Group-19" transform="translate(0.605821, 322.000000)" stroke="#212121" stroke-linecap="round" stroke-width="4">
                    <path d="M0.721701716,1.90442576 L887.471951,1.90442576" id="Line"></path>
                </g>
            </g>
        </g>
    </g>
    <style>
        .coffee-steam {
            stroke-dasharray: 24 26;
            stroke-dashoffset: 25;
            stroke: #D6DDE3;
        }
        .coffee-steam--left,
        .coffee-steam--middle,
        .coffee-steam--right {
            animation: draw 6s ease-out 0s infinite;
        }
        .coffee-steam--left {
            animation-delay: 0.25s;
        }
        .coffee-steam--middle {
            animation-delay: 0.5s;
        }
        .coffee-steam--right {
            animation-delay: 0.75s;
        }
        @keyframes coffee-steam-draw {
            100% {
                stroke-dashoffset: 0;
            }
        }
        @keyframes draw {
            0% {
                stroke-dashoffset: 100;
            }
            50% {
                stroke-dashoffset: 50;
            }
            100% {
                stroke-dashoffset: 0;
            }
        }
    </style>
</svg>