<?xml version="1.0" encoding="UTF-8"?>
<svg width="352px" height="250px" viewBox="0 0 352 250" version="1.1" xmlns="http://www.w3.org/2000/svg" xmlns:xlink="http://www.w3.org/1999/xlink">
    <!-- Generator: Sketch 41.2 (35397) - http://www.bohemiancoding.com/sketch -->
    <title>Artboard Copy 3</title>
    <desc>Created with Sketch.</desc>
    <defs>
        <polygon id="path-1" points="174.72381 249.626488 0 249.626488 0 -5.68434189e-14 174.72381 -5.68434189e-14 349.447621 -1.67823714e-14 349.447621 249.626488 174.72381 249.626488"></polygon>
    </defs>
    <g id="Page-1" stroke="none" stroke-width="1" fill="none" fill-rule="evenodd">
        <g id="Artboard-Copy-3">
            <g id="Page-1">
                <mask id="mask-2" fill="white">
                    <use xlink:href="#path-1"></use>
                </mask>
                <g id="Clip-2"></g>
                <path d="M283.795084,222.352222 C253.892339,227.778885 215.145121,230.738883 174.572853,230.738883 C134.001287,230.738883 95.253367,227.778885 65.3506227,222.352222 C34.2545764,216.714131 22.3215563,210.15985 19.23301,207.199852 C23.3042756,203.182712 42.5374961,193.668433 94.6216189,187.818913 C113.36348,203.253188 139.335347,212.696991 175.205303,212.696991 C212.759219,212.696991 239.362133,203.464616 258.174188,188.171294 C258.525159,188.24177 258.87613,188.312246 259.227101,188.382722 C307.872408,194.302718 325.841431,203.323664 329.843204,207.199852 C326.824852,210.15985 314.891832,216.714131 283.795084,222.352222 M98.833273,25.0190297 C119.751155,21.0018897 146.636249,18.8171294 174.572853,18.8171294 C202.581055,18.8171294 229.745522,21.0018897 250.944181,25.0190297 C270.247596,28.683789 279.443743,32.8418813 283.093141,35.3085462 C280.215178,37.2818781 273.828204,40.3123521 261.683899,43.27235 C247.154395,39.1142577 214.79415,36.224736 177.099846,36.224736 C137.72088,36.224736 104.027646,39.3961623 90.6205475,43.8361591 C77.07306,40.6647328 70.1940249,37.3523542 67.2458671,35.3085462 C70.7555788,32.9123574 79.8106352,28.683789 98.833273,25.0190297 M328.930679,84.3599397 C331.527164,91.4075537 331.247089,98.3142154 328.228737,105.432306 C325.420967,112.057063 320.1564,118.893248 312.645616,125.658958 C305.626193,132.00181 297.48296,137.428473 289.901982,141.938946 C298.184902,119.527534 301.414539,93.6627902 302.607841,67.2342376 C319.945115,65.8247148 325.911625,76.1142313 328.930679,84.3599397 M87.0406415,149.761798 C74.5460675,128.055147 67.8776152,97.9618347 66.4035362,56.0285314 C73.6342444,59.0590054 81.9164623,61.2437657 89.2166628,62.7942408 C112.099984,67.7980468 142.424595,70.6170924 174.572853,70.6170924 C206.792709,70.6170924 237.327202,67.8685229 260.630986,62.7942408 C270.107208,60.7504328 277.89947,58.4247201 284.146055,55.817103 C283.304426,89.5751741 279.513235,124.742768 265.755867,149.90275 C249.399908,179.85511 220.620272,193.738909 175.205303,193.738909 C132.948373,193.809385 104.098543,179.361777 87.0406415,149.761798 M321.068925,181.898918 C309.205397,177.740825 293.131619,174.217018 274.318862,171.397973 C274.530147,171.116068 274.669833,170.834164 274.881118,170.622735 C285.128774,166.182738 307.661124,155.470365 325.139488,139.824662 C352.445748,115.298965 351.883492,92.6761242 346.54873,78.0170871 C341.635134,64.4856682 333.211825,55.3942461 321.629777,51.0952016 C316.014238,48.9809174 309.837847,48.1352037 303.098498,48.4171082 C303.169395,44.752349 303.169395,41.0171135 303.169395,37.3523542 C303.238887,36.718069 303.309783,36.0133076 303.309783,35.3790223 C303.309783,22.9047455 289.761594,14.1657042 260.701882,7.82285155 C237.396694,2.74856946 206.862202,0 174.643047,0 C142.494088,0 112.17088,2.74856946 89.286857,7.82285155 C71.3171327,11.7695154 47.3808984,18.9580817 47.3808984,35.3790223 C47.3808984,35.6609269 47.3808984,35.8723553 47.4510926,36.1542599 C47.4510926,36.3656883 47.3808984,36.6475928 47.3808984,36.8590213 C47.3808984,84.3599397 52.2944949,135.948474 78.547139,170.90464 C59.2437242,173.582733 42.7480789,177.10654 30.3236992,181.194156 C22.812916,183.660821 -0.000210582707,191.131292 -0.000210582707,207.199852 C-0.000210582707,221.788413 17.758931,232.148405 55.9445951,239.759829 C87.7425838,246.102681 129.859125,249.626488 174.643047,249.626488 C219.427672,249.626488 261.544213,246.102681 293.342202,239.759829 C331.527164,232.148405 349.287007,221.788413 349.287007,207.199852 C349.287007,191.624625 328.088348,184.295106 321.068925,181.898918" id="Fill-1" fill="#FFFFFF" mask="url(#mask-2)"></path>
            </g>
        </g>
    </g>
</svg>