<svg id="email" viewBox="0 0 34 30" xmlns="http://www.w3.org/2000/svg">
  <path
    d="M33.467 28.89c-.138.16-.3.237-.49.237H1.005c-.19 0-.352-.078-.49-.237-.137-.158-.205-.346-.205-.563V9.117c.462.6.962 1.15 1.497 1.65 3.882 3.436 6.966 6.254 9.254 8.455.74.718 1.34 1.276 1.81 1.676.465.4 1.09.805 1.88 1.214.79.408 1.53.612 2.227.612.738 0 1.48-.204 2.27-.612.79-.41 1.416-.813 1.88-1.214.463-.4 1.064-.958 1.802-1.676 2.29-2.2 5.374-5.02 9.255-8.454.537-.5 1.036-1.05 1.5-1.65v19.21c0 .216-.07.404-.207.562zm.206-26.852c0 .984-.336 2.08-1.01 3.29-.673 1.208-1.4 2.17-2.183 2.888-2.795 2.535-5.698 5.178-8.71 7.93l-.76.737c-.42.41-.754.722-1 .94-.246.216-.568.478-.967.786-.398.3-.763.53-1.096.68-.333.15-.645.224-.934.224-.333 0-.644-.075-.978-.225-.333-.15-.7-.38-1.097-.688-.398-.31-.72-.57-.966-.788-.246-.218-.58-.53-1-.94l-.76-.737c-3.012-2.753-5.915-5.396-8.71-7.93C1.372 6.28.31 3.91.31 1.11.31.895.377.707.514.55c.138-.16.3-.238.49-.238h31.973c.116.075.218.096.305.063.087-.034.152.03.195.187.043.158.083.233.12.225.036-.008.057.096.065.313l.01.326v.612z"
    fill-rule="evenodd"/>
</svg>
