<?xml version="1.0" encoding="UTF-8"?>
<svg width="250px" height="250px" viewBox="0 0 250 250" version="1.1" xmlns="http://www.w3.org/2000/svg" xmlns:xlink="http://www.w3.org/1999/xlink">
    <!-- Generator: Sketch 43.2 (39069) - http://www.bohemiancoding.com/sketch -->
    <title>Artboard Copy 2</title>
    <desc>Created with Sketch.</desc>
    <defs>
        <polygon id="path-1" points="0 0.000218130259 0 249.987651 249.988916 249.987651 249.988916 0.00021813026 1.35535837e-20 0.00021813026"></polygon>
        <linearGradient x1="10.9100811%" y1="11.4584339%" x2="63.0600474%" y2="88.8769252%" id="linearGradient-3">
            <stop stop-color="#61CEEB" offset="0%"></stop>
            <stop stop-color="#3D81D7" offset="100%"></stop>
        </linearGradient>
    </defs>
    <g id="Page-1" stroke="none" stroke-width="1" fill="none" fill-rule="evenodd">
        <g id="Artboard-Copy-2">
            <g id="Page-1" transform="translate(-0.000000, -0.670452)">
                <mask id="mask-2" fill="white">
                    <use xlink:href="#path-1"></use>
                </mask>
                <g id="Clip-2"></g>
                <path d="M125.690798,224.963487 L92.1781856,161.293523 L215.041763,44.8794485 L125.690798,224.963487 Z M25.7945108,123.909109 L200.202606,37.3763636 L81.0633192,150.253663 L25.7945108,123.909109 Z M248.248852,3.43071744 C248.016834,3.09219105 247.737812,2.82767043 247.46079,2.53764782 C247.164767,2.25562583 246.894246,1.97510397 246.55222,1.73708541 C244.674073,0.283472098 242.257385,-0.410081967 239.806694,0.252469681 L5.93696281,116.288015 C5.79795197,116.323518 5.70044437,116.427526 5.56643392,116.470029 C3.01873532,117.210087 0.889569345,119.075732 0.195015202,121.850949 C-0.158512357,123.245057 0.0075005847,124.620165 0.379529586,125.935767 C0.389530365,125.97377 0.378029469,126.011273 0.388530287,126.053776 C0.41153208,126.144783 0.483037654,126.208788 0.511039837,126.301296 C0.777060575,127.099358 1.11208669,127.835915 1.60212489,128.513968 C1.84264364,128.865496 2.12516566,129.144517 2.41218804,129.44154 C2.81271926,129.856573 3.20674998,130.238103 3.68928759,130.569128 C4.09581928,130.84165 4.52485273,131.025664 4.97338769,131.219679 C5.3404163,131.388192 5.63993965,131.647712 6.03647056,131.766722 L76.9604993,165.572857 L118.219216,243.952467 C118.333725,244.360999 118.601745,244.662522 118.773759,245.035051 C118.962774,245.476586 119.144288,245.897119 119.414309,246.29665 C119.743334,246.780687 120.130365,247.180219 120.545397,247.58075 C120.84642,247.865272 121.124942,248.147794 121.469969,248.385813 C122.154022,248.874851 122.89308,249.211377 123.690142,249.477898 C123.781149,249.5054 123.846154,249.578406 123.937161,249.597407 C123.977164,249.610908 124.012167,249.597407 124.05017,249.606908 C125.367773,249.979437 126.74288,250.14595 128.140989,249.793422 C130.901704,249.100368 132.76985,246.974703 133.508907,244.434004 C133.555911,244.293994 133.662919,244.193986 133.701923,244.051475 L249.737968,10.1842439 C250.398519,7.7315527 249.704465,5.30686369 248.248852,3.43071744 L248.248852,3.43071744 Z" id="Fill-1" fill="url(#linearGradient-3)" mask="url(#mask-2)"></path>
            </g>
        </g>
    </g>
</svg>