<svg width="auto" height="35" viewBox="0 0 35 35" xmlns="http://www.w3.org/2000/svg">
  <path
    d="M34.14 34.155V.572H.194v33.943h33.943v-.36zM8.025 6.115H25.43l.016.343.246 4.848.02.378h-1.318l-.057-.292c-.11-.568-.228-1.045-.35-1.432-.117-.37-.236-.65-.357-.84-.12-.184-.265-.35-.44-.49-.176-.144-.385-.267-.626-.368-.188-.068-.457-.12-.806-.158-.366-.04-.818-.06-1.357-.06h-5.71v8.027h4.51c.61 0 1.11-.04 1.5-.13.37-.08.63-.19.79-.34.24-.21.43-.5.56-.89.15-.41.24-.91.27-1.5l.02-.34h1.307v8.43h-1.28l-.043-.31c-.072-.53-.146-.956-.22-1.286-.07-.32-.137-.544-.2-.67-.08-.153-.182-.29-.312-.41-.132-.126-.295-.235-.486-.33-.194-.093-.444-.165-.75-.214-.32-.05-.7-.08-1.15-.08h-4.5v6.938c0 .486.01.87.03 1.157.02.26.044.427.073.5.02.064.06.123.11.176.05.055.11.106.19.15.07.038.18.068.34.09.185.03.424.043.712.043h3.755c.62 0 1.15-.02 1.587-.06.424-.04.77-.1 1.03-.184h.003c.257-.077.5-.19.75-.346.25-.155.496-.35.738-.59.325-.324.65-.73.98-1.215.335-.49.677-1.078 1.028-1.75l.1-.197h1.38l-.16.48-1.905 5.55-.082.242H7.668v-1.33H8.81c.228 0 .452-.03.67-.083.22-.056.436-.14.643-.25l.01-.004c.134-.065.244-.147.332-.244.086-.092.153-.204.2-.335h.002c.05-.145.086-.38.114-.7.03-.347.05-.784.05-1.31v-14.4c0-.686-.03-1.234-.1-1.643-.06-.365-.14-.604-.23-.717-.15-.168-.36-.296-.62-.383-.283-.096-.64-.143-1.06-.143H7.67v-1.33h.36z"
    fill-rule="evenodd"/>
</svg>
