<?xml version="1.0" encoding="UTF-8"?>
<svg width="256px" height="250px" viewBox="0 0 256 250" version="1.1" xmlns="http://www.w3.org/2000/svg" xmlns:xlink="http://www.w3.org/1999/xlink">
    <!-- Generator: Sketch 41.2 (35397) - http://www.bohemiancoding.com/sketch -->
    <title>Artboard Copy 4</title>
    <desc>Created with Sketch.</desc>
    <defs></defs>
    <g id="Page-1" stroke="none" stroke-width="1" fill="none" fill-rule="evenodd">
        <g id="Artboard-Copy-4" fill="#FFFFFF">
            <g id="github10">
                <path d="M238.213147,64.2605061 C226.838977,44.7709309 211.409137,29.3410909 191.921594,17.9669204 C172.429986,6.5927498 151.151444,0.906680978 128.071738,0.906680978 C104.994064,0.906680978 83.709423,6.59478272 64.2218807,17.9669204 C44.7323055,29.3410909 29.3024655,44.7709309 17.928295,64.2605061 C6.55412438,83.7500813 0.868055556,105.032689 0.868055556,128.10833 C0.868055556,155.82512 8.95499935,180.750716 25.1329528,202.889182 C41.3088733,225.027648 62.205227,240.34771 87.8220141,248.849369 C90.8043033,249.402322 93.0120511,249.014035 94.4472905,247.692639 C95.8825299,246.367177 96.6001496,244.71035 96.6001496,242.72419 C96.6001496,242.392825 96.5716888,239.412568 96.5168,233.781388 C96.4598784,228.148175 96.4334504,223.234615 96.4334504,219.04274 L92.623764,219.701405 C90.1944282,220.146614 87.1308223,220.335675 83.4309133,220.280786 C79.7330373,220.229964 75.8948901,219.841676 71.9205373,219.122024 C67.9441517,218.406437 64.2462757,216.751643 60.8228435,214.157641 C57.4014442,211.561606 54.9721084,208.164601 53.536869,203.970693 L51.8800416,200.158974 C50.7761677,197.621894 49.0380237,194.804271 46.6635766,191.714237 C44.2891296,188.62217 41.8882546,186.5242 39.4589188,185.420326 L38.3001561,184.592929 C37.5276477,184.039975 36.810028,183.375211 36.147297,182.602703 C35.4845661,181.830195 34.9885343,181.057686 34.6571689,180.283145 C34.3258034,179.510636 34.6002472,178.874333 35.4845661,178.376269 C36.368885,177.878204 37.9687907,177.634254 40.2883489,177.634254 L43.5999707,178.130286 C45.8077186,178.571429 48.539959,179.894858 51.798725,182.104638 C55.055458,184.312386 57.7328097,187.182865 59.83078,190.714042 C62.3719262,195.243381 65.4334992,198.693241 69.0236306,201.067688 C72.6117291,203.442135 76.2282884,204.627326 79.8712757,204.627326 C83.5142629,204.627326 86.6612184,204.350849 89.3121422,203.799928 C91.961033,203.249008 94.4452576,202.419578 96.7648159,201.315704 C97.7589123,193.915886 100.464725,188.229817 104.880221,184.255464 C98.5863095,183.592734 92.9287015,182.596604 87.9033307,181.273175 C82.8799928,179.947713 77.6899558,177.794854 72.3352524,174.810532 C66.9785161,171.830276 62.5345596,168.130367 59.0013499,163.714871 C55.4681401,159.297343 52.5692005,153.499463 50.3065639,146.323266 C48.0439273,139.145036 46.9115925,130.864966 46.9115925,121.478988 C46.9115925,108.116624 51.2742324,96.7444867 59.9974792,87.358509 C55.911316,77.3118332 56.2975703,66.0494731 61.1562419,53.5714286 C64.3580861,52.5773322 69.1069802,53.3234127 75.4008912,55.8076373 C81.6948022,58.2918618 86.3034251,60.4203259 89.2308255,62.1848979 C92.158226,63.9494698 94.5042122,65.4436638 96.2708171,66.6573152 C106.541114,63.7868365 117.140743,62.3515971 128.071738,62.3515971 C139.002732,62.3515971 149.604394,63.7868365 159.876724,66.6573152 L166.170635,62.6829625 C170.47432,60.0320388 175.556613,57.602703 181.405315,55.3949551 C187.258083,53.1872073 191.732533,52.5793651 194.8246,53.5734615 C199.793049,66.051506 200.234192,77.3138661 196.148029,87.3605419 C204.871276,96.7465196 209.233916,108.12069 209.233916,121.481021 C209.233916,130.866998 208.099548,139.173497 205.838944,146.406616 C203.574275,153.641767 200.65094,159.435581 197.062842,163.798221 C193.47271,168.160861 189.000293,171.832309 183.645589,174.812565 C178.288853,177.794854 173.098816,179.947713 168.075478,181.273175 C163.050107,182.598637 157.392499,183.594766 151.098588,184.257497 C156.839546,189.225947 159.710025,197.064874 159.710025,207.776314 L159.710025,242.720124 C159.710025,244.706284 160.401216,246.363112 161.781567,247.68654 C163.161918,249.009969 165.341205,249.398257 168.323494,248.845303 C193.942314,240.343644 214.838668,225.023582 231.014588,202.883083 C247.190509,180.74665 255.279485,155.821055 255.279485,128.102231 C255.273387,105.030656 249.583252,83.7500813 238.213147,64.2605061 L238.213147,64.2605061 Z" id="Shape"></path>
            </g>
        </g>
    </g>
</svg>