<svg viewBox="0 0 37 36" xmlns="http://www.w3.org/2000/svg">
  <path
    d="M33.98 9.217c-1.592-2.73-3.752-4.89-6.48-6.482C24.77 1.143 21.792.347 18.56.347c-3.23 0-6.21.796-8.938 2.388-2.73 1.593-4.89 3.753-6.48 6.482C1.547 11.945.75 14.925.75 18.155c0 3.88 1.132 7.37 3.397 10.47 2.264 3.1 5.19 5.244 8.776 6.434.417.07.726.02.927-.17.2-.19.302-.42.302-.7l-.012-1.25c-.008-.79-.012-1.48-.012-2.07l-.532.09c-.34.06-.77.09-1.287.08-.52-.01-1.06-.06-1.61-.16-.56-.1-1.08-.337-1.56-.7-.48-.363-.82-.84-1.02-1.426l-.23-.53c-.16-.356-.4-.75-.73-1.18-.34-.436-.67-.73-1.01-.88l-.16-.12c-.11-.078-.21-.17-.31-.28-.09-.108-.16-.216-.21-.324-.05-.11-.01-.2.11-.27s.343-.1.67-.1l.462.068c.31.063.69.25 1.147.56.455.31.83.71 1.124 1.205.357.634.785 1.117 1.29 1.45.5.33 1.01.5 1.52.5s.95-.04 1.32-.116c.37-.076.72-.19 1.04-.347.14-1.036.52-1.83 1.137-2.388-.88-.094-1.673-.23-2.377-.42-.705-.183-1.43-.485-2.18-.902-.75-.416-1.37-.934-1.868-1.55-.497-.62-.9-1.43-1.22-2.438-.316-1.002-.475-2.16-.475-3.475 0-1.87.61-3.462 1.83-4.78-.57-1.404-.515-2.98.166-4.73.45-.14 1.114-.033 1.995.31.88.35 1.53.65 1.94.897.41.247.74.456.985.626 1.433-.4 2.92-.602 4.45-.602 1.53 0 3.01.2 4.45.6l.88-.56c.603-.37 1.315-.71 2.133-1.02.82-.31 1.446-.392 1.88-.253.695 1.747.756 3.324.184 4.73 1.228 1.32 1.838 2.91 1.838 4.78 0 1.316-.157 2.48-.474 3.49-.316 1.015-.725 1.826-1.23 2.437-.5.61-1.126 1.125-1.876 1.542-.75.413-1.48.72-2.18.9-.7.186-1.497.325-2.38.42.804.696 1.206 1.793 1.206 3.293v4.89c0 .28.095.51.29.695.19.186.5.24.914.163 3.588-1.19 6.513-3.335 8.778-6.434 2.263-3.1 3.396-6.59 3.396-10.47 0-3.23-.8-6.21-2.39-8.936z"
    fill-rule="evenodd"/>
</svg>
