<svg width="36" height="36" viewBox="0 0 36 36" xmlns="http://www.w3.org/2000/svg">
  <g fill="#5D5D5D" fill-rule="evenodd">
    <path
      d="M18.3 3.37c4.66 0 5.21.017 7.05.1 1.702.08 2.626.363 3.24.602.815.317 1.396.695 2.007 1.305.61.61.99 1.192 1.305 2.007.24.615.523 1.538.6 3.24.085 1.84.103 2.39.103 7.05s-.018 5.212-.102 7.05c-.078 1.703-.362 2.627-.6 3.242-.317.814-.696 1.395-1.306 2.006-.61.61-1.192.99-2.006 1.305-.61.24-1.53.523-3.24.6-1.84.085-2.39.103-7.05.103s-5.21-.018-7.05-.102c-1.7-.078-2.62-.362-3.24-.6C7.2 30.96 6.62 30.58 6 29.97c-.61-.61-.983-1.192-1.3-2.006-.24-.615-.523-1.54-.6-3.24-.085-1.84-.102-2.392-.102-7.05 0-4.66.017-5.212.1-7.052.08-1.702.363-2.625.602-3.24.316-.815.694-1.396 1.304-2.007.61-.61 1.193-.988 2.008-1.305.615-.24 1.54-.523 3.24-.6 1.84-.085 2.39-.102 7.05-.102m0-3.144c-4.74 0-5.332.02-7.194.105-1.858.08-3.126.38-4.236.81-1.148.44-2.12 1.04-3.09 2.01-.97.97-1.567 1.94-2.013 3.09-.44 1.11-.73 2.38-.81 4.23-.09 1.86-.11 2.46-.11 7.2s.02 5.33.1 7.19c.08 1.85.38 3.12.81 4.23.44 1.15 1.04 2.12 2.01 3.09.97.97 1.94 1.57 3.09 2.012 1.11.43 2.37.726 4.23.81 1.86.086 2.45.106 7.19.106s5.33-.02 7.19-.103c1.857-.088 3.125-.38 4.235-.814 1.146-.445 2.12-1.042 3.09-2.012.97-.97 1.566-1.94 2.012-3.09.43-1.11.724-2.38.81-4.23.084-1.864.104-2.46.104-7.197 0-4.74-.02-5.335-.107-7.196-.085-1.86-.38-3.127-.81-4.237-.447-1.15-1.044-2.12-2.014-3.09-.97-.97-1.945-1.57-3.09-2.016C28.6.7 27.33.4 25.472.32c-1.84-.08-2.437-.1-7.177-.1"/>
    <path
      d="M18.3 8.714c-4.95 0-8.96 4.012-8.96 8.96 0 4.95 4.01 8.96 8.96 8.96 4.948 0 8.96-4.01 8.96-8.96 0-4.948-4.012-8.96-8.96-8.96zm0 14.777c-3.213 0-5.817-2.6-5.817-5.81 0-3.21 2.604-5.81 5.817-5.81 3.212 0 5.816 2.61 5.816 5.82 0 3.21-2.604 5.82-5.816 5.82zM29.708 8.36c0 1.157-.938 2.094-2.094 2.094S25.52 9.517 25.52 8.36c0-1.156.938-2.094 2.094-2.094s2.094.938 2.094 2.094"/>
  </g>
</svg>
