<?xml version="1.0" encoding="UTF-8"?>
<svg width="307px" height="250px" viewBox="0 0 307 250" version="1.1" xmlns="http://www.w3.org/2000/svg" xmlns:xlink="http://www.w3.org/1999/xlink">
    <!-- Generator: Sketch 41.2 (35397) - http://www.bohemiancoding.com/sketch -->
    <title>Artboard</title>
    <desc>Created with Sketch.</desc>
    <defs>
        <polygon id="path-1" points="152.939667 249.18341 305.879058 249.18341 305.879058 -7.89189513e-14 152.939667 -1.13686838e-13 0.000276884641 -7.89189513e-14 0.000276884641 249.18341 152.939667 249.18341"></polygon>
    </defs>
    <g id="Page-1" stroke="none" stroke-width="1" fill="none" fill-rule="evenodd">
        <g id="Artboard">
            <g id="Page-1" transform="translate(-0.000000, 0.000000)">
                <mask id="mask-2" fill="white">
                    <use xlink:href="#path-1"></use>
                </mask>
                <g id="Clip-2"></g>
                <path d="M204.346543,-5.68434189e-14 C166.85282,-5.68434189e-14 135.780737,27.4016121 130.949368,62.8157491 C100.305436,56.6381535 72.415121,40.3684463 52.3532264,16.5143644 C48.744532,12.1716982 43.3620725,9.72512571 37.7349557,9.72512571 C37.2456412,9.72512571 36.7563267,9.72512571 36.2058479,9.78629002 C30.0894166,10.2756045 24.5234642,13.700806 21.3429199,18.9609369 C14.6753982,30.0316775 11.189644,42.6926902 11.189644,55.5983602 C11.189644,64.2225283 12.7187518,72.6020391 15.6546388,80.4310711 C12.5346472,83.9174369 10.6997179,88.4435961 10.6997179,93.2144125 L10.6997179,93.8872199 C10.6997179,112.6035 18.1012113,129.974164 30.3952382,143.002163 C29.6606548,146.243872 29.8447594,149.730237 30.945717,152.971946 C35.1654429,165.877616 42.872758,176.948356 52.9030936,185.450196 C46.1750192,186.918139 39.2640635,187.713275 32.1690032,187.713275 C28.4373685,187.713275 24.7675098,187.529783 21.3429199,187.101632 C20.5477838,187.040468 19.8138121,186.979304 19.0798403,186.979304 C11.0673154,186.979304 3.78876218,192.055942 1.09753243,199.762645 C-1.89951889,208.20332 1.40335399,217.56146 9.04889307,222.332276 C37.2450296,239.886434 69.8462198,249.18341 103.303099,249.18341 C211.992082,249.18341 277.315568,164.103851 278.599407,81.0427143 C287.468233,73.7029967 295.359041,65.139993 302.025339,55.5983602 C304.471911,52.4178159 305.879302,48.4421356 305.879302,44.0994694 C305.879302,37.6160523 302.636982,31.8666069 297.683284,28.3802411 C299.824035,21.0405235 297.377463,13.0891629 291.38336,8.19601789 C287.896994,5.38245951 283.615493,3.91451601 279.333991,3.91451601 C276.030506,3.91451601 272.728245,4.77081639 269.792358,6.48341714 C263.491822,10.0921116 256.703195,13.0279986 249.608135,15.0464209 C236.701853,5.38245951 220.738579,-5.68434189e-14 204.346543,-5.68434189e-14 M204.346543,19.0832655 C220.126936,19.0832655 234.378221,25.5666827 244.409168,35.9034515 C256.886076,33.5180433 268.690789,29.1142128 279.272826,22.9977816 C275.174817,35.414137 266.489485,45.8732345 255.174087,52.4178159 C266.244216,51.1333654 276.887418,48.2586427 286.673708,44.0383051 C279.272826,54.6808955 269.975851,64.1001996 259.272096,71.6234101 C259.394425,73.8864897 259.455589,76.2107336 259.455589,78.4738131 C259.455589,148.812773 204.224215,229.977816 103.241935,229.977816 C72.231628,229.977816 43.3620725,221.10899 19.0798403,206.062569 C23.3613422,206.551884 27.7651727,206.796541 32.1690032,206.796541 C57.8580146,206.796541 81.5897679,198.294702 100.367212,183.982252 C76.329637,183.554102 56.0230852,168.140695 49.1115178,147.039008 C52.475555,147.650651 55.9007566,148.017637 59.4482867,148.017637 C64.4637603,148.017637 69.295741,147.344829 73.8830645,146.182707 C48.744532,141.289562 29.8447594,119.759724 29.8447594,93.9483842 L29.8447594,93.2755768 C37.2456412,97.2512571 45.6863163,99.6366653 54.738023,99.9424869 C39.9980353,90.4008541 30.3340739,74.1311469 30.3340739,55.5983602 C30.3340739,45.8120702 33.024692,36.6985876 37.79612,28.8695556 C64.8919105,61.041984 105.321521,82.2660005 150.950098,84.4679158 C150.032634,80.5533997 149.542708,76.4553908 149.542708,72.3573819 C149.481543,42.9373475 174.008433,19.0832655 204.346543,19.0832655" id="Fill-1" fill="#FFFFFF" mask="url(#mask-2)"></path>
            </g>
        </g>
    </g>
</svg>