<svg width="38" height="31" viewBox="0 0 38 31" xmlns="http://www.w3.org/2000/svg">
  <path
    d="M26.192.892c2.21 0 4.204.907 5.61 2.355 1.745-.334 3.398-.95 4.88-1.807-.574 1.738-1.79 3.202-3.374 4.12 1.55-.18 3.04-.584 4.41-1.175-1.037 1.49-2.338 2.81-3.837 3.862.02.317.03.643.03.96 0 9.847-7.73 21.21-21.87 21.21-4.34 0-8.38-1.242-11.78-3.348.6.06 1.218.1 1.835.1 3.596 0 6.92-1.19 9.548-3.2-3.365-.06-6.21-2.218-7.175-5.17.47.084.95.136 1.448.136.702 0 1.38-.095 2.02-.257-3.52-.684-6.164-3.7-6.164-7.31v-.094c1.036.555 2.217.89 3.485.932C3.187 10.87 1.835 8.593 1.835 6c0-1.37.377-2.646 1.045-3.74 3.79 4.504 9.45 7.475 15.84 7.784-.13-.548-.198-1.122-.198-1.696-.01-4.12 3.42-7.46 7.67-7.46"
    fill-rule="evenodd"/>
</svg>
