<?xml version="1.0" encoding="UTF-8"?>
<svg width="893px" height="323px" viewBox="0 0 893 323" version="1.1" xmlns="http://www.w3.org/2000/svg" xmlns:xlink="http://www.w3.org/1999/xlink">
    <!-- Generator: Sketch 48.2 (47327) - http://www.bohemiancoding.com/sketch -->
    <title>Group 9</title>
    <desc>Created with Sketch.</desc>
    <defs>
        <path d="M123.123924,143.455363 L123.123924,213 L73.8938316,213 L73.8938316,144.136553 C57.8332707,135.75046 46.7089363,119.204838 46.0211021,99.9999625 C46.0098372,99.999984 45.9985689,100 45.9872968,100 C39.5314738,100 34.2979953,94.7665214 34.2979953,88.3106985 L34.2979953,73.6893015 C34.2979953,67.2334786 39.5314738,62 45.9872968,62 L45.9872968,51.8907471 C45.9872968,23.2322788 69.2195756,5.26447522e-15 97.8780439,0 C126.536512,-5.26447522e-15 149.768791,23.2322788 149.768791,51.8907471 L149.768791,62.1055746 C155.478426,62.8759419 159.880312,67.7685639 159.880312,73.6893015 L159.880312,88.3106985 C159.880312,94.2418944 155.462861,99.1413393 149.738523,99.8984691 C149.103509,118.639242 138.530768,134.859415 123.123924,143.455363 Z" id="path-1"></path>
        <path d="M72.8240874,0.0708856067 L72.8240874,20.1889683 C72.8240874,32.7871532 83.0369342,43 95.6351191,43 C108.233304,43 118.446151,32.7871532 118.446151,20.1889683 L118.446151,0.0708856067 C135.650076,2.09629638 148.86086,7.66339117 148.86086,22.0769231 C148.86086,22.2545557 148.858853,22.4315918 148.854858,22.6080283 C173.547861,34.0212063 190.681084,59.0095061 190.681084,87.9994847 L190.681084,136.249648 L0.589153781,136.249648 L0.589153781,87.9994847 C0.589153781,59.0095061 17.7223771,34.0212063 42.4153807,22.6080283 C42.411385,22.4315918 42.4093785,22.2545557 42.4093785,22.0769231 C42.4093785,7.66339117 55.620162,2.09629638 72.8240874,0.0708856067 Z" id="path-3"></path>
        <path d="M78.8189602,129.737299 C80.9297597,128.104533 93.5418906,127.478651 95.8154767,126.089449 C96.5250347,125.655386 97.0756365,125.215719 97.4998392,124.780007 C97.9243611,125.215719 98.475282,125.655386 99.18484,126.089449 C101.458107,127.478651 114.070238,128.104533 116.181037,129.737299 C118.31833,131.390828 119.878527,135.184683 119.707761,138.15095 C119.502841,141.710141 115.738002,150.202893 106.369155,151.181102 C104.324428,148.828193 101.113382,147.310453 97.4998392,147.310453 C93.8869343,147.310453 90.6755697,148.828193 88.6308424,151.181102 C79.2623143,150.202893 75.4974753,141.710141 75.2925557,138.15095 C75.1217894,135.184683 76.6819872,131.390828 78.8189602,129.737299 M115.525422,146.906381 C115.526699,146.905722 115.528295,146.905063 115.529572,146.904733 C115.527976,146.905063 115.526699,146.905722 115.525422,146.906381 M79.4621268,146.901438 C79.4659571,146.903085 79.4729793,146.905722 79.4780863,146.9077 C79.4729793,146.905722 79.4675531,146.903415 79.4621268,146.901438 M155.867133,107.985333 C155.491766,102.030388 154.334704,96.1519058 153.325427,90.2862777 C153.053478,88.7072349 151.574993,78 150.908844,78 C150.684135,87.1094058 149.910101,96.0803858 148.911995,105.139365 C148.613553,107.847567 148.301067,110.556428 148.095509,113.274187 C147.92953,115.469555 148.225419,118.122056 147.711205,120.245574 C147.054951,122.952457 143.766343,125.478398 141.208678,126.410795 C134.826805,128.737337 129.503684,119.107769 124.053206,116.291134 C116.977415,112.634715 104.813745,111.76399 97.5789981,116.529792 C90.1862524,111.76399 78.0225826,112.634715 70.946792,116.291134 C65.4966329,119.107769 60.1731921,128.737337 53.7916383,126.410795 C51.2339737,125.478398 47.9447269,122.952457 47.2891118,120.245574 C46.7745785,118.122056 47.0704671,115.469555 46.9048078,113.274187 C46.6992498,110.556428 46.3864442,107.847567 46.0880021,105.139365 C45.090216,96.0803858 44.3158625,87.1094058 44.0914724,78 C43.4250049,78 41.9462004,88.7072349 41.6745702,90.2862777 C40.6652934,96.1519058 39.508551,102.030388 39.1331842,107.985333 C38.7472842,114.104742 39.2078745,120.167462 40.4211135,126.163277 C41.0004422,129.027702 41.6771238,131.875647 42.4026413,134.704148 C43.2089137,137.846743 42.0933467,143.966152 42.45435,147.192132 C43.1374153,153.29572 45.9178742,165.199679 49.0401849,170.45096 C50.5493124,172.989096 52.3182601,174.573742 54.2937233,176.619148 C56.1948154,178.58809 56.9889586,181.640049 59.0410273,183.73687 C62.8661931,187.645092 68.43924,189.971304 74.1635828,190.543134 C79.2996594,195.050212 87.8360608,198 97.4998392,198 C107.164256,198 115.700338,195.050212 120.836734,190.543134 C126.560438,189.971304 132.133804,187.645092 135.959289,183.73687 C138.011039,181.640049 138.805182,178.58809 140.706593,176.619148 C142.681737,174.573742 144.450685,172.989096 145.960132,170.45096 C149.082123,165.199679 151.862901,153.29572 152.545648,147.192132 C152.906651,143.966152 151.791084,137.846743 152.597675,134.704148 C153.323193,131.875647 153.999555,129.027702 154.579203,126.163277 C155.791804,120.167462 156.252713,114.104742 155.867133,107.985333 Z" id="path-5"></path>
        <path d="M122.123924,143.455363 L122.123924,213 L72.8938316,213 L72.8938316,144.136553 C56.8332707,135.75046 45.7089363,119.204838 45.0211021,99.9999625 C45.0098372,99.999984 44.9985689,100 44.9872968,100 C38.5314738,100 33.2979953,94.7665214 33.2979953,88.3106985 L33.2979953,73.6893015 C33.2979953,67.2334786 38.5314738,62 44.9872968,62 L44.9872968,51.8907471 C44.9872968,23.2322788 68.2195756,5.26447522e-15 96.8780439,0 C125.536512,-5.26447522e-15 148.768791,23.2322788 148.768791,51.8907471 L148.768791,62.0140301 C154.95622,62.3151996 159.880312,67.4272089 159.880312,73.6893015 L159.880312,88.3106985 C159.880312,94.5840419 154.93851,99.7031656 148.735429,99.9875466 C148.069987,118.690632 137.506352,134.873037 122.123924,143.455363 Z" id="path-7"></path>
        <path d="M72.3225045,0.0708856067 L72.3225045,20.3473629 C72.3225045,32.8580689 82.4644356,43 94.9751416,43 C107.485848,43 117.627779,32.8580689 117.627779,20.3473629 L117.627779,0.0708856067 C134.712244,2.09629638 147.831295,7.66339117 147.831295,22.0769231 C147.831295,22.2993778 147.82817,22.520897 147.821954,22.7414746 C172.360586,34.2151531 189.361129,59.1219741 189.361129,87.9994847 L189.361129,136.249648 L0.589153781,136.249648 L0.589153781,87.9994847 C0.589153781,59.1219741 17.5896967,34.2151531 42.1283297,22.7414746 C42.1221134,22.520897 42.1189884,22.2993778 42.1189884,22.0769231 C42.1189884,7.66339117 55.2380392,2.09629638 72.3225045,0.0708856067 Z" id="path-9"></path>
        <path d="M77.8189602,129.737299 C79.9297597,128.104533 92.5418906,127.478651 94.8154767,126.089449 C95.5250347,125.655386 96.0756365,125.215719 96.4998392,124.780007 C96.9243611,125.215719 97.475282,125.655386 98.18484,126.089449 C100.458107,127.478651 113.070238,128.104533 115.181037,129.737299 C117.31833,131.390828 118.878527,135.184683 118.707761,138.15095 C118.502841,141.710141 114.738002,150.202893 105.369155,151.181102 C103.324428,148.828193 100.113382,147.310453 96.4998392,147.310453 C92.8869343,147.310453 89.6755697,148.828193 87.6308424,151.181102 C78.2623143,150.202893 74.4974753,141.710141 74.2925557,138.15095 C74.1217894,135.184683 75.6819872,131.390828 77.8189602,129.737299 M114.525422,146.906381 C114.526699,146.905722 114.528295,146.905063 114.529572,146.904733 C114.527976,146.905063 114.526699,146.905722 114.525422,146.906381 M78.4621268,146.901438 C78.4659571,146.903085 78.4729793,146.905722 78.4780863,146.9077 C78.4729793,146.905722 78.4675531,146.903415 78.4621268,146.901438 M154.867133,107.985333 C154.491766,102.030388 153.334704,96.1519058 152.325427,90.2862777 C152.053478,88.7072349 150.574993,78 149.908844,78 C149.684135,87.1094058 148.910101,96.0803858 147.911995,105.139365 C147.613553,107.847567 147.301067,110.556428 147.095509,113.274187 C146.92953,115.469555 147.225419,118.122056 146.711205,120.245574 C146.054951,122.952457 142.766343,125.478398 140.208678,126.410795 C133.826805,128.737337 128.503684,119.107769 123.053206,116.291134 C115.977415,112.634715 103.813745,111.76399 96.5789981,116.529792 C89.1862524,111.76399 77.0225826,112.634715 69.946792,116.291134 C64.4966329,119.107769 59.1731921,128.737337 52.7916383,126.410795 C50.2339737,125.478398 46.9447269,122.952457 46.2891118,120.245574 C45.7745785,118.122056 46.0704671,115.469555 45.9048078,113.274187 C45.6992498,110.556428 45.3864442,107.847567 45.0880021,105.139365 C44.090216,96.0803858 43.3158625,87.1094058 43.0914724,78 C42.4250049,78 40.9462004,88.7072349 40.6745702,90.2862777 C39.6652934,96.1519058 38.508551,102.030388 38.1331842,107.985333 C37.7472842,114.104742 38.2078745,120.167462 39.4211135,126.163277 C40.0004422,129.027702 40.6771238,131.875647 41.4026413,134.704148 C42.2089137,137.846743 41.0933467,143.966152 41.45435,147.192132 C42.1374153,153.29572 44.9178742,165.199679 48.0401849,170.45096 C49.5493124,172.989096 51.3182601,174.573742 53.2937233,176.619148 C55.1948154,178.58809 55.9889586,181.640049 58.0410273,183.73687 C61.8661931,187.645092 67.43924,189.971304 73.1635828,190.543134 C78.2996594,195.050212 86.8360608,198 96.4998392,198 C106.164256,198 114.700338,195.050212 119.836734,190.543134 C125.560438,189.971304 131.133804,187.645092 134.959289,183.73687 C137.011039,181.640049 137.805182,178.58809 139.706593,176.619148 C141.681737,174.573742 143.450685,172.989096 144.960132,170.45096 C148.082123,165.199679 150.862901,153.29572 151.545648,147.192132 C151.906651,143.966152 150.791084,137.846743 151.597675,134.704148 C152.323193,131.875647 152.999555,129.027702 153.579203,126.163277 C154.791804,120.167462 155.252713,114.104742 154.867133,107.985333 Z" id="path-11"></path>
        <path d="M10.3946214,2.87971141 L35.087129,2.87971141 C40.6099765,2.87971141 45.087129,7.35686391 45.087129,12.8797114 L45.087129,40.2127933 L0.394621368,40.2127933 L0.394621368,12.8797114 C0.394621368,7.35686391 4.87177387,2.87971141 10.3946214,2.87971141 Z" id="path-13"></path>
        <path d="M10.3946214,2.87971141 L35.087129,2.87971141 C40.6099765,2.87971141 45.087129,7.35686391 45.087129,12.8797114 L45.087129,40.2127933 L0.394621368,40.2127933 L0.394621368,12.8797114 C0.394621368,7.35686391 4.87177387,2.87971141 10.3946214,2.87971141 Z" id="path-14"></path>
        <rect id="path-15" x="0.640856993" y="0.782306212" width="131" height="23.1408451" rx="4"></rect>
        <rect id="path-16" x="0.756618589" y="0.322096198" width="119.572963" height="23.1408451" rx="4"></rect>
        <rect id="path-17" x="0.694829459" y="0.322096198" width="109.808057" height="23.1408451" rx="4"></rect>
        <path d="M0.640856993,0.782306212 L125.640857,0.782306212 C128.954565,0.782306212 131.640857,3.46859771 131.640857,6.78230621 L131.640857,23.9231513 L0.640856993,23.9231513 L0.640856993,0.782306212 Z" id="path-18"></path>
        <path d="M0.640856993,0.322096198 L114.21382,0.322096198 C117.527528,0.322096198 120.21382,3.0083877 120.21382,6.3220962 L120.21382,23.4629413 L0.640856993,23.4629413 L0.640856993,0.322096198 Z" id="path-19"></path>
        <path d="M6.64085699,0.322096198 L104.448914,0.322096198 C107.762622,0.322096198 110.448914,3.0083877 110.448914,6.3220962 L110.448914,23.4629413 L0.640856993,23.4629413 L0.640856993,6.3220962 C0.640856993,3.0083877 3.32714849,0.322096198 6.64085699,0.322096198 Z" id="path-20"></path>
        <path d="M115.152151,128.379959 L137.646698,128.379959 C141.144501,128.379959 143.980031,125.544429 143.980031,122.046626 L143.980031,75.9093676 C143.980031,69.3509862 149.29665,64.0343676 155.855031,64.0343676 L172.555399,64.0343676 C176.578949,64.0343676 179.840681,67.2960996 179.840681,71.3196499 L179.840681,71.3196499 C179.840681,75.3432002 176.578949,78.6049322 172.555399,78.6049322 L161.898286,78.6049322 C159.712159,78.6049322 157.939953,80.3771384 157.939953,82.5632655 L157.939953,129.03158 C157.939953,136.027187 152.268893,141.698247 145.273286,141.698247 L115.152151,141.698247 L115.152151,128.379959 Z" id="path-21"></path>
        <path d="M0,0 L109.25,0 L109.25,122.100655 L7.91666667,122.100655 C3.5444124,122.100655 5.86451724e-15,118.556243 5.32907052e-15,114.183989 L0,0 Z" id="path-22"></path>
        <path d="M28.4375,0.441253174 L45.8541667,0.441253174 C50.6636464,0.441253174 54.5625,4.34010681 54.5625,9.14958651 L54.5625,24.9356538 L19.7291667,24.9356538 L19.7291667,9.14958651 C19.7291667,4.34010681 23.6280203,0.441253174 28.4375,0.441253174 Z" id="path-24"></path>
        <path d="M102.854167,0.441253174 L120.270833,0.441253174 C125.080313,0.441253174 128.979167,4.34010681 128.979167,9.14958651 L128.979167,24.9356538 L94.1458333,24.9356538 L94.1458333,9.14958651 C94.1458333,4.34010681 98.044687,0.441253174 102.854167,0.441253174 Z" id="path-25"></path>
        <path d="M115.152151,129.379959 L137.646698,129.379959 C141.144501,129.379959 143.980031,126.544429 143.980031,123.046626 L143.980031,76.9093676 C143.980031,70.3509862 149.29665,65.0343676 155.855031,65.0343676 L172.555399,65.0343676 C176.578949,65.0343676 179.840681,68.2960996 179.840681,72.3196499 L179.840681,72.3196499 C179.840681,76.3432002 176.578949,79.6049322 172.555399,79.6049322 L161.898286,79.6049322 C159.712159,79.6049322 157.939953,81.3771384 157.939953,83.5632655 L157.939953,130.03158 C157.939953,137.027187 152.268893,142.698247 145.273286,142.698247 L115.152151,142.698247 L115.152151,129.379959 Z" id="path-26"></path>
        <path d="M74.3734643,20 L74.3734643,9.12722917 C74.3734643,4.31774947 78.2723179,0.418895833 83.0817976,0.418895833 L100.498464,0.418895833 C105.307944,0.418895833 109.206798,4.31774947 109.206798,9.12722917 L109.206798,20 L109.25,20 L109.25,142.100655 L7.91666667,142.100655 C3.5444124,142.100655 5.86451724e-15,138.556243 5.32907052e-15,134.183989 L0,20 L0,9.12722917 C-5.88991392e-16,4.31774947 3.89885364,0.418895833 8.70833333,0.418895833 L26.125,0.418895833 C30.9344797,0.418895833 34.8333333,4.31774947 34.8333333,9.12722917 L34.8333333,20 L74.3734643,20 Z" id="path-27"></path>
    </defs>
    <g id="me" stroke="none" stroke-width="1" fill="none" fill-rule="evenodd">
        <g id="Group-9" transform="translate(2.000000, -1.000000)">
            <path d="M170.636941,163.404426 L315.849221,163.404426" id="Line-Copy" stroke="#0F0F0F" stroke-width="5" stroke-linecap="round"></path>
            <path d="M72.5,125.5 L458.5,125.5" id="Line-Copy-2" stroke="#0F0F0F" stroke-width="5" stroke-linecap="round"></path>
            <path d="M329.130385,89.5 L734.426612,89.5" id="Line-Copy-3" stroke="#0F0F0F" stroke-width="5" stroke-linecap="round"></path>
            <path d="M504.5,14.7854787 L575.5,14.7854787" id="Line-Copy-5" stroke="#0F0F0F" stroke-width="5" stroke-linecap="round"></path>
            <path d="M295.364541,14.7854787 L491.351719,14.7854787" id="Line-Copy-12" stroke="#0F0F0F" stroke-width="5" stroke-linecap="round"></path>
            <path d="M747.105821,89.5 L772.794756,89.5" id="Line-Copy-9" stroke="#0F0F0F" stroke-width="5" stroke-linecap="round"></path>
            <path d="M328.5,163.404426 L333.060763,163.404426" id="Line-Copy-6" stroke="#0F0F0F" stroke-width="5" stroke-linecap="round"></path>
            <path d="M279.311842,201 L424.524123,201" id="Line-Copy-8" stroke="#0F0F0F" stroke-width="5" stroke-linecap="round"></path>
            <path d="M241.427115,201 L268.903967,201" id="Line-Copy-7" stroke="#0F0F0F" stroke-width="5" stroke-linecap="round"></path>
            <path d="M524.675338,179.193295 L669.887619,179.193295" id="Line-Copy-11" stroke="#0F0F0F" stroke-width="5" stroke-linecap="round"></path>
            <path d="M678.176108,179.193295 L682.736871,179.193295" id="Line-Copy-10" stroke="#0F0F0F" stroke-width="5" stroke-linecap="round"></path>
            <path d="M126.130385,49.5 L531.426612,49.5" id="Line-Copy-4" stroke="#0F0F0F" stroke-width="5" stroke-linecap="round"></path>
            <g id="Group-13" transform="translate(356.500000, 0.000000)">
                <g id="Group-Copy-4" opacity="0.100000001" transform="translate(2.327523, 0.904426)">
                    <g id="Body" transform="translate(0.000000, 13.000000)">
                        <mask id="mask-2" fill="white">
                            <use xlink:href="#path-1"></use>
                        </mask>
                        <use fill="#0F0F0F" xlink:href="#path-1"></use>
                        <g id="Group-2" transform="translate(0.000000, 168.000000)">
                            <mask id="mask-4" fill="white">
                                <use xlink:href="#path-3"></use>
                            </mask>
                            <use id="Hoodie" fill="#1C1C1C" xlink:href="#path-3"></use>
                            <path d="M68.5891538,48.7390531 L68.5891538,106.845959 C68.5891538,108.778956 67.0221504,110.345959 65.0891538,110.345959 C63.1561572,110.345959 61.5891538,108.778956 61.5891538,106.845959 L61.5891538,45.1502625 C63.792908,46.4600576 66.1359232,47.6607878 68.5891538,48.7390531 Z M135.589154,45.1502625 L135.589154,67.6729796 C135.589154,69.6059762 134.02215,71.1729796 132.089154,71.1729796 C130.156157,71.1729796 128.589154,69.6059762 128.589154,67.6729796 L128.589154,48.7390531 C131.042384,47.6607878 133.3854,46.4600576 135.589154,45.1502625 Z" id="Straps" fill="#F1F1F1" mask="url(#mask-4)"></path>
                            <path d="M98.5789689,54.9999995 C65.120131,54.9967574 32.0891538,39.0180096 32.0891538,19.3076923 C32.0891538,8.24288473 42.4984633,2.57117818 57.5492867,-0.275646301 C48.4642333,3.07445977 42.5891538,8.70605458 42.5891538,18.0769231 C42.5891538,38.4665186 70.4036552,54.9960167 98.5789689,54.9999993 Z M139.629021,-0.275646301 C154.679844,2.57117818 165.089154,8.24288473 165.089154,19.3076923 C165.089154,39.0180096 132.058177,54.9967574 98.5993386,54.9999995 C126.774652,54.9960167 154.589154,38.4665186 154.589154,18.0769231 C154.589154,8.70605458 148.714074,3.07445977 139.629021,-0.275646301 Z" id="Shadow" fill-opacity="0.16" fill="#000000" mask="url(#mask-4)"></path>
                        </g>
                        <g id="Face" transform="translate(52.000000, 52.000000)">
                            <g id="ðŸ‘„-Mouth" transform="translate(31.000000, 65.000000)" fill="#0F0F0F">
                                <path d="M0.452565681,1.45256568 C0.452565681,3.95197852 5.48452555,14.9083324 14.2580627,14.4249554 C23.0315999,13.9415784 25.5474343,3.5787344 25.5474343,1.45256568 C25.5474343,-0.673603041 20.2736767,3.37485915 14.2580627,3.68340379 C6.56975151,3.68340379 0.452565681,-1.04684716 0.452565681,1.45256568 Z" id="Mouth"></path>
                            </g>
                            <g id="ðŸ‘ƒðŸ½-Nose" transform="translate(32.000000, 40.000000)" fill="#C39662" opacity="0.206351902">
                                <path d="M0.964159294,0.172094155 C0.964159294,4.59037215 6.3367423,8.17209416 12.9641593,8.17209416 C19.5915763,8.17209416 24.9641593,4.59037215 24.9641593,0.172094155" id="Nose"></path>
                            </g>
                            <g id="ðŸ‘-Eyes" transform="translate(12.000000, 18.000000)" fill="#0F0F0F">
                                <circle id="Eye" cx="6" cy="6" r="6"></circle>
                                <circle id="Eye" cx="58" cy="6" r="6"></circle>
                            </g>
                            <g id="I-Browse" fill="#0F0F0F" fill-rule="nonzero">
                                <path d="M3.63024536,11.1585767 C7.54515501,5.64986673 18.2779197,2.56083721 27.5230268,4.83118046 C28.5957248,5.0946055 29.6788665,4.43856013 29.9422916,3.36586212 C30.2057166,2.2931641 29.5496712,1.21002236 28.4769732,0.94659732 C17.7403633,-1.69001789 5.31209962,1.88699832 0.369754639,8.84142326 C-0.270109626,9.74178291 -0.0589363917,10.9903811 0.84142326,11.6302454 C1.74178291,12.2701096 2.9903811,12.0589364 3.63024536,11.1585767 Z" id="Eyebrow"></path>
                                <path d="M61.6302454,11.1585767 C65.545155,5.64986673 76.2779197,2.56083721 85.5230268,4.83118046 C86.5957248,5.0946055 87.6788665,4.43856013 87.9422916,3.36586212 C88.2057166,2.2931641 87.5496712,1.21002236 86.4769732,0.94659732 C75.7403633,-1.69001789 63.3120996,1.88699832 58.3697546,8.84142326 C57.7298904,9.74178291 57.9410636,10.9903811 58.8414233,11.6302454 C59.7417829,12.2701096 60.9903811,12.0589364 61.6302454,11.1585767 Z" id="Eyebrow" transform="translate(73.000154, 6.039198) scale(-1, 1) translate(-73.000154, -6.039198) "></path>
                            </g>
                        </g>
                    </g>
                    <mask id="mask-6" fill="white">
                        <use xlink:href="#path-5"></use>
                    </mask>
                    <use id="Glorious-Beard" fill="#0F0F0F" xlink:href="#path-5"></use>
                    <path d="M143.574749,23.8786499 C140.923006,21.0586403 137.844143,18.6650713 134.849483,16.2647919 C134.188716,15.7356836 133.517344,15.2193249 132.871362,14.6700857 C132.724489,14.5452738 131.220088,13.4239803 131.040113,13.011296 C130.606887,12.018505 130.857888,12.7915332 130.917666,11.6068272 C130.993191,10.1087496 133.928395,5.87756093 131.73816,4.90724949 C130.774649,4.48047351 129.055886,5.61619419 128.131584,5.99130076 C126.323796,6.72540914 124.493833,7.35148145 122.624983,7.89132623 C123.52036,6.03458229 125.227554,2.31773923 122.018852,3.31254332 C119.519124,4.08758461 117.189729,6.08021242 114.677789,7.01764332 C115.508889,5.59975392 118.832647,1.20617568 115.829309,0.960578178 C114.894723,0.884080595 112.175168,2.70861504 111.168913,3.09781326 C108.15497,4.26373036 105.076429,5.01729865 101.912077,5.61082594 C91.152448,7.62895295 78.5702473,7.0535435 68.6153644,12.1517047 C60.9407041,16.0819358 53.3624591,22.1802694 48.9289608,29.9457805 C44.6558334,37.4308005 43.0575886,45.6224166 42.1631757,54.1995403 C41.5069087,60.4941505 41.4535588,67.0008067 41.760481,73.3182321 C41.8607529,75.3880285 42.0844365,84.9290888 44.9736826,82.0396275 C46.4131634,80.5999296 46.4025578,74.7864488 46.7650794,72.8186492 C47.4865875,68.9035163 48.1810992,64.9709367 49.3840412,61.1809512 C51.5038929,54.5021754 53.2830993,46.8901793 59.2855742,42.7879799 C64.8769155,38.9667566 81.134646,32.1393822 86.6646357,32.1393822 C92.1946254,32.1393822 93.4562866,35.9891701 107.109646,34.9227082 C120.763006,33.8562462 123.494328,29.8988083 124.990372,30.8251672 C126.35947,31.6726799 127.781275,34.4400135 128.76439,35.5733855 C131.087035,38.2518075 133.856405,40.2974468 136.572425,42.4937326 C142.235861,47.0731866 145.095219,52.8249324 146.815268,59.9814825 C148.52889,67.1115269 148.04842,73.7263915 150.169557,80.7430316 C150.542685,81.9767229 151.529656,84.1032214 152.746418,82.1971567 C152.972351,81.8431876 152.913859,79.8972693 152.913859,78.7775806 C152.913859,74.2578349 154.013637,70.8666188 153.999817,66.3173612 C153.945825,52.4853905 153.516134,34.4490724 143.574749,23.8786499 Z" id="Short-Hair" fill="#0F0F0F"></path>
                </g>
                <g id="Group-Copy-3" transform="translate(0.327523, 0.904426)">
                    <g id="Body" transform="translate(0.000000, 13.000000)">
                        <mask id="mask-8" fill="white">
                            <use xlink:href="#path-7"></use>
                        </mask>
                        <use fill="#FEE0BD" xlink:href="#path-7"></use>
                        <g id="Group-2" transform="translate(0.000000, 169.000000)">
                            <mask id="mask-10" fill="white">
                                <use xlink:href="#path-9"></use>
                            </mask>
                            <use id="Hoodie" fill="#0173EC" xlink:href="#path-9"></use>
                            <path d="M67.5891538,48.7390531 L67.5891538,106.845959 C67.5891538,108.778956 66.0221504,110.345959 64.0891538,110.345959 C62.1561572,110.345959 60.5891538,108.778956 60.5891538,106.845959 L60.5891538,45.1502625 C62.792908,46.4600576 65.1359232,47.6607878 67.5891538,48.7390531 Z M134.589154,45.1502625 L134.589154,67.6729796 C134.589154,69.6059762 133.02215,71.1729796 131.089154,71.1729796 C129.156157,71.1729796 127.589154,69.6059762 127.589154,67.6729796 L127.589154,48.7390531 C130.042384,47.6607878 132.3854,46.4600576 134.589154,45.1502625 Z" id="Straps" fill="#FDFDFD" mask="url(#mask-10)"></path>
                            <path d="M97.5789689,54.9999995 C64.120131,54.9967574 31.0891538,39.0180096 31.0891538,19.3076923 C31.0891538,8.24288473 41.4984633,2.57117818 56.5492867,-0.275646301 C47.4642333,3.07445977 41.5891538,8.70605458 41.5891538,18.0769231 C41.5891538,38.4665186 69.4036552,54.9960167 97.5789689,54.9999993 Z M138.629021,-0.275646301 C153.679844,2.57117818 164.089154,8.24288473 164.089154,19.3076923 C164.089154,39.0180096 131.058177,54.9967574 97.5993386,54.9999995 C125.774652,54.9960167 153.589154,38.4665186 153.589154,18.0769231 C153.589154,8.70605458 147.714074,3.07445977 138.629021,-0.275646301 Z" id="Shadow" fill-opacity="0.16" fill="#000000" mask="url(#mask-10)"></path>
                        </g>
                        <g id="Face" transform="translate(51.000000, 52.000000)">
                            <g id="ðŸ‘„-Mouth" transform="translate(31.000000, 67.000000)" fill="#0F0F0F">
                                <path d="M0.452565681,1.34964742 C0.452565681,2.61158551 6.82902837,10.0259404 15.6311664,10.0259404 C24.521382,10.0259404 28.1445569,6.77066758 28.1445569,4.50911388 C28.1445569,2.24756018 21.6467804,4.54389096 15.6311664,4.8524356 C7.06201706,4.50911388 0.452565681,-1.14976542 0.452565681,1.34964742 Z" id="Mouth"></path>
                            </g>
                            <g id="ðŸ‘ƒðŸ½-Nose" transform="translate(32.000000, 40.000000)" fill="#C39662" opacity="0.206351902">
                                <path d="M0.964159294,0.172094155 C0.964159294,4.59037215 6.3367423,8.17209416 12.9641593,8.17209416 C19.5915763,8.17209416 24.9641593,4.59037215 24.9641593,0.172094155" id="Nose"></path>
                            </g>
                            <g id="ðŸ‘-Eyes" transform="translate(12.000000, 18.000000)" fill="#0F0F0F">
                                <circle id="Eye" cx="6" cy="6" r="6"></circle>
                                <circle id="Eye" cx="58" cy="6" r="6"></circle>
                            </g>
                            <g id="I-Browse" fill="#0F0F0F" fill-rule="nonzero">
                                <path d="M3.63024536,11.1585767 C7.54515501,5.64986673 18.2779197,2.56083721 27.5230268,4.83118046 C28.5957248,5.0946055 29.6788665,4.43856013 29.9422916,3.36586212 C30.2057166,2.2931641 29.5496712,1.21002236 28.4769732,0.94659732 C17.7403633,-1.69001789 5.31209962,1.88699832 0.369754639,8.84142326 C-0.270109626,9.74178291 -0.0589363917,10.9903811 0.84142326,11.6302454 C1.74178291,12.2701096 2.9903811,12.0589364 3.63024536,11.1585767 Z" id="Eyebrow"></path>
                                <path d="M61.6302454,11.1585767 C65.545155,5.64986673 76.2779197,2.56083721 85.5230268,4.83118046 C86.5957248,5.0946055 87.6788665,4.43856013 87.9422916,3.36586212 C88.2057166,2.2931641 87.5496712,1.21002236 86.4769732,0.94659732 C75.7403633,-1.69001789 63.3120996,1.88699832 58.3697546,8.84142326 C57.7298904,9.74178291 57.9410636,10.9903811 58.8414233,11.6302454 C59.7417829,12.2701096 60.9903811,12.0589364 61.6302454,11.1585767 Z" id="Eyebrow" transform="translate(73.000154, 6.039198) scale(-1, 1) translate(-73.000154, -6.039198) "></path>
                            </g>
                        </g>
                    </g>
                    <mask id="mask-12" fill="white">
                        <use xlink:href="#path-11"></use>
                    </mask>
                    <use id="Glorious-Beard" fill="#B59750" xlink:href="#path-11"></use>
                    <path d="M142.574749,23.8786499 C139.923006,21.0586403 136.844143,18.6650713 133.849483,16.2647919 C133.188716,15.7356836 132.517344,15.2193249 131.871362,14.6700857 C131.724489,14.5452738 130.220088,13.4239803 130.040113,13.011296 C129.606887,12.018505 129.857888,12.7915332 129.917666,11.6068272 C129.993191,10.1087496 132.928395,5.87756093 130.73816,4.90724949 C129.774649,4.48047351 128.055886,5.61619419 127.131584,5.99130076 C125.323796,6.72540914 123.493833,7.35148145 121.624983,7.89132623 C122.52036,6.03458229 124.227554,2.31773923 121.018852,3.31254332 C118.519124,4.08758461 116.189729,6.08021242 113.677789,7.01764332 C114.508889,5.59975392 117.832647,1.20617568 114.829309,0.960578178 C113.894723,0.884080595 111.175168,2.70861504 110.168913,3.09781326 C107.15497,4.26373036 104.076429,5.01729865 100.912077,5.61082594 C90.152448,7.62895295 77.5702473,7.0535435 67.6153644,12.1517047 C59.9407041,16.0819358 52.3624591,22.1802694 47.9289608,29.9457805 C43.6558334,37.4308005 42.0575886,45.6224166 41.1631757,54.1995403 C40.5069087,60.4941505 40.4535588,67.0008067 40.760481,73.3182321 C40.8607529,75.3880285 41.0844365,84.9290888 43.9736826,82.0396275 C45.4131634,80.5999296 45.4025578,74.7864488 45.7650794,72.8186492 C46.4865875,68.9035163 47.1810992,64.9709367 48.3840412,61.1809512 C50.5038929,54.5021754 52.2830993,46.8901793 58.2855742,42.7879799 C63.8769155,38.9667566 80.134646,32.1393822 85.6646357,32.1393822 C91.1946254,32.1393822 92.4562866,35.9891701 106.109646,34.9227082 C119.763006,33.8562462 122.494328,29.8988083 123.990372,30.8251672 C125.35947,31.6726799 126.781275,34.4400135 127.76439,35.5733855 C130.087035,38.2518075 132.856405,40.2974468 135.572425,42.4937326 C141.235861,47.0731866 144.095219,52.8249324 145.815268,59.9814825 C147.52889,67.1115269 147.04842,73.7263915 149.169557,80.7430316 C149.542685,81.9767229 150.529656,84.1032214 151.746418,82.1971567 C151.972351,81.8431876 151.913859,79.8972693 151.913859,78.7775806 C151.913859,74.2578349 153.013637,70.8666188 152.999817,66.3173612 C152.945825,52.4853905 152.516134,34.4490724 142.574749,23.8786499 Z" id="Short-Hair" fill="#B59750"></path>
                </g>
            </g>
            <g id="Group-11" transform="translate(328.000000, 259.000000)">
                <g id="Group-12-Copy" opacity="0.170000002" transform="translate(4.325213, 0.677087)">
                    <path d="M2.0250583,0.14361153 L244.216343,0.14361153 C246.425482,0.14361153 248.216343,1.93447253 248.216343,4.14361153 C248.216343,4.44531237 248.182209,4.74604469 248.114594,5.04007108 L236.120897,57.194615 C235.912048,58.102794 235.103655,58.7463853 234.171772,58.7463853 L14.0306786,58.7463853 C13.0916025,58.7463853 12.2789967,58.0930384 12.0773372,57.1758703 L0.0717169047,2.57309658 C-0.165481139,1.49429592 0.516772585,0.427468182 1.59557325,0.190270139 C1.73663031,0.159255642 1.88063186,0.14361153 2.0250583,0.14361153 Z" id="Rectangle" fill="#959595"></path>
                    <ellipse id="Oval" fill="#F1F1F1" cx="124.709423" cy="34.5091654" rx="10.7434152" ry="7.86781946"></ellipse>
                </g>
                <g id="Group-12" transform="translate(0.208624, 0.677087)">
                    <path d="M4.51257539,0.14361153 L244.216343,0.14361153 C246.425482,0.14361153 248.216343,1.93447253 248.216343,4.14361153 C248.216343,4.44531237 248.182209,4.74604469 248.114594,5.04007108 L236.120897,57.194615 C235.912048,58.102794 235.103655,58.7463853 234.171772,58.7463853 L14.0306786,58.7463853 C13.0916025,58.7463853 12.2789967,58.0930384 12.0773372,57.1758703 L0.605892606,5.00258163 C0.131496519,2.84498031 1.49600397,0.711324834 3.65360529,0.236928747 C3.93571942,0.174899754 4.22372253,0.14361153 4.51257539,0.14361153 Z" id="Rectangle" fill="#88929A"></path>
                    <g id="Group-14" transform="translate(115.000000, 22.000000)">
                        <path d="M11.8545955,0.420782522 L11.8545955,0.420782522 C12.2917525,0.350943014 12.7027544,0.648712696 12.7725939,1.08586972 C12.7829146,1.15047138 12.7852878,1.21609355 12.7796608,1.28127197 L12.3546685,6.20396218 C12.3438448,6.32933303 12.2345883,6.42292755 12.1090418,6.41437804 L12.1090418,6.41437804 C11.9761363,6.40532739 11.8664381,6.30700052 11.8429545,6.17587348 L11.022166,1.59278017 C10.9241172,1.04529832 11.2884546,0.521992326 11.8359365,0.423943524 C11.8421461,0.422831439 11.848366,0.421777725 11.8545955,0.420782522 Z" id="Rectangle-4" fill="#F1F1F1" transform="translate(11.894427, 3.412773) rotate(54.000000) translate(-11.894427, -3.412773) "></path>
                        <path d="M9.51500385,20.6259038 C10.2207079,20.6259038 11.0756347,21.3028643 11.938264,21.3028643 C15.9869429,21.3028643 17.2192103,17.5309877 17.2192103,13.3994231 C17.2192103,9.17702818 16.1630534,5.53160367 11.9968247,5.53160367 C10.8635174,5.53160367 10.1389834,6.05770546 9.37655132,6.05770546 C8.6141192,6.05770546 8.56247305,5.53160367 7.12566661,5.53160367 C2.97937846,5.53160367 0.535520539,9.19213809 0.535520539,13.3994231 C0.535520539,17.544831 2.98980104,21.3028643 7.05616202,21.3028643 C7.84592414,21.3028643 8.80929976,20.6259038 9.51500385,20.6259038 Z" id="Oval" fill="#F1F1F1"></path>
                        <ellipse id="Oval-3" fill="#88929A" cx="17.7510884" cy="12.6977883" rx="3.5" ry="2.90555837"></ellipse>
                    </g>
                </g>
            </g>
            <g id="Group-20" transform="translate(231.703773, 242.404426)">
                <g id="Group-3-Copy-4" opacity="0.1" transform="translate(3.925723, 0.354133)">
                    <g id="Group" transform="translate(0.282532, 34.895014)">
                        <g id="Rectangle-2" transform="translate(22.740875, 21.546252) rotate(-180.000000) translate(-22.740875, -21.546252) ">
                            <use fill="#F1F1F1" fill-rule="evenodd" xlink:href="#path-13"></use>
                            <path stroke="#0F0F0F" stroke-width="5" d="M10.3946214,0.379711406 L35.087129,0.379711406 C41.9906884,0.379711406 47.587129,5.97615203 47.587129,12.8797114 L47.587129,42.7127933 L-2.10537863,42.7127933 L-2.10537863,12.8797114 C-2.10537863,5.97615203 3.491062,0.379711406 10.3946214,0.379711406 Z"></path>
                        </g>
                        <path d="M50.0499054,0.385146331 C58.8134832,0.344763273 63.1952721,4.91132122 63.1952721,14.0848202 C63.1952721,23.2583191 58.1405392,27.7850495 48.0310734,27.6650114" id="Path-2" stroke="#0F0F0F" stroke-width="5"></path>
                    </g>
                    <g id="Group-3-Copy-2" transform="translate(22.426797, 16.382325) rotate(46.000000) translate(-22.426797, -16.382325) translate(14.926797, 8.882325)" stroke="#0F0F0F" stroke-linecap="round" stroke-linejoin="round" stroke-width="5">
                        <path d="M14.7325499,14.6474489 C14.7325499,10.7020452 11.4427204,7.50333086 7.38431414,7.50333086" id="Stroke-156"></path>
                        <path d="M0.0362997303,0.359454856 C0.0362997303,4.30485862 3.32612922,7.50357294 7.38453548,7.50357294" id="Stroke-158"></path>
                    </g>
                    <g id="Group-3-Copy-3" transform="translate(11.072560, 11.909219) rotate(46.000000) translate(-11.072560, -11.909219) translate(3.572560, 4.409219)" stroke="#0F0F0F" stroke-linecap="round" stroke-linejoin="round" stroke-width="5">
                        <path d="M14.7325499,14.6474489 C14.7325499,10.7020452 11.4427204,7.50333086 7.38431414,7.50333086" id="Stroke-156"></path>
                        <path d="M0.0362997303,0.359454856 C0.0362997303,4.30485862 3.32612922,7.50357294 7.38453548,7.50357294" id="Stroke-158"></path>
                    </g>
                    <g id="Group-3-Copy" transform="translate(33.781035, 11.459388) rotate(46.000000) translate(-33.781035, -11.459388) translate(26.281035, 3.959388)" stroke="#0F0F0F" stroke-linecap="round" stroke-linejoin="round" stroke-width="5">
                        <path d="M14.7325499,14.6474489 C14.7325499,10.7020452 11.4427204,7.50333086 7.38431414,7.50333086" id="Stroke-156"></path>
                        <path d="M0.0362997303,0.359454856 C0.0362997303,4.30485862 3.32612922,7.50357294 7.38453548,7.50357294" id="Stroke-158"></path>
                    </g>
                </g>
                <g id="Group-3" transform="translate(0.925723, 0.354133)">
                    <g id="Group" transform="translate(0.282532, 34.895014)">
                        <g id="Rectangle-2" transform="translate(22.740875, 21.546252) rotate(-180.000000) translate(-22.740875, -21.546252) ">
                            <use fill="#FDFDFD" fill-rule="evenodd" xlink:href="#path-14"></use>
                            <path stroke="#0F0F0F" stroke-width="5" d="M10.3946214,0.379711406 L35.087129,0.379711406 C41.9906884,0.379711406 47.587129,5.97615203 47.587129,12.8797114 L47.587129,42.7127933 L-2.10537863,42.7127933 L-2.10537863,12.8797114 C-2.10537863,5.97615203 3.491062,0.379711406 10.3946214,0.379711406 Z"></path>
                        </g>
                        <path d="M50.0499054,0.385146331 C58.8134832,0.344763273 63.1952721,4.91132122 63.1952721,14.0848202 C63.1952721,23.2583191 58.1405392,27.7850495 48.0310734,27.6650114" id="Path-2" stroke="#0F0F0F" stroke-width="5"></path>
                        <path d="M0.394621368,32.2511078 L47.1332297,32.2511078" id="Path-4" stroke="#0F0F0F" stroke-width="5"></path>
                    </g>
                    <g id="Group-3-Copy-2" transform="translate(22.426797, 16.382325) rotate(46.000000) translate(-22.426797, -16.382325) translate(14.926797, 8.882325)" stroke="#0F0F0F" stroke-linecap="round" stroke-linejoin="round" stroke-width="5">
                        <path d="M14.7325499,14.6474489 C14.7325499,10.7020452 11.4427204,7.50333086 7.38431414,7.50333086" id="Stroke-156"></path>
                        <path d="M0.0362997303,0.359454856 C0.0362997303,4.30485862 3.32612922,7.50357294 7.38453548,7.50357294" id="Stroke-158"></path>
                    </g>
                    <g id="Group-3-Copy-3" transform="translate(11.072560, 11.909219) rotate(46.000000) translate(-11.072560, -11.909219) translate(3.572560, 4.409219)" stroke="#0F0F0F" stroke-linecap="round" stroke-linejoin="round" stroke-width="5">
                        <path d="M14.7325499,14.6474489 C14.7325499,10.7020452 11.4427204,7.50333086 7.38431414,7.50333086" id="Stroke-156"></path>
                        <path d="M0.0362997303,0.359454856 C0.0362997303,4.30485862 3.32612922,7.50357294 7.38453548,7.50357294" id="Stroke-158"></path>
                    </g>
                    <g id="Group-3-Copy" transform="translate(33.781035, 11.459388) rotate(46.000000) translate(-33.781035, -11.459388) translate(26.281035, 3.959388)" stroke="#0F0F0F" stroke-linecap="round" stroke-linejoin="round" stroke-width="5">
                        <path d="M14.7325499,14.6474489 C14.7325499,10.7020452 11.4427204,7.50333086 7.38431414,7.50333086" id="Stroke-156"></path>
                        <path d="M0.0362997303,0.359454856 C0.0362997303,4.30485862 3.32612922,7.50357294 7.38453548,7.50357294" id="Stroke-158"></path>
                    </g>
                </g>
            </g>
            <g id="Group-8" transform="translate(731.211710, 111.904426)">
                <g id="Group-4-Copy" opacity="0.15" transform="translate(5.000000, 0.000000)">
                    <polygon id="Stroke-144" stroke="#0F0F0F" stroke-width="5" fill="#F1F1F1" stroke-linecap="round" stroke-linejoin="round" points="106.190319 145.014206 40.7745133 145.014206 47.2300417 208.577418 99.7347907 208.577418"></polygon>
                    <path d="M30.0681745,81.4421498 C24.9328016,78.4803534 21.4758662,72.9331178 21.4758662,66.5789412 C21.4758662,57.1099722 38.621104,36.3360818 38.621104,36.3360818 C38.621104,36.3360818 55.7669874,57.1099722 55.7669874,66.5789412 C55.7669874,76.0485558 48.0907186,83.7248246 38.621104,83.7248246" id="Fill-59" fill="#F1F1F1"></path>
                    <path d="M107.2231,63.6784213 C102.087728,60.7166249 98.6307922,55.1693894 98.6307922,48.8152128 C98.6307922,39.3462437 115.77603,18.5723534 115.77603,18.5723534 C115.77603,18.5723534 132.921913,39.3462437 132.921913,48.8152128 C132.921913,58.2848274 125.245645,65.9610962 115.77603,65.9610962" id="Fill-59-Copy" fill="#F1F1F1"></path>
                    <path d="M81.4658004,45.1943069 C86.6011732,42.2325105 90.0581087,36.6852749 90.0581087,30.3310983 C90.0581087,20.8621293 72.9128708,0.0882389268 72.9128708,0.0882389268 C72.9128708,0.0882389268 55.7669874,20.8621293 55.7669874,30.3310983 C55.7669874,39.8007129 63.4432562,47.4769817 72.9128708,47.4769817" id="Fill-60" fill="#F1F1F1"></path>
                    <path d="M121.329076,127.008446 L24.4961497,127.008446 C24.4961497,136.952542 32.557168,145.014206 42.5012639,145.014206 L103.323961,145.014206 C113.268057,145.014206 121.329076,136.952542 121.329076,127.008446 L121.329076,127.008446 Z" id="Stroke-143" stroke="#0F0F0F" stroke-width="5" fill="#F1F1F1" stroke-linecap="round" stroke-linejoin="round"></path>
                    <path d="M47.5208246,168.40607 L67.3179935,168.40607" id="Stroke-149" stroke="#0F0F0F" stroke-width="3" stroke-linecap="round" stroke-linejoin="round"></path>
                    <path d="M48.8119303,176.367867 L68.6090992,176.367867" id="Stroke-150" stroke="#0F0F0F" stroke-width="3" stroke-linecap="round" stroke-linejoin="round"></path>
                    <path d="M50.1030359,184.329664 L69.9002048,184.329664" id="Stroke-151" stroke="#0F0F0F" stroke-width="3" stroke-linecap="round" stroke-linejoin="round"></path>
                    <path d="M51.3941416,192.291525 L71.1913105,192.291525" id="Stroke-152" stroke="#0F0F0F" stroke-width="3" stroke-linecap="round" stroke-linejoin="round"></path>
                    <path d="M52.6852473,200.253322 L72.4824162,200.253322" id="Stroke-153" stroke="#0F0F0F" stroke-width="3" stroke-linecap="round" stroke-linejoin="round"></path>
                    <path d="M72.9126126,127.008446 L72.9126126,92.7173247" id="Stroke-154" stroke="#0F0F0F" stroke-width="5" stroke-linecap="round" stroke-linejoin="round"></path>
                    <path d="M72.9126126,91.5314441 L72.9126126,57.2403229" id="Stroke-155" stroke="#0F0F0F" stroke-width="5" stroke-linecap="round" stroke-linejoin="round"></path>
                    <path d="M72.9126126,118.435633 C72.9126126,108.966664 65.2363438,101.28975 55.7667292,101.28975" id="Stroke-156" stroke="#0F0F0F" stroke-width="5" stroke-linecap="round" stroke-linejoin="round"></path>
                    <path d="M90.0582378,80.4479474 C80.5886232,80.4479474 72.9123544,88.1242162 72.9123544,97.5938308" id="Stroke-157" stroke="#0F0F0F" stroke-width="5" stroke-linecap="round" stroke-linejoin="round"></path>
                    <path d="M38.6213622,84.1444475 C38.6213622,93.6134166 46.2976311,101.290331 55.7672457,101.290331" id="Stroke-158" stroke="#0F0F0F" stroke-width="5" stroke-linecap="round" stroke-linejoin="round"></path>
                    <path d="M90.0582378,80.3237431 C99.5272068,80.3237431 107.203476,72.6474743 107.203476,63.1778597" id="Stroke-160" stroke="#0F0F0F" stroke-width="5" stroke-linecap="round" stroke-linejoin="round"></path>
                    <path d="M30.0681745,81.4421498 C24.9328016,78.4803534 21.4758662,72.9331178 21.4758662,66.5789412 C21.4758662,57.1099722 38.621104,36.3360818 38.621104,36.3360818 C38.621104,36.3360818 55.7669874,57.1099722 55.7669874,66.5789412 C55.7669874,76.0485558 48.0907186,83.7248246 38.621104,83.7248246" id="Stroke-161" stroke="#0F0F0F" stroke-width="5" stroke-linecap="round" stroke-linejoin="round"></path>
                    <path d="M38.6213622,76.8187004 L38.6213622,60.0304532" id="Stroke-163" stroke="#0F0F0F" stroke-width="5" stroke-linecap="round" stroke-linejoin="round"></path>
                    <path d="M38.6213622,73.9610962 L44.1873188,68.3951396" id="Stroke-164" stroke="#0F0F0F" stroke-width="5" stroke-linecap="round" stroke-linejoin="round"></path>
                    <path d="M107.223165,61.982554 C102.087792,59.0207576 98.6308567,53.4735221 98.6308567,47.1193455 C98.6308567,37.6503764 115.776095,16.8764861 115.776095,16.8764861 C115.776095,16.8764861 132.921978,37.6503764 132.921978,47.1193455 C132.921978,56.5889601 125.245709,64.2652289 115.776095,64.2652289" id="Stroke-161-Copy" stroke="#0F0F0F" stroke-width="5" stroke-linecap="round" stroke-linejoin="round" transform="translate(115.776417, 40.570857) scale(-1, 1) translate(-115.776417, -40.570857) "></path>
                    <path d="M115.776353,57.3591046 L115.776353,40.5708575" id="Stroke-163-Copy" stroke="#0F0F0F" stroke-width="5" stroke-linecap="round" stroke-linejoin="round"></path>
                    <path d="M115.776353,54.5015004 L121.342309,48.9355438" id="Stroke-164-Copy" stroke="#0F0F0F" stroke-width="5" stroke-linecap="round" stroke-linejoin="round"></path>
                    <path d="M81.4658004,45.1943069 C86.6011732,42.2325105 90.0581087,36.6852749 90.0581087,30.3310983 C90.0581087,20.8621293 72.9128708,0.0882389268 72.9128708,0.0882389268 C72.9128708,0.0882389268 55.7669874,20.8621293 55.7669874,30.3310983 C55.7669874,39.8007129 63.4432562,47.4769817 72.9128708,47.4769817" id="Stroke-165" stroke="#0F0F0F" stroke-width="5" stroke-linecap="round" stroke-linejoin="round"></path>
                    <path d="M72.9126126,47.4767235 L72.9126126,57.2400646" id="Stroke-166" stroke="#0F0F0F" stroke-width="5" stroke-linecap="round" stroke-linejoin="round"></path>
                    <path d="M72.9126126,40.5708575 L72.9126126,23.7826103" id="Stroke-167" stroke="#0F0F0F" stroke-width="5" stroke-linecap="round" stroke-linejoin="round"></path>
                    <path d="M72.9126126,37.7132533 L78.4785692,32.1472967" id="Stroke-168" stroke="#0F0F0F" stroke-width="5" stroke-linecap="round" stroke-linejoin="round"></path>
                    <path d="M72.9126126,32.9505581 L67.346656,27.3846015" id="Stroke-169" stroke="#0F0F0F" stroke-width="5" stroke-linecap="round" stroke-linejoin="round"></path>
                    <path d="M72.9126126,76.2264838 C72.9126126,66.7575147 65.2363438,59.0806003 55.7667292,59.0806003" id="Stroke-174" stroke="#0F0F0F" stroke-width="5" stroke-linecap="round" stroke-linejoin="round"></path>
                    <path d="M7.35026628,38.355617 C7.35026628,47.8252316 15.0265351,55.5015004 24.4961497,55.5015004" id="Stroke-159" stroke="#0F0F0F" stroke-width="5" stroke-linecap="round" stroke-linejoin="round"></path>
                    <path d="M13.7405293,31.414181 C13.7405293,27.8849436 10.8794391,25.0238534 7.35020173,25.0238534 C3.82096436,25.0238534 0.959874175,27.8849436 0.959874175,31.414181 C0.959874175,34.9434184 3.82096436,37.8045085 7.35020173,37.8045085 C10.8794391,37.8045085 13.7405293,34.9434184 13.7405293,31.414181 L13.7405293,31.414181 Z" id="Stroke-173" stroke="#0F0F0F" stroke-width="5" fill="#F1F1F1" stroke-linecap="round" stroke-linejoin="round"></path>
                    <path d="M113.582441,90.3903276 C113.582441,86.8610902 110.721351,84 107.192114,84 C103.662877,84 100.801786,86.8610902 100.801786,90.3903276 C100.801786,93.9195649 103.662877,96.7806551 107.192114,96.7806551 C110.721351,96.7806551 113.582441,93.9195649 113.582441,90.3903276 L113.582441,90.3903276 Z" id="Stroke-173-Copy" stroke="#0F0F0F" stroke-width="5" fill="#F1F1F1" stroke-linecap="round" stroke-linejoin="round"></path>
                    <path d="M72.9012509,97.869329 C72.9012509,107.338298 80.5775197,115.015212 90.0471343,115.015212" id="Stroke-88" stroke="#0F0F0F" stroke-width="5" stroke-linecap="round" stroke-linejoin="round"></path>
                    <path d="M90.0468761,115.01489 C99.5158451,115.01489 107.192114,107.338621 107.192114,97.8690062" id="Stroke-95" stroke="#0F0F0F" stroke-width="5" stroke-linecap="round" stroke-linejoin="round"></path>
                </g>
                <g id="Group-4">
                    <path d="M30.0681745,81.4421498 C24.9328016,78.4803534 21.4758662,72.9331178 21.4758662,66.5789412 C21.4758662,57.1099722 38.621104,36.3360818 38.621104,36.3360818 C38.621104,36.3360818 55.7669874,57.1099722 55.7669874,66.5789412 C55.7669874,76.0485558 48.0907186,83.7248246 38.621104,83.7248246" id="Fill-59" fill="#FDFDFD"></path>
                    <path d="M107.2231,63.6784213 C102.087728,60.7166249 98.6307922,55.1693894 98.6307922,48.8152128 C98.6307922,39.3462437 115.77603,18.5723534 115.77603,18.5723534 C115.77603,18.5723534 132.921913,39.3462437 132.921913,48.8152128 C132.921913,58.2848274 125.245645,65.9610962 115.77603,65.9610962" id="Fill-59-Copy" fill="#FDFDFD"></path>
                    <path d="M81.4658004,45.1943069 C86.6011732,42.2325105 90.0581087,36.6852749 90.0581087,30.3310983 C90.0581087,20.8621293 72.9128708,0.0882389268 72.9128708,0.0882389268 C72.9128708,0.0882389268 55.7669874,20.8621293 55.7669874,30.3310983 C55.7669874,39.8007129 63.4432562,47.4769817 72.9128708,47.4769817" id="Fill-60" fill="#FDFDFD"></path>
                    <path d="M121.329076,127.008446 L24.4961497,127.008446 C24.4961497,136.952542 32.557168,145.014206 42.5012639,145.014206 L103.323961,145.014206 C113.268057,145.014206 121.329076,136.952542 121.329076,127.008446 L121.329076,127.008446 Z" id="Stroke-143" stroke="#0F0F0F" stroke-width="5" fill="#FDFDFD" stroke-linecap="round" stroke-linejoin="round"></path>
                    <polygon id="Path-5" stroke="#0F0F0F" stroke-width="5" fill="#FDFDFD" points="42.8762554 145.014206 49.5659076 208.95639 102.005781 208.95639 108.514926 145.014206"></polygon>
                    <path d="M50.3324654,181.354447 L66.28829,181.354447" id="Stroke-149" stroke="#0F0F0F" stroke-width="5" stroke-linecap="round" stroke-linejoin="round"></path>
                    <path d="M51.4110432,190.724038 L71.2082122,190.724038" id="Stroke-151" stroke="#0F0F0F" stroke-width="5" stroke-linecap="round" stroke-linejoin="round"></path>
                    <path d="M52.6852473,200.253322 L77.28829,200.253322" id="Stroke-153" stroke="#0F0F0F" stroke-width="5" stroke-linecap="round" stroke-linejoin="round"></path>
                    <path d="M72.9126126,127.008446 L72.9126126,92.7173247" id="Stroke-154" stroke="#0F0F0F" stroke-width="5" stroke-linecap="round" stroke-linejoin="round"></path>
                    <path d="M72.9126126,91.5314441 L72.9126126,57.2403229" id="Stroke-155" stroke="#0F0F0F" stroke-width="5" stroke-linecap="round" stroke-linejoin="round"></path>
                    <path d="M72.9126126,118.435633 C72.9126126,108.966664 65.2363438,101.28975 55.7667292,101.28975" id="Stroke-156" stroke="#0F0F0F" stroke-width="5" stroke-linecap="round" stroke-linejoin="round"></path>
                    <path d="M90.0582378,80.4479474 C80.5886232,80.4479474 72.9123544,88.1242162 72.9123544,97.5938308" id="Stroke-157" stroke="#0F0F0F" stroke-width="5" stroke-linecap="round" stroke-linejoin="round"></path>
                    <path d="M38.6213622,84.1444475 C38.6213622,93.6134166 46.2976311,101.290331 55.7672457,101.290331" id="Stroke-158" stroke="#0F0F0F" stroke-width="5" stroke-linecap="round" stroke-linejoin="round"></path>
                    <path d="M90.0582378,80.3237431 C99.5272068,80.3237431 107.203476,72.6474743 107.203476,63.1778597" id="Stroke-160" stroke="#0F0F0F" stroke-width="5" stroke-linecap="round" stroke-linejoin="round"></path>
                    <path d="M30.0681745,81.4421498 C24.9328016,78.4803534 21.4758662,72.9331178 21.4758662,66.5789412 C21.4758662,57.1099722 38.621104,36.3360818 38.621104,36.3360818 C38.621104,36.3360818 55.7669874,57.1099722 55.7669874,66.5789412 C55.7669874,76.0485558 48.0907186,83.7248246 38.621104,83.7248246" id="Stroke-161" stroke="#0F0F0F" stroke-width="5" stroke-linecap="round" stroke-linejoin="round"></path>
                    <path d="M38.6213622,76.8187004 L38.6213622,60.0304532" id="Stroke-163" stroke="#0F0F0F" stroke-width="5" stroke-linecap="round" stroke-linejoin="round"></path>
                    <path d="M38.6213622,73.9610962 L44.1873188,68.3951396" id="Stroke-164" stroke="#0F0F0F" stroke-width="5" stroke-linecap="round" stroke-linejoin="round"></path>
                    <path d="M107.223165,61.982554 C102.087792,59.0207576 98.6308567,53.4735221 98.6308567,47.1193455 C98.6308567,37.6503764 115.776095,16.8764861 115.776095,16.8764861 C115.776095,16.8764861 132.921978,37.6503764 132.921978,47.1193455 C132.921978,56.5889601 125.245709,64.2652289 115.776095,64.2652289" id="Stroke-161-Copy" stroke="#0F0F0F" stroke-width="5" stroke-linecap="round" stroke-linejoin="round" transform="translate(115.776417, 40.570857) scale(-1, 1) translate(-115.776417, -40.570857) "></path>
                    <path d="M115.776353,57.3591046 L115.776353,40.5708575" id="Stroke-163-Copy" stroke="#0F0F0F" stroke-width="5" stroke-linecap="round" stroke-linejoin="round"></path>
                    <path d="M115.776353,54.5015004 L121.342309,48.9355438" id="Stroke-164-Copy" stroke="#0F0F0F" stroke-width="5" stroke-linecap="round" stroke-linejoin="round"></path>
                    <path d="M81.4658004,45.1943069 C86.6011732,42.2325105 90.0581087,36.6852749 90.0581087,30.3310983 C90.0581087,20.8621293 72.9128708,0.0882389268 72.9128708,0.0882389268 C72.9128708,0.0882389268 55.7669874,20.8621293 55.7669874,30.3310983 C55.7669874,39.8007129 63.4432562,47.4769817 72.9128708,47.4769817" id="Stroke-165" stroke="#0F0F0F" stroke-width="5" stroke-linecap="round" stroke-linejoin="round"></path>
                    <path d="M72.9126126,47.4767235 L72.9126126,57.2400646" id="Stroke-166" stroke="#0F0F0F" stroke-width="5" stroke-linecap="round" stroke-linejoin="round"></path>
                    <path d="M72.9126126,40.5708575 L72.9126126,23.7826103" id="Stroke-167" stroke="#0F0F0F" stroke-width="5" stroke-linecap="round" stroke-linejoin="round"></path>
                    <path d="M72.9126126,37.7132533 L78.4785692,32.1472967" id="Stroke-168" stroke="#0F0F0F" stroke-width="5" stroke-linecap="round" stroke-linejoin="round"></path>
                    <path d="M72.9126126,32.9505581 L67.346656,27.3846015" id="Stroke-169" stroke="#0F0F0F" stroke-width="5" stroke-linecap="round" stroke-linejoin="round"></path>
                    <path d="M72.9126126,76.2264838 C72.9126126,66.7575147 65.2363438,59.0806003 55.7667292,59.0806003" id="Stroke-174" stroke="#0F0F0F" stroke-width="5" stroke-linecap="round" stroke-linejoin="round"></path>
                    <path d="M7.35026628,38.355617 C7.35026628,47.8252316 15.0265351,55.5015004 24.4961497,55.5015004" id="Stroke-159" stroke="#0F0F0F" stroke-width="5" stroke-linecap="round" stroke-linejoin="round"></path>
                    <path d="M13.7405293,31.414181 C13.7405293,27.8849436 10.8794391,25.0238534 7.35020173,25.0238534 C3.82096436,25.0238534 0.959874175,27.8849436 0.959874175,31.414181 C0.959874175,34.9434184 3.82096436,37.8045085 7.35020173,37.8045085 C10.8794391,37.8045085 13.7405293,34.9434184 13.7405293,31.414181 L13.7405293,31.414181 Z" id="Stroke-173" stroke="#0F0F0F" stroke-width="5" fill="#FDFDFD" stroke-linecap="round" stroke-linejoin="round"></path>
                    <path d="M113.582441,90.3903276 C113.582441,86.8610902 110.721351,84 107.192114,84 C103.662877,84 100.801786,86.8610902 100.801786,90.3903276 C100.801786,93.9195649 103.662877,96.7806551 107.192114,96.7806551 C110.721351,96.7806551 113.582441,93.9195649 113.582441,90.3903276 L113.582441,90.3903276 Z" id="Stroke-173-Copy" stroke="#0F0F0F" stroke-width="5" fill="#FDFDFD" stroke-linecap="round" stroke-linejoin="round"></path>
                    <path d="M72.9012509,97.869329 C72.9012509,107.338298 80.5775197,115.015212 90.0471343,115.015212" id="Stroke-88" stroke="#0F0F0F" stroke-width="5" stroke-linecap="round" stroke-linejoin="round"></path>
                    <path d="M90.0468761,115.01489 C99.5158451,115.01489 107.192114,107.338621 107.192114,97.8690062" id="Stroke-95" stroke="#0F0F0F" stroke-width="5" stroke-linecap="round" stroke-linejoin="round"></path>
                </g>
            </g>
            <g id="Group-19" transform="translate(607.605821, 262.000000)">
                <g id="Group-10-Copy" opacity="0.15" transform="translate(4.000000, 0.000000)">
                    <g id="Group-7" transform="translate(0.192964, 37.517145)">
                        <g id="Rectangle-3">
                            <use fill="#F1F1F1" fill-rule="evenodd" xlink:href="#path-15"></use>
                            <rect stroke="#0F0F0F" stroke-width="5" x="3.14085699" y="3.28230621" width="126" height="18.1408451" rx="4"></rect>
                        </g>
                        <g id="Group-5" transform="translate(11.541524, 6.112676)" stroke="#0F0F0F" stroke-linecap="square" stroke-width="0.25">
                            <path d="M1.13017368,2.74709494 L114.5986,2.74709494" id="Line-2"></path>
                            <path d="M1.13017368,4.49357382 L114.5986,4.49357382" id="Line-2-Copy"></path>
                            <path d="M1.13017368,6.24005269 L114.5986,6.24005269" id="Line-2-Copy-2"></path>
                            <path d="M1.13017368,7.98653156 L114.5986,7.98653156" id="Line-2-Copy-3"></path>
                            <path d="M1.13017368,9.73301044 L114.5986,9.73301044" id="Line-2-Copy-4"></path>
                            <path d="M1.13017368,11.4794893 L114.5986,11.4794893" id="Line-2-Copy-5"></path>
                            <path d="M1.13017368,1.00061607 L114.5986,1.00061607" id="Line-2-Copy-6"></path>
                        </g>
                    </g>
                    <g id="Group-6" transform="translate(0.192964, 19.179117)">
                        <g id="Rectangle-3-Copy">
                            <use fill="#F1F1F1" fill-rule="evenodd" xlink:href="#path-16"></use>
                            <rect stroke="#0F0F0F" stroke-width="5" x="3.25661859" y="2.8220962" width="114.572963" height="18.1408451" rx="4"></rect>
                        </g>
                        <g id="Group-5-Copy" transform="translate(11.459387, 5.548680)" stroke="#0F0F0F" stroke-linecap="square" stroke-width="0.25">
                            <path d="M1.0182696,2.74709494 L103.251626,2.74709494" id="Line-2"></path>
                            <path d="M1.0182696,4.49357382 L103.251626,4.49357382" id="Line-2-Copy"></path>
                            <path d="M1.0182696,6.24005269 L103.251626,6.24005269" id="Line-2-Copy-2"></path>
                            <path d="M1.0182696,7.98653156 L103.251626,7.98653156" id="Line-2-Copy-3"></path>
                            <path d="M1.0182696,9.73301044 L103.251626,9.73301044" id="Line-2-Copy-4"></path>
                            <path d="M1.0182696,11.4794893 L103.251626,11.4794893" id="Line-2-Copy-5"></path>
                            <path d="M1.0182696,1.00061607 L103.251626,1.00061607" id="Line-2-Copy-6"></path>
                        </g>
                    </g>
                    <g id="Group-6-Copy" transform="translate(0.192964, 0.081654)">
                        <g id="Rectangle-3-Copy">
                            <use fill="#F1F1F1" fill-rule="evenodd" xlink:href="#path-17"></use>
                            <rect stroke="#0F0F0F" stroke-width="5" x="3.19482946" y="2.8220962" width="104.808057" height="18.1408451" rx="4"></rect>
                        </g>
                        <g id="Group-5-Copy" transform="translate(12.190345, 5.548680)" stroke="#0F0F0F" stroke-linecap="square" stroke-width="0.25">
                            <path d="M0.918755179,2.74709494 L93.1609533,2.74709494" id="Line-2"></path>
                            <path d="M0.918755179,4.49357382 L93.1609533,4.49357382" id="Line-2-Copy"></path>
                            <path d="M0.918755179,6.24005269 L93.1609533,6.24005269" id="Line-2-Copy-2"></path>
                            <path d="M0.918755179,7.98653156 L93.1609533,7.98653156" id="Line-2-Copy-3"></path>
                            <path d="M0.918755179,9.73301044 L93.1609533,9.73301044" id="Line-2-Copy-4"></path>
                            <path d="M0.918755179,11.4794893 L93.1609533,11.4794893" id="Line-2-Copy-5"></path>
                            <path d="M0.918755179,1.00061607 L93.1609533,1.00061607" id="Line-2-Copy-6"></path>
                        </g>
                    </g>
                </g>
                <g id="Group-10">
                    <g id="Group-7" transform="translate(0.192964, 37.517145)">
                        <g id="Rectangle-3">
                            <use fill="#FDFDFD" fill-rule="evenodd" xlink:href="#path-18"></use>
                            <path stroke="#0F0F0F" stroke-width="5" d="M3.14085699,3.28230621 L3.14085699,21.4231513 L129.140857,21.4231513 L129.140857,6.78230621 C129.140857,4.84930959 127.573854,3.28230621 125.640857,3.28230621 L3.14085699,3.28230621 Z"></path>
                        </g>
                        <g id="Group-5" transform="translate(11.541524, 6.112676)" stroke="#0F0F0F" stroke-linecap="square" stroke-width="0.25">
                            <path d="M1.13017368,2.74709494 L114.5986,2.74709494" id="Line-2"></path>
                            <path d="M1.13017368,4.49357382 L114.5986,4.49357382" id="Line-2-Copy"></path>
                            <path d="M1.13017368,6.24005269 L114.5986,6.24005269" id="Line-2-Copy-2"></path>
                            <path d="M1.13017368,7.98653156 L114.5986,7.98653156" id="Line-2-Copy-3"></path>
                            <path d="M1.13017368,9.73301044 L114.5986,9.73301044" id="Line-2-Copy-4"></path>
                            <path d="M1.13017368,11.4794893 L114.5986,11.4794893" id="Line-2-Copy-5"></path>
                            <path d="M1.13017368,1.00061607 L114.5986,1.00061607" id="Line-2-Copy-6"></path>
                        </g>
                    </g>
                    <g id="Group-6" transform="translate(0.192964, 19.179117)">
                        <g id="Rectangle-3-Copy">
                            <use fill="#FDFDFD" fill-rule="evenodd" xlink:href="#path-19"></use>
                            <path stroke="#0F0F0F" stroke-width="5" d="M3.14085699,2.8220962 L3.14085699,20.9629413 L117.71382,20.9629413 L117.71382,6.3220962 C117.71382,4.38909957 116.146816,2.8220962 114.21382,2.8220962 L3.14085699,2.8220962 Z"></path>
                        </g>
                        <g id="Group-5-Copy" transform="translate(11.459387, 5.548680)" stroke="#0F0F0F" stroke-linecap="square" stroke-width="0.25">
                            <path d="M1.0182696,2.74709494 L103.251626,2.74709494" id="Line-2"></path>
                            <path d="M1.0182696,4.49357382 L103.251626,4.49357382" id="Line-2-Copy"></path>
                            <path d="M1.0182696,6.24005269 L103.251626,6.24005269" id="Line-2-Copy-2"></path>
                            <path d="M1.0182696,7.98653156 L103.251626,7.98653156" id="Line-2-Copy-3"></path>
                            <path d="M1.0182696,9.73301044 L103.251626,9.73301044" id="Line-2-Copy-4"></path>
                            <path d="M1.0182696,11.4794893 L103.251626,11.4794893" id="Line-2-Copy-5"></path>
                            <path d="M1.0182696,1.00061607 L103.251626,1.00061607" id="Line-2-Copy-6"></path>
                        </g>
                    </g>
                    <g id="Group-6-Copy" transform="translate(0.192964, 0.081654)">
                        <g id="Rectangle-3-Copy">
                            <use fill="#FDFDFD" fill-rule="evenodd" xlink:href="#path-20"></use>
                            <path stroke="#0F0F0F" stroke-width="5" d="M3.14085699,20.9629413 L107.948914,20.9629413 L107.948914,6.3220962 C107.948914,4.38909957 106.381911,2.8220962 104.448914,2.8220962 L6.64085699,2.8220962 C4.70786037,2.8220962 3.14085699,4.38909957 3.14085699,6.3220962 L3.14085699,20.9629413 Z"></path>
                        </g>
                        <g id="Group-5-Copy" transform="translate(12.190345, 5.548680)" stroke="#0F0F0F" stroke-linecap="square" stroke-width="0.25">
                            <path d="M0.918755179,2.74709494 L93.1609533,2.74709494" id="Line-2"></path>
                            <path d="M0.918755179,4.49357382 L93.1609533,4.49357382" id="Line-2-Copy"></path>
                            <path d="M0.918755179,6.24005269 L93.1609533,6.24005269" id="Line-2-Copy-2"></path>
                            <path d="M0.918755179,7.98653156 L93.1609533,7.98653156" id="Line-2-Copy-3"></path>
                            <path d="M0.918755179,9.73301044 L93.1609533,9.73301044" id="Line-2-Copy-4"></path>
                            <path d="M0.918755179,11.4794893 L93.1609533,11.4794893" id="Line-2-Copy-5"></path>
                            <path d="M0.918755179,1.00061607 L93.1609533,1.00061607" id="Line-2-Copy-6"></path>
                        </g>
                    </g>
                </g>
            </g>
            <g id="Group-21" transform="translate(29.252768, 179.693295)">
                <g id="Group-15-Copy" opacity="0.15" transform="translate(94.719424, 72.785751) scale(-1, 1) translate(-94.719424, -72.785751) translate(4.719424, 1.285751)">
                    <g id="Path-3">
                        <use fill="#F1F1F1" fill-rule="evenodd" xlink:href="#path-21"></use>
                        <path stroke="#0F0F0F" stroke-width="5" d="M117.652151,130.879959 L117.652151,139.198247 L145.273286,139.198247 C150.888181,139.198247 155.439953,134.646475 155.439953,129.03158 L155.439953,82.5632655 C155.439953,78.9964265 158.331447,76.1049322 161.898286,76.1049322 L172.555399,76.1049322 C175.198237,76.1049322 177.340681,73.9624883 177.340681,71.3196499 C177.340681,68.6768115 175.198237,66.5343676 172.555399,66.5343676 L155.855031,66.5343676 C150.677362,66.5343676 146.480031,70.7316981 146.480031,75.9093676 L146.480031,122.046626 C146.480031,126.925141 142.525213,130.879959 137.646698,130.879959 L117.652151,130.879959 Z"></path>
                    </g>
                    <g id="Rectangle-7" transform="translate(19.791667, 19.583333)">
                        <mask id="mask-23" fill="white">
                            <use xlink:href="#path-22"></use>
                        </mask>
                        <g id="Mask">
                            <use fill="#F1F1F1" fill-rule="evenodd" xlink:href="#path-22"></use>
                            <path stroke="#0F0F0F" stroke-width="5" d="M2.5,2.5 L2.5,114.183989 C2.5,117.175531 4.92512427,119.600655 7.91666667,119.600655 L106.75,119.600655 L106.75,2.5 L2.5,2.5 Z"></path>
                        </g>
                        <path d="M18.4301299,138.322076 L90.8198701,138.322076 L90.8198701,117.220478 C90.8198701,97.2306032 74.6148748,81.0256079 54.625,81.0256079 C34.6351252,81.0256079 18.4301299,97.2306032 18.4301299,117.220478 L18.4301299,138.322076 Z" stroke="#0F0F0F" stroke-width="5" mask="url(#mask-23)"></path>
                    </g>
                    <g id="Group-17" transform="translate(46.708333, 50.458333)" stroke="#0F0F0F" stroke-linecap="round" stroke-linejoin="round" stroke-width="5">
                        <path d="M35.7697065,0.490438073 C36.2414663,7.45457829 39.6282317,10.9366484 45.9300027,10.9366484 C52.2317736,10.9366484 55.382659,7.45457829 55.382659,0.490438073" id="Path-6-Copy"></path>
                        <path d="M0.441274028,0.490438073 C0.913001227,7.45457829 4.29975029,10.9366484 10.6015212,10.9366484 C16.9032921,10.9366484 20.0541776,7.45457829 20.0541776,0.490438073" id="Path-6-Copy-2"></path>
                    </g>
                    <g id="Group-18" transform="translate(61.354167, 21.958333)" stroke="#0F0F0F" stroke-linecap="round" stroke-width="5">
                        <path d="M1.06745709,0.616504741 L1.06745709,18.319193" id="Path-6"></path>
                        <path d="M12.9866089,0.616504741 L12.9866089,18.319193" id="Path-6-Copy-3"></path>
                        <path d="M24.9057608,0.616504741 L24.9057608,18.319193" id="Path-6-Copy-4"></path>
                    </g>
                    <g id="Group-18-Copy" transform="translate(134.351680, 60.395833) rotate(-270.000000) translate(-134.351680, -60.395833) translate(120.851680, 44.395833)" stroke="#0F0F0F" stroke-linecap="round" stroke-width="5">
                        <path d="M1.06745709,0.275416009 L1.06745709,30.9162704" id="Path-6"></path>
                        <path d="M12.9866089,5.13225547 L12.9866089,30.9162704" id="Path-6-Copy-3"></path>
                        <path d="M24.9057608,11.1279524 L24.9057608,30.9162704" id="Path-6-Copy-4"></path>
                    </g>
                    <g id="Group-18-Copy-2" transform="translate(16.166667, 60.395833) rotate(-270.000000) translate(-16.166667, -60.395833) translate(2.666667, 44.895833)" stroke="#0F0F0F" stroke-linecap="round" stroke-width="5">
                        <path d="M1.06745709,0.275416009 L1.06745709,30.9162704" id="Path-6"></path>
                        <path d="M12.9866089,0.275416009 L12.9866089,25.4472422" id="Path-6-Copy-3"></path>
                        <path d="M24.9057608,0.275416009 L24.9057608,20.4514626" id="Path-6-Copy-4"></path>
                    </g>
                    <g id="Group-16" transform="translate(64.250000, 69.833333)">
                        <ellipse id="Oval-4" fill="#0F0F0F" cx="9.77083333" cy="3.28166033" rx="9.01786787" ry="2.676673"></ellipse>
                        <path d="M10.1979562,5.95833333 C10.1979562,9.9037371 13.4877857,13.1024514 17.546192,13.1024514" id="Stroke-158" stroke="#0F0F0F" stroke-width="5" stroke-linecap="round" stroke-linejoin="round"></path>
                        <path d="M1.99547471,5.95833333 C1.99547471,9.9037371 5.2853042,13.1024514 9.34371046,13.1024514" id="Stroke-158-Copy" stroke="#0F0F0F" stroke-width="5" stroke-linecap="round" stroke-linejoin="round" transform="translate(5.669593, 9.530392) scale(-1, 1) translate(-5.669593, -9.530392) "></path>
                    </g>
                    <circle id="Oval-5" stroke="#0F0F0F" stroke-width="5" cx="109.152862" cy="94.3958333" r="5.9375"></circle>
                    <circle id="Oval-5-Copy" stroke="#0F0F0F" stroke-width="5" cx="37.6041667" cy="94.3958333" r="5.9375"></circle>
                    <g id="Rectangle-6">
                        <use fill="#F1F1F1" fill-rule="evenodd" xlink:href="#path-24"></use>
                        <path stroke="#0F0F0F" stroke-width="5" d="M22.2291667,22.4356538 L52.0625,22.4356538 L52.0625,9.14958651 C52.0625,5.72081869 49.2829345,2.94125317 45.8541667,2.94125317 L28.4375,2.94125317 C25.0087322,2.94125317 22.2291667,5.72081869 22.2291667,9.14958651 L22.2291667,22.4356538 Z"></path>
                    </g>
                    <g id="Rectangle-6-Copy">
                        <use fill="#F1F1F1" fill-rule="evenodd" xlink:href="#path-25"></use>
                        <path stroke="#0F0F0F" stroke-width="5" d="M96.6458333,22.4356538 L126.479167,22.4356538 L126.479167,9.14958651 C126.479167,5.72081869 123.699601,2.94125317 120.270833,2.94125317 L102.854167,2.94125317 C99.4253988,2.94125317 96.6458333,5.72081869 96.6458333,9.14958651 L96.6458333,22.4356538 Z"></path>
                    </g>
                </g>
                <g id="Group-15" transform="translate(90.719424, 72.285751) scale(-1, 1) translate(-90.719424, -72.285751) translate(0.719424, 0.285751)">
                    <g id="Path-3">
                        <use fill="#F1F1F1" fill-rule="evenodd" xlink:href="#path-26"></use>
                        <path stroke="#0F0F0F" stroke-width="5" d="M117.652151,131.879959 L117.652151,140.198247 L145.273286,140.198247 C150.888181,140.198247 155.439953,135.646475 155.439953,130.03158 L155.439953,83.5632655 C155.439953,79.9964265 158.331447,77.1049322 161.898286,77.1049322 L172.555399,77.1049322 C175.198237,77.1049322 177.340681,74.9624883 177.340681,72.3196499 C177.340681,69.6768115 175.198237,67.5343676 172.555399,67.5343676 L155.855031,67.5343676 C150.677362,67.5343676 146.480031,71.7316981 146.480031,76.9093676 L146.480031,123.046626 C146.480031,127.925141 142.525213,131.879959 137.646698,131.879959 L117.652151,131.879959 Z"></path>
                    </g>
                    <g id="Rectangle-7" transform="translate(19.791667, 0.583333)">
                        <mask id="mask-28" fill="white">
                            <use xlink:href="#path-27"></use>
                        </mask>
                        <g id="Combined-Shape">
                            <use fill="#FDFDFD" fill-rule="evenodd" xlink:href="#path-27"></use>
                            <path stroke="#0F0F0F" stroke-width="5" d="M106.75,139.600655 L106.75,22.5 L106.706798,22.5 L106.706798,9.12722917 C106.706798,5.69846134 103.927232,2.91889583 100.498464,2.91889583 L83.0817976,2.91889583 C79.6530298,2.91889583 76.8734643,5.69846134 76.8734643,9.12722917 L76.8734643,22.5 L32.3333333,22.5 L32.3333333,9.12722917 C32.3333333,5.69846134 29.5537678,2.91889583 26.125,2.91889583 L8.70833333,2.91889583 C5.27956551,2.91889583 2.5,5.69846134 2.5,9.12722917 L2.5,134.183989 C2.5,137.175531 4.92512427,139.600655 7.91666667,139.600655 L106.75,139.600655 Z"></path>
                        </g>
                        <path d="M18.4301299,158.322076 L90.8198701,158.322076 L90.8198701,137.220478 C90.8198701,117.230603 74.6148748,101.025608 54.625,101.025608 C34.6351252,101.025608 18.4301299,117.230603 18.4301299,137.220478 L18.4301299,158.322076 Z" stroke="#0F0F0F" stroke-width="5" mask="url(#mask-28)"></path>
                    </g>
                    <g id="Group-17" transform="translate(46.416667, 51.458333)" stroke="#0F0F0F" stroke-linecap="round" stroke-linejoin="round" stroke-width="5">
                        <path d="M0.949736094,0.490438073 C0.556492127,7.29025914 3.2620542,10.6901697 9.06642231,10.6901697 C14.8707904,10.6901697 17.5457709,7.29025914 17.0913639,0.490438073" id="Path-6-Copy-2"></path>
                        <path d="M39.2631629,0.490438073 C38.8699189,7.29025914 41.575481,10.6901697 47.3798491,10.6901697 C53.1842172,10.6901697 55.8591977,7.29025914 55.4047907,0.490438073" id="Path-6-Copy-5"></path>
                    </g>
                    <g id="Group-18" transform="translate(61.354167, 22.958333)" stroke="#0F0F0F" stroke-linecap="round" stroke-width="5">
                        <path d="M1.06745709,0.616504741 L1.06745709,18.319193" id="Path-6"></path>
                        <path d="M12.9866089,0.616504741 L12.9866089,18.319193" id="Path-6-Copy-3"></path>
                        <path d="M24.9057608,0.616504741 L24.9057608,18.319193" id="Path-6-Copy-4"></path>
                    </g>
                    <g id="Group-18-Copy" transform="translate(134.351680, 61.395833) rotate(-270.000000) translate(-134.351680, -61.395833) translate(120.851680, 45.395833)" stroke="#0F0F0F" stroke-linecap="round" stroke-width="5">
                        <path d="M1.06745709,0.275416009 L1.06745709,30.9162704" id="Path-6"></path>
                        <path d="M12.9866089,5.13225547 L12.9866089,30.9162704" id="Path-6-Copy-3"></path>
                        <path d="M24.9057608,11.1279524 L24.9057608,30.9162704" id="Path-6-Copy-4"></path>
                    </g>
                    <g id="Group-18-Copy-2" transform="translate(16.166667, 61.395833) rotate(-270.000000) translate(-16.166667, -61.395833) translate(2.666667, 45.895833)" stroke="#0F0F0F" stroke-linecap="round" stroke-width="5">
                        <path d="M1.06745709,0.275416009 L1.06745709,30.9162704" id="Path-6"></path>
                        <path d="M12.9866089,0.275416009 L12.9866089,25.4472422" id="Path-6-Copy-3"></path>
                        <path d="M24.9057608,0.275416009 L24.9057608,20.4514626" id="Path-6-Copy-4"></path>
                    </g>
                    <g id="Group-16" transform="translate(64.250000, 70.833333)">
                        <ellipse id="Oval-4" fill="#0F0F0F" cx="9.77083333" cy="3.28166033" rx="9.01786787" ry="2.676673"></ellipse>
                        <path d="M10.1979562,5.95833333 C10.1979562,9.9037371 13.4877857,13.1024514 17.546192,13.1024514" id="Stroke-158" stroke="#0F0F0F" stroke-width="5" stroke-linecap="round" stroke-linejoin="round"></path>
                        <path d="M1.99547471,5.95833333 C1.99547471,9.9037371 5.2853042,13.1024514 9.34371046,13.1024514" id="Stroke-158-Copy" stroke="#0F0F0F" stroke-width="5" stroke-linecap="round" stroke-linejoin="round" transform="translate(5.669593, 9.530392) scale(-1, 1) translate(-5.669593, -9.530392) "></path>
                    </g>
                    <circle id="Oval-5" stroke="#0F0F0F" stroke-width="5" cx="109.152862" cy="95.3958333" r="5.9375"></circle>
                    <circle id="Oval-5-Copy" stroke="#0F0F0F" stroke-width="5" cx="37.6041667" cy="95.3958333" r="5.9375"></circle>
                </g>
            </g>
            <path d="M1.32752319,320.904426 L888.077773,320.904426" id="Line" stroke="#0F0F0F" stroke-width="5" stroke-linecap="round"></path>
        </g>
    </g>
</svg>