<?xml version="1.0" encoding="UTF-8"?>
<svg width="1029px" height="460px" viewBox="0 0 1029 460" version="1.1" xmlns="http://www.w3.org/2000/svg" xmlns:xlink="http://www.w3.org/1999/xlink">
    <!-- Generator: Sketch 46.2 (44496) - http://www.bohemiancoding.com/sketch -->
    <title>Group</title>
    <desc>Created with Sketch.</desc>
    <defs></defs>
    <g id="Page-1" stroke="none" stroke-width="1" fill="none" fill-rule="evenodd">
        <g id="Artboard-Copy-22" transform="translate(-154.000000, -444.000000)" fill="#3D3D3D">
            <g id="Group" transform="translate(154.650000, 444.150000)">
                <g id="J" transform="translate(0.083012, 0.000000)">
                    <rect id="Rectangle" x="266.111367" y="0" width="229.5" height="459" rx="10"></rect>
                    <path d="M10.1571863,240.975 L219.657186,240.975 L219.657186,240.975 C225.180034,240.975 229.657186,245.452153 229.657186,250.975 L229.657186,449 L229.657186,449 C229.657186,454.522847 225.180034,459 219.657186,459 L109.169686,459 L109.169686,459 C48.963745,459 0.157186267,410.193441 0.157186267,349.9875 L0.157186267,250.975 L0.157186267,250.975 C0.157186267,245.452153 4.63433877,240.975 10.1571863,240.975 Z" id="Rectangle-2"></path>
                </g>
                <g id="B" transform="translate(531.900000, 0.000000)">
                    <rect id="Rectangle-Copy" x="0.246113281" y="0" width="229.5" height="459" rx="10"></rect>
                    <path d="M276.141957,248.4 L485.641957,248.4 L485.641957,248.4 C491.164805,248.4 495.641957,252.877153 495.641957,258.4 L495.641957,449.675 L495.641957,449.675 C495.641957,455.197847 491.164805,459.675 485.641957,459.675 L371.779457,459.675 L371.779457,459.675 C313.437477,459.675 266.141957,412.37948 266.141957,354.0375 L266.141957,258.4 L266.141957,258.4 C266.141957,252.877153 270.61911,248.4 276.141957,248.4 Z" id="Rectangle-2-Copy" transform="translate(380.891957, 354.037500) scale(-1, 1) translate(-380.891957, -354.037500) "></path>
                    <path d="M276.141957,0 L485.641957,0 L485.641957,0 C491.164805,1.37012913e-14 495.641957,4.4771525 495.641957,10 L495.641957,201.275 L495.641957,201.275 C495.641957,206.797847 491.164805,211.275 485.641957,211.275 L371.779457,211.275 L371.779457,211.275 C313.437477,211.275 266.141957,163.97948 266.141957,105.6375 L266.141957,10 L266.141957,10 C266.141957,4.4771525 270.61911,1.01453063e-15 276.141957,0 Z" id="Rectangle-2-Copy-3" transform="translate(380.891957, 105.637500) scale(-1, 1) translate(-380.891957, -105.637500) "></path>
                </g>
            </g>
        </g>
    </g>
</svg>