<?xml version="1.0" encoding="UTF-8"?>
<svg width="892px" height="352px" viewBox="0 0 892 352" version="1.1" xmlns="http://www.w3.org/2000/svg" xmlns:xlink="http://www.w3.org/1999/xlink">
    <!-- Generator: Sketch 50.2 (55047) - http://www.bohemiancoding.com/sketch -->
    <title>Chapter III</title>
    <desc>Created with Sketch.</desc>
    <defs>
        <path d="M122.123924,143.455363 L122.123924,213 L72.8938316,213 L72.8938316,144.136553 C56.8332707,135.75046 45.7089363,119.204838 45.0211021,99.9999625 C45.0098372,99.999984 44.9985689,100 44.9872968,100 C38.5314738,100 33.2979953,94.7665214 33.2979953,88.3106985 L33.2979953,73.6893015 C33.2979953,67.2334786 38.5314738,62 44.9872968,62 L44.9872968,51.8907471 C44.9872968,23.2322788 68.2195756,5.26447522e-15 96.8780439,0 C125.536512,-5.26447522e-15 148.768791,23.2322788 148.768791,51.8907471 L148.768791,62.0140301 C154.95622,62.3151996 159.880312,67.4272089 159.880312,73.6893015 L159.880312,88.3106985 C159.880312,94.5840419 154.93851,99.7031656 148.735429,99.9875466 C148.069987,118.690632 137.506352,134.873037 122.123924,143.455363 Z" id="path-1"></path>
        <path d="M72.3225045,0.0708856067 L72.3225045,20.3473629 C72.3225045,32.8580689 82.4644356,43 94.9751416,43 C107.485848,43 117.627779,32.8580689 117.627779,20.3473629 L117.627779,0.0708856067 C134.712244,2.09629638 147.831295,7.66339117 147.831295,22.0769231 C147.831295,22.2993778 147.82817,22.520897 147.821954,22.7414746 C172.360586,34.2151531 189.361129,59.1219741 189.361129,87.9994847 L189.361129,157.418704 L0.589153781,157.418704 L0.589153781,87.9994847 C0.589153781,59.1219741 17.5896967,34.2151531 42.1283297,22.7414746 C42.1221134,22.520897 42.1189884,22.2993778 42.1189884,22.0769231 C42.1189884,7.66339117 55.2380392,2.09629638 72.3225045,0.0708856067 Z" id="path-3"></path>
        <path d="M77.8189602,133.606508 C79.9297597,132.167223 92.5418906,131.615507 94.8154767,130.390923 C95.5250347,130.008295 96.0756365,129.620729 96.4998392,129.236648 C96.9243611,129.620729 97.475282,130.008295 98.18484,130.390923 C100.458107,131.615507 113.070238,132.167223 115.181037,133.606508 C117.31833,135.064096 118.878527,138.408386 118.707761,141.023155 C118.502841,144.160587 114.738002,151.64696 105.369155,152.509253 C103.324428,150.43516 100.113382,149.09727 96.4998392,149.09727 C92.8869343,149.09727 89.6755697,150.43516 87.6308424,152.509253 C78.2623143,151.64696 74.4974753,144.160587 74.2925557,141.023155 C74.1217894,138.408386 75.6819872,135.064096 77.8189602,133.606508 M114.525422,148.741081 C114.526699,148.7405 114.528295,148.739919 114.529572,148.739628 C114.527976,148.739919 114.526699,148.7405 114.525422,148.741081 M78.4621268,148.736723 C78.4659571,148.738175 78.4729793,148.7405 78.4780863,148.742243 C78.4729793,148.7405 78.4675531,148.738466 78.4621268,148.736723 M41.2659678,95.4481063 C39.9824657,91.2619086 40.8427414,75.0162375 40.760481,73.3182321 C40.4535588,67.0008067 40.5069087,60.4941505 41.1631757,54.1995403 C42.0575886,45.6224166 43.6558334,37.4308005 47.9289608,29.9457805 C52.3624591,22.1802694 59.9407041,16.0819358 67.6153644,12.1517047 C77.5702473,7.0535435 90.152448,7.62895295 100.912077,5.61082594 C104.076429,5.01729865 107.15497,4.26373036 110.168913,3.09781326 C111.175168,2.70861504 113.894723,0.884080595 114.829309,0.960578178 C117.832647,1.20617568 114.508889,5.59975392 113.677789,7.01764332 C116.189729,6.08021242 118.519124,4.08758461 121.018852,3.31254332 C124.227554,2.31773923 122.52036,6.03458229 121.624983,7.89132623 C123.493833,7.35148145 125.323796,6.72540914 127.131584,5.99130076 C128.055886,5.61619419 129.774649,4.48047351 130.73816,4.90724949 C132.928395,5.87756093 129.993191,10.1087496 129.917666,11.6068272 C129.857888,12.7915332 129.606887,12.018505 130.040113,13.011296 C130.220088,13.4239803 131.724489,14.5452738 131.871362,14.6700857 C132.517344,15.2193249 133.188716,15.7356836 133.849483,16.2647919 C136.844143,18.6650713 139.923006,21.0586403 142.574749,23.8786499 C152.516134,34.4490724 152.945825,52.4853905 152.999817,66.3173612 C153.013637,70.8666188 151.913859,74.2578349 151.913859,78.7775806 C151.913859,79.4680674 152.008914,85.7264763 151.324249,89.351536 C151.210483,89.9538875 151.034834,90.4270224 150.836894,90.7943751 C151.473938,93.6952195 152.150185,97.9334234 152.325427,98.8303726 C153.334704,104.000933 154.491766,109.182824 154.867133,114.432117 C155.252713,119.826386 154.791804,125.170683 153.579203,130.456002 C152.999555,132.980997 152.323193,135.491466 151.597675,137.984793 C150.791084,140.754995 151.906651,146.149264 151.545648,148.99297 C150.862901,154.373293 148.082123,164.866651 144.960132,169.495663 C143.450685,171.733034 141.681737,173.129901 139.706593,174.93293 C137.805182,176.668555 137.011039,179.358862 134.959289,181.207213 C131.133804,184.652316 125.560438,186.702876 119.836734,187.206945 C114.700338,191.179941 106.164256,193.780184 96.4998392,193.780184 C86.8360608,193.780184 78.2996594,191.179941 73.1635828,187.206945 C67.43924,186.702876 61.8661931,184.652316 58.0410273,181.207213 C55.9889586,179.358862 55.1948154,176.668555 53.2937233,174.93293 C51.3182601,173.129901 49.5493124,171.733034 48.0401849,169.495663 C44.9178742,164.866651 42.1374153,154.373293 41.45435,148.99297 C41.0933467,146.149264 42.2089137,140.754995 41.4026413,137.984793 C40.6771238,135.491466 40.0004422,132.980997 39.4211135,130.456002 C38.2078745,125.170683 37.7472842,119.826386 38.1331842,114.432117 C38.508551,109.182824 39.6652934,104.000933 40.6745702,98.8303726 C40.7642802,98.3706671 40.9856628,97.0332874 41.2659678,95.4481063 Z M43.3198035,93.3523115 C43.6720781,99.5582776 44.3125667,105.717409 45.0880021,111.923392 C45.3864442,114.310676 45.6992498,116.698541 45.9048078,119.09425 C46.0704671,121.02947 45.7745785,123.367654 46.2891118,125.239538 C46.9447269,127.62566 50.2339737,129.852281 52.7916383,130.67419 C59.1731921,132.72504 64.4966329,124.236561 69.946792,121.753693 C77.0225826,118.530555 89.1862524,117.763008 96.5789981,121.96407 C103.813745,117.763008 115.977415,118.530555 123.053206,121.753693 C128.503684,124.236561 133.826805,132.72504 140.208678,130.67419 C142.766343,129.852281 146.054951,127.62566 146.711205,125.239538 C147.225419,123.367654 146.92953,121.02947 147.095509,119.09425 C147.301067,116.698541 147.613553,114.310676 147.911995,111.923392 C148.748299,105.232405 149.427292,98.595879 149.757641,91.896401 C149.629884,91.945482 149.542224,91.9457572 149.522116,91.9134778 C148.14409,89.7013445 149.310124,83.4979988 148.936997,82.2643076 C146.81586,75.2476675 147.52889,67.1115269 145.815268,59.9814825 C144.095219,52.8249324 141.235861,47.0731866 135.572425,42.4937326 C132.856405,40.2974468 130.087035,38.2518075 127.76439,35.5733855 C126.781275,34.4400135 125.35947,31.6726799 123.990372,30.8251672 C122.494328,29.8988083 119.763006,33.8562462 106.109646,34.9227082 C92.4562866,35.9891701 91.1946254,32.1393822 85.6646357,32.1393822 C80.134646,32.1393822 63.8769155,38.9667566 58.2855742,42.7879799 C52.2830993,46.8901793 50.5038929,54.5021754 48.3840412,61.1809512 C47.1810992,64.9709367 46.4865875,68.9035163 45.7650794,72.8186492 C45.4756799,74.3895352 44.4529296,87.4251281 43.3198035,93.3523115 Z" id="path-5"></path>
        <path d="M6.61802749,0.401490107 L213.580095,0.401490107 C216.893804,0.401490107 219.580095,3.08778161 219.580095,6.40149011 L219.580095,71.7463853 C219.580095,72.8509548 218.684665,73.7463853 217.580095,73.7463853 L2.61802749,73.7463853 C1.51345799,73.7463853 0.618027486,72.8509548 0.618027486,71.7463853 L0.618027486,6.40149011 C0.618027486,3.08778161 3.30431899,0.401490107 6.61802749,0.401490107 Z" id="path-7"></path>
    </defs>
    <g id="me" stroke="none" stroke-width="1" fill="none" fill-rule="evenodd">
        <g id="Artboard-Copy-5" transform="translate(-6.000000, -3.000000)">
            <g id="Chapter-III" transform="translate(7.500000, 5.000000)">
                <g id="Group-33" transform="translate(28.000000, 39.000000)">
                    <g id="Group-32" transform="translate(0.240248, 0.000000)">
                        <g id="Group-9-Copy-4" transform="translate(0.759752, 0.000000)">
                            <g id="Group-20" transform="translate(13.703773, 0.404426)" stroke-width="4">
                                <g id="Group-9" transform="translate(0.796227, 0.595574)" stroke="#D6DDE3" stroke-linecap="round">
                                    <path d="M111.933167,150.118947 L257.145448,150.118947" id="Line-Copy"></path>
                                    <path d="M317.903183,116.5 L536.146156,116.5" id="Line-Copy-2"></path>
                                    <path d="M445.796227,1.5 L516.796227,1.5" id="Line-Copy-5"></path>
                                    <path d="M236.660767,1.5 L432.647946,1.5" id="Line-Copy-12"></path>
                                    <path d="M269.796227,150.118947 L274.356989,150.118947" id="Line-Copy-6"></path>
                                    <path d="M220.608068,187.714521 L365.820349,187.714521" id="Line-Copy-8"></path>
                                    <path d="M182.723341,187.714521 L210.200194,187.714521" id="Line-Copy-7"></path>
                                    <path d="M293.125805,36.2145213 L498.904295,36.2145213" id="Line-Copy-4"></path>
                                    <path d="M55.0177364,36.2145213 L260.796227,36.2145213" id="Line-Copy-17"></path>
                                    <path d="M182.157167,77.8442586 L326.000084,77.8442586" id="Line-Copy-18"></path>
                                    <path d="M0.999533583,116.5 L269.000084,116.5" id="Line-Copy-19"></path>
                                    <path d="M628.994563,76.8442586 L735.003362,76.8442586" id="Line-Copy-9"></path>
                                    <path d="M608.840847,166.325817 L670.387101,166.325817" id="Line-Copy-15"></path>
                                    <path d="M744.999135,76.8442586 L747.006052,76.8442586" id="Line-Copy-14"></path>
                                    <path d="M482.162317,163.325817 L509.817011,163.325817" id="Line-Copy-16"></path>
                                    <path d="M680.985006,33.2145213 L787.296227,33.2145213" id="Line-Copy-13"></path>
                                    <path d="M570.651663,202.214521 L715.863944,202.214521" id="Line-Copy-11"></path>
                                    <path d="M724.152433,202.214521 L728.713196,202.214521" id="Line-Copy-10"></path>
                                </g>
                                <g id="Group-3" transform="translate(189.925723, 231.354133)" stroke="#0F0F0F">
                                    <g id="Group" transform="translate(0.282532, 33.895014)">
                                        <path d="M10.3946214,0.879711406 L35.087129,0.879711406 C41.714546,0.879711406 47.087129,6.25229441 47.087129,12.8797114 L47.087129,37.2127933 C47.087129,39.9742171 44.8485528,42.2127933 42.087129,42.2127933 L-1.60537863,42.2127933 L-1.60537863,12.8797114 C-1.60537863,6.25229441 3.76720437,0.879711406 10.3946214,0.879711406 Z" id="Rectangle-2" fill="#FDFDFD" transform="translate(22.740875, 21.546252) rotate(-180.000000) translate(-22.740875, -21.546252) "></path>
                                        <path d="M40.990638,0.881395328 C52.7751185,0.881395328 61.4967092,-0.554570126 61.4967092,15.2375045 C61.4967092,31.0295791 55.7221225,31.9069617 45.1337358,31.9069617" id="Path-2"></path>
                                        <path d="M0.394621368,32.2511078 L47.1332297,32.2511078" id="Path-4"></path>
                                    </g>
                                    <g id="Group-3-Copy-2" transform="translate(23.426797, 11.382325) rotate(46.000000) translate(-23.426797, -11.382325) translate(15.926797, 3.882325)" stroke-linecap="round" stroke-linejoin="round">
                                        <path d="M14.7325499,14.6474489 C14.7325499,10.7020452 11.4427204,7.50333086 7.38431414,7.50333086" id="Stroke-156"></path>
                                        <path d="M0.0362997303,0.359454856 C0.0362997303,4.30485862 3.32612922,7.50357294 7.38453548,7.50357294" id="Stroke-158"></path>
                                    </g>
                                    <g id="Group-3-Copy-3" transform="translate(12.072560, 15.909219) rotate(46.000000) translate(-12.072560, -15.909219) translate(4.572560, 8.409219)" stroke-linecap="round" stroke-linejoin="round">
                                        <path d="M14.7325499,14.6474489 C14.7325499,10.7020452 11.4427204,7.50333086 7.38431414,7.50333086" id="Stroke-156"></path>
                                        <path d="M0.0362997303,0.359454856 C0.0362997303,4.30485862 3.32612922,7.50357294 7.38453548,7.50357294" id="Stroke-158"></path>
                                    </g>
                                    <g id="Group-3-Copy" transform="translate(34.781035, 15.459388) rotate(46.000000) translate(-34.781035, -15.459388) translate(27.281035, 7.959388)" stroke-linecap="round" stroke-linejoin="round">
                                        <path d="M14.7325499,14.6474489 C14.7325499,10.7020452 11.4427204,7.50333086 7.38431414,7.50333086" id="Stroke-156"></path>
                                        <path d="M0.0362997303,0.359454856 C0.0362997303,4.30485862 3.32612922,7.50357294 7.38453548,7.50357294" id="Stroke-158"></path>
                                    </g>
                                </g>
                            </g>
                            <g id="Group-8" transform="translate(702.211710, 99.904426)">
                                <g id="Group-4">
                                    <path d="M30.0681745,81.4421498 C24.9328016,78.4803534 21.4758662,72.9331178 21.4758662,66.5789412 C21.4758662,57.1099722 38.621104,36.3360818 38.621104,36.3360818 C38.621104,36.3360818 55.7669874,57.1099722 55.7669874,66.5789412 C55.7669874,76.0485558 48.0907186,83.7248246 38.621104,83.7248246" id="Fill-59" fill="#FDFDFD"></path>
                                    <path d="M81.4658004,45.1943069 C86.6011732,42.2325105 90.0581087,36.6852749 90.0581087,30.3310983 C90.0581087,20.8621293 72.9128708,0.0882389268 72.9128708,0.0882389268 C72.9128708,0.0882389268 55.7669874,20.8621293 55.7669874,30.3310983 C55.7669874,39.8007129 63.4432562,47.4769817 72.9128708,47.4769817" id="Fill-60" fill="#FDFDFD"></path>
                                    <path d="M121.329076,127.008446 L24.4961497,127.008446 C24.4961497,136.952542 32.557168,145.014206 42.5012639,145.014206 L103.323961,145.014206 C113.268057,145.014206 121.329076,136.952542 121.329076,127.008446 L121.329076,127.008446 Z" id="Stroke-143" stroke="#0F0F0F" stroke-width="4" fill="#FDFDFD" stroke-linecap="round" stroke-linejoin="round"></path>
                                    <polygon id="Path-5" stroke="#0F0F0F" stroke-width="4" fill="#FDFDFD" points="42.8762554 145.014206 49.5659076 208.95639 102.005781 208.95639 108.514926 145.014206"></polygon>
                                    <path d="M72.9126126,127.008446 L72.9126126,92.7173247" id="Stroke-154" stroke="#0F0F0F" stroke-width="4" stroke-linecap="round" stroke-linejoin="round"></path>
                                    <path d="M72.9126126,91.5314441 L72.9126126,57.2403229" id="Stroke-155" stroke="#0F0F0F" stroke-width="4" stroke-linecap="round" stroke-linejoin="round"></path>
                                    <path d="M72.9126126,118.435633 C72.9126126,108.966664 65.2363438,101.28975 55.7667292,101.28975" id="Stroke-156" stroke="#0F0F0F" stroke-width="4" stroke-linecap="round" stroke-linejoin="round"></path>
                                    <path d="M90.0582378,80.4479474 C80.5886232,80.4479474 72.9123544,88.1242162 72.9123544,97.5938308" id="Stroke-157" stroke="#0F0F0F" stroke-width="4" stroke-linecap="round" stroke-linejoin="round"></path>
                                    <path d="M38.6213622,84.1444475 C38.6213622,93.6134166 46.2976311,101.290331 55.7672457,101.290331" id="Stroke-158" stroke="#0F0F0F" stroke-width="4" stroke-linecap="round" stroke-linejoin="round"></path>
                                    <path d="M90.0582378,80.3237431 C99.5272068,80.3237431 107.203476,72.6474743 107.203476,63.1778597" id="Stroke-160" stroke="#0F0F0F" stroke-width="4" stroke-linecap="round" stroke-linejoin="round"></path>
                                    <path d="M38.6213622,76.8187004 L38.6213622,60.0304532" id="Stroke-163" stroke="#0F0F0F" stroke-width="4" stroke-linecap="round" stroke-linejoin="round"></path>
                                    <path d="M38.6213622,73.9610962 L44.1873188,68.3951396" id="Stroke-164" stroke="#0F0F0F" stroke-width="4" stroke-linecap="round" stroke-linejoin="round"></path>
                                    <path d="M115.776353,57.3591046 L115.776353,40.5708575" id="Stroke-163-Copy" stroke="#0F0F0F" stroke-width="4" stroke-linecap="round" stroke-linejoin="round"></path>
                                    <path d="M115.776353,54.5015004 L121.342309,48.9355438" id="Stroke-164-Copy" stroke="#0F0F0F" stroke-width="4" stroke-linecap="round" stroke-linejoin="round"></path>
                                    <path d="M81.4658004,45.1943069 C86.6011732,42.2325105 90.0581087,36.6852749 90.0581087,30.3310983 C90.0581087,20.8621293 72.9128708,0.0882389268 72.9128708,0.0882389268 C72.9128708,0.0882389268 55.7669874,20.8621293 55.7669874,30.3310983 C55.7669874,39.8007129 63.4432562,47.4769817 72.9128708,47.4769817" id="Stroke-165" stroke="#0F0F0F" stroke-width="4" stroke-linecap="round" stroke-linejoin="round"></path>
                                    <path d="M72.9126126,47.4767235 L72.9126126,57.2400646" id="Stroke-166" stroke="#0F0F0F" stroke-width="4" stroke-linecap="round" stroke-linejoin="round"></path>
                                    <path d="M72.9126126,40.5708575 L72.9126126,23.7826103" id="Stroke-167" stroke="#0F0F0F" stroke-width="4" stroke-linecap="round" stroke-linejoin="round"></path>
                                    <path d="M72.9126126,37.7132533 L78.4785692,32.1472967" id="Stroke-168" stroke="#0F0F0F" stroke-width="4" stroke-linecap="round" stroke-linejoin="round"></path>
                                    <path d="M72.9126126,32.9505581 L67.346656,27.3846015" id="Stroke-169" stroke="#0F0F0F" stroke-width="4" stroke-linecap="round" stroke-linejoin="round"></path>
                                    <path d="M72.9126126,76.2264838 C72.9126126,66.7575147 65.2363438,59.0806003 55.7667292,59.0806003" id="Stroke-174" stroke="#0F0F0F" stroke-width="4" stroke-linecap="round" stroke-linejoin="round"></path>
                                    <path d="M7.35026628,38.355617 C7.35026628,47.8252316 15.0265351,55.5015004 24.4961497,55.5015004" id="Stroke-159" stroke="#0F0F0F" stroke-width="4" stroke-linecap="round" stroke-linejoin="round"></path>
                                    <path d="M13.7405293,31.414181 C13.7405293,27.8849436 10.8794391,25.0238534 7.35020173,25.0238534 C3.82096436,25.0238534 0.959874175,27.8849436 0.959874175,31.414181 C0.959874175,34.9434184 3.82096436,37.8045085 7.35020173,37.8045085 C10.8794391,37.8045085 13.7405293,34.9434184 13.7405293,31.414181 L13.7405293,31.414181 Z" id="Stroke-173" stroke="#0F0F0F" stroke-width="4" fill="#FDFDFD" stroke-linecap="round" stroke-linejoin="round"></path>
                                    <path d="M113.582441,90.3903276 C113.582441,86.8610902 110.721351,84 107.192114,84 C103.662877,84 100.801786,86.8610902 100.801786,90.3903276 C100.801786,93.9195649 103.662877,96.7806551 107.192114,96.7806551 C110.721351,96.7806551 113.582441,93.9195649 113.582441,90.3903276 L113.582441,90.3903276 Z" id="Stroke-173-Copy" stroke="#0F0F0F" stroke-width="4" fill="#FDFDFD" stroke-linecap="round" stroke-linejoin="round"></path>
                                    <path d="M72.9012509,97.869329 C72.9012509,107.338298 80.5775197,115.015212 90.0471343,115.015212" id="Stroke-88" stroke="#0F0F0F" stroke-width="4" stroke-linecap="round" stroke-linejoin="round"></path>
                                    <path d="M90.0468761,115.01489 C99.5158451,115.01489 107.192114,107.338621 107.192114,97.8690062" id="Stroke-95" stroke="#0F0F0F" stroke-width="4" stroke-linecap="round" stroke-linejoin="round"></path>
                                </g>
                            </g>
                            <g id="Group-19" transform="translate(578.588612, 247.463829)" stroke="#0F0F0F">
                                <g id="Group-10-Copy" opacity="0.15" transform="translate(15.000000, 45.000000)" stroke-linecap="square" stroke-width="0.25">
                                    <g id="Group-7" transform="translate(0.192964, 0.517145)">
                                        <g id="Group-5" transform="translate(0.541524, 0.112676)">
                                            <path d="M1.13017368,2.74709494 L114.5986,2.74709494" id="Line-2"></path>
                                            <path d="M1.13017368,4.49357382 L114.5986,4.49357382" id="Line-2-Copy"></path>
                                            <path d="M1.13017368,6.24005269 L114.5986,6.24005269" id="Line-2-Copy-2"></path>
                                            <path d="M1.13017368,7.98653156 L114.5986,7.98653156" id="Line-2-Copy-3"></path>
                                            <path d="M1.13017368,9.73301044 L114.5986,9.73301044" id="Line-2-Copy-4"></path>
                                            <path d="M1.13017368,11.4794893 L114.5986,11.4794893" id="Line-2-Copy-5"></path>
                                            <path d="M1.13017368,1.00061607 L114.5986,1.00061607" id="Line-2-Copy-6"></path>
                                        </g>
                                    </g>
                                </g>
                                <g id="Group-10">
                                    <g id="Group-7" transform="translate(0.192964, 39.517145)">
                                        <path d="M2.64085699,2.54225352 L2.64085699,21.6830986 L129.640857,21.6830986 L129.640857,6.54225352 C129.640857,4.33311452 127.849996,2.54225352 125.640857,2.54225352 L2.64085699,2.54225352 Z" id="Rectangle-3" stroke-width="4"></path>
                                        <g id="Group-5" transform="translate(13.541524, 6.112676)" stroke-linecap="round" stroke-width="0.25">
                                            <path d="M1.13017368,2.74709494 L114.5986,2.74709494" id="Line-2"></path>
                                            <path d="M1.13017368,4.49357382 L114.5986,4.49357382" id="Line-2-Copy"></path>
                                            <path d="M1.13017368,6.24005269 L114.5986,6.24005269" id="Line-2-Copy-2"></path>
                                            <path d="M1.13017368,7.98653156 L114.5986,7.98653156" id="Line-2-Copy-3"></path>
                                            <path d="M1.13017368,9.73301044 L114.5986,9.73301044" id="Line-2-Copy-4"></path>
                                            <path d="M1.13017368,11.4794893 L114.5986,11.4794893" id="Line-2-Copy-5"></path>
                                            <path d="M1.13017368,1.00061607 L114.5986,1.00061607" id="Line-2-Copy-6"></path>
                                        </g>
                                    </g>
                                    <g id="Group-6" transform="translate(0.192964, 20.179117)" stroke-width="4">
                                        <path d="M2.64085699,2.3220962 L2.64085699,21.4629413 L118.21382,21.4629413 L118.21382,6.3220962 C118.21382,4.1129572 116.422959,2.3220962 114.21382,2.3220962 L2.64085699,2.3220962 Z" id="Rectangle-3-Copy"></path>
                                    </g>
                                    <g id="Group-6-Copy" transform="translate(0.192964, 0.081654)">
                                        <path d="M2.64085699,22.1191022 L108.448914,22.1191022 L108.448914,6.97825717 C108.448914,4.76911817 106.658053,2.97825717 104.448914,2.97825717 L6.64085699,2.97825717 C4.43171799,2.97825717 2.64085699,4.76911817 2.64085699,6.97825717 L2.64085699,22.1191022 Z" id="Rectangle-3-Copy" stroke-width="4"></path>
                                        <g id="Group-5-Copy" transform="translate(13.190345, 6.548680)" stroke-linecap="round" stroke-width="0.25">
                                            <path d="M0.918755179,2.74709494 L93.1609533,2.74709494" id="Line-2"></path>
                                            <path d="M0.918755179,4.49357382 L93.1609533,4.49357382" id="Line-2-Copy"></path>
                                            <path d="M0.918755179,6.24005269 L93.1609533,6.24005269" id="Line-2-Copy-2"></path>
                                            <path d="M0.918755179,7.98653156 L93.1609533,7.98653156" id="Line-2-Copy-3"></path>
                                            <path d="M0.918755179,9.73301044 L93.1609533,9.73301044" id="Line-2-Copy-4"></path>
                                            <path d="M0.918755179,11.4794893 L93.1609533,11.4794893" id="Line-2-Copy-5"></path>
                                            <path d="M0.918755179,1.00061607 L93.1609533,1.00061607" id="Line-2-Copy-6"></path>
                                        </g>
                                    </g>
                                </g>
                            </g>
                            <g id="Group-21" transform="translate(0.252768, 168.693295)">
                                <g id="Group-15" transform="translate(90.719424, 71.785751) scale(-1, 1) translate(-90.719424, -71.785751) translate(0.719424, 0.285751)">
                                    <path d="M127.041667,21.5833333 L126.998464,21.5833333 L126.998464,8.7105625 C126.998464,5.0056523 123.995041,2.00222917 120.290131,2.00222917 L102.873464,2.00222917 C99.1685541,2.00222917 96.165131,5.0056523 96.165131,8.7105625 L96.165131,21.5833333 L52.625,21.5833333 L52.625,8.7105625 C52.625,5.0056523 49.6215769,2.00222917 45.9166667,2.00222917 L28.5,2.00222917 C24.7950898,2.00222917 21.7916667,5.0056523 21.7916667,8.7105625 L21.7916667,133.767322 C21.7916667,137.035007 24.4406486,139.683989 27.7083333,139.683989 L117.152151,139.683989 L117.152151,139.698247 L145.273286,139.698247 C151.164324,139.698247 155.939953,134.922617 155.939953,129.03158 L155.939953,82.5632655 C155.939953,79.2725689 158.60759,76.6049322 161.898286,76.6049322 L172.555399,76.6049322 C175.47438,76.6049322 177.840681,74.2386307 177.840681,71.3196499 C177.840681,68.4006691 175.47438,66.0343676 172.555399,66.0343676 L155.855031,66.0343676 C150.401219,66.0343676 145.980031,70.4555557 145.980031,75.9093676 L145.980031,122.046626 C145.980031,126.648999 142.249071,130.379959 137.646698,130.379959 L127.041667,130.379959 L127.041667,21.5833333 Z" id="Combined-Shape" stroke="#0F0F0F" stroke-width="4" fill="#FDFDFD"></path>
                                    <g id="Rectangle-7" transform="translate(34.791667, 97.583333)" stroke="#0F0F0F" stroke-width="4">
                                        <path d="M2.93012993,42.2848553 L76.3198701,42.2848553 L76.3198701,39.2204779 C76.3198701,18.9544608 59.8910171,2.52560787 39.625,2.52560787 C19.3589829,2.52560787 2.93012993,18.9544608 2.93012993,39.2204779 L2.93012993,42.2848553 Z"></path>
                                    </g>
                                    <g id="Group-17" transform="translate(41.416667, 28.458333)">
                                        <g id="Group-23" transform="translate(33.663309, 30.310169) rotate(209.000000) translate(-33.663309, -30.310169) translate(5.663309, 11.810169)">
                                            <path d="M1.97286521,22.7028905 C1.57962125,29.5027116 4.28518332,32.9026221 10.0895514,32.9026221 C15.8939195,32.9026221 18.5689001,29.5027116 18.114493,22.7028905" id="Path-6-Copy-5" stroke="#0F0F0F" stroke-width="4" stroke-linecap="round" stroke-linejoin="round" transform="translate(10.049709, 27.802756) rotate(-210.000000) translate(-10.049709, -27.802756) "></path>
                                            <g transform="translate(45.588583, 10.054738) rotate(349.000000) translate(-45.588583, -10.054738) translate(36.588583, 2.554738)">
                                                <ellipse id="Oval-7" stroke="#0F0F0F" stroke-width="4" fill="#FDFDFD" cx="7.75596713" cy="7.42087434" rx="9.53351142" ry="9.13142529"></ellipse>
                                                <ellipse id="Oval-8" fill="#0F0F0F" cx="12.8415451" cy="7.78955787" rx="4.75800722" ry="4.72537409"></ellipse>
                                            </g>
                                        </g>
                                    </g>
                                    <g id="Group-18" transform="translate(61.354167, 21.958333)" stroke="#0F0F0F" stroke-linecap="round" stroke-width="4">
                                        <path d="M1.06745709,0.616504741 L1.06745709,18.319193" id="Path-6"></path>
                                        <path d="M12.9866089,0.616504741 L12.9866089,18.319193" id="Path-6-Copy-3"></path>
                                        <path d="M24.9057608,0.616504741 L24.9057608,18.319193" id="Path-6-Copy-4"></path>
                                    </g>
                                    <g id="Group-18-Copy" transform="translate(134.351680, 60.395833) rotate(-270.000000) translate(-134.351680, -60.395833) translate(120.851680, 44.395833)" stroke="#0F0F0F" stroke-linecap="round" stroke-width="4">
                                        <path d="M1.06745709,0.275416009 L1.06745709,30.9162704" id="Path-6"></path>
                                        <path d="M12.9866089,5.13225547 L12.9866089,30.9162704" id="Path-6-Copy-3"></path>
                                        <path d="M24.9057608,11.1279524 L24.9057608,30.9162704" id="Path-6-Copy-4"></path>
                                    </g>
                                    <g id="Group-18-Copy-2" transform="translate(16.166667, 60.395833) rotate(-270.000000) translate(-16.166667, -60.395833) translate(2.666667, 44.895833)" stroke="#0F0F0F" stroke-linecap="round" stroke-width="4">
                                        <path d="M1.06745709,0.275416009 L1.06745709,30.9162704" id="Path-6"></path>
                                        <path d="M12.9866089,0.275416009 L12.9866089,25.4472422" id="Path-6-Copy-3"></path>
                                        <path d="M24.9057608,0.275416009 L24.9057608,20.4514626" id="Path-6-Copy-4"></path>
                                    </g>
                                    <g id="Group-16" transform="translate(64.250000, 69.833333)">
                                        <ellipse id="Oval-4" fill="#0F0F0F" cx="9.77083333" cy="3.28166033" rx="9.01786787" ry="2.676673"></ellipse>
                                        <path d="M10.1979562,5.95833333 C10.1979562,9.9037371 13.4877857,13.1024514 17.546192,13.1024514" id="Stroke-158" stroke="#0F0F0F" stroke-width="4" stroke-linecap="round" stroke-linejoin="round"></path>
                                        <path d="M1.99547471,5.95833333 C1.99547471,9.9037371 5.2853042,13.1024514 9.34371046,13.1024514" id="Stroke-158-Copy" stroke="#0F0F0F" stroke-width="4" stroke-linecap="round" stroke-linejoin="round" transform="translate(5.669593, 9.530392) scale(-1, 1) translate(-5.669593, -9.530392) "></path>
                                    </g>
                                    <circle id="Oval-5" stroke="#0F0F0F" stroke-width="4" cx="109.152862" cy="94.3958333" r="5.9375"></circle>
                                    <circle id="Oval-5-Copy" stroke="#0F0F0F" stroke-width="4" cx="37.6041667" cy="94.3958333" r="5.9375"></circle>
                                </g>
                            </g>
                        </g>
                    </g>
                </g>
                <g id="Group-13" transform="translate(356.500000, 8.000000)">
                    <g id="Group-Copy-3" transform="translate(0.327523, 0.904426)">
                        <g id="Body" transform="translate(0.000000, 13.000000)">
                            <mask id="mask-2" fill="white">
                                <use xlink:href="#path-1"></use>
                            </mask>
                            <use fill="#FFE6C8" xlink:href="#path-1"></use>
                            <g id="Group-2" transform="translate(0.000000, 169.000000)">
                                <mask id="mask-4" fill="white">
                                    <use xlink:href="#path-3"></use>
                                </mask>
                                <use id="Hoodie" fill="#FF4F5E" xlink:href="#path-3"></use>
                                <g id="moz-fav-one-color-white-rgb" mask="url(#mask-4)" fill="#FFFFFF" fill-rule="nonzero">
                                    <g transform="translate(75.089163, 93.325316)" id="Shape">
                                        <path d="M0,0 L0,41.5069894 L41.5069894,41.5069894 L41.5069894,0 L0,0 Z M37.7225286,29.9094482 L30.2146467,29.9094482 L30.2146467,19.7768596 C30.2146467,16.6638354 29.1769719,15.5040813 27.1626622,15.5040813 C24.7210745,15.5040813 23.7444395,17.2742323 23.7444395,19.7158199 L23.7444395,25.9418684 L26.1249874,25.9418684 L26.1249874,29.8484085 L18.6171055,29.8484085 L18.6171055,19.7768596 C18.6171055,16.6638354 17.5794308,15.5040813 15.565121,15.5040813 C13.1235334,15.5040813 12.1468984,17.2742323 12.1468984,19.7158199 L12.1468984,25.9418684 L15.565121,25.9418684 L15.565121,29.8484085 L4.57797677,29.8484085 L4.57797677,25.9418684 L6.95852469,25.9418684 L6.95852469,15.8703195 L4.57797677,15.8703195 L4.57797677,11.9637793 L12.0858587,11.9637793 L12.0858587,14.6495257 C13.1845731,12.7572953 15.0157638,11.5975411 17.5183911,11.5975411 C20.0820581,11.5975411 22.462606,12.818335 23.3171617,15.4430416 C24.2937967,13.0624937 26.3081065,11.5975411 29.1159322,11.5975411 C32.3510358,11.5975411 35.280941,13.5508112 35.280941,17.7625499 L35.280941,26.002908 L35.3419807,26.002908 L37.7225286,26.002908 L37.7225286,29.9094482 Z"></path>
                                    </g>
                                </g>
                                <path d="M64.5891538,47.3319226 L64.5891538,108.345959 C64.5891538,109.450529 63.6937233,110.345959 62.5891538,110.345959 C61.4845843,110.345959 60.5891538,109.450529 60.5891538,108.345959 L60.5891538,45.1502625 C61.8768657,45.9156105 63.2121265,46.6437196 64.5891413,47.3319164 Z M131.589154,46.8212989 L131.589154,69.1729796 C131.589154,70.2775491 130.693723,71.1729796 129.589154,71.1729796 C128.484584,71.1729796 127.589154,70.2775491 127.589154,69.1729796 L127.589154,48.7390531 C128.958518,48.1371784 130.293541,47.4971468 131.589173,46.8212889 Z" id="Straps" fill="#FDFDFD" mask="url(#mask-4)"></path>
                                <path d="M94.9794289,55 C83.7552731,54.9999467 72.274849,51.4467369 63.9350088,46.9524256 C51.2660367,40.1251601 41.6355681,29.9419641 41.6355681,18.0769231 C41.6355681,8.70605458 47.2320129,3.07445977 55.8861936,-0.275646301 C41.5491788,2.57117818 31.6335469,8.24288473 31.6335469,19.3076923 C31.6335469,39.0199574 63.1041981,54.9999155 94.9794289,55 Z M134.073169,-0.275646301 C148.410184,2.57117818 158.325816,8.24288473 158.325816,19.3076923 C158.325816,39.0179985 126.861419,54.9967395 94.989437,54.9999995 C121.828475,54.9959946 148.323795,38.466505 148.323795,18.0769231 C148.323795,8.70605458 142.72735,3.07445977 134.073169,-0.275646301 Z" id="Shadow" fill-opacity="0.16" fill="#000000" mask="url(#mask-4)"></path>
                                <path d="M154,85.9649803 L154,154.195273" id="Path-8" stroke="#D6424E" stroke-width="4" stroke-linecap="round"></path>
                                <path d="M37,85.9649803 L37,154.195273" id="Path-8-Copy" stroke="#D6424E" stroke-width="4" stroke-linecap="round"></path>
                            </g>
                            <g id="Face" transform="translate(51.000000, 52.000000)">
                                <g id="ðŸ‘ƒðŸ½-Nose" transform="translate(36.000000, 41.000000)" stroke="#0F0F0F" stroke-linecap="round" stroke-width="4">
                                    <path d="M0.964159294,0.771101828 C0.964159294,3.75398752 4.59131924,6.17209416 9.06564778,6.17209416 C13.5399763,6.17209416 17.1671363,3.75398752 17.1671363,0.771101828" id="Nose"></path>
                                </g>
                                <g id="ðŸ‘-Eyes" transform="translate(22.000000, 14.000000)" fill="#0F0F0F">
                                    <path d="M2,12 C5.3137085,12 8,9.3137085 8,6 C8,2.6862915 5.3137085,1.13686838e-13 2,1.13686838e-13 C-1.3137085,1.13686838e-13 2,2.6862915 2,6 C2,9.3137085 -1.3137085,12 2,12 Z" id="Eye"></path>
                                    <path d="M53,12 C56.3137085,12 59,9.3137085 59,6 C59,2.6862915 56.3137085,1.13686838e-13 53,1.13686838e-13 C49.6862915,1.13686838e-13 53,2.6862915 53,6 C53,9.3137085 49.6862915,12 53,12 Z" id="Eye"></path>
                                </g>
                                <g id="I-Browse" fill="#0F0F0F" fill-rule="nonzero">
                                    <path d="M3.63024536,11.1585767 C7.54515501,5.64986673 18.2779197,2.56083721 27.5230268,4.83118046 C28.5957248,5.0946055 29.6788665,4.43856013 29.9422916,3.36586212 C30.2057166,2.2931641 29.5496712,1.21002236 28.4769732,0.94659732 C17.7403633,-1.69001789 5.31209962,1.88699832 0.369754639,8.84142326 C-0.270109626,9.74178291 -0.0589363917,10.9903811 0.84142326,11.6302454 C1.74178291,12.2701096 2.9903811,12.0589364 3.63024536,11.1585767 Z" id="Eyebrow"></path>
                                    <path d="M36.2402823,80.1211878 C39.4346195,74.6124778 48.1919276,71.5234483 55.735394,73.7937915 C56.6106528,74.0572166 57.4944331,73.4011712 57.7093725,72.3284732 C57.924312,71.2557752 57.3890173,70.1726334 56.5137585,69.9092084 C47.753313,67.2725932 37.612577,70.8496094 33.5799127,77.8040343 C33.0578209,78.704394 33.2301259,79.9529922 33.9647667,80.5928564 C34.6994075,81.2327207 35.7181905,81.0215475 36.2402823,80.1211878 Z" id="Eyebrow-Copy" transform="translate(45.517462, 75.001809) rotate(198.000000) translate(-45.517462, -75.001809) "></path>
                                    <path d="M61.6302454,11.1585767 C65.545155,5.64986673 76.2779197,2.56083721 85.5230268,4.83118046 C86.5957248,5.0946055 87.6788665,4.43856013 87.9422916,3.36586212 C88.2057166,2.2931641 87.5496712,1.21002236 86.4769732,0.94659732 C75.7403633,-1.69001789 63.3120996,1.88699832 58.3697546,8.84142326 C57.7298904,9.74178291 57.9410636,10.9903811 58.8414233,11.6302454 C59.7417829,12.2701096 60.9903811,12.0589364 61.6302454,11.1585767 Z" id="Eyebrow" transform="translate(73.000154, 6.039198) scale(-1, 1) translate(-73.000154, -6.039198) "></path>
                                </g>
                            </g>
                        </g>
                        <mask id="mask-6" fill="white">
                            <use xlink:href="#path-5"></use>
                        </mask>
                        <use id="Combined-Shape" fill="#B59750" xlink:href="#path-5"></use>
                    </g>
                </g>
                <path d="M547.895458,317.44054 L568.550123,317.44054 C579.043533,317.44054 587.550123,308.93395 587.550123,298.44054 C587.550123,298.424491 587.550103,298.408442 587.550062,298.392393 L587.325397,209.734714 C587.298806,199.241338 595.783812,190.713219 606.277189,190.686628 C606.293238,190.686587 606.309287,190.686567 606.325336,190.686567 L632.278471,190.686567 C642.771882,190.686567 651.278471,182.179977 651.278471,171.686567 L651.278471,129.154358" id="Path-7" stroke="#D6DDE3" stroke-width="4" stroke-linecap="round" stroke-dasharray="8,8,8"></path>
                <g id="Group-11" transform="translate(340.000000, 271.404426)">
                    <g id="Group-12" transform="translate(0.208624, 0.677087)">
                        <g id="Path-12">
                            <mask id="mask-8" fill="white">
                                <use xlink:href="#path-7"></use>
                            </mask>
                            <path stroke="#000000" stroke-width="4" d="M6.61802749,-1.59850989 L213.580095,-1.59850989 C217.998373,-1.59850989 221.580095,1.98321211 221.580095,6.40149011 L221.580095,71.7463853 C221.580095,73.9555243 219.789234,75.7463853 217.580095,75.7463853 L2.61802749,75.7463853 C0.408888487,75.7463853 -1.38197251,73.9555243 -1.38197251,71.7463853 L-1.38197251,6.40149011 C-1.38197251,1.98321211 2.19974949,-1.59850989 6.61802749,-1.59850989 Z"></path>
                            <rect id="Rectangle" fill="#A5B2BD" mask="url(#mask-8)" x="-6.80225414" y="-7.3726593" width="240" height="97"></rect>
                            <path d="M24.8997046,74.3007189 C36.5578197,72.1380686 47.5832438,70.3752746 57.9759769,69.0123369 C93.8944289,64.3018713 155.047803,75.7158275 190.89825,62.7829927 C214.798548,54.1611029 227.492782,42.9560464 228.980953,29.1678235 L225.555277,74.3007189 L24.8997046,74.3007189 Z" fill="#B4C0CA" mask="url(#mask-8)"></path>
                        </g>
                        <path d="M117.148383,41.3974981 C117.137548,39.4092232 118.036876,37.9085362 119.857204,36.803337 C118.838688,35.3459911 117.300077,34.54418 115.268461,34.3870684 C113.345198,34.2353744 111.243152,35.5085204 110.473847,35.5085204 C109.661201,35.5085204 107.797532,34.4412448 106.334768,34.4412448 C103.311723,34.4900036 100.099061,36.8520958 100.099061,41.6575449 C100.099061,43.0769673 100.359108,44.5451485 100.879202,46.0566709 C101.57266,48.0449458 104.075611,52.9208242 106.686915,52.8395596 C108.052161,52.8070537 109.016501,51.8698015 110.793488,51.8698015 C112.516299,51.8698015 113.41021,52.8395596 114.932567,52.8395596 C117.565542,52.8016361 119.830116,48.3700043 120.491069,46.3763118 C116.958766,44.7130955 117.148383,41.5004333 117.148383,41.3974981 Z M114.081997,32.5017287 C115.561014,30.7464124 115.425573,29.1482078 115.382232,28.5739377 C114.07658,28.6497847 112.565057,29.4624311 111.703652,30.464695 C110.755565,31.5373883 110.197547,32.8647108 110.316736,34.3599802 C111.73074,34.468333 113.020139,33.7423689 114.081997,32.5017287 Z" id="Shape" fill="#FDFDFD" fill-rule="nonzero"></path>
                    </g>
                </g>
                <g id="Group-8" transform="translate(752.211710, 154.904426)" stroke="#0F0F0F" stroke-linecap="round" stroke-linejoin="round" stroke-width="4">
                    <g id="Group-4" transform="translate(0.000000, 0.000000)">
                        <path d="M51.9126126,111.008446 L51.9126126,76.7173247" id="Stroke-154"></path>
                        <path d="M51.9126126,75.5314441 L51.9126126,41.2403229" id="Stroke-155"></path>
                        <path d="M9.06791624,65.7173252 C3.93254341,62.7555287 0.475607955,57.2082932 0.475607955,50.8541166 C0.475607955,41.3851476 17.6208458,20.6112572 17.6208458,20.6112572 C17.6208458,20.6112572 34.7667292,41.3851476 34.7667292,50.8541166 C34.7667292,60.3237312 27.0904604,68 17.6208458,68" id="Stroke-161"></path>
                        <path d="M86.223165,45.982554 C81.0877922,43.0207576 77.6308567,37.4735221 77.6308567,31.1193455 C77.6308567,21.6503764 94.7760946,0.876486058 94.7760946,0.876486058 C94.7760946,0.876486058 111.921978,21.6503764 111.921978,31.1193455 C111.921978,40.5889601 104.245709,48.2652289 94.7760946,48.2652289" id="Stroke-161-Copy" transform="translate(94.776417, 24.570857) scale(-1, 1) translate(-94.776417, -24.570857) "></path>
                    </g>
                </g>
                <g id="Group-19" transform="translate(620.605821, 312.000000)" stroke="#0F0F0F" stroke-linecap="round" stroke-width="0.25">
                    <g id="Group-10">
                        <g id="Group-6" transform="translate(0.192964, 0.179117)">
                            <g id="Group-5-Copy" transform="translate(0.762086, 0.604975)">
                                <path d="M1.0182696,2.74709494 L103.251626,2.74709494" id="Line-2"></path>
                                <path d="M1.0182696,4.49357382 L103.251626,4.49357382" id="Line-2-Copy"></path>
                                <path d="M1.0182696,6.24005269 L103.251626,6.24005269" id="Line-2-Copy-2"></path>
                                <path d="M1.0182696,7.98653156 L103.251626,7.98653156" id="Line-2-Copy-3"></path>
                                <path d="M1.0182696,9.73301044 L103.251626,9.73301044" id="Line-2-Copy-4"></path>
                                <path d="M1.0182696,11.4794893 L103.251626,11.4794893" id="Line-2-Copy-5"></path>
                                <path d="M1.0182696,1.00061607 L103.251626,1.00061607" id="Line-2-Copy-6"></path>
                            </g>
                        </g>
                    </g>
                </g>
                <path d="M1.32752319,347.904426 L888.077773,347.904426" id="Line" stroke="#0F0F0F" stroke-width="4" stroke-linecap="round"></path>
                <g id="Group-14" transform="translate(559.000000, 0.000000)">
                    <g id="Rectangle-4">
                        <g id="Group-22">
                            <rect id="Rectangle-4" fill="#FDFDFD" x="1.36292722" y="0.810711471" width="186.362546" height="20.6892885"></rect>
                            <path d="M1.40911835,21.5 L187.771664,21.5 L187.771664,129.152416 C187.771664,131.91384 185.533088,134.152416 182.771664,134.152416 L6.40911835,134.152416 C3.6476946,134.152416 1.40911835,131.91384 1.40911835,129.152416 L1.40911835,21.5 Z" id="Rectangle-4-Copy" fill="#000000"></path>
                            <rect id="Mask" stroke="#000000" stroke-width="4" stroke-linecap="round" x="0.180782456" y="0" width="188.819218" height="134.152416" rx="6"></rect>
                            <g transform="translate(0.000000, 8.000000)">
                                <path d="M1.49932984,13.5 L188.023076,13.5" id="Line-3" stroke="#000000" stroke-width="4" stroke-linecap="square"></path>
                                <circle id="Oval" fill="#E52F28" cx="9.08694809" cy="3.14002868" r="2.5"></circle>
                                <circle id="Oval-Copy" fill="#FFC646" cx="19.2493911" cy="3.14002868" r="2.5"></circle>
                                <circle id="Oval-Copy-2" fill="#4BC27D" cx="29.2493911" cy="3.14002868" r="2.5"></circle>
                            </g>
                        </g>
                    </g>
                </g>
                <g id="Group" transform="translate(601.590391, 62.826208)">
                    <path d="M38.7608459,13.2069768 C36.8587586,13.2069768 35.6773306,14.6188933 35.6773306,17.0684488 C35.6773306,19.3161906 36.7147099,21.0453986 38.7319115,21.0453986 C40.6626734,21.0453986 41.9305411,19.4891738 41.9305411,17.0106319 C41.9305411,14.3884049 40.5186247,13.2069768 38.7608459,13.2069768" id="Fill-1" fill="#FFFFFE"></path>
                    <g id="Group-5"></g>
                    <path d="M89.7216262,19.7484926 C89.7216262,20.5840064 90.1247341,21.2471603 91.2488647,21.2471603 C92.5745493,21.2471603 93.9864658,20.2959609 94.0726976,18.1347106 C93.4680358,18.048219 92.8051935,17.9617275 92.2000123,17.9617275 C90.8743277,17.9617275 89.7216262,18.3362645 89.7216262,19.7484926" id="Fill-2" fill="#FFFFFE"></path>
                    <path d="M96.9256207,23.8983217 C95.1968282,23.8983217 94.2456807,22.8895651 94.0726976,21.3044058 C93.3236235,22.6301943 91.9979389,23.8983217 89.8940899,23.8983217 C88.0214046,23.8983217 85.8889848,22.8895651 85.8889848,20.1805349 C85.8889848,16.9819572 88.9720326,16.2325714 91.9402778,16.2325714 C92.6607812,16.2325714 93.4103748,16.2615578 94.0726976,16.3479974 L94.0726976,15.9156434 C94.0726976,14.5899069 94.0441268,13.0050593 91.9402778,13.0050593 C91.1626329,13.0050593 90.5574517,13.0628762 89.9517509,13.3795963 L89.5320201,14.842161 L86.5637749,14.5251811 L87.0702571,11.5355857 C89.3470892,10.6133207 90.4992712,10.3538979 92.6322104,10.3538979 C95.4274724,10.3538979 97.7905364,11.7947487 97.7905364,14.7631498 L97.7905364,20.4113869 C97.7905364,21.1606688 98.0788416,21.4198318 98.6840228,21.4198318 C98.857006,21.4198318 99.0294697,21.3908974 99.231543,21.3333922 L99.2601138,23.2929846 C98.5687008,23.6677814 97.7328753,23.8983217 96.9256207,23.8983217 Z M76.9790546,23.6100684 L82.5981495,3.7834477 L86.2578077,3.7834477 L80.6387128,23.6100684 L76.9790546,23.6100684 Z M69.4285744,23.6100684 L75.0476693,3.7834477 L78.7073275,3.7834477 L73.0882327,23.6100684 L69.4285744,23.6100684 Z M63.1045602,15.2818394 L66.9948627,15.2818394 L66.9948627,10.6132168 L63.1045602,10.6132168 L63.1045602,15.2818394 Z M63.1045602,23.6101204 L66.9948627,23.6101204 L66.9948627,18.9414977 L63.1045602,18.9414977 L63.1045602,23.6101204 Z M59.5758081,23.6101204 L48.2216729,23.6101204 L47.8471878,21.650424 L54.9935731,13.4372574 L50.9307031,13.4372574 L50.3543004,15.4547706 L47.6742046,15.1664135 L48.1352333,10.6131648 L59.5472373,10.6131648 L59.8355426,12.5728092 L52.6305092,20.7860278 L56.8382071,20.7860278 L57.4433884,18.7688263 L60.3830628,19.0568198 L59.5758081,23.6101204 Z M38.6168491,23.8981139 C34.6110168,23.8981139 31.8444814,21.4487662 31.8444814,17.2989891 C31.8444814,13.4950223 34.1500401,10.3539498 38.818403,10.3539498 C43.486766,10.3539498 45.7634422,13.4950223 45.7634422,17.1260579 C45.7634422,21.275835 42.7663665,23.8981139 38.6168491,23.8981139 Z M30.2269592,23.6101204 L24.7803279,23.6101204 L24.7803279,16.2902844 C24.7803279,14.0425425 24.0312538,13.1780944 22.5615205,13.1780944 C20.7748073,13.1780944 20.0544078,14.446014 20.0544078,16.2616616 L20.0544078,20.7860278 L21.7833042,20.7860278 L21.7833042,23.6101204 L16.3369327,23.6101204 L16.3369327,16.2902844 C16.3369327,14.0425425 15.5875988,13.1780944 14.1178655,13.1780944 C12.3311523,13.1780944 11.6107009,14.446014 11.6107009,16.2616616 L11.6107009,20.7860278 L14.0891908,20.7860278 L14.0891908,23.6101204 L6.16406969,23.6101204 L6.16406969,20.7860278 L7.8932777,20.7860278 L7.8932777,13.4372574 L6.16406969,13.4372574 L6.16406969,10.6131648 L11.6107009,10.6131648 L11.6107009,12.5728092 C12.3887095,11.1898272 13.7433285,10.3540018 15.5587164,10.3540018 C17.4318692,10.3540018 19.1610253,11.2473844 19.7949851,13.1492119 C20.5153845,11.4200558 21.9851178,10.3540018 24.0312538,10.3540018 C26.3654872,10.3540018 28.4980628,11.7659182 28.4980628,14.8497452 L28.4980628,20.7860278 L30.2269592,20.7860278 L30.2269592,23.6101204 Z M0,29.71362 L103.893776,29.71362 L103.893776,0.00711672367 L0,0.00711672367 L0,29.71362 Z" id="Fill-4" fill="#FFFFFE"></path>
                </g>
            </g>
        </g>
    </g>
</svg>