<svg width="892" height="352" viewBox="0 0 892 352" xmlns="http://www.w3.org/2000/svg" xmlns:xlink="http://www.w3.org/1999/xlink">
  <title>
    Chapter II
  </title>
  <defs>
    <path
      d="M122.124 143.455V213h-49.23v-68.863C56.834 135.75 45.709 119.205 45.02 100h-.034c-6.456 0-11.689-5.233-11.689-11.69V73.69c0-6.457 5.233-11.69 11.69-11.69V51.89C44.987 23.233 68.22 0 96.877 0c28.659 0 51.89 23.232 51.89 51.89v10.124c6.188.301 11.112 5.413 11.112 11.675v14.622c0 6.273-4.941 11.392-11.145 11.677-.665 18.703-11.229 34.885-26.611 43.467z"
      id="a"/>
    <path
      d="M72.323.07v20.277C72.323 32.858 82.464 43 94.975 43c12.51 0 22.653-10.142 22.653-22.653V.071c17.084 2.025 30.203 7.592 30.203 22.006 0 .222-.003.444-.009.664 24.539 11.474 41.54 36.381 41.54 65.258v69.42H.588v-69.42c0-28.877 17-53.784 41.54-65.258a23.59 23.59 0 0 1-.01-.664c0-14.414 13.119-19.98 30.204-22.006z"
      id="b"/>
    <path
      d="M77.819 133.607c2.11-1.44 14.723-1.991 16.996-3.216.71-.383 1.26-.77 1.685-1.154.424.384.975.771 1.685 1.154 2.273 1.225 14.885 1.776 16.996 3.216 2.137 1.457 3.698 4.801 3.527 7.416-.205 3.138-3.97 10.624-13.339 11.486-2.045-2.074-5.256-3.412-8.87-3.412-3.612 0-6.823 1.338-8.868 3.412-9.369-.862-13.134-8.348-13.338-11.486-.171-2.615 1.389-5.959 3.526-7.416m.643 15.13l.016.005-.016-.005M41.266 95.448c-1.284-4.186-.423-20.432-.506-22.13-.306-6.317-.253-12.824.403-19.118.895-8.578 2.493-16.77 6.766-24.254 4.433-7.766 12.012-13.864 19.686-17.794 9.955-5.098 22.537-4.523 33.297-6.541 3.164-.594 6.243-1.347 9.257-2.513 1.006-.39 3.726-2.214 4.66-2.137 3.004.245-.32 4.639-1.151 6.057 2.512-.938 4.841-2.93 7.34-3.705 3.21-.995 1.502 2.722.607 4.578a55.605 55.605 0 0 0 5.507-1.9c.924-.375 2.643-1.51 3.606-1.084 2.19.97-.745 5.202-.82 6.7-.06 1.185-.311.412.122 1.404.18.413 1.684 1.534 1.831 1.66.646.548 1.318 1.065 1.978 1.594 2.995 2.4 6.074 4.794 8.726 7.614 9.941 10.57 10.37 28.606 10.425 42.438.014 4.55-1.086 7.94-1.086 12.46 0 .691.095 6.95-.59 10.575a4.973 4.973 0 0 1-.487 1.442c.637 2.901 1.313 7.14 1.488 8.036 1.01 5.17 2.167 10.353 2.542 15.602.386 5.394-.075 10.739-1.288 16.024a135.504 135.504 0 0 1-1.981 7.529c-.807 2.77.309 8.164-.052 11.008-.683 5.38-3.464 15.874-6.586 20.503-1.51 2.237-3.278 3.634-5.253 5.437-1.902 1.736-2.696 4.426-4.748 6.274-3.825 3.445-9.399 5.496-15.122 6-5.137 3.973-13.673 6.573-23.337 6.573s-18.2-2.6-23.336-6.573c-5.725-.504-11.298-2.555-15.123-6-2.052-1.848-2.846-4.538-4.747-6.274-1.976-1.803-3.745-3.2-5.254-5.437-3.122-4.63-5.903-15.123-6.586-20.503-.36-2.844.755-8.238-.051-11.008a135.225 135.225 0 0 1-1.982-7.529c-1.213-5.285-1.674-10.63-1.288-16.024.376-5.25 1.532-10.431 2.542-15.602.09-.46.31-1.797.591-3.382zm2.054-2.096c.352 6.206.993 12.365 1.768 18.571.298 2.388.611 4.776.817 7.171.165 1.935-.13 4.274.384 6.146.656 2.386 3.945 4.612 6.503 5.434 6.381 2.051 11.705-6.437 17.155-8.92 7.076-3.223 19.24-3.991 26.632.21 7.235-4.201 19.398-3.433 26.474-.21 5.45 2.483 10.774 10.971 17.156 8.92 2.557-.822 5.846-3.048 6.502-5.434.514-1.872.219-4.21.385-6.146.205-2.395.518-4.783.816-7.17.836-6.692 1.515-13.328 1.846-20.028-.128.05-.216.05-.236.017-1.378-2.212-.212-8.415-.585-9.649-2.121-7.016-1.408-15.152-3.122-22.283-1.72-7.156-4.58-12.908-10.243-17.487-2.716-2.197-5.485-4.242-7.808-6.92-.983-1.134-2.405-3.901-3.774-4.749-1.496-.926-4.227 3.031-17.88 4.098-13.654 1.066-14.915-2.784-20.445-2.784-5.53 0-21.788 6.828-27.38 10.649-6.002 4.102-7.781 11.714-9.901 18.393-1.203 3.79-1.897 7.723-2.619 11.638-.29 1.57-1.312 14.606-2.445 20.533z"
      id="d"/>
    <path d="M6.618.401H213.58a6 6 0 0 1 6 6v65.345a2 2 0 0 1-2 2H2.618a2 2 0 0 1-2-2V6.401a6 6 0 0 1 6-6z" id="e"/>
  </defs>
  <g fill="none" fill-rule="evenodd">
    <g stroke-width="4">
      <path
        d="M156.933 192.119h145.212m60.758-33.619h218.243m-90.35-115h71m-280.136 0h195.988M314.796 192.119h4.561m-53.749 37.596H410.82m-183.097 0H255.2m82.926-151.5h205.778m-443.886 0h205.778m-78.639 41.629H371M46 158.5h268m359.995-39.656h106.008M653.84 208.326h61.547M790 118.844h2.006m-264.844 86.482h27.655M725.985 75.215h106.311m-216.644 169h145.212m8.288 0h4.561"
        stroke="#D6DDE3"
        stroke-linecap="round"/>
      <g stroke="#0F0F0F">
        <path d="M269.5 348.866h-24.693c-6.628 0-12-5.372-12-12v-24.333a5 5 0 0 1 5-5h43.692v29.333c0 6.628-5.372 12-12 12z" fill="#FDFDFD"/>
        <path d="M275.403 307.535c11.784 0 20.506-1.436 20.506 14.356s-5.775 16.67-16.363 16.67m-44.739.344h46.738"/>
        <path
          d="M257.439 294.309c2.838-2.741 2.854-7.33.035-10.249m.034-10.248c-2.838 2.74-2.854 7.329-.034 10.248m-11.389 14.775c2.838-2.74 2.854-7.329.034-10.248m.035-10.248c-2.838 2.74-2.854 7.329-.035 10.248m22.674 9.799c2.838-2.741 2.854-7.33.035-10.249m.034-10.248c-2.838 2.74-2.853 7.329-.034 10.248"
          stroke-linecap="round"
          stroke-linejoin="round"/>
      </g>
    </g>
    <path
      d="M762.78 222.347c-5.135-2.962-8.592-8.51-8.592-14.864 0-9.469 17.145-30.242 17.145-30.242s17.146 20.773 17.146 30.242c0 9.47-7.677 17.146-17.146 17.146m42.845-38.53c5.135-2.962 8.592-8.51 8.592-14.863 0-9.47-17.145-30.243-17.145-30.243s-17.146 20.774-17.146 30.243c0 9.47 7.676 17.145 17.146 17.145"
      fill="#FDFDFD"/>
    <path d="M854.04 267.913h-96.832c0 9.944 8.06 18.006 18.005 18.006h60.823c9.944 0 18.005-8.062 18.005-18.006z" stroke="#0F0F0F" stroke-width="4" fill="#FDFDFD" stroke-linecap="round" stroke-linejoin="round"/>
    <path stroke="#0F0F0F" stroke-width="4" fill="#FDFDFD" d="M775.588 285.919l6.69 63.942h52.44l6.509-63.942z"/>
    <path
      d="M805.624 267.913v-34.291m0-1.186v-34.291m0 61.195c0-9.469-7.676-17.146-17.146-17.146m34.292-20.842c-9.47 0-17.146 7.677-17.146 17.146m-34.291-13.449c0 9.469 7.676 17.146 17.146 17.146m34.291-20.967c9.469 0 17.145-7.676 17.145-17.146m-68.582 13.641v-16.788m0 13.931l5.566-5.566m71.589-11.036v-16.789m0 13.931l5.566-5.566m-39.876-3.741c5.135-2.962 8.592-8.51 8.592-14.863 0-9.47-17.145-30.243-17.145-30.243s-17.146 20.774-17.146 30.243c0 9.47 7.676 17.145 17.146 17.145m-.001 0v9.763m0-16.669v-16.788m0 13.931l5.566-5.566m-5.566.803l-5.566-5.566m5.566 48.841c0-9.468-7.676-17.145-17.146-17.145m-48.416-20.725c0 9.47 7.676 17.146 17.146 17.146"
      stroke="#0F0F0F"
      stroke-width="4"
      stroke-linecap="round"
      stroke-linejoin="round"/>
    <path d="M746.452 172.319a6.39 6.39 0 1 0-12.78 0 6.39 6.39 0 0 0 12.78 0zm99.842 58.976a6.39 6.39 0 1 0-12.78 0 6.39 6.39 0 0 0 12.78 0z" stroke="#0F0F0F" stroke-width="4" fill="#FDFDFD" stroke-linecap="round" stroke-linejoin="round"/>
    <path d="M805.613 238.774c0 9.469 7.676 17.146 17.146 17.146m0 0c9.469 0 17.145-7.677 17.145-17.147" stroke="#0F0F0F" stroke-width="4" stroke-linecap="round" stroke-linejoin="round"/>
    <g stroke="#0F0F0F">
      <path d="M625.953 336.84h113.469m-113.469 1.747h113.469m-113.469 1.747h113.469m-113.469 1.746h113.469m-113.469 1.747h113.469m-113.469 1.746h113.469m-113.469-10.479h113.469" opacity=".15" stroke-linecap="square" stroke-width=".25"/>
      <path d="M611.922 330.523v19.141h127v-15.14a4 4 0 0 0-4-4h-123z" stroke-width="4"/>
      <path d="M623.953 336.84h113.469m-113.469 1.747h113.469m-113.469 1.747h113.469m-113.469 1.746h113.469m-113.469 1.747h113.469m-113.469 1.746h113.469m-113.469-10.479h113.469" stroke-linecap="round" stroke-width=".25"/>
      <path d="M611.922 310.965v19.14h115.573v-15.14a4 4 0 0 0-4-4H611.922zm0-.3H717.73v-15.141a4 4 0 0 0-4-4h-97.808a4 4 0 0 0-4 4v15.14z" stroke-width="4"/>
      <path d="M623.39 297.841h92.243m-92.243 1.747h92.243m-92.243 1.746h92.243m-92.243 1.746h92.243m-92.243 1.747h92.243m-92.243 1.747h92.243m-92.243-10.479h92.243" stroke-linecap="round" stroke-width=".25"/>
    </g>
    <g transform="matrix(-1 0 0 1 211.472 209.979)">
      <path
        d="M127.042 21.583h-.044V8.711a6.708 6.708 0 0 0-6.708-6.709h-17.417a6.708 6.708 0 0 0-6.708 6.709v12.872h-43.54V8.711a6.708 6.708 0 0 0-6.708-6.709H28.5a6.708 6.708 0 0 0-6.708 6.709v125.056a5.917 5.917 0 0 0 5.916 5.917h89.444v.014h28.121c5.891 0 10.667-4.775 10.667-10.666V82.563a5.958 5.958 0 0 1 5.958-5.958h10.657a5.285 5.285 0 1 0 0-10.57h-16.7c-5.454 0-9.875 4.42-9.875 9.874v46.138a8.333 8.333 0 0 1-8.333 8.333h-10.605V21.583z"
        stroke="#0F0F0F"
        stroke-width="4"
        fill="#FDFDFD"/>
      <path d="M37.722 139.868h73.39v-3.064c0-20.266-16.43-36.695-36.695-36.695-20.266 0-36.695 16.429-36.695 36.695v3.064z" stroke="#0F0F0F" stroke-width="4"/>
      <path d="M87.125 54.376c-.274 6.806 2.49 10.158 8.294 10.057 5.803-.101 8.418-3.547 7.845-10.338" stroke="#0F0F0F" stroke-width="4" stroke-linecap="round" stroke-linejoin="round"/>
      <g transform="rotate(-162 36.27 28.873)">
        <ellipse stroke="#0F0F0F" stroke-width="4" fill="#FDFDFD" cx="7.756" cy="7.421" rx="9.534" ry="9.131"/>
        <ellipse fill="#0F0F0F" cx="12.842" cy="7.79" rx="4.758" ry="4.725"/>
      </g>
      <path d="M62.422 22.575v17.703M74.34 22.575v17.703m11.92-17.703v17.703m63.816 7.685h-30.64m25.784 11.919h-25.785m19.789 11.92h-19.789M31.391 47.963H.751m30.64 11.919H6.22m25.171 11.92H11.215" stroke="#0F0F0F" stroke-linecap="round" stroke-width="4"/>
      <g transform="translate(64.25 69.833)">
        <ellipse fill="#0F0F0F" cx="9.771" cy="3.282" rx="9.018" ry="2.677"/>
        <path d="M10.198 5.958c0 3.946 3.29 7.144 7.348 7.144M9.344 5.958c0 3.946-3.29 7.144-7.349 7.144" stroke="#0F0F0F" stroke-width="4" stroke-linecap="round" stroke-linejoin="round"/>
      </g>
      <circle stroke="#0F0F0F" stroke-width="4" cx="109.153" cy="94.396" r="5.938"/>
      <circle stroke="#0F0F0F" stroke-width="4" cx="37.604" cy="94.396" r="5.938"/>
    </g>
    <g transform="translate(358.328 10.904)">
      <g transform="translate(0 13)">
        <use fill="#FFE6C8" xlink:href="#a"/>
        <g transform="translate(0 169)">
          <mask id="c" fill="#fff">
            <use xlink:href="#b"/>
          </mask>
          <use fill="#FF4F5E" xlink:href="#b"/>
          <g mask="url(#c)" fill="#FFF" fill-rule="nonzero">
            <path
              d="M75.09 93.325v41.507h41.506V93.325H75.09zm37.722 29.91h-7.508v-10.133c0-3.113-1.038-4.273-3.052-4.273-2.442 0-3.418 1.77-3.418 4.212v6.226h2.38v3.907h-7.508v-10.072c0-3.113-1.037-4.273-3.052-4.273-2.441 0-3.418 1.77-3.418 4.212v6.226h3.418v3.907H79.667v-3.907h2.38v-10.071h-2.38v-3.907h7.508v2.686c1.099-1.892 2.93-3.052 5.433-3.052 2.563 0 4.944 1.22 5.798 3.845.977-2.38 2.991-3.845 5.8-3.845 3.234 0 6.164 1.953 6.164 6.165v8.24h2.441v3.907z"/>
          </g>
          <path d="M64.59 47.332v61.014a2 2 0 1 1-4 0V45.15a62.645 62.645 0 0 0 4 2.182zm67-.51v22.351a2 2 0 0 1-4 0V48.739a66.549 66.549 0 0 0 4-1.918z" fill="#FDFDFD" mask="url(#c)"/>
          <path
            d="M94.98 55c-11.225 0-22.705-3.553-31.045-8.048-12.669-6.827-22.3-17.01-22.3-28.875 0-9.37 5.597-15.003 14.251-18.353C41.55 2.571 31.634 8.243 31.634 19.308 31.634 39.02 63.104 55 94.979 55zM134.072-.276c14.337 2.847 24.253 8.519 24.253 19.584 0 19.71-31.465 35.689-63.337 35.692 26.84-.004 53.335-16.533 53.335-36.923 0-9.37-5.597-15.003-14.25-18.353z"
            fill-opacity=".16"
            fill="#000"
            mask="url(#c)"/>
          <path d="M154 85.965v68.23M37 85.965v68.23" stroke="#D6424E" stroke-width="4" stroke-linecap="round"/>
        </g>
        <path d="M87.964 93.771c0 2.983 3.627 5.401 8.102 5.401 4.474 0 8.101-2.418 8.101-5.4" stroke="#0F0F0F" stroke-linecap="round" stroke-width="4"/>
        <path d="M75 78a6 6 0 1 0 0-12c-3.314 0 0 2.686 0 6s-3.314 6 0 6zm51 0a6 6 0 1 0 0-12c-3.314 0 0 2.686 0 6s-3.314 6 0 6z" fill="#0F0F0F"/>
        <path
          d="M54.63 63.159c3.915-5.51 14.648-8.598 23.893-6.328a2 2 0 0 0 .954-3.884c-10.737-2.637-23.165.94-28.107 7.894a2 2 0 0 0 3.26 2.318zM106.923 125c-4.74 4.252-14.024 4.483-20.497-.007-.75-.52-1.794-.17-2.33.784-.536.954-.361 2.15.39 2.67 7.517 5.215 18.266 4.947 24.25-.421.775-.695.997-1.936.496-2.772-.5-.835-1.535-.95-2.31-.254zm28.447-61.841c-3.915-5.51-14.648-8.598-23.893-6.328a2 2 0 0 1-.954-3.884c10.737-2.637 23.165.94 28.108 7.894a2 2 0 0 1-3.26 2.318z"
          fill="#0F0F0F"
          fill-rule="nonzero"/>
      </g>
      <use fill="#B59750" xlink:href="#d"/>
    </g>
    <path d="M549.395 319.44h20.655c10.494 0 19-8.506 19-19v-.048l-.225-88.657c-.026-10.494 8.459-19.022 18.952-19.048h26.001c10.494 0 19-8.507 19-19v-42.533" stroke="#D6DDE3" stroke-width="4" stroke-linecap="round" stroke-dasharray="8,8,8"/>
    <g transform="translate(341.709 274.082)">
      <mask id="f" fill="#fff">
        <use xlink:href="#e"/>
      </mask>
      <path stroke="#000" stroke-width="4" d="M6.618-1.599H213.58a8 8 0 0 1 8 8v65.345a4 4 0 0 1-4 4H2.618a4 4 0 0 1-4-4V6.401a8 8 0 0 1 8-8z"/>
      <path fill="#A5B2BD" mask="url(#f)" d="M-6.802-7.373h240v97h-240z"/>
      <path d="M24.9 74.3c11.658-2.162 22.683-3.925 33.076-5.288 35.918-4.71 97.072 6.704 132.922-6.229 23.9-8.622 36.595-19.827 38.083-33.615L225.555 74.3H24.9z" fill="#B4C0CA" mask="url(#f)"/>
    </g>
    <path
      d="M458.857 315.479c-.01-1.988.888-3.489 2.709-4.594-1.019-1.457-2.557-2.26-4.589-2.416-1.923-.152-4.025 1.121-4.795 1.121-.812 0-2.676-1.067-4.139-1.067-3.023.049-6.235 2.41-6.235 7.216 0 1.42.26 2.888.78 4.4.693 1.987 3.196 6.863 5.808 6.782 1.365-.032 2.33-.97 4.106-.97 1.723 0 2.617.97 4.14.97 2.632-.038 4.897-4.47 5.558-6.463-3.533-1.663-3.343-4.876-3.343-4.979zm-3.066-8.896c1.479-1.755 1.343-3.353 1.3-3.928-1.306.076-2.817.889-3.679 1.891-.948 1.073-1.506 2.4-1.387 3.895 1.414.109 2.704-.617 3.766-1.858z"
      fill="#FDFDFD"
      fill-rule="nonzero"/>
    <path
      d="M805.624 267.913v-34.291m0-1.186v-34.291m-42.844 24.477c-5.136-2.962-8.593-8.51-8.593-14.863 0-9.47 17.146-30.243 17.146-30.243s17.145 20.774 17.145 30.243c0 9.47-7.676 17.145-17.145 17.145m85.708-22.017c5.136-2.962 8.593-8.51 8.593-14.863 0-9.47-17.146-30.243-17.146-30.243s-17.145 20.774-17.145 30.243c0 9.47 7.676 17.146 17.145 17.146"
      stroke="#0F0F0F"
      stroke-linecap="round"
      stroke-linejoin="round"
      stroke-width="4"/>
    <path d="M624.08 317.531h102.232m-102.232 1.747h102.232m-102.232 1.746h102.232M624.08 322.77h102.232m-102.232 1.747h102.232m-102.232 1.747h102.232M624.08 315.785h102.232" stroke="#0F0F0F" stroke-linecap="round" stroke-width=".25"/>
    <path d="M2.828 349.904h886.75" stroke="#0F0F0F" stroke-width="4" stroke-linecap="round"/>
    <g transform="translate(560.5 2)">
      <path fill="#FDFDFD" d="M1.363.811h186.363V21.5H1.363z"/>
      <path d="M1.41 21.5h186.362v107.652a5 5 0 0 1-5 5H6.409a5 5 0 0 1-5-5V21.5z" fill="#000"/>
      <rect stroke="#000" stroke-width="4" stroke-linecap="round" x=".181" width="188.819" height="134.152" rx="6"/>
      <g transform="translate(0 8)">
        <path d="M1.5 13.5h186.523" stroke="#000" stroke-width="4" stroke-linecap="square"/>
        <circle fill="#E52F28" cx="9.087" cy="3.14" r="2.5"/>
        <circle fill="#FFC646" cx="19.249" cy="3.14" r="2.5"/>
        <circle fill="#4BC27D" cx="29.249" cy="3.14" r="2.5"/>
      </g>
    </g>
    <g fill="#FFFFFE">
      <path
        d="M641.851 78.033c-1.902 0-3.083 1.412-3.083 3.862 0 2.247 1.037 3.977 3.054 3.977 1.931 0 3.199-1.557 3.199-4.035 0-2.622-1.412-3.804-3.17-3.804m50.961 6.542c0 .835.403 1.498 1.527 1.498 1.326 0 2.738-.95 2.824-3.112-.605-.087-1.267-.173-1.873-.173-1.325 0-2.478.374-2.478 1.787"/>
      <path
        d="M700.016 88.725c-1.729 0-2.68-1.01-2.853-2.594-.749 1.325-2.075 2.594-4.179 2.594-1.872 0-4.005-1.01-4.005-3.718 0-3.199 3.083-3.948 6.052-3.948.72 0 1.47.029 2.132.115v-.432c0-1.326-.028-2.91-2.132-2.91-.778 0-1.383.057-1.989.374l-.42 1.462-2.968-.317.507-2.99c2.276-.921 3.429-1.18 5.562-1.18 2.795 0 5.158 1.44 5.158 4.408v5.649c0 .749.288 1.008.893 1.008.173 0 .346-.029.548-.086l.029 1.96a5.02 5.02 0 0 1-2.335.605zm-19.947-.289l5.62-19.826h3.66l-5.62 19.826h-3.66zm-7.55 0l5.62-19.826h3.659l-5.62 19.826h-3.659zm-6.324-8.328h3.89v-4.669h-3.89v4.669zm0 8.328h3.89v-4.668h-3.89v4.668zm-3.529 0h-11.354l-.374-1.96 7.146-8.213h-4.063l-.576 2.018-2.68-.288.46-4.554h11.413l.288 1.96-7.205 8.213h4.208l.605-2.017 2.94.288-.808 4.553zm-20.959.288c-4.006 0-6.772-2.449-6.772-6.599 0-3.804 2.305-6.945 6.974-6.945 4.668 0 6.945 3.141 6.945 6.772 0 4.15-2.997 6.772-7.147 6.772zm-8.39-.288h-5.446v-7.32c0-2.247-.75-3.112-2.22-3.112-1.786 0-2.506 1.268-2.506 3.084v4.524h1.729v2.824h-5.447v-7.32c0-2.247-.749-3.112-2.219-3.112-1.786 0-2.507 1.268-2.507 3.084v4.524h2.479v2.824h-7.926v-2.824h1.73v-7.349h-1.73V75.44h5.447v1.96c.778-1.383 2.133-2.219 3.948-2.219 1.873 0 3.602.894 4.236 2.795.72-1.729 2.19-2.795 4.237-2.795 2.334 0 4.466 1.412 4.466 4.496v5.936h1.73v2.824zM603.09 94.54h103.894V64.833H603.09V94.54z"/>
    </g>
  </g>
</svg>