<svg width="892" height="326" xmlns="http://www.w3.org/2000/svg" xmlns:xlink="http://www.w3.org/1999/xlink">
  <defs><path
    d="M117.757 145.628V213H72.26v-69.2c-15.719-8.487-26.56-24.849-27.239-43.8h-.034c-6.456 0-11.689-5.233-11.689-11.69V73.69c0-6.457 5.233-11.69 11.69-11.69V51.89C44.987 23.233 68.22 0 96.877 0c28.659 0 51.89 23.232 51.89 51.89v10.124c6.188.301 11.112 5.413 11.112 11.675v14.622c0 6.273-4.941 11.392-11.145 11.677-.726 20.424-13.257 37.843-30.978 45.64z"
    id="a"/><path
    d="M72.323.07v20.277C72.323 32.858 82.464 43 94.975 43c12.51 0 22.653-10.142 22.653-22.653V.071c17.084 2.025 30.203 7.592 30.203 22.006 0 .222-.003.444-.009.664 24.539 11.474 41.54 36.381 41.54 65.258v69.42H.588v-69.42c0-28.877 17-53.784 41.54-65.258a23.59 23.59 0 0 1-.01-.664c0-14.414 13.119-19.98 30.204-22.006z"
    id="b"/><path
    d="M74.372 66.248c-1.924 2.173-7.718 3.01-9.316 2.173-2.954-1.545-5.75-3.201-8.998-3.088-3.248-.113-6.063.27-9.052 1.835-2.394 1.253-5.945 1.253-8.448-.92-4.04-3.507-3.362-9.083-.813-13.054 3.626-5.651 8.545-2.918 14.045-3.563 1.496-.175 2.998-.617 4.268-1.34 1.27.723 2.772 1.165 4.268 1.34 5.5.645 9.93-2.088 13.556 3.563 2.548 3.971 2.413 10.882.49 13.054zm34.2-65.957c-3.217 14.075-4.696 28.434-7.029 42.671a337.588 337.588 0 0 1-1.584 8.879c-.118.62-.235 2.923-.81 3.215-1.739.884-5.284-3.818-6.232-4.88-2.38-2.665-4.74-5.355-7.64-7.447a39.471 39.471 0 0 0-19.854-7.32c-2.987-.248-7.024.185-9.839 1.993-2.814-1.808-6.852-2.241-9.838-1.993a39.471 39.471 0 0 0-19.855 7.32c-2.9 2.092-5.26 4.782-7.64 7.447-.948 1.062-4.493 5.764-6.232 4.88-.574-.292-.691-2.595-.81-3.215a337.584 337.584 0 0 1-1.584-8.879C7.292 28.725 5.814 14.366 2.595.292 1.66.291.839 19.038.735 20.785.308 27.88-.188 34.816.446 41.917 1.54 54.167 2.681 69.525 11.451 78.88c7.924 8.452 19.43 10.219 29.354 15.554 1.277.687 2.972 1.535 4.8 2.23 1.925 1.563 5.744 2.628 10.143 2.628 4.614 0 8.59-1.172 10.411-2.862a43.018 43.018 0 0 0 4.205-1.996c9.923-5.336 21.43-7.102 29.354-15.554 8.77-9.354 9.91-24.713 11.004-36.962.635-7.1.138-14.037-.287-21.131C110.33 19.039 109.51.29 108.573.29z"
    id="d"/>
    <filter x="-.9%" y="-2.8%" width="101.8%" height="111.1%" filterUnits="objectBoundingBox" id="e"><feOffset dy="2" in="SourceAlpha" result="shadowOffsetOuter1"/><feColorMatrix values="0 0 0 0 0 0 0 0 0 0 0 0 0 0 0 0 0 0 0.2 0" in="shadowOffsetOuter1" result="shadowMatrixOuter1"/>
      <feMerge><feMergeNode in="shadowMatrixOuter1"/><feMergeNode in="SourceGraphic"/></feMerge>
    </filter>
  </defs>
  <g fill="none" fill-rule="evenodd">
    <g stroke-width="4">
      <g stroke="#D6DDE3" stroke-linecap="round"><path
        d="M189.42 176.119h145.212M91.283 138.215h386M347.913 102.215H753.21M523.283 27.5h71M274.713 27.5h195.988M765.889 102.215h25.689M347.283 176.119h4.56M298.095 213.715h145.212M260.21 213.715h27.477M543.458 191.908h145.213M696.96 191.908h4.56M144.913 62.215H550.21"/></g>
      <g stroke="#212121"><path d="M282.986 322.866h-24.693c-6.627 0-12-5.372-12-12v-24.333a5 5 0 0 1 5-5h43.693v29.333c0 6.628-5.373 12-12 12z"/><path d="M288.89 281.535c11.784 0 20.506-1.436 20.506 14.356s-5.775 16.67-16.363 16.67M248.293 312.905h46.74"/>
        <g stroke-linecap="round" stroke-linejoin="round"><path d="M270.926 268.309c2.838-2.741 2.854-7.33.034-10.249M270.995 247.812c-2.838 2.74-2.854 7.329-.035 10.248"/></g>
        <g stroke-linecap="round" stroke-linejoin="round"><path d="M259.572 272.835c2.838-2.74 2.853-7.329.034-10.248M259.64 252.339c-2.837 2.74-2.853 7.329-.034 10.248"/></g>
        <g stroke-linecap="round" stroke-linejoin="round"><path d="M282.28 272.386c2.838-2.741 2.854-7.33.035-10.249M282.35 251.889c-2.839 2.74-2.855 7.329-.035 10.248"/></g>
      </g>
    </g><path
      d="M762.267 196.347c-5.136-2.962-8.593-8.51-8.593-14.864 0-9.469 17.146-30.242 17.146-30.242s17.146 20.773 17.146 30.242c0 9.47-7.677 17.146-17.146 17.146M813.664 160.099c5.136-2.962 8.593-8.51 8.593-14.863 0-9.47-17.146-30.243-17.146-30.243s-17.145 20.774-17.145 30.243c0 9.47 7.676 17.145 17.145 17.145"/><path d="M853.528 241.913h-96.833c0 9.944 8.06 18.006 18.005 18.006h60.822c9.945 0 18.006-8.062 18.006-18.006z" stroke="#212121" stroke-width="4" stroke-linecap="round" stroke-linejoin="round"/><path stroke="#212121" stroke-width="4" d="M775.075 259.919l6.69 63.942h52.44l6.508-63.942z"/><path d="M805.111 241.913v-34.291M805.111 206.436v-34.291" stroke="#1D2B36" stroke-width="4" stroke-linecap="round" stroke-linejoin="round"/><path
      d="M805.111 233.34c0-9.469-7.676-17.146-17.146-17.146M822.257 195.352c-9.47 0-17.146 7.677-17.146 17.146M770.82 199.049c0 9.469 7.676 17.146 17.146 17.146M822.257 195.228c9.469 0 17.145-7.676 17.145-17.146M770.82 191.723v-16.788M770.82 188.866l5.566-5.566M847.975 172.264v-16.789M847.975 169.406l5.566-5.566M813.664 160.099c5.136-2.962 8.593-8.51 8.593-14.863 0-9.47-17.146-30.243-17.146-30.243s-17.145 20.774-17.145 30.243c0 9.47 7.676 17.145 17.145 17.145M805.111 162.381v9.763M805.111 155.475v-16.788M805.111 152.618l5.566-5.566M805.111 147.855l-5.566-5.566M805.111 191.13c0-9.468-7.676-17.145-17.146-17.145M739.549 153.26c0 9.47 7.676 17.146 17.146 17.146M745.94 146.319a6.39 6.39 0 1 0-12.782 0 6.39 6.39 0 0 0 12.781 0zM845.781 205.295a6.39 6.39 0 1 0-12.78 0 6.39 6.39 0 0 0 12.78 0zM805.1 212.774c0 9.469 7.676 17.146 17.146 17.146M822.245 229.92c9.47 0 17.146-7.677 17.146-17.147"
      stroke="#212121"
      stroke-width="4"
      stroke-linecap="round"
      stroke-linejoin="round"/>
    <g>
      <g opacity=".15" stroke="#0F0F0F" stroke-linecap="square" stroke-width=".25"><path d="M617.457 310.377h113.469M617.457 312.123h113.469M617.457 313.87h113.469M617.457 315.616h113.469M617.457 317.363h113.469M617.457 319.11h113.469M617.457 308.63h113.469"/></g>
      <g stroke="#212121"><path d="M603.426 304.06v19.14h127v-15.14a4 4 0 0 0-4-4h-123z" stroke-width="4"/>
        <g stroke-linecap="round" stroke-width=".25"><path d="M615.457 310.377h113.469M615.457 312.123h113.469M615.457 313.87h113.469M615.457 315.616h113.469M615.457 317.363h113.469M615.457 319.11h113.469M615.457 308.63h113.469"/></g><path d="M603.426 284.501v19.141H719v-15.14a4 4 0 0 0-4-4H603.426z" stroke-width="4"/>
        <g stroke-linecap="round" stroke-width=".25"><path d="M615.566 290.531h102.233M615.566 292.278h102.233M615.566 294.024h102.233M615.566 295.77h102.233M615.566 297.517h102.233M615.566 299.264h102.233M615.566 288.785h102.233"/></g>
        <g><path d="M603.426 284.2h105.809v-15.14a4 4 0 0 0-4-4h-97.809a4 4 0 0 0-4 4v15.14z" stroke-width="4"/>
          <g stroke-linecap="round" stroke-width=".25"><path d="M614.895 271.377h92.242M614.895 273.124h92.242M614.895 274.87h92.242M614.895 276.617h92.242M614.895 278.363h92.242M614.895 280.11h92.242M614.895 269.631h92.242"/></g>
        </g>
      </g>
    </g>
    <g>
      <g transform="matrix(-1 0 0 1 210.959 183.979)"><path
        d="M127.042 21.583h-.044V8.711a6.708 6.708 0 0 0-6.708-6.709h-17.417a6.708 6.708 0 0 0-6.708 6.709v12.872h-43.54V8.711a6.708 6.708 0 0 0-6.708-6.709H28.5a6.708 6.708 0 0 0-6.708 6.709v125.056a5.917 5.917 0 0 0 5.916 5.917h89.444v.014h28.121c5.891 0 10.667-4.775 10.667-10.666V82.563a5.958 5.958 0 0 1 5.958-5.958h10.657a5.285 5.285 0 1 0 0-10.57h-16.7c-5.454 0-9.875 4.42-9.875 9.874v46.138a8.333 8.333 0 0 1-8.333 8.333h-10.605V21.583z"
        stroke="#212121"
        stroke-width="4"/><path d="M37.722 139.868h73.39v-3.064c0-20.266-16.43-36.695-36.695-36.695-20.266 0-36.695 16.429-36.695 36.695v3.064z" stroke="#212121" stroke-width="4"/>
        <g stroke="#212121" stroke-linecap="round" stroke-linejoin="round" stroke-width="4"><path d="M87.125 53.376c-.274 6.806 2.49 10.158 8.294 10.057 5.803-.101 8.418-3.547 7.845-10.338M48.125 53.376c-.274 6.806 2.49 10.158 8.294 10.057 5.803-.101 8.418-3.547 7.845-10.338"/></g>
        <g stroke="#212121" stroke-linecap="round" stroke-width="4"><path d="M62.422 22.575v17.703M74.34 22.575v17.703M86.26 22.575v17.703"/></g>
        <g stroke="#212121" stroke-linecap="round" stroke-width="4"><path d="M150.076 47.963h-30.64M145.22 59.882h-25.785M139.224 71.802h-19.789"/></g>
        <g stroke="#212121" stroke-linecap="round" stroke-width="4"><path d="M31.391 47.963H.751M31.391 59.882H6.22M31.391 71.802H11.215"/></g>
        <g transform="translate(57.25 69.833)"><ellipse fill="#212121" cx="16.771" cy="3.282" rx="9.018" ry="2.677"/><path d="M.853 5.188c0 3.945 3.827 7.144 7.348 7.144 3.52 0 6.367-1.906 8.2-5.084M32.222 5.188c0 3.945-3.29 7.144-7.348 7.144s-6.369-2.132-7.91-5.004" stroke="#212121" stroke-width="4" stroke-linecap="round" stroke-linejoin="round"/></g><circle stroke="#212121" stroke-width="4" cx="109.153" cy="94.396" r="5.938"/><circle stroke="#212121" stroke-width="4" cx="37.604" cy="94.396" r="5.938"/></g>
    </g>
    <g>
      <g transform="translate(357.814 17.904)"><use fill="#FFE3C3" xlink:href="#a"/>
        <g transform="translate(0 150)">
          <mask id="c" fill="#fff"><use xlink:href="#b"/></mask><use fill="#24292E" xlink:href="#b"/><path d="M64.59 47.332v61.014a2 2 0 1 1-4 0V45.15a62.645 62.645 0 0 0 4 2.182zm67-.51v25.351a2 2 0 0 1-4 0V48.739a66.549 66.549 0 0 0 4-1.918z" fill="#FDFDFD" mask="url(#c)"/><path
            d="M94.98 55c-11.225 0-22.705-3.553-31.045-8.048-12.669-6.827-22.3-17.01-22.3-28.875 0-9.37 5.597-15.003 14.251-18.353C41.55 2.571 31.634 8.243 31.634 19.308 31.634 39.02 63.104 55 94.979 55zM134.072-.276c14.337 2.847 24.253 8.519 24.253 19.584 0 19.71-31.465 35.689-63.337 35.692 26.84-.004 53.335-16.533 53.335-36.923 0-9.37-5.597-15.003-14.25-18.353z"
            fill-opacity=".16"
            fill="#000"
            mask="url(#c)"/><path d="M154 85.965v68.23M37 85.965v68.23" stroke="#1E2226" stroke-width="4" stroke-linecap="round"/></g><path
            d="M96.812 229.6c-11.783 0-21.326 9.543-21.326 21.325 0 9.437 6.105 17.407 14.581 20.233 1.067.186 1.467-.454 1.467-1.013 0-.507-.027-2.186-.027-3.972-5.358.986-6.744-1.306-7.17-2.506-.24-.613-1.28-2.506-2.187-3.012-.746-.4-1.812-1.386-.026-1.413 1.679-.027 2.879 1.546 3.278 2.186 1.92 3.225 4.985 2.319 6.211 1.76.187-1.387.747-2.32 1.36-2.853-4.745-.533-9.703-2.373-9.703-10.53 0-2.319.826-4.238 2.186-5.73-.213-.534-.96-2.72.213-5.652 0 0 1.786-.56 5.865 2.186 1.706-.48 3.518-.72 5.33-.72 1.814 0 3.626.24 5.332.72 4.079-2.772 5.865-2.186 5.865-2.186 1.173 2.932.426 5.118.213 5.651 1.36 1.493 2.186 3.386 2.186 5.731 0 8.184-4.985 9.997-9.73 10.53.773.666 1.44 1.946 1.44 3.945 0 2.852-.027 5.145-.027 5.865 0 .56.4 1.226 1.466 1.013a21.36 21.36 0 0 0 14.528-20.233c0-11.782-9.543-21.325-21.325-21.325z"
            fill="#FFF"
            fill-rule="nonzero"/><path d="M87.964 85.771c0 2.983 3.627 5.401 8.102 5.401 4.474 0 8.101-2.418 8.101-5.4" stroke="#212121" stroke-linecap="round" stroke-width="4"/>
        <g transform="translate(63 62)" fill="#212121"><circle cx="6" cy="6" r="6"/><circle cx="58" cy="6" r="6"/></g>
        <g fill-rule="nonzero"><path d="M57.63 55.159c3.915-5.51 14.648-8.598 23.893-6.328a2 2 0 0 0 .954-3.884c-10.737-2.637-23.165.94-28.107 7.894a2 2 0 0 0 3.26 2.318z" fill="#BFA465"/><path d="M106.923 114c-4.74 4.252-14.024 4.483-20.497-.007-.75-.52-1.794-.17-2.33.784-.536.954-.361 2.15.39 2.67 7.517 5.215 18.266 4.947 24.25-.421.775-.695.997-1.936.496-2.772-.5-.835-1.535-.95-2.31-.254z" fill="#212121"/><path d="M135.37 55.159c-3.915-5.51-14.648-8.598-23.893-6.328a2 2 0 0 1-.954-3.884c10.737-2.637 23.165.94 28.108 7.894a2 2 0 0 1-3.26 2.318z" fill="#BFA465"/></g>
      </g><use fill="#BFA465" xlink:href="#d" transform="translate(399.314 77.513)"/><path
        d="M501.34 23.432c-2.652-2.82-5.73-5.214-8.726-7.614-.66-.53-1.332-1.046-1.978-1.595-.147-.125-1.65-1.246-1.83-1.659-.434-.992-.183-.22-.123-1.404.075-1.498 3.01-5.73.82-6.7-.963-.426-2.682.71-3.606 1.084a55.605 55.605 0 0 1-5.507 1.9c.895-1.856 2.603-5.573-.606-4.578-2.5.775-4.83 2.767-7.341 3.705.83-1.418 4.155-5.812 1.151-6.057-.934-.077-3.654 1.748-4.66 2.137-3.014 1.166-6.093 1.92-9.257 2.513-10.76 2.018-23.342 1.443-33.297 6.54-7.674 3.931-15.253 10.03-19.686 17.795-4.273 7.485-5.871 15.677-6.766 24.254-.656 6.294-.71 12.8-.403 19.118.1 2.07-1.2 25.756 1.69 22.866 1.44-1.44 2.953-21.397 3.315-23.365.722-3.915 1.416-7.848 2.619-11.638 2.12-6.679 3.9-14.29 9.902-18.393 5.59-3.821 21.849-10.649 27.379-10.649 5.53 0 6.791 3.85 20.445 2.784 13.653-1.067 16.384-5.024 17.88-4.098 1.37.848 2.791 3.615 3.774 4.748 2.323 2.679 5.092 4.725 7.808 6.92 5.664 4.58 8.523 10.332 10.243 17.489 1.714 7.13 1 15.266 3.122 22.282.373 1.234-.793 7.437.585 9.65.085.136 1.377-.309 1.802-2.562.685-3.625.59-9.884.59-10.574 0-4.52 1.1-7.911 1.086-12.46-.054-13.832-.484-31.869-10.425-42.44z"
        fill="#BFA465"/>
      <g filter="url(#e)" transform="translate(397.765 68.894)" fill="#5B462F" fill-rule="nonzero"><path
        d="M29.447 35.51H27.06c-12.063 0-19.264-6.638-19.264-17.755C7.795 8.771 9.369 0 28.175 0h2.546C49.526 0 51.1 8.771 51.1 17.755c0 10.453-8.903 17.755-21.653 17.755zM28.05 5.197c-16.79 0-16.79 5.925-16.79 13.425 0 6.124 2.7 13.424 15.565 13.424h2.623c10.71 0 18.188-5.52 18.188-13.424 0-7.5 0-13.425-16.79-13.425H28.05zM83.146 35.51h-2.389c-12.063 0-19.264-6.638-19.264-17.755C61.493 8.771 63.067 0 81.873 0h2.546c18.805 0 20.379 8.771 20.379 17.755 0 10.453-8.902 17.755-21.652 17.755zM81.747 5.197c-16.79 0-16.79 5.925-16.79 13.425 0 6.124 2.702 13.424 15.565 13.424h2.624c10.709 0 18.188-5.52 18.188-13.424 0-7.5 0-13.425-16.79-13.425h-2.797z"/><path
        d="M2.559 4.999C3.158 4.414 9.709 0 28.149 0c15.46 0 18.733 1.605 23.687 4.029l.363.179c.344.122 2.106.72 4.166.786 1.877-.08 3.482-.59 3.952-.753C65.97 1.491 71.507 0 84.445 0c18.44 0 24.99 4.414 25.589 4.999 1.415 0 2.559 1.117 2.559 2.5v2.498c0 1.383-1.144 2.5-2.559 2.5 0 0-5.977 0-5.977 2.5 0 2.499-1.7-3.617-1.7-5V7.563c-3.12-1.194-8.707-3.418-17.912-3.418-10.256 0-15.364 1.819-19.745 3.625l.049.118-.003 1.72-1.92 4.634-2.372-.938a11.289 11.289 0 0 0-1.303-.39c-1.766-.436-3.583-.569-5.19-.24a6.855 6.855 0 0 0-1.637.549l-2.289 1.118-2.29-4.47.102-1.988.07-.169c-3.779-1.76-7.263-3.569-19.769-3.569-9.205 0-14.79 2.223-17.912 3.417v2.435c0 1.383-2.56 7.499-2.56 5 0-2.5-5.117-2.5-5.117-2.5C1.146 12.497 0 11.38 0 9.997V7.498c0-1.382 1.146-2.5 2.559-2.5z"/></g>
    </g>
    <g stroke="#212121" stroke-linecap="round" stroke-linejoin="round" stroke-width="4"><path
      d="M805.111 241.913v-34.291M805.111 206.436v-34.291M762.266 196.622c-5.135-2.962-8.592-8.51-8.592-14.863 0-9.47 17.145-30.243 17.145-30.243s17.146 20.774 17.146 30.243c0 9.47-7.676 17.145-17.146 17.145M856.528 176.887c5.136-2.962 8.593-8.51 8.593-14.863 0-9.47-17.146-30.243-17.146-30.243s-17.146 20.774-17.146 30.243c0 9.47 7.677 17.146 17.146 17.146"/></g>
    <g stroke="#212121" stroke-linecap="round" stroke-width="4"><path d="M2.314 323.904h886.75"/></g>
  </g>
</svg>