<svg width="892" height="330" xmlns="http://www.w3.org/2000/svg" xmlns:xlink="http://www.w3.org/1999/xlink">
  <defs><path
    d="M117.757 145.628V213H72.26v-69.2c-15.719-8.487-26.56-24.849-27.239-43.8h-.034c-6.456 0-11.689-5.233-11.689-11.69V73.69c0-6.457 5.233-11.69 11.69-11.69V51.89C44.987 23.233 68.22 0 96.877 0c28.659 0 51.89 23.232 51.89 51.89v10.124c6.188.301 11.112 5.413 11.112 11.675v14.622c0 6.273-4.941 11.392-11.145 11.677-.726 20.424-13.257 37.843-30.978 45.64z"
    id="a"/><path
    d="M72.323.07v20.277C72.323 32.858 82.464 43 94.975 43c12.51 0 22.653-10.142 22.653-22.653V.071c17.084 2.025 30.203 7.592 30.203 22.006 0 .222-.003.444-.009.664 24.539 11.474 41.54 36.381 41.54 65.258v69.42H.588v-69.42c0-28.877 17-53.784 41.54-65.258a23.59 23.59 0 0 1-.01-.664c0-14.414 13.119-19.98 30.204-22.006z"
    id="b"/><path
    d="M74.372 66.248c-1.924 2.173-7.718 3.01-9.316 2.173-2.954-1.545-5.75-3.201-8.998-3.088-3.248-.113-6.063.27-9.052 1.835-2.394 1.253-5.945 1.253-8.448-.92-4.04-3.507-3.362-9.083-.813-13.054 3.626-5.651 8.545-2.918 14.045-3.563 1.496-.175 2.998-.617 4.268-1.34 1.27.723 2.772 1.165 4.268 1.34 5.5.645 9.93-2.088 13.556 3.563 2.548 3.971 2.413 10.882.49 13.054zm34.2-65.957c-3.217 14.075-4.696 28.434-7.029 42.671a337.588 337.588 0 0 1-1.584 8.879c-.118.62-.235 2.923-.81 3.215-1.739.884-5.284-3.818-6.232-4.88-2.38-2.665-4.74-5.355-7.64-7.447a39.471 39.471 0 0 0-19.854-7.32c-2.987-.248-7.024.185-9.839 1.993-2.814-1.808-6.852-2.241-9.838-1.993a39.471 39.471 0 0 0-19.855 7.32c-2.9 2.092-5.26 4.782-7.64 7.447-.948 1.062-4.493 5.764-6.232 4.88-.574-.292-.691-2.595-.81-3.215a337.584 337.584 0 0 1-1.584-8.879C7.292 28.725 5.814 14.366 2.595.292 1.66.291.839 19.038.735 20.785.308 27.88-.188 34.816.446 41.917 1.54 54.167 2.681 69.525 11.451 78.88c7.924 8.452 19.43 10.219 29.354 15.554 1.277.687 2.972 1.535 4.8 2.23 1.925 1.563 5.744 2.628 10.143 2.628 4.614 0 8.59-1.172 10.411-2.862a43.018 43.018 0 0 0 4.205-1.996c9.923-5.336 21.43-7.102 29.354-15.554 8.77-9.354 9.91-24.713 11.004-36.962.635-7.1.138-14.037-.287-21.131C110.33 19.039 109.51.29 108.573.29z"
    id="d"/>
    <filter x="-.9%" y="-2.8%" width="101.8%" height="111.1%" filterUnits="objectBoundingBox" id="e"><feOffset dy="2" in="SourceAlpha" result="shadowOffsetOuter1"/><feColorMatrix values="0 0 0 0 0 0 0 0 0 0 0 0 0 0 0 0 0 0 0.2 0" in="shadowOffsetOuter1" result="shadowMatrixOuter1"/>
      <feMerge><feMergeNode in="shadowMatrixOuter1"/><feMergeNode in="SourceGraphic"/></feMerge>
    </filter><path d="M6.618.401H213.58a6 6 0 0 1 6 6v65.345a2 2 0 0 1-2 2H2.618a2 2 0 0 1-2-2V6.401a6 6 0 0 1 6-6z" id="f"/></defs>
  <g fill="none" fill-rule="evenodd">
    <g stroke-width="4">
      <g stroke="#D6DDE3" stroke-linecap="round"><path
        d="M156.42 170.119h145.212M362.39 136.5h218.243M490.283 21.5h71M281.148 21.5h195.987M314.283 170.119h4.56M265.095 207.715h145.212M227.21 207.715h27.477M337.613 56.215H543.39M99.505 56.215h205.778M226.644 97.844h143.843M45.486 136.5h268M673.481 96.844h106.01M653.328 186.326h61.546M789.486 96.844h2.007M526.65 183.326h27.654M725.472 53.215h106.311M615.138 222.215h145.213M768.64 222.215h4.56"/></g>
      <g stroke="#212121"><path d="M268.986 326.866h-24.693c-6.627 0-12-5.372-12-12v-24.333a5 5 0 0 1 5-5h43.693v29.333c0 6.628-5.373 12-12 12z"/><path d="M274.89 285.535c11.784 0 20.506-1.436 20.506 14.356s-5.775 16.67-16.363 16.67M234.293 316.905h46.74"/>
        <g stroke-linecap="round" stroke-linejoin="round"><path d="M256.926 272.309c2.838-2.741 2.854-7.33.034-10.249M256.995 251.812c-2.838 2.74-2.854 7.329-.035 10.248"/></g>
        <g stroke-linecap="round" stroke-linejoin="round"><path d="M245.572 276.835c2.838-2.74 2.853-7.329.034-10.248M245.64 256.339c-2.837 2.74-2.853 7.329-.034 10.248"/></g>
        <g stroke-linecap="round" stroke-linejoin="round"><path d="M268.28 276.386c2.838-2.741 2.854-7.33.035-10.249M268.35 255.889c-2.839 2.74-2.855 7.329-.035 10.248"/></g>
      </g>
    </g><path
      d="M762.267 200.347c-5.136-2.962-8.593-8.51-8.593-14.864 0-9.469 17.146-30.242 17.146-30.242s17.146 20.773 17.146 30.242c0 9.47-7.677 17.146-17.146 17.146M813.664 164.099c5.136-2.962 8.593-8.51 8.593-14.863 0-9.47-17.146-30.243-17.146-30.243s-17.145 20.774-17.145 30.243c0 9.47 7.676 17.145 17.145 17.145"/><path d="M853.528 245.913h-96.833c0 9.944 8.06 18.006 18.005 18.006h60.822c9.945 0 18.006-8.062 18.006-18.006z" stroke="#212121" stroke-width="4" stroke-linecap="round" stroke-linejoin="round"/><path stroke="#212121" stroke-width="4" d="M775.075 263.919l6.69 63.942h52.44l6.508-63.942z"/><path d="M805.111 245.913v-34.291M805.111 210.436v-34.291" stroke="#0F0F0F" stroke-width="4" stroke-linecap="round" stroke-linejoin="round"/><path
      d="M805.111 237.34c0-9.469-7.676-17.146-17.146-17.146M822.257 199.352c-9.47 0-17.146 7.677-17.146 17.146M770.82 203.049c0 9.469 7.676 17.146 17.146 17.146M822.257 199.228c9.469 0 17.145-7.676 17.145-17.146M770.82 195.723v-16.788M770.82 192.866l5.566-5.566M847.975 176.264v-16.789M847.975 173.406l5.566-5.566M813.664 164.099c5.136-2.962 8.593-8.51 8.593-14.863 0-9.47-17.146-30.243-17.146-30.243s-17.145 20.774-17.145 30.243c0 9.47 7.676 17.145 17.145 17.145M805.111 166.381v9.763M805.111 159.475v-16.788M805.111 156.618l5.566-5.566M805.111 151.855l-5.566-5.566M805.111 195.13c0-9.468-7.676-17.145-17.146-17.145M739.549 157.26c0 9.47 7.676 17.146 17.146 17.146M745.94 150.319a6.39 6.39 0 1 0-12.782 0 6.39 6.39 0 0 0 12.781 0zM845.781 209.295a6.39 6.39 0 1 0-12.78 0 6.39 6.39 0 0 0 12.78 0zM805.1 216.774c0 9.469 7.676 17.146 17.146 17.146M822.245 233.92c9.47 0 17.146-7.677 17.146-17.147"
      stroke="#212121"
      stroke-width="4"
      stroke-linecap="round"
      stroke-linejoin="round"/>
    <g>
      <g opacity=".15" stroke="#0F0F0F" stroke-linecap="square" stroke-width=".25"><path d="M625.44 314.84H738.91M625.44 316.587H738.91M625.44 318.334H738.91M625.44 320.08H738.91M625.44 321.827H738.91M625.44 323.573H738.91M625.44 313.094H738.91"/></g>
      <g stroke="#212121"><path d="M611.41 308.523v19.141h127v-15.14a4 4 0 0 0-4-4h-123z" stroke-width="4"/>
        <g stroke-linecap="round" stroke-width=".25"><path d="M623.44 314.84H736.91M623.44 316.587H736.91M623.44 318.334H736.91M623.44 320.08H736.91M623.44 321.827H736.91M623.44 323.573H736.91M623.44 313.094H736.91"/></g><path d="M611.41 288.965v19.14h115.572v-15.14a4 4 0 0 0-4-4H611.41z" stroke-width="4"/>
        <g><path d="M611.41 288.665h105.807v-15.141a4 4 0 0 0-4-4H615.41a4 4 0 0 0-4 4v15.14z" stroke-width="4"/>
          <g stroke-linecap="round" stroke-width=".25"><path d="M622.877 275.841h92.243M622.877 277.588h92.243M622.877 279.334h92.243M622.877 281.08h92.243M622.877 282.827h92.243M622.877 284.574h92.243M622.877 274.095h92.243"/></g>
        </g>
      </g>
    </g>
    <g>
      <g transform="matrix(-1 0 0 1 210.959 187.979)"><path
        d="M127.042 21.583h-.044V8.711a6.708 6.708 0 0 0-6.708-6.709h-17.417a6.708 6.708 0 0 0-6.708 6.709v12.872h-43.54V8.711a6.708 6.708 0 0 0-6.708-6.709H28.5a6.708 6.708 0 0 0-6.708 6.709v125.056a5.917 5.917 0 0 0 5.916 5.917h89.444v.014h28.121c5.891 0 10.667-4.775 10.667-10.666V82.563a5.958 5.958 0 0 1 5.958-5.958h10.657a5.285 5.285 0 1 0 0-10.57h-16.7c-5.454 0-9.875 4.42-9.875 9.874v46.138a8.333 8.333 0 0 1-8.333 8.333h-10.605V21.583z"
        stroke="#212121"
        stroke-width="4"/><path d="M37.722 139.868h73.39v-3.064c0-20.266-16.43-36.695-36.695-36.695-20.266 0-36.695 16.429-36.695 36.695v3.064z" stroke="#212121" stroke-width="4"/><path d="M87.125 54.376c-.274 6.806 2.49 10.158 8.294 10.057 5.803-.101 8.418-3.547 7.845-10.338" stroke="#212121" stroke-width="4" stroke-linecap="round" stroke-linejoin="round"/>
        <g transform="rotate(-162 36.27 28.873)"><ellipse stroke="#212121" stroke-width="4" cx="7.756" cy="7.421" rx="9.534" ry="9.131"/><ellipse fill="#212121" cx="12.842" cy="7.79" rx="4.758" ry="4.725"/></g>
        <g stroke="#212121" stroke-linecap="round" stroke-width="4"><path d="M62.422 22.575v17.703M74.34 22.575v17.703M86.26 22.575v17.703"/></g>
        <g stroke="#212121" stroke-linecap="round" stroke-width="4"><path d="M150.076 47.963h-30.64M145.22 59.882h-25.785M139.224 71.802h-19.789"/></g>
        <g stroke="#212121" stroke-linecap="round" stroke-width="4"><path d="M31.391 47.963H.751M31.391 59.882H6.22M31.391 71.802H11.215"/></g>
        <g transform="translate(64.25 69.833)"><ellipse fill="#212121" cx="9.771" cy="3.282" rx="9.018" ry="2.677"/><path d="M10.198 5.958c0 3.946 3.29 7.144 7.348 7.144M9.344 5.958c0 3.946-3.29 7.144-7.349 7.144" stroke="#212121" stroke-width="4" stroke-linecap="round" stroke-linejoin="round"/></g><circle stroke="#212121" stroke-width="4" cx="109.153" cy="94.396" r="5.938"/><circle stroke="#212121" stroke-width="4" cx="37.604" cy="94.396" r="5.938"/></g>
    </g>
    <g>
      <g transform="translate(358.21 19.309)"><use fill="#FFE3C3" xlink:href="#a"/>
        <g transform="translate(0 150)">
          <mask id="c" fill="#fff"><use xlink:href="#b"/></mask><use fill="#24292E" xlink:href="#b"/><path d="M64.59 47.332v61.014a2 2 0 1 1-4 0V45.15a62.645 62.645 0 0 0 4 2.182zm67-.51v25.351a2 2 0 0 1-4 0V48.739a66.549 66.549 0 0 0 4-1.918z" fill="#FDFDFD" mask="url(#c)"/><path
            d="M94.98 55c-11.225 0-22.705-3.553-31.045-8.048-12.669-6.827-22.3-17.01-22.3-28.875 0-9.37 5.597-15.003 14.251-18.353C41.55 2.571 31.634 8.243 31.634 19.308 31.634 39.02 63.104 55 94.979 55zM134.072-.276c14.337 2.847 24.253 8.519 24.253 19.584 0 19.71-31.465 35.689-63.337 35.692 26.84-.004 53.335-16.533 53.335-36.923 0-9.37-5.597-15.003-14.25-18.353z"
            fill-opacity=".16"
            fill="#000"
            mask="url(#c)"/><path d="M154 85.965v68.23M37 85.965v68.23" stroke="#0A7ED6" stroke-width="4" stroke-linecap="round"/></g><path d="M87.964 85.771c0 2.983 3.627 5.401 8.102 5.401 4.474 0 8.101-2.418 8.101-5.4" stroke="#212121" stroke-linecap="round" stroke-width="4"/>
        <g fill="#212121"><path d="M72.332 74.073a6 6 0 0 0-3.106-11.592c-3.2.858.696 2.595 1.553 5.796.858 3.2-1.648 6.653 1.553 5.796zM125.22 74.06a6 6 0 0 0-2.902-11.643c-3.215.802.65 2.606 1.451 5.822.802 3.215-1.763 6.623 1.452 5.822z"/></g>
        <g fill-rule="nonzero"><path d="M56.63 55.159c3.915-5.51 14.648-8.598 23.893-6.328a2 2 0 0 0 .954-3.884c-10.737-2.637-23.165.94-28.107 7.894a2 2 0 0 0 3.26 2.318z" fill="#BFA465"/><path d="M106.923 114c-4.74 4.252-14.024 4.483-20.497-.007-.75-.52-1.794-.17-2.33.784-.536.954-.361 2.15.39 2.67 7.517 5.215 18.266 4.947 24.25-.421.775-.695.997-1.936.496-2.772-.5-.835-1.535-.95-2.31-.254z" fill="#212121"/><path d="M135.37 55.159c-3.915-5.51-14.648-8.598-23.893-6.328a2 2 0 0 1-.954-3.884c10.737-2.637 23.165.94 28.108 7.894a2 2 0 0 1-3.26 2.318z" fill="#BFA465"/></g>
      </g><use fill="#BFA465" xlink:href="#d" transform="translate(399.71 78.917)"/><path
        d="M501.735 24.836c-2.652-2.82-5.73-5.213-8.725-7.614-.66-.529-1.332-1.045-1.978-1.594-.147-.125-1.651-1.246-1.831-1.66-.434-.992-.183-.219-.123-1.404.076-1.498 3.01-5.729.82-6.7-.963-.426-2.682.71-3.606 1.085a55.605 55.605 0 0 1-5.507 1.9c.896-1.857 2.603-5.574-.606-4.579-2.5.775-4.829 2.768-7.34 3.705.83-1.418 4.154-5.811 1.15-6.057-.934-.076-3.653 1.748-4.66 2.137-3.014 1.166-6.092 1.92-9.256 2.513-10.76 2.018-23.342 1.443-33.297 6.541-7.675 3.93-15.253 10.029-19.687 17.794-4.273 7.485-5.871 15.677-6.765 24.254-.657 6.295-.71 12.801-.403 19.119.1 2.07-1.2 25.755 1.69 22.866 1.439-1.44 2.952-21.398 3.315-23.366.721-3.915 1.416-7.848 2.618-11.638 2.12-6.678 3.9-14.29 9.902-18.392 5.591-3.822 21.85-10.65 27.38-10.65 5.53 0 6.79 3.85 20.444 2.784 13.653-1.066 16.385-5.024 17.88-4.097 1.37.847 2.792 3.615 3.775 4.748 2.322 2.678 5.092 4.724 7.808 6.92 5.663 4.58 8.523 10.331 10.243 17.488 1.713 7.13 1 15.266 3.121 22.283.374 1.234-.792 7.437.586 9.649.085.136 1.376-.309 1.802-2.562.684-3.625.59-9.883.59-10.574 0-4.52 1.1-7.91 1.085-12.46-.054-13.832-.483-31.868-10.425-42.439z"
        fill="#BFA465"/>
      <g filter="url(#e)" transform="translate(398.16 70.299)" fill="#5B462F" fill-rule="nonzero"><path
        d="M29.447 35.51H27.06c-12.063 0-19.264-6.638-19.264-17.755C7.795 8.771 9.369 0 28.175 0h2.546C49.526 0 51.1 8.771 51.1 17.755c0 10.453-8.903 17.755-21.653 17.755zM28.05 5.197c-16.79 0-16.79 5.925-16.79 13.425 0 6.124 2.7 13.424 15.565 13.424h2.623c10.71 0 18.188-5.52 18.188-13.424 0-7.5 0-13.425-16.79-13.425H28.05zM83.146 35.51h-2.389c-12.063 0-19.264-6.638-19.264-17.755C61.493 8.771 63.067 0 81.873 0h2.546c18.805 0 20.379 8.771 20.379 17.755 0 10.453-8.902 17.755-21.652 17.755zM81.747 5.197c-16.79 0-16.79 5.925-16.79 13.425 0 6.124 2.702 13.424 15.565 13.424h2.624c10.709 0 18.188-5.52 18.188-13.424 0-7.5 0-13.425-16.79-13.425h-2.797z"/><path
        d="M2.559 4.999C3.158 4.414 9.709 0 28.149 0c15.46 0 18.733 1.605 23.687 4.029l.363.179c.344.122 2.106.72 4.166.786 1.877-.08 3.482-.59 3.952-.753C65.97 1.491 71.507 0 84.445 0c18.44 0 24.99 4.414 25.589 4.999 1.415 0 2.559 1.117 2.559 2.5v2.498c0 1.383-1.144 2.5-2.559 2.5 0 0-5.977 0-5.977 2.5 0 2.499-1.7-3.617-1.7-5V7.563c-3.12-1.194-8.707-3.418-17.912-3.418-10.256 0-15.364 1.819-19.745 3.625l.049.118-.003 1.72-1.92 4.634-2.372-.938a11.289 11.289 0 0 0-1.303-.39c-1.766-.436-3.583-.569-5.19-.24a6.855 6.855 0 0 0-1.637.549l-2.289 1.118-2.29-4.47.102-1.988.07-.169c-3.779-1.76-7.263-3.569-19.769-3.569-9.205 0-14.79 2.223-17.912 3.417v2.435c0 1.383-2.56 7.499-2.56 5 0-2.5-5.117-2.5-5.117-2.5C1.146 12.497 0 11.38 0 9.997V7.498c0-1.382 1.146-2.5 2.559-2.5z"/></g>
    </g><path d="M548.882 297.44h20.703c10.494 0 19-8.506 19-19v-73.967c0-10.494 8.507-19 19-19h8.292c10.493 0 19-8.507 19-19v-.082l-.24-55.803" stroke="#D6DDE3" stroke-width="4" stroke-linecap="round" stroke-dasharray="8,8,8"/>
    <g>
      <g transform="translate(341.195 252.082)">
        <mask id="g" fill="#fff"><use xlink:href="#f"/></mask><path stroke="#212121" stroke-width="4" d="M6.618-1.599H213.58a8 8 0 0 1 8 8v65.345a4 4 0 0 1-4 4H2.618a4 4 0 0 1-4-4V6.401a8 8 0 0 1 8-8z"/><path fill="#A5B2BD" mask="url(#g)" d="M-6.802-7.373h240v97h-240z"/><path d="M24.9 74.3c11.658-2.162 22.683-3.925 33.076-5.288 35.918-4.71 97.072 6.704 132.922-6.229 23.9-8.622 36.595-19.827 38.083-33.615L225.555 74.3H24.9z" fill="#B4C0CA" mask="url(#g)"/></g><path
          d="M458.344 293.479c-.011-1.988.888-3.489 2.709-4.594-1.019-1.457-2.557-2.26-4.59-2.416-1.922-.152-4.024 1.121-4.794 1.121-.812 0-2.676-1.067-4.139-1.067-3.023.049-6.235 2.41-6.235 7.216 0 1.42.26 2.888.78 4.4.693 1.987 3.196 6.863 5.807 6.782 1.366-.032 2.33-.97 4.107-.97 1.723 0 2.617.97 4.139.97 2.633-.038 4.898-4.47 5.559-6.463-3.533-1.663-3.343-4.876-3.343-4.979zm-3.067-8.896c1.48-1.755 1.344-3.353 1.3-3.928-1.305.076-2.817.889-3.678 1.891-.948 1.073-1.506 2.4-1.387 3.895 1.414.109 2.704-.617 3.765-1.858z"
          fill="#FDFDFD"
          fill-rule="nonzero"/></g>
    <g stroke="#212121" stroke-linecap="round" stroke-linejoin="round" stroke-width="4"><path
      d="M805.111 245.913v-34.291M805.111 210.436v-34.291M762.266 200.622c-5.135-2.962-8.592-8.51-8.592-14.863 0-9.47 17.145-30.243 17.145-30.243s17.146 20.774 17.146 30.243c0 9.47-7.676 17.145-17.146 17.145M856.528 180.887c5.136-2.962 8.593-8.51 8.593-14.863 0-9.47-17.146-30.243-17.146-30.243s-17.146 20.774-17.146 30.243c0 9.47 7.677 17.146 17.146 17.146"/></g>
    <g stroke="#212121" stroke-linecap="round" stroke-width=".25"><path d="M623.566 295.531h102.233M623.566 297.278h102.233M623.566 299.024h102.233M623.566 300.77h102.233M623.566 302.517h102.233M623.566 304.264h102.233M623.566 293.785h102.233"/></g><path d="M2.314 327.904h886.75" stroke="#212121" stroke-width="4" stroke-linecap="round"/>
    <g>
      <g transform="translate(542.987 2)"><path fill="#FFF" d="M1.363.811h186.363V21.5H1.363z"/><path fill="#24292E" d="M0 22h189v111H0z"/><path
        d="M84.957 86.564h-.048c.021 0 .036.024.057.026h.015l-.024-.024v-.002zm.01.026c-.224.003-.785.12-1.378.12-1.871 0-2.519-.864-2.519-1.991v-7.512h3.815c.216 0 .384-.192.384-.456v-4.078c0-.216-.192-.408-.384-.408H81.07v-5.063c0-.192-.12-.311-.336-.311h-5.182c-.216 0-.336.12-.336.311v5.207s-2.615.647-2.783.671a.411.411 0 0 0-.312.408v3.263c0 .264.192.456.408.456h2.663v7.87c0 5.853 4.079 6.453 6.862 6.453 1.271 0 2.807-.408 3.047-.528.144-.048.216-.216.216-.384V87.02a.425.425 0 0 0-.35-.432v.002zm56.85-5.278c0-4.343-1.751-4.918-3.598-4.726-1.44.096-2.591.815-2.591.815v8.445s1.175.816 2.927.864c2.47.072 3.262-.816 3.262-5.398zm5.83-.384c0 8.23-2.663 10.58-7.317 10.58-3.935 0-6.046-1.99-6.046-1.99s-.096 1.103-.216 1.247c-.072.144-.192.192-.336.192h-3.55c-.24 0-.456-.192-.456-.408l.048-26.655a.42.42 0 0 1 .407-.408h5.11a.42.42 0 0 1 .409.408v9.045s1.967-1.272 4.846-1.272l-.024-.048c2.879 0 7.125 1.08 7.125 9.31zm-20.92-8.66h-5.039c-.264 0-.408.191-.408.455v13.051s-1.32.936-3.118.936c-1.8 0-2.328-.816-2.328-2.615V72.697a.42.42 0 0 0-.408-.408h-5.134a.42.42 0 0 0-.408.408v12.26c0 5.278 2.951 6.597 7.006 6.597 3.335 0 6.046-1.847 6.046-1.847s.12.935.192 1.08c.048.12.216.215.384.215h3.215c.263 0 .407-.192.407-.408l.048-17.921c0-.216-.192-.408-.455-.408v.002zm-56.861-.025h-5.11c-.216 0-.408.216-.408.48v17.61c0 .48.312.648.72.648h4.606c.48 0 .6-.216.6-.648V72.649a.42.42 0 0 0-.408-.408v.002zm-2.52-8.11a3.287 3.287 0 0 0-3.31 3.312 3.287 3.287 0 0 0 3.31 3.31c1.8 0 3.264-1.463 3.264-3.31 0-1.848-1.464-3.311-3.263-3.311zm39.563-.599h-5.062a.42.42 0 0 0-.408.408v9.813h-7.941V63.94a.42.42 0 0 0-.408-.408h-5.11a.42.42 0 0 0-.408.408v26.654c0 .216.216.408.408.408h5.11a.42.42 0 0 0 .408-.408V79.198h7.941l-.048 11.396a.42.42 0 0 0 .408.408h5.11a.42.42 0 0 0 .408-.408V63.94a.42.42 0 0 0-.408-.408v.002zM61.637 75.336v13.77c0 .097-.024.265-.144.313 0 0-3 2.135-7.941 2.135-5.974 0-13.052-1.871-13.052-14.203 0-12.332 6.19-14.875 12.236-14.851 5.23 0 7.341 1.176 7.677 1.392.096.12.144.215.144.335l-1.007 4.271c0 .216-.216.48-.48.408-.864-.264-2.16-.792-5.207-.792-3.526 0-7.317 1.008-7.317 8.949s3.599 8.877 6.19 8.877c2.207 0 2.999-.264 2.999-.264v-5.518h-3.527c-.264 0-.456-.192-.456-.408v-4.414c0-.216.192-.408.456-.408h8.973c.264 0 .456.192.456.408z"
        fill="#FFF"
        fill-rule="nonzero"/><rect stroke="#212121" stroke-width="4" stroke-linecap="round" x=".181" width="188.819" height="134.152" rx="6"/>
        <g transform="translate(0 8)"><path d="M1.5 13.5h186.523" stroke="#212121" stroke-width="4" stroke-linecap="square"/><circle fill="#E52F28" cx="9.087" cy="3.14" r="2.5"/><circle fill="#FFC646" cx="19.249" cy="3.14" r="2.5"/><circle fill="#4BC27D" cx="29.249" cy="3.14" r="2.5"/></g>
      </g>
    </g>
  </g>
</svg>