<svg width="892" height="330" xmlns="http://www.w3.org/2000/svg" xmlns:xlink="http://www.w3.org/1999/xlink">
  <defs><path
    d="M117.757 145.628V213H72.26v-69.2c-15.719-8.487-26.56-24.849-27.239-43.8h-.034c-6.456 0-11.689-5.233-11.689-11.69V73.69c0-6.457 5.233-11.69 11.69-11.69V51.89C44.987 23.233 68.22 0 96.877 0c28.659 0 51.89 23.232 51.89 51.89v10.124c6.188.301 11.112 5.413 11.112 11.675v14.622c0 6.273-4.941 11.392-11.145 11.677-.726 20.424-13.257 37.843-30.978 45.64z"
    id="a"/><path
    d="M72.323.07v20.277C72.323 32.858 82.464 43 94.975 43c12.51 0 22.653-10.142 22.653-22.653V.071c17.084 2.025 30.203 7.592 30.203 22.006 0 .222-.003.444-.009.664 24.539 11.474 41.54 36.381 41.54 65.258v69.42H.588v-69.42c0-28.877 17-53.784 41.54-65.258a23.59 23.59 0 0 1-.01-.664c0-14.414 13.119-19.98 30.204-22.006z"
    id="b"/><path
    d="M74.372 66.248c-1.924 2.173-7.718 3.01-9.316 2.173-2.954-1.545-5.75-3.201-8.998-3.088-3.248-.113-6.063.27-9.052 1.835-2.394 1.253-5.945 1.253-8.448-.92-4.04-3.507-3.362-9.083-.813-13.054 3.626-5.651 8.545-2.918 14.045-3.563 1.496-.175 2.998-.617 4.268-1.34 1.27.723 2.772 1.165 4.268 1.34 5.5.645 9.93-2.088 13.556 3.563 2.548 3.971 2.413 10.882.49 13.054zm34.2-65.957c-3.217 14.075-4.696 28.434-7.029 42.671a337.588 337.588 0 0 1-1.584 8.879c-.118.62-.235 2.923-.81 3.215-1.739.884-5.284-3.818-6.232-4.88-2.38-2.665-4.74-5.355-7.64-7.447a39.471 39.471 0 0 0-19.854-7.32c-2.987-.248-7.024.185-9.839 1.993-2.814-1.808-6.852-2.241-9.838-1.993a39.471 39.471 0 0 0-19.855 7.32c-2.9 2.092-5.26 4.782-7.64 7.447-.948 1.062-4.493 5.764-6.232 4.88-.574-.292-.691-2.595-.81-3.215a337.584 337.584 0 0 1-1.584-8.879C7.292 28.725 5.814 14.366 2.595.292 1.66.291.839 19.038.735 20.785.308 27.88-.188 34.816.446 41.917 1.54 54.167 2.681 69.525 11.451 78.88c7.924 8.452 19.43 10.219 29.354 15.554 1.277.687 2.972 1.535 4.8 2.23 1.925 1.563 5.744 2.628 10.143 2.628 4.614 0 8.59-1.172 10.411-2.862a43.018 43.018 0 0 0 4.205-1.996c9.923-5.336 21.43-7.102 29.354-15.554 8.77-9.354 9.91-24.713 11.004-36.962.635-7.1.138-14.037-.287-21.131C110.33 19.039 109.51.29 108.573.29z"
    id="d"/>
    <filter x="-.9%" y="-2.8%" width="101.8%" height="111.1%" filterUnits="objectBoundingBox" id="e"><feOffset dy="2" in="SourceAlpha" result="shadowOffsetOuter1"/><feColorMatrix values="0 0 0 0 0 0 0 0 0 0 0 0 0 0 0 0 0 0 0.2 0" in="shadowOffsetOuter1" result="shadowMatrixOuter1"/>
      <feMerge><feMergeNode in="shadowMatrixOuter1"/><feMergeNode in="SourceGraphic"/></feMerge>
    </filter><path d="M6.618.401H213.58a6 6 0 0 1 6 6v65.345a2 2 0 0 1-2 2H2.618a2 2 0 0 1-2-2V6.401a6 6 0 0 1 6-6z" id="f"/></defs>
  <g fill="none" fill-rule="evenodd">
    <g stroke-width="4">
      <g stroke="#D6DDE3" stroke-linecap="round"><path
        d="M189.883 180.119h145.212M91.746 142.215h386M348.376 106.215h405.297M523.746 31.5h71M285.037 29.5h195.987M766.352 106.215h25.689M347.746 180.119h4.56M298.558 217.715H443.77M260.673 217.715h27.477M543.921 195.908h145.213M697.422 195.908h4.56M145.376 66.215h405.297"/></g>
      <g stroke="#212121"><path d="M269.449 326.866h-24.693c-6.627 0-12-5.372-12-12v-24.333a5 5 0 0 1 5-5h43.693v29.333c0 6.628-5.373 12-12 12z"/><path d="M275.352 285.535c11.785 0 20.506-1.436 20.506 14.356s-5.774 16.67-16.363 16.67M234.756 316.905h46.739"/>
        <g stroke-linecap="round" stroke-linejoin="round"><path d="M257.389 272.309c2.838-2.741 2.853-7.33.034-10.249M257.458 251.812c-2.838 2.74-2.854 7.329-.035 10.248"/></g>
        <g stroke-linecap="round" stroke-linejoin="round"><path d="M246.034 276.835c2.839-2.74 2.854-7.329.035-10.248M246.104 256.339c-2.839 2.74-2.854 7.329-.035 10.248"/></g>
        <g stroke-linecap="round" stroke-linejoin="round"><path d="M268.743 276.386c2.838-2.741 2.854-7.33.034-10.249M268.812 255.889c-2.838 2.74-2.854 7.329-.035 10.248"/></g>
      </g>
    </g><path
      d="M762.73 200.347c-5.136-2.962-8.593-8.51-8.593-14.864 0-9.469 17.146-30.242 17.146-30.242s17.145 20.773 17.145 30.242c0 9.47-7.676 17.146-17.145 17.146M814.127 164.099c5.136-2.962 8.593-8.51 8.593-14.863 0-9.47-17.146-30.243-17.146-30.243s-17.146 20.774-17.146 30.243c0 9.47 7.677 17.145 17.146 17.145"/><path d="M853.99 245.913h-96.832c0 9.944 8.06 18.006 18.005 18.006h60.822c9.944 0 18.005-8.062 18.005-18.006z" stroke="#212121" stroke-width="4" stroke-linecap="round" stroke-linejoin="round"/><path stroke="#212121" stroke-width="4" d="M775.538 263.919l6.69 63.942h52.44l6.508-63.942z"/><path d="M805.574 245.913v-34.291M805.574 210.436v-34.291" stroke="#1D2B36" stroke-width="4" stroke-linecap="round" stroke-linejoin="round"/><path
      d="M805.574 237.34c0-9.469-7.676-17.146-17.146-17.146M822.72 199.352c-9.47 0-17.146 7.677-17.146 17.146M771.283 203.049c0 9.469 7.676 17.146 17.146 17.146M822.72 199.228c9.469 0 17.145-7.676 17.145-17.146M771.283 195.723v-16.788M771.283 192.866l5.566-5.566M848.438 176.264v-16.789M848.438 173.406l5.566-5.566M814.127 164.099c5.136-2.962 8.593-8.51 8.593-14.863 0-9.47-17.146-30.243-17.146-30.243s-17.146 20.774-17.146 30.243c0 9.47 7.677 17.145 17.146 17.145M805.574 166.381v9.763M805.574 159.475v-16.788M805.574 156.618l5.566-5.566M805.574 151.855l-5.566-5.566M805.574 195.13c0-9.468-7.676-17.145-17.146-17.145M740.012 157.26c0 9.47 7.676 17.146 17.146 17.146M746.402 150.319a6.39 6.39 0 1 0-12.78 0 6.39 6.39 0 0 0 12.78 0zM846.244 209.295a6.39 6.39 0 1 0-12.78 0 6.39 6.39 0 0 0 12.78 0zM805.563 216.774c0 9.469 7.676 17.146 17.146 17.146M822.708 233.92c9.47 0 17.146-7.677 17.146-17.147"
      stroke="#212121"
      stroke-width="4"
      stroke-linecap="round"
      stroke-linejoin="round"/>
    <g>
      <g opacity=".15" stroke="#0F0F0F" stroke-linecap="square" stroke-width=".25"><path d="M625.92 314.377H739.39M625.92 316.123H739.39M625.92 317.87H739.39M625.92 319.616H739.39M625.92 321.363H739.39M625.92 323.11H739.39M625.92 312.63H739.39"/></g>
      <g stroke="#212121"><path d="M611.89 308.06v19.14h127v-15.14a4 4 0 0 0-4-4h-123z" stroke-width="4"/>
        <g stroke-linecap="round" stroke-width=".25"><path d="M623.92 314.377H737.39M623.92 316.123H737.39M623.92 317.87H737.39M623.92 319.616H737.39M623.92 321.363H737.39M623.92 323.11H737.39M623.92 312.63H737.39"/></g><path d="M611.89 288.501v19.141h115.572v-15.14a4 4 0 0 0-4-4H611.89z" stroke-width="4"/>
        <g><path d="M611.89 288.2h105.807v-15.14a4 4 0 0 0-4-4H615.89a4 4 0 0 0-4 4v15.14z" stroke-width="4"/>
          <g stroke-linecap="round" stroke-width=".25"><path d="M623.358 275.377H715.6M623.358 277.124H715.6M623.358 278.87H715.6M623.358 280.617H715.6M623.358 282.363H715.6M623.358 284.11H715.6M623.358 273.631H715.6"/></g>
        </g>
      </g>
    </g>
    <g>
      <g transform="matrix(-1 0 0 1 211.422 187.979)"><path
        d="M127.042 21.583h-.044V8.711a6.708 6.708 0 0 0-6.708-6.709h-17.417a6.708 6.708 0 0 0-6.708 6.709v12.872h-43.54V8.711a6.708 6.708 0 0 0-6.708-6.709H28.5a6.708 6.708 0 0 0-6.708 6.709v125.056a5.917 5.917 0 0 0 5.916 5.917h89.444v.014h28.121c5.891 0 10.667-4.775 10.667-10.666V82.563a5.958 5.958 0 0 1 5.958-5.958h10.657a5.285 5.285 0 1 0 0-10.57h-16.7c-5.454 0-9.875 4.42-9.875 9.874v46.138a8.333 8.333 0 0 1-8.333 8.333h-10.605V21.583z"
        stroke="#212121"
        stroke-width="4"/><path d="M37.722 139.868h73.39v-3.064c0-20.266-16.43-36.695-36.695-36.695-20.266 0-36.695 16.429-36.695 36.695v3.064z" stroke="#212121" stroke-width="4"/>
        <g stroke="#212121" stroke-linecap="round" stroke-linejoin="round" stroke-width="4"><path d="M87.125 53.376c-.274 6.806 2.49 10.158 8.294 10.057 5.803-.101 8.418-3.547 7.845-10.338M48.125 53.376c-.274 6.806 2.49 10.158 8.294 10.057 5.803-.101 8.418-3.547 7.845-10.338"/></g>
        <g stroke="#212121" stroke-linecap="round" stroke-width="4"><path d="M62.422 22.575v17.703M74.34 22.575v17.703M86.26 22.575v17.703"/></g>
        <g stroke="#212121" stroke-linecap="round" stroke-width="4"><path d="M150.076 47.963h-30.64M145.22 59.882h-25.785M139.224 71.802h-19.789"/></g>
        <g stroke="#212121" stroke-linecap="round" stroke-width="4"><path d="M31.391 47.963H.751M31.391 59.882H6.22M31.391 71.802H11.215"/></g>
        <g transform="translate(64.25 69.833)"><ellipse fill="#212121" cx="9.771" cy="3.282" rx="9.018" ry="2.677"/><path d="M10.198 5.958c0 3.946 3.29 7.144 7.348 7.144M9.344 5.958c0 3.946-3.29 7.144-7.349 7.144" stroke="#212121" stroke-width="4" stroke-linecap="round" stroke-linejoin="round"/></g><circle stroke="#212121" stroke-width="4" cx="109.153" cy="94.396" r="5.938"/><circle stroke="#212121" stroke-width="4" cx="37.604" cy="94.396" r="5.938"/></g>
    </g>
    <g>
      <g transform="translate(356.777 18.309)"><use fill="#FFE3C3" xlink:href="#a"/>
        <g transform="translate(0 150)">
          <mask id="c" fill="#fff"><use xlink:href="#b"/></mask><use fill="#24292E" xlink:href="#b"/><path d="M64.59 47.332v61.014a2 2 0 1 1-4 0V45.15a62.645 62.645 0 0 0 4 2.182zm67-.51v25.351a2 2 0 0 1-4 0V48.739a66.549 66.549 0 0 0 4-1.918z" fill="#FDFDFD" mask="url(#c)"/><path
            d="M94.98 55c-11.225 0-22.705-3.553-31.045-8.048-12.669-6.827-22.3-17.01-22.3-28.875 0-9.37 5.597-15.003 14.251-18.353C41.55 2.571 31.634 8.243 31.634 19.308 31.634 39.02 63.104 55 94.979 55zM134.072-.276c14.337 2.847 24.253 8.519 24.253 19.584 0 19.71-31.465 35.689-63.337 35.692 26.84-.004 53.335-16.533 53.335-36.923 0-9.37-5.597-15.003-14.25-18.353z"
            fill-opacity=".16"
            fill="#000"
            mask="url(#c)"/><path d="M154 85.965v68.23M37 85.965v68.23" stroke="#0A7ED6" stroke-width="4" stroke-linecap="round"/></g><path d="M87.964 85.771c0 2.983 3.627 5.401 8.102 5.401 4.474 0 8.101-2.418 8.101-5.4" stroke="#212121" stroke-linecap="round" stroke-width="4"/>
        <g transform="translate(63 62)" fill="#212121"><circle cx="6" cy="6" r="6"/><circle cx="58" cy="6" r="6"/></g>
        <g fill-rule="nonzero"><path d="M56.63 55.159c3.915-5.51 14.648-8.598 23.893-6.328a2 2 0 0 0 .954-3.884c-10.737-2.637-23.165.94-28.107 7.894a2 2 0 0 0 3.26 2.318z" fill="#BFA465"/><path d="M106.923 114c-4.74 4.252-14.024 4.483-20.497-.007-.75-.52-1.794-.17-2.33.784-.536.954-.361 2.15.39 2.67 7.517 5.215 18.266 4.947 24.25-.421.775-.695.997-1.936.496-2.772-.5-.835-1.535-.95-2.31-.254z" fill="#212121"/><path d="M135.37 55.159c-3.915-5.51-14.648-8.598-23.893-6.328a2 2 0 0 1-.954-3.884c10.737-2.637 23.165.94 28.108 7.894a2 2 0 0 1-3.26 2.318z" fill="#BFA465"/></g>
      </g><use fill="#BFA465" xlink:href="#d" transform="translate(398.277 77.917)"/><path
        d="M500.303 23.836c-2.652-2.82-5.731-5.213-8.726-7.614-.66-.529-1.332-1.045-1.978-1.594-.147-.125-1.651-1.246-1.831-1.66-.433-.992-.182-.219-.122-1.404.075-1.498 3.01-5.729.82-6.7-.963-.426-2.682.71-3.607 1.085a55.605 55.605 0 0 1-5.506 1.9c.895-1.857 2.602-5.574-.606-4.579-2.5.775-4.83 2.768-7.341 3.705.83-1.418 4.155-5.811 1.151-6.057-.934-.076-3.654 1.748-4.66 2.137-3.014 1.166-6.093 1.92-9.257 2.513-10.76 2.018-23.342 1.443-33.297 6.541-7.674 3.93-15.253 10.029-19.686 17.794-4.273 7.485-5.872 15.677-6.766 24.254-.656 6.295-.71 12.801-.403 19.119.1 2.07-1.2 25.755 1.69 22.866 1.44-1.44 2.952-21.398 3.315-23.366.721-3.915 1.416-7.848 2.619-11.638 2.12-6.678 3.899-14.29 9.901-18.392 5.592-3.822 21.85-10.65 27.38-10.65 5.53 0 6.791 3.85 20.445 2.784 13.653-1.066 16.384-5.024 17.88-4.097 1.37.847 2.791 3.615 3.774 4.748 2.323 2.678 5.092 4.724 7.808 6.92 5.664 4.58 8.523 10.331 10.243 17.488 1.714 7.13 1 15.266 3.122 22.283.373 1.234-.793 7.437.585 9.649.085.136 1.377-.309 1.802-2.562.685-3.625.59-9.883.59-10.574 0-4.52 1.1-7.91 1.086-12.46-.054-13.832-.484-31.868-10.425-42.439z"
        fill="#BFA465"/>
      <g filter="url(#e)" transform="translate(396.728 69.299)" fill="#5B462F" fill-rule="nonzero"><path
        d="M29.447 35.51H27.06c-12.063 0-19.264-6.638-19.264-17.755C7.795 8.771 9.369 0 28.175 0h2.546C49.526 0 51.1 8.771 51.1 17.755c0 10.453-8.903 17.755-21.653 17.755zM28.05 5.197c-16.79 0-16.79 5.925-16.79 13.425 0 6.124 2.7 13.424 15.565 13.424h2.623c10.71 0 18.188-5.52 18.188-13.424 0-7.5 0-13.425-16.79-13.425H28.05zM83.146 35.51h-2.389c-12.063 0-19.264-6.638-19.264-17.755C61.493 8.771 63.067 0 81.873 0h2.546c18.805 0 20.379 8.771 20.379 17.755 0 10.453-8.902 17.755-21.652 17.755zM81.747 5.197c-16.79 0-16.79 5.925-16.79 13.425 0 6.124 2.702 13.424 15.565 13.424h2.624c10.709 0 18.188-5.52 18.188-13.424 0-7.5 0-13.425-16.79-13.425h-2.797z"/><path
        d="M2.559 4.999C3.158 4.414 9.709 0 28.149 0c15.46 0 18.733 1.605 23.687 4.029l.363.179c.344.122 2.106.72 4.166.786 1.877-.08 3.482-.59 3.952-.753C65.97 1.491 71.507 0 84.445 0c18.44 0 24.99 4.414 25.589 4.999 1.415 0 2.559 1.117 2.559 2.5v2.498c0 1.383-1.144 2.5-2.559 2.5 0 0-5.977 0-5.977 2.5 0 2.499-1.7-3.617-1.7-5V7.563c-3.12-1.194-8.707-3.418-17.912-3.418-10.256 0-15.364 1.819-19.745 3.625l.049.118-.003 1.72-1.92 4.634-2.372-.938a11.289 11.289 0 0 0-1.303-.39c-1.766-.436-3.583-.569-5.19-.24a6.855 6.855 0 0 0-1.637.549l-2.289 1.118-2.29-4.47.102-1.988.07-.169c-3.779-1.76-7.263-3.569-19.769-3.569-9.205 0-14.79 2.223-17.912 3.417v2.435c0 1.383-2.56 7.499-2.56 5 0-2.5-5.117-2.5-5.117-2.5C1.146 12.497 0 11.38 0 9.997V7.498c0-1.382 1.146-2.5 2.559-2.5z"/></g>
    </g>
    <g>
      <g transform="translate(341.658 252.082)">
        <mask id="g" fill="#fff"><use xlink:href="#f"/></mask><path stroke="#212121" stroke-width="4" d="M6.618-1.599H213.58a8 8 0 0 1 8 8v65.345a4 4 0 0 1-4 4H2.618a4 4 0 0 1-4-4V6.401a8 8 0 0 1 8-8z"/><path fill="#A5B2BD" mask="url(#g)" d="M-11.019-11.426h240v97h-240z"/><path d="M24.9 74.3c11.658-2.162 22.683-3.925 33.076-5.288 35.918-4.71 97.072 6.704 132.922-6.229 23.9-8.622 36.595-19.827 38.083-33.615L225.555 74.3H24.9z" fill="#B4C0CA" mask="url(#g)"/></g><path
          d="M458.807 293.479c-.011-1.988.888-3.489 2.709-4.594-1.019-1.457-2.558-2.26-4.59-2.416-1.922-.152-4.025 1.121-4.794 1.121-.812 0-2.676-1.067-4.139-1.067-3.023.049-6.236 2.41-6.236 7.216 0 1.42.26 2.888.78 4.4.694 1.987 3.197 6.863 5.808 6.782 1.365-.032 2.33-.97 4.107-.97 1.723 0 2.617.97 4.139.97 2.633-.038 4.897-4.47 5.558-6.463-3.532-1.663-3.342-4.876-3.342-4.979zm-3.067-8.896c1.48-1.755 1.344-3.353 1.3-3.928-1.305.076-2.817.889-3.678 1.891-.948 1.073-1.506 2.4-1.387 3.895 1.414.109 2.703-.617 3.765-1.858z"
          fill="#FDFDFD"
          fill-rule="nonzero"/></g>
    <g stroke="#212121" stroke-linecap="round" stroke-linejoin="round" stroke-width="4"><path
      d="M805.574 245.913v-34.291M805.574 210.436v-34.291M762.73 200.622c-5.136-2.962-8.593-8.51-8.593-14.863 0-9.47 17.145-30.243 17.145-30.243s17.146 20.774 17.146 30.243c0 9.47-7.676 17.145-17.146 17.145M856.991 180.887c5.135-2.962 8.592-8.51 8.592-14.863 0-9.47-17.145-30.243-17.145-30.243s-17.146 20.774-17.146 30.243c0 9.47 7.677 17.146 17.146 17.146"/></g>
    <g stroke="#212121" stroke-linecap="round" stroke-width=".25"><path d="M624.029 294.531h102.233M624.029 296.278h102.233M624.029 298.024h102.233M624.029 299.77h102.233M624.029 301.517h102.233M624.029 303.264h102.233M624.029 292.785h102.233"/></g><path d="M2.777 327.904h886.75" stroke="#212121" stroke-width="4" stroke-linecap="round"/></g>
</svg>