<svg width="892" height="388" xmlns="http://www.w3.org/2000/svg" xmlns:xlink="http://www.w3.org/1999/xlink">
  <defs><rect id="a" y=".761" width="109.676" height="136.239" rx="6"/><path id="c" d="M.284.307h69.211V45.92H.284z"/><path id="e" d="M.758.922h68.988v49.317H.758z"/><rect id="g" x=".431" y=".561" width="31" height="28.158" rx="2"/><path id="i" d="M0 .416h70v53.181H0z"/><path
    d="M117.757 145.628V213H72.26v-69.2c-15.719-8.487-26.56-24.849-27.239-43.8h-.034c-6.456 0-11.689-5.233-11.689-11.69V73.69c0-6.457 5.233-11.69 11.69-11.69V51.89C44.987 23.233 68.22 0 96.877 0c28.659 0 51.89 23.232 51.89 51.89v10.124c6.188.301 11.112 5.413 11.112 11.675v14.622c0 6.273-4.941 11.392-11.145 11.677-.726 20.424-13.257 37.843-30.978 45.64z"
    id="k"/><path
    d="M72.323.07v20.277C72.323 32.858 82.464 43 94.975 43c12.51 0 22.653-10.142 22.653-22.653V.071c17.084 2.025 30.203 7.592 30.203 22.006 0 .222-.003.444-.009.664 24.539 11.474 41.54 36.381 41.54 65.258v69.42H.588v-69.42c0-28.877 17-53.784 41.54-65.258a23.59 23.59 0 0 1-.01-.664c0-14.414 13.119-19.98 30.204-22.006z"
    id="l"/><path
    d="M74.372 66.248c-1.924 2.173-7.718 3.01-9.316 2.173-2.954-1.545-5.75-3.201-8.998-3.088-3.248-.113-6.063.27-9.052 1.835-2.394 1.253-5.945 1.253-8.448-.92-4.04-3.507-3.362-9.083-.813-13.054 3.626-5.651 8.545-2.918 14.045-3.563 1.496-.175 2.998-.617 4.268-1.34 1.27.723 2.772 1.165 4.268 1.34 5.5.645 9.93-2.088 13.556 3.563 2.548 3.971 2.413 10.882.49 13.054zm34.2-65.957c-3.217 14.075-4.696 28.434-7.029 42.671a337.588 337.588 0 0 1-1.584 8.879c-.118.62-.235 2.923-.81 3.215-1.739.884-5.284-3.818-6.232-4.88-2.38-2.665-4.74-5.355-7.64-7.447a39.471 39.471 0 0 0-19.854-7.32c-2.987-.248-7.024.185-9.839 1.993-2.814-1.808-6.852-2.241-9.838-1.993a39.471 39.471 0 0 0-19.855 7.32c-2.9 2.092-5.26 4.782-7.64 7.447-.948 1.062-4.493 5.764-6.232 4.88-.574-.292-.691-2.595-.81-3.215a337.584 337.584 0 0 1-1.584-8.879C7.292 28.725 5.814 14.366 2.595.292 1.66.291.839 19.038.735 20.785.308 27.88-.188 34.816.446 41.917 1.54 54.167 2.681 69.525 11.451 78.88c7.924 8.452 19.43 10.219 29.354 15.554 1.277.687 2.972 1.535 4.8 2.23 1.925 1.563 5.744 2.628 10.143 2.628 4.614 0 8.59-1.172 10.411-2.862a43.018 43.018 0 0 0 4.205-1.996c9.923-5.336 21.43-7.102 29.354-15.554 8.77-9.354 9.91-24.713 11.004-36.962.635-7.1.138-14.037-.287-21.131C110.33 19.039 109.51.29 108.573.29z"
    id="n"/>
    <filter x="-.9%" y="-2.8%" width="101.8%" height="111.1%" filterUnits="objectBoundingBox" id="o"><feOffset dy="2" in="SourceAlpha" result="shadowOffsetOuter1"/><feColorMatrix values="0 0 0 0 0 0 0 0 0 0 0 0 0 0 0 0 0 0 0.2 0" in="shadowOffsetOuter1" result="shadowMatrixOuter1"/>
      <feMerge><feMergeNode in="shadowMatrixOuter1"/><feMergeNode in="SourceGraphic"/></feMerge>
    </filter><path d="M6.618.401H213.58a6 6 0 0 1 6 6v65.345a2 2 0 0 1-2 2H2.618a2 2 0 0 1-2-2V6.401a6 6 0 0 1 6-6z" id="p"/><path
      d="M1.758 9.363c.278 1.305.957 2.07 1.636 2.523h7.152c.87-.591 1.758-1.705 1.758-3.794V2.697s.104-1.34 1.34-1.775c0 0 .713-.504-.052-.783 0 0-3.394-.278-3.394 2.506v4.107s.14 1.514-.661 2.14v-5.08s.052-1.62.887-2.228c0 0 .557-.992-.66-.731 0 0-2.333.33-2.437 3.063l-.053 5.22h-.556l-.053-5.22C6.561 1.2 4.23.853 4.23.853c-1.218-.279-.661.73-.661.73.835.61.887 2.228.887 2.228v5.134c-.8-.574-.661-2.193-.661-2.193V2.645C3.794-.139.4.14.4.14-.383.418.348.922.348.922c1.218.453 1.34 1.775 1.34 1.775v3.777l.07 2.889z"
      id="r"/></defs>
  <g fill="none" fill-rule="evenodd"><path d="M354.329 359.81H44.87c-11.598 0-21-9.402-21-21v-85.366c0-11.598 9.402-21 21-21h68.32c11.598 0 21-9.402 21-21v-35.741" stroke="#D6DDE3" stroke-width="4" stroke-linecap="round" stroke-dasharray="8"/><path d="M350.405 362v-42.769c0-11.598-9.402-21-21-21h-56.332c-11.598 0-21-9.402-21-21V80.623c0-11.598 9.402-21 21-21h8.434" stroke="#D6DDE3" stroke-width="4" stroke-linecap="round" stroke-dasharray="9"/><path d="M558.561 326.26v-31.838c0-10.493 8.507-19 19-19h34c10.493 0 19-8.506 19-19V218.79" stroke="#D6DDE3" stroke-width="4" stroke-linecap="round" stroke-dasharray="8,8,8"/><path d="M561.227 358.16H862.76c11.598 0 21-9.402 21-21V111.764c0-11.598-9.402-21-21-21h-60.232" stroke="#D6DDE3" stroke-width="4" stroke-linecap="round" stroke-linejoin="round" stroke-dasharray="8"/>
    <g transform="translate(573.414 79.41)"><path d="M6 .314h97.676a6 6 0 0 1 6 6v38.798H0V6.314a6 6 0 0 1 6-6z" fill="#4078C0"/><path d="M.5 45.112h106.573" stroke="#212121" stroke-width="4" stroke-linecap="square"/>
      <mask id="b" fill="#fff"><use xlink:href="#a"/></mask><use stroke="#212121" stroke-width="4" stroke-linecap="round" xlink:href="#a"/><rect stroke="#212121" stroke-width="4" fill="#FFF" mask="url(#b)" x="55.284" y="12.875" width="42" height="41.808" rx="2"/><path d="M72.922 28.532l7.276 4.83a.5.5 0 0 1 0 .834l-7.276 4.83a.5.5 0 0 1-.777-.416v-9.662a.5.5 0 0 1 .777-.416z" fill="#24292E" mask="url(#b)"/><path d="M9.474 31.658H31.32" stroke="#F4F6FA" stroke-width="4" stroke-linecap="round" stroke-linejoin="round"/><path d="M9.474 24.213h31.601M9.474 16.823h36.607" stroke="#212121" stroke-width="4" fill="#24292E" stroke-linecap="round" stroke-linejoin="round"/>
      <g stroke-linecap="round" stroke-linejoin="round" stroke-width="4"><path d="M24.122 77.5h62.472M24.122 84.5h62.472" stroke="#959595"/><path d="M35.122 68.5h40" stroke="#212121" fill="#24292E"/></g>
      <g transform="translate(9.338 96)"><path d="M.622 19.5h19.144M.622 26.5h19.144" stroke="#959595" stroke-width="4" stroke-linecap="round" stroke-linejoin="round"/><circle fill="#4078C0" cx="10.015" cy="6.896" r="6"/></g>
      <g transform="translate(44.338 96)"><path d="M.784 19.5h19.143M.784 26.5h19.143" stroke="#959595" stroke-width="4" stroke-linecap="round" stroke-linejoin="round"/><circle fill="#4078C0" cx="10.284" cy="6.896" r="6"/></g>
      <g transform="translate(79.338 96)"><path d="M.74 19.5h19.144M.74 26.5h19.144" stroke="#959595" stroke-width="4" stroke-linecap="round" stroke-linejoin="round"/><circle fill="#4078C0" cx="10.552" cy="6.896" r="6"/></g>
    </g>
    <g stroke="#212121" stroke-width="4"><path d="M268.986 384.866h-24.693c-6.627 0-12-5.372-12-12v-24.333a5 5 0 0 1 5-5h43.693v29.333c0 6.628-5.373 12-12 12z" fill="#FFF"/><path d="M274.89 343.535c11.784 0 20.506-1.436 20.506 14.356s-5.775 16.67-16.363 16.67M234.293 374.905h46.74"/>
      <g stroke-linecap="round" stroke-linejoin="round"><path d="M256.926 330.309c2.838-2.741 2.854-7.33.034-10.249M256.995 309.812c-2.838 2.74-2.854 7.329-.035 10.248"/></g>
      <g stroke-linecap="round" stroke-linejoin="round"><path d="M245.572 334.835c2.838-2.74 2.853-7.329.034-10.248M245.64 314.339c-2.837 2.74-2.853 7.329-.034 10.248"/></g>
      <g stroke-linecap="round" stroke-linejoin="round"><path d="M268.28 334.386c2.838-2.741 2.854-7.33.035-10.249M268.35 313.889c-2.839 2.74-2.855 7.329-.035 10.248"/></g>
    </g><path
      d="M762.267 258.347c-5.136-2.962-8.593-8.51-8.593-14.864 0-9.469 17.146-30.242 17.146-30.242s17.146 20.773 17.146 30.242c0 9.47-7.677 17.146-17.146 17.146M813.664 222.099c5.136-2.962 8.593-8.51 8.593-14.863 0-9.47-17.146-30.243-17.146-30.243s-17.145 20.774-17.145 30.243c0 9.47 7.676 17.145 17.145 17.145"/><path d="M853.528 303.913h-96.833c0 9.944 8.06 18.006 18.005 18.006h60.822c9.945 0 18.006-8.062 18.006-18.006z" stroke="#212121" stroke-width="4" stroke-linecap="round"/><path stroke="#212121" stroke-width="4" fill="#FFF" stroke-linecap="round" d="M775.075 321.919l6.69 63.942h52.44l6.508-63.942z"/><path d="M805.111 303.913v-34.291M805.111 268.436v-34.291" stroke="#1D2B36" stroke-width="4" stroke-linecap="round" stroke-linejoin="round"/><path d="M805.111 295.34c0-9.469-7.676-17.146-17.146-17.146" stroke="#212121" stroke-width="4" stroke-linecap="round" stroke-linejoin="round"/><path d="M822.257 257.352c-9.47 0-17.146 7.677-17.146 17.146" stroke="#212121" stroke-width="4" stroke-linecap="round"/><path d="M770.82 261.049c0 9.469 7.676 17.146 17.146 17.146" stroke="#212121" stroke-width="4" stroke-linecap="round" stroke-linejoin="round"/><path d="M822.257 257.228c9.469 0 17.145-7.676 17.145-17.146" stroke="#212121" stroke-width="4" stroke-linecap="round"/><path d="M770.82 253.723v-16.788M770.82 250.866l5.566-5.566" stroke="#212121" stroke-width="4" stroke-linecap="round" stroke-linejoin="round"/><path d="M847.975 234.264v-16.789M847.975 231.406l5.566-5.566" stroke="#212121" stroke-width="4" stroke-linecap="round"/><path
      d="M813.664 222.099c5.136-2.962 8.593-8.51 8.593-14.863 0-9.47-17.146-30.243-17.146-30.243s-17.145 20.774-17.145 30.243c0 9.47 7.676 17.145 17.145 17.145M805.111 224.381v9.763M805.111 217.475v-16.788M805.111 214.618l5.566-5.566M805.111 209.855l-5.566-5.566M805.111 253.13c0-9.468-7.676-17.145-17.146-17.145M739.549 215.26c0 9.47 7.676 17.146 17.146 17.146M745.94 208.319a6.39 6.39 0 1 0-12.782 0 6.39 6.39 0 0 0 12.781 0zM845.781 267.295a6.39 6.39 0 1 0-12.78 0 6.39 6.39 0 0 0 12.78 0z"
      stroke="#212121"
      stroke-width="4"
      stroke-linecap="round"
      stroke-linejoin="round"/><path d="M805.1 274.774c0 9.469 7.676 17.146 17.146 17.146M822.245 291.92c9.47 0 17.146-7.677 17.146-17.147" stroke="#212121" stroke-width="4" stroke-linecap="round"/>
    <g>
      <g opacity=".15" stroke="#0F0F0F" stroke-linecap="square" stroke-width=".25"><path d="M625.457 372.377h113.469M625.457 374.123h113.469M625.457 375.87h113.469M625.457 377.616h113.469M625.457 379.363h113.469M625.457 381.11h113.469M625.457 370.63h113.469"/>
        <g><path d="M625.263 353.475h102.234M625.263 355.221h102.234M625.263 356.968h102.234M625.263 358.714h102.234M625.263 360.46h102.234M625.263 362.207h102.234M625.263 351.728h102.234"/></g>
      </g>
      <g stroke="#212121"><path d="M611.426 366.06v19.14h127v-15.14a4 4 0 0 0-4-4h-123z" stroke-width="4" fill="#FFF"/>
        <g stroke-linecap="round" stroke-width=".25"><path d="M623.457 372.377h113.469M623.457 374.123h113.469M623.457 375.87h113.469M623.457 377.616h113.469M623.457 379.363h113.469M623.457 381.11h113.469M623.457 370.63h113.469"/></g><path d="M611.426 346.501v19.141H727v-15.14a4 4 0 0 0-4-4H611.426z" fill="#FFF" stroke-width="4"/>
        <g><path d="M611.426 346.2h105.809v-15.14a4 4 0 0 0-4-4h-97.809a4 4 0 0 0-4 4v15.14z" stroke-width="4" fill="#FFF"/>
          <g stroke-linecap="round" stroke-width=".25"><path d="M622.895 333.377h92.242M622.895 335.124h92.242M622.895 336.87h92.242M622.895 338.617h92.242M622.895 340.363h92.242M622.895 342.11h92.242M622.895 331.631h92.242"/></g>
        </g>
      </g>
    </g>
    <g>
      <g transform="matrix(-1 0 0 1 210.959 245.979)"><path
        d="M127.042 21.583h-.044V8.711a6.708 6.708 0 0 0-6.708-6.709h-17.417a6.708 6.708 0 0 0-6.708 6.709v12.872h-43.54V8.711a6.708 6.708 0 0 0-6.708-6.709H28.5a6.708 6.708 0 0 0-6.708 6.709v125.056a5.917 5.917 0 0 0 5.916 5.917h89.444v.014h28.121c5.891 0 10.667-4.775 10.667-10.666V82.563a5.958 5.958 0 0 1 5.958-5.958h10.657a5.285 5.285 0 1 0 0-10.57h-16.7c-5.454 0-9.875 4.42-9.875 9.874v46.138a8.333 8.333 0 0 1-8.333 8.333h-10.605V21.583z"
        stroke="#212121"
        stroke-width="4"
        fill="#FFF"/><path d="M37.722 139.868h73.39v-3.064c0-20.266-16.43-36.695-36.695-36.695-20.266 0-36.695 16.429-36.695 36.695v3.064z" stroke="#212121" stroke-width="4"/>
        <g transform="rotate(-151 37.506 26.503)"><ellipse stroke="#212121" stroke-width="4" cx="7.756" cy="7.421" rx="9.534" ry="9.131"/><ellipse fill="#212121" cx="12.842" cy="7.79" rx="4.758" ry="4.725"/></g>
        <g transform="rotate(-151 57.506 21.331)"><ellipse stroke="#212121" stroke-width="4" cx="7.756" cy="7.421" rx="9.534" ry="9.131"/><ellipse fill="#212121" cx="11.577" cy="9.634" rx="4.758" ry="4.725"/></g>
        <g stroke="#212121" stroke-linecap="round" stroke-width="4"><path d="M62.422 22.575v17.703M74.34 22.575v17.703M86.26 22.575v17.703"/></g>
        <g stroke="#212121" stroke-linecap="round" stroke-width="4"><path d="M150.076 47.963h-30.64M145.22 59.882h-25.785M139.224 71.802h-19.789"/></g>
        <g stroke="#212121" stroke-linecap="round" stroke-width="4"><path d="M31.391 47.963H.751M31.391 59.882H6.22M31.391 71.802H11.215"/></g>
        <g transform="translate(64.25 69.833)"><ellipse fill="#212121" cx="9.771" cy="3.282" rx="9.018" ry="2.677"/><path d="M10.198 5.958c0 3.946 3.29 7.144 7.348 7.144M9.344 5.958c0 3.946-3.29 7.144-7.349 7.144" stroke="#212121" stroke-width="4" stroke-linecap="round" stroke-linejoin="round"/></g><circle stroke="#212121" stroke-width="4" cx="109.153" cy="94.396" r="5.938"/><circle stroke="#212121" stroke-width="4" cx="37.604" cy="94.396" r="5.938"/></g>
    </g>
    <g>
      <g transform="translate(283.6 2)">
        <g transform="translate(1 124)">
          <mask id="d" fill="#fff"><use xlink:href="#c"/></mask><use fill="#FFF" xlink:href="#c"/>
          <g mask="url(#d)">
            <g transform="translate(40 11)"><circle fill="#6E5494" cx="11.884" cy="11.342" r="11.335"/><path stroke="#FDFDFD" stroke-width="4" stroke-linecap="round" stroke-linejoin="round" d="M7.006 11.867l3.671 2.763 5.448-6.24"/></g>
          </g>
        </g><path fill="#24292E" d="M.027 169.033h69.499v23.454H.027z"/>
        <g transform="translate(0 75)">
          <mask id="f" fill="#fff"><use xlink:href="#e"/></mask><use fill="#FFF" xlink:href="#e"/>
          <g mask="url(#f)">
            <g transform="translate(-5 13)">
              <mask id="h" fill="#fff"><use xlink:href="#g"/></mask><use fill="#6E5494" xlink:href="#g"/><rect fill="#212121" mask="url(#h)" x="10.045" y="17.709" width="4" height="14.635" rx="2"/><rect fill="#212121" mask="url(#h)" x="15.545" y="11.182" width="4" height="23.161" rx="2"/><rect fill="#212121" mask="url(#h)" x="22.045" y="5.073" width="4" height="29.271" rx="2"/></g>
          </g>
        </g>
        <g transform="translate(1 23)">
          <mask id="j" fill="#fff"><use xlink:href="#i"/></mask><use fill="#FFF" xlink:href="#i"/>
          <g mask="url(#j)">
            <g transform="translate(7 5)"><rect fill="#6E5494" x="22.453" y=".722" width="32.362" height="26.47" rx="2"/><path d="M.64 16.913h12.685M.64 25h12.685" stroke="#959595" stroke-width="4" stroke-linecap="round"/><path d="M.64 2.89h12.685" stroke="#212121" stroke-width="4" fill="#24292E" stroke-linecap="round"/><path d="M.64 8.826h12.685M.661 33.76h53.03M.661 40.76h53.03" stroke="#959595" stroke-width="4" stroke-linecap="round"/><path d="M37.205 11.276l3.411 2.264a.5.5 0 0 1 0 .834l-3.41 2.264a.5.5 0 0 1-.777-.417v-4.528a.5.5 0 0 1 .776-.417z" fill="#FFF"/></g>
          </g>
        </g><path fill="#6E5494" d="M1.321 1.087H70.37v19.091H1.321z"/><path d="M1.82 21.679h68M1.87 169.91h68" stroke="#212121" stroke-width="4" stroke-linecap="square"/><path d="M49.32 11.833h9.634M31.07 11.833h9.634M12.82 11.833h9.633" stroke="#F4F6FA" stroke-width="4" stroke-linecap="round"/><rect stroke="#212121" stroke-width="4" x=".027" y=".988" width="71.042" height="192.466" rx="6"/></g><path d="M317.648 97.5H333.1" stroke="#212121" stroke-width="4" fill="#24292E" stroke-linecap="round"/><path d="M317.626 105.5h27.732M317.626 111.5h27.732" stroke="#959595" stroke-width="4" stroke-linecap="round"/><path d="M301.148 139.5H316.6" stroke="#212121" stroke-width="4" fill="#24292E" stroke-linecap="round"/><path d="M291.673 146.5h25.133M291.673 152.5h25.133" stroke="#959595" stroke-width="4" stroke-linecap="round"/><path d="M309.788 160.783h6.5" stroke="#6E5494" stroke-width="4" stroke-linecap="round"/>
      <g stroke="#F4F6FA" stroke-linecap="round" stroke-width="4"><path d="M305.876 180.44h25M309.355 187.278h18"/></g>
    </g>
    <g stroke-width="4">
      <g transform="translate(33.227 81)"><rect stroke="#212121" fill="#24292E" x="2.401" y="2.097" width="176.004" height="105.558" rx="6"/>
        <g stroke-linecap="round"><path d="M14.042 12.626h17.086" stroke="#4078C0"/><path d="M18.747 20.71H49.31M18.747 28.542H54.31M18.747 36.376h35.14" stroke="#F4F6FA"/></g>
        <g stroke-linecap="round"><path d="M14.042 47.126h17.086" stroke="#4078C0"/><path d="M18.747 55.21H49.31M18.747 63.042H54.31M18.747 70.876h35.14" stroke="#F4F6FA"/></g>
        <g stroke-linecap="round"><path d="M14.042 81.126h17.086" stroke="#4078C0"/><path d="M18.747 89.21H49.31M18.747 97.042H54.31" stroke="#F4F6FA"/></g>
        <g stroke-linecap="round"><path d="M84.976 65.198h26.505M84.976 96.539h26.505" stroke="#6CC644"/><path d="M91.354 72.407h64.183M91.354 80.328h67.577M91.354 88.282h73.795" stroke="#F4F6FA"/></g>
        <g stroke-linecap="round"><path d="M84.976 13.198h26.505M84.976 52.407h26.505" stroke="#6CC644"/><path d="M91.354 20.407h64.183M91.354 28.328h67.577M91.354 36.282h73.795M91.354 44.539h73.795" stroke="#F4F6FA"/></g><path d="M73.5 3.5v102.176" stroke="#212121" stroke-linecap="square"/></g>
    </g>
    <g transform="translate(741.227 28)" stroke-linecap="round" stroke-linejoin="round" stroke-width="4"><rect stroke="#212121" fill="#24292E" x=".26" width="79" height="123" rx="6"/><path d="M8.622 11H51.76M8.745 20.2h61.652" stroke="#6CC644"/><path d="M8.745 29.15H64.76" stroke="#F4F6FA"/><path d="M8.745 38.1h61.652" stroke="#6CC644"/><path d="M8.745 47.05H66.76M8.745 56h61.652M8.745 64.95H61.76" stroke="#F4F6FA"/><path d="M8.745 73.9H65.76M8.745 82.85h61.652M8.745 91.8H66.76" stroke="#6CC644"/><path d="M8.745 100.75H70.76" stroke="#F4F6FA"/><path d="M8.848 109.418v3.082" stroke="#6CC644"/></g>
    <g>
      <g transform="translate(356.314 76.309)"><use fill="#FFE3C3" xlink:href="#k"/>
        <g transform="translate(0 150)">
          <mask id="m" fill="#fff"><use xlink:href="#l"/></mask><use fill="#24292E" xlink:href="#l"/><path d="M64.59 47.332v61.014a2 2 0 1 1-4 0V45.15a62.645 62.645 0 0 0 4 2.182zm67-.51v25.351a2 2 0 0 1-4 0V48.739a66.549 66.549 0 0 0 4-1.918z" fill="#FDFDFD" mask="url(#m)"/><path
            d="M94.98 55c-11.225 0-22.705-3.553-31.045-8.048-12.669-6.827-22.3-17.01-22.3-28.875 0-9.37 5.597-15.003 14.251-18.353C41.55 2.571 31.634 8.243 31.634 19.308 31.634 39.02 63.104 55 94.979 55zM134.072-.276c14.337 2.847 24.253 8.519 24.253 19.584 0 19.71-31.465 35.689-63.337 35.692 26.84-.004 53.335-16.533 53.335-36.923 0-9.37-5.597-15.003-14.25-18.353z"
            fill-opacity=".16"
            fill="#000"
            mask="url(#m)"/><path d="M154 85.965v68.23M37 85.965v68.23" stroke="#0A7ED6" stroke-width="4" stroke-linecap="round"/></g><path d="M87.964 85.771c0 2.983 3.627 5.401 8.102 5.401 4.474 0 8.101-2.418 8.101-5.4" stroke="#212121" stroke-linecap="round" stroke-width="4"/>
        <g transform="translate(63 62)" fill="#212121"><circle cx="6" cy="6" r="6"/><circle cx="58" cy="6" r="6"/></g>
        <g fill-rule="nonzero"><path d="M57.63 55.159c3.915-5.51 14.648-8.598 23.893-6.328a2 2 0 0 0 .954-3.884c-10.737-2.637-23.165.94-28.107 7.894a2 2 0 0 0 3.26 2.318z" fill="#BFA465"/><path d="M106.923 114c-4.74 4.252-14.024 4.483-20.497-.007-.75-.52-1.794-.17-2.33.784-.536.954-.361 2.15.39 2.67 7.517 5.215 18.266 4.947 24.25-.421.775-.695.997-1.936.496-2.772-.5-.835-1.535-.95-2.31-.254z" fill="#212121"/><path d="M135.37 55.159c-3.915-5.51-14.648-8.598-23.893-6.328a2 2 0 0 1-.954-3.884c10.737-2.637 23.165.94 28.108 7.894a2 2 0 0 1-3.26 2.318z" fill="#BFA465"/></g>
      </g><use fill="#BFA465" xlink:href="#n" transform="translate(397.814 135.917)"/><path
        d="M499.84 81.836c-2.652-2.82-5.73-5.213-8.726-7.614-.66-.529-1.332-1.045-1.978-1.594-.147-.125-1.65-1.246-1.83-1.66-.434-.992-.183-.219-.123-1.404.075-1.498 3.01-5.729.82-6.7-.963-.426-2.682.71-3.606 1.085a55.605 55.605 0 0 1-5.507 1.9c.895-1.857 2.603-5.574-.606-4.579-2.5.775-4.83 2.768-7.341 3.705.83-1.418 4.155-5.811 1.151-6.057-.934-.076-3.654 1.748-4.66 2.137-3.014 1.166-6.093 1.92-9.257 2.513-10.76 2.018-23.342 1.443-33.297 6.541-7.674 3.93-15.253 10.029-19.686 17.794-4.273 7.485-5.871 15.677-6.766 24.254-.656 6.295-.71 12.801-.403 19.119.1 2.07-1.2 25.755 1.69 22.866 1.44-1.44 2.953-21.398 3.315-23.366.722-3.915 1.416-7.848 2.619-11.638 2.12-6.678 3.9-14.29 9.902-18.392 5.59-3.822 21.849-10.65 27.379-10.65 5.53 0 6.791 3.85 20.445 2.784 13.653-1.066 16.384-5.024 17.88-4.097 1.37.847 2.791 3.615 3.774 4.748 2.323 2.678 5.092 4.724 7.808 6.92 5.664 4.58 8.523 10.331 10.243 17.488 1.714 7.13 1 15.266 3.122 22.283.373 1.234-.793 7.437.585 9.649.085.136 1.377-.309 1.802-2.562.685-3.625.59-9.883.59-10.574 0-4.52 1.1-7.91 1.086-12.46-.054-13.832-.484-31.868-10.425-42.439z"
        fill="#BFA465"/>
      <g filter="url(#o)" transform="translate(396.265 127.299)" fill="#5B462F" fill-rule="nonzero"><path
        d="M29.447 35.51H27.06c-12.063 0-19.264-6.638-19.264-17.755C7.795 8.771 9.369 0 28.175 0h2.546C49.526 0 51.1 8.771 51.1 17.755c0 10.453-8.903 17.755-21.653 17.755zM28.05 5.197c-16.79 0-16.79 5.925-16.79 13.425 0 6.124 2.7 13.424 15.565 13.424h2.623c10.71 0 18.188-5.52 18.188-13.424 0-7.5 0-13.425-16.79-13.425H28.05zM83.146 35.51h-2.389c-12.063 0-19.264-6.638-19.264-17.755C61.493 8.771 63.067 0 81.873 0h2.546c18.805 0 20.379 8.771 20.379 17.755 0 10.453-8.902 17.755-21.652 17.755zM81.747 5.197c-16.79 0-16.79 5.925-16.79 13.425 0 6.124 2.702 13.424 15.565 13.424h2.624c10.709 0 18.188-5.52 18.188-13.424 0-7.5 0-13.425-16.79-13.425h-2.797z"/><path
        d="M2.559 4.999C3.158 4.414 9.709 0 28.149 0c15.46 0 18.733 1.605 23.687 4.029l.363.179c.344.122 2.106.72 4.166.786 1.877-.08 3.482-.59 3.952-.753C65.97 1.491 71.507 0 84.445 0c18.44 0 24.99 4.414 25.589 4.999 1.415 0 2.559 1.117 2.559 2.5v2.498c0 1.383-1.144 2.5-2.559 2.5 0 0-5.977 0-5.977 2.5 0 2.499-1.7-3.617-1.7-5V7.563c-3.12-1.194-8.707-3.418-17.912-3.418-10.256 0-15.364 1.819-19.745 3.625l.049.118-.003 1.72-1.92 4.634-2.372-.938a11.289 11.289 0 0 0-1.303-.39c-1.766-.436-3.583-.569-5.19-.24a6.855 6.855 0 0 0-1.637.549l-2.289 1.118-2.29-4.47.102-1.988.07-.169c-3.779-1.76-7.263-3.569-19.769-3.569-9.205 0-14.79 2.223-17.912 3.417v2.435c0 1.383-2.56 7.499-2.56 5 0-2.5-5.117-2.5-5.117-2.5C1.146 12.497 0 11.38 0 9.997V7.498c0-1.382 1.146-2.5 2.559-2.5z"/></g>
    </g>
    <g>
      <g transform="translate(341.195 310.082)">
        <mask id="q" fill="#fff"><use xlink:href="#p"/></mask><path stroke="#212121" stroke-width="4" d="M6.618-1.599H213.58a8 8 0 0 1 8 8v65.345a4 4 0 0 1-4 4H2.618a4 4 0 0 1-4-4V6.401a8 8 0 0 1 8-8z"/><path fill="#A5B2BD" mask="url(#q)" d="M-6.802-22.373h240v97h-240z"/><path
          d="M116.952 43.291c-.01-1.988.889-3.489 2.71-4.594-1.02-1.457-2.558-2.26-4.59-2.416-1.923-.152-4.025 1.121-4.794 1.121-.813 0-2.676-1.067-4.14-1.067-3.022.049-6.235 2.41-6.235 7.216 0 1.42.26 2.888.78 4.4.694 1.988 3.197 6.864 5.808 6.782 1.365-.032 2.33-.97 4.106-.97 1.723 0 2.617.97 4.14.97 2.633-.038 4.897-4.47 5.558-6.463-3.532-1.663-3.343-4.876-3.343-4.979zm-3.066-8.896c1.479-1.755 1.344-3.353 1.3-3.927-1.305.075-2.817.888-3.678 1.89-.948 1.073-1.506 2.4-1.387 3.896 1.414.108 2.703-.618 3.765-1.859z"
          fill="#FDFDFD"
          fill-rule="nonzero"
          mask="url(#q)"/>
        <g mask="url(#q)"><path d="M197.807 46.98c-1.06 2.175-6.951 1.47-13.161-1.559s-10.384-7.253-9.332-9.411c1.06-2.174 6.952-1.47 13.162 1.559 6.21 3.029 10.392 7.237 9.331 9.411z" fill="#9EDCF2" fill-rule="nonzero"/>
          <g transform="rotate(26 10.297 410.102)">
            <mask id="s" fill="#fff"><use xlink:href="#r"/></mask><path d="M19.648 1.531c0 2.42-5.604 4.369-12.513 4.369S-5.378 3.933-5.378 1.53c0-2.419 5.604-4.368 12.513-4.368 6.91 0 12.513 1.95 12.513 4.368z" fill="#7DBCE7" fill-rule="nonzero" mask="url(#s)"/></g><path d="M179.357 23.672l-.878.966s-.277.369.06.63c.415.183.567-.208.589-.332l.229-1.264z" fill="#9EDCF2" fill-rule="nonzero"/><path
              d="M214.344 34.87l.1-.126c-2.98-2.266-6.351-3.93-8.446-4.835.916-1.045 1.712-2.399 2.467-3.947 1.091-2.237 1.116-4.432.427-6.434.609-.652 1.753-2.204 1.953-4.798 0 0-1.296-1.232-5.921-.603a19.515 19.515 0 0 0-4.018-2.599 20.44 20.44 0 0 0-5.022-1.694c-2.4-4.21-4.224-4.48-4.224-4.48-2.29 2.077-2.588 4.314-2.629 4.875-1.86.719-3.412 2.034-4.412 4.083-.755 1.548-1.262 3.024-1.411 4.442-2.027-1.085-5.296-2.64-8.8-3.555l-.037.156c3.504.915 6.796 2.501 8.807 3.579-.028.296-.04.6-.045.887-2.064-.929-5.65-2.349-9.425-3.028l-.021.164c3.805.694 7.415 2.145 9.463 3.067.122 2.847 1.782 5.477 5.815 8.006-.808.109-1.754.5-2.576 1.55-1.02-.013-4.09-.31-4.341-3.763 0 0-.098-2.022-1.71-2.964 0 0-1.612-.824-.606.964 0 0 .827 1.042.64 3.332 0 0-.617 3.766 4.61 4.998l-1.64 3.363s-.681 1.159-1.983 1.008c0 0-.878.134-.296.727 0 0 2.928 1.738 4.149-.765l1.8-3.691s.592-1.531 1.556-1.681l-2.96 6.069s-.757 1.432-1.775 1.613c0 0-.935.647.274.947 0 0 2.241.725 3.533-1.685l3.045-6.124.5.244-2.95 6.17c-1.097 2.486.846 3.82.846 3.82.973.785.915-.366.915-.366-.484-.914.179-2.391.179-2.391l2.937-6.022c.445.914-.344 2.213-.344 2.213l-1.8 3.692c-1.22 2.503 1.951 3.74 1.951 3.74.826.093.39-.681.39-.681-.896-.94-.426-2.183-.426-2.183l2.365-4.849c.923-1.893.614-3.283.084-4.18 4.757 1.758 7.64 1.364 9.756-.431 1.963 1.016 5.423 3.013 8.36 5.646l.116-.118c-2.93-2.61-6.358-4.592-8.345-5.638.208-.19.4-.386.6-.598 2.135.944 5.53 2.6 8.525 4.874z"
              fill="#010101"
              fill-rule="nonzero"/><path
              d="M204.077 23.685c.534 1.365.594 2.711.038 3.853-2.625 5.38-6.698 3.568-11.64 1.158-4.943-2.411-8.581-5.115-6.255-9.886.557-1.142 1.64-1.93 3.036-2.334 2.328-.684 4.669 1.425 7.75 2.928 3.081 1.503 6.177 2.025 7.07 4.281z"
              fill="#F5CCB3"
              fill-rule="nonzero"/><path d="M192.058 22.006c-.725 1.486-2.133 2.27-3.166 1.767-1.032-.504-1.274-2.112-.557-3.583.725-1.486 2.134-2.27 3.166-1.767 1.04.488 1.282 2.097.557 3.583z" fill="#FFF" fill-rule="nonzero"/><path d="M191.449 21.747c-.481.986-1.433 1.509-2.106 1.18-.688-.335-.846-1.4-.366-2.385.48-.985 1.433-1.508 2.106-1.18.672.328.846 1.4.366 2.385z" fill="#AF5C51" fill-rule="nonzero"/><path d="M202.053 26.881c-.724 1.486-2.133 2.27-3.166 1.767-1.032-.504-1.274-2.112-.556-3.583.724-1.486 2.133-2.27 3.165-1.767 1.025.48 1.282 2.097.557 3.583z" fill="#FFF" fill-rule="nonzero"/><path
              d="M201.428 26.615c-.48.985-1.433 1.508-2.105 1.18-.689-.335-.847-1.4-.366-2.386.48-.985 1.432-1.508 2.105-1.18.688.336.847 1.4.366 2.386zm-7.057-.538a.524.524 0 0 1-.698.24.524.524 0 0 1-.24-.697.513.513 0 0 1 .698-.24c.25.121.37.431.24.697zm-2.12.418c.006-.093.091-.149.185-.142.093.007.149.092.142.186a.936.936 0 0 0 .523.952.96.96 0 0 0 1.072-.174c.07-.063.17-.072.234-.003.063.07.071.171.002.234a1.277 1.277 0 0 1-1.453.24 1.277 1.277 0 0 1-.706-1.293z"
              fill="#AF5C51"
              fill-rule="nonzero"/><path
              d="M180.874 23.58c-.061.125-.248.15-.436.058-.172-.084-.282-.254-.221-.379.06-.125.247-.15.435-.059.188.092.283.255.222.38zm.663.943c-.061.125-.248.15-.436.058-.172-.083-.282-.254-.221-.379.06-.125.247-.15.435-.059.188.092.283.255.222.38zm.227.924c-.061.125-.248.15-.436.058-.172-.084-.282-.254-.221-.379.06-.125.247-.15.435-.059.195.076.283.254.222.38zm.134.995c-.06.125-.247.15-.435.058-.172-.084-.283-.254-.222-.379.061-.125.248-.15.435-.059.196.076.283.254.222.38zm.212.955c-.061.125-.248.15-.435.059-.172-.084-.283-.254-.222-.38.061-.125.248-.15.435-.058.188.091.283.254.222.379zm.453.976c-.06.125-.247.15-.435.059-.172-.084-.283-.254-.222-.38.061-.125.248-.15.435-.058.196.076.283.254.222.379zm.857.902c-.06.125-.247.15-.435.059-.172-.084-.283-.254-.222-.38.062-.124.248-.15.436-.058.187.092.282.254.221.38zm1.048.511c-.06.125-.247.15-.435.06-.172-.085-.283-.255-.222-.38.062-.125.248-.15.436-.059.187.092.282.254.221.38zm1.148.347c-.061.125-.248.15-.435.059-.172-.084-.283-.254-.222-.38.061-.124.248-.15.435-.058.172.084.283.254.222.38z"
              fill="#C4E5D9"
              fill-rule="nonzero"/></g><path d="M24.9 74.3c11.658-2.162 22.683-3.925 33.076-5.288 35.918-4.71 97.072 6.704 132.922-6.229 23.9-8.622 36.595-19.827 38.083-33.615L225.555 74.3H24.9z" fill="#B4C0CA" mask="url(#q)"/></g>
    </g>
    <g stroke="#212121" stroke-linecap="round" stroke-width="4"><path d="M805.111 303.913v-34.291M805.111 268.436v-34.291M762.266 258.622c-5.135-2.962-8.592-8.51-8.592-14.863 0-9.47 17.145-30.243 17.145-30.243s17.146 20.774 17.146 30.243c0 9.47-7.676 17.145-17.146 17.145" stroke-linejoin="round"/><path d="M856.528 238.887c5.136-2.962 8.593-8.51 8.593-14.863 0-9.47-17.146-30.243-17.146-30.243s-17.146 20.774-17.146 30.243c0 9.47 7.677 17.146 17.146 17.146"/></g>
    <g stroke="#212121" stroke-linecap="round" stroke-width=".25"><path d="M623.566 352.531h102.233M623.566 354.278h102.233M623.566 356.024h102.233M623.566 357.77h102.233M623.566 359.517h102.233M623.566 361.264h102.233M623.566 350.785h102.233"/></g><path d="M2.314 385.904h886.75" stroke="#212121" stroke-width="4" stroke-linecap="round"/></g>
</svg>